<svg width="51" height="51" viewBox="0 0 51 51" fill="none" xmlns="http://www.w3.org/2000/svg">
<g clip-path="url(#clip0_22277_3153)">
<path d="M32.2332 39.4107C32.2988 39.4646 32.3105 39.481 32.3245 39.4833C34.0012 39.8603 34.3056 40.242 34.3056 41.9749C34.3056 42.2887 34.3173 42.6024 34.3056 42.9115C34.302 43.3708 34.118 43.8103 33.7935 44.1353C33.4689 44.4603 33.0297 44.6448 32.5704 44.6491C32.4437 44.6625 32.3179 44.6828 32.1934 44.71C32.4159 45.0776 32.5985 45.4125 32.814 45.7075C32.9085 45.7896 33.0308 45.8323 33.1559 45.827C36.0408 45.827 38.9281 45.8387 41.8201 45.827C42.7357 45.827 43.3586 45.1081 43.3586 44.1175C43.3586 41.4948 43.3586 38.8721 43.3586 36.2494C43.3492 36.102 43.3492 35.9542 43.3586 35.8068C43.3685 35.6311 43.444 35.4655 43.5702 35.3427C43.6964 35.22 43.8641 35.1491 44.0401 35.1441C44.2241 35.1216 44.4096 35.1727 44.5561 35.2863C44.7026 35.3999 44.7982 35.5668 44.8222 35.7506C44.8461 35.8969 44.8524 36.0455 44.8409 36.1932C44.8409 38.7987 44.8409 41.4051 44.8409 44.0121C44.8409 46.0424 43.5741 47.3233 41.5462 47.328C38.708 47.328 35.8714 47.328 33.0364 47.328C32.8907 47.3134 32.7435 47.3347 32.608 47.3903C32.4724 47.4458 32.3526 47.5338 32.259 47.6465C31.9967 47.9602 31.6853 48.2366 31.3926 48.5269C30.5425 49.3653 29.6316 49.398 28.716 48.6253C28.6551 48.5738 28.5895 48.5316 28.4444 48.4262C28.4163 48.6393 28.3975 48.7869 28.3764 48.9344C28.3405 49.3915 28.1296 49.8171 27.7875 50.1225C27.4455 50.4279 26.9988 50.5895 26.5406 50.5736C26.0933 50.5736 25.6484 50.5736 25.2035 50.5736C24.0139 50.5736 23.3301 49.9249 23.2575 48.7424C23.2575 48.6651 23.2364 48.5902 23.2107 48.4145C23.0327 48.548 22.9086 48.6347 22.7915 48.7307C22.4601 49.024 22.0303 49.1813 21.5879 49.1714C21.1454 49.1614 20.7231 48.9847 20.4053 48.6768C20.3411 48.6251 20.2823 48.567 20.2297 48.5035C19.5272 47.4779 18.5601 47.2554 17.3447 47.2975C14.6096 47.3889 11.8698 47.328 9.13239 47.3256C6.99676 47.3256 5.75098 46.0752 5.75098 43.9442C5.75098 30.3874 5.75098 16.8305 5.75098 3.27365C5.75098 2.24096 6.03198 1.3558 6.82113 0.669685C7.29602 0.235249 7.9174 -0.00393229 8.56101 -3.99254e-05C17.7311 0.0140103 26.8981 0.0140103 36.0619 -3.99254e-05C36.5093 -0.0230592 36.9565 0.050806 37.3728 0.216507C37.789 0.382207 38.1646 0.635836 38.4738 0.960056C40.1911 2.80375 41.8943 4.66462 43.5834 6.54266C44.3778 7.44339 44.8151 8.60367 44.8128 9.80464C44.8269 10.3339 44.8347 10.8615 44.8362 11.3876V31.9711C44.8362 32.1023 44.8362 32.2358 44.8362 32.3669C44.8413 32.5674 44.7673 32.7619 44.6301 32.9082C44.493 33.0546 44.3037 33.1411 44.1033 33.149C43.6794 33.149 43.3703 32.8305 43.3493 32.3435C43.3493 32.1959 43.3493 32.0461 43.3493 31.8985V11.1792H42.7662C41.0848 11.1792 39.4012 11.1792 37.7198 11.1792C35.8043 11.1792 34.4836 9.8585 34.4719 7.94534C34.4719 5.983 34.4719 4.02065 34.4719 2.05831V1.40498H9.11599C7.84914 1.40498 7.24264 2.0185 7.24264 3.27834V43.9559C7.24264 45.2392 7.83509 45.8293 9.11599 45.8293H18.717L19.4546 44.6983C19.3071 44.6748 19.2204 44.6514 19.1291 44.6467C18.0098 44.5859 17.3354 43.8904 17.3236 42.7734C17.3236 42.3285 17.3236 41.8835 17.3236 41.4386C17.3236 40.3497 17.9184 39.6823 18.9933 39.5278C19.1174 39.5091 19.2274 39.481 19.4476 39.4435C19.3188 39.2726 19.2415 39.1601 19.1572 39.0524C18.8651 38.7192 18.711 38.2871 18.7263 37.8443C18.7415 37.4014 18.9249 36.981 19.2392 36.6686C19.6091 36.2682 19.9955 35.8841 20.3936 35.5141C20.6974 35.2163 21.0991 35.039 21.5238 35.0153C21.9486 34.9916 22.3675 35.1231 22.7025 35.3853C23.1264 35.6968 23.1849 35.6687 23.2669 35.1231C23.3226 34.728 23.5127 34.3641 23.8053 34.0929C24.0979 33.8216 24.4751 33.6595 24.8733 33.6337C25.4329 33.601 25.9949 33.6033 26.5546 33.6197C27.5545 33.6431 28.1774 34.1911 28.3601 35.1769C28.4514 35.6453 28.5146 35.6827 28.894 35.4111C29.2383 35.1328 29.6748 34.9944 30.1166 35.0235C30.5583 35.0525 30.9729 35.247 31.2778 35.568C31.6103 35.8865 31.9335 36.2166 32.2566 36.5468C33.0622 37.3641 33.102 38.2422 32.3854 39.1484C32.3294 39.2327 32.2786 39.3203 32.2332 39.4107ZM31.437 37.9448C31.3683 37.8247 31.29 37.7104 31.2029 37.6029C30.9172 37.3055 30.6128 37.0245 30.3341 36.7224C30.0999 36.4695 29.9103 36.5 29.6691 36.7224C28.9385 37.425 28.9314 37.4109 28.0065 36.9847C27.932 36.9446 27.8535 36.9124 27.7723 36.8887C27.1096 36.7318 26.7935 36.3361 26.8801 35.6382C26.9246 35.2706 26.77 35.0833 26.3696 35.1114C26.0408 35.1383 25.7103 35.1383 25.3814 35.1114C24.885 35.0622 24.707 35.2448 24.7328 35.753C24.7679 36.4555 24.6461 36.5773 23.9741 36.8395C23.8523 36.8864 23.7399 36.9355 23.6111 36.9917C22.6908 37.4086 22.6744 37.4179 21.9485 36.7178C21.6979 36.4836 21.5153 36.4836 21.2881 36.7178C21.0071 37.0198 20.7121 37.3102 20.4147 37.5959C20.211 37.7903 20.1548 37.9987 20.3983 38.1766C21.1266 38.7059 21.1757 39.3334 20.7191 40.05C20.665 40.1522 20.6263 40.2619 20.6044 40.3755C20.564 40.5728 20.4507 40.7475 20.287 40.8648C20.1233 40.982 19.9213 41.0331 19.7215 41.0077C18.6209 40.9703 18.8294 41.1201 18.8106 41.9772V42.0756C18.8106 43.0965 18.8106 43.0965 19.8199 43.141C20.5388 43.1715 21.3584 44.717 20.9907 45.3399C20.9637 45.3816 20.934 45.4215 20.9018 45.4593C20.684 45.738 20.2648 46.0401 20.2953 46.2859C20.3351 46.595 20.7425 46.8573 20.9978 47.136C21.0633 47.2109 21.1453 47.2718 21.2062 47.3491C21.4802 47.7003 21.7237 47.705 22.0468 47.3701C22.7494 46.6372 22.7681 46.6536 23.7048 47.0587C23.871 47.1313 24.042 47.1922 24.2129 47.2554C24.3798 47.3073 24.5242 47.4144 24.6225 47.559C24.7207 47.7036 24.767 47.8772 24.7538 48.0516C24.7278 48.2478 24.7326 48.4469 24.7679 48.6417C24.8264 48.8033 25.0021 49.0257 25.1285 49.0421C25.5879 49.0889 26.0508 49.0889 26.5101 49.0421C26.6459 49.0421 26.8145 48.8407 26.8754 48.6932C26.9183 48.5168 26.9247 48.3335 26.8942 48.1546C26.8609 47.9392 26.912 47.7192 27.0367 47.5404C27.1614 47.3616 27.3502 47.2377 27.5639 47.1945C27.724 47.1445 27.8805 47.0835 28.0322 47.0119C28.8284 46.6512 28.9244 46.6676 29.5403 47.2835C30.0203 47.7635 30.0273 47.7635 30.5121 47.2835L30.6877 47.1079C31.4698 46.3257 31.4722 46.3234 30.7743 45.5061C30.1936 44.8271 30.8774 44.3142 31.0085 43.7335C31.0432 43.5609 31.1391 43.4066 31.2785 43.299C31.4179 43.1914 31.5914 43.1378 31.7672 43.1481C31.9489 43.1363 32.1312 43.1363 32.3128 43.1481C32.7109 43.1855 32.8421 42.9935 32.8257 42.6212C32.8058 42.2757 32.8058 41.9293 32.8257 41.5838C32.8585 41.1529 32.6852 41.0054 32.2543 41.0077C31.2919 41.0077 31.2567 40.9726 30.9336 40.0921C30.8938 39.9821 30.8516 39.8744 30.8048 39.769C30.484 39.0337 30.5051 38.933 31.0835 38.3429C31.1865 38.2375 31.2989 38.0994 31.437 37.9354V37.9448ZM43.2251 9.68288C43.3141 8.91012 43.0612 8.20292 42.3353 7.37162C41.4712 6.37874 40.572 5.41396 39.6845 4.44216C38.996 3.69125 38.3037 2.94113 37.6074 2.19179C37.1789 1.73516 36.6871 1.412 36.0174 1.48928C35.9977 1.54149 35.9835 1.59565 35.9753 1.65086C35.9753 3.79351 35.9518 5.93382 35.9753 8.07413C35.9753 9.05764 36.659 9.68053 37.6613 9.6899C38.996 9.70395 40.3285 9.6899 41.6632 9.6899L43.2251 9.68288Z" fill="#F37121"/>
<path d="M25.3182 29.3344H13.3475C13.1662 29.3411 12.9846 29.3348 12.8042 29.3157C12.6454 29.288 12.5002 29.2083 12.3915 29.0892C12.2828 28.9701 12.2167 28.8183 12.2036 28.6576C12.1905 28.4968 12.2311 28.3363 12.319 28.2011C12.4069 28.066 12.5372 27.9638 12.6895 27.9107C12.8645 27.866 13.0452 27.847 13.2257 27.8545C21.3046 27.8545 29.3834 27.8545 37.4623 27.8545C37.6403 27.8545 37.8814 27.8287 37.9868 27.9271C38.2126 28.1123 38.3761 28.3625 38.4552 28.6436C38.4628 28.7268 38.4536 28.8108 38.4281 28.8903C38.4026 28.9699 38.3612 29.0435 38.3066 29.1067C38.2519 29.1699 38.185 29.2214 38.11 29.2581C38.0349 29.2948 37.9532 29.316 37.8697 29.3204C37.6904 29.3435 37.5095 29.3513 37.3288 29.3438L25.3182 29.3344Z" fill="#F37121"/>
<path d="M29.9429 23.3467C32.4462 23.3467 34.9518 23.3467 37.4551 23.3467C37.6893 23.3467 37.9984 23.3467 38.1576 23.4966C38.2537 23.5863 38.3298 23.6952 38.3811 23.8162C38.4323 23.9373 38.4575 24.0677 38.455 24.1991C38.4152 24.4192 38.1506 24.6323 37.9351 24.7775C37.8063 24.8665 37.5862 24.8267 37.4059 24.8267H22.5221C22.4214 24.8267 22.323 24.8267 22.2247 24.8267C21.7376 24.7986 21.4098 24.4942 21.4121 24.0727C21.4145 23.6512 21.7353 23.3421 22.2317 23.3397C23.714 23.3397 25.1986 23.3397 26.6809 23.3397L29.9429 23.3467Z" fill="#F37121"/>
<path d="M30.1892 20.3212C27.7678 20.3212 25.3442 20.3212 22.9299 20.3212C22.6882 20.3357 22.4484 20.2717 22.2461 20.1386C22.1565 20.051 22.0874 19.9447 22.0437 19.8273C22 19.7099 21.9827 19.5843 21.9932 19.4595C22.0856 19.2172 22.2572 19.0133 22.4803 18.8811C22.6653 18.814 22.8642 18.7947 23.0587 18.8249C27.8186 18.8249 32.58 18.8249 37.343 18.8249C37.425 18.8249 37.5093 18.8249 37.5913 18.8249C38.1462 18.8436 38.4975 19.1504 38.4834 19.6023C38.4694 20.0543 38.1369 20.3165 37.5936 20.3189C35.1286 20.3236 32.6604 20.3243 30.1892 20.3212Z" fill="#F37121"/>
<path d="M30.2379 14.3335H37.3543C37.5192 14.3284 37.6842 14.3339 37.8484 14.3499C38.0155 14.3624 38.1723 14.4358 38.2888 14.5563C38.4054 14.6767 38.4737 14.8358 38.4807 15.0033C38.508 15.1693 38.4719 15.3395 38.3795 15.48C38.2871 15.6206 38.1451 15.7213 37.9819 15.762C37.7754 15.8144 37.5624 15.8365 37.3496 15.8275C32.5882 15.8275 27.8267 15.8275 23.0653 15.8275C22.9176 15.8334 22.7697 15.8287 22.6227 15.8135C22.4312 15.7991 22.2528 15.7105 22.1255 15.5666C21.9983 15.4228 21.9322 15.2349 21.9413 15.0431C21.9412 14.948 21.9604 14.8539 21.9977 14.7664C22.035 14.679 22.0897 14.6 22.1585 14.5344C22.2272 14.4687 22.3086 14.4176 22.3976 14.3843C22.4867 14.351 22.5816 14.3361 22.6765 14.3406C23.6647 14.3242 24.6553 14.3406 25.6435 14.3406L30.2379 14.3335Z" fill="#F37121"/>
<path d="M17.2768 9.72042H12.7246C12.0923 9.72042 11.7715 9.46283 11.7715 8.9781C11.7715 8.49337 12.1063 8.2311 12.7292 8.22876C15.7469 8.22876 18.7646 8.22876 21.7822 8.22876C22.3466 8.22876 22.6674 8.46293 22.7189 8.90551C22.7634 9.37385 22.4379 9.7134 21.8853 9.71574C20.3421 9.7251 18.8083 9.71808 17.2768 9.72042Z" fill="#F37121"/>
<path d="M18.5974 16.982C18.3117 16.8301 18.0745 16.6009 17.913 16.3205C17.7515 16.0402 17.6722 15.72 17.6841 15.3967C17.6841 15.0524 17.6326 14.6942 17.6326 14.3593C17.6326 14.0244 17.5155 13.7598 17.1198 13.713C17.0444 13.714 16.9697 13.6985 16.901 13.6675C16.8323 13.6365 16.7712 13.5908 16.7221 13.5336C16.673 13.4765 16.637 13.4092 16.6167 13.3366C16.5964 13.264 16.5923 13.1879 16.6046 13.1135C16.6304 12.7201 16.9207 12.6452 17.2275 12.6124C18.2134 12.5094 18.8831 13.0807 18.944 14.0713C18.9697 14.4998 18.9838 14.9283 18.9931 15.3569C18.9916 15.5554 19.0434 15.7508 19.1431 15.9225C19.2427 16.0943 19.3867 16.2362 19.5598 16.3333C20.2975 16.8017 20.3068 17.1342 19.5926 17.5861C19.405 17.6909 19.2498 17.8453 19.144 18.0324C19.0383 18.2195 18.9861 18.4321 18.9931 18.6469C18.9931 19.1153 18.9721 19.6024 18.9276 20.0801C18.8409 20.9886 17.7567 21.6349 16.9324 21.2509C16.8473 21.2022 16.7751 21.1338 16.7218 21.0516C16.6684 20.9693 16.6355 20.8755 16.6257 20.7779C16.6444 20.5952 16.8364 20.3095 16.984 20.2838C17.5951 20.2018 17.656 19.8154 17.6443 19.326C17.6443 19.1129 17.6584 18.8975 17.6654 18.6844C17.6888 17.9913 17.8574 17.3731 18.5974 16.982Z" fill="#F37121"/>
<path d="M13.4249 16.9749C14.1953 17.3777 14.3615 18.0264 14.3615 18.757C14.3615 19.0052 14.3615 19.2534 14.3756 19.4993C14.3943 19.8927 14.4903 20.2018 14.9751 20.2486C15.0474 20.2469 15.119 20.2626 15.184 20.2943C15.249 20.326 15.3054 20.3728 15.3485 20.4309C15.3917 20.4889 15.4202 20.5565 15.4319 20.6278C15.4435 20.6992 15.4378 20.7723 15.4153 20.8411C15.3673 20.9526 15.2954 21.0524 15.2048 21.1333C15.1142 21.2142 15.007 21.2743 14.8908 21.3094C13.8862 21.5108 13.1134 20.8411 13.0736 19.8201C13.0736 19.5414 13.0549 19.2604 13.0736 18.9794C13.09 18.3237 12.9097 17.8086 12.2727 17.469C11.8044 17.2349 11.8185 16.7033 12.2891 16.4598C12.9144 16.1389 13.09 15.6378 13.0759 14.9985C13.0759 14.652 13.0759 14.296 13.0947 13.9588C13.1113 13.7323 13.1801 13.5126 13.2956 13.317C13.4112 13.1215 13.5705 12.9553 13.7609 12.8315C13.9514 12.7077 14.1679 12.6296 14.3936 12.6034C14.6192 12.5771 14.8479 12.6034 15.0617 12.6803C15.1566 12.7277 15.2387 12.797 15.3015 12.8825C15.3642 12.9681 15.4056 13.0673 15.4223 13.172C15.4223 13.343 15.2069 13.6404 15.0594 13.6567C14.4412 13.7293 14.3896 14.1251 14.385 14.6098C14.385 14.7737 14.3732 14.94 14.3732 15.1039C14.3545 15.8579 14.2374 16.5628 13.4249 16.9749Z" fill="#F37121"/>
<path d="M15.8414 23.3467C16.7313 23.3467 17.6211 23.3467 18.5133 23.3467C19.0964 23.3467 19.4172 23.6231 19.4125 24.0937C19.4078 24.5644 19.0824 24.8361 18.4993 24.8361C16.7008 24.8361 14.9055 24.8361 13.1134 24.8361C12.5303 24.8361 12.1978 24.5644 12.1767 24.1055C12.1556 23.6465 12.5022 23.3491 13.1134 23.3444C14.0266 23.3421 14.9329 23.3467 15.8414 23.3467Z" fill="#F37121"/>
<path d="M14.0226 6.5965C13.5542 6.5965 13.0999 6.5965 12.641 6.5965C12.0813 6.58011 11.7816 6.32253 11.7745 5.85419C11.7675 5.38585 12.0626 5.10484 12.6152 5.09782C13.5847 5.08377 14.5557 5.08377 15.5283 5.09782C16.0692 5.09782 16.376 5.39755 16.3689 5.85419C16.3619 6.31082 16.0528 6.57309 15.5025 6.58714C15.0084 6.60353 14.519 6.5965 14.0226 6.5965Z" fill="#F37121"/>
<path d="M20.546 6.59422C20.0519 6.59422 19.5578 6.60593 19.0637 6.59422C18.5696 6.58251 18.2441 6.27106 18.2441 5.8519C18.2454 5.74813 18.268 5.64573 18.3104 5.55103C18.3529 5.45633 18.4143 5.37134 18.4909 5.30132C18.5675 5.23131 18.6577 5.17775 18.7558 5.14396C18.8539 5.11018 18.9579 5.09688 19.0614 5.1049C20.0496 5.09085 21.0378 5.09085 22.026 5.1049C22.1298 5.09653 22.2343 5.10965 22.3328 5.14342C22.4314 5.1772 22.522 5.23091 22.5988 5.30121C22.6757 5.37151 22.7373 5.4569 22.7798 5.55204C22.8222 5.64719 22.8446 5.75006 22.8456 5.85424C22.8456 6.27106 22.5224 6.58251 22.0283 6.5989C21.5342 6.61529 21.0401 6.59422 20.546 6.59422Z" fill="#F37121"/>
<path d="M29.5055 42.0779C29.512 42.8122 29.3003 43.5318 28.8972 44.1455C28.4942 44.7592 27.9179 45.2395 27.2416 45.5253C26.5653 45.8111 25.8193 45.8896 25.0983 45.7508C24.3772 45.6121 23.7137 45.2624 23.1917 44.746C22.6697 44.2296 22.3128 43.5698 22.1663 42.8503C22.0198 42.1308 22.0903 41.3841 22.3688 40.7047C22.6473 40.0253 23.1213 39.4439 23.7306 39.0343C24.34 38.6247 25.0573 38.4052 25.7915 38.4038C26.7699 38.4031 27.7089 38.7888 28.4044 39.4768C29.0999 40.1648 29.4956 41.0997 29.5055 42.0779ZM28.0115 42.0779C28.0118 41.7856 27.9538 41.4962 27.8408 41.2266C27.7277 40.957 27.5619 40.7127 27.3532 40.5081C27.1444 40.3035 26.8969 40.1426 26.6251 40.035C26.3533 39.9274 26.0627 39.8752 25.7705 39.8814C25.3333 39.887 24.9076 40.0219 24.5471 40.2691C24.1866 40.5164 23.9074 40.8649 23.7447 41.2706C23.582 41.6764 23.5431 42.1212 23.633 42.5491C23.7228 42.9769 23.9374 43.3685 24.2496 43.6745C24.5618 43.9805 24.9577 44.1872 25.3872 44.2685C25.8168 44.3497 26.2607 44.302 26.6632 44.1312C27.0656 43.9604 27.4084 43.6742 27.6484 43.3088C27.8883 42.9434 28.0147 42.5151 28.0115 42.0779Z" fill="#F37121"/>
</g>
<defs>
<clipPath id="clip0_22277_3153">
<rect width="50.5806" height="50.5806" fill="white"/>
</clipPath>
</defs>
</svg>
