<svg width="554" height="554" viewBox="0 0 554 554" fill="none" xmlns="http://www.w3.org/2000/svg">
<g filter="url(#filter0_f_2_6316)">
<path d="M160.414 478.566C126.09 459.51 97.4863 430.927 76.5104 396.626C55.5345 362.326 46 320.403 46 276.575C46 232.747 55.5345 192.729 76.5104 158.429C97.4863 124.129 126.09 95.545 160.414 76.4892C194.738 57.4335 234.783 46 276.735 46C318.687 46 358.732 55.5279 393.056 76.4892C427.38 95.545 455.984 124.129 476.96 158.429C497.936 192.729 507.47 232.747 507.47 276.575C507.47 320.403 497.936 360.42 476.96 394.721C455.984 429.021 429.287 457.605 393.056 476.66C358.732 495.716 318.687 507.15 276.735 507.15C234.783 507.15 196.645 497.622 160.414 478.566ZM349.197 408.06C370.173 396.626 385.428 377.57 396.87 354.703C408.311 331.837 414.032 305.159 414.032 274.669C414.032 244.18 408.311 217.502 396.87 196.541C385.428 173.674 368.266 156.523 349.197 145.09C328.221 133.657 305.339 127.94 276.735 127.94C248.132 127.94 225.249 133.657 204.273 145.09C183.297 158.429 168.042 175.579 156.6 198.446C145.159 221.313 139.438 247.991 139.438 276.575C139.438 305.159 145.159 333.742 156.6 356.609C168.042 379.476 185.204 396.626 206.18 409.965C227.156 421.399 250.038 429.021 278.642 429.021C307.245 429.021 328.221 421.399 349.197 408.06Z" fill="white" fill-opacity="0.2"/>
</g>
<defs>
<filter id="filter0_f_2_6316" x="0" y="0" width="553.47" height="553.15" filterUnits="userSpaceOnUse" color-interpolation-filters="sRGB">
<feFlood flood-opacity="0" result="BackgroundImageFix"/>
<feBlend mode="normal" in="SourceGraphic" in2="BackgroundImageFix" result="shape"/>
<feGaussianBlur stdDeviation="23" result="effect1_foregroundBlur_2_6316"/>
</filter>
</defs>
</svg>
