<svg width="44" height="44" viewBox="0 0 44 44" fill="none" xmlns="http://www.w3.org/2000/svg">
<path d="M22.7287 24.1277C22.7287 24.6253 22.7287 25.0636 22.7287 25.5494C24.2219 25.5494 25.6913 25.5494 27.1726 25.5494C27.611 25.5494 28.0613 25.5612 28.4998 25.6323C30.8817 25.9877 32.6592 28.1083 32.6474 30.537C32.6355 32.9538 30.858 35.0507 28.4998 35.3943C28.0258 35.4654 27.5281 35.4772 27.0067 35.5128C27.0067 36.6501 27.0067 37.811 27.0067 39.0193C27.6821 39.0193 28.3694 39.0193 29.0805 39.0193C29.0805 39.5051 29.0805 39.9437 29.0805 40.4531C28.4168 40.4531 27.7414 40.4531 27.0659 40.4531C25.5728 40.4531 25.5491 40.4291 25.5491 38.9485C25.5491 37.811 25.5491 36.6738 25.5491 35.5128C23.179 35.5128 20.8445 35.5128 18.4508 35.5128C18.4508 36.3776 18.4508 37.2307 18.4508 38.0835C18.4508 38.6166 18.4626 39.1499 18.4508 39.6829C18.4389 40.1569 18.1782 40.4413 17.7161 40.4531C16.8036 40.4649 15.8793 40.4531 14.9313 40.4531C14.9313 39.9909 14.9313 39.5409 14.9313 39.0433C15.6186 39.0433 16.294 39.0433 17.0051 39.0433C17.0051 37.8467 17.0051 36.6974 17.0051 35.5246C16.4955 35.489 15.9859 35.4772 15.4764 35.3943C13.13 35.0388 11.3406 32.9301 11.3406 30.5133C11.3406 28.0965 13.1181 25.9877 15.4645 25.6323C15.8556 25.5731 16.2585 25.5494 16.6495 25.5494C18.1664 25.5375 19.695 25.5494 21.2356 25.5494C21.2356 25.0755 21.2356 24.6253 21.2356 24.1277C21.0697 24.1277 20.9038 24.1277 20.7497 24.1277C17.5857 24.1277 14.4217 24.1395 11.2577 24.1277C7.57225 24.104 4.44378 21.5451 3.6735 17.9317C2.844 14.0814 5.02444 10.2311 8.76912 8.95164C9.07723 8.84501 9.19575 8.71469 9.23127 8.38297C9.71713 4.09433 12.6442 0.871932 16.8747 0.149261C20.3705 -0.443092 23.2975 0.741613 25.5965 3.45459C25.7979 3.69153 25.9639 3.76261 26.2601 3.70337C29.6848 2.98071 33.1806 4.971 34.3301 8.30005C34.4368 8.63177 34.6027 8.78577 34.9345 8.89241C38.3357 9.9468 40.682 13.3587 40.3858 16.7825C40.042 20.6684 37.3047 23.6064 33.5835 24.0685C33.1925 24.1159 32.7896 24.1396 32.3867 24.1396C29.3293 24.1396 26.272 24.1396 23.2027 24.1396C23.0842 24.1277 22.9302 24.1277 22.7287 24.1277ZM14.1728 22.7061C14.1847 22.5876 14.1965 22.5402 14.1965 22.4928C14.3506 19.2941 16.5784 16.7944 19.7543 16.3916C20.9749 16.2376 22.231 16.3087 23.4753 16.3087C26.3668 16.3205 28.8671 18.2634 29.6019 21.0475C29.7441 21.5688 29.7915 22.1137 29.8863 22.6824C30.5736 22.6824 31.2846 22.7179 31.9956 22.6705C32.837 22.6232 33.6902 22.635 34.496 22.4218C37.3519 21.6754 39.2479 19.069 39.177 16.1309C39.1058 13.1692 37.0793 10.6932 34.1524 10.0652C33.5836 9.9468 33.3228 9.67432 33.1688 9.10564C32.3748 6.04911 29.199 4.27205 26.1416 5.12504C25.395 5.33828 25.2884 5.30272 24.8499 4.67484C22.8472 1.91447 19.3869 0.741613 16.1163 1.74862C12.9167 2.73192 10.7007 5.70552 10.6414 9.0938C10.6296 9.80464 10.523 9.93492 9.81196 10.1126C7.18119 10.7642 5.23775 13.0389 4.98888 15.7637C4.74005 18.4056 6.26871 20.9883 8.70988 22.1256C10.4637 22.9549 12.3242 22.6232 14.1728 22.7061ZM21.994 34.0556C23.9019 34.0556 25.8098 34.0674 27.7177 34.0556C29.6848 34.0319 31.2372 32.4562 31.2372 30.5133C31.2372 28.5704 29.6848 26.9828 27.7177 26.971C23.9019 26.9592 20.0861 26.9473 16.2703 26.9829C15.7015 26.9829 15.0971 27.1724 14.5876 27.4449C13.1537 28.1913 12.4901 29.8617 12.893 31.4137C13.2959 32.9419 14.6706 34.0437 16.2703 34.0556C18.1782 34.0674 20.0861 34.0556 21.994 34.0556ZM28.3694 22.6824C28.3813 19.6495 25.7624 17.7422 23.8071 17.7895C23.8901 18.2397 24.0204 18.6781 24.0559 19.1283C24.0797 19.3889 24.0204 19.6969 23.8901 19.8983C23.499 20.4907 23.0605 21.0475 22.6221 21.6043C22.2192 22.1137 21.7452 22.1137 21.3423 21.5925C20.9275 21.0593 20.5364 20.5025 20.1098 19.9694C19.8728 19.6732 19.8254 19.377 19.9202 19.0216C20.0269 18.6188 20.098 18.1924 20.1928 17.7777C17.6094 17.8251 15.4408 20.3841 15.6778 22.6824C19.8965 22.6824 24.1152 22.6824 28.3694 22.6824ZM22.0177 20.0168C22.7287 19.306 22.7524 19.1756 22.314 17.754C22.1007 17.754 21.8874 17.754 21.6622 17.754C21.5082 18.5596 21.0341 19.3889 22.0177 20.0168Z" fill="#E45412"/>
<path d="M7.08639 43.9953C5.04815 43.9953 3.0099 43.9953 0.971652 43.9953C0.225086 43.9953 -0.0119188 43.7463 -6.85129e-05 43.0119C0.0828832 39.8131 2.79659 37.0293 6.008 36.9227C7.09823 36.887 8.21215 36.887 9.26683 37.1002C12.0516 37.6571 14.1373 40.2635 14.1847 43.0713C14.1965 43.7345 13.9477 43.9953 13.2959 43.9953C11.2221 43.9953 9.16019 43.9953 7.08639 43.9953ZM1.46936 42.5501C5.23775 42.5501 8.95872 42.5501 12.6916 42.5501C12.6797 42.4313 12.6797 42.3247 12.656 42.2181C12.2057 40.4413 11.1392 39.2207 9.40902 38.5811C8.3899 38.202 7.33523 38.3204 6.29243 38.3204C5.4629 38.3204 4.68077 38.5339 3.96976 38.9485C2.58329 39.7423 1.75377 40.9385 1.46936 42.5501Z" fill="#E45412"/>
<path d="M36.8897 43.9953C34.8515 43.9953 32.8133 43.9953 30.7751 43.9953C30.0285 43.9953 29.7915 43.7463 29.8152 43.0119C29.8981 39.8131 32.6237 37.0411 35.8352 36.9227C37.0439 36.8752 38.2527 36.8158 39.4496 37.1714C42.0445 37.9415 43.9408 40.3819 43.9999 43.0473C44.0117 43.7585 43.7748 44.0071 43.0519 44.0071C41.0018 43.9953 38.9399 43.9953 36.8897 43.9953ZM31.3202 42.5501C35.053 42.5501 38.7739 42.5501 42.4949 42.5501C42.4001 40.9031 40.99 39.1499 39.2479 38.6166C37.7193 38.1429 36.1432 38.1429 34.6145 38.6047C32.837 39.126 31.4387 40.8559 31.3202 42.5501Z" fill="#E45412"/>
<path d="M10.6414 32.6576C10.6414 34.6124 9.04167 36.1998 7.06268 36.188C5.13108 36.1762 3.54316 34.5887 3.54316 32.6458C3.54316 30.6673 5.15479 29.0798 7.13379 29.0916C9.07723 29.1035 10.6533 30.7029 10.6414 32.6576ZM4.9652 32.5747C4.94148 33.7357 5.85396 34.719 7.01528 34.7545C8.18847 34.7901 9.18387 33.866 9.21943 32.6813C9.25498 31.5203 8.31882 30.537 7.16935 30.5015C5.98432 30.4777 5.00076 31.4137 4.9652 32.5747Z" fill="#E45412"/>
<path d="M36.9134 36.188C34.9701 36.1998 33.3702 34.6124 33.3584 32.6813C33.3466 30.691 34.9345 29.0916 36.9252 29.0916C38.8569 29.0916 40.4448 30.6791 40.4566 32.6221C40.4566 34.5887 38.8805 36.1762 36.9134 36.188ZM36.9134 34.7664C38.0867 34.7664 39.0465 33.7949 39.0347 32.6102C39.0228 31.461 38.0631 30.5015 36.9015 30.5133C35.7166 30.5251 34.7686 31.4848 34.7804 32.6695C34.7923 33.8186 35.7521 34.7664 36.9134 34.7664Z" fill="#E45412"/>
<path d="M21.994 15.6097C20.0269 15.5978 18.4508 14.0103 18.4508 12.0437C18.4626 10.1008 20.0506 8.51329 21.9821 8.51329C23.9611 8.51329 25.5609 10.1126 25.5491 12.1029C25.5372 14.034 23.9375 15.6097 21.994 15.6097ZM24.1271 12.0556C24.1271 10.8709 23.1553 9.91124 21.9821 9.92308C20.8208 9.93492 19.8728 10.8827 19.8728 12.0437C19.8728 13.2166 20.8327 14.1762 22.0177 14.1762C23.179 14.1762 24.1271 13.2166 24.1271 12.0556Z" fill="#E45412"/>
<path d="M18.4271 2.85039C18.4271 3.32427 18.4271 3.76261 18.4271 4.23649C17.088 4.29573 15.8911 4.74592 14.9431 5.70552C13.9951 6.65331 13.5211 7.82618 13.4737 9.18857C13.0115 9.18857 12.5612 9.18857 12.1227 9.18857C11.8976 6.34527 14.4928 2.83855 18.4271 2.85039Z" fill="#E45412"/>
<path d="M24.1271 30.5014C24.1271 31.6743 23.1672 32.6339 21.9821 32.6339C20.8327 32.6339 19.8728 31.6743 19.8728 30.5133C19.8728 29.3286 20.8327 28.369 22.0177 28.3808C23.179 28.3927 24.1271 29.3404 24.1271 30.5014ZM21.9821 31.2123C22.3614 31.2241 22.6932 30.9161 22.705 30.537C22.7169 30.1579 22.4206 29.8262 22.0414 29.8025C21.6385 29.7788 21.2949 30.0987 21.2949 30.5014C21.283 30.8806 21.603 31.2004 21.9821 31.2123Z" fill="#E45412"/>
<path d="M15.583 31.2004C15.109 31.2004 14.6706 31.2004 14.2202 31.2004C14.2202 30.7384 14.2202 30.3119 14.2202 29.838C14.6587 29.838 15.109 29.838 15.583 29.838C15.583 30.2763 15.583 30.7147 15.583 31.2004Z" fill="#E45412"/>
<path d="M18.4271 31.2004C17.9649 31.2004 17.5264 31.2004 17.0643 31.2004C17.0643 30.7502 17.0643 30.3001 17.0643 29.8262C17.5146 29.8262 17.9531 29.8262 18.4271 29.8262C18.4271 30.2763 18.4271 30.7147 18.4271 31.2004Z" fill="#E45412"/>
<path d="M25.5609 31.1886C25.5609 30.7265 25.5609 30.2882 25.5609 29.8262C26.0231 29.8262 26.4734 29.8262 26.9356 29.8262C26.9356 30.2763 26.9356 30.7147 26.9356 31.1886C26.4971 31.1886 26.0587 31.1886 25.5609 31.1886Z" fill="#E45412"/>
<path d="M28.4168 29.8143C28.879 29.8143 29.3175 29.8143 29.7796 29.8143C29.7796 30.2763 29.7796 30.7265 29.7796 31.1886C29.3293 31.1886 28.8909 31.1886 28.4168 31.1886C28.4168 30.7502 28.4168 30.3001 28.4168 29.8143Z" fill="#E45412"/>
</svg>
