<svg width="25" height="24" viewBox="0 0 25 24" fill="none" xmlns="http://www.w3.org/2000/svg">
<path d="M4.07397 23.9998C3.94497 23.9518 3.83642 23.8636 3.76564 23.7494C3.69487 23.6352 3.66595 23.5014 3.68351 23.3695V20.5864C3.68351 20.2642 3.82717 20.0694 4.08133 20.0163C4.21314 19.9849 4.3525 20.0044 4.46955 20.0706C4.5866 20.1368 4.67203 20.2444 4.70753 20.3704C4.71499 20.4221 4.71499 20.4745 4.70753 20.5262V22.2719C4.79225 22.1975 4.84382 22.1585 4.8917 22.1125C5.52527 21.5035 6.15515 20.8909 6.78135 20.2854C6.87405 20.1875 6.98825 20.1107 7.11567 20.0605C7.24309 20.0102 7.38054 19.9879 7.51805 19.9951H22.7015C22.88 20.0004 23.0584 19.9825 23.2319 19.942C23.464 19.8748 23.6646 19.7321 23.799 19.5382C23.9335 19.3443 23.9934 19.1115 23.9686 18.8797V5.17654C23.9729 5.00597 23.9531 4.83563 23.9097 4.6702C23.8418 4.44594 23.6937 4.25194 23.4915 4.12238C23.2893 3.99282 23.0461 3.93603 22.8046 3.96202H20.3146C20.1784 3.96297 20.0474 3.91213 19.9501 3.82059C19.8528 3.72905 19.7971 3.60424 19.7952 3.47338C19.7901 3.34891 19.8358 3.22745 19.9225 3.13486C20.0092 3.04227 20.13 2.98587 20.2593 2.97766H20.2851C21.206 2.97766 22.1269 2.93163 23.0441 2.97766C23.3113 2.98992 23.5735 3.05269 23.8155 3.16236C24.0576 3.27204 24.2747 3.42649 24.4547 3.61687C24.6346 3.80726 24.7737 4.02986 24.8642 4.27196C24.9546 4.51406 24.9945 4.7709 24.9816 5.02783V18.8372C25.0111 19.2347 24.9123 19.6313 24.6987 19.9728C24.4851 20.3144 24.1671 20.5843 23.7881 20.7457C23.4545 20.8843 23.0944 20.9542 22.731 20.9511C17.7582 20.9653 12.7867 20.9653 7.81641 20.9511C7.70929 20.9478 7.60271 20.967 7.5041 21.0073C7.40548 21.0477 7.31722 21.1083 7.24547 21.1848C6.40931 22.0027 5.55842 22.8136 4.71121 23.6245C4.57861 23.7484 4.4239 23.8475 4.28024 23.9608L4.07397 23.9998Z" fill="#E45412"/>
<path d="M0.0184176 4.75872C0.10019 4.25566 0.360475 3.79528 0.75512 3.45568C1.12976 3.14751 1.60652 2.978 2.0996 2.97766H4.63754C4.76402 2.96456 4.89104 2.99719 4.99387 3.06919C5.09669 3.1412 5.16794 3.24742 5.19375 3.36716C5.22578 3.47757 5.21414 3.59547 5.16109 3.69812C5.10803 3.80078 5.01732 3.88091 4.90644 3.92307C4.78736 3.95909 4.66288 3.97584 4.53809 3.97265H2.24326C1.9595 3.93858 1.67327 4.01416 1.44743 4.18279C1.2216 4.35141 1.07461 4.59931 1.03875 4.87203C1.02769 4.95904 1.02769 5.04703 1.03875 5.13405V18.8443C1.01785 18.9889 1.02918 19.1362 1.07197 19.2763C1.11476 19.4164 1.18804 19.5462 1.28696 19.657C1.38588 19.7678 1.50817 19.8572 1.64573 19.9191C1.78329 19.9811 1.93298 20.0142 2.08487 20.0163C2.45322 20.073 2.63003 20.2783 2.58951 20.5793C2.57874 20.6466 2.55426 20.7111 2.51749 20.7692C2.48072 20.8273 2.43237 20.8779 2.37522 20.9181C2.31808 20.9582 2.25325 20.9871 2.18446 21.0031C2.11567 21.0191 2.04428 21.0219 1.97436 21.0113H1.94121C1.47498 20.9823 1.03286 20.8018 0.687467 20.4994C0.342069 20.197 0.11393 19.7906 0.0405186 19.3471C0.0295177 19.3074 0.015986 19.2684 0 19.2302L0.0184176 4.75872Z" fill="#E45412"/>
<path d="M19.8026 7.47811C20.117 7.47793 20.4277 7.54448 20.7123 7.67301C20.9969 7.80155 21.2485 7.9889 21.4491 8.22169C21.6879 8.49031 21.8357 8.82263 21.8727 9.17418C21.9842 9.82474 21.9529 10.4905 21.7806 11.1287C21.6635 11.4857 21.439 11.8013 21.1355 12.0357C20.832 12.2702 20.463 12.4129 20.0751 12.4459L19.8762 12.4778C19.7878 12.9806 19.7326 13.4622 19.6147 13.9296C19.3285 14.9385 18.7476 15.8476 17.9407 16.5491C17.1339 17.2507 16.1349 17.7154 15.0619 17.8883C14.595 17.9431 14.1251 17.9715 13.6548 17.9732C13.5206 17.9915 13.3843 17.9583 13.2754 17.8808C13.1665 17.8033 13.0937 17.6877 13.0728 17.559C13.0728 17.5413 13.0728 17.5235 13.0728 17.5058C13.0212 17.258 12.9291 17.0526 12.6455 16.996C12.5199 16.9747 12.3905 16.9995 12.2831 17.0656C12.1757 17.1317 12.0981 17.2342 12.0656 17.3528C12.0331 17.4714 12.0482 17.5973 12.1079 17.7057C12.1676 17.8141 12.2674 17.8969 12.3877 17.9378C12.465 17.9626 12.546 17.9697 12.6234 17.9874C12.7538 18.0058 12.8712 18.0732 12.95 18.1747C13.0287 18.2763 13.0623 18.4038 13.0433 18.5292C13.0302 18.6554 12.9662 18.7717 12.865 18.8531C12.7638 18.9345 12.6334 18.9746 12.5018 18.9647C12.2269 18.9579 11.9587 18.8812 11.7247 18.7422C11.4906 18.6033 11.2992 18.4072 11.1698 18.1738C11.0404 17.9405 10.9777 17.6784 10.9882 17.4141C10.9986 17.1499 11.0818 16.8931 11.2293 16.6699C11.3767 16.4467 11.5831 16.2651 11.8275 16.1436C12.0718 16.0222 12.3453 15.9652 12.62 15.9786C12.8947 15.9919 13.1608 16.0751 13.3911 16.2196C13.6214 16.3642 13.8078 16.5648 13.931 16.8012C13.9863 16.9074 14.0268 16.9783 14.1778 16.9712C15.0662 16.9605 15.9328 16.7049 16.6745 16.2348C17.4163 15.7647 18.0021 15.0998 18.3623 14.3191C18.6566 13.7171 18.8016 13.0578 18.7859 12.3928V10.0382C18.7699 9.90857 18.8066 9.77806 18.8882 9.67382C18.9699 9.56959 19.0903 9.49969 19.2243 9.4787C19.3547 9.45483 19.4896 9.4817 19.5994 9.55341C19.7092 9.62511 19.7849 9.73578 19.8099 9.86111C19.8154 9.89988 19.8154 9.93919 19.8099 9.97796V11.4262C20.0437 11.4477 20.2771 11.3822 20.4622 11.2432C20.6472 11.1042 20.7697 10.9023 20.8045 10.679C20.8524 10.2081 20.8524 9.7337 20.8045 9.2627C20.7642 9.03206 20.6374 8.8236 20.448 8.67679C20.2586 8.52997 20.0198 8.45498 19.7768 8.46601H19.32C19.1838 8.46893 19.0517 8.42061 18.9519 8.33133C18.8522 8.24205 18.7926 8.11886 18.7859 7.98799V6.99301C18.7848 5.70931 18.3569 4.45956 17.5645 3.42624C16.7722 2.39292 15.6569 1.63016 14.3816 1.24934C13.1063 0.868518 11.7378 0.889576 10.4758 1.30944C9.21385 1.72931 8.12457 2.52599 7.36702 3.58315C6.63016 4.59892 6.24364 5.81143 6.26197 7.04966V11.798C6.26197 12.3149 6.08516 12.4778 5.54737 12.5061C5.17489 12.5423 4.79893 12.488 4.45397 12.3482C4.10901 12.2084 3.8061 11.9875 3.57301 11.7059C3.30748 11.3939 3.16064 11.0042 3.15677 10.6012C3.12414 10.0482 3.15626 9.49357 3.25254 8.94757C3.34266 8.56694 3.55723 8.22407 3.8648 7.96919C4.17237 7.71431 4.55678 7.56082 4.96169 7.53122L5.17533 7.49581L5.2269 7.47457C5.15 6.35622 5.35456 5.23652 5.82327 4.21028C6.29198 3.18404 7.01103 2.28148 7.91955 1.57902C9.23305 0.511163 10.9113 -0.0514057 12.6308 -0.000206903C13.623 0.00326666 14.6034 0.207834 15.5078 0.600144C16.4123 0.992455 17.2205 1.56369 17.8798 2.27657C18.551 2.97257 19.0677 3.79274 19.3983 4.68704C19.7289 5.58134 19.8664 6.53101 19.8026 7.47811ZM5.21954 8.49788C4.98602 8.48598 4.75609 8.55695 4.57342 8.69729C4.39076 8.83764 4.26807 9.03759 4.22867 9.25916C4.1771 9.73944 4.1771 10.2236 4.22867 10.7038C4.26342 10.9251 4.38611 11.1248 4.57093 11.2608C4.75574 11.3969 4.98826 11.4587 5.21954 11.4333V8.49788Z" fill="#E45412"/>
<path d="M12.5239 1.96852C13.8893 1.97659 15.1974 2.49724 16.1691 3.41938C17.1408 4.34153 17.6991 5.59216 17.7251 6.90448C17.7383 6.97032 17.7376 7.03803 17.7232 7.10364C17.7088 7.16924 17.6809 7.2314 17.6411 7.28648C17.6013 7.34155 17.5504 7.38841 17.4915 7.42432C17.4326 7.46022 17.3668 7.48443 17.298 7.49553C17.2293 7.50663 17.1589 7.50439 17.091 7.48895C17.0231 7.4735 16.9591 7.44517 16.9028 7.4056C16.8465 7.36603 16.799 7.31604 16.7631 7.25856C16.7272 7.20108 16.7036 7.13728 16.6937 7.07091C16.6919 7.04497 16.6919 7.01894 16.6937 6.99301C16.6417 6.52173 16.5505 6.05521 16.4211 5.5979C16.1118 4.77862 15.5313 4.07958 14.7687 3.60815C14.0061 3.13671 13.1036 2.91894 12.1998 2.98829C11.2933 3.05876 10.4353 3.41094 9.75552 3.99162C9.0757 4.57229 8.61097 5.3499 8.43156 6.20693C8.37631 6.49729 8.36894 6.79826 8.32474 7.08861C8.31 7.19136 8.25789 7.28577 8.17766 7.35512C8.09743 7.42447 7.99425 7.46427 7.8864 7.46748C7.78533 7.48416 7.68136 7.46819 7.59073 7.42206C7.5001 7.37594 7.42791 7.30227 7.38544 7.21254C7.33832 7.11371 7.31442 7.00612 7.31546 6.8974C7.33657 5.70757 7.79847 4.564 8.61814 3.67222C9.43781 2.78044 10.5615 2.19895 11.7872 2.03225C12.034 2.00038 12.2808 1.98976 12.5239 1.96852Z" fill="#E45412"/>
<path d="M12.0083 13.9685V12.9842H12.9144C12.9586 12.9842 13.0028 13.0621 13.0433 13.1081C13.0838 13.1541 13.0433 13.14 13.0433 13.1541C13.0433 13.4232 13.0175 13.6923 13.0065 13.9614L12.0083 13.9685Z" fill="#E45412"/>
<path d="M9.94548 12.9948H10.94V13.9791H9.94548V12.9948Z" fill="#E45412"/>
<path d="M15.1208 12.9983V13.9721H14.1005V12.9983H15.1208Z" fill="#E45412"/>
</svg>
