<svg width="21" height="22" viewBox="0 0 21 22" fill="none" xmlns="http://www.w3.org/2000/svg">
<path d="M12.3789 20.1567C12.3789 20.2811 12.3789 20.3945 12.3789 20.5078C12.3667 21.1911 11.8867 21.7034 11.2022 21.7234C10.5478 21.7422 9.89112 21.7422 9.23667 21.7234C8.55223 21.7022 8.07445 21.1889 8.06334 20.5011C8.06334 20.39 8.06334 20.2789 8.06334 20.14H7.76445C7.40667 20.14 7.29667 20.0289 7.29667 19.6789C7.29667 18.8656 7.2889 18.0511 7.29667 17.2345C7.30884 17.1522 7.29199 17.0683 7.249 16.9971C7.20601 16.926 7.13958 16.872 7.06112 16.8445C6.67918 16.6576 6.36583 16.3551 6.16556 15.98C6.13354 15.912 6.07786 15.8579 6.00889 15.8278C4.84112 15.5434 4.11001 14.7578 3.60667 13.7289C3.12445 12.7289 3.0889 11.6789 3.27334 10.6045C3.29278 10.4714 3.28826 10.3359 3.26001 10.2045C3.06778 9.20447 3.26001 8.2578 3.63445 7.33558C3.97778 6.4878 4.45334 5.73447 5.22112 5.20225C5.69952 4.86303 6.26436 4.66653 6.85001 4.63558C6.90595 4.6361 6.96112 4.62253 7.01045 4.59612C7.05977 4.56972 7.10165 4.53132 7.13223 4.48447C7.75778 3.66114 8.55445 3.13447 9.62445 3.16891C10.0822 3.18336 10.5389 3.16891 10.9945 3.18336C11.9667 3.22336 12.7078 3.71558 13.2878 4.47003C13.3239 4.52586 13.3732 4.57197 13.4313 4.60432C13.4895 4.63667 13.5546 4.65427 13.6211 4.65558C14.0327 4.67301 14.4364 4.77469 14.8072 4.95434C15.1779 5.13398 15.5079 5.38778 15.7767 5.70003C16.8356 6.90336 17.3678 8.31225 17.21 9.92225C17.1801 10.3411 17.1897 10.7619 17.2389 11.1789C17.3733 12.6522 17.0078 13.9622 15.9245 15.0211C15.5257 15.4215 15.0219 15.7012 14.4711 15.8278C14.3926 15.8527 14.3262 15.9057 14.2845 15.9767C14.0674 16.3874 13.721 16.7151 13.2989 16.9089C13.246 16.9281 13.2014 16.9651 13.1729 17.0135C13.1443 17.062 13.1334 17.1189 13.1422 17.1745C13.1422 17.9811 13.1422 18.7878 13.1422 19.5934C13.1422 20.0645 13.0656 20.14 12.5867 20.1489C12.5289 20.1467 12.4656 20.1522 12.3789 20.1567ZM13.6011 15.7611L13.4156 15.6789C12.9782 15.4852 12.6087 15.1652 12.3545 14.76C12.2178 14.5378 12.2433 14.3445 12.4111 14.2278C12.5789 14.1111 12.7811 14.1645 12.9267 14.3722C12.9645 14.4245 12.9956 14.4834 13.0378 14.5311C13.6045 15.17 14.1989 15.3767 14.9578 14.8989C15.6092 14.4868 16.0976 13.8617 16.34 13.13C16.6278 12.3156 16.6167 11.4834 16.4611 10.6389C16.3867 10.24 16.1578 10.05 15.8 9.97225C15.6084 9.94125 15.4151 9.92195 15.2211 9.91447C15.1732 9.91492 15.1258 9.90505 15.0821 9.88552C15.0384 9.866 14.9994 9.83728 14.9677 9.80133C14.9361 9.76537 14.9126 9.72303 14.8988 9.67717C14.885 9.63131 14.8812 9.58302 14.8878 9.53558C14.8945 9.38558 14.9267 9.23447 14.9233 9.08447C14.9145 8.56447 14.7911 8.10003 14.2889 7.82336C14.0667 7.70003 14 7.50891 14.1033 7.32336C14.2067 7.1378 14.4033 7.10114 14.63 7.22447C14.8652 7.34466 15.0696 7.51745 15.2272 7.72942C15.3848 7.94138 15.4915 8.18683 15.5389 8.44669C15.5933 8.70447 15.6089 8.97003 15.6378 9.20336L16.5822 9.51003C16.5511 9.2278 16.5411 8.95447 16.4889 8.68669C16.2889 7.65336 15.8822 6.72003 15.0878 5.99891C14.8604 5.78173 14.5919 5.61223 14.298 5.50041C14.0042 5.38858 13.6909 5.3367 13.3767 5.3478C13.2767 5.3623 13.1747 5.34539 13.0847 5.29942C12.9947 5.25344 12.9213 5.18066 12.8745 5.09114C12.5852 4.59514 12.1386 4.20994 11.6056 3.99669C11.2776 3.85965 10.9162 3.82404 10.5678 3.89447V4.01891C10.5678 8.03817 10.5678 12.0563 10.5678 16.0734C10.5631 16.1256 10.5755 16.1779 10.6031 16.2224C10.6308 16.2669 10.6722 16.3012 10.7211 16.32C11.45 16.69 12.1822 16.6311 12.9133 16.3367C13.2 16.2226 13.4426 16.0197 13.6056 15.7578L13.6011 15.7611ZM4.86445 9.18003C4.8584 9.0601 4.8584 8.93995 4.86445 8.82003C4.92556 8.12891 5.19778 7.5578 5.83667 7.2178C6.0589 7.10003 6.26001 7.14336 6.36001 7.32891C6.46001 7.51447 6.39334 7.70225 6.16667 7.82558C6.01736 7.90079 5.88822 8.01064 5.79002 8.14594C5.69183 8.28125 5.62744 8.43809 5.60223 8.60336C5.56093 8.87988 5.55124 9.1602 5.57334 9.43891C5.59667 9.76336 5.49001 9.89447 5.1589 9.9178C4.92343 9.93359 4.69028 9.97418 4.46334 10.0389C4.35053 10.069 4.2482 10.1296 4.16763 10.2141C4.08705 10.2986 4.03136 10.4037 4.00667 10.5178C3.80001 11.42 3.78445 12.3222 4.12556 13.1945C4.46667 14.0667 5.02223 14.7578 5.94445 15.0911C6.06959 15.1382 6.2029 15.1597 6.33649 15.1544C6.47008 15.149 6.60125 15.1169 6.72223 15.06C7.06168 14.9135 7.34902 14.668 7.54667 14.3556C7.67556 14.1567 7.88001 14.1089 8.04445 14.22C8.0866 14.2456 8.12256 14.2801 8.14975 14.3212C8.17694 14.3623 8.19468 14.4089 8.20169 14.4577C8.2087 14.5065 8.20481 14.5562 8.19031 14.6033C8.1758 14.6504 8.15103 14.6937 8.11778 14.73C7.94348 14.9663 7.745 15.1838 7.52556 15.3789C7.31473 15.5314 7.09177 15.6662 6.8589 15.7822C6.90778 15.84 6.95556 15.9011 7.01001 15.9567C7.6189 16.5778 8.80667 16.7434 9.67667 16.3356C9.74563 16.3107 9.80414 16.2633 9.84267 16.2009C9.88121 16.1386 9.8975 16.065 9.8889 15.9922C9.88223 12.0322 9.88223 8.07188 9.8889 4.11114V3.86891C9.68218 3.85266 9.4745 3.85266 9.26778 3.86891C8.49112 4.00114 7.96112 4.4678 7.55445 5.09114C7.51591 5.16808 7.4549 5.2315 7.37949 5.27297C7.30408 5.31445 7.21785 5.33202 7.13223 5.32336C6.55036 5.28419 5.97554 5.46904 5.52556 5.84003C4.61445 6.56114 4.17778 7.55669 3.95778 8.66336C3.90223 8.94447 3.89667 9.23447 3.8689 9.51225L4.86445 9.18003ZM12.4433 18.5934H8.00778V19.4367H12.4433V18.5934ZM7.9989 17.8689H12.4433V17.2111C12.4108 17.2089 12.3781 17.2089 12.3456 17.2111C11.654 17.3432 10.938 17.2321 10.3189 16.8967C10.2785 16.8818 10.2354 16.8754 10.1924 16.8779C10.1494 16.8803 10.1073 16.8917 10.0689 16.9111C9.50965 17.2024 8.87238 17.3086 8.2489 17.2145C8.17223 17.2034 8.09445 17.2 8.00334 17.1922L7.9989 17.8689ZM11.6845 20.1656H8.75556C8.75556 20.2978 8.75556 20.4134 8.75556 20.5267C8.7539 20.5938 8.76585 20.6605 8.79069 20.7229C8.81553 20.7852 8.85276 20.8419 8.90011 20.8894C8.94746 20.937 9.00397 20.9745 9.06621 20.9996C9.12844 21.0247 9.19513 21.037 9.26223 21.0356C9.90149 21.0445 10.5407 21.0445 11.18 21.0356C11.2469 21.0366 11.3134 21.0242 11.3753 20.9989C11.4373 20.9737 11.4936 20.9362 11.5407 20.8886C11.5878 20.8411 11.6248 20.7845 11.6495 20.7223C11.6742 20.6601 11.6861 20.5936 11.6845 20.5267C11.6911 20.41 11.6867 20.2956 11.6867 20.1645L11.6845 20.1656Z" fill="#E45412"/>
<path d="M10.5667 1.05447C10.5667 1.28447 10.5667 1.51447 10.5667 1.74447C10.5699 1.79205 10.5633 1.83978 10.5472 1.88467C10.5311 1.92956 10.5059 1.97063 10.4731 2.0053C10.4404 2.03996 10.4008 2.06747 10.3569 2.0861C10.313 2.10473 10.2657 2.11407 10.218 2.11353C10.1703 2.11299 10.1233 2.10259 10.0798 2.08297C10.0363 2.06336 9.99739 2.03496 9.96544 1.99956C9.93348 1.96417 9.90919 1.92254 9.89411 1.8773C9.87902 1.83206 9.87346 1.78419 9.87778 1.73669C9.87334 1.28484 9.87334 0.832248 9.87778 0.378915C9.87778 0.140026 10.0167 -0.00219656 10.2256 2.56628e-05C10.4345 0.00224788 10.5589 0.146692 10.5667 0.386692C10.57 0.608914 10.5667 0.832248 10.5667 1.05447Z" fill="#E45412"/>
<path d="M1.07667 9.80891C1.2989 9.80891 1.52112 9.80891 1.74334 9.80891C1.96556 9.80891 2.11223 9.94891 2.11667 10.1422C2.11762 10.1909 2.10834 10.2392 2.08943 10.2841C2.07052 10.329 2.0424 10.3694 2.00689 10.4027C1.97139 10.436 1.92929 10.4614 1.88331 10.4774C1.83734 10.4935 1.78852 10.4996 1.74001 10.4956C1.28778 10.4956 0.835562 10.4956 0.383339 10.4956C0.147784 10.4956 -0.00110493 10.3522 6.17607e-06 10.1489C0.00111729 9.94558 0.150006 9.81558 0.386673 9.8078C0.623339 9.80002 0.847784 9.80891 1.07667 9.80891Z" fill="#E45412"/>
<path d="M19.3545 10.5567C19.1322 10.5567 18.91 10.5567 18.6878 10.5567C18.5966 10.5596 18.5079 10.5262 18.4414 10.4638C18.3748 10.4014 18.3357 10.3151 18.3328 10.2239C18.3298 10.1327 18.3632 10.0441 18.4256 9.97749C18.4881 9.91092 18.5744 9.87186 18.6656 9.86891C19.1389 9.8578 19.6126 9.8578 20.0867 9.86891C20.1339 9.86612 20.1813 9.87343 20.2255 9.89036C20.2697 9.90728 20.3098 9.93344 20.3432 9.96708C20.3765 10.0007 20.4023 10.0411 20.4188 10.0855C20.4353 10.1298 20.4421 10.1772 20.4389 10.2245C20.4322 10.42 20.2911 10.5489 20.0633 10.5578C19.8356 10.5667 19.5922 10.5567 19.3545 10.5567Z" fill="#E45412"/>
<path d="M17.5822 17.2322C17.5167 17.3178 17.4645 17.4545 17.3711 17.4911C17.2778 17.5278 17.0867 17.5378 17.0167 17.4745C16.6356 17.1256 16.2711 16.7578 15.9167 16.3811C15.7856 16.2422 15.8167 16.0689 15.9533 15.9367C15.9793 15.9058 16.0113 15.8805 16.0472 15.8623C16.0832 15.8441 16.1225 15.8333 16.1628 15.8306C16.203 15.8279 16.2434 15.8334 16.2815 15.8466C16.3196 15.8599 16.3546 15.8807 16.3845 15.9078C16.7611 16.2622 17.1222 16.6334 17.4833 17.0034C17.5275 17.0743 17.5608 17.1515 17.5822 17.2322Z" fill="#E45412"/>
<path d="M16.1422 4.62669C16.0567 4.55669 15.9256 4.50003 15.89 4.40447C15.8683 4.34732 15.8596 4.28603 15.8646 4.22509C15.8696 4.16414 15.8881 4.10509 15.9189 4.05225C16.2633 3.67558 16.6267 3.31669 16.9967 2.96558C17.0589 2.90237 17.1436 2.86645 17.2323 2.86572C17.3209 2.86499 17.4062 2.89951 17.4695 2.96169C17.5327 3.02387 17.5686 3.10861 17.5693 3.19728C17.57 3.28594 17.5355 3.37126 17.4733 3.43447C17.1245 3.80558 16.7589 4.16336 16.3933 4.51891C16.3154 4.56708 16.2308 4.6034 16.1422 4.62669Z" fill="#E45412"/>
<path d="M3.19334 17.5722C3.11112 17.5045 2.97889 17.4467 2.94334 17.35C2.92153 17.2923 2.91281 17.2305 2.91781 17.169C2.9228 17.1075 2.94139 17.0479 2.97223 16.9945C3.31667 16.6178 3.68112 16.2578 4.05334 15.9078C4.0827 15.8802 4.11736 15.8587 4.15522 15.8448C4.19308 15.8309 4.23336 15.8248 4.27364 15.8269C4.31392 15.829 4.35336 15.8392 4.38959 15.8569C4.42582 15.8746 4.45809 15.8995 4.48445 15.93C4.62445 16.0611 4.65667 16.2367 4.52778 16.3745C4.17334 16.7522 3.80001 17.1134 3.42889 17.4756C3.3558 17.5197 3.27635 17.5523 3.19334 17.5722Z" fill="#E45412"/>
<path d="M3.22112 2.85003C3.3212 2.89805 3.41613 2.95612 3.50445 3.02336C3.82445 3.33336 4.14112 3.64891 4.45334 3.96669C4.62556 4.14447 4.63334 4.33447 4.48889 4.48336C4.34445 4.63225 4.14112 4.62447 3.97334 4.46003C3.65001 4.14225 3.33112 3.82003 3.01001 3.50003C2.94966 3.45239 2.90856 3.38455 2.89427 3.30901C2.87998 3.23347 2.89346 3.1553 2.93223 3.08891C3.01567 2.9949 3.11311 2.91433 3.22112 2.85003Z" fill="#E45412"/>
<path d="M11.9578 11.8378C12.0521 11.8505 12.1481 11.8354 12.2339 11.7943C12.3198 11.7533 12.3918 11.6881 12.4411 11.6067C12.4667 11.5711 12.4989 11.5411 12.5211 11.5045C12.9656 10.7856 13.9345 10.7422 14.5322 11.3445C14.6798 11.5008 14.8081 11.6743 14.9145 11.8611C14.9439 11.9007 14.9641 11.9462 14.9738 11.9946C14.9835 12.0429 14.9823 12.0927 14.9704 12.1406C14.9585 12.1884 14.9362 12.233 14.905 12.2711C14.8738 12.3092 14.8345 12.34 14.79 12.3611C14.6145 12.4534 14.4411 12.3911 14.3156 12.2C14.2427 12.0768 14.1578 11.961 14.0622 11.8545C13.7289 11.5156 13.3589 11.5356 13.0822 11.9189C12.86 12.2245 12.5956 12.4456 12.2178 12.5089C12.1187 12.5257 12.0182 12.532 11.9178 12.5278C11.6478 12.5134 11.5011 12.3734 11.5133 12.1522C11.5256 11.9311 11.6733 11.8322 11.9578 11.8378Z" fill="#E45412"/>
<path d="M12.8756 8.64669C12.5611 8.64066 12.2582 8.52711 12.0172 8.32496C11.7762 8.1228 11.6117 7.84422 11.5511 7.53558C11.44 6.95891 11.79 6.30336 12.3545 6.05891C12.5589 5.97003 12.7489 6.02558 12.8378 6.1978C12.9267 6.37003 12.8589 6.55447 12.6711 6.67225C12.6156 6.70669 12.56 6.73669 12.5067 6.77558C12.2522 6.96558 12.1656 7.18558 12.2411 7.44225C12.2776 7.57856 12.3547 7.7006 12.462 7.79224C12.5693 7.88389 12.7019 7.94084 12.8422 7.95558C12.8633 7.95558 12.8856 7.95558 12.9067 7.95558C13.1745 7.96891 13.3345 8.1078 13.3233 8.31669C13.3122 8.52558 13.1456 8.64669 12.8756 8.64669Z" fill="#E45412"/>
<path d="M6.92223 10.9234C7.11027 10.9177 7.29672 10.9595 7.46432 11.0449C7.63192 11.1304 7.77528 11.2567 7.88112 11.4122C8.06223 11.6722 8.25001 11.8778 8.61334 11.8356C8.7889 11.8145 8.90667 11.9467 8.92556 12.1278C8.93418 12.1692 8.93419 12.2119 8.92559 12.2532C8.91699 12.2946 8.89997 12.3338 8.87558 12.3683C8.85118 12.4028 8.81995 12.4319 8.78382 12.4538C8.74769 12.4757 8.70743 12.4899 8.66556 12.4956C8.20112 12.5845 7.81778 12.4245 7.50667 12.0789C7.45445 12.0211 7.41223 11.9522 7.36334 11.89C7.09556 11.5478 6.73778 11.5134 6.42556 11.8189C6.31154 11.947 6.20962 12.0854 6.12112 12.2322C6.07773 12.3087 6.00663 12.3657 5.9225 12.3913C5.83836 12.4169 5.7476 12.4093 5.66894 12.3699C5.59027 12.3306 5.5297 12.2626 5.49971 12.1799C5.46973 12.0972 5.47262 12.0062 5.50778 11.9256C5.62117 11.6395 5.81519 11.3925 6.06629 11.2146C6.31738 11.0367 6.61473 10.9355 6.92223 10.9234Z" fill="#E45412"/>
<path d="M8.93889 7.30225C8.92876 7.66254 8.77841 8.00465 8.51983 8.25576C8.26126 8.50686 7.91489 8.64712 7.55445 8.64669C7.30112 8.64669 7.15001 8.51336 7.14889 8.30002C7.14778 8.08669 7.28334 7.96669 7.53001 7.95669C7.67181 7.96055 7.81145 7.9213 7.93047 7.84413C8.0495 7.76696 8.14232 7.6555 8.19667 7.52447C8.32445 7.23447 8.23556 6.96225 7.95001 6.75669C7.89112 6.71558 7.82556 6.68558 7.76556 6.64558C7.68976 6.60352 7.63332 6.53359 7.60822 6.45062C7.58312 6.36764 7.59134 6.27816 7.63112 6.20114C7.67109 6.1194 7.74187 6.05687 7.82791 6.02729C7.91395 5.99771 8.00822 6.00349 8.09001 6.04336C8.33582 6.15178 8.54596 6.32752 8.69617 6.55027C8.84637 6.77302 8.93052 7.03371 8.93889 7.30225Z" fill="#E45412"/>
</svg>
