<svg width="221" height="215" viewBox="0 0 221 215" fill="none" xmlns="http://www.w3.org/2000/svg">
<path d="M120.145 84.7622L110.897 33.6716L111.286 33.5938L120.534 84.6844L120.145 84.7622Z" fill="#3683C1"/>
<path d="M120.456 84.84L120.223 84.5289L174.078 50.2352L174.311 50.5463L120.456 84.84Z" fill="#3683C1"/>
<path d="M174.001 50.5463L144.003 7.54306L144.392 7.30977L174.389 50.2352L174.001 50.5463Z" fill="#3683C1"/>
<path d="M111.208 33.7494L110.975 33.4383L144.081 7.23201L144.314 7.62082L111.208 33.7494Z" fill="#3683C1"/>
<path d="M110.897 33.6716L96.3648 0.233291L96.7534 0.0777638L111.286 33.5161L110.897 33.6716Z" fill="#3683C1"/>
<path d="M144.159 7.62082L96.5202 0.388817L96.5979 0L144.236 7.23201L144.159 7.62082Z" fill="#3683C1"/>
<path d="M216.432 77.3747L174.078 50.5463L174.311 50.2352L216.665 76.9859L216.432 77.3747Z" fill="#3683C1"/>
<path d="M196.071 132.12L195.683 131.965L216.355 77.1414L216.743 77.2192L196.071 132.12Z" fill="#3683C1"/>
<path d="M195.76 132.198L163.198 111.746L163.432 111.357L195.994 131.887L195.76 132.198Z" fill="#3683C1"/>
<path d="M163.432 111.746L163.198 111.357L216.432 76.9859L216.665 77.3747L163.432 111.746Z" fill="#3683C1"/>
<path d="M180.062 89.1947L174.001 50.3907H174.389L180.451 89.117L180.062 89.1947Z" fill="#3683C1"/>
<path d="M163.198 111.746L120.223 84.84L120.456 84.5289L163.432 111.357L163.198 111.746Z" fill="#3683C1"/>
<path d="M129.626 142.929L120.067 84.6844L120.534 84.6844L130.015 142.852L129.626 142.929Z" fill="#3683C1"/>
<path d="M129.937 143.007L129.704 142.696L163.198 111.357L163.509 111.668L129.937 143.007Z" fill="#3683C1"/>
<path d="M172.136 153.738L163.121 111.591L163.587 111.513L172.524 153.661L172.136 153.738Z" fill="#3683C1"/>
<path d="M172.446 153.816L172.136 153.505L195.683 131.887L195.994 132.198L172.446 153.816Z" fill="#3683C1"/>
<path d="M169.882 181.811L169.493 181.578L195.683 131.965L196.071 132.12L169.882 181.811Z" fill="#3683C1"/>
<path d="M169.96 181.733L169.493 181.656L172.136 153.661L172.524 153.738L169.96 181.733Z" fill="#3683C1"/>
<path d="M172.291 153.894L129.782 143.085L129.859 142.696L172.369 153.505L172.291 153.894Z" fill="#3683C1"/>
<path d="M122.787 178.156L122.632 177.767L172.213 153.505L172.369 153.894L122.787 178.156Z" fill="#3683C1"/>
<path d="M146.956 211.517L122.554 178.078L122.865 177.845L147.345 211.283L146.956 211.517Z" fill="#3683C1"/>
<path d="M147.345 211.517L146.956 211.283L169.571 181.578L169.882 181.811L147.345 211.517Z" fill="#3683C1"/>
<path d="M169.726 181.889L122.71 178.156V177.767L169.726 181.5V181.889Z" fill="#3683C1"/>
<path d="M122.943 178.001L122.477 177.923L129.626 142.852L130.015 142.929L122.943 178.001Z" fill="#3683C1"/>
<path d="M74.8381 176.368L74.605 175.979L129.704 142.696L129.937 143.085L74.8381 176.368Z" fill="#3683C1"/>
<path d="M122.71 178.156L74.6827 176.368L74.7604 175.901L122.71 177.767V178.156Z" fill="#3683C1"/>
<path d="M100.639 214.394L100.25 214.161L122.554 177.845L122.865 178.078L100.639 214.394Z" fill="#3683C1"/>
<path d="M100.406 214.472V214.083L147.112 211.128L147.189 211.594L100.406 214.472Z" fill="#3683C1"/>
<path d="M100.328 214.472L47.3275 197.753L47.4053 197.364L100.484 214.083L100.328 214.472Z" fill="#3683C1"/>
<path d="M47.483 197.753L47.2498 197.364L74.605 175.979L74.8382 176.29L47.483 197.753Z" fill="#3683C1"/>
<path d="M100.25 214.394L74.5273 176.29L74.9159 176.057L100.561 214.161L100.25 214.394Z" fill="#3683C1"/>
<path d="M47.2498 197.675L13.0559 157.549L13.3667 157.238L47.5607 197.442L47.2498 197.675Z" fill="#3683C1"/>
<path d="M13.2113 157.627V157.16L53.7001 153.661L53.7778 154.049L13.2113 157.627Z" fill="#3683C1"/>
<path d="M13.3667 157.549L13.0559 157.238L47.2498 117.734L47.5607 117.967L13.3667 157.549Z" fill="#3683C1"/>
<path d="M13.4444 157.393H12.9782L17.0193 86.9396H17.4855L13.4444 157.393Z" fill="#3683C1"/>
<path d="M17.4855 86.9396L17.0193 86.8618L25.0238 41.9145L25.49 41.9923L17.4855 86.9396Z" fill="#3683C1"/>
<path d="M59.9949 62.133L25.1792 42.1478L25.3346 41.759L60.228 61.7442L59.9949 62.133Z" fill="#3683C1"/>
<path d="M17.4078 87.0951L17.1747 86.7841L59.9949 61.7442L60.228 62.133L17.4078 87.0951Z" fill="#3683C1"/>
<path d="M47.2498 117.967L17.097 87.0951L17.4078 86.7841L47.5607 117.734L47.2498 117.967Z" fill="#3683C1"/>
<path d="M25.4123 42.1478L25.1015 41.8368L53.6223 18.8965L53.8555 19.2076L25.4123 42.1478Z" fill="#3683C1"/>
<path d="M53.8555 19.2853L53.6223 18.8965L96.5202 0L96.6757 0.388817L53.8555 19.2853Z" fill="#3683C1"/>
<path d="M59.9171 61.9775L53.5446 19.1298L53.9332 19.0521L60.3057 61.8997L59.9171 61.9775Z" fill="#3683C1"/>
<path d="M60.228 62.133L59.9171 61.822L84.4746 34.6048L84.7855 34.838L60.228 62.133Z" fill="#3683C1"/>
<path d="M110.975 33.8271L53.7001 19.2853L53.7778 18.8965L111.053 33.4383L110.975 33.8271Z" fill="#3683C1"/>
<path d="M120.223 84.9177L59.9949 62.133L60.1503 61.7442L120.378 84.4512L120.223 84.9177Z" fill="#3683C1"/>
<path d="M80.7444 128.854L80.4335 128.543L120.145 84.5289L120.456 84.84L80.7444 128.854Z" fill="#3683C1"/>
<path d="M80.5112 128.932L47.3275 118.045L47.4053 117.656L80.6667 128.465L80.5112 128.932Z" fill="#3683C1"/>
<path d="M47.5607 117.889L47.1721 117.812L59.9172 61.8997L60.3057 61.9775L47.5607 117.889Z" fill="#3683C1"/>
<path d="M70.7193 93.8605L59.9171 62.0553L60.3057 61.8997L71.1079 93.705L70.7193 93.8605Z" fill="#3683C1"/>
<path d="M74.9159 176.212L74.5273 176.134L80.3558 128.699H80.8221L74.9159 176.212Z" fill="#3683C1"/>
<path d="M53.5446 153.894L47.1721 117.889L47.5607 117.812L53.9332 153.816L53.5446 153.894Z" fill="#3683C1"/>
<path d="M80.589 128.932L80.5112 128.465L111.674 124.266L111.752 124.655L80.589 128.932Z" fill="#3683C1"/>
<path d="M195.76 40.6703L144.081 7.62082L144.314 7.23201L195.994 40.3593L195.76 40.6703Z" fill="#3683C1"/>
<path d="M174.234 50.5463L174.078 50.1575L195.76 40.2815L195.916 40.6703L174.234 50.5463Z" fill="#3683C1"/>
<path d="M216.432 77.2969L195.683 40.5925L196.071 40.437L216.743 77.0636L216.432 77.2969Z" fill="#3683C1"/>
<path d="M180.218 89.428L120.301 84.9177V84.4512L180.295 88.9614L180.218 89.428Z" fill="#3683C1"/>
<path d="M180.295 89.3503L180.218 88.9614L216.51 76.9859L216.665 77.3747L180.295 89.3503Z" fill="#3683C1"/>
<path d="M163.509 111.668L163.198 111.435L180.062 89.0392L180.451 89.3503L163.509 111.668Z" fill="#3683C1"/>
<path d="M147.267 211.517L147.034 211.206L198.014 176.912L198.247 177.223L147.267 211.517Z" fill="#3683C1"/>
<path d="M169.726 181.889L169.649 181.5L198.092 176.834L198.17 177.223L169.726 181.889Z" fill="#3683C1"/>
<path d="M197.936 177.067L195.683 132.042H196.071L198.403 177.067H197.936Z" fill="#3683C1"/>
<path d="M198.325 177.145L197.936 176.99L219.774 122.789L220.162 122.944L198.325 177.145Z" fill="#3683C1"/>
<path d="M219.696 122.866L216.355 77.2192L216.821 77.1414L220.163 122.866H219.696Z" fill="#3683C1"/>
<path d="M195.916 132.276L195.76 131.887L219.852 122.711L220.007 123.1L195.916 132.276Z" fill="#3683C1"/>
<path d="M12.9782 157.393L0 94.4827L0.466281 94.4049L13.4444 157.316L12.9782 157.393Z" fill="#3683C1"/>
<path d="M0.388568 94.5604L0.0777131 94.4049L25.1015 41.9145L25.49 42.0701L0.388568 94.5604Z" fill="#3683C1"/>
<path d="M0.310854 94.6382L0.155427 94.2494L17.1747 86.7063L17.3301 87.0951L0.310854 94.6382Z" fill="#3683C1"/>
<path d="M47.5607 117.967L47.2498 117.734L70.7971 93.6273L71.1079 93.9383L47.5607 117.967Z" fill="#3683C1"/>
<path d="M80.3558 128.776L70.7193 93.8605L71.1856 93.705L80.7444 128.621L80.3558 128.776Z" fill="#3683C1"/>
<path d="M70.9525 94.0161L70.8748 93.5495L120.301 84.4512L120.378 84.9177L70.9525 94.0161Z" fill="#3683C1"/>
<path d="M138.719 50.0797L110.975 33.8271L111.208 33.4383L138.952 49.6909L138.719 50.0797Z" fill="#3683C1"/>
<path d="M120.534 84.7622L120.145 84.6067L138.641 49.8464L139.03 50.0019L120.534 84.7622Z" fill="#3683C1"/>
<path d="M174.156 50.624L138.796 50.1575V49.6909L174.156 50.1575V50.624Z" fill="#3683C1"/>
<path d="M139.03 49.9242L138.641 49.8464L144.003 7.38753L144.392 7.4653L139.03 49.9242Z" fill="#3683C1"/>
<path d="M74.6827 176.368L13.1336 157.627L13.289 157.16L74.7604 175.979L74.6827 176.368Z" fill="#3683C1"/>
<path d="M74.5273 176.29L53.6223 153.972L53.8555 153.738L74.8381 175.979L74.5273 176.29Z" fill="#3683C1"/>
<path d="M74.5273 176.212L47.1721 117.967L47.5607 117.734L74.9159 176.057L74.5273 176.212Z" fill="#3683C1"/>
<path d="M129.704 143.007L111.597 124.577L111.908 124.344L129.937 142.696L129.704 143.007Z" fill="#3683C1"/>
<path d="M111.908 124.499L111.519 124.422L120.067 84.6067L120.534 84.6844L111.908 124.499Z" fill="#3683C1"/>
<path d="M129.782 143.085L80.5112 128.932L80.6667 128.465L129.859 142.696L129.782 143.085Z" fill="#3683C1"/>
<path d="M84.5523 34.9158L53.6223 19.2853L53.8555 18.8965L84.7855 34.527L84.5523 34.9158Z" fill="#3683C1"/>
<path d="M120.145 84.7622L84.4746 34.838L84.8632 34.6048L120.456 84.5289L120.145 84.7622Z" fill="#3683C1"/>
<path d="M84.7078 34.9158L84.6301 34.527L111.053 33.4383V33.8271L84.7078 34.9158Z" fill="#3683C1"/>
</svg>
