<svg width="24" height="24" viewBox="0 0 24 24" fill="none" xmlns="http://www.w3.org/2000/svg">
<path d="M0 10.6225C0.111111 10.2625 0.375556 10.0814 0.722222 9.95583C2.66667 9.2725 4.61444 8.5725 6.55556 7.87917C6.63556 7.85028 6.71444 7.81806 6.84556 7.76806C6.79245 7.71266 6.73231 7.66447 6.66667 7.62472C6.46778 7.55472 6.26444 7.50028 6.06444 7.43472C5.93795 7.40228 5.82607 7.32817 5.74685 7.22436C5.66763 7.12054 5.62568 6.99307 5.62778 6.8625C5.61889 6.5425 5.62 6.2225 5.62778 5.90361C5.63444 5.61361 5.78111 5.38139 6.06111 5.33583C6.60667 5.24583 6.92222 4.97583 7.02 4.41806C7.07812 4.19905 7.174 3.99187 7.30333 3.80583C7.38889 3.66139 7.41444 3.54472 7.31 3.40472C7.25598 3.31876 7.20772 3.2293 7.16556 3.13694C6.88778 2.61472 6.90444 2.46139 7.30556 2.03917C7.47778 1.85917 7.66 1.68806 7.84667 1.52139C8.05444 1.33583 8.31778 1.27583 8.53667 1.43917C9.00444 1.78806 9.43444 1.76472 9.90667 1.45139C10.0956 1.32694 10.3511 1.29917 10.5611 1.20583C10.651 1.16323 10.7236 1.09106 10.7667 1.00139C10.8433 0.823611 10.8778 0.630278 10.9433 0.445833C10.9721 0.326569 11.0387 0.21985 11.1333 0.14171C11.2279 0.0635694 11.3452 0.0182287 11.4678 0.0125C11.8256 -0.00416667 12.1856 -0.00416667 12.5433 0.0125C12.6637 0.0111936 12.7806 0.0530697 12.8727 0.130533C12.9648 0.207997 13.0262 0.315918 13.0456 0.434722C13.13 1.00694 13.4411 1.30583 14.0022 1.41361C14.2202 1.47581 14.4264 1.57381 14.6122 1.70361C14.6624 1.7392 14.7224 1.75832 14.7839 1.75832C14.8454 1.75832 14.9054 1.7392 14.9556 1.70361C15.1156 1.60806 15.2889 1.5225 15.45 1.43806C15.5585 1.37291 15.6854 1.34534 15.8111 1.3596C15.9369 1.37386 16.0544 1.42916 16.1456 1.51694C16.3981 1.74954 16.6407 1.9925 16.8733 2.24583C16.9573 2.33508 17.0101 2.44911 17.024 2.57087C17.0378 2.69263 17.0118 2.81559 16.95 2.92139C16.8389 3.14361 16.6333 3.36583 16.6289 3.58806C16.6244 3.81028 16.8278 4.0325 16.9222 4.25472C17.0167 4.47694 17.0811 4.72806 17.1767 4.95694C17.2123 5.03588 17.2755 5.09909 17.3544 5.13472C17.55 5.21139 17.7578 5.25806 17.9556 5.32806C18.0767 5.36217 18.1833 5.43489 18.2593 5.53517C18.3353 5.63544 18.3765 5.75779 18.3767 5.88361C18.3856 6.19583 18.39 6.50806 18.3767 6.81917C18.3633 7.16917 18.2233 7.33917 17.8867 7.44806C17.7078 7.50583 17.5278 7.55917 17.35 7.61472C17.2696 7.65015 17.1913 7.69022 17.1156 7.73472C17.2589 7.79361 17.3322 7.82694 17.4078 7.85361L23.2856 9.96472C23.3511 9.98917 23.4178 10.0114 23.4822 10.0392C23.6338 10.0958 23.7646 10.1973 23.857 10.3301C23.9495 10.4629 23.9994 10.6207 24 10.7825C24.0008 10.9438 23.9513 11.1014 23.8586 11.2334C23.7658 11.3654 23.6343 11.4652 23.4822 11.5192C22.7956 11.7758 22.1033 12.0181 21.4144 12.2658L19.4144 12.9803L20.9444 13.5292C21.7733 13.8269 22.6044 14.1181 23.4311 14.4181C23.9178 14.5981 24.12 15.0736 23.9178 15.5114C23.8632 15.6193 23.7867 15.7145 23.6931 15.7911C23.5995 15.8676 23.491 15.9237 23.3744 15.9558C22.3322 16.3262 21.29 16.6995 20.2478 17.0758L19.9922 17.1681C20.11 17.2147 20.1811 17.2458 20.2533 17.2725C21.2956 17.6469 22.3389 18.0181 23.38 18.3947C23.7889 18.5425 24 18.8181 23.9944 19.1836C23.9889 19.5492 23.7867 19.8036 23.3822 19.9492L12.2833 23.9225C12.249 23.9372 12.2156 23.9538 12.1833 23.9725H11.8078C11.7917 23.9569 11.7733 23.9438 11.7533 23.9336C8.10148 22.6284 4.44926 21.3251 0.796667 20.0236C0.444444 19.9069 0.151111 19.7469 0 19.3881V19.0125C0.117778 18.6669 0.367778 18.4803 0.708889 18.3636C1.65222 18.0414 2.58889 17.6969 3.52889 17.3636C3.67222 17.3125 3.81333 17.2525 4.00444 17.1836C3.89333 17.1381 3.82111 17.1081 3.75111 17.0836C2.75111 16.7236 1.74444 16.3558 0.734444 16.0092C0.388889 15.8903 0.124444 15.7103 0 15.3569V14.9814C0.145556 14.6303 0.423333 14.4536 0.777778 14.3403C1.37778 14.1458 1.96778 13.9225 2.56222 13.7092C3.21889 13.4747 3.87667 13.2369 4.57111 12.9881C4.47111 12.9447 4.40889 12.9147 4.34889 12.8914C3.14556 12.4614 1.94444 12.0258 0.737778 11.6069C0.391111 11.4869 0.127778 11.3058 0.00666667 10.9503L0 10.6225ZM0.821111 15.1781L1.05778 15.2658C4.59556 16.5318 8.13185 17.7992 11.6667 19.0681C11.8748 19.1503 12.1064 19.1503 12.3144 19.0681C15.6537 17.8718 18.9944 16.6799 22.3367 15.4925C22.5989 15.3981 22.86 15.3014 23.1589 15.1914C23.0867 15.1569 23.06 15.1403 23.0311 15.1303C21.4822 14.5747 19.9344 14.0192 18.3822 13.4758C18.2579 13.4424 18.1262 13.4486 18.0056 13.4936C16.1537 14.1492 14.3019 14.8106 12.45 15.4781C12.1583 15.5909 11.835 15.5909 11.5433 15.4781C9.70444 14.8114 7.86 14.1558 6.02 13.4925C5.86106 13.4302 5.68449 13.4302 5.52556 13.4925C4.44889 13.8858 3.36889 14.2703 2.29 14.6547L0.821111 15.1781ZM23.1678 19.1869C23.135 19.1685 23.1012 19.1518 23.0667 19.1369C21.68 18.6403 20.2889 18.1369 18.9033 17.6525C18.8009 17.6272 18.693 17.6353 18.5956 17.6758C16.5311 18.4092 14.4681 19.1462 12.4067 19.8869C12.1427 19.988 11.8507 19.988 11.5867 19.8869C9.52593 19.1462 7.46333 18.4084 5.39889 17.6736C5.28405 17.6364 5.1604 17.6364 5.04556 17.6736C4.44444 17.8792 3.85444 18.0936 3.26 18.3069L0.825556 19.1781C0.952222 19.2269 1.03778 19.2614 1.12556 19.2892C4.67148 20.5588 8.21667 21.8295 11.7611 23.1014C11.904 23.157 12.0626 23.157 12.2056 23.1014C15.0389 22.0873 17.873 21.0758 20.7078 20.0669L23.1678 19.1869ZM7.08 8.53917L0.822222 10.7781C0.933333 10.8225 1.00889 10.8514 1.08111 10.8769C4.61148 12.1377 8.14 13.401 11.6667 14.6669C11.8673 14.7458 12.0904 14.7458 12.2911 14.6669C15.5193 13.5099 18.7493 12.3577 21.9811 11.2103C22.3633 11.0736 22.7456 10.9336 23.1789 10.7758L16.9467 8.54583C16.6356 8.9125 16.5278 9.27028 16.8533 9.65694C16.8947 9.71414 16.9283 9.77652 16.9533 9.8425C17.0134 9.94921 17.0381 10.0723 17.0237 10.1939C17.0093 10.3155 16.9567 10.4294 16.8733 10.5192C16.6411 10.7714 16.3989 11.0158 16.1456 11.2469C16.0544 11.3347 15.9368 11.3899 15.811 11.404C15.6852 11.4181 15.5583 11.3902 15.45 11.3247C15.2833 11.2392 15.1167 11.1547 14.9556 11.0592C14.9053 11.0239 14.8453 11.005 14.7839 11.005C14.7225 11.005 14.6625 11.0239 14.6122 11.0592C14.4033 11.1792 14.1878 11.3203 13.9578 11.3647C13.4178 11.4681 13.1344 11.7614 13.0544 12.3058C13.0334 12.4317 12.9679 12.5458 12.8698 12.6274C12.7717 12.7089 12.6476 12.7526 12.52 12.7503C12.1773 12.7686 11.8338 12.7686 11.4911 12.7503C11.3607 12.7457 11.2355 12.698 11.135 12.6148C11.0346 12.5316 10.9644 12.4175 10.9356 12.2903C10.8894 12.1092 10.8334 11.9308 10.7678 11.7558C10.7224 11.6668 10.6474 11.5964 10.5556 11.5569C10.3422 11.4625 10.09 11.4358 9.90111 11.3092C9.43333 10.9903 9 10.9747 8.53555 11.3236C8.32333 11.4825 8.06222 11.4347 7.86889 11.2547C7.61556 11.0236 7.37222 10.7803 7.13889 10.5281C7.05111 10.4369 6.99581 10.3194 6.98155 10.1936C6.96729 10.0679 6.99486 9.94099 7.06 9.8325C7.15556 9.64472 7.26444 9.46361 7.35333 9.27694C7.38058 9.2096 7.38058 9.13429 7.35333 9.06695C7.27778 8.89139 7.18222 8.73028 7.08 8.53917ZM11.6789 11.9836C11.8444 11.9836 12 11.9747 12.1544 11.9836C12.2922 11.9936 12.3467 11.9336 12.3767 11.8092C12.43 11.6058 12.5022 11.4069 12.5589 11.2047C12.5842 11.1151 12.6337 11.0341 12.7018 10.9706C12.77 10.9071 12.8543 10.8636 12.9456 10.8447C13.3733 10.7058 13.8344 10.5958 14.2022 10.3569C14.6256 10.0836 14.9533 10.1069 15.3522 10.3569C15.7256 10.5981 15.7356 10.5681 16.0533 10.2458C16.0776 10.2279 16.0979 10.2051 16.113 10.1791C16.1282 10.153 16.1379 10.1241 16.1415 10.0942C16.1451 10.0642 16.1427 10.0339 16.1342 10.0049C16.1257 9.976 16.1114 9.94908 16.0922 9.92583C15.9811 9.74694 15.8933 9.55361 15.7933 9.37028C15.7495 9.29593 15.7282 9.21042 15.7322 9.12419C15.7361 9.03797 15.7651 8.95476 15.8156 8.88472C16.1308 8.40866 16.3514 7.87639 16.4656 7.31694C16.4788 7.22714 16.5192 7.14353 16.5814 7.07739C16.6436 7.01124 16.7245 6.96572 16.8133 6.94694C17.0233 6.89028 17.2311 6.82361 17.4389 6.75694C17.4878 6.74139 17.5689 6.70917 17.5711 6.68028C17.595 6.48768 17.595 6.29287 17.5711 6.10028C17.56 6.04028 17.3967 6.0025 17.2989 5.96806C17.1589 5.91806 17.0167 5.87472 16.8733 5.83917C16.6333 5.78139 16.5256 5.62917 16.4522 5.39472C16.32 4.97361 16.1989 4.53028 15.9689 4.16139C15.7233 3.76583 15.69 3.43917 15.9689 3.07583C15.9772 3.06263 15.9846 3.0489 15.9911 3.03472C16.2 2.63917 16.1944 2.64472 15.8711 2.32917C15.8526 2.30494 15.8295 2.28467 15.803 2.26955C15.7766 2.25443 15.7474 2.24477 15.7171 2.24114C15.6869 2.23752 15.6562 2.24 15.6269 2.24844C15.5976 2.25688 15.5703 2.27111 15.5467 2.29028C15.38 2.39139 15.2 2.46917 15.0322 2.56917C14.9509 2.62409 14.8545 2.65213 14.7564 2.64934C14.6583 2.64655 14.5636 2.61307 14.4856 2.55361C14.0161 2.24229 13.4909 2.0246 12.9389 1.9125C12.8499 1.89846 12.7672 1.85817 12.7013 1.7968C12.6353 1.73544 12.5893 1.65579 12.5689 1.56806C12.5078 1.35806 12.4456 1.14917 12.3767 0.941389C12.3589 0.886945 12.3189 0.800278 12.2833 0.798056C12.0989 0.770279 11.9111 0.773659 11.7278 0.808056C11.6556 0.826944 11.6222 1.01139 11.5811 1.12472C11.5311 1.26472 11.4867 1.40583 11.4489 1.54917C11.4307 1.64155 11.3847 1.72614 11.3169 1.79151C11.2492 1.85688 11.163 1.89989 11.07 1.91472C10.5109 2.0318 9.9792 2.25428 9.50333 2.57028C9.43389 2.62169 9.35066 2.65118 9.26434 2.65494C9.17802 2.6587 9.09254 2.63657 9.01889 2.59139C8.83444 2.49028 8.64333 2.40028 8.46333 2.29028C8.33444 2.2125 8.24111 2.21472 8.14111 2.33472C8.0915 2.39525 8.03564 2.45037 7.97444 2.49917C7.94447 2.51637 7.91876 2.54011 7.89922 2.56862C7.87968 2.59712 7.86682 2.62967 7.86159 2.66383C7.85636 2.69799 7.85889 2.7329 7.869 2.76594C7.87912 2.79899 7.89655 2.82934 7.92 2.85472C8.02 3.0025 8.08333 3.17472 8.17778 3.32694C8.30889 3.53806 8.27778 3.72139 8.16444 3.93806C7.95889 4.33028 7.72 4.72694 7.63 5.15028C7.52667 5.60917 7.31222 5.85361 6.86556 5.9225L6.84333 5.92917C6.38333 6.07139 6.39 6.07028 6.41111 6.54694C6.40584 6.60057 6.42207 6.6541 6.45624 6.69576C6.4904 6.73743 6.53971 6.76383 6.59333 6.76917C6.79667 6.82361 6.99556 6.89472 7.19889 6.95028C7.28613 6.97125 7.36499 7.01813 7.42508 7.08477C7.48517 7.15141 7.52368 7.23467 7.53555 7.32361C7.64737 7.87571 7.86427 8.40117 8.17444 8.87139C8.22999 8.94735 8.26157 9.03818 8.26513 9.13222C8.26869 9.22626 8.24408 9.31921 8.19444 9.39917C8.08333 9.59028 7.97222 9.77917 7.89 9.97917C7.8699 10.0579 7.88063 10.1414 7.92 10.2125C7.95778 10.2858 8.04333 10.3325 8.09556 10.3992C8.20667 10.5447 8.32667 10.5736 8.49111 10.4603C8.65555 10.3469 8.82444 10.2881 8.98444 10.1936C9.06274 10.1413 9.15537 10.1145 9.24952 10.1171C9.34367 10.1197 9.4347 10.1515 9.51 10.2081C9.97919 10.5203 10.5044 10.7388 11.0567 10.8514C11.1501 10.8656 11.2371 10.9077 11.3063 10.9721C11.3755 11.0365 11.4236 11.1203 11.4444 11.2125C11.5133 11.4625 11.5967 11.7147 11.6789 11.9792V11.9836Z" fill="#E45412"/>
<path d="M11.2022 17.5336C11.2088 17.6028 11.1974 17.6726 11.1691 17.7362C11.1408 17.7997 11.0965 17.8548 11.0406 17.8962C10.9847 17.9376 10.9191 17.9638 10.85 17.9723C10.781 17.9808 10.7109 17.9713 10.6467 17.9447C9.96889 17.7092 9.29445 17.4669 8.62 17.2247C7.84889 16.9492 7.07889 16.6725 6.31 16.3947C6.01222 16.2836 5.88778 16.0881 5.97111 15.8525C6.05445 15.6169 6.28111 15.5381 6.57444 15.6425C7.99778 16.1503 9.42111 16.6625 10.8456 17.1692C11.0433 17.2403 11.1867 17.3481 11.2022 17.5336Z" fill="#E45412"/>
<path d="M6.35778 19.5803C6.42222 19.5981 6.49111 19.6125 6.55667 19.6369C7.98778 20.1466 9.41852 20.6577 10.8489 21.1703C11.0289 21.2347 11.1733 21.3303 11.2 21.5347C11.2411 21.8481 10.9489 22.0525 10.6156 21.9347C9.86555 21.6714 9.11778 21.4003 8.37 21.1325L6.25889 20.3769C6.06111 20.3069 5.94333 20.1803 5.95444 19.9614C5.95613 19.8785 5.98531 19.7984 6.0374 19.7339C6.08948 19.6693 6.16153 19.6239 6.24222 19.6047C6.28026 19.5944 6.31884 19.5863 6.35778 19.5803Z" fill="#E45412"/>
<path d="M11.9911 9.97694C11.2808 9.97387 10.5873 9.76047 9.99813 9.36367C9.40897 8.96687 8.95053 8.40445 8.68068 7.74737C8.41083 7.0903 8.34164 6.36802 8.48186 5.67167C8.62208 4.97532 8.96541 4.3361 9.46854 3.83467C9.97167 3.33325 10.612 2.99208 11.3089 2.85423C12.0057 2.71637 12.7277 2.788 13.3839 3.06008C14.04 3.33216 14.6009 3.7925 14.9957 4.38301C15.3905 4.97351 15.6016 5.66773 15.6022 6.37806C15.6016 6.85153 15.5077 7.32025 15.3259 7.75743C15.1441 8.1946 14.8779 8.59165 14.5425 8.92588C14.2071 9.26011 13.8092 9.52497 13.3714 9.70532C12.9336 9.88566 12.4646 9.97797 11.9911 9.97694ZM12.0111 9.17583C12.5635 9.17232 13.1024 9.00524 13.5599 8.69569C14.0174 8.38614 14.373 7.94798 14.5817 7.43654C14.7904 6.9251 14.8429 6.36329 14.7326 5.82203C14.6222 5.28077 14.3541 4.78433 13.9618 4.39536C13.5696 4.0064 13.071 3.74235 12.5288 3.63654C11.9866 3.53074 11.4253 3.58792 10.9156 3.80087C10.4059 4.01382 9.97074 4.373 9.66501 4.83306C9.35928 5.29312 9.19669 5.83345 9.19778 6.38583C9.19894 6.75386 9.27268 7.11804 9.41476 7.45754C9.55684 7.79703 9.76448 8.10517 10.0258 8.36432C10.2871 8.62347 10.597 8.82854 10.9376 8.96779C11.2783 9.10704 11.6431 9.17773 12.0111 9.17583Z" fill="#E45412"/>
<path d="M11.9867 8.37694C11.5907 8.37428 11.2044 8.25413 10.8768 8.03172C10.5492 7.80931 10.295 7.49465 10.1463 7.12762C9.99772 6.76059 9.9614 6.3577 10.042 5.97C10.1226 5.58231 10.3164 5.22726 10.599 4.94984C10.8815 4.67242 11.2401 4.48513 11.6292 4.41169C12.0183 4.33825 12.4205 4.38197 12.7847 4.5373C13.1489 4.69264 13.4589 4.95261 13.6752 5.28426C13.8916 5.61591 14.0046 6.00432 14 6.40028C13.9938 6.92897 13.7786 7.43372 13.4013 7.80414C13.024 8.17456 12.5154 8.38051 11.9867 8.37694ZM12.01 7.57694C12.246 7.57431 12.476 7.50193 12.671 7.3689C12.8661 7.23587 13.0174 7.04813 13.1059 6.82932C13.1945 6.6105 13.2164 6.37038 13.1688 6.13916C13.1212 5.90795 13.0063 5.69597 12.8385 5.5299C12.6708 5.36383 12.4576 5.25108 12.2259 5.20586C11.9943 5.16063 11.7544 5.18493 11.5365 5.27571C11.3186 5.3665 11.1324 5.5197 11.0013 5.71604C10.8703 5.91239 10.8002 6.14311 10.8 6.37917C10.7998 6.53754 10.8311 6.69436 10.892 6.84055C10.9529 6.98674 11.0422 7.11939 11.1548 7.23081C11.2674 7.34222 11.4009 7.43019 11.5477 7.48961C11.6945 7.54902 11.8516 7.57871 12.01 7.57694Z" fill="#E45412"/>
</svg>
