<svg width="82" height="75" viewBox="0 0 82 75" fill="none" xmlns="http://www.w3.org/2000/svg">
<path d="M71.6366 56.4678C67.8622 59.4227 63.1808 61.0026 58.4409 61.7925C58.0313 61.8511 57.6217 61.9388 57.1828 61.9681C56.2173 62.1144 55.2517 62.2021 54.3155 62.2899C51.7992 62.4947 49.8682 64.6305 49.8682 67.1466V73.788C49.8682 74.7827 48.61 75.2801 47.9663 74.5194C45.5964 71.8278 41.7635 69.4579 37.7551 67.527C36.5847 66.9711 35.3851 66.4152 34.2148 65.9471C27.6316 63.1969 21.5165 61.6463 21.5165 61.6463C20.4925 61.4122 19.4977 61.1196 18.5029 60.7978C18.4444 60.7686 18.3859 60.7686 18.3273 60.7393C18.0348 60.6515 17.7714 60.5638 17.5081 60.4467C17.4203 60.4175 17.3911 60.4175 17.3911 60.4175C13.2363 58.8961 9.40346 56.5263 6.56537 53.1617C2.5862 48.422 0.918457 42.161 0.274767 35.9877C-0.544475 28.0298 0.333284 19.3989 4.75134 12.5528C9.22791 5.56032 16.6889 1.78615 24.735 0.61586C31.6108 -0.437398 38.5743 0.147745 45.5379 0.294031C54.0229 0.469574 63.1223 0.177003 70.2029 4.85815C74.2406 7.52055 77.225 11.6165 79.039 16.1221C80.8531 20.6277 81.5553 25.4844 81.643 30.3411C81.8478 40.0252 79.2438 50.4993 71.6366 56.4678Z" fill="url(#paint0_linear_2_4448)"/>
<defs>
<linearGradient id="paint0_linear_2_4448" x1="43.5742" y1="-1.72272" x2="44.871" y2="90.1468" gradientUnits="userSpaceOnUse">
<stop offset="0.292264" stop-color="#F68E41"/>
<stop offset="0.949497" stop-color="#BD3E11"/>
</linearGradient>
</defs>
</svg>
