<svg width="228" height="227" viewBox="0 0 228 227" fill="none" xmlns="http://www.w3.org/2000/svg">
<path d="M73.0507 64.1549C73.0507 70.1427 68.2325 74.964 62.2486 74.964C56.2646 74.964 51.4464 70.1427 51.4464 64.1549C51.4464 58.1671 56.2646 53.3458 62.2486 53.3458C68.1548 53.268 73.0507 58.1671 73.0507 64.1549Z" fill="#FEECD6"/>
<path d="M187.134 52.5681C187.134 58.5559 182.316 63.3773 176.332 63.3773C170.348 63.3773 165.53 58.5559 165.53 52.5681C165.53 46.5803 170.348 41.759 176.332 41.759C182.238 41.6812 187.134 46.5803 187.134 52.5681Z" fill="#FEECD6"/>
<path d="M208.816 134.22C208.816 140.208 203.998 145.029 198.014 145.029C192.03 145.029 187.212 140.208 187.212 134.22C187.212 128.232 192.03 123.411 198.014 123.411C203.92 123.411 208.816 128.232 208.816 134.22Z" fill="#FEECD6"/>
<path d="M55.876 199.774C55.876 203.274 53.0006 206.151 49.5035 206.151C46.0064 206.151 43.131 203.274 43.131 199.774C43.131 196.275 46.0064 193.398 49.5035 193.398C53.0006 193.398 55.876 196.197 55.876 199.774Z" fill="#FEECD6"/>
<path d="M152.707 9.56491C152.707 13.0643 149.832 15.9415 146.335 15.9415C142.838 15.9415 139.962 13.0643 139.962 9.56491C139.962 6.06555 142.838 3.1883 146.335 3.1883C149.832 3.26607 152.707 6.06555 152.707 9.56491Z" fill="#FEECD6"/>
<path d="M176.721 155.838C176.721 157.082 175.71 158.171 174.389 158.171C173.146 158.171 172.058 157.16 172.058 155.838C172.058 154.594 173.068 153.505 174.389 153.505C175.71 153.583 176.721 154.594 176.721 155.838Z" fill="#FEECD6"/>
<path d="M202.522 179.245C202.522 180.489 201.511 181.578 200.19 181.578C198.947 181.578 197.859 180.567 197.859 179.245C197.859 178.001 198.869 176.912 200.19 176.912C201.511 176.912 202.522 177.923 202.522 179.245Z" fill="#FEECD6"/>
<path d="M58.1297 156.071C58.1297 157.316 57.1195 158.404 55.7983 158.404C54.5549 158.404 53.4669 157.393 53.4669 156.071C53.4669 154.827 54.4772 153.738 55.7983 153.738C57.1195 153.738 58.1297 154.749 58.1297 156.071Z" fill="#FEECD6"/>
<path d="M4.66281 96.66C4.66281 97.9042 3.65254 98.9929 2.33141 98.9929C1.08799 98.9929 0 97.982 0 96.66C0 95.4158 1.01028 94.3271 2.33141 94.3271C3.57482 94.3271 4.66281 95.338 4.66281 96.66Z" fill="#FEECD6"/>
<path d="M29.6866 44.1697C29.6866 45.4139 28.6763 46.5026 27.3552 46.5026C26.1118 46.5026 25.0238 45.4916 25.0238 44.1697C25.0238 42.9254 26.034 41.8368 27.3552 41.8368C28.5986 41.8368 29.6866 42.8477 29.6866 44.1697Z" fill="#FEECD6"/>
<path d="M100.95 2.3329C100.95 3.57712 99.9396 4.66581 98.6185 4.66581C97.3751 4.66581 96.2871 3.65488 96.2871 2.3329C96.2871 1.01093 97.2974 0 98.6185 0C99.9396 0.0777635 100.95 1.08869 100.95 2.3329Z" fill="#FEECD6"/>
<path d="M151.541 213.539C151.541 214.783 150.531 215.871 149.21 215.871C147.967 215.871 146.879 214.861 146.879 213.539C146.879 212.294 147.889 211.206 149.21 211.206C150.531 211.283 151.541 212.294 151.541 213.539Z" fill="#FEECD6"/>
<path d="M184.647 91.3721C184.647 92.6163 183.637 93.705 182.316 93.705C180.995 93.705 179.985 92.6941 179.985 91.3721C179.985 90.1279 180.995 89.0392 182.316 89.0392C183.637 89.0392 184.647 90.1279 184.647 91.3721Z" fill="#FEECD6"/>
<path d="M87.894 130.876C87.894 133.753 85.5626 136.086 82.6872 136.086C79.8118 136.086 77.4804 133.753 77.4804 130.876C77.4804 127.999 79.8118 125.666 82.6872 125.666C85.5626 125.666 87.894 127.999 87.894 130.876Z" fill="#FEECD6"/>
<path d="M130.015 180.1C130.015 182.978 127.683 185.31 124.808 185.31C121.933 185.31 119.601 182.978 119.601 180.1C119.601 177.223 121.933 174.89 124.808 174.89C127.683 174.89 130.015 177.223 130.015 180.1Z" fill="#FEECD6"/>
<path d="M143.226 52.1015C143.226 53.3458 142.216 54.4344 140.895 54.4344C139.651 54.4344 138.563 53.4235 138.563 52.1015C138.563 50.8573 139.574 49.7686 140.895 49.7686C142.216 49.7686 143.226 50.7796 143.226 52.1015Z" fill="#FEECD6"/>
<path d="M89.0597 36.8599C89.0597 38.1041 88.0495 39.1928 86.7283 39.1928C85.4849 39.1928 84.3969 38.1819 84.3969 36.8599C84.3969 35.6157 85.4072 34.527 86.7283 34.527C88.0495 34.6048 89.0597 35.6157 89.0597 36.8599Z" fill="#FEECD6"/>
<path d="M75.3044 95.9602C75.3044 97.2044 74.2942 98.2931 72.973 98.2931C71.7296 98.2931 70.6416 97.2821 70.6416 95.9602C70.6416 94.7159 71.6519 93.6273 72.973 93.6273C74.2942 93.6273 75.3044 94.7159 75.3044 95.9602Z" fill="#FEECD6"/>
<path d="M113.85 129.01C115.138 129.01 116.182 127.965 116.182 126.677C116.182 125.388 115.138 124.344 113.85 124.344C112.563 124.344 111.519 125.388 111.519 126.677C111.519 127.965 112.563 129.01 113.85 129.01Z" fill="#FEECD6"/>
<path d="M142.76 145.029C142.76 151.017 137.941 155.838 131.958 155.838C125.974 155.838 121.155 151.017 121.155 145.029C121.155 139.041 125.974 134.22 131.958 134.22C137.864 134.22 142.76 139.041 142.76 145.029Z" fill="#FEECD6"/>
<path d="M131.258 159.337C131.103 159.337 130.87 159.337 130.714 159.337V158.949C130.87 158.949 131.103 158.949 131.258 158.949V159.337ZM133.279 159.26L133.201 158.871C133.356 158.871 133.59 158.871 133.745 158.793L133.823 159.182C133.667 159.26 133.434 159.26 133.279 159.26ZM128.771 158.949C128.616 158.871 128.383 158.871 128.227 158.793L128.305 158.404C128.46 158.482 128.694 158.482 128.849 158.56L128.771 158.949ZM135.766 158.793L135.688 158.404C135.843 158.327 136.076 158.326 136.232 158.249L136.387 158.638C136.154 158.715 135.999 158.715 135.766 158.793ZM126.284 158.171C126.129 158.093 125.896 158.015 125.74 157.938L125.896 157.549C126.051 157.627 126.207 157.704 126.362 157.782L126.284 158.171ZM138.175 157.86L138.019 157.471C138.175 157.393 138.33 157.316 138.485 157.238L138.719 157.627C138.485 157.704 138.33 157.782 138.175 157.86ZM124.031 157.005C123.875 156.927 123.72 156.771 123.564 156.693L123.798 156.382C123.953 156.46 124.108 156.616 124.264 156.693L124.031 157.005ZM140.351 156.538L140.117 156.227C140.273 156.149 140.428 155.994 140.584 155.916L140.817 156.227C140.661 156.305 140.506 156.46 140.351 156.538ZM122.088 155.371C121.933 155.216 121.777 155.138 121.699 154.983L122.01 154.672C122.166 154.827 122.243 154.905 122.399 155.06L122.088 155.371ZM142.293 154.905L141.983 154.594C142.138 154.438 142.216 154.283 142.371 154.205L142.682 154.516C142.527 154.594 142.449 154.749 142.293 154.905ZM120.378 153.427C120.301 153.272 120.145 153.116 120.067 152.961L120.456 152.728C120.534 152.883 120.689 153.039 120.767 153.194L120.378 153.427ZM143.848 152.883L143.459 152.65C143.537 152.494 143.692 152.339 143.77 152.183L144.159 152.416C144.081 152.572 144.003 152.728 143.848 152.883ZM119.057 151.25C118.979 151.094 118.902 150.939 118.824 150.706L119.213 150.55C119.29 150.706 119.368 150.861 119.446 151.017L119.057 151.25ZM145.091 150.628L144.703 150.472C144.78 150.317 144.858 150.161 144.936 149.928L145.324 150.084C145.247 150.239 145.169 150.395 145.091 150.628ZM118.125 148.839C118.047 148.684 118.047 148.451 117.969 148.295L118.358 148.217C118.435 148.373 118.435 148.606 118.513 148.762L118.125 148.839ZM145.868 148.139L145.48 148.062C145.557 147.906 145.557 147.673 145.557 147.517L145.946 147.595C145.946 147.751 145.868 147.984 145.868 148.139ZM117.658 146.351C117.658 146.195 117.658 145.962 117.581 145.807H117.969C117.969 145.962 117.969 146.195 117.969 146.351H117.658ZM146.179 145.573H145.791C145.791 145.418 145.791 145.184 145.791 145.029H146.179C146.179 145.262 146.179 145.418 146.179 145.573ZM118.125 143.785H117.736C117.736 143.629 117.736 143.396 117.814 143.24L118.202 143.318C118.125 143.474 118.125 143.629 118.125 143.785ZM145.635 143.085C145.635 142.929 145.557 142.696 145.557 142.541L145.946 142.463C145.946 142.618 146.024 142.852 146.024 143.007L145.635 143.085ZM118.513 141.374L118.125 141.296C118.202 141.141 118.202 140.907 118.28 140.752L118.669 140.907C118.669 140.985 118.591 141.219 118.513 141.374ZM145.091 140.674C145.013 140.519 144.936 140.363 144.936 140.13L145.324 139.974C145.402 140.13 145.48 140.363 145.48 140.519L145.091 140.674ZM119.446 139.041L119.057 138.886C119.135 138.73 119.213 138.575 119.29 138.341L119.679 138.575C119.601 138.73 119.523 138.886 119.446 139.041ZM144.081 138.419C144.003 138.264 143.925 138.108 143.77 137.952L144.159 137.719C144.236 137.875 144.314 138.03 144.469 138.186L144.081 138.419ZM120.689 136.942L120.378 136.708C120.456 136.553 120.611 136.397 120.689 136.242L121 136.475C120.922 136.63 120.767 136.786 120.689 136.942ZM142.682 136.319C142.604 136.164 142.449 136.008 142.293 135.931L142.604 135.62C142.76 135.775 142.837 135.931 142.993 136.086L142.682 136.319ZM122.321 134.997L122.01 134.686C122.166 134.531 122.321 134.453 122.399 134.298L122.71 134.609C122.632 134.764 122.477 134.92 122.321 134.997ZM140.972 134.531C140.817 134.375 140.661 134.298 140.584 134.142L140.817 133.831C140.972 133.987 141.128 134.064 141.283 134.22L140.972 134.531ZM124.264 133.442L124.031 133.053C124.186 132.976 124.342 132.82 124.497 132.742L124.73 133.131C124.575 133.287 124.419 133.364 124.264 133.442ZM138.952 133.053C138.796 132.976 138.641 132.898 138.485 132.82L138.719 132.431C138.874 132.509 139.029 132.587 139.185 132.742L138.952 133.053ZM126.44 132.276L126.284 131.887C126.44 131.809 126.595 131.731 126.828 131.654L126.984 132.042C126.751 132.12 126.595 132.198 126.44 132.276ZM136.698 132.042C136.543 131.965 136.31 131.887 136.154 131.887L136.31 131.498C136.465 131.576 136.698 131.654 136.854 131.654L136.698 132.042ZM128.849 131.498L128.771 131.109C128.927 131.032 129.16 131.032 129.315 131.032L129.393 131.42C129.16 131.42 129.004 131.498 128.849 131.498ZM134.289 131.343C134.134 131.343 133.9 131.265 133.745 131.265L133.823 130.876C133.978 130.876 134.211 130.954 134.367 130.954L134.289 131.343ZM131.258 131.187V130.798C131.414 130.798 131.647 130.798 131.802 130.798V131.187C131.647 131.187 131.491 131.187 131.258 131.187Z" fill="#FEECD6"/>
<path d="M131.88 161.904C131.569 161.904 131.336 161.904 131.025 161.904V161.593C131.958 161.67 132.968 161.593 133.9 161.515V161.826C133.279 161.904 132.579 161.904 131.88 161.904ZM129.859 161.826C128.927 161.748 127.916 161.515 126.984 161.204L127.062 160.893C127.994 161.204 128.927 161.359 129.859 161.515V161.826ZM135.144 161.593L135.066 161.281C135.999 161.126 136.931 160.815 137.786 160.504L137.864 160.737C137.009 161.204 136.076 161.437 135.144 161.593ZM125.974 160.815C125.041 160.504 124.186 160.037 123.331 159.571L123.487 159.337C124.342 159.804 125.196 160.271 126.051 160.582L125.974 160.815ZM138.952 160.348L138.796 160.115C139.651 159.726 140.506 159.26 141.283 158.715L141.439 158.949C140.739 159.493 139.884 159.96 138.952 160.348ZM122.321 158.949C121.544 158.404 120.767 157.782 120.067 157.082L120.301 156.849C121 157.549 121.699 158.093 122.476 158.638L122.321 158.949ZM142.449 158.249L142.293 158.015C143.071 157.393 143.77 156.771 144.392 156.071L144.625 156.227C143.925 156.927 143.226 157.627 142.449 158.249ZM119.29 156.227C118.669 155.527 118.047 154.749 117.581 153.894L117.814 153.738C118.28 154.516 118.902 155.294 119.523 155.994L119.29 156.227ZM145.247 155.371L145.013 155.216C145.557 154.438 146.101 153.661 146.568 152.805L146.801 152.961C146.412 153.738 145.868 154.594 145.247 155.371ZM116.959 152.883C116.493 152.028 116.104 151.094 115.793 150.239L116.026 150.161C116.337 151.094 116.726 151.95 117.114 152.805L116.959 152.883ZM147.345 151.872L147.112 151.794C147.5 150.939 147.811 150.006 148.044 149.073L148.355 149.15C148.044 150.006 147.733 150.939 147.345 151.872ZM115.56 149.073C115.327 148.139 115.171 147.129 115.094 146.195H115.405C115.482 147.129 115.638 148.062 115.871 148.995L115.56 149.073ZM148.511 147.906L148.2 147.828C148.355 146.895 148.433 145.962 148.433 144.951H148.744C148.821 146.04 148.666 146.973 148.511 147.906ZM115.327 145.029H115.016C115.016 144.096 115.094 143.085 115.249 142.152L115.56 142.229C115.405 143.163 115.327 144.096 115.327 145.029ZM148.433 143.862C148.355 142.929 148.2 141.996 147.967 141.063L148.277 140.985C148.511 141.918 148.666 142.852 148.744 143.862H148.433ZM115.793 141.063L115.482 140.985C115.715 140.052 116.026 139.119 116.415 138.264L116.648 138.341C116.337 139.274 116.026 140.13 115.793 141.063ZM147.733 139.897C147.423 138.963 147.034 138.108 146.645 137.253L146.879 137.097C147.345 137.952 147.733 138.886 148.044 139.741L147.733 139.897ZM117.192 137.33L116.959 137.175C117.425 136.319 117.969 135.464 118.513 134.686L118.746 134.842C118.202 135.697 117.658 136.475 117.192 137.33ZM146.024 136.319C145.557 135.542 144.936 134.764 144.314 134.064L144.547 133.909C145.169 134.609 145.791 135.386 146.257 136.242L146.024 136.319ZM119.523 134.064L119.29 133.909C119.912 133.209 120.611 132.509 121.389 131.887L121.544 132.12C120.845 132.665 120.145 133.364 119.523 134.064ZM143.537 133.209C142.837 132.509 142.138 131.965 141.361 131.42L141.516 131.187C142.293 131.731 143.071 132.353 143.77 133.053L143.537 133.209ZM122.476 131.42L122.321 131.187C123.098 130.643 123.953 130.176 124.808 129.71L124.963 129.943C124.108 130.409 123.254 130.876 122.476 131.42ZM140.351 130.72C139.496 130.254 138.641 129.787 137.786 129.476L137.864 129.243C138.796 129.554 139.651 130.021 140.506 130.487L140.351 130.72ZM126.051 129.554L125.974 129.321C126.906 129.01 127.839 128.699 128.771 128.543L128.849 128.854C127.839 128.932 126.906 129.165 126.051 129.554ZM136.698 129.165C135.766 128.854 134.833 128.699 133.9 128.621V128.31C134.833 128.388 135.843 128.621 136.776 128.932L136.698 129.165ZM129.859 128.543V128.232C130.792 128.076 131.802 128.076 132.735 128.154V128.465C131.802 128.388 130.87 128.465 129.859 128.543Z" fill="#FEECD6"/>
<path d="M60.3059 120.067C60.3059 126.055 55.4876 130.876 49.5037 130.876C43.5197 130.876 38.7015 126.055 38.7015 120.067C38.7015 114.079 43.5197 109.258 49.5037 109.258C55.4876 109.18 60.3059 114.079 60.3059 120.067Z" fill="#FEECD6"/>
<path d="M49.5037 137.097C48.4157 137.097 47.3277 137.019 46.2397 136.786L46.3174 136.397C47.8717 136.708 49.5037 136.786 51.058 136.63L51.1357 137.019C50.514 137.097 49.97 137.097 49.5037 137.097ZM52.4568 136.864L52.3791 136.475C53.9334 136.164 55.4876 135.697 56.8865 134.997L57.0419 135.386C55.6431 136.086 54.0888 136.553 52.4568 136.864ZM44.8409 136.475C43.2866 136.008 41.81 135.386 40.4112 134.531L40.6443 134.142C41.9655 134.997 43.442 135.62 44.9963 136.086L44.8409 136.475ZM58.363 134.609L58.1299 134.22C59.451 133.364 60.6944 132.353 61.7824 131.187L62.0933 131.498C61.0053 132.742 59.7619 133.753 58.363 134.609ZM39.1678 133.675C37.8467 132.665 36.681 131.498 35.7484 130.254L36.0592 130.021C36.9918 131.265 38.1575 132.431 39.4009 133.364L39.1678 133.675ZM63.0258 130.409L62.715 130.176C63.6476 128.932 64.5024 127.532 65.0464 126.055L65.435 126.21C64.8133 127.688 64.0361 129.165 63.0258 130.409ZM34.9713 129.01C34.1164 127.61 33.417 126.132 33.0284 124.577L33.417 124.499C33.8055 126.055 34.505 127.454 35.2821 128.854L34.9713 129.01ZM65.8235 124.81L65.435 124.655C65.9012 123.177 66.1344 121.544 66.1344 119.989H66.5229C66.5229 121.7 66.2898 123.255 65.8235 124.81ZM32.7176 123.177C32.5621 122.166 32.4067 121.078 32.4067 119.989C32.4067 119.445 32.4067 118.823 32.4844 118.278L32.873 118.356C32.7953 118.9 32.7953 119.445 32.7953 119.989C32.7953 121 32.873 122.089 33.1061 123.1L32.7176 123.177ZM66.0567 118.589C65.9012 117.034 65.5904 115.479 64.9687 114.001L65.3572 113.846C65.979 115.323 66.2898 116.956 66.4452 118.589H66.0567ZM33.1061 116.956L32.7176 116.879C33.0284 115.245 33.5724 113.69 34.2718 112.29L34.6604 112.446C33.8833 113.924 33.417 115.401 33.1061 116.956ZM64.4247 112.679C63.7253 111.28 62.7927 109.958 61.7824 108.791L62.0933 108.48C63.1813 109.647 64.1138 111.046 64.8133 112.524L64.4247 112.679ZM35.2821 111.28L34.8935 111.046C35.7484 109.647 36.8364 108.402 38.0021 107.314L38.3129 107.625C37.1472 108.713 36.137 109.958 35.2821 111.28ZM60.7722 107.78C59.6064 106.691 58.2853 105.758 56.8865 105.058L57.0419 104.67C58.5185 105.37 59.8396 106.303 61.0053 107.391L60.7722 107.78ZM39.4009 106.769L39.1678 106.458C40.4889 105.447 41.8878 104.67 43.442 104.125L43.5975 104.514C42.1209 105.058 40.7221 105.758 39.4009 106.769ZM55.5653 104.514C54.0888 103.97 52.5345 103.581 50.9802 103.425V103.037C52.6122 103.192 54.1665 103.581 55.7208 104.125L55.5653 104.514ZM44.9186 104.048L44.7632 103.659C46.3174 103.192 47.8717 103.037 49.426 103.037H49.5037V103.425H49.426C47.9494 103.348 46.3951 103.581 44.9186 104.048Z" fill="#FEECD6"/>
<path d="M49.5037 134.22C49.0374 134.22 48.5711 134.22 48.0271 134.142L48.1048 133.753C48.5711 133.831 49.0374 133.831 49.5037 133.831V134.22ZM51.2134 134.064L51.1357 133.675C51.602 133.598 52.0682 133.52 52.5345 133.442L52.6122 133.831C52.1459 133.986 51.6797 134.064 51.2134 134.064ZM46.3174 133.831C45.8511 133.753 45.3849 133.598 44.9186 133.442L45.074 133.053C45.5403 133.209 46.0066 133.364 46.3951 133.442L46.3174 133.831ZM54.3219 133.364L54.1665 132.976C54.6328 132.82 55.0213 132.665 55.4876 132.431L55.6431 132.82C55.1768 132.976 54.7105 133.209 54.3219 133.364ZM43.3643 132.82C42.898 132.587 42.5095 132.353 42.1209 132.12L42.354 131.731C42.7426 131.965 43.1312 132.198 43.5975 132.431L43.3643 132.82ZM57.1196 131.965L56.8865 131.576C57.275 131.343 57.6636 131.031 58.0522 130.72L58.2853 131.031C57.8967 131.42 57.5082 131.654 57.1196 131.965ZM40.6443 131.109C40.2558 130.798 39.8672 130.487 39.5564 130.176L39.8672 129.865C40.1781 130.176 40.5666 130.487 40.8775 130.798L40.6443 131.109ZM59.6064 129.943L59.2956 129.632C59.6064 129.321 59.9173 128.932 60.2282 128.621L60.539 128.854C60.2282 129.243 59.9173 129.632 59.6064 129.943ZM38.3906 128.854C38.0798 128.465 37.7689 128.076 37.5358 127.688L37.9244 127.454C38.1575 127.843 38.4684 128.232 38.7792 128.621L38.3906 128.854ZM61.5493 127.454L61.1607 127.221C61.3939 126.832 61.627 126.443 61.8601 125.977L62.2487 126.132C62.0156 126.599 61.7824 127.066 61.5493 127.454ZM36.681 126.21C36.4478 125.744 36.2924 125.355 36.137 124.888L36.5255 124.733C36.681 125.199 36.8364 125.588 37.0695 126.055L36.681 126.21ZM62.8704 124.577L62.4818 124.422C62.6373 123.955 62.7927 123.488 62.8704 123.1L63.259 123.177C63.1813 123.644 63.0258 124.111 62.8704 124.577ZM35.6707 123.177C35.593 122.711 35.5152 122.244 35.4375 121.778L35.8261 121.7C35.9038 122.166 35.9815 122.633 36.0592 123.1L35.6707 123.177ZM63.5698 121.467L63.1813 121.389C63.259 120.922 63.259 120.456 63.259 119.989H63.6476C63.6476 120.533 63.5698 121 63.5698 121.467ZM35.7484 120.067H35.2821C35.2821 119.6 35.2821 119.134 35.3598 118.667L35.7484 118.745C35.7484 119.134 35.7484 119.6 35.7484 120.067ZM63.1036 118.356C63.0258 117.889 62.9481 117.423 62.8704 116.956L63.259 116.879C63.3367 117.345 63.4144 117.812 63.4921 118.278L63.1036 118.356ZM36.0592 116.956L35.6707 116.879C35.7484 116.412 35.9038 115.945 36.0592 115.479L36.4478 115.634C36.2924 116.101 36.2147 116.567 36.0592 116.956ZM62.4041 115.323C62.2487 114.857 62.0933 114.468 61.8601 114.001L62.2487 113.846C62.4818 114.312 62.6373 114.701 62.7927 115.168L62.4041 115.323ZM37.0695 114.079L36.681 113.924C36.9141 113.457 37.1472 113.068 37.3804 112.679L37.7689 112.913C37.5358 113.224 37.3027 113.69 37.0695 114.079ZM61.0053 112.602C60.7721 112.213 60.4613 111.824 60.1504 111.435L60.4613 111.202C60.7722 111.591 61.083 111.979 61.3161 112.368L61.0053 112.602ZM38.7015 111.513L38.3906 111.28C38.7015 110.891 39.0124 110.502 39.3232 110.191L39.6341 110.502C39.3232 110.735 39.0124 111.124 38.7015 111.513ZM59.0625 110.191C58.7516 109.88 58.363 109.569 57.9745 109.258L58.2076 108.947C58.5962 109.258 58.9847 109.569 59.2956 109.88L59.0625 110.191ZM40.8775 109.335L40.6443 109.024C41.0329 108.713 41.4215 108.402 41.81 108.169L42.0432 108.558C41.6546 108.713 41.2661 109.024 40.8775 109.335ZM56.6533 108.325C56.2648 108.091 55.8762 107.858 55.4099 107.625L55.5653 107.236C56.0316 107.469 56.4202 107.702 56.8088 107.936L56.6533 108.325ZM43.5197 107.625L43.3643 107.236C43.8306 107.003 44.2192 106.847 44.6854 106.692L44.8409 107.08C44.3746 107.236 43.9083 107.469 43.5197 107.625ZM53.8556 107.003C53.3894 106.847 52.9231 106.691 52.5345 106.614L52.6122 106.225C53.0785 106.303 53.5448 106.458 54.0111 106.614L53.8556 107.003ZM46.3951 106.614L46.3174 106.225C46.7837 106.147 47.25 106.069 47.7163 105.992L47.794 106.38C47.3277 106.458 46.8614 106.536 46.3951 106.614ZM50.8248 106.38C50.3585 106.303 49.8923 106.303 49.426 106.303V105.836C49.8923 105.836 50.3585 105.836 50.8248 105.914V106.38Z" fill="#FEECD6"/>
<path d="M108.877 216.494C108.877 219.993 106.001 222.87 102.504 222.87C99.0071 222.87 96.1317 219.993 96.1317 216.494C96.1317 212.994 99.0071 210.117 102.504 210.117C106.001 210.117 108.877 212.916 108.877 216.494Z" fill="#FEECD6"/>
<path d="M102.504 225.048C102.116 225.048 101.805 225.048 101.416 224.97L101.494 224.581C102.426 224.659 103.359 224.659 104.214 224.503L104.292 224.892C103.748 224.97 103.126 225.048 102.504 225.048ZM98.6962 224.114C97.8414 223.648 97.0642 223.103 96.3648 222.404L96.6757 222.093C97.2974 222.792 98.0745 223.337 98.8516 223.726L98.6962 224.114ZM107.012 223.803L106.778 223.415C107.556 222.948 108.255 222.326 108.877 221.626L109.188 221.859C108.566 222.637 107.866 223.259 107.012 223.803ZM94.7328 219.993C94.3443 219.138 94.1111 218.127 94.0334 217.193H94.422C94.4997 218.127 94.7328 218.982 95.1214 219.837L94.7328 219.993ZM110.586 219.293L110.198 219.138C110.509 218.282 110.664 217.349 110.664 216.416C110.664 215.949 110.664 215.483 110.586 215.094L110.975 215.016C111.053 215.483 111.13 215.949 111.13 216.416C111.053 217.427 110.897 218.438 110.586 219.293ZM94.6551 214.394L94.2665 214.316C94.4997 213.383 94.8882 212.45 95.4322 211.672L95.8208 211.906C95.2768 212.683 94.8882 213.539 94.6551 214.394ZM109.654 212.528C109.188 211.75 108.644 210.972 107.944 210.35L108.255 210.039C108.954 210.661 109.576 211.439 110.042 212.294L109.654 212.528ZM97.6859 209.884L97.4528 209.573C98.2299 209.028 99.0848 208.562 100.017 208.251L100.173 208.639C99.2402 208.951 98.4631 209.339 97.6859 209.884ZM105.535 208.873C104.68 208.562 103.748 208.328 102.815 208.251V207.862C103.825 207.94 104.758 208.095 105.613 208.484L105.535 208.873Z" fill="#FEECD6"/>
<path d="M102.116 226.914C101.805 226.914 101.416 226.836 101.105 226.836V226.525C101.416 226.603 101.727 226.603 102.116 226.603V226.914ZM102.97 226.914V226.603C103.281 226.603 103.592 226.525 103.981 226.525V226.836C103.592 226.836 103.281 226.914 102.97 226.914ZM100.25 226.681C99.9396 226.603 99.6288 226.525 99.3179 226.447L99.3956 226.214C99.7065 226.292 100.017 226.37 100.328 226.447L100.25 226.681ZM104.836 226.681L104.758 226.37C105.069 226.292 105.38 226.214 105.69 226.136L105.768 226.37C105.457 226.525 105.146 226.603 104.836 226.681ZM98.4631 226.059C98.1522 225.903 97.8414 225.747 97.5305 225.592L97.6859 225.359C97.9968 225.514 98.3076 225.67 98.5408 225.747L98.4631 226.059ZM106.623 226.059L106.545 225.825C106.856 225.67 107.167 225.592 107.4 225.436L107.556 225.67C107.167 225.825 106.856 225.981 106.623 226.059ZM96.8311 225.203C96.5202 225.048 96.2871 224.814 96.0539 224.581L96.2094 224.348C96.4425 224.581 96.7534 224.737 96.9865 224.892L96.8311 225.203ZM108.255 225.203L108.1 224.97C108.333 224.814 108.644 224.581 108.877 224.425L109.032 224.659C108.799 224.814 108.488 225.048 108.255 225.203ZM95.3545 224.037C95.1214 223.803 94.8882 223.57 94.6551 223.337L94.8882 223.181C95.1214 223.415 95.3545 223.648 95.5877 223.881L95.3545 224.037ZM109.732 224.037L109.576 223.803C109.809 223.57 110.042 223.337 110.276 223.103L110.509 223.259C110.198 223.57 109.965 223.803 109.732 224.037ZM94.1111 222.637C93.878 222.404 93.7225 222.093 93.5671 221.782L93.8003 221.626C93.9557 221.937 94.1888 222.17 94.3443 222.404L94.1111 222.637ZM110.897 222.637L110.664 222.481C110.82 222.248 111.053 221.937 111.208 221.704L111.441 221.859C111.286 222.093 111.13 222.404 110.897 222.637ZM93.1008 221.082C92.9454 220.771 92.79 220.46 92.7123 220.148L92.9454 220.071C93.0231 220.382 93.1785 220.693 93.334 221.004L93.1008 221.082ZM111.908 221.082L111.674 220.926C111.83 220.615 111.985 220.304 112.063 219.993L112.296 220.071C112.218 220.46 112.063 220.771 111.908 221.082ZM92.4791 219.293C92.4014 218.982 92.3237 218.671 92.246 218.282L92.5568 218.204C92.6346 218.515 92.7123 218.826 92.79 219.138L92.4791 219.293ZM112.607 219.293L112.296 219.215C112.374 218.904 112.452 218.593 112.529 218.282L112.84 218.36C112.762 218.671 112.685 218.982 112.607 219.293ZM92.0906 217.505C92.0906 217.193 92.0128 216.805 92.0128 216.494H92.3237C92.3237 216.805 92.3237 217.116 92.4014 217.505H92.0906ZM112.918 217.505H112.607C112.607 217.193 112.685 216.882 112.685 216.494C112.685 216.416 112.685 216.416 112.685 216.338H112.996C112.996 216.416 112.996 216.416 112.996 216.494C112.996 216.805 112.918 217.116 112.918 217.505ZM92.4014 215.638H92.0906C92.0906 215.327 92.1683 214.938 92.246 214.627L92.5568 214.705C92.4791 214.938 92.4014 215.327 92.4014 215.638ZM112.607 215.483C112.607 215.172 112.529 214.861 112.452 214.549L112.762 214.472C112.84 214.783 112.84 215.172 112.918 215.483H112.607ZM92.7123 213.85L92.4014 213.772C92.4791 213.461 92.5568 213.15 92.7123 212.839L92.9454 212.916C92.8677 213.228 92.79 213.539 92.7123 213.85ZM112.296 213.694C112.218 213.383 112.141 213.072 111.985 212.761L112.218 212.683C112.374 212.994 112.452 213.305 112.529 213.616L112.296 213.694ZM93.334 212.139L93.1008 211.983C93.2563 211.672 93.4117 211.361 93.5671 211.128L93.8003 211.283C93.6448 211.517 93.4894 211.828 93.334 212.139ZM111.674 211.983C111.519 211.672 111.364 211.439 111.208 211.128L111.441 210.972C111.597 211.283 111.752 211.517 111.908 211.828L111.674 211.983ZM94.2665 210.584L94.0334 210.428C94.1888 210.117 94.422 209.884 94.6551 209.65L94.8882 209.806C94.6551 210.039 94.422 210.273 94.2665 210.584ZM110.664 210.428C110.509 210.195 110.276 209.884 110.042 209.65L110.276 209.495C110.509 209.728 110.742 210.039 110.897 210.272L110.664 210.428ZM95.4322 209.184L95.1991 208.951C95.4322 208.717 95.6654 208.484 95.9762 208.251L96.1317 208.484C95.8985 208.717 95.6654 208.951 95.4322 209.184ZM109.498 209.106C109.265 208.873 109.032 208.639 108.721 208.484L108.877 208.251C109.11 208.484 109.421 208.639 109.654 208.873L109.498 209.106ZM96.8311 208.017L96.6757 207.784C96.9865 207.629 97.2197 207.395 97.5305 207.24L97.6859 207.473C97.3751 207.706 97.1419 207.862 96.8311 208.017ZM108.1 207.94C107.789 207.784 107.556 207.629 107.245 207.473L107.4 207.24C107.711 207.395 108.022 207.551 108.255 207.784L108.1 207.94ZM98.4631 207.162L98.3854 206.929C98.6962 206.773 99.0071 206.695 99.3179 206.54L99.3956 206.773C99.0071 206.929 98.6962 207.006 98.4631 207.162ZM106.468 207.084C106.157 206.929 105.846 206.851 105.535 206.773L105.613 206.54C105.924 206.618 106.234 206.773 106.545 206.851L106.468 207.084ZM100.173 206.54L100.095 206.229C100.406 206.151 100.717 206.073 101.105 206.073V206.384C100.794 206.462 100.484 206.462 100.173 206.54ZM104.758 206.54C104.447 206.462 104.136 206.384 103.825 206.384V206.073C104.136 206.151 104.525 206.151 104.836 206.229L104.758 206.54ZM101.96 206.307V205.995C102.271 205.995 102.66 205.995 102.97 205.995V206.307C102.582 206.307 102.271 206.307 101.96 206.307Z" fill="#FEECD6"/>
<path d="M178.197 183.833C178.197 187.332 175.322 190.21 171.825 190.21C168.328 190.21 165.452 187.332 165.452 183.833C165.452 180.334 168.328 177.456 171.825 177.456C175.322 177.456 178.197 180.334 178.197 183.833Z" fill="#FEECD6"/>
<path d="M171.825 192.542C171.592 192.542 171.358 192.542 171.203 192.542V192.154C171.669 192.154 172.136 192.154 172.602 192.154L172.68 192.542C172.369 192.542 172.058 192.542 171.825 192.542ZM169.416 192.231C168.949 192.076 168.483 191.92 168.017 191.687L168.172 191.298C168.561 191.531 169.027 191.687 169.493 191.765L169.416 192.231ZM174.312 192.154L174.156 191.765C174.622 191.609 175.011 191.454 175.477 191.22L175.633 191.609C175.244 191.843 174.778 191.998 174.312 192.154ZM166.618 190.754C166.229 190.443 165.841 190.132 165.53 189.821L165.841 189.51C166.152 189.821 166.54 190.132 166.851 190.443L166.618 190.754ZM177.187 190.676L176.954 190.365C177.342 190.054 177.653 189.743 177.964 189.432L178.275 189.743C177.886 190.054 177.498 190.365 177.187 190.676ZM164.442 188.421C164.209 188.032 163.976 187.566 163.742 187.099L164.131 186.943C164.286 187.332 164.52 187.799 164.753 188.188L164.442 188.421ZM179.285 188.265L178.897 188.032C179.13 187.643 179.363 187.255 179.518 186.788L179.907 186.943C179.751 187.41 179.518 187.877 179.285 188.265ZM163.276 185.466C163.198 184.999 163.121 184.533 163.121 183.988H163.509C163.509 184.455 163.587 184.922 163.665 185.388L163.276 185.466ZM180.373 185.31L179.985 185.233C180.062 184.766 180.062 184.299 180.062 183.833H180.451C180.451 184.377 180.451 184.844 180.373 185.31ZM163.742 182.355L163.354 182.278C163.432 181.811 163.587 181.344 163.742 180.878L164.131 181.033C163.898 181.422 163.82 181.889 163.742 182.355ZM179.907 182.2C179.829 181.733 179.674 181.267 179.518 180.878L179.907 180.722C180.062 181.189 180.218 181.656 180.295 182.122L179.907 182.2ZM164.83 179.556L164.442 179.323C164.675 178.934 164.986 178.545 165.297 178.156L165.608 178.467C165.297 178.778 165.064 179.167 164.83 179.556ZM178.741 179.4C178.508 179.012 178.197 178.623 177.886 178.312L178.197 178.001C178.508 178.389 178.819 178.778 179.052 179.167L178.741 179.4ZM166.851 177.301L166.618 176.99C167.006 176.679 167.395 176.445 167.861 176.212L168.094 176.601C167.628 176.756 167.162 176.99 166.851 177.301ZM176.643 177.223C176.254 176.99 175.866 176.679 175.477 176.523L175.633 176.134C176.099 176.368 176.487 176.601 176.876 176.912L176.643 177.223ZM169.571 175.901L169.416 175.512C169.882 175.357 170.348 175.279 170.814 175.201L170.892 175.59C170.426 175.745 169.96 175.823 169.571 175.901ZM173.923 175.901C173.457 175.745 172.99 175.668 172.524 175.668V175.279C172.99 175.357 173.457 175.434 173.923 175.512V175.901Z" fill="#FEECD6"/>
<path d="M171.825 194.175C171.125 194.175 170.504 194.098 169.804 193.942V193.787C170.737 193.942 171.669 194.02 172.524 193.942V194.098C172.369 194.175 172.058 194.175 171.825 194.175ZM172.835 194.098V193.942C173.768 193.864 174.622 193.631 175.477 193.32L175.555 193.476C174.7 193.787 173.768 194.02 172.835 194.098ZM169.493 193.942C168.561 193.709 167.706 193.398 166.851 192.931L166.929 192.776C167.706 193.242 168.638 193.553 169.493 193.709V193.942ZM175.866 193.32L175.788 193.165C176.643 192.776 177.42 192.309 178.119 191.765L178.197 191.843C177.498 192.542 176.721 193.009 175.866 193.32ZM166.696 192.776C165.918 192.309 165.141 191.765 164.52 191.065L164.597 190.987C165.219 191.609 165.996 192.231 166.773 192.698L166.696 192.776ZM178.43 191.765L178.353 191.687C179.052 191.065 179.674 190.365 180.218 189.665L180.373 189.743C179.829 190.443 179.207 191.143 178.43 191.765ZM164.286 190.909C163.665 190.21 163.121 189.432 162.654 188.654L162.81 188.576C163.198 189.432 163.742 190.132 164.364 190.832L164.286 190.909ZM180.451 189.432L180.295 189.354C180.762 188.576 181.15 187.721 181.461 186.866L181.617 186.943C181.383 187.799 180.995 188.654 180.451 189.432ZM162.499 188.343C162.11 187.488 161.8 186.632 161.644 185.699H161.8C161.955 186.632 162.266 187.488 162.654 188.343H162.499ZM181.772 186.632H181.617C181.85 185.777 182.005 184.844 182.005 183.911H182.161C182.083 184.766 182.005 185.699 181.772 186.632ZM161.644 185.388C161.566 184.844 161.566 184.377 161.566 183.833C161.566 183.444 161.566 182.977 161.644 182.589H161.8C161.722 182.977 161.722 183.444 161.722 183.833C161.722 184.377 161.722 184.844 161.8 185.388H161.644ZM182.005 183.6C182.005 182.666 181.85 181.733 181.539 180.878L181.694 180.8C182.005 181.656 182.161 182.589 182.161 183.522L182.005 183.6ZM161.722 182.355H161.566C161.722 181.422 161.955 180.489 162.344 179.634L162.499 179.711C162.188 180.567 161.877 181.422 161.722 182.355ZM181.461 180.567C181.15 179.711 180.762 178.856 180.218 178.078L180.373 178.001C180.917 178.778 181.306 179.634 181.617 180.489L181.461 180.567ZM162.654 179.478L162.499 179.4C162.888 178.545 163.432 177.767 164.053 177.067L164.131 177.145C163.587 177.845 163.043 178.623 162.654 179.478ZM180.062 177.923C179.518 177.145 178.897 176.523 178.119 175.901L178.197 175.823C178.897 176.368 179.596 177.067 180.14 177.845L180.062 177.923ZM164.364 176.99L164.286 176.912C164.908 176.212 165.685 175.59 166.462 175.123L166.54 175.279C165.685 175.668 164.986 176.29 164.364 176.99ZM177.886 175.745C177.109 175.201 176.332 174.735 175.477 174.424L175.555 174.268C176.41 174.579 177.265 175.046 177.964 175.668L177.886 175.745ZM166.696 175.046L166.618 174.89C167.395 174.424 168.328 174.035 169.182 173.801V173.957C168.405 174.268 167.55 174.579 166.696 175.046ZM175.244 174.268C174.389 173.957 173.457 173.801 172.524 173.724V173.568C173.457 173.646 174.389 173.801 175.244 174.112V174.268ZM169.571 173.957V173.801C170.504 173.568 171.436 173.49 172.369 173.568V173.724C171.358 173.646 170.426 173.724 169.571 173.957Z" fill="#FEECD6"/>
<path d="M225.058 79.3188C225.058 82.8181 222.183 85.6954 218.686 85.6954C215.189 85.6954 212.313 82.8181 212.313 79.3188C212.313 75.8194 215.189 72.9422 218.686 72.9422C222.183 73.0199 225.058 75.8194 225.058 79.3188Z" fill="#FEECD6"/>
<path d="M219.075 87.1729V86.8618C219.541 86.8618 220.007 86.7841 220.473 86.6285L220.551 86.9396C220.085 87.0951 219.618 87.1729 219.075 87.1729ZM217.987 87.1729C217.52 87.0951 217.054 87.0174 216.588 86.9396L216.665 86.6285C217.132 86.7841 217.598 86.8618 218.064 86.8618L217.987 87.1729ZM221.639 86.6285L221.561 86.3952C222.028 86.2397 222.416 86.0064 222.805 85.7731L222.96 86.0064C222.494 86.162 222.105 86.3953 221.639 86.6285ZM215.422 86.473C214.956 86.2397 214.567 86.0064 214.179 85.7731L214.334 85.5398C214.723 85.7731 215.111 86.0064 215.577 86.2397L215.422 86.473ZM223.815 85.2288L223.66 84.9955C224.048 84.6844 224.359 84.3734 224.592 83.9846L224.825 84.1401C224.514 84.5289 224.204 84.9177 223.815 85.2288ZM213.324 84.9955C212.935 84.6844 212.624 84.2956 212.391 83.9068L212.624 83.7513C212.857 84.1401 213.168 84.4512 213.557 84.7622L213.324 84.9955ZM225.447 83.2069L225.214 83.0514C225.447 82.6626 225.602 82.196 225.758 81.8072L225.991 81.885C225.913 82.3515 225.68 82.8181 225.447 83.2069ZM211.769 82.9736C211.536 82.5071 211.381 82.1183 211.225 81.6517L211.459 81.5739C211.614 82.0405 211.769 82.4293 212.003 82.8959L211.769 82.9736ZM226.38 80.7963L226.069 80.7185C226.146 80.2519 226.224 79.7853 226.224 79.3188H226.535C226.457 79.8631 226.457 80.3297 226.38 80.7963ZM210.915 80.4852C210.837 80.0964 210.837 79.7076 210.837 79.3188C210.837 79.241 210.837 79.0855 210.837 79.0077H211.148C211.148 79.0855 211.148 79.1632 211.148 79.3188C211.148 79.7076 211.148 80.0186 211.225 80.4075L210.915 80.4852ZM226.146 78.5411C226.069 78.0746 225.991 77.608 225.836 77.1414L226.146 77.0636C226.302 77.5302 226.38 77.9968 226.457 78.4634L226.146 78.5411ZM211.303 77.9968L210.992 77.919C211.07 77.4524 211.225 76.9859 211.381 76.5193L211.614 76.597C211.459 77.0636 211.381 77.5302 211.303 77.9968ZM225.525 76.1305C225.292 75.7417 225.058 75.2751 224.825 74.964L225.058 74.8085C225.369 75.1973 225.602 75.5861 225.758 76.0527L225.525 76.1305ZM212.158 75.5861L211.925 75.4306C212.158 75.0418 212.469 74.653 212.78 74.2641L213.013 74.4197C212.624 74.8085 212.391 75.1973 212.158 75.5861ZM224.048 74.1086C223.737 73.7976 223.349 73.4865 222.96 73.1755L223.116 72.9422C223.504 73.2532 223.893 73.5643 224.204 73.8753L224.048 74.1086ZM213.712 73.7198L213.557 73.4865C213.945 73.1755 214.334 72.8644 214.723 72.6311L214.878 72.8644C214.412 73.0977 214.101 73.4087 213.712 73.7198ZM222.028 72.6311C221.639 72.3978 221.173 72.2423 220.706 72.0868L220.784 71.7757C221.251 71.9312 221.717 72.0868 222.105 72.3201L222.028 72.6311ZM215.811 72.3978L215.733 72.1645C216.199 72.009 216.665 71.8535 217.132 71.7757L217.209 72.0868C216.743 72.0868 216.277 72.1645 215.811 72.3978ZM219.696 71.8535C219.385 71.7757 219.075 71.7757 218.686 71.7757C218.531 71.7757 218.453 71.7757 218.297 71.7757V71.4647C218.453 71.4647 218.608 71.4647 218.686 71.4647C218.997 71.4647 219.385 71.4647 219.696 71.5424V71.8535Z" fill="#FEECD6"/>
<path d="M218.686 88.5726C218.608 88.5726 218.531 88.5726 218.453 88.5726V88.4171C218.919 88.4171 219.385 88.4171 219.852 88.3393V88.4949C219.463 88.5726 219.075 88.5726 218.686 88.5726ZM215.5 88.0283C215.033 87.8727 214.645 87.6395 214.179 87.4062L214.256 87.2506C214.645 87.4839 215.111 87.6395 215.5 87.8727V88.0283ZM222.727 87.6395L222.649 87.4839C223.038 87.2506 223.504 87.0174 223.893 86.7841L223.97 86.9396C223.582 87.1729 223.116 87.4062 222.727 87.6395ZM211.847 85.5398C211.536 85.151 211.225 84.84 210.992 84.3734L211.148 84.2956C211.381 84.6845 211.692 85.0733 212.003 85.3843L211.847 85.5398ZM226.069 84.84L225.991 84.7622C226.302 84.3734 226.535 83.9846 226.768 83.5958L226.924 83.6735C226.613 84.0623 226.38 84.4512 226.069 84.84ZM209.749 81.6517C209.593 81.1851 209.516 80.7185 209.516 80.2519H209.671C209.749 80.7185 209.827 81.1851 209.904 81.6517H209.749ZM227.778 80.7963H227.623C227.701 80.3297 227.701 79.8631 227.701 79.3965C227.701 79.3188 227.701 79.241 227.701 79.0855H227.856C227.856 79.1632 227.856 79.241 227.856 79.3965C227.934 79.8631 227.856 80.3297 227.778 80.7963ZM209.827 77.2969H209.671C209.749 76.8303 209.904 76.3638 210.06 75.8972L210.215 75.9749C210.06 76.4415 209.904 76.8303 209.827 77.2969ZM227.157 76.2082C227.001 75.7416 226.768 75.3528 226.535 74.964L226.69 74.8863C226.924 75.2751 227.157 75.7416 227.312 76.2082H227.157ZM211.769 73.4865L211.692 73.4088C212.003 73.0199 212.313 72.7089 212.702 72.3978L212.78 72.4756C212.391 72.7866 212.08 73.0977 211.769 73.4865ZM224.748 72.6311C224.437 72.3201 224.048 72.009 223.66 71.7757L223.737 71.6202C224.126 71.8535 224.514 72.1645 224.903 72.4756L224.748 72.6311ZM215.267 70.9203L215.189 70.7648C215.655 70.6093 216.121 70.4537 216.588 70.2982V70.4537C216.199 70.6093 215.733 70.7648 215.267 70.9203ZM220.94 70.5315C220.473 70.4537 220.007 70.2982 219.541 70.2982V70.1427C220.007 70.2204 220.473 70.2982 220.94 70.376V70.5315Z" fill="#FEECD6"/>
<path d="M119.523 35.7712C119.523 39.2706 116.648 42.1478 113.151 42.1478C109.654 42.1478 106.778 39.2706 106.778 35.7712C106.778 32.2719 109.654 29.3946 113.151 29.3946C116.648 29.3946 119.523 32.2719 119.523 35.7712Z" fill="#FEECD6"/>
<path d="M113.151 47.1247C112.685 47.1247 112.218 47.1247 111.83 47.0469L111.908 46.6581C112.84 46.7359 113.773 46.7359 114.705 46.6581L114.783 47.0469C114.239 47.0469 113.695 47.1247 113.151 47.1247ZM110.664 46.8136C109.732 46.5803 108.799 46.2693 107.944 45.8027L108.177 45.4139C109.032 45.8805 109.887 46.1915 110.82 46.347L110.664 46.8136ZM115.871 46.8136L115.793 46.4248C116.726 46.1915 117.581 45.8805 118.358 45.4139L118.591 45.8027C117.658 46.1915 116.803 46.5803 115.871 46.8136ZM107.012 45.2584C106.234 44.714 105.457 44.0919 104.836 43.392L105.146 43.081C105.768 43.7809 106.468 44.403 107.245 44.8695L107.012 45.2584ZM119.523 45.1028L119.29 44.714C120.067 44.1697 120.767 43.5476 121.389 42.8477L121.699 43.1587C121.078 43.9364 120.301 44.5585 119.523 45.1028ZM104.058 42.4589C103.514 41.6812 103.048 40.8258 102.66 39.9704L103.048 39.8149C103.359 40.6703 103.825 41.5257 104.369 42.2256L104.058 42.4589ZM122.399 42.3033L122.088 42.0701C122.632 41.2924 123.098 40.5148 123.409 39.5816L123.798 39.7371C123.409 40.6703 122.943 41.5257 122.399 42.3033ZM102.271 38.8818C102.038 37.9486 101.882 37.0154 101.882 36.0045H102.271C102.271 36.9377 102.426 37.8708 102.66 38.7262L102.271 38.8818ZM124.109 38.6485L123.72 38.5707C123.953 37.6375 124.109 36.7821 124.109 35.849C124.109 35.1491 124.031 34.4492 123.953 33.8271L124.342 33.7494C124.497 34.4492 124.575 35.1491 124.575 35.849C124.497 36.7821 124.342 37.7153 124.109 38.6485ZM102.349 34.8381H101.96C102.038 33.9049 102.271 32.894 102.582 32.0386L102.97 32.1941C102.582 33.0495 102.426 33.9049 102.349 34.8381ZM123.565 32.6607C123.331 31.8053 122.943 30.9499 122.399 30.0945L122.787 29.8612C123.254 30.7166 123.72 31.572 123.953 32.5051L123.565 32.6607ZM103.359 31.1054L102.97 30.9499C103.359 30.0945 103.903 29.2391 104.525 28.5392L104.836 28.8503C104.292 29.4724 103.748 30.25 103.359 31.1054ZM121.855 29.2391C121.311 28.4614 120.611 27.8393 119.912 27.295L120.145 26.9839C120.922 27.606 121.622 28.3059 122.166 29.0058L121.855 29.2391ZM105.613 27.9949L105.302 27.6838C106.001 26.9839 106.778 26.4396 107.633 25.973L107.866 26.3618C107.012 26.7506 106.312 27.295 105.613 27.9949ZM118.979 26.5951C118.202 26.1285 117.347 25.7397 116.493 25.4287L116.648 25.0398C117.581 25.3509 118.435 25.7397 119.29 26.2841L118.979 26.5951ZM108.799 25.8175L108.644 25.4287C109.498 25.0398 110.431 24.8066 111.441 24.651L111.519 25.0398C110.586 25.1954 109.654 25.4287 108.799 25.8175ZM115.405 25.1176C114.472 24.9621 113.539 24.8843 112.607 24.8843V24.4955C113.539 24.4177 114.55 24.4955 115.482 24.7288L115.405 25.1176Z" fill="#FEECD6"/>
<path d="M113.539 45.1806V44.8695C114.006 44.8695 114.472 44.7918 114.938 44.714L115.016 45.0251C114.472 45.1028 114.006 45.1806 113.539 45.1806ZM112.374 45.1806C111.908 45.1028 111.441 45.1028 110.975 44.9473L111.053 44.6362C111.519 44.714 111.985 44.7918 112.452 44.8695L112.374 45.1806ZM116.104 44.714L116.026 44.4807C116.493 44.3252 116.881 44.1697 117.347 43.9364L117.503 44.1697C116.959 44.403 116.57 44.6362 116.104 44.714ZM109.887 44.6362C109.421 44.4807 109.032 44.2474 108.566 44.0141L108.721 43.7808C109.11 44.0141 109.576 44.1697 109.965 44.403L109.887 44.6362ZM118.435 43.6253L118.28 43.392C118.669 43.1587 119.057 42.8477 119.368 42.5366L119.523 42.7699C119.213 43.081 118.824 43.3143 118.435 43.6253ZM107.633 43.392C107.245 43.081 106.856 42.7699 106.545 42.4589L106.778 42.2256C107.089 42.5366 107.478 42.8477 107.866 43.1587L107.633 43.392ZM120.378 41.9145L120.145 41.759C120.456 41.3702 120.689 41.0591 121 40.5925L121.233 40.7481C120.922 41.1369 120.689 41.5257 120.378 41.9145ZM105.768 41.6035C105.457 41.2147 105.224 40.8258 104.991 40.437L105.224 40.2815C105.457 40.6703 105.69 41.0591 106.001 41.4479L105.768 41.6035ZM121.699 39.7371L121.466 39.5816C121.622 39.1928 121.855 38.7262 121.933 38.2596L122.243 38.3374C122.088 38.804 121.933 39.2706 121.699 39.7371ZM104.447 39.3483C104.292 38.8817 104.136 38.4152 103.981 37.9486L104.292 37.8708C104.369 38.3374 104.525 38.804 104.68 39.1928L104.447 39.3483ZM122.477 37.2487L122.166 37.171C122.243 36.7044 122.243 36.2378 122.243 35.7712H122.554C122.554 36.2378 122.554 36.7821 122.477 37.2487ZM103.825 36.8599C103.825 36.5488 103.748 36.16 103.748 35.849C103.748 35.6934 103.748 35.6157 103.748 35.4602H104.058C104.058 35.6157 104.058 35.6934 104.058 35.849C104.058 36.16 104.058 36.5488 104.136 36.8599H103.825ZM122.243 35.1491C122.243 34.6825 122.166 34.2159 122.01 33.7494L122.321 33.6716C122.399 34.1382 122.477 34.6048 122.554 35.0713L122.243 35.1491ZM104.136 34.2937L103.825 34.2159C103.903 33.7494 103.981 33.2828 104.136 32.8162L104.369 32.894C104.369 33.3605 104.214 33.8271 104.136 34.2937ZM121.777 32.7384C121.622 32.2719 121.466 31.883 121.233 31.4942L121.466 31.3387C121.699 31.7275 121.855 32.1941 122.088 32.6607L121.777 32.7384ZM104.913 31.883L104.68 31.7275C104.913 31.2609 105.146 30.8721 105.38 30.4833L105.613 30.6388C105.38 31.1054 105.146 31.4942 104.913 31.883ZM120.611 30.4833C120.378 30.0945 120.067 29.7834 119.679 29.3946L119.912 29.1613C120.223 29.4724 120.534 29.8612 120.845 30.25L120.611 30.4833ZM106.312 29.7834L106.079 29.6279C106.39 29.2391 106.701 28.928 107.089 28.617L107.245 28.8503C106.934 29.0835 106.623 29.4724 106.312 29.7834ZM118.902 28.6947C118.513 28.3837 118.125 28.1504 117.736 27.9171L117.891 27.6838C118.28 27.9171 118.669 28.2281 119.057 28.4614L118.902 28.6947ZM108.177 28.1504L108.022 27.9171C108.41 27.6838 108.877 27.4505 109.265 27.2172L109.421 27.4505C108.954 27.6838 108.566 27.9171 108.177 28.1504ZM116.726 27.3727C116.259 27.2172 115.871 27.0617 115.405 26.9062L115.482 26.5951C115.949 26.7506 116.415 26.8284 116.881 27.0617L116.726 27.3727ZM110.431 27.0617L110.353 26.8284C110.82 26.6729 111.286 26.5951 111.752 26.5174L111.83 26.8284C111.364 26.8284 110.897 26.9062 110.431 27.0617ZM114.317 26.7506C113.85 26.6729 113.384 26.6729 112.918 26.6729V26.3618C113.384 26.3618 113.85 26.3618 114.317 26.4396V26.7506Z" fill="#FEECD6"/>
<path d="M19.3508 95.4935C22.8703 95.4935 25.7233 92.6386 25.7233 89.1169C25.7233 85.5952 22.8703 82.7403 19.3508 82.7403C15.8314 82.7403 12.9783 85.5952 12.9783 89.1169C12.9783 92.6386 15.8314 95.4935 19.3508 95.4935Z" fill="#FEECD6"/>
<path d="M19.3508 97.3599C18.8068 97.3599 18.2628 97.2821 17.7188 97.2043L17.7966 96.8155C18.7291 96.971 19.6617 97.0488 20.5165 96.8933L20.5942 97.2821C20.2057 97.2821 19.7394 97.3599 19.3508 97.3599ZM23.3142 96.2712L23.0811 95.8824C23.8582 95.4158 24.6353 94.8714 25.1793 94.1716L25.4902 94.4826C24.9462 95.1825 24.1691 95.8046 23.3142 96.2712ZM14.9989 96.0379C14.144 95.4935 13.4446 94.8714 12.8229 94.0938L13.1337 93.8605C13.6777 94.5604 14.3772 95.1825 15.1543 95.7268L14.9989 96.0379ZM27.0445 91.9942L26.6559 91.8387C26.9668 90.9833 27.1222 90.0501 27.1222 89.1169H27.5108C27.5885 90.1279 27.433 91.061 27.0445 91.9942ZM11.5018 91.5276C11.2686 90.75 11.1132 89.8946 11.1132 89.1169C11.1132 88.9614 11.1132 88.8059 11.1132 88.6504H11.5018C11.5018 88.8059 11.5018 88.9614 11.5018 89.0392C11.5018 89.8168 11.6572 90.5944 11.8903 91.3721L11.5018 91.5276ZM26.889 87.1729C26.6559 86.2397 26.2673 85.4621 25.7233 84.6844L26.1119 84.4511C26.6559 85.2288 27.0445 86.1619 27.2776 87.0951L26.889 87.1729ZM12.2012 86.0064L11.8126 85.8509C12.2012 84.9177 12.7452 84.1401 13.4446 83.4402L13.7554 83.7513C13.1337 84.3734 12.5897 85.151 12.2012 86.0064ZM23.8582 82.7403C23.0811 82.196 22.2262 81.8072 21.3714 81.5739L21.4491 81.1851C22.3817 81.4184 23.3142 81.8072 24.0914 82.4293L23.8582 82.7403ZM15.9314 82.1182L15.776 81.7294C16.6309 81.2628 17.5634 81.0295 18.5737 80.9518L18.6514 81.3406C17.6411 81.4184 16.7863 81.7294 15.9314 82.1182Z" fill="#FEECD6"/>
<path d="M19.1954 99.304C18.8845 99.304 18.6514 99.304 18.3406 99.2262V98.9151C18.6514 98.9151 18.8845 98.9929 19.1954 98.9929V99.304ZM20.672 99.2262V98.9151C20.9828 98.9151 21.216 98.8374 21.5268 98.7596L21.6045 99.0707C21.216 99.1484 20.9828 99.1484 20.672 99.2262ZM16.9417 98.9929C16.6309 98.9151 16.3977 98.8374 16.0869 98.7596L16.1646 98.5263C16.3977 98.6041 16.7086 98.6818 16.9417 98.7596V98.9929ZM22.9256 98.6818L22.8479 98.4486C23.0811 98.3708 23.3919 98.2153 23.6251 98.1375L23.7805 98.3708C23.3919 98.4486 23.1588 98.5263 22.9256 98.6818ZM14.7657 98.2153C14.5326 98.0597 14.2217 97.982 13.9886 97.8264L14.144 97.5932C14.3772 97.7487 14.6103 97.9042 14.8434 97.982L14.7657 98.2153ZM24.9462 97.5932L24.7908 97.3599C25.0239 97.2043 25.2571 97.0488 25.4902 96.8933L25.6456 97.1266C25.4125 97.2821 25.1793 97.4376 24.9462 97.5932ZM12.9006 96.9711C12.6675 96.8155 12.4343 96.5822 12.2789 96.4267L12.512 96.1934C12.7452 96.3489 12.9006 96.5822 13.1337 96.7378L12.9006 96.9711ZM26.7336 96.1934L26.5005 95.9601C26.6559 95.7268 26.889 95.5713 27.0445 95.338L27.2776 95.4935C27.1222 95.7268 26.889 95.9601 26.7336 96.1934ZM11.2686 95.2602C11.1132 95.027 10.9578 94.7937 10.8023 94.5604L11.0355 94.4049C11.1909 94.6381 11.3463 94.8714 11.5018 95.1047L11.2686 95.2602ZM28.1325 94.3271L27.8993 94.1716C28.0547 93.9383 28.2102 93.705 28.2879 93.3939L28.521 93.5495C28.3656 93.8605 28.2879 94.0938 28.1325 94.3271ZM10.1029 93.3162C9.94749 93.0829 9.86977 92.7718 9.79206 92.5385L10.0252 92.4608C10.1029 92.6941 10.2583 93.0051 10.3361 93.2384L10.1029 93.3162ZM29.065 92.2275L28.8319 92.1497C28.9096 91.9164 28.9873 91.6054 29.065 91.3721L29.3759 91.4498C29.2204 91.6831 29.1427 91.9942 29.065 92.2275ZM9.40349 91.1388C9.32578 90.8277 9.32578 90.5944 9.24806 90.2834H9.55892C9.55892 90.5944 9.63663 90.8277 9.71435 91.1388H9.40349ZM29.5313 89.9723H29.2204C29.2204 89.6613 29.2204 89.428 29.2204 89.1169H29.5313C29.5313 89.428 29.5313 89.6613 29.5313 89.9723ZM9.4812 88.8836H9.17035C9.17035 88.5726 9.17035 88.3393 9.24806 88.0282H9.55892C9.4812 88.2615 9.4812 88.5726 9.4812 88.8836ZM29.2204 88.2615C29.2204 87.9505 29.1427 87.7172 29.1427 87.4061L29.4536 87.3284C29.5313 87.6394 29.5313 87.8727 29.5313 88.1838L29.2204 88.2615ZM9.79206 86.6285L9.4812 86.5507C9.55892 86.2397 9.63663 86.0064 9.71435 85.6953L9.94749 85.7731C9.94749 86.0842 9.86977 86.3952 9.79206 86.6285ZM28.7542 86.0842C28.6765 85.8509 28.5987 85.5398 28.4433 85.3065L28.6765 85.2288C28.7542 85.4621 28.9096 85.7731 28.9873 86.0064L28.7542 86.0842ZM10.5692 84.5289L10.3361 84.3734C10.4915 84.1401 10.6469 83.829 10.8023 83.5957L11.0355 83.7513C10.88 84.0623 10.7246 84.2956 10.5692 84.5289ZM27.8216 83.9846C27.6662 83.7513 27.5107 83.518 27.3553 83.2847L27.5885 83.1292C27.7439 83.3624 27.8993 83.5957 28.0547 83.829L27.8216 83.9846ZM11.8126 82.6626L11.5795 82.507C11.7349 82.2738 11.968 82.0405 12.2012 81.8849L12.4343 82.1182C12.2012 82.2738 12.0458 82.507 11.8126 82.6626ZM26.5005 82.2738C26.2673 82.0405 26.1119 81.8849 25.8788 81.7294L26.0342 81.4961C26.2673 81.6516 26.4228 81.8849 26.6559 82.1182L26.5005 82.2738ZM13.4446 81.1851L13.2892 80.9518C13.5223 80.7962 13.7555 80.6407 13.9886 80.4852L14.144 80.7185C13.9109 80.874 13.6777 81.0295 13.4446 81.1851ZM24.7908 80.7962C24.5576 80.6407 24.3245 80.4852 24.0914 80.3297L24.2468 80.0964C24.4799 80.2519 24.7131 80.4074 25.0239 80.563L24.7908 80.7962ZM15.3874 80.0186L15.3097 79.7853C15.5429 79.7076 15.8537 79.552 16.0869 79.4743L16.1646 79.7076C15.9314 79.8631 15.6206 79.9408 15.3874 80.0186ZM22.7702 79.7853C22.5371 79.7076 22.2262 79.6298 21.9931 79.552L22.0708 79.241C22.3817 79.3187 22.6148 79.3965 22.9256 79.4743L22.7702 79.7853ZM17.5634 79.3965L17.4857 79.0854C17.7966 79.0077 18.0297 79.0077 18.3406 78.9299V79.241C18.1074 79.3187 17.7966 79.3187 17.5634 79.3965ZM20.5942 79.3187C20.2834 79.3187 20.0502 79.241 19.7394 79.241V78.9299C20.0502 78.9299 20.2834 78.9299 20.5942 79.0077V79.3187Z" fill="#FEECD6"/>
<path d="M62.1708 21.2294C62.1708 24.7288 59.2954 27.606 55.7983 27.606C52.3012 27.606 49.4258 24.7288 49.4258 21.2294C49.4258 17.7301 52.3012 14.8528 55.7983 14.8528C59.3732 14.8528 62.1708 17.7301 62.1708 21.2294Z" fill="#FEECD6"/>
<path d="M55.7983 29.7834C55.7206 29.7834 55.7206 29.7834 55.6429 29.7834V29.4724C56.1092 29.4724 56.5755 29.4724 57.0417 29.3946L57.1195 29.7057C56.7309 29.7834 56.2646 29.7834 55.7983 29.7834ZM55.4098 29.7834C54.9435 29.7834 54.4772 29.7057 54.0109 29.5501L54.0886 29.2391C54.5549 29.3168 55.0212 29.3946 55.4875 29.3946L55.4098 29.7834ZM57.4303 29.6279L57.3526 29.3168C57.8189 29.2391 58.2852 29.0835 58.6737 28.928L58.7514 29.1613C58.3629 29.3946 57.8966 29.5501 57.4303 29.6279ZM53.7001 29.5501C53.2338 29.3946 52.7675 29.2391 52.3789 29.0835L52.5344 28.8503C52.9229 29.0058 53.3892 29.1613 53.8555 29.3168L53.7001 29.5501ZM59.0623 29.1613L58.9846 28.928C59.4509 28.7725 59.8394 28.5392 60.228 28.3059L60.3834 28.5392C59.9171 28.7725 59.5286 29.0058 59.0623 29.1613ZM52.0681 28.928C51.6018 28.6947 51.2132 28.4614 50.8247 28.1504L50.9801 27.9171C51.3687 28.2282 51.7572 28.4614 52.1458 28.617L52.0681 28.928ZM60.6166 28.3837L60.4611 28.0726C60.8497 27.8393 61.2383 27.5283 61.5491 27.2172L61.7823 27.4505C61.3937 27.7616 61.0051 28.0726 60.6166 28.3837ZM50.5915 27.9949C50.2029 27.6838 49.8921 27.3727 49.5035 26.9839L49.7367 26.8284C50.0475 27.1395 50.3584 27.5283 50.747 27.7616L50.5915 27.9949ZM61.9377 27.2172L61.7046 27.0617C62.0154 26.7506 62.3263 26.3618 62.5594 25.973L62.7926 26.1285C62.5594 26.5174 62.2486 26.9062 61.9377 27.2172ZM49.3481 26.7506C49.0373 26.3618 48.7264 25.973 48.4933 25.5842L48.7264 25.4287C48.9595 25.8175 49.2704 26.2063 49.5035 26.5951L49.3481 26.7506ZM63.0257 25.8952L62.7926 25.7397C63.0257 25.3509 63.2588 24.9621 63.4143 24.4955L63.6474 24.5733C63.492 25.0398 63.2588 25.5064 63.0257 25.8952ZM48.3378 25.3509C48.1047 24.9621 47.8715 24.4955 47.7161 24.0289L47.9493 23.9512C48.1047 24.4177 48.2601 24.8066 48.4933 25.1954L48.3378 25.3509ZM63.8028 24.34L63.5697 24.2622C63.7251 23.7956 63.8805 23.4068 63.9583 22.9402L64.2691 23.018C64.1137 23.4068 63.9582 23.8734 63.8028 24.34ZM47.7161 23.7956C47.5607 23.3291 47.483 22.8625 47.4053 22.3959H47.7161C47.7938 22.8625 47.8715 23.3291 48.027 23.7956H47.7161ZM64.2691 22.7069L63.9583 22.6292C64.036 22.1626 64.036 21.696 64.036 21.2294H64.3468C64.3468 21.696 64.3468 22.2404 64.2691 22.7069ZM47.3276 22.0848C47.3276 21.7738 47.2498 21.5405 47.2498 21.2294C47.2498 20.9961 47.2498 20.8406 47.2498 20.6073H47.5607C47.5607 20.8406 47.5607 20.9961 47.5607 21.2294C47.5607 21.4627 47.5607 21.7738 47.5607 22.0071L47.3276 22.0848ZM64.1137 21.0739C64.1137 20.6073 64.036 20.1407 63.9583 19.6742L64.2691 19.5964C64.3468 20.063 64.4245 20.5296 64.4245 20.9961L64.1137 21.0739ZM47.6384 20.374H47.3276C47.4053 19.9075 47.483 19.4409 47.5607 18.9743L47.8715 19.0521C47.7938 19.4409 47.7161 19.9075 47.6384 20.374ZM63.8805 19.3631C63.8028 18.8965 63.6474 18.4299 63.4143 18.0411L63.6474 17.9634C63.8028 18.4299 63.9583 18.8965 64.1137 19.3631H63.8805ZM47.9493 18.741L47.7161 18.6632C47.8715 18.1967 48.027 17.7301 48.2601 17.3413L48.4933 17.4968C48.2601 17.8856 48.1047 18.2744 47.9493 18.741ZM63.3365 17.8078C63.1811 17.419 62.948 16.9524 62.6371 16.5636L62.8703 16.4081C63.1034 16.7969 63.4143 17.2635 63.5697 17.6523L63.3365 17.8078ZM48.6487 17.1857L48.4155 17.0302C48.6487 16.6414 48.9595 16.1748 49.1927 15.8638L49.4258 16.0193C49.115 16.4081 48.8818 16.7969 48.6487 17.1857ZM62.4817 16.3303C62.1708 15.9415 61.86 15.6305 61.5491 15.3194L61.7823 15.0861C62.0931 15.3972 62.4817 15.786 62.7148 16.1748L62.4817 16.3303ZM49.5812 15.8638L49.4258 15.6305C49.7367 15.2416 50.1252 14.9306 50.4361 14.6195L50.5915 14.8528C50.2807 15.1639 49.8921 15.4749 49.5812 15.8638ZM61.3937 15.0861C61.0829 14.7751 60.6943 14.464 60.3057 14.2307L60.4611 13.9974C60.8497 14.2307 61.2383 14.5418 61.6269 14.8528L61.3937 15.0861ZM50.8247 14.6973L50.6692 14.464C51.0578 14.153 51.4464 13.9197 51.9127 13.6864L52.0681 13.9197C51.6018 14.153 51.2132 14.3862 50.8247 14.6973ZM59.9949 14.153C59.6063 13.9197 59.14 13.6864 58.7514 13.5308L58.8292 13.2976C59.2954 13.4531 59.684 13.6864 60.1503 13.9197L59.9949 14.153ZM52.2235 13.8419L52.0681 13.6086C52.5344 13.3753 52.9229 13.2198 53.3892 13.0643L53.4669 13.3753C53.0784 13.4531 52.6898 13.6086 52.2235 13.8419ZM58.5183 13.4531C58.052 13.2976 57.6635 13.2198 57.1972 13.142L57.2749 12.831C57.7412 12.9087 58.2075 12.9865 58.6737 13.142L58.5183 13.4531ZM53.8555 13.2198L53.7778 12.9087C54.2441 12.7532 54.7103 12.6755 55.1766 12.6755V12.9865C54.7103 13.0643 54.2441 13.142 53.8555 13.2198ZM56.8863 13.0643C56.42 12.9865 55.9538 12.9865 55.4875 12.9865V12.6755C55.9538 12.6755 56.42 12.6755 56.964 12.7532L56.8863 13.0643Z" fill="#FEECD6"/>
<path d="M55.7983 31.883C55.5652 31.883 55.4098 31.883 55.1766 31.883V31.572C55.5652 31.572 55.9538 31.572 56.2646 31.572V31.883C56.1869 31.883 56.0315 31.883 55.7983 31.883ZM59.2177 31.3387L59.14 31.1054C59.5286 30.9499 59.8394 30.8721 60.1503 30.7166L60.3057 30.9499C59.9171 31.0276 59.5286 31.1832 59.2177 31.3387ZM52.3789 31.2609C51.9904 31.1054 51.6795 31.0276 51.2909 30.7943L51.4464 30.5611C51.7572 30.7166 52.1458 30.8721 52.4566 30.9499L52.3789 31.2609ZM62.6371 29.3168L62.4817 29.1613C62.7925 28.928 63.0257 28.6947 63.2588 28.3837L63.492 28.617C63.2588 28.8503 62.948 29.0835 62.6371 29.3168ZM48.9595 29.3168C48.6487 29.0835 48.4155 28.7725 48.1047 28.5392L48.3378 28.3837C48.571 28.617 48.8818 28.928 49.115 29.1613L48.9595 29.3168ZM65.2017 26.2063L64.9685 26.0508C65.124 25.7397 65.2794 25.3509 65.4348 25.0398L65.668 25.1176C65.5125 25.5064 65.3571 25.8952 65.2017 26.2063ZM46.4727 26.1285C46.3173 25.8175 46.1619 25.4287 46.0064 25.1176L46.2396 25.0398C46.395 25.3509 46.5504 25.7397 46.7058 26.0508L46.4727 26.1285ZM66.3674 22.3959H66.0565C66.0565 22.0071 66.1342 21.6183 66.1342 21.3072H66.4451C66.4451 21.6183 66.4451 22.0071 66.3674 22.3959ZM45.307 22.3181C45.307 21.9293 45.2293 21.6183 45.2293 21.2294V21.1517H45.5401V21.2294C45.5401 21.5405 45.5401 21.9293 45.6179 22.2404L45.307 22.3181ZM66.1342 20.2963C66.1342 19.9075 66.0565 19.5186 65.9788 19.2076L66.2897 19.1298C66.3674 19.5186 66.4451 19.9075 66.4451 20.2963H66.1342ZM45.9287 18.4299L45.6179 18.3522C45.6956 17.9634 45.851 17.6523 46.0064 17.2635L46.2396 17.3413C46.1618 17.6523 46.0064 18.0411 45.9287 18.4299ZM65.0462 16.5636C64.8908 16.2526 64.6577 15.9415 64.5023 15.6305L64.7354 15.4749C64.9685 15.786 65.124 16.097 65.2794 16.4859L65.0462 16.5636ZM47.7161 14.9306L47.483 14.7751C47.7161 14.464 47.9493 14.153 48.2601 13.9197L48.4933 14.153C48.1824 14.3862 47.9493 14.6195 47.7161 14.9306ZM62.6371 13.4531C62.3263 13.2198 62.0931 12.9865 61.7823 12.7532L61.9377 12.5199C62.2486 12.7532 62.5594 12.9865 62.8703 13.2198L62.6371 13.4531ZM50.5915 12.3644L50.4361 12.1311C50.7469 11.9756 51.1355 11.7423 51.4464 11.5868L51.5241 11.8201C51.2909 11.9756 50.9024 12.1311 50.5915 12.3644ZM59.2954 11.509C58.9069 11.3535 58.596 11.2757 58.2074 11.1979L58.2852 10.8869C58.6737 10.9647 59.0623 11.1202 59.3731 11.1979L59.2954 11.509ZM54.3218 11.0424L54.2441 10.7314C54.6326 10.6536 55.0212 10.6536 55.4098 10.6536V10.9647C55.0212 10.9647 54.6326 10.9647 54.3218 11.0424Z" fill="#FEECD6"/>
<path d="M139.807 86.8618C139.807 96.5045 132.035 104.281 122.399 104.281C112.762 104.281 104.991 96.5045 104.991 86.8618C104.991 77.2192 112.762 69.4428 122.399 69.4428C132.035 69.4428 139.807 77.2192 139.807 86.8618Z" fill="#FEECD6"/>
<path d="M122.399 108.014V107.314C122.943 107.314 123.564 107.314 124.108 107.236L124.186 107.936C123.564 108.014 123.02 108.014 122.399 108.014ZM120.689 107.936C120.145 107.858 119.523 107.78 118.979 107.702L119.057 107.003C119.601 107.08 120.145 107.158 120.767 107.236L120.689 107.936ZM125.896 107.78L125.818 107.08C126.362 107.003 126.906 106.847 127.45 106.769L127.606 107.469C127.062 107.547 126.518 107.625 125.896 107.78ZM117.27 107.391C116.726 107.236 116.104 107.08 115.56 106.925L115.793 106.225C116.337 106.38 116.881 106.536 117.425 106.692L117.27 107.391ZM129.315 106.925L129.082 106.225C129.626 106.069 130.17 105.836 130.636 105.603L130.947 106.225C130.403 106.458 129.859 106.692 129.315 106.925ZM113.928 106.225C113.384 105.992 112.84 105.758 112.374 105.447L112.685 104.825C113.151 105.058 113.695 105.37 114.239 105.603L113.928 106.225ZM132.502 105.447L132.191 104.825C132.657 104.592 133.201 104.281 133.667 103.97L134.056 104.592C133.512 104.903 132.968 105.214 132.502 105.447ZM110.819 104.592C110.353 104.281 109.887 103.97 109.421 103.581L109.887 103.037C110.353 103.348 110.819 103.737 111.286 104.048L110.819 104.592ZM135.377 103.581L134.911 103.037C135.377 102.726 135.766 102.337 136.232 101.948L136.698 102.492C136.309 102.803 135.843 103.192 135.377 103.581ZM108.099 102.415C107.711 102.026 107.245 101.637 106.856 101.17L107.4 100.704C107.789 101.093 108.177 101.481 108.566 101.87L108.099 102.415ZM138.019 101.17L137.475 100.704C137.864 100.315 138.252 99.8483 138.563 99.3818L139.107 99.8483C138.719 100.315 138.408 100.781 138.019 101.17ZM105.69 99.8483C105.302 99.3818 104.991 98.9152 104.68 98.4486L105.302 98.0598C105.613 98.5264 105.923 98.9929 106.312 99.4595L105.69 99.8483ZM140.117 98.4486L139.496 98.0598C139.807 97.5932 140.117 97.1266 140.351 96.5823L140.972 96.8933C140.739 97.4377 140.428 97.982 140.117 98.4486ZM103.825 96.9711C103.514 96.4268 103.281 95.9602 103.048 95.4158L103.67 95.1048C103.903 95.6491 104.136 96.1157 104.447 96.66L103.825 96.9711ZM141.827 95.3381L141.205 95.027C141.439 94.4827 141.672 94.0161 141.827 93.4717L142.527 93.705C142.216 94.2494 142.06 94.8715 141.827 95.3381ZM102.426 93.7828C102.271 93.2384 102.038 92.6941 101.96 92.072L102.66 91.9165C102.815 92.4608 102.97 93.0051 103.126 93.5495L102.426 93.7828ZM142.915 92.072L142.216 91.9165C142.371 91.3721 142.449 90.8278 142.527 90.2834L143.226 90.3612C143.226 90.9055 143.071 91.5276 142.915 92.072ZM101.572 90.3612C101.494 89.8168 101.416 89.1947 101.338 88.6504L102.038 88.5726C102.116 89.117 102.193 89.6613 102.271 90.2834L101.572 90.3612ZM143.537 88.5726L142.837 88.4949C142.915 87.9505 142.915 87.4062 142.915 86.7841V86.7063H143.615V86.7841C143.537 87.4062 143.537 88.0283 143.537 88.5726ZM101.96 86.8618H101.261C101.261 86.3175 101.261 85.6954 101.338 85.151L102.038 85.2288C101.96 85.7731 101.96 86.3175 101.96 86.8618ZM142.76 85.151C142.682 84.6067 142.604 84.0623 142.527 83.4402L143.226 83.2847C143.304 83.8291 143.381 84.4512 143.459 84.9955L142.76 85.151ZM102.271 83.518L101.572 83.4402C101.649 82.8959 101.805 82.2738 101.96 81.7294L102.66 81.885C102.426 82.4293 102.349 82.9737 102.271 83.518ZM142.216 81.8072C142.06 81.2629 141.905 80.7185 141.749 80.1742L142.449 79.9409C142.604 80.4852 142.837 81.0296 142.915 81.6517L142.216 81.8072ZM103.048 80.2519L102.349 80.0186C102.504 79.4743 102.737 78.93 102.97 78.3856L103.592 78.6967C103.437 79.1632 103.204 79.7076 103.048 80.2519ZM141.128 78.6189C140.895 78.0746 140.661 77.608 140.351 77.1414L140.972 76.8303C141.283 77.3747 141.516 77.8413 141.749 78.3856L141.128 78.6189ZM104.447 77.1414L103.825 76.8303C104.136 76.286 104.369 75.8194 104.758 75.3528L105.38 75.7417C104.991 76.1305 104.68 76.6748 104.447 77.1414ZM139.496 75.6639C139.185 75.1973 138.874 74.7307 138.485 74.2641L139.029 73.7976C139.418 74.2641 139.729 74.7307 140.04 75.1973L139.496 75.6639ZM106.234 74.3419L105.69 73.8753C106.079 73.4087 106.39 72.9422 106.856 72.5533L107.4 73.0199C106.934 73.4088 106.623 73.8753 106.234 74.3419ZM137.397 72.9422C137.009 72.5533 136.62 72.1645 136.232 71.7757L136.698 71.2314C137.087 71.6202 137.553 72.009 137.941 72.4756L137.397 72.9422ZM108.566 71.8535L108.099 71.3091C108.488 70.9203 108.954 70.5315 109.421 70.1427L109.887 70.687C109.421 71.0758 108.954 71.4647 108.566 71.8535ZM134.911 70.687C134.444 70.376 133.978 69.9872 133.512 69.6761L133.9 69.054C134.367 69.365 134.833 69.6761 135.299 70.0649L134.911 70.687ZM111.208 69.7539L110.819 69.1318C111.286 68.8207 111.83 68.5096 112.296 68.1986L112.607 68.8207C112.141 69.1318 111.674 69.4428 111.208 69.7539ZM132.113 68.8207C131.647 68.5874 131.103 68.2764 130.559 68.0431L130.87 67.421C131.414 67.6542 131.958 67.8875 132.424 68.1986L132.113 68.8207ZM114.161 68.1208L113.85 67.4987C114.394 67.2654 114.938 67.0321 115.482 66.8766L115.715 67.5765C115.249 67.732 114.705 67.8875 114.161 68.1208ZM129.004 67.4987C128.46 67.3432 127.916 67.1877 127.372 67.0321L127.528 66.3323C128.072 66.4878 128.694 66.6433 129.238 66.7989L129.004 67.4987ZM117.347 67.0321L117.192 66.3323C117.736 66.1767 118.358 66.099 118.902 65.9435L119.057 66.6433C118.435 66.7989 117.891 66.8766 117.347 67.0321ZM125.74 66.6433C125.196 66.5656 124.652 66.4878 124.031 66.41L124.108 65.7102C124.652 65.7879 125.274 65.8657 125.818 65.9435L125.74 66.6433ZM120.689 66.4878L120.611 65.7879C121.155 65.7102 121.777 65.7102 122.321 65.7102V66.41C121.777 66.41 121.233 66.41 120.689 66.4878Z" fill="#FEECD6"/>
<path d="M122.399 111.435C121.311 111.435 120.223 111.357 119.213 111.202L119.29 110.813C120.301 110.969 121.388 111.046 122.476 111.046C123.02 111.046 123.487 111.046 124.031 110.969V111.357C123.487 111.435 122.943 111.435 122.399 111.435ZM125.352 111.28L125.274 110.891C126.828 110.735 128.383 110.346 129.859 109.88L130.015 110.269C128.538 110.735 126.906 111.046 125.352 111.28ZM117.814 111.046C116.259 110.735 114.705 110.269 113.229 109.724L113.384 109.335C114.861 109.88 116.337 110.346 117.891 110.657L117.814 111.046ZM131.336 109.802L131.18 109.413C132.657 108.869 134.056 108.169 135.377 107.314L135.61 107.702C134.211 108.48 132.812 109.18 131.336 109.802ZM111.985 109.102C110.586 108.402 109.187 107.625 107.866 106.692L108.099 106.38C109.343 107.314 110.742 108.091 112.141 108.791L111.985 109.102ZM136.776 106.847L136.543 106.536C137.786 105.603 139.029 104.592 140.04 103.425L140.351 103.737C139.263 104.825 138.019 105.914 136.776 106.847ZM106.778 105.836C105.535 104.825 104.447 103.659 103.437 102.492L103.748 102.259C104.758 103.503 105.846 104.592 107.011 105.603L106.778 105.836ZM141.283 102.648L140.972 102.337C141.983 101.17 142.837 99.8483 143.615 98.4486L144.003 98.6819C143.148 100.082 142.293 101.404 141.283 102.648ZM102.582 101.326C101.649 100.004 100.794 98.6819 100.173 97.2044L100.561 97.0489C101.183 98.4486 102.038 99.8483 102.97 101.093L102.582 101.326ZM144.625 97.4377L144.236 97.2821C144.936 95.8824 145.48 94.4049 145.868 92.8496L146.257 92.9274C145.791 94.4827 145.247 96.0379 144.625 97.4377ZM99.551 95.9602C98.9293 94.4827 98.5407 92.9274 98.2299 91.3721L98.6184 91.2944C98.9293 92.8496 99.3178 94.3271 99.9396 95.8046L99.551 95.9602ZM146.49 91.6054L146.101 91.5276C146.412 89.9724 146.568 88.4171 146.568 86.8618V86.7841H146.956V86.8618C146.956 88.4949 146.801 90.0501 146.49 91.6054ZM98.0744 89.9724C97.919 88.9614 97.919 87.8728 97.919 86.8618C97.919 86.3175 97.919 85.7731 97.9967 85.2288H98.3853C98.3853 85.7731 98.3076 86.3175 98.3076 86.8618C98.3076 87.8728 98.3853 88.8837 98.463 89.8946L98.0744 89.9724ZM146.49 85.4621C146.412 83.9068 146.179 82.3515 145.791 80.874L146.179 80.7963C146.568 82.3516 146.801 83.9068 146.879 85.5399L146.49 85.4621ZM98.463 83.8291L98.0744 83.7513C98.3076 82.196 98.6184 80.6407 99.0847 79.0855L99.4733 79.241C99.007 80.7963 98.6184 82.2738 98.463 83.8291ZM145.402 79.4743C144.936 77.9968 144.314 76.5193 143.537 75.1973L143.925 74.964C144.703 76.3638 145.324 77.8413 145.791 79.3188L145.402 79.4743ZM99.9396 77.9968L99.551 77.8413C100.173 76.3638 100.872 74.964 101.727 73.5643L102.116 73.7976C101.261 75.1195 100.561 76.5193 99.9396 77.9968ZM142.837 74.0309C141.983 72.7089 141.05 71.4647 139.962 70.2982L140.273 69.9872C141.361 71.1536 142.371 72.3978 143.226 73.7198L142.837 74.0309ZM102.893 72.7089L102.582 72.4756C103.514 71.1536 104.602 69.9872 105.768 68.8985L106.079 69.2095C104.836 70.2204 103.748 71.4647 102.893 72.7089ZM139.029 69.2873C137.864 68.1986 136.62 67.2654 135.299 66.41L135.532 66.0212C136.854 66.8766 138.175 67.8875 139.263 68.9762L139.029 69.2873ZM107.011 68.2764L106.778 67.9653C108.022 66.9544 109.343 66.0212 110.742 65.3213L110.975 65.7102C109.498 66.41 108.177 67.2654 107.011 68.2764ZM134.134 65.7102C132.735 64.9325 131.336 64.3104 129.859 63.8438L130.015 63.455C131.491 63.9216 132.968 64.5437 134.367 65.3213L134.134 65.7102ZM112.141 65.0103L111.985 64.6215C113.384 63.9216 114.938 63.3773 116.493 62.9884L116.57 63.3773C115.016 63.8438 113.539 64.3882 112.141 65.0103ZM128.538 63.455C127.062 63.0662 125.507 62.8329 123.953 62.7551V62.3663C125.507 62.4441 127.139 62.6774 128.694 63.144L128.538 63.455ZM117.891 63.144L117.814 62.7551C119.368 62.4441 120.922 62.2886 122.476 62.2886H122.554V62.6774H122.476C120.844 62.6774 119.368 62.8329 117.891 63.144Z" fill="#FEECD6"/>
<path d="M224.359 125.044C224.359 126.288 223.349 127.377 222.028 127.377C220.784 127.377 219.696 126.366 219.696 125.044C219.696 123.799 220.706 122.711 222.028 122.711C223.271 122.789 224.359 123.799 224.359 125.044Z" fill="#FEECD6"/>
<path d="M222.028 128.465C221.639 128.465 221.25 128.388 220.94 128.31L221.017 128.076C221.328 128.154 221.639 128.232 222.028 128.232C222.572 128.232 223.193 128.076 223.66 127.765L223.815 127.999C223.271 128.31 222.649 128.465 222.028 128.465ZM220.396 128.076C219.541 127.61 218.919 126.755 218.686 125.744L218.997 125.666C219.23 126.599 219.774 127.299 220.551 127.765L220.396 128.076ZM224.281 127.688L224.126 127.454C224.825 126.832 225.214 125.977 225.214 125.044C225.214 124.966 225.214 124.888 225.214 124.733H225.525C225.525 124.81 225.525 124.966 225.525 125.044C225.447 126.055 225.058 126.988 224.281 127.688ZM218.608 125.199C218.608 125.121 218.608 125.121 218.608 125.044C218.608 124.111 218.997 123.177 219.696 122.555L219.852 122.789C219.23 123.411 218.841 124.188 218.841 125.121C218.841 125.199 218.841 125.199 218.841 125.277L218.608 125.199ZM225.058 124.266C224.825 123.411 224.204 122.633 223.349 122.244L223.504 122.011C224.437 122.478 225.058 123.255 225.369 124.188L225.058 124.266ZM220.318 122.4L220.162 122.166C220.706 121.778 221.406 121.622 222.028 121.622C222.338 121.622 222.649 121.7 222.96 121.778L222.882 122.089C222.572 122.011 222.338 121.933 222.028 121.933C221.406 121.933 220.784 122.089 220.318 122.4Z" fill="#FEECD6"/>
<path d="M222.805 129.476V129.321C223.271 129.243 223.737 129.087 224.204 128.776L224.281 128.932C223.815 129.165 223.349 129.321 222.805 129.476ZM219.852 128.932C219.385 128.699 218.997 128.31 218.686 127.921L218.764 127.843C219.075 128.232 219.463 128.543 219.929 128.776L219.852 128.932ZM226.224 126.599L226.069 126.521C226.224 126.055 226.302 125.588 226.302 125.044H226.457C226.457 125.588 226.38 126.132 226.224 126.599ZM217.598 125.044C217.598 124.499 217.676 124.033 217.831 123.488L217.987 123.566C217.831 124.033 217.753 124.499 217.753 125.044H217.598ZM225.292 122.244C224.981 121.855 224.592 121.544 224.126 121.311L224.204 121.156C224.67 121.389 225.058 121.778 225.369 122.166L225.292 122.244ZM219.852 121.311L219.774 121.156C220.24 120.922 220.706 120.689 221.25 120.611V120.767C220.784 120.922 220.318 121.078 219.852 121.311Z" fill="#FEECD6"/>
<path d="M17.5633 159.571C17.5633 160.815 16.553 161.904 15.2319 161.904C13.9884 161.904 12.9005 160.893 12.9005 159.571C12.9005 158.326 13.9107 157.238 15.2319 157.238C16.553 157.238 17.5633 158.326 17.5633 159.571Z" fill="#FEECD6"/>
<path d="M15.3096 164.159C14.921 164.159 14.5324 164.081 14.1439 164.003L14.2216 163.692C14.6879 163.848 15.1541 163.848 15.6204 163.848V164.159C15.465 164.159 15.3873 164.159 15.3096 164.159ZM16.3976 164.081L16.3198 163.77C16.7861 163.692 17.1747 163.459 17.5633 163.226L17.7187 163.459C17.3301 163.77 16.8638 163.925 16.3976 164.081ZM13.289 163.77C12.8227 163.537 12.4342 163.303 12.1233 162.915L12.3565 162.681C12.6673 162.992 13.0559 163.303 13.4444 163.459L13.289 163.77ZM18.4181 162.992L18.2627 162.759C18.5735 162.448 18.8844 162.059 19.1175 161.67L19.3507 161.826C19.1175 162.215 18.8067 162.603 18.4181 162.992ZM11.5016 162.215C11.1908 161.826 11.0353 161.359 10.8799 160.893L11.1908 160.815C11.3462 161.281 11.5016 161.67 11.8125 162.059L11.5016 162.215ZM19.6615 160.97L19.4284 160.893C19.5838 160.426 19.6615 160.037 19.6615 159.571C19.6615 159.26 19.6615 158.949 19.5838 158.638L19.8947 158.56C19.9724 158.871 19.9724 159.182 19.9724 159.571C19.8947 160.037 19.817 160.504 19.6615 160.97ZM10.7245 160.037C10.7245 159.882 10.7245 159.726 10.7245 159.571C10.7245 159.26 10.7245 158.949 10.8022 158.638L11.113 158.715C11.0353 159.026 11.0353 159.337 11.0353 159.648C11.0353 159.804 11.0353 159.96 11.0353 160.115L10.7245 160.037ZM11.2685 157.86L11.0353 157.782C11.1908 157.316 11.5016 156.927 11.8125 156.538L12.0456 156.693C11.7347 157.082 11.5016 157.471 11.2685 157.86ZM19.273 157.86C19.1175 157.471 18.8844 157.082 18.5735 156.693L18.8067 156.538C19.1175 156.927 19.4284 157.316 19.5838 157.782L19.273 157.86ZM12.5896 156.149L12.4342 155.916C12.8227 155.605 13.2113 155.371 13.6776 155.216L13.7553 155.449C13.3667 155.605 12.9782 155.838 12.5896 156.149ZM17.9518 156.149C17.5633 155.838 17.1747 155.605 16.7861 155.449L16.8638 155.216C17.3301 155.371 17.7187 155.605 18.1073 155.916L17.9518 156.149ZM14.6101 155.294L14.5324 154.983C14.9987 154.905 15.5427 154.905 16.009 154.983L15.9313 155.294C15.5427 155.216 15.0764 155.216 14.6101 155.294Z" fill="#FEECD6"/>
<path d="M15.3096 165.714C15.1541 165.714 14.9987 165.714 14.8433 165.714V165.558C15.3096 165.558 15.7759 165.558 16.2421 165.481V165.636C15.9313 165.636 15.6204 165.714 15.3096 165.714ZM14.5324 165.636C14.0662 165.558 13.5999 165.481 13.1336 165.325L13.2113 165.17C13.6776 165.325 14.1439 165.481 14.6101 165.481L14.5324 165.636ZM16.553 165.558V165.403C17.0193 165.325 17.4855 165.17 17.8741 164.936L17.9518 165.092C17.4855 165.325 17.0193 165.481 16.553 165.558ZM12.9005 165.17C12.4342 165.014 12.0456 164.703 11.657 164.47L11.7347 164.392C12.1233 164.703 12.5119 164.936 12.9782 165.092L12.9005 165.17ZM18.185 164.936L18.1073 164.781C18.4958 164.548 18.8844 164.314 19.273 164.003L19.3507 164.081C18.9621 164.47 18.5735 164.703 18.185 164.936ZM11.4239 164.314C11.0353 164.003 10.7245 163.692 10.4136 163.303L10.4913 163.226C10.8022 163.614 11.113 163.925 11.4239 164.237V164.314ZM19.5838 163.925L19.5061 163.848C19.817 163.537 20.1278 163.148 20.361 162.759L20.5164 162.837C20.2055 163.226 19.8947 163.614 19.5838 163.925ZM10.2582 162.992C10.025 162.603 9.79191 162.137 9.55877 161.748L9.71419 161.67C9.86962 162.137 10.1028 162.526 10.3359 162.915L10.2582 162.992ZM20.5941 162.603L20.4387 162.526C20.6718 162.137 20.8272 161.67 20.9827 161.204H21.1381C21.0604 161.748 20.8272 162.137 20.5941 162.603ZM9.48105 161.515C9.32563 161.048 9.24791 160.582 9.1702 160.115H9.32563C9.40334 160.582 9.48105 161.048 9.63648 161.515H9.48105ZM21.2158 160.97H21.0604C21.1381 160.504 21.2158 160.037 21.2158 159.571C21.2158 159.415 21.2158 159.26 21.2158 159.104H21.3712C21.3712 159.26 21.3712 159.415 21.3712 159.571C21.3712 160.037 21.3712 160.504 21.2158 160.97ZM9.1702 159.804C9.1702 159.726 9.1702 159.648 9.1702 159.571C9.1702 159.182 9.24791 158.793 9.32563 158.404H9.48105C9.40334 158.793 9.40334 159.182 9.40334 159.571C9.40334 159.648 9.40334 159.726 9.40334 159.804H9.1702ZM21.2158 158.793C21.1381 158.326 21.0604 157.86 20.9049 157.471L21.0604 157.393C21.2158 157.86 21.3712 158.326 21.3712 158.793H21.2158ZM9.48105 158.093H9.32563C9.40334 157.627 9.63648 157.16 9.86962 156.771L10.025 156.849C9.79191 157.238 9.63648 157.704 9.48105 158.093ZM20.7495 157.238C20.5941 156.849 20.361 156.382 20.0501 155.994L20.1278 155.916C20.4387 156.305 20.6718 156.693 20.8272 157.16L20.7495 157.238ZM10.1028 156.538L9.94733 156.46C10.1805 156.071 10.4913 155.683 10.8022 155.294L10.8799 155.371C10.6468 155.76 10.3359 156.149 10.1028 156.538ZM19.8947 155.76C19.5838 155.371 19.273 155.06 18.8844 154.827L18.9621 154.749C19.3507 155.06 19.6615 155.371 19.9724 155.76H19.8947ZM11.1908 155.216L11.113 155.138C11.4239 154.827 11.8125 154.516 12.2787 154.283L12.3565 154.438C11.8902 154.672 11.5016 154.905 11.1908 155.216ZM18.6513 154.672C18.2627 154.438 17.8741 154.205 17.4078 154.049L17.4855 153.894C17.9518 154.049 18.3404 154.283 18.729 154.594L18.6513 154.672ZM12.5119 154.283L12.4342 154.127C12.8227 153.894 13.289 153.738 13.7553 153.583V153.738C13.3667 153.894 12.9782 154.049 12.5119 154.283ZM17.1747 153.894C16.7084 153.738 16.2421 153.661 15.7759 153.583V153.427C16.2421 153.505 16.7084 153.583 17.1747 153.738V153.894ZM14.1439 153.738V153.583C14.6101 153.505 15.0764 153.427 15.5427 153.505V153.661C15.0764 153.583 14.6101 153.583 14.1439 153.738Z" fill="#FEECD6"/>
<path d="M200.268 42.6922C200.268 43.9364 199.258 45.0251 197.936 45.0251C196.693 45.0251 195.605 44.0141 195.605 42.6922C195.605 41.4479 196.615 40.3593 197.936 40.3593C199.258 40.3593 200.268 41.4479 200.268 42.6922Z" fill="#FEECD6"/>
<path d="M198.014 46.347V46.036C198.325 46.036 198.558 45.9582 198.791 45.8805L198.869 46.1915C198.636 46.2693 198.325 46.347 198.014 46.347ZM196.615 46.036C196.304 45.9582 196.071 45.8027 195.838 45.5694L195.994 45.3361C196.227 45.4916 196.46 45.6472 196.693 45.7249L196.615 46.036ZM200.19 45.4916L200.035 45.2584C200.268 45.1028 200.423 44.8695 200.579 44.6363L200.812 44.7918C200.656 45.1028 200.423 45.3361 200.19 45.4916ZM194.828 44.5585C194.672 44.3252 194.595 44.0141 194.439 43.7808L194.672 43.7031C194.75 43.9364 194.828 44.2474 194.983 44.4807L194.828 44.5585ZM201.511 43.5476L201.2 43.4698C201.278 43.2365 201.278 42.9255 201.278 42.6922H201.589C201.589 43.0032 201.511 43.3143 201.511 43.5476ZM194.595 42.3033H194.284C194.284 41.9923 194.362 41.6812 194.517 41.4479L194.75 41.5257C194.75 41.759 194.672 42.0701 194.595 42.3033ZM201.278 42.0701C201.2 41.8368 201.123 41.5257 201.045 41.2924L201.278 41.2147C201.434 41.4479 201.511 41.759 201.511 42.0701H201.278ZM195.527 40.3593L195.294 40.126C195.527 39.8927 195.76 39.7371 195.994 39.5816L196.149 39.8149C195.916 39.9704 195.76 40.2037 195.527 40.3593ZM200.19 40.2037C199.957 40.0482 199.802 39.8927 199.491 39.7371L199.646 39.5039C199.879 39.6594 200.112 39.8149 200.346 40.0482L200.19 40.2037ZM197.47 39.3483L197.392 39.0373C197.703 38.9595 198.014 38.9595 198.247 39.0373V39.3483C198.014 39.3483 197.703 39.3483 197.47 39.3483Z" fill="#FEECD6"/>
<path d="M197.936 47.4357C197.159 47.4357 196.382 47.2024 195.683 46.8914L195.76 46.7359C196.538 47.2024 197.548 47.358 198.48 47.2802V47.4357C198.325 47.4357 198.17 47.4357 197.936 47.4357ZM199.024 47.2802V47.1247C199.957 46.8914 200.734 46.4248 201.356 45.7249L201.434 45.8027C200.812 46.5803 200.035 47.0469 199.024 47.2802ZM195.216 46.5803C194.439 46.036 193.818 45.2584 193.507 44.3252L193.662 44.2474C193.973 45.1028 194.595 45.8805 195.294 46.4248L195.216 46.5803ZM201.822 45.4139L201.667 45.3361C202.211 44.5585 202.522 43.6253 202.522 42.6922C202.522 41.9923 202.366 41.2924 202.055 40.6703L202.211 40.5925C202.522 41.2147 202.677 41.9145 202.677 42.6144C202.677 43.7031 202.366 44.6363 201.822 45.4139ZM193.351 43.7808C193.274 43.4698 193.196 43.081 193.196 42.6922C193.196 42.0701 193.274 41.4479 193.507 40.9036L193.662 40.9814C193.429 41.5257 193.351 42.1478 193.351 42.6922C193.351 43.0032 193.351 43.392 193.429 43.7031L193.351 43.7808ZM193.895 40.437L193.74 40.3593C194.206 39.5039 194.906 38.804 195.76 38.4152L195.838 38.5707C195.061 38.9595 194.362 39.6594 193.895 40.437ZM201.822 40.2037C201.278 39.4261 200.579 38.804 199.724 38.4152L199.802 38.2596C200.734 38.6485 201.434 39.2706 201.978 40.0482L201.822 40.2037ZM196.46 38.3374L196.382 38.1819C197.315 37.8708 198.325 37.8708 199.18 38.1041V38.2596C198.325 38.0264 197.315 38.0264 196.46 38.3374Z" fill="#FEECD6"/>
<path d="M170.659 113.69C170.659 116.567 168.328 118.9 165.452 118.9C162.577 118.9 160.245 116.567 160.245 113.69C160.245 110.813 162.577 108.48 165.452 108.48C168.328 108.48 170.659 110.813 170.659 113.69Z" fill="#FEECD6"/>
<path d="M165.452 121.544C165.297 121.544 165.141 121.544 164.908 121.544V121.233C165.064 121.233 165.219 121.233 165.374 121.233C166.152 121.233 166.929 121.078 167.706 120.844L167.784 121.078C167.084 121.389 166.307 121.544 165.452 121.544ZM164.675 121.467C163.665 121.389 162.732 121.078 161.877 120.611L162.033 120.378C162.888 120.844 163.82 121.078 164.753 121.233L164.675 121.467ZM168.172 121.078L168.094 120.844C169.027 120.533 169.804 119.989 170.504 119.367L170.659 119.6C169.96 120.222 169.105 120.689 168.172 121.078ZM161.566 120.456C160.712 119.989 159.935 119.289 159.313 118.512L159.546 118.356C160.168 119.134 160.867 119.756 161.722 120.222L161.566 120.456ZM170.892 119.289L170.659 119.056C171.358 118.356 171.902 117.578 172.291 116.723L172.524 116.801C172.136 117.812 171.592 118.589 170.892 119.289ZM159.157 118.356C158.536 117.578 158.147 116.645 157.914 115.712L158.225 115.634C158.458 116.567 158.847 117.423 159.468 118.201L159.157 118.356ZM172.68 116.645L172.446 116.567C172.835 115.712 172.99 114.701 172.99 113.768H173.301C173.224 114.701 173.068 115.712 172.68 116.645ZM157.836 115.323C157.759 114.779 157.681 114.235 157.681 113.69C157.681 113.224 157.681 112.835 157.759 112.368L158.069 112.446C157.992 112.835 157.992 113.301 157.992 113.69C157.992 114.235 158.069 114.779 158.147 115.246L157.836 115.323ZM172.99 113.379C172.913 112.446 172.757 111.513 172.369 110.58L172.602 110.502C172.99 111.435 173.224 112.368 173.301 113.379H172.99ZM158.069 112.135L157.759 112.057C157.992 111.046 158.38 110.191 158.924 109.335L159.157 109.491C158.613 110.346 158.303 111.202 158.069 112.135ZM172.213 110.346C171.825 109.491 171.203 108.713 170.504 108.091L170.659 107.858C171.436 108.558 171.98 109.335 172.446 110.191L172.213 110.346ZM159.313 109.335L159.08 109.18C159.701 108.402 160.401 107.702 161.256 107.158L161.411 107.391C160.634 107.858 159.935 108.558 159.313 109.335ZM170.27 107.936C169.493 107.314 168.716 106.847 167.784 106.536L167.861 106.303C168.794 106.614 169.649 107.08 170.426 107.702L170.27 107.936ZM161.644 107.236L161.489 107.003C162.344 106.536 163.276 106.147 164.286 105.992L164.364 106.303C163.432 106.38 162.499 106.692 161.644 107.236ZM167.473 106.458C166.54 106.225 165.608 106.147 164.597 106.225V105.914C165.608 105.836 166.618 105.914 167.55 106.147L167.473 106.458Z" fill="#FEECD6"/>
<path d="M165.452 123.877C165.374 123.877 165.374 123.877 165.297 123.877V123.566C165.452 123.566 165.685 123.566 165.841 123.566V123.877C165.763 123.877 165.608 123.877 165.452 123.877ZM164.986 123.877C164.83 123.877 164.597 123.877 164.442 123.799V123.488C164.597 123.488 164.83 123.488 164.986 123.488V123.877ZM166.152 123.877V123.566C166.307 123.566 166.54 123.566 166.696 123.488V123.799C166.54 123.799 166.385 123.877 166.152 123.877ZM164.131 123.799C163.976 123.799 163.742 123.722 163.587 123.722L163.665 123.411C163.82 123.411 164.053 123.488 164.209 123.488L164.131 123.799ZM167.006 123.799L166.929 123.488C167.084 123.488 167.317 123.411 167.473 123.411L167.55 123.722C167.395 123.722 167.24 123.722 167.006 123.799ZM163.276 123.644C163.121 123.566 162.888 123.566 162.732 123.488L162.81 123.177C162.965 123.255 163.198 123.255 163.354 123.333L163.276 123.644ZM167.861 123.566L167.784 123.255C167.939 123.177 168.172 123.177 168.328 123.1L168.405 123.333C168.25 123.488 168.094 123.566 167.861 123.566ZM162.499 123.488C162.344 123.411 162.11 123.333 161.955 123.333L162.033 123.1C162.188 123.177 162.421 123.255 162.577 123.255L162.499 123.488ZM168.716 123.333L168.638 123.1C168.794 123.022 169.027 122.944 169.182 122.944L169.26 123.177C169.027 123.255 168.872 123.333 168.716 123.333ZM161.644 123.177C161.489 123.1 161.256 123.022 161.1 122.944L161.256 122.711C161.411 122.789 161.566 122.866 161.8 122.944L161.644 123.177ZM169.493 123.022L169.416 122.789C169.571 122.711 169.726 122.633 169.96 122.555L170.115 122.789C169.882 122.866 169.649 122.944 169.493 123.022ZM160.867 122.789C160.712 122.711 160.556 122.633 160.323 122.478L160.479 122.244C160.634 122.322 160.789 122.4 160.945 122.478L160.867 122.789ZM170.27 122.711L170.115 122.478C170.27 122.4 170.426 122.322 170.581 122.166L170.737 122.4C170.581 122.478 170.426 122.555 170.27 122.711ZM160.09 122.4C159.935 122.322 159.779 122.166 159.624 122.089L159.779 121.855C159.934 121.933 160.09 122.089 160.245 122.166L160.09 122.4ZM171.048 122.244L170.892 122.011C171.048 121.933 171.203 121.778 171.358 121.7L171.514 121.933C171.358 122.011 171.203 122.089 171.048 122.244ZM159.391 121.933C159.235 121.855 159.08 121.7 158.924 121.544L159.08 121.311C159.235 121.467 159.391 121.544 159.546 121.622L159.391 121.933ZM171.747 121.7L171.592 121.467C171.747 121.389 171.902 121.233 172.058 121.078L172.213 121.311C171.98 121.467 171.902 121.622 171.747 121.7ZM158.691 121.389C158.536 121.233 158.38 121.156 158.303 121L158.536 120.767C158.691 120.922 158.769 121 158.924 121.156L158.691 121.389ZM172.369 121.156L172.213 120.922C172.369 120.767 172.446 120.689 172.602 120.533L172.835 120.767C172.68 120.922 172.524 121 172.369 121.156ZM158.069 120.767C157.914 120.611 157.836 120.456 157.681 120.378L157.914 120.222C158.069 120.378 158.147 120.533 158.303 120.611L158.069 120.767ZM172.99 120.533L172.757 120.378C172.913 120.222 172.99 120.067 173.146 119.989L173.379 120.145C173.224 120.222 173.146 120.378 172.99 120.533ZM157.525 120.145C157.37 119.989 157.292 119.834 157.215 119.678L157.448 119.523C157.525 119.678 157.681 119.834 157.759 119.989L157.525 120.145ZM173.534 119.911L173.301 119.756C173.379 119.6 173.534 119.445 173.612 119.289L173.845 119.445C173.768 119.6 173.612 119.756 173.534 119.911ZM156.981 119.445C156.904 119.289 156.748 119.134 156.671 118.978L156.904 118.823C156.981 118.978 157.137 119.134 157.215 119.289L156.981 119.445ZM174.001 119.211L173.768 119.056C173.845 118.9 174.001 118.745 174.078 118.589L174.312 118.745C174.234 118.823 174.156 118.978 174.001 119.211ZM156.593 118.667C156.515 118.512 156.437 118.356 156.36 118.123L156.593 117.967C156.671 118.123 156.748 118.278 156.826 118.434L156.593 118.667ZM174.467 118.434L174.234 118.278C174.312 118.123 174.389 117.967 174.467 117.812L174.7 117.967C174.622 118.123 174.545 118.278 174.467 118.434ZM156.204 117.889C156.127 117.734 156.049 117.501 155.971 117.345L156.204 117.267C156.282 117.423 156.36 117.578 156.437 117.812L156.204 117.889ZM174.856 117.656L174.622 117.578C174.7 117.423 174.778 117.267 174.856 117.034L175.089 117.112C175.011 117.267 174.933 117.501 174.856 117.656ZM155.893 117.112C155.816 116.956 155.738 116.723 155.738 116.567L155.971 116.49C156.049 116.645 156.049 116.879 156.127 117.034L155.893 117.112ZM175.166 116.801L174.933 116.723C175.011 116.567 175.011 116.334 175.089 116.179L175.4 116.256C175.244 116.49 175.166 116.645 175.166 116.801ZM155.583 116.256C155.505 116.101 155.505 115.868 155.427 115.712L155.738 115.634C155.738 115.79 155.816 116.023 155.893 116.179L155.583 116.256ZM175.322 116.023L175.011 115.945C175.089 115.79 175.089 115.557 175.089 115.401L175.4 115.479C175.477 115.634 175.4 115.79 175.322 116.023ZM155.427 115.479C155.427 115.323 155.349 115.09 155.349 114.934H155.66C155.66 115.09 155.738 115.323 155.738 115.479H155.427ZM175.477 115.168L175.166 115.09C175.166 114.934 175.244 114.701 175.244 114.546H175.555C175.555 114.779 175.555 114.934 175.477 115.168ZM155.349 114.623C155.349 114.468 155.349 114.235 155.349 114.079H155.66C155.66 114.235 155.66 114.468 155.66 114.623H155.349ZM175.633 114.312H175.322C175.322 114.157 175.322 113.924 175.322 113.768H175.633C175.633 113.924 175.633 114.079 175.633 114.312ZM155.349 113.69C155.272 113.457 155.272 113.301 155.272 113.146H155.583C155.583 113.301 155.583 113.535 155.583 113.69H155.349ZM175.322 113.379C175.322 113.224 175.322 112.99 175.322 112.835H175.633C175.633 112.99 175.633 113.224 175.633 113.379H175.322ZM155.583 112.913H155.272C155.272 112.757 155.272 112.524 155.349 112.368L155.66 112.446C155.66 112.524 155.583 112.679 155.583 112.913ZM175.244 112.602C175.244 112.446 175.166 112.213 175.166 112.057L175.477 111.979C175.477 112.135 175.555 112.368 175.555 112.524L175.244 112.602ZM155.66 112.057L155.349 111.979C155.349 111.824 155.427 111.591 155.427 111.435L155.738 111.513C155.738 111.668 155.738 111.902 155.66 112.057ZM175.166 111.746C175.166 111.591 175.089 111.357 175.011 111.202L175.322 111.124C175.4 111.28 175.399 111.513 175.477 111.668L175.166 111.746ZM155.893 111.202L155.583 111.124C155.66 110.969 155.66 110.735 155.738 110.58L155.971 110.657C155.971 110.891 155.893 111.046 155.893 111.202ZM174.933 110.969C174.855 110.813 174.855 110.58 174.778 110.424L175.011 110.346C175.089 110.502 175.166 110.735 175.166 110.891L174.933 110.969ZM156.127 110.424L155.893 110.346C155.971 110.191 156.049 109.958 156.127 109.802L156.36 109.88C156.282 110.113 156.204 110.269 156.127 110.424ZM174.7 110.113C174.622 109.958 174.545 109.802 174.467 109.569L174.7 109.413C174.778 109.569 174.855 109.802 174.933 109.958L174.7 110.113ZM156.437 109.647L156.204 109.491C156.282 109.335 156.36 109.18 156.437 108.947L156.671 109.102C156.593 109.335 156.515 109.491 156.437 109.647ZM174.312 109.335C174.234 109.18 174.156 109.024 174.078 108.869L174.312 108.713C174.389 108.869 174.467 109.024 174.545 109.258L174.312 109.335ZM156.826 108.869L156.593 108.713C156.671 108.558 156.748 108.402 156.904 108.247L157.137 108.402C156.981 108.558 156.904 108.713 156.826 108.869ZM173.923 108.636C173.845 108.48 173.69 108.325 173.612 108.169L173.845 108.014C173.923 108.169 174.078 108.325 174.156 108.48L173.923 108.636ZM157.215 108.169L156.981 108.014C157.059 107.858 157.215 107.702 157.292 107.547L157.525 107.702C157.448 107.858 157.37 108.014 157.215 108.169ZM173.457 107.936C173.379 107.78 173.224 107.625 173.146 107.469L173.379 107.314C173.534 107.469 173.612 107.625 173.768 107.78L173.457 107.936ZM157.759 107.469L157.525 107.314C157.681 107.158 157.759 107.003 157.914 106.847L158.147 107.003C157.992 107.236 157.836 107.391 157.759 107.469ZM172.99 107.314C172.835 107.158 172.757 107.003 172.602 106.925L172.835 106.692C172.99 106.847 173.068 107.003 173.224 107.08L172.99 107.314ZM158.303 106.847L158.069 106.614C158.225 106.458 158.303 106.303 158.458 106.225L158.613 106.458C158.536 106.614 158.458 106.769 158.303 106.847ZM172.369 106.692C172.213 106.536 172.136 106.458 171.98 106.303L172.136 106.069C172.291 106.225 172.446 106.303 172.524 106.458L172.369 106.692ZM158.924 106.303L158.769 106.069C158.924 105.914 159.08 105.836 159.235 105.681L159.391 105.914C159.157 106.069 159.08 106.147 158.924 106.303ZM171.747 106.069C171.592 105.914 171.436 105.836 171.281 105.758L171.436 105.525C171.592 105.603 171.747 105.758 171.902 105.914L171.747 106.069ZM159.546 105.758L159.391 105.525C159.546 105.447 159.701 105.292 159.857 105.214L160.012 105.447C159.857 105.525 159.701 105.681 159.546 105.758ZM171.125 105.603C170.97 105.525 170.814 105.37 170.659 105.292L170.814 105.058C170.97 105.136 171.125 105.292 171.281 105.37L171.125 105.603ZM160.245 105.292L160.09 105.058C160.245 104.981 160.401 104.825 160.556 104.747L160.712 104.981C160.556 105.136 160.401 105.214 160.245 105.292ZM170.348 105.136C170.193 105.058 170.037 104.981 169.882 104.903L170.037 104.67C170.193 104.747 170.348 104.825 170.581 104.981L170.348 105.136ZM160.945 104.903L160.789 104.67C160.945 104.592 161.1 104.514 161.333 104.436L161.411 104.67C161.333 104.747 161.178 104.825 160.945 104.903ZM169.649 104.747C169.493 104.67 169.338 104.592 169.105 104.514L169.182 104.281C169.338 104.359 169.571 104.436 169.726 104.514L169.649 104.747ZM161.722 104.514L161.644 104.281C161.8 104.203 162.033 104.125 162.188 104.048L162.266 104.281C162.11 104.436 161.955 104.436 161.722 104.514ZM168.872 104.436C168.716 104.359 168.483 104.281 168.328 104.281L168.405 104.048C168.561 104.125 168.794 104.203 168.949 104.203L168.872 104.436ZM162.499 104.281L162.421 104.048C162.577 103.97 162.81 103.97 162.965 103.892L163.043 104.203C162.888 104.125 162.732 104.203 162.499 104.281ZM168.094 104.203C167.939 104.125 167.706 104.125 167.55 104.048L167.628 103.737C167.784 103.814 168.017 103.814 168.172 103.892L168.094 104.203ZM163.354 104.048L163.276 103.737C163.432 103.659 163.665 103.659 163.82 103.659L163.898 103.97C163.742 103.97 163.509 103.97 163.354 104.048ZM167.24 103.97C167.084 103.97 166.851 103.892 166.696 103.892V103.581C166.851 103.581 167.084 103.659 167.24 103.659V103.97ZM164.209 103.892V103.581C164.364 103.581 164.597 103.503 164.753 103.503V103.814C164.52 103.892 164.364 103.892 164.209 103.892ZM166.385 103.892C166.229 103.892 165.996 103.892 165.841 103.892V103.581C165.996 103.581 166.229 103.581 166.385 103.581V103.892ZM164.986 103.814V103.503C165.141 103.503 165.297 103.503 165.452 103.503C165.53 103.503 165.53 103.503 165.608 103.503V103.814C165.53 103.814 165.53 103.814 165.452 103.814C165.297 103.814 165.141 103.814 164.986 103.814Z" fill="#FEECD6"/>
<path d="M81.9879 178.312C81.9879 181.189 79.6565 183.522 76.7811 183.522C73.9057 183.522 71.5743 181.189 71.5743 178.312C71.5743 175.434 73.9057 173.102 76.7811 173.102C79.6565 173.102 81.9879 175.434 81.9879 178.312Z" fill="#FEECD6"/>
<path d="M76.7811 190.132C76.548 190.132 76.3149 190.132 76.0817 190.132V189.743C76.3149 189.743 76.548 189.743 76.7034 189.743C78.3354 189.743 79.9674 189.432 81.444 188.732L81.5994 189.121C80.2005 189.821 78.4908 190.132 76.7811 190.132ZM75.1492 190.054C73.284 189.821 71.4189 189.043 69.8646 187.877L70.0978 187.566C71.5743 188.654 73.3617 189.354 75.1492 189.665V190.054ZM82.6097 188.654L82.3765 188.265C84.0085 187.332 85.3296 186.088 86.3399 184.533L86.7285 184.766C85.7182 186.321 84.3194 187.721 82.6097 188.654ZM69.0875 187.255C67.6109 186.01 66.523 184.377 65.8235 182.589L66.2121 182.433C66.9115 184.144 67.9995 185.699 69.3984 186.943L69.0875 187.255ZM87.2725 183.833L86.8839 183.6C87.7388 181.967 88.205 180.1 88.205 178.312H88.5936C88.5936 180.256 88.1273 182.122 87.2725 183.833ZM65.5127 181.656C65.2018 180.567 65.0464 179.478 65.0464 178.312C65.0464 177.534 65.1241 176.756 65.2795 175.979L65.6681 176.057C65.5127 176.756 65.435 177.534 65.435 178.312C65.435 179.4 65.5904 180.489 65.9012 181.5L65.5127 181.656ZM88.1273 177.301C87.9719 175.434 87.3502 173.646 86.3399 172.091L86.7285 171.857C87.7388 173.49 88.4382 175.357 88.5936 177.223L88.1273 177.301ZM65.9012 175.123L65.5127 174.968C66.0567 173.102 67.0669 171.469 68.3881 170.069L68.6989 170.38C67.3778 171.702 66.3675 173.335 65.9012 175.123ZM85.7959 171.391C84.6302 169.913 83.1537 168.747 81.5217 167.969L81.6771 167.58C83.3868 168.358 84.9411 169.602 86.1068 171.08L85.7959 171.391ZM69.3206 169.758L69.0098 169.447C70.4863 168.202 72.196 167.269 74.0612 166.88L74.1389 167.269C72.4292 167.658 70.7195 168.514 69.3206 169.758ZM80.6668 167.58C79.4234 167.114 78.18 166.958 76.8589 166.958C76.3149 166.958 75.7709 166.958 75.2269 167.114L75.1492 166.725C75.6932 166.647 76.3149 166.569 76.8589 166.569C78.18 166.569 79.5788 166.803 80.8222 167.269L80.6668 167.58Z" fill="#FEECD6"/>
<path d="M76.7811 187.721C76.0817 187.721 75.46 187.643 74.7606 187.488L74.8383 187.099C75.46 187.255 76.0817 187.332 76.7811 187.332V187.721ZM79.6565 187.255L79.5011 186.866C80.1228 186.632 80.7445 186.399 81.2885 186.088L81.5217 186.477C80.9 186.788 80.2783 187.099 79.6565 187.255ZM72.1183 186.477C71.4966 186.166 70.9526 185.777 70.4863 185.31L70.7972 184.999C71.2635 185.466 71.8075 185.777 72.3515 186.166L72.1183 186.477ZM83.7754 184.688L83.4645 184.377C83.9308 183.911 84.3194 183.366 84.6302 182.822L85.0188 183.055C84.6302 183.6 84.2416 184.144 83.7754 184.688ZM68.6989 183.055C68.3881 182.433 68.0772 181.811 67.8441 181.189L68.2327 181.033C68.4658 181.656 68.6989 182.278 69.0098 182.822L68.6989 183.055ZM85.9513 180.334L85.5628 180.256C85.7182 179.634 85.7959 179.012 85.7959 178.312H86.1845C86.1845 179.012 86.1068 179.711 85.9513 180.334ZM67.8441 178.312H67.4555C67.4555 177.612 67.5332 176.99 67.6887 176.29L68.0772 176.368C67.9218 177.068 67.8441 177.69 67.8441 178.312ZM85.3296 175.59C85.0965 174.968 84.8633 174.346 84.5525 173.801L84.9411 173.568C85.2519 174.19 85.5628 174.735 85.7959 175.434L85.3296 175.59ZM69.0098 173.879L68.6212 173.646C68.9321 173.024 69.3206 172.479 69.7869 172.013L70.0978 172.324C69.7092 172.791 69.3984 173.335 69.0098 173.879ZM82.8428 171.702C82.3765 171.235 81.8325 170.924 81.2885 170.535L81.5217 170.147C82.1434 170.458 82.6874 170.846 83.1536 171.313L82.8428 171.702ZM72.3515 170.535L72.1183 170.147C72.74 169.835 73.3617 169.524 73.9835 169.291L74.1389 169.68C73.4395 169.991 72.8955 170.224 72.3515 170.535ZM78.724 169.524C78.1023 169.369 77.4806 169.291 76.8589 169.291V168.902C77.5583 168.902 78.18 168.98 78.8794 169.136L78.724 169.524Z" fill="#FEECD6"/>
</svg>
