<svg width="18" height="15" viewBox="0 0 18 15" fill="none" xmlns="http://www.w3.org/2000/svg">
<path d="M9.84251 0.074971L3.65741 4.74901C3.61938 4.77977 3.58782 4.81785 3.56458 4.86103H0V10.1417H3.56458C3.58771 10.185 3.61929 10.2231 3.65741 10.2538L9.84251 14.925C9.89761 14.9667 9.96318 14.9922 10.0318 14.9985C10.1005 15.0048 10.1696 14.9917 10.2313 14.9607C10.293 14.9297 10.3448 14.882 10.3811 14.823C10.4173 14.7639 10.4365 14.6959 10.4365 14.6265V0.373475C10.4365 0.30409 10.4173 0.236069 10.3811 0.177046C10.3448 0.118023 10.293 0.0703355 10.2313 0.0393341C10.1696 0.00833265 10.1005 -0.00475534 10.0318 0.00153968C9.96318 0.0078347 9.89761 0.0332629 9.84251 0.074971ZM16.6846 10.5884L17.4519 9.81599L15.15 7.49966L17.4519 5.18332L16.6846 4.41121L14.3827 6.72754L12.0807 4.41121L11.3134 5.18332L13.6154 7.49966L11.3134 9.81599L12.0807 10.5881L14.3827 8.27177L16.6846 10.5881V10.5884Z" fill="#2A73B5"/>
</svg>
