<svg width="25" height="24" viewBox="0 0 25 24" fill="none" xmlns="http://www.w3.org/2000/svg">
<path d="M12.0428 0C5.88399 0 6.26853 2.65599 6.26853 2.65599L6.27537 5.40768H12.1526V6.23381H3.94102C3.94102 6.23381 0 5.78934 0 11.969C0 18.1489 3.43982 17.9297 3.43982 17.9297H5.49269V15.062C5.49269 15.062 5.38202 11.6413 8.87761 11.6413H14.7068C14.7068 11.6413 17.9818 11.6939 17.9818 8.4937V3.20231C17.9818 3.20231 18.4792 0 12.0428 0ZM8.80209 1.85046C8.94097 1.85033 9.07851 1.87744 9.20685 1.93024C9.33519 1.98303 9.45179 2.06048 9.55 2.15814C9.6482 2.2558 9.72608 2.37176 9.77917 2.49938C9.83226 2.627 9.85952 2.76378 9.8594 2.9019C9.85952 3.04001 9.83226 3.17679 9.77917 3.30441C9.72608 3.43203 9.6482 3.54799 9.55 3.64565C9.45179 3.74331 9.33519 3.82076 9.20685 3.87355C9.07851 3.92635 8.94097 3.95346 8.80209 3.95333C8.6632 3.95346 8.52566 3.92635 8.39732 3.87355C8.26899 3.82076 8.15238 3.74331 8.05418 3.64565C7.95597 3.54799 7.8781 3.43203 7.825 3.30441C7.77191 3.17679 7.74465 3.04001 7.74478 2.9019C7.74465 2.76378 7.77191 2.627 7.825 2.49938C7.8781 2.37176 7.95597 2.2558 8.05418 2.15814C8.15238 2.06048 8.26899 1.98303 8.39732 1.93024C8.52566 1.87744 8.6632 1.85033 8.80209 1.85046Z" fill="url(#paint0_linear_20215_4461)"/>
<path d="M12.2175 24.0001C18.3763 24.0001 17.9918 21.3441 17.9918 21.3441L17.9849 18.5925H12.1076V17.7663H20.3192C20.3192 17.7663 24.2602 18.2108 24.2602 12.0309C24.2602 5.85113 20.8204 6.0703 20.8204 6.0703H18.7675V8.93791C18.7675 8.93791 18.8782 12.3586 15.3826 12.3586H9.55344C9.55344 12.3586 6.27844 12.306 6.27844 15.5063V20.7978C6.27844 20.7978 5.78113 24.0001 12.2174 24.0001H12.2175ZM15.4582 22.1498C15.3194 22.1499 15.1818 22.1228 15.0535 22.07C14.9251 22.0172 14.8085 21.9398 14.7103 21.8421C14.6121 21.7444 14.5342 21.6285 14.4812 21.5009C14.4281 21.3732 14.4008 21.2365 14.4009 21.0983C14.4008 20.9602 14.428 20.8234 14.4811 20.6958C14.5342 20.5682 14.6121 20.4522 14.7103 20.3545C14.8085 20.2569 14.9251 20.1794 15.0534 20.1266C15.1818 20.0738 15.3193 20.0467 15.4582 20.0468C15.5971 20.0467 15.7347 20.0738 15.863 20.1266C15.9913 20.1794 16.1079 20.2568 16.2061 20.3545C16.3043 20.4521 16.3822 20.5681 16.4353 20.6957C16.4884 20.8234 16.5157 20.9601 16.5155 21.0982C16.5157 21.2364 16.4884 21.3731 16.4353 21.5008C16.3822 21.6284 16.3043 21.7443 16.2061 21.842C16.1079 21.9397 15.9913 22.0171 15.863 22.0699C15.7347 22.1227 15.5971 22.1498 15.4582 22.1497V22.1498Z" fill="url(#paint1_linear_20215_4461)"/>
<defs>
<linearGradient id="paint0_linear_20215_4461" x1="2.33141" y1="2.15867" x2="14.2878" y2="14.0619" gradientUnits="userSpaceOnUse">
<stop stop-color="#387EB8"/>
<stop offset="1" stop-color="#366994"/>
</linearGradient>
<linearGradient id="paint1_linear_20215_4461" x1="9.71079" y1="9.7593" x2="22.5539" y2="21.9681" gradientUnits="userSpaceOnUse">
<stop stop-color="#FFE052"/>
<stop offset="1" stop-color="#FFC331"/>
</linearGradient>
</defs>
</svg>
