<svg width="40" height="40" viewBox="0 0 40 40" fill="none" xmlns="http://www.w3.org/2000/svg">
<rect width="40" height="40" rx="20" fill="white"/>
<path d="M25.1964 15.8066C24.3135 14.6959 22.6974 14.5113 21.5867 15.3941L19.6775 16.9118C19.3822 17.1465 18.9526 17.0974 18.7179 16.8022C18.4832 16.5069 18.5323 16.0773 18.8276 15.8426L20.7368 14.325C22.438 12.9727 24.9133 13.2555 26.2656 14.9567C27.6179 16.6579 27.335 19.1333 25.6339 20.4855L23.7246 22.0032C23.4293 22.2379 22.9997 22.1888 22.7651 21.8935C22.5304 21.5983 22.5794 21.1687 22.8747 20.934L24.784 19.4163C25.8946 18.5335 26.0793 16.9173 25.1964 15.8066Z" fill="#F37121"/>
<path d="M13.7376 24.9123C12.3853 23.2111 12.6681 20.7358 14.3693 19.3835L16.2786 17.8658C16.5738 17.6312 17.0034 17.6802 17.2381 17.9755C17.4728 18.2707 17.4237 18.7003 17.1285 18.935L15.2192 20.4527C14.1085 21.3356 13.9239 22.9517 14.8068 24.0624C15.6896 25.1731 17.3058 25.3578 18.4165 24.4749L20.3257 22.9572C20.621 22.7225 21.0506 22.7716 21.2853 23.0669C21.52 23.3621 21.4709 23.7917 21.1756 24.0264L19.2664 25.5441C17.5652 26.8963 15.0898 26.6135 13.7376 24.9123Z" fill="#F37121"/>
<path d="M22.4382 17.1236C22.7334 16.8889 23.163 16.938 23.3977 17.2332C23.6324 17.5285 23.5833 17.9581 23.2881 18.1928L17.5603 22.7458C17.265 22.9805 16.8354 22.9314 16.6007 22.6362C16.366 22.3409 16.4151 21.9113 16.7104 21.6766L22.4382 17.1236Z" fill="#F37121"/>
</svg>
