<svg width="40" height="40" viewBox="0 0 40 40" fill="none" xmlns="http://www.w3.org/2000/svg">
<rect width="40" height="40" rx="20" fill="white"/>
<path d="M23.2031 21L23.6094 18.1094H21.1094V16.2188C21.1094 15.8229 21.2135 15.4635 21.4219 15.1406C21.6302 14.8177 22.0156 14.6562 22.5781 14.6562H23.7188V12.2031C23.7188 12.2031 23.5052 12.1693 23.0781 12.1016C22.651 12.0339 22.1875 12 21.6875 12C21.1771 12 20.7135 12.0833 20.2969 12.25C19.8802 12.4271 19.5234 12.6797 19.2266 13.0078C18.9297 13.3359 18.6979 13.7448 18.5312 14.2344C18.375 14.7135 18.2969 15.2656 18.2969 15.8906V18.1094H16V21H18.2969V28H21.1094V21H23.2031Z" fill="#F37121"/>
</svg>
