<svg width="40" height="40" viewBox="0 0 40 40" fill="none" xmlns="http://www.w3.org/2000/svg">
<rect width="40" height="40" rx="20" fill="white"/>
<path d="M20 17.6621C19.3529 17.6621 18.8014 17.89 18.3457 18.3457C17.89 18.8014 17.6621 19.3529 17.6621 20C17.6621 20.6471 17.89 21.1986 18.3457 21.6543C18.8014 22.11 19.3529 22.3379 20 22.3379C20.638 22.3379 21.1872 22.11 21.6475 21.6543C22.1077 21.1986 22.3379 20.6471 22.3379 20C22.3379 19.3529 22.1077 18.8014 21.6475 18.3457C21.1872 17.89 20.638 17.6621 20 17.6621ZM27 20C27 19.5169 27 19.0361 27 18.5576C27 18.0791 26.9863 17.5983 26.959 17.1152C26.9316 16.5501 26.8382 16.0215 26.6787 15.5293C26.5192 15.0371 26.2344 14.5859 25.8242 14.1758C25.4141 13.7656 24.9629 13.4808 24.4707 13.3213C23.9785 13.1618 23.4499 13.0684 22.8848 13.041C22.4017 13.0137 21.9209 13 21.4424 13C20.9639 13 20.4831 13 20 13C19.5169 13 19.0361 13 18.5576 13C18.0791 13 17.5983 13.0137 17.1152 13.041C16.5501 13.0684 16.0215 13.1618 15.5293 13.3213C15.0371 13.4808 14.5859 13.7656 14.1758 14.1758C13.7656 14.5859 13.4808 15.0371 13.3213 15.5293C13.1618 16.0215 13.0684 16.5501 13.041 17.1152C13.0137 17.5983 13 18.0791 13 18.5576C13 19.0361 13 19.5169 13 20C13 20.4831 13 20.9639 13 21.4424C13 21.9209 13.0137 22.4017 13.041 22.8848C13.0684 23.4499 13.1618 23.9785 13.3213 24.4707C13.4808 24.9629 13.7656 25.4141 14.1758 25.8242C14.5859 26.2344 15.0371 26.5192 15.5293 26.6787C16.0215 26.8382 16.5501 26.9316 17.1152 26.959C17.5983 26.9863 18.0791 27 18.5576 27C19.0361 27 19.5169 27 20 27C20.4831 27 20.9639 27 21.4424 27C21.9209 27 22.4017 26.9863 22.8848 26.959C23.4499 26.9316 23.9785 26.8382 24.4707 26.6787C24.9629 26.5192 25.4141 26.2344 25.8242 25.8242C26.2344 25.4141 26.5192 24.9629 26.6787 24.4707C26.8382 23.9785 26.9316 23.4499 26.959 22.8848C26.9863 22.4017 27 21.9209 27 21.4424C27 20.9639 27 20.4831 27 20ZM20 23.5957C19.4987 23.5957 19.0293 23.5 18.5918 23.3086C18.1634 23.1172 17.7852 22.8597 17.457 22.5361C17.1289 22.2126 16.8737 21.832 16.6914 21.3945C16.5 20.9661 16.4043 20.5013 16.4043 20C16.4043 19.4987 16.5 19.0339 16.6914 18.6055C16.8737 18.168 17.1289 17.7874 17.457 17.4639C17.7852 17.1403 18.1634 16.8828 18.5918 16.6914C19.0293 16.5 19.4987 16.4043 20 16.4043C20.4922 16.4043 20.957 16.5 21.3945 16.6914C21.832 16.8828 22.2126 17.1403 22.5361 17.4639C22.8597 17.7874 23.1172 18.168 23.3086 18.6055C23.5 19.0339 23.5957 19.4987 23.5957 20C23.5957 20.5013 23.5 20.9661 23.3086 21.3945C23.1172 21.832 22.8597 22.2126 22.5361 22.5361C22.2126 22.8597 21.832 23.1172 21.3945 23.3086C20.957 23.5 20.4922 23.5957 20 23.5957ZM23.7324 17.1016C23.5046 17.1016 23.3086 17.0195 23.1445 16.8555C22.9805 16.6914 22.8984 16.4954 22.8984 16.2676C22.8984 16.0306 22.9805 15.8301 23.1445 15.666C23.3086 15.502 23.5046 15.4199 23.7324 15.4199C23.9694 15.4199 24.1699 15.502 24.334 15.666C24.498 15.8301 24.5801 16.0306 24.5801 16.2676C24.5801 16.3223 24.5732 16.3747 24.5596 16.4248C24.5459 16.4749 24.5299 16.5273 24.5117 16.582C24.4935 16.6367 24.4684 16.6868 24.4365 16.7324C24.4046 16.778 24.3704 16.819 24.334 16.8555C24.2884 16.8919 24.2428 16.9261 24.1973 16.958C24.1517 16.9899 24.1061 17.015 24.0605 17.0332C24.0059 17.0605 23.9512 17.0788 23.8965 17.0879C23.8418 17.097 23.7871 17.1016 23.7324 17.1016Z" fill="#F37121"/>
</svg>
