<svg width="40" height="40" viewBox="0 0 40 40" fill="none" xmlns="http://www.w3.org/2000/svg">
<rect width="40" height="40" rx="20" fill="white"/>
<path d="M15.5781 28H12.2656V17.3125H15.5781V28ZM13.9219 15.8594C13.3906 15.8594 12.9375 15.6693 12.5625 15.2891C12.1875 14.9089 12 14.4531 12 13.9219C12 13.6615 12.0495 13.4141 12.1484 13.1797C12.2474 12.9453 12.3854 12.7396 12.5625 12.5625C12.7396 12.3854 12.9453 12.2474 13.1797 12.1484C13.4141 12.0495 13.6615 12 13.9219 12C14.1719 12 14.4167 12.0495 14.6562 12.1484C14.8958 12.2474 15.1042 12.3854 15.2812 12.5625C15.4583 12.7396 15.5964 12.9453 15.6953 13.1797C15.7943 13.4141 15.8438 13.6615 15.8438 13.9219C15.8438 14.4531 15.6562 14.9089 15.2812 15.2891C14.9062 15.6693 14.4531 15.8594 13.9219 15.8594ZM28 28H24.6875V22.7969C24.6875 22.1823 24.612 21.5573 24.4609 20.9219C24.3099 20.2865 23.8125 19.9688 22.9688 19.9688C22.1042 19.9688 21.5547 20.2526 21.3203 20.8203C21.0859 21.388 20.9688 22.0156 20.9688 22.7031V28H17.6562V17.3125H20.8438V18.7812H20.8906C21.1094 18.3542 21.4844 17.9583 22.0156 17.5938C22.5469 17.2292 23.2188 17.0469 24.0312 17.0469C24.8646 17.0469 25.5417 17.1771 26.0625 17.4375C26.5833 17.6979 26.987 18.0573 27.2734 18.5156C27.5599 18.974 27.75 19.5104 27.8438 20.125C27.9479 20.75 28 21.4167 28 22.125V28Z" fill="#F37121"/>
</svg>
