<svg width="40" height="40" viewBox="0 0 40 40" fill="none" xmlns="http://www.w3.org/2000/svg">
<rect width="40" height="40" rx="20" fill="white"/>
<path d="M25.6693 14.3231C24.2274 12.8878 22.2355 12 20.0351 12C15.6348 12 12.067 15.5508 12.067 19.9312C12.067 21.3888 12.4621 22.7542 13.1509 23.928L13.1305 23.8906L12 28L16.2234 26.8972C17.3228 27.5049 18.6345 27.8623 20.0303 27.8623H20.0335C24.4338 27.8607 28 24.3095 28 19.9296C28 17.7404 27.1091 15.7588 25.6688 14.3236L25.6693 14.3231ZM20.0335 26.5226H20.0308C18.7878 26.5226 17.624 26.1811 16.6308 25.5873L16.6608 25.6038L16.419 25.4614L13.9131 26.116L14.5815 23.6836L14.4239 23.4344C13.7887 22.441 13.4114 21.2304 13.4114 19.9317C13.4114 16.2919 16.3762 13.3408 20.033 13.3408C23.6898 13.3408 26.6546 16.2919 26.6546 19.9317C26.6546 23.5716 23.6908 26.5226 20.0335 26.5226ZM23.6656 21.5868C23.4668 21.4875 22.488 21.0089 22.3057 20.9422C22.123 20.8761 21.99 20.8435 21.8571 21.042C21.7252 21.24 21.3436 21.686 21.2272 21.8183C21.1115 21.9512 20.9946 21.9672 20.7957 21.8685C20.1793 21.6198 19.6497 21.2885 19.1893 20.8804L19.1946 20.8852C18.7663 20.4903 18.3991 20.0384 18.1027 19.5401L18.0877 19.5123C17.9719 19.3144 18.0754 19.2071 18.1745 19.1084C18.2641 19.0199 18.3739 18.8769 18.4731 18.7616C18.5514 18.6661 18.6184 18.5568 18.6693 18.4394L18.6725 18.4303C18.6956 18.3839 18.709 18.33 18.709 18.2724C18.709 18.2025 18.6891 18.1374 18.6548 18.0819L18.6559 18.0835C18.6055 17.9843 18.2078 17.0089 18.0421 16.612C17.8803 16.2257 17.7157 16.2785 17.594 16.2721C17.4782 16.2668 17.3453 16.2657 17.2124 16.2657C17.0006 16.271 16.8125 16.366 16.6828 16.5127L16.6822 16.5138C16.2523 16.9198 15.9854 17.4923 15.9854 18.1267C15.9854 18.1406 15.9854 18.155 15.9859 18.1689V18.1667C16.0561 18.9494 16.351 19.6521 16.8044 20.2246L16.798 20.2166C17.6578 21.4859 18.8038 22.5013 20.1487 23.1853L20.1991 23.2082C20.4929 23.3405 20.8692 23.4819 21.254 23.603L21.3339 23.6249C21.5708 23.6996 21.8437 23.7428 22.1267 23.7428C22.2891 23.7428 22.4489 23.7284 22.6032 23.7012L22.5866 23.7033C23.1596 23.5844 23.6351 23.2402 23.9251 22.7702L23.9299 22.7611C24.0184 22.5658 24.0698 22.338 24.0698 22.0984C24.0698 21.9997 24.0612 21.9032 24.0446 21.8093L24.0462 21.8194C23.9969 21.7367 23.864 21.6876 23.6646 21.5878L23.6656 21.5868Z" fill="#F37121"/>
</svg>
