<svg width="40" height="40" viewBox="0 0 40 40" fill="none" xmlns="http://www.w3.org/2000/svg">
<rect width="40" height="40" rx="20" fill="white"/>
<path d="M27.3714 27.633C25.3846 25.0865 23.4016 22.5381 21.404 19.9994C21.2168 19.7625 21.2051 19.627 21.4157 19.4018C22.4793 18.2641 23.5274 17.1098 24.5793 15.9604C25.4509 15.0079 26.3205 14.0544 27.2145 13.0756C26.4784 12.942 25.9412 13.0425 25.4284 13.6362C23.9651 15.3306 22.4121 16.947 20.9165 18.6151C20.6358 18.929 20.5168 18.8715 20.2926 18.579C18.9589 16.8407 17.6038 15.119 16.2691 13.3817C16.0634 13.1127 15.8519 12.9908 15.5029 13.0005C14.6098 13.0269 13.7158 13.0093 12.8228 13.0093C12.5752 13.0103 12.3285 13.0103 12 13.0103C12.1248 13.1799 12.1784 13.2579 12.2359 13.332C14.2228 15.8785 16.2077 18.4259 18.2024 20.9656C18.3925 21.2083 18.4295 21.3448 18.1907 21.5983C17.0549 22.8033 15.9484 24.0346 14.8311 25.2571C14.0278 26.1355 13.2255 27.0159 12.4085 27.9108C13.205 28.0892 13.7461 27.8738 14.2686 27.2693C15.7115 25.5993 17.2411 24.0053 18.7152 22.3616C18.9765 22.0701 19.0808 22.0857 19.3079 22.3831C20.5314 23.981 21.8105 25.5369 22.9951 27.1621C23.4581 27.7968 23.9466 28.0473 24.7197 27.9927C25.6605 27.9255 26.609 27.9771 27.622 27.9771C27.5021 27.8133 27.4387 27.7227 27.3714 27.6349V27.633ZM25.6624 27.0685C25.2061 27.0685 24.7421 27.0588 24.278 27.0724C24.046 27.0792 23.9817 26.8969 23.8803 26.7653C21.1866 23.3161 18.4978 19.8639 15.808 16.4127C15.1831 15.6104 14.5572 14.808 13.8621 13.915C14.409 13.915 14.8448 13.9335 15.2767 13.9082C15.5497 13.8926 15.6403 14.0837 15.7651 14.2436C17.9986 17.1059 20.2302 19.9692 22.4618 22.8325C23.4884 24.1496 24.5149 25.4658 25.5386 26.7848C25.5932 26.856 25.6965 26.9057 25.6634 27.0675L25.6624 27.0685Z" fill="#F37121" stroke="#F37121" stroke-width="0.6"/>
</svg>
