<svg width="56" height="56" viewBox="0 0 56 56" fill="none" xmlns="http://www.w3.org/2000/svg">
<path d="M46.06 32.5137H48.5359C50.3507 32.5137 51.4811 33.6415 51.4811 35.477C51.4811 38.9338 51.4811 42.3949 51.4811 45.8604C51.4811 47.6363 50.3767 48.7485 48.6033 48.7667C47.7789 48.7667 46.957 48.7667 46.0626 48.7667C46.0626 49.6015 46.0626 50.3844 46.0626 51.1674C46.0626 54.0867 44.1882 55.987 41.2793 55.9896C32.4264 55.9965 23.5667 56 14.7 56C11.8274 56 9.94 54.0867 9.93741 51.2141C9.93741 50.4363 9.93741 49.6404 9.93741 48.777H7.54444C5.58185 48.777 4.51889 47.7011 4.51889 45.7359C4.51889 42.3327 4.51889 38.9278 4.51889 35.5211C4.51889 33.6156 5.62074 32.5241 7.53667 32.5215H9.93741C9.93741 31.6063 9.93741 30.7067 9.93741 29.8174C9.933 29.1751 10.0685 28.5395 10.3344 27.9548C10.6003 27.3701 10.9904 26.8503 11.4774 26.4315C12.3134 25.6853 13.398 25.2785 14.5185 25.2907C15.7993 25.2907 17.0774 25.2907 18.3581 25.2907C18.5396 25.2907 18.7237 25.2752 18.9596 25.2648V22.9315C18.9596 21.967 19.2448 21.6793 20.1963 21.6767C22.2704 21.6767 24.3393 21.6767 26.403 21.6767H27.0511V19.797C25.1248 19.1411 23.9919 17.3807 24.5052 15.3326C24.7135 14.5368 25.1877 13.8363 25.8492 13.3473C26.5107 12.8583 27.3195 12.6103 28.1414 12.6445C28.9632 12.6788 29.7486 12.9931 30.3672 13.5354C30.9857 14.0777 31.4001 14.8152 31.5415 15.6256C31.8915 17.3885 30.953 18.8844 28.9204 19.7737V21.6741H29.5556C31.6435 21.6741 33.7314 21.6741 35.8193 21.6741C36.7396 21.6741 37.0352 21.9722 37.0352 22.8926C37.0352 23.6704 37.0352 24.43 37.0352 25.2856C37.3178 25.2856 37.5719 25.2856 37.813 25.2856C39.2778 25.3063 40.7556 25.2233 42.2204 25.3789C43.2775 25.5101 44.2505 26.0221 44.9573 26.8191C45.6641 27.616 46.0561 28.6433 46.06 29.7085C46.0756 30.6289 46.06 31.5467 46.06 32.5137ZM41.2637 54.1852C43.1822 54.1852 44.2581 53.0937 44.2581 51.17C44.2581 44.1735 44.2581 37.1735 44.2581 30.17C44.2581 28.1478 43.19 27.0848 41.147 27.0848H14.853C12.81 27.0848 11.7419 28.1452 11.7419 30.1674V51.0481C11.7419 53.136 12.7789 54.18 14.853 54.18L41.2637 54.1852ZM9.9063 46.9596V34.3207C9.05333 34.3207 8.23148 34.3207 7.40963 34.3207C6.64481 34.3207 6.32852 34.6604 6.32593 35.4433C6.32593 36.61 6.32593 37.7767 6.32593 38.9433C6.32593 41.2559 6.32593 43.5694 6.32593 45.8837C6.32593 46.5707 6.6163 46.9207 7.21778 46.9493C8.09926 46.9778 8.98074 46.9596 9.9063 46.9596ZM46.1093 34.3259V46.9648C46.9856 46.9648 47.8126 46.9648 48.6396 46.9648C49.3474 46.9648 49.6767 46.6304 49.6767 45.9278C49.6767 45.15 49.6767 44.3722 49.6767 43.6126C49.6767 40.8852 49.6767 38.1578 49.6767 35.4304C49.6767 34.7615 49.3811 34.3674 48.7926 34.3441C47.9111 34.3026 47.027 34.3259 46.1093 34.3259ZM20.79 25.2519H35.1893V23.5278H20.79V25.2519ZM28.013 18.0652C28.4898 18.0618 28.9461 17.8709 29.2833 17.5337C29.6205 17.1965 29.8114 16.7402 29.8148 16.2633C29.8401 16.01 29.8118 15.7541 29.7318 15.5124C29.6517 15.2707 29.5217 15.0485 29.3501 14.8603C29.1786 14.6722 28.9693 14.5222 28.736 14.4202C28.5027 14.3182 28.2506 14.2664 27.9959 14.2682C27.7413 14.2701 27.4899 14.3255 27.2581 14.4308C27.0263 14.5362 26.8193 14.6891 26.6504 14.8797C26.4816 15.0703 26.3548 15.2944 26.2782 15.5372C26.2016 15.78 26.177 16.0363 26.2059 16.2893C26.2181 16.7611 26.4135 17.2097 26.7509 17.5398C27.0883 17.8699 27.541 18.0555 28.013 18.0574V18.0652Z" fill="#1E1E1E"/>
<path d="M46.06 32.5137H48.5359C50.3507 32.5137 51.4811 33.6415 51.4811 35.477C51.4811 38.9338 51.4811 42.3949 51.4811 45.8604C51.4811 47.6363 50.3767 48.7485 48.6033 48.7667C47.7789 48.7667 46.957 48.7667 46.0626 48.7667C46.0626 49.6015 46.0626 50.3844 46.0626 51.1674C46.0626 54.0867 44.1882 55.987 41.2793 55.9896C32.4264 55.9965 23.5667 56 14.7 56C11.8274 56 9.94 54.0867 9.93741 51.2141C9.93741 50.4363 9.93741 49.6404 9.93741 48.777H7.54444C5.58185 48.777 4.51889 47.7011 4.51889 45.7359C4.51889 42.3327 4.51889 38.9278 4.51889 35.5211C4.51889 33.6156 5.62074 32.5241 7.53667 32.5215H9.93741C9.93741 31.6063 9.93741 30.7067 9.93741 29.8174C9.933 29.1751 10.0685 28.5395 10.3344 27.9548C10.6003 27.3701 10.9904 26.8503 11.4774 26.4315C12.3134 25.6853 13.398 25.2785 14.5185 25.2907C15.7993 25.2907 17.0774 25.2907 18.3581 25.2907C18.5396 25.2907 18.7237 25.2752 18.9596 25.2648V22.9315C18.9596 21.967 19.2448 21.6793 20.1963 21.6767C22.2704 21.6767 24.3393 21.6767 26.403 21.6767H27.0511V19.797C25.1248 19.1411 23.9919 17.3807 24.5052 15.3326C24.7135 14.5368 25.1877 13.8363 25.8492 13.3473C26.5107 12.8583 27.3195 12.6103 28.1414 12.6445C28.9632 12.6788 29.7486 12.9931 30.3672 13.5354C30.9857 14.0777 31.4001 14.8152 31.5415 15.6256C31.8915 17.3885 30.953 18.8844 28.9204 19.7737V21.6741H29.5556C31.6435 21.6741 33.7314 21.6741 35.8193 21.6741C36.7396 21.6741 37.0352 21.9722 37.0352 22.8926C37.0352 23.6704 37.0352 24.43 37.0352 25.2856C37.3178 25.2856 37.5719 25.2856 37.813 25.2856C39.2778 25.3063 40.7556 25.2233 42.2204 25.3789C43.2775 25.5101 44.2505 26.0221 44.9573 26.8191C45.6641 27.616 46.0561 28.6433 46.06 29.7085C46.0756 30.6289 46.06 31.5467 46.06 32.5137ZM41.2637 54.1852C43.1822 54.1852 44.2581 53.0937 44.2581 51.17C44.2581 44.1735 44.2581 37.1735 44.2581 30.17C44.2581 28.1478 43.19 27.0848 41.147 27.0848H14.853C12.81 27.0848 11.7419 28.1452 11.7419 30.1674V51.0481C11.7419 53.136 12.7789 54.18 14.853 54.18L41.2637 54.1852ZM9.9063 46.9596V34.3207C9.05333 34.3207 8.23148 34.3207 7.40963 34.3207C6.64481 34.3207 6.32852 34.6604 6.32593 35.4433C6.32593 36.61 6.32593 37.7767 6.32593 38.9433C6.32593 41.2559 6.32593 43.5694 6.32593 45.8837C6.32593 46.5707 6.6163 46.9207 7.21778 46.9493C8.09926 46.9778 8.98074 46.9596 9.9063 46.9596ZM46.1093 34.3259V46.9648C46.9856 46.9648 47.8126 46.9648 48.6396 46.9648C49.3474 46.9648 49.6767 46.6304 49.6767 45.9278C49.6767 45.15 49.6767 44.3722 49.6767 43.6126C49.6767 40.8852 49.6767 38.1578 49.6767 35.4304C49.6767 34.7615 49.3811 34.3674 48.7926 34.3441C47.9111 34.3026 47.027 34.3259 46.1093 34.3259ZM20.79 25.2519H35.1893V23.5278H20.79V25.2519ZM28.013 18.0652C28.4898 18.0618 28.9461 17.8709 29.2833 17.5337C29.6205 17.1965 29.8114 16.7402 29.8148 16.2633C29.8401 16.01 29.8118 15.7541 29.7318 15.5124C29.6517 15.2707 29.5217 15.0485 29.3501 14.8603C29.1786 14.6722 28.9693 14.5222 28.736 14.4202C28.5027 14.3182 28.2506 14.2664 27.9959 14.2682C27.7413 14.2701 27.4899 14.3255 27.2581 14.4308C27.0263 14.5362 26.8193 14.6891 26.6504 14.8797C26.4816 15.0703 26.3548 15.2944 26.2782 15.5372C26.2016 15.78 26.177 16.0363 26.2059 16.2893C26.2181 16.7611 26.4135 17.2097 26.7509 17.5398C27.0883 17.8699 27.541 18.0555 28.013 18.0574V18.0652Z" fill="#E45412"/>
<path d="M15.3559 16.2581C15.3559 17.1189 15.3559 17.8915 15.3559 18.6615C15.3559 19.1411 15.3041 19.5793 14.8063 19.7919C14.3085 20.0044 13.9196 19.7322 13.5696 19.3744C12.6467 18.4359 11.7211 17.4974 10.7696 16.59C10.5547 16.3974 10.2801 16.2848 9.99185 16.2711C7.65852 16.2478 5.32519 16.2711 2.99185 16.2556C1.07593 16.253 0 15.1693 0 13.243C0 9.82074 0 6.39765 0 2.9737C0 1.10444 1.11481 0 2.99444 0H20.4815C22.3637 0 23.4759 1.10444 23.4785 2.97111C23.4785 6.4279 23.4785 9.88469 23.4785 13.3415C23.4785 15.1148 22.3689 16.2322 20.5956 16.2452C19.0737 16.2452 17.5493 16.2452 16.0248 16.2452L15.3559 16.2581ZM13.3933 16.7222L13.5489 16.6185V15.667C13.5489 14.7519 13.847 14.4537 14.7648 14.4511C16.647 14.4511 18.5267 14.4511 20.4063 14.4511C21.4122 14.4511 21.6767 14.1919 21.6767 13.1885C21.6767 9.82333 21.6767 6.45815 21.6767 3.09296C21.6767 2.08963 21.4019 1.79667 20.4167 1.79667H3.0463C2.09222 1.81481 1.81481 2.09741 1.81481 3.06185C1.81481 6.44605 1.81481 9.83284 1.81481 13.2222C1.81481 14.1841 2.07407 14.4563 3.05407 14.4589C5.51704 14.4589 7.98 14.4589 10.443 14.4589C10.695 14.4438 10.9472 14.4873 11.1797 14.5858C11.4122 14.6842 11.6188 14.8351 11.7833 15.0267C12.2993 15.5944 12.8541 16.1544 13.3933 16.7222Z" fill="#1E1E1E"/>
<path d="M15.3559 16.2581C15.3559 17.1189 15.3559 17.8915 15.3559 18.6615C15.3559 19.1411 15.3041 19.5793 14.8063 19.7919C14.3085 20.0044 13.9196 19.7322 13.5696 19.3744C12.6467 18.4359 11.7211 17.4974 10.7696 16.59C10.5547 16.3974 10.2801 16.2848 9.99185 16.2711C7.65852 16.2478 5.32519 16.2711 2.99185 16.2556C1.07593 16.253 0 15.1693 0 13.243C0 9.82074 0 6.39765 0 2.9737C0 1.10444 1.11481 0 2.99444 0H20.4815C22.3637 0 23.4759 1.10444 23.4785 2.97111C23.4785 6.4279 23.4785 9.88469 23.4785 13.3415C23.4785 15.1148 22.3689 16.2322 20.5956 16.2452C19.0737 16.2452 17.5493 16.2452 16.0248 16.2452L15.3559 16.2581ZM13.3933 16.7222L13.5489 16.6185V15.667C13.5489 14.7519 13.847 14.4537 14.7648 14.4511C16.647 14.4511 18.5267 14.4511 20.4063 14.4511C21.4122 14.4511 21.6767 14.1919 21.6767 13.1885C21.6767 9.82333 21.6767 6.45815 21.6767 3.09296C21.6767 2.08963 21.4019 1.79667 20.4167 1.79667H3.0463C2.09222 1.81481 1.81481 2.09741 1.81481 3.06185C1.81481 6.44605 1.81481 9.83284 1.81481 13.2222C1.81481 14.1841 2.07407 14.4563 3.05407 14.4589C5.51704 14.4589 7.98 14.4589 10.443 14.4589C10.695 14.4438 10.9472 14.4873 11.1797 14.5858C11.4122 14.6842 11.6188 14.8351 11.7833 15.0267C12.2993 15.5944 12.8541 16.1544 13.3933 16.7222Z" fill="#E45412"/>
<path d="M40.6441 19.8696C39.3244 19.8696 38.0696 19.8696 36.8122 19.8696C36.2496 19.8696 35.6844 19.8696 35.1193 19.8696C34.4358 19.8564 33.7841 19.5789 33.3007 19.0956C32.8173 18.6122 32.5399 17.9605 32.5267 17.277C32.5042 13.6094 32.5042 9.94086 32.5267 6.27148C32.537 4.73926 33.7556 3.62963 35.337 3.62963C38.6115 3.62963 41.8833 3.62963 45.1552 3.62963H52.933C54.893 3.62963 55.987 4.71333 55.987 6.65259C55.987 10.0783 55.987 13.5022 55.987 16.9244C55.987 18.773 54.8955 19.8774 53.0496 19.8826C50.6981 19.8826 48.3467 19.8826 45.9978 19.9007C45.7096 19.9125 45.4345 20.0243 45.22 20.217C44.24 21.1504 43.2885 22.1148 42.337 23.0689C42.0078 23.4033 41.6448 23.603 41.1807 23.4085C40.7167 23.2141 40.6181 22.8044 40.6285 22.3352C40.6544 21.5444 40.6441 20.7563 40.6441 19.8696ZM42.4589 20.2378L42.5911 20.3104C43.1563 19.7322 43.7318 19.167 44.2789 18.5759C44.4341 18.4017 44.6266 18.2646 44.842 18.1749C45.0574 18.0851 45.2903 18.045 45.5233 18.0574C48.0252 18.073 50.5244 18.0574 53.0263 18.0574C53.9104 18.0574 54.1981 17.7619 54.1981 16.8674C54.1981 13.4642 54.1981 10.061 54.1981 6.65778C54.1981 5.7037 53.9104 5.41593 52.9537 5.41593C47.1618 5.41593 41.3717 5.41593 35.5833 5.41593C34.6241 5.41593 34.3337 5.7037 34.3337 6.65519C34.3337 10.0031 34.3337 13.3493 34.3337 16.6937C34.3337 17.8215 34.5644 18.0574 35.6715 18.0574H41.1444C42.2048 18.0574 42.4589 18.3167 42.4615 19.3978L42.4589 20.2378Z" fill="#1E1E1E"/>
<path d="M40.6441 19.8696C39.3244 19.8696 38.0696 19.8696 36.8122 19.8696C36.2496 19.8696 35.6844 19.8696 35.1193 19.8696C34.4358 19.8564 33.7841 19.5789 33.3007 19.0956C32.8173 18.6122 32.5399 17.9605 32.5267 17.277C32.5042 13.6094 32.5042 9.94086 32.5267 6.27148C32.537 4.73926 33.7556 3.62963 35.337 3.62963C38.6115 3.62963 41.8833 3.62963 45.1552 3.62963H52.933C54.893 3.62963 55.987 4.71333 55.987 6.65259C55.987 10.0783 55.987 13.5022 55.987 16.9244C55.987 18.773 54.8955 19.8774 53.0496 19.8826C50.6981 19.8826 48.3467 19.8826 45.9978 19.9007C45.7096 19.9125 45.4345 20.0243 45.22 20.217C44.24 21.1504 43.2885 22.1148 42.337 23.0689C42.0078 23.4033 41.6448 23.603 41.1807 23.4085C40.7167 23.2141 40.6181 22.8044 40.6285 22.3352C40.6544 21.5444 40.6441 20.7563 40.6441 19.8696ZM42.4589 20.2378L42.5911 20.3104C43.1563 19.7322 43.7318 19.167 44.2789 18.5759C44.4341 18.4017 44.6266 18.2646 44.842 18.1749C45.0574 18.0851 45.2903 18.045 45.5233 18.0574C48.0252 18.073 50.5244 18.0574 53.0263 18.0574C53.9104 18.0574 54.1981 17.7619 54.1981 16.8674C54.1981 13.4642 54.1981 10.061 54.1981 6.65778C54.1981 5.7037 53.9104 5.41593 52.9537 5.41593C47.1618 5.41593 41.3717 5.41593 35.5833 5.41593C34.6241 5.41593 34.3337 5.7037 34.3337 6.65519C34.3337 10.0031 34.3337 13.3493 34.3337 16.6937C34.3337 17.8215 34.5644 18.0574 35.6715 18.0574H41.1444C42.2048 18.0574 42.4589 18.3167 42.4615 19.3978L42.4589 20.2378Z" fill="#E45412"/>
<path d="M35.7778 41.5463C36.7344 41.5463 36.9911 41.8367 37.0248 42.7959C37.0942 43.9989 36.9225 45.2036 36.5196 46.3392C36.1168 47.4749 35.4909 48.5185 34.6789 49.4088C33.8669 50.2991 32.8852 51.0181 31.7913 51.5235C30.6975 52.0289 29.5136 52.3105 28.3094 52.3518C27.1051 52.3931 25.9047 52.1933 24.7788 51.764C23.6529 51.3347 22.6242 50.6847 21.7531 49.8521C20.882 49.0196 20.1861 48.0213 19.7064 46.9159C19.2267 45.8106 18.9728 44.6205 18.9596 43.4156C18.9441 41.6189 19.0167 41.5463 20.8211 41.5463H35.7778ZM20.7667 43.387C20.873 46.06 21.993 48.1419 24.2407 49.503C26.7556 51.0274 29.3663 51.0041 31.863 49.4382C34.0511 48.0641 35.127 46.0056 35.2333 43.387H20.7667Z" fill="#1E1E1E"/>
<path d="M35.7778 41.5463C36.7344 41.5463 36.9911 41.8367 37.0248 42.7959C37.0942 43.9989 36.9225 45.2036 36.5196 46.3392C36.1168 47.4749 35.4909 48.5185 34.6789 49.4088C33.8669 50.2991 32.8852 51.0181 31.7913 51.5235C30.6975 52.0289 29.5136 52.3105 28.3094 52.3518C27.1051 52.3931 25.9047 52.1933 24.7788 51.764C23.6529 51.3347 22.6242 50.6847 21.7531 49.8521C20.882 49.0196 20.1861 48.0213 19.7064 46.9159C19.2267 45.8106 18.9728 44.6205 18.9596 43.4156C18.9441 41.6189 19.0167 41.5463 20.8211 41.5463H35.7778ZM20.7667 43.387C20.873 46.06 21.993 48.1419 24.2407 49.503C26.7556 51.0274 29.3663 51.0041 31.863 49.4382C34.0511 48.0641 35.127 46.0056 35.2333 43.387H20.7667Z" fill="#E45412"/>
<path d="M18.9778 39.7341C18.2646 39.7356 17.5669 39.5258 16.9728 39.1311C16.3788 38.7364 15.915 38.1745 15.6401 37.5164C15.3652 36.8583 15.2914 36.1335 15.4281 35.4335C15.5648 34.7335 15.9058 34.0897 16.4081 33.5834C16.9105 33.0771 17.5516 32.731 18.2505 32.5888C18.9493 32.4466 19.6747 32.5146 20.3349 32.7844C20.9952 33.0541 21.5607 33.5134 21.9601 34.1043C22.3595 34.6952 22.5748 35.3912 22.5789 36.1044C22.5823 36.5796 22.4917 37.0508 22.3123 37.4909C22.1329 37.9309 21.8682 38.3312 21.5335 38.6685C21.1988 39.0059 20.8007 39.2737 20.3621 39.4566C19.9235 39.6394 19.453 39.7337 18.9778 39.7341ZM18.9778 37.9193C19.4538 37.9193 19.9107 37.7324 20.2502 37.3988C20.5896 37.0651 20.7844 36.6115 20.7926 36.1356C20.8179 35.8832 20.7901 35.6284 20.7109 35.3874C20.6316 35.1465 20.5028 34.9249 20.3327 34.7368C20.1625 34.5487 19.9549 34.3984 19.7231 34.2955C19.4913 34.1926 19.2405 34.1395 18.9869 34.1395C18.7332 34.1395 18.4824 34.1926 18.2506 34.2955C18.0188 34.3984 17.8112 34.5487 17.641 34.7368C17.4709 34.9249 17.3421 35.1465 17.2628 35.3874C17.1836 35.6284 17.1558 35.8832 17.1811 36.1356C17.1871 36.6084 17.3775 37.0601 17.7116 37.3947C18.0457 37.7293 18.4972 37.9203 18.97 37.927L18.9778 37.9193Z" fill="#1E1E1E"/>
<path d="M18.9778 39.7341C18.2646 39.7356 17.5669 39.5258 16.9728 39.1311C16.3788 38.7364 15.915 38.1745 15.6401 37.5164C15.3652 36.8583 15.2914 36.1335 15.4281 35.4335C15.5648 34.7335 15.9058 34.0897 16.4081 33.5834C16.9105 33.0771 17.5516 32.731 18.2505 32.5888C18.9493 32.4466 19.6747 32.5146 20.3349 32.7844C20.9952 33.0541 21.5607 33.5134 21.9601 34.1043C22.3595 34.6952 22.5748 35.3912 22.5789 36.1044C22.5823 36.5796 22.4917 37.0508 22.3123 37.4909C22.1329 37.9309 21.8682 38.3312 21.5335 38.6685C21.1988 39.0059 20.8007 39.2737 20.3621 39.4566C19.9235 39.6394 19.453 39.7337 18.9778 39.7341ZM18.9778 37.9193C19.4538 37.9193 19.9107 37.7324 20.2502 37.3988C20.5896 37.0651 20.7844 36.6115 20.7926 36.1356C20.8179 35.8832 20.7901 35.6284 20.7109 35.3874C20.6316 35.1465 20.5028 34.9249 20.3327 34.7368C20.1625 34.5487 19.9549 34.3984 19.7231 34.2955C19.4913 34.1926 19.2405 34.1395 18.9869 34.1395C18.7332 34.1395 18.4824 34.1926 18.2506 34.2955C18.0188 34.3984 17.8112 34.5487 17.641 34.7368C17.4709 34.9249 17.3421 35.1465 17.2628 35.3874C17.1836 35.6284 17.1558 35.8832 17.1811 36.1356C17.1871 36.6084 17.3775 37.0601 17.7116 37.3947C18.0457 37.7293 18.4972 37.9203 18.97 37.927L18.9778 37.9193Z" fill="#E45412"/>
<path d="M37.0196 39.7341C36.0625 39.7341 35.1446 39.3539 34.4678 38.6771C33.791 38.0003 33.4107 37.0823 33.4107 36.1252C33.4107 35.168 33.791 34.2501 34.4678 33.5733C35.1446 32.8965 36.0625 32.5163 37.0196 32.5163C37.9796 32.5163 38.9004 32.8966 39.5807 33.5739C40.2609 34.2512 40.6451 35.1704 40.6493 36.1304C40.6496 36.6059 40.5558 37.0768 40.3732 37.5159C40.1906 37.955 39.9228 38.3535 39.5854 38.6886C39.2479 39.0236 38.8474 39.2885 38.4071 39.4679C37.9667 39.6474 37.4951 39.7378 37.0196 39.7341ZM37.0326 37.9193C37.5086 37.9193 37.9655 37.7324 38.305 37.3988C38.6444 37.0651 38.8392 36.6115 38.8474 36.1356C38.8727 35.8832 38.8449 35.6284 38.7657 35.3874C38.6865 35.1465 38.5576 34.9249 38.3875 34.7368C38.2174 34.5487 38.0097 34.3984 37.7779 34.2955C37.5461 34.1926 37.2953 34.1395 37.0417 34.1395C36.7881 34.1395 36.5373 34.1926 36.3055 34.2955C36.0736 34.3984 35.866 34.5487 35.6958 34.7368C35.5257 34.9249 35.3969 35.1465 35.3177 35.3874C35.2384 35.6284 35.2106 35.8832 35.2359 36.1356C35.242 36.6097 35.4334 37.0626 35.7692 37.3974C36.105 37.7322 36.5584 37.9223 37.0326 37.927V37.9193Z" fill="#1E1E1E"/>
<path d="M37.0196 39.7341C36.0625 39.7341 35.1446 39.3539 34.4678 38.6771C33.791 38.0003 33.4107 37.0823 33.4107 36.1252C33.4107 35.168 33.791 34.2501 34.4678 33.5733C35.1446 32.8965 36.0625 32.5163 37.0196 32.5163C37.9796 32.5163 38.9004 32.8966 39.5807 33.5739C40.2609 34.2512 40.6451 35.1704 40.6493 36.1304C40.6496 36.6059 40.5558 37.0768 40.3732 37.5159C40.1906 37.955 39.9228 38.3535 39.5854 38.6886C39.2479 39.0236 38.8474 39.2885 38.4071 39.4679C37.9667 39.6474 37.4951 39.7378 37.0196 39.7341ZM37.0326 37.9193C37.5086 37.9193 37.9655 37.7324 38.305 37.3988C38.6444 37.0651 38.8392 36.6115 38.8474 36.1356C38.8727 35.8832 38.8449 35.6284 38.7657 35.3874C38.6865 35.1465 38.5576 34.9249 38.3875 34.7368C38.2174 34.5487 38.0097 34.3984 37.7779 34.2955C37.5461 34.1926 37.2953 34.1395 37.0417 34.1395C36.7881 34.1395 36.5373 34.1926 36.3055 34.2955C36.0736 34.3984 35.866 34.5487 35.6958 34.7368C35.5257 34.9249 35.3969 35.1465 35.3177 35.3874C35.2384 35.6284 35.2106 35.8832 35.2359 36.1356C35.242 36.6097 35.4334 37.0626 35.7692 37.3974C36.105 37.7322 36.5584 37.9223 37.0326 37.927V37.9193Z" fill="#E45412"/>
<path d="M3.64518 5.37963V3.62963H19.823V5.36926L3.64518 5.37963Z" fill="#1E1E1E"/>
<path d="M3.64518 5.37963V3.62963H19.823V5.36926L3.64518 5.37963Z" fill="#E45412"/>
<path d="M19.8567 10.8889V12.6052H3.65815V10.8889H19.8567Z" fill="#1E1E1E"/>
<path d="M19.8567 10.8889V12.6052H3.65815V10.8889H19.8567Z" fill="#E45412"/>
<path d="M5.44444 8.98852V7.25926H18.0341V8.99111L5.44444 8.98852Z" fill="#1E1E1E"/>
<path d="M5.44444 8.98852V7.25926H18.0341V8.99111L5.44444 8.98852Z" fill="#E45412"/>
<path d="M52.3704 9.01185H36.1667V7.25926H52.3704V9.01185Z" fill="#1E1E1E"/>
<path d="M52.3704 9.01185H36.1667V7.25926H52.3704V9.01185Z" fill="#E45412"/>
<path d="M36.1615 16.2193V14.477H52.3393V16.2193H36.1615Z" fill="#1E1E1E"/>
<path d="M36.1615 16.2193V14.477H52.3393V16.2193H36.1615Z" fill="#E45412"/>
<path d="M50.5556 10.8733V12.6104H37.9607V10.8733H50.5556Z" fill="#1E1E1E"/>
<path d="M50.5556 10.8733V12.6104H37.9607V10.8733H50.5556Z" fill="#E45412"/>
</svg>
