<svg width="55" height="55" viewBox="0 0 55 55" fill="none" xmlns="http://www.w3.org/2000/svg">
<path d="M37.0144 27.9203H35.2256V10.8273H4.8637C2.95815 10.8273 1.87444 11.9214 1.87185 13.8373C1.87185 14.9081 1.87185 15.9762 1.87185 17.091H0C0.0751852 15.5147 -0.0181482 13.9021 0.259259 12.3621C0.653333 10.3036 2.54852 9.02547 4.77037 9.02547H35.1841V7.22361C34.6474 7.22361 34.1107 7.22361 33.5741 7.22361C33.3678 7.25168 33.158 7.21036 32.9778 7.10617C32.7976 7.00198 32.6571 6.84082 32.5785 6.64806C32.4048 6.22287 32.5785 5.88584 32.8689 5.5825C34.6077 3.85411 36.3473 2.11707 38.0878 0.371391C38.5907 -0.126386 39.0496 -0.121201 39.5578 0.371391C41.3017 2.09979 43.0414 3.83855 44.7767 5.58769C44.932 5.71133 45.0418 5.88315 45.0888 6.07607C45.1357 6.26899 45.1171 6.47205 45.0359 6.65324C44.9588 6.83644 44.8244 6.98974 44.6529 7.09022C44.4814 7.1907 44.282 7.23295 44.0844 7.21065C43.5452 7.21065 43.0059 7.21065 42.4407 7.21065V8.98139C42.6041 8.98139 42.7648 9.0125 42.9256 9.0125H45.7981C48.6085 9.0125 50.5218 10.9362 50.5244 13.7621C50.5244 19.0925 50.5244 24.4229 50.5244 29.7532V31.511H48.7226V13.9825C48.7226 11.8618 47.6856 10.8273 45.5933 10.8273H42.4433V27.0103H40.6285V6.74398C40.6285 5.70695 40.8489 5.46324 41.7615 5.4088L38.7619 2.41435L35.7907 5.39065C35.8659 5.39065 36.0189 5.40621 36.1718 5.42695C36.3901 5.44062 36.5957 5.53401 36.7496 5.68935C36.9035 5.84469 36.995 6.05117 37.0067 6.26954C37.0132 6.38179 37.0132 6.49433 37.0067 6.60658V27.9203H37.0144Z" fill="#E45412"/>
<path d="M15.4 34.2306H17.2148V21.1251C17.2148 20.0881 17.4741 19.8288 18.5111 19.8288C20.1047 19.8288 21.7 19.8288 23.297 19.8288C24.1007 19.8288 24.4144 20.1477 24.4144 20.9618C24.4144 25.1669 24.4144 29.3713 24.4144 33.5747V34.2125H26.2293V14.8381C26.2293 13.801 26.4885 13.5418 27.5256 13.5418C29.1589 13.5418 30.7922 13.5418 32.423 13.5418C33.0944 13.5418 33.447 13.8814 33.447 14.5399C33.447 19.5523 33.447 24.5646 33.447 29.5769C33.4404 29.6263 33.4291 29.6749 33.4133 29.7221H31.6296V15.3773H28.0181V36.0247H4.62V34.2695H8.17963V33.6084C8.17963 31.5067 8.17963 29.4041 8.17963 27.3006C8.17963 26.4529 8.48556 26.1469 9.33333 26.1469C10.9632 26.1469 12.5957 26.1469 14.2307 26.1469C15.0785 26.1469 15.3844 26.4529 15.387 27.2981C15.4 29.5873 15.4 31.8766 15.4 34.2306ZM22.5685 34.2306V21.6851H19.0296V34.2306H22.5685ZM10.0281 27.9695V34.2229H13.5489V27.9695H10.0281Z" fill="#E45412"/>
<path d="M15.4156 54.0406V52.2829H17.417L19.5818 45.0677H4.92074C1.95222 45.0677 0.07 43.1829 0.07 40.2169C0.07 33.3466 0.07 26.4771 0.07 19.6084V18.9681H1.84074V37.8603H27.0667V39.6466H1.96519C1.47 41.591 2.74296 43.2632 4.71852 43.2632C12.2267 43.2632 19.7339 43.2632 27.2404 43.2632H27.9585V45.0781H27.0356C25.327 45.0781 23.6185 45.0781 21.9126 45.0781C21.6533 45.0781 21.4537 45.0781 21.3604 45.3969C20.7019 47.6447 20.0252 49.8847 19.3537 52.1377C19.3486 52.1825 19.3486 52.2277 19.3537 52.2725H31.2796C30.9556 51.1784 30.6393 50.1051 30.3022 48.9644L32.0081 48.4329L33.1852 52.3062H35.1815V54.0614L15.4156 54.0406Z" fill="#E45412"/>
<path d="M45.2148 49.011C39.4981 52.1714 33.4574 49.8199 30.6963 45.6718C29.2981 43.5779 28.6734 41.0623 28.9296 38.5576C29.1858 36.0529 30.3069 33.7159 32.1001 31.9485C33.8932 30.1811 36.2463 29.094 38.7544 28.8741C41.2625 28.6542 43.7689 29.3153 45.8422 30.7436C49.9904 33.5955 52.137 39.5921 49.0363 45.1792L52.4456 48.5807C52.7489 48.8866 53.0652 49.1821 53.3555 49.501C53.8534 50.0105 54.1284 50.6969 54.1201 51.4092C54.1118 52.1215 53.821 52.8013 53.3115 53.2992C53.0662 53.547 52.7744 53.744 52.4529 53.8789C52.1313 54.0138 51.7864 54.084 51.4377 54.0854C51.089 54.0869 50.7434 54.0195 50.4208 53.8873C50.0982 53.755 49.8048 53.5605 49.5574 53.3147C48.1781 51.9899 46.843 50.6184 45.487 49.2677C45.4093 49.1769 45.3107 49.094 45.2148 49.011ZM39.7133 30.6529C37.9303 30.6524 36.1871 31.181 34.7047 32.1718C33.2222 33.1626 32.0671 34.571 31.3856 36.2187C30.704 37.8663 30.5268 39.6792 30.8762 41.4277C31.2257 43.1762 32.0861 44.7817 33.3485 46.0409C34.611 47.3001 36.2187 48.1563 37.9681 48.5012C39.7175 48.8461 41.5299 48.6642 43.1758 47.9784C44.8218 47.2926 46.2272 46.1338 47.2141 44.6488C48.201 43.1638 48.7251 41.4193 48.72 39.6362C48.7111 37.2537 47.7597 34.9716 46.0735 33.2884C44.3874 31.6051 42.1036 30.6576 39.7211 30.6529H39.7133ZM46.7367 47.9481C48.0848 49.3014 49.4356 50.6729 50.807 52.021C50.9759 52.1767 51.1982 52.2612 51.4278 52.257C51.6574 52.2529 51.8766 52.1603 52.0396 51.9986C52.2027 51.8368 52.297 51.6185 52.3031 51.3889C52.3092 51.1594 52.2265 50.9363 52.0722 50.7662C50.7215 49.3921 49.3526 48.0414 47.9967 46.6855L46.7367 47.9481Z" fill="#E45412"/>
<path d="M44.253 1.79472V0.0602804C46.9985 -0.154905 49.6715 2.5025 49.6041 5.38287H47.8489C47.8078 4.44576 47.424 3.55636 46.7704 2.88361C46.0967 2.21891 45.1987 1.83046 44.253 1.79472Z" fill="#E45412"/>
<path d="M4.5863 14.3844V12.6707H6.33889V14.3844H4.5863Z" fill="#E45412"/>
<path d="M8.22111 12.6525H9.95555V14.4051H8.22111V12.6525Z" fill="#E45412"/>
<path d="M13.5644 12.6551V14.3947H11.8144V12.6551H13.5644Z" fill="#E45412"/>
<path d="M39.7885 32.4547C41.2147 32.4687 42.6046 32.9054 43.7824 33.7097C44.9603 34.514 45.873 35.6497 46.405 36.9729C46.9371 38.2962 47.0646 39.7476 46.7715 41.1433C46.4783 42.5391 45.7776 43.8165 44.7581 44.8139C43.7386 45.8112 42.4461 46.4837 41.0442 46.7461C39.6424 47.0086 38.1941 46.8492 36.8829 46.2882C35.5716 45.7271 34.4563 44.7897 33.6781 43.5945C32.8999 42.3993 32.4937 41.0001 32.5111 39.574C32.5405 37.6676 33.3216 35.8499 34.6846 34.5165C36.0475 33.1832 37.8819 32.4422 39.7885 32.4547ZM34.3104 39.6751C34.3129 40.7442 34.6325 41.7885 35.2286 42.6761C35.8247 43.5636 36.6706 44.2544 37.6593 44.6611C38.648 45.0679 39.7351 45.1723 40.7832 44.9613C41.8313 44.7502 42.7932 44.233 43.5474 43.4752C44.3015 42.7174 44.8141 41.753 45.0201 40.704C45.2262 39.6549 45.1165 38.5683 44.705 37.5815C44.2935 36.5948 43.5987 35.7522 42.7083 35.1604C41.8179 34.5685 40.7721 34.254 39.703 34.2566C38.2704 34.2634 36.8988 34.8373 35.8882 35.8528C34.8777 36.8682 34.3104 38.2425 34.3104 39.6751Z" fill="#E45412"/>
<path d="M39.6978 36.0869V37.8266C38.6478 37.9769 38.0385 38.5629 37.883 39.6414H36.1641C35.9826 38.034 37.5744 36.0247 39.6978 36.0869Z" fill="#E45412"/>
</svg>
