<svg width="13" height="14" viewBox="0 0 13 14" fill="none" xmlns="http://www.w3.org/2000/svg">
<path d="M0 12.6875V5.25H12.25V12.6875C12.25 13.4258 11.6484 14 10.9375 14H1.3125C0.574219 14 0 13.4258 0 12.6875ZM8.75 7.32812V8.42188C8.75 8.61328 8.88672 8.75 9.07812 8.75H10.1719C10.3359 8.75 10.5 8.61328 10.5 8.42188V7.32812C10.5 7.16406 10.3359 7 10.1719 7H9.07812C8.88672 7 8.75 7.16406 8.75 7.32812ZM8.75 10.8281V11.9219C8.75 12.1133 8.88672 12.25 9.07812 12.25H10.1719C10.3359 12.25 10.5 12.1133 10.5 11.9219V10.8281C10.5 10.6641 10.3359 10.5 10.1719 10.5H9.07812C8.88672 10.5 8.75 10.6641 8.75 10.8281ZM5.25 7.32812V8.42188C5.25 8.61328 5.38672 8.75 5.57812 8.75H6.67188C6.83594 8.75 7 8.61328 7 8.42188V7.32812C7 7.16406 6.83594 7 6.67188 7H5.57812C5.38672 7 5.25 7.16406 5.25 7.32812ZM5.25 10.8281V11.9219C5.25 12.1133 5.38672 12.25 5.57812 12.25H6.67188C6.83594 12.25 7 12.1133 7 11.9219V10.8281C7 10.6641 6.83594 10.5 6.67188 10.5H5.57812C5.38672 10.5 5.25 10.6641 5.25 10.8281ZM1.75 7.32812V8.42188C1.75 8.61328 1.88672 8.75 2.07812 8.75H3.17188C3.33594 8.75 3.5 8.61328 3.5 8.42188V7.32812C3.5 7.16406 3.33594 7 3.17188 7H2.07812C1.88672 7 1.75 7.16406 1.75 7.32812ZM1.75 10.8281V11.9219C1.75 12.1133 1.88672 12.25 2.07812 12.25H3.17188C3.33594 12.25 3.5 12.1133 3.5 11.9219V10.8281C3.5 10.6641 3.33594 10.5 3.17188 10.5H2.07812C1.88672 10.5 1.75 10.6641 1.75 10.8281ZM10.9375 1.75C11.6484 1.75 12.25 2.35156 12.25 3.0625V4.375H0V3.0625C0 2.35156 0.574219 1.75 1.3125 1.75H2.625V0.4375C2.625 0.21875 2.81641 0 3.0625 0H3.9375C4.15625 0 4.375 0.21875 4.375 0.4375V1.75H7.875V0.4375C7.875 0.21875 8.06641 0 8.3125 0H9.1875C9.40625 0 9.625 0.21875 9.625 0.4375V1.75H10.9375Z" fill="#F68E41"/>
</svg>
