<svg width="48" height="49" viewBox="0 0 48 49" fill="none" xmlns="http://www.w3.org/2000/svg">
<path d="M11.3457 26.1693C11.3457 25.9772 11.3712 25.8337 11.3712 25.6901C11.3712 25.0767 11.3712 24.461 11.3712 23.7712H10.7647C7.84109 23.7712 4.91517 23.7712 1.99156 23.7712C0.917484 23.7712 0.304058 23.3753 0.0748917 22.5397C0.0199263 22.3038 -0.00496287 22.0619 0.000817605 21.8198C0.000817605 20.5034 0.000817605 19.1871 0.000817605 17.8707C0.000817605 16.5304 0.623503 15.8962 1.96378 15.8939C4.88971 15.8939 7.81332 15.8939 10.7392 15.8939H11.3735V15.2642C11.3735 11.2364 11.3735 7.20713 11.3735 3.17626C11.3735 1.61839 12.2115 0.451725 13.5726 0.109133C13.8898 0.0428384 14.2139 0.0148605 14.5379 0.0257992C20.598 0.0257992 26.6605 0.0628364 32.7207 0.00033636C34.6189 -0.020497 35.9337 0.926262 36.1605 2.89154C36.4221 2.90543 36.6906 2.91469 36.9615 2.93552C37.9616 3.00415 38.8965 3.45705 39.5703 4.19941C39.644 4.2922 39.7438 4.36077 39.8568 4.39626C39.9699 4.43175 40.091 4.43252 40.2045 4.39848C42.723 3.86608 44.0772 5.73413 44.2716 7.22719C44.5494 9.37996 43.1397 11.1624 41.0494 11.2665C39.6605 11.329 38.2554 11.2874 36.8573 11.2943H36.2601V19.4702C37.4175 19.4702 38.5541 19.4702 39.6883 19.4564C39.8249 19.4564 39.9846 19.2851 40.0865 19.1577C40.5318 18.5896 41.1094 18.139 41.7688 17.8451C42.4282 17.5512 43.1494 17.4229 43.8697 17.4716C44.59 17.5202 45.2874 17.7441 45.9013 18.124C46.5153 18.5038 47.027 19.028 47.392 19.6508C47.8434 20.3985 47.5309 20.9726 46.6582 20.9864C46.1073 20.9864 45.5541 20.9864 45.0008 20.9864C44.8908 20.9864 44.7818 21.0081 44.6801 21.0502C44.5785 21.0923 44.4861 21.1541 44.4083 21.2319C44.3305 21.3097 44.2687 21.4021 44.2266 21.5037C44.1845 21.6054 44.1628 21.7144 44.1628 21.8244C44.1628 21.9345 44.1845 22.0434 44.2266 22.1451C44.2687 22.2467 44.3305 22.3391 44.4083 22.4169C44.4861 22.4948 44.5785 22.5565 44.6801 22.5986C44.7818 22.6407 44.8908 22.6624 45.0008 22.6624C45.5865 22.6763 46.1721 22.6624 46.7554 22.6624C47.5031 22.6786 47.8156 23.2388 47.4499 23.9031C45.9939 26.5952 42.1582 26.9471 40.1906 24.5536C40.0936 24.4188 39.9632 24.3115 39.8123 24.2421C39.6614 24.1727 39.495 24.1436 39.3295 24.1577C38.3249 24.1786 37.3179 24.1577 36.2716 24.1577V31.4309H36.8041C39.4036 31.4309 42.0031 31.4309 44.605 31.4309C46.0471 31.4309 47.2138 32.2411 47.4059 33.5721C47.5595 34.6814 47.5649 35.8062 47.4221 36.917C47.267 38.123 46.1281 38.9147 44.8388 38.9193C42.1744 38.9193 39.5147 38.9193 36.8434 38.9193H36.23V39.5189C36.23 41.3221 36.23 43.1253 36.23 44.9286C36.2184 46.4425 35.3619 47.5976 34.0124 47.9378C33.7272 47.9982 33.4357 48.0238 33.1443 48.0142C26.919 48.0142 20.6953 48.0142 14.473 48.0142C12.5772 48.0142 11.4152 46.8568 11.3781 44.961C11.3781 44.6878 11.3781 44.4147 11.3781 44.1207C10.9939 44.1207 10.6698 44.1207 10.348 44.1207C9.9059 44.1203 9.47537 43.9792 9.11874 43.7178C8.76211 43.4565 8.49787 43.0885 8.36424 42.667C8.07489 41.8383 7.72535 41.6994 6.95684 42.1045C6.58145 42.3043 6.15144 42.3771 5.73121 42.312C5.31099 42.2469 4.92316 42.0474 4.62582 41.7434C4.45684 41.5698 4.28322 41.3985 4.11424 41.2226C3.77083 40.8936 3.55817 40.4514 3.51562 39.9777C3.47306 39.5041 3.60348 39.0311 3.88276 38.6462C4.22767 38.1253 4.03785 37.5999 3.43832 37.4101C2.28091 37.0443 1.80406 36.3892 1.79248 35.1855C1.78091 33.8128 2.25545 33.0814 3.37813 32.7017C4.01008 32.4888 4.19063 32.0814 3.88739 31.5559C3.62118 31.1424 3.50786 30.6488 3.56704 30.1606C3.62621 29.6724 3.85417 29.2202 4.21146 28.8823C5.07952 27.9702 6.02628 27.7573 7.01471 28.2526C7.76471 28.6276 8.20915 28.4425 8.46609 27.6415C8.58821 27.2165 8.84534 26.8427 9.19863 26.5767C9.55192 26.3107 9.98219 26.1669 10.4244 26.167C10.7022 26.1601 10.9939 26.1693 11.3457 26.1693ZM12.8735 23.7781V28.3892C12.8735 33.8969 12.8735 39.4031 12.8735 44.9077C12.8735 46.0351 13.3851 46.542 14.5124 46.542H33.0818C34.1628 46.542 34.723 45.9795 34.7254 44.8892C34.7254 43.0698 34.7254 41.2503 34.7254 39.4309V38.9401H34.0679C28.446 38.9401 22.8249 38.9401 17.2045 38.9401C15.5587 38.9401 14.3851 37.7712 14.3573 36.123C14.3573 35.6207 14.3573 35.1161 14.3573 34.6114C14.3573 32.5466 15.4476 31.4494 17.5078 31.4494H34.6906V11.2781C33.9105 11.2781 33.1652 11.3059 32.4221 11.2781C32.0191 11.2716 31.6214 11.1846 31.2525 11.0222C30.8836 10.8598 30.5509 10.6252 30.2739 10.3324C29.997 10.0395 29.7814 9.69414 29.6399 9.31671C29.4984 8.93928 29.4338 8.53736 29.4499 8.13459C29.4869 6.47487 30.7855 5.24802 32.5309 5.19941C32.7069 5.17648 32.87 5.09493 32.9939 4.96793C33.4692 4.50497 33.9321 4.03274 34.3828 3.55126C34.513 3.42766 34.5999 3.26528 34.6304 3.0883C34.6721 2.09987 34.0911 1.51191 33.0865 1.51191H14.605C13.4105 1.51191 12.8758 2.03969 12.8735 3.22256V15.8869H13.4916C16.8874 15.8869 20.2809 15.8869 23.6767 15.8869C25.0124 15.8869 25.6466 16.5351 25.649 17.8638C25.649 19.2526 25.6767 20.6577 25.6328 22.0536C25.6038 22.4522 25.467 22.8355 25.2369 23.1624C24.8758 23.6855 24.2809 23.7712 23.6721 23.7689C20.2771 23.7689 16.882 23.7689 13.4869 23.7689L12.8735 23.7781ZM38.6976 32.9726H17.2879C16.3411 32.9726 15.8828 33.4355 15.8712 34.373C15.8712 34.8915 15.8712 35.4124 15.8712 35.9309C15.8712 37.0142 16.3342 37.4633 17.4175 37.4633H38.6976V32.9726ZM17.9337 17.417C17.884 17.4065 17.8338 17.3987 17.7832 17.3939C12.4869 17.3939 7.19063 17.3939 1.89434 17.3939C1.51702 17.3939 1.47535 17.5767 1.47767 17.8776C1.47767 19.1601 1.50313 20.4448 1.47767 21.7272C1.4661 22.1901 1.63739 22.292 2.06795 22.2897C7.20221 22.2773 12.3365 22.2773 17.4707 22.2897C17.6258 22.2897 17.7809 22.2758 17.9337 22.2689V17.417ZM11.3689 31.7897C11.3689 30.4957 11.3689 29.2318 11.3689 27.9656C11.3694 27.9192 11.3607 27.8732 11.3432 27.8303C11.3257 27.7874 11.2998 27.7484 11.267 27.7156C10.8804 27.4286 10.0309 27.7526 9.84572 28.1948C9.69911 28.6018 9.47772 28.9779 9.19295 29.3036C8.4198 30.0721 7.39896 30.1716 6.41517 29.6369C5.97998 29.4054 5.65822 29.5026 5.33878 29.8476C5.01934 30.1925 4.94758 30.4726 5.19758 30.8869C5.92906 32.1138 5.35267 33.5837 3.97304 34.0744C3.31332 34.3059 3.29017 34.3869 3.2786 35.2087C3.2786 35.7226 3.52628 35.9031 3.97304 36.0258C5.38971 36.38 6.06795 38.5119 5.14202 39.4564C4.88739 39.7133 4.936 39.9795 5.20221 40.2156C5.3483 40.3455 5.48666 40.4839 5.61656 40.63C5.65652 40.6871 5.70824 40.7349 5.76824 40.7704C5.82824 40.8058 5.89513 40.828 5.96442 40.8355C6.03371 40.8429 6.10379 40.8355 6.16996 40.8136C6.23612 40.7917 6.29684 40.7559 6.34804 40.7087C7.50545 39.836 9.20452 40.6577 9.64897 41.829C9.96378 42.6508 10.0332 42.6716 10.8874 42.6462C11.2508 42.6462 11.3712 42.4772 11.3642 42.1346C11.3504 41.4401 11.3642 40.7712 11.3642 40.0883V38.6577C8.65359 38.5142 7.19758 37.1925 7.28554 35.0513C7.38739 32.9772 8.9823 31.6878 11.3689 31.7897ZM36.7068 9.79895C38.0957 9.79895 39.4985 9.79895 40.892 9.79895C41.285 9.80085 41.6689 9.68012 41.99 9.45357C42.3112 9.22702 42.5536 8.90594 42.6837 8.53506C42.8336 8.13833 42.8613 7.70579 42.7631 7.2932C42.6649 6.88061 42.4453 6.5069 42.1328 6.22024C41.5656 5.71793 40.8017 5.667 40.0008 6.07904C39.5378 6.31052 39.2161 6.22024 38.9059 5.81052C38.6934 5.48458 38.4389 5.18805 38.149 4.92858C36.723 3.84061 34.7138 4.49108 34.0494 6.23182C33.8179 6.86145 33.5332 6.98645 32.892 6.79663C32.6925 6.73344 32.4825 6.70985 32.274 6.72719C31.8898 6.76931 31.5367 6.95832 31.2887 7.25469C31.0406 7.55107 30.9167 7.93187 30.9429 8.31747C30.9657 8.71105 31.1366 9.08142 31.4214 9.35411C31.7061 9.6268 32.0835 9.7816 32.4777 9.78737C33.8828 9.80358 35.2948 9.792 36.7068 9.792V9.79895ZM19.4939 17.3892V22.2689C20.9591 22.2689 22.3874 22.2689 23.8133 22.2689C24.0633 22.2689 24.1605 22.1739 24.1582 21.9239C24.1582 20.5351 24.1582 19.1323 24.1397 17.7364C24.1184 17.6574 24.0772 17.585 24.0201 17.5263C23.9629 17.4675 23.8918 17.4244 23.8133 17.4008C22.3851 17.3823 20.9591 17.3892 19.4939 17.3892ZM40.2485 37.4517C41.8318 37.4517 43.3573 37.4702 44.8781 37.4517C45.605 37.4378 46.0147 36.9494 46.017 36.211C46.017 35.5952 46.017 34.9772 46.017 34.3591C46.017 33.4633 45.524 32.9702 44.6281 32.9702C43.2971 32.9702 41.9661 32.9702 40.6351 32.9702C40.5101 32.9702 40.3874 32.9911 40.2439 33.005L40.2485 37.4517ZM45.017 19.3962C43.9429 18.5999 42.2809 18.8614 41.3504 19.9702C40.8934 20.5278 40.6612 21.2359 40.6993 21.9558C40.7375 22.6756 41.0431 23.3553 41.5564 23.8614C42.5355 24.8175 44.3017 24.8823 44.9846 24.2064C43.3966 23.8383 42.6698 23.1439 42.6235 21.9332C42.5656 20.6577 43.1929 19.9934 45.017 19.4054V19.3962ZM11.3712 37.0165C11.3712 35.9633 11.3527 34.8915 11.3712 33.8244C11.3828 33.4031 11.1976 33.2897 10.8342 33.2665C10.459 33.2393 10.084 33.3221 9.75514 33.5046C9.42625 33.6871 9.15769 33.9616 8.9823 34.2943C8.80681 34.6358 8.73522 35.0213 8.77636 35.4031C8.81749 35.7848 8.96956 36.1462 9.21378 36.4425C9.72998 37.0605 10.5101 37.2781 11.3712 37.0165ZM36.2601 21.0003V22.6207H39.2091V21.0003H36.2601Z" fill="#E45412"/>
<path d="M1.72767 7.76885C1.72767 6.19941 2.67906 4.96793 4.10035 4.89154C4.65128 4.86376 5.2161 5.1346 5.7786 5.2596C5.91512 5.31027 6.06412 5.31675 6.20452 5.27811C7.27397 4.68089 8.34804 4.54663 9.33183 5.38228C10.3596 6.25265 10.5263 7.42163 10.1976 8.66932C9.84821 9.93771 9.02875 11.0254 7.90591 11.711C5.89665 13.0142 6.1698 13.0235 4.13508 11.711C2.57489 10.7202 1.73693 9.23413 1.72767 7.76885ZM3.21841 7.83598C3.27397 8.83135 3.82721 9.62997 4.63045 10.2202C6.17443 11.3545 5.88276 11.3383 7.38045 10.2202C8.1536 9.6508 8.71609 8.88922 8.82026 7.88459C8.88045 7.31052 8.79017 6.76191 8.25082 6.43089C7.71147 6.09987 7.2485 6.37534 6.81332 6.67858C6.03322 7.22024 6.04017 7.22487 5.2485 6.69015C4.81563 6.40311 4.35267 6.19941 3.8411 6.48182C3.32952 6.76422 3.22767 7.24802 3.21841 7.83598Z" fill="#E45412"/>
<path d="M23.7971 4.31284C23.3087 4.31284 22.8226 4.31284 22.3342 4.31284C21.7786 4.31284 21.4499 4.01422 21.4522 3.55358C21.4545 3.09293 21.7693 2.81747 22.2994 2.81052C23.2902 2.79663 24.2817 2.79663 25.274 2.81052C25.8064 2.81052 26.1212 3.10219 26.1304 3.542C26.1397 3.98182 25.811 4.30126 25.2601 4.31284C24.7809 4.31978 24.2948 4.31284 23.7971 4.31284Z" fill="#E45412"/>
<path d="M23.7693 45.2388C23.2832 45.2388 22.7948 45.2388 22.3087 45.2388C21.7786 45.2226 21.4638 44.9332 21.4615 44.4911C21.4592 44.0489 21.7786 43.7434 22.2971 43.7364C23.3048 43.7241 24.3079 43.7241 25.3064 43.7364C25.8203 43.7364 26.1397 44.0605 26.1281 44.505C26.1166 44.9494 25.8156 45.2202 25.3179 45.2364C24.8203 45.2527 24.2902 45.2388 23.7693 45.2388Z" fill="#E45412"/>
<path d="M10.7855 20.586H5.97304C5.81097 20.5931 5.64863 20.5815 5.48924 20.5513C5.31792 20.5245 5.16283 20.4345 5.05445 20.2992C4.94608 20.1638 4.89226 19.9928 4.90359 19.8198C4.89582 19.6455 4.95388 19.4748 5.06625 19.3414C5.17861 19.208 5.33705 19.1218 5.51008 19.0999C5.63762 19.0773 5.76725 19.0688 5.89665 19.0744H15.6814C15.7785 19.0675 15.8759 19.0675 15.973 19.0744C16.1624 19.0901 16.3389 19.1764 16.4675 19.3162C16.5962 19.456 16.6676 19.6391 16.6675 19.829C16.6667 20.0109 16.5986 20.186 16.4764 20.3206C16.3541 20.4553 16.1864 20.5399 16.0054 20.5582C15.8603 20.5752 15.714 20.5807 15.5679 20.5744L10.7855 20.586Z" fill="#E45412"/>
<path d="M4.4823 19.8082C4.48184 19.9141 4.45984 20.0187 4.41763 20.1158C4.37543 20.2129 4.31391 20.3004 4.23681 20.3729C4.15972 20.4455 4.06866 20.5016 3.96919 20.5378C3.86972 20.574 3.76392 20.5896 3.65822 20.5837C3.55395 20.5962 3.44823 20.5875 3.34735 20.5583C3.24648 20.5291 3.15253 20.4798 3.07109 20.4135C2.98966 20.3472 2.92241 20.2652 2.87335 20.1723C2.82429 20.0795 2.79443 19.9777 2.78554 19.873C2.77999 19.768 2.79641 19.6629 2.83372 19.5646C2.87104 19.4662 2.92845 19.3767 3.00229 19.3018C3.07612 19.2269 3.16476 19.1682 3.26256 19.1294C3.36035 19.0907 3.46515 19.0727 3.57026 19.0767C4.08415 19.0513 4.47072 19.3638 4.4823 19.8082Z" fill="#E45412"/>
<path d="M41.1374 34.8638C41.1298 34.6281 41.1703 34.3933 41.2563 34.1738C41.3423 33.9542 41.4721 33.7545 41.6377 33.5866C41.8034 33.4188 42.0014 33.2865 42.2198 33.1976C42.4383 33.1088 42.6725 33.0653 42.9082 33.0698C43.1444 33.0742 43.3772 33.1273 43.592 33.2256C43.8068 33.324 43.999 33.4655 44.1567 33.6415C44.3143 33.8174 44.4341 34.0239 44.5084 34.2481C44.5828 34.4724 44.6101 34.7095 44.5888 34.9448C44.5558 35.1231 44.5698 35.307 44.6294 35.4783C44.6891 35.6496 44.7924 35.8024 44.9291 35.9216C45.0149 35.9848 45.0856 36.0664 45.1359 36.1604C45.1862 36.2544 45.2148 36.3585 45.2197 36.465C45.2246 36.5715 45.2056 36.6778 45.1641 36.776C45.1226 36.8743 45.0597 36.962 44.98 37.0327C44.6559 37.3452 44.2346 37.3314 43.8666 36.9425C43.7604 36.815 43.6226 36.7177 43.467 36.6604C43.3114 36.6032 43.1434 36.5879 42.98 36.6161C42.7407 36.6358 42.5 36.6047 42.2735 36.5248C42.0471 36.4449 41.8401 36.3181 41.6662 36.1527C41.4922 35.9872 41.3551 35.7869 41.264 35.5647C41.1729 35.3426 41.1297 35.1037 41.1374 34.8638ZM42.8781 34.4355C42.7554 34.6276 42.6281 34.7364 42.6466 34.8244C42.6652 34.9124 42.7925 35.0304 42.8781 35.1346C42.9591 35.0489 43.1096 34.9656 43.1096 34.88C43.1096 34.7943 42.9869 34.6577 42.8781 34.4263V34.4355Z" fill="#E45412"/>
</svg>
