<svg width="56" height="56" viewBox="0 0 56 56" fill="none" xmlns="http://www.w3.org/2000/svg">
<mask id="mask0_2019_272" style="mask-type:luminance" maskUnits="userSpaceOnUse" x="0" y="0" width="56" height="56">
<path d="M56 0H0V56H56V0Z" fill="white"/>
</mask>
<g mask="url(#mask0_2019_272)">
<path d="M28.9271 30.7139C28.9271 31.3472 28.9271 31.905 28.9271 32.5232C30.8275 32.5232 32.6976 32.5232 34.5829 32.5232C35.141 32.5232 35.7141 32.5383 36.2721 32.6288C39.3036 33.0811 41.5659 35.7801 41.5509 38.8711C41.5358 41.947 39.2734 44.6159 36.2721 45.0531C35.6688 45.1436 35.0354 45.1587 34.3718 45.2039C34.3718 46.6515 34.3718 48.1289 34.3718 49.6668C35.2314 49.6668 36.1062 49.6668 37.0111 49.6668C37.0111 50.2851 37.0111 50.8433 37.0111 51.4916C36.1665 51.4916 35.3069 51.4916 34.4471 51.4916C32.5468 51.4916 32.5167 51.4611 32.5167 49.5767C32.5167 48.1289 32.5167 46.6815 32.5167 45.2039C29.5002 45.2039 26.5291 45.2039 23.4824 45.2039C23.4824 46.3046 23.4824 47.3904 23.4824 48.4758C23.4824 49.1542 23.4976 49.833 23.4824 50.5114C23.4674 51.1147 23.1356 51.4766 22.5474 51.4916C21.386 51.5067 20.2096 51.4916 19.0031 51.4916C19.0031 50.9034 19.0031 50.3306 19.0031 49.6974C19.8778 49.6974 20.7375 49.6974 21.6425 49.6974C21.6425 48.1744 21.6425 46.7116 21.6425 45.219C20.9939 45.1737 20.3454 45.1587 19.6968 45.0531C16.7106 44.6008 14.4332 41.9169 14.4332 38.841C14.4332 35.765 16.6955 33.0811 19.6818 32.6288C20.1794 32.5534 20.6923 32.5232 21.1899 32.5232C23.1205 32.5082 25.0661 32.5232 27.0267 32.5232C27.0267 31.9201 27.0267 31.3472 27.0267 30.7139C26.8156 30.7139 26.6045 30.7139 26.4084 30.7139C22.3815 30.7139 18.3545 30.7289 14.3276 30.7139C9.63706 30.6837 5.65537 27.4268 4.675 22.828C3.61927 17.9276 6.39438 13.0273 11.1603 11.3989C11.5525 11.2631 11.7033 11.0973 11.7485 10.6751C12.3669 5.21683 16.0922 1.11559 21.4766 0.195827C25.9258 -0.558076 29.651 0.949731 32.577 4.40261C32.8334 4.70418 33.0446 4.79464 33.4216 4.71925C37.7803 3.79949 42.2296 6.33259 43.6925 10.5696C43.8283 10.9917 44.0394 11.1877 44.4617 11.3235C48.7905 12.6654 51.7767 17.0079 51.3997 21.3655C50.9622 26.3111 47.4784 30.0504 42.7423 30.6385C42.2446 30.6988 41.7318 30.7289 41.2191 30.7289C37.3279 30.7289 33.4367 30.7289 29.5304 30.7289C29.3796 30.7139 29.1835 30.7139 28.9271 30.7139ZM18.0378 28.9045C18.0529 28.7537 18.068 28.6934 18.068 28.6331C18.264 24.562 21.0995 21.3805 25.1415 20.8679C26.6949 20.6719 28.2937 20.7623 29.8773 20.7623C33.5573 20.7774 36.7396 23.2502 37.6748 26.7936C37.8557 27.457 37.9161 28.1506 38.0367 28.8743C38.9115 28.8743 39.8164 28.9196 40.7213 28.8593C41.7922 28.799 42.8781 28.814 43.9037 28.5426C47.5384 27.5927 49.9515 24.2755 49.8613 20.5361C49.7707 16.7666 47.1915 13.6153 43.4663 12.8162C42.7423 12.6654 42.4105 12.3186 42.2145 11.5949C41.204 7.70473 37.162 5.44301 33.2708 6.52864C32.3206 6.80003 32.1848 6.75478 31.6268 5.95566C29.0779 2.44246 24.6739 0.949731 20.5113 2.23137C16.4391 3.48285 13.6187 7.26743 13.5433 11.5798C13.5282 12.4845 13.3925 12.6503 12.4876 12.8765C9.13934 13.7058 6.66587 16.6008 6.34913 20.0688C6.03243 23.4312 7.978 26.7182 11.085 28.1657C13.3171 29.2212 15.685 28.799 18.0378 28.9045ZM27.992 43.3493C30.4203 43.3493 32.8485 43.3644 35.2767 43.3493C37.7803 43.3191 39.7561 41.3137 39.7561 38.841C39.7561 36.3682 37.7803 34.3477 35.2767 34.3326C30.4202 34.3175 25.5638 34.3025 20.7073 34.3477C19.9834 34.3477 19.2142 34.5889 18.5657 34.9358C16.7407 35.8857 15.8961 38.0117 16.4089 39.9869C16.9217 41.932 18.6713 43.3342 20.7073 43.3493C23.1356 43.3644 25.5638 43.3493 27.992 43.3493ZM36.1062 28.8743C36.1213 25.0144 32.7881 22.5868 30.2996 22.6471C30.4052 23.2201 30.571 23.778 30.6163 24.3509C30.6465 24.6827 30.5711 25.0747 30.4052 25.331C29.9075 26.0849 29.3494 26.7936 28.7914 27.5022C28.2786 28.1506 27.6753 28.1506 27.1625 27.4872C26.6346 26.8087 26.1369 26.1 25.594 25.4214C25.2923 25.0445 25.232 24.6675 25.3527 24.2152C25.4884 23.7026 25.5789 23.1598 25.6995 22.632C22.4116 22.6923 19.6516 25.9492 19.9532 28.8743C25.3225 28.8743 30.6917 28.8743 36.1062 28.8743ZM28.0222 25.4818C28.9271 24.5771 28.9573 24.4112 28.3992 22.6019C28.1278 22.6019 27.8563 22.6019 27.5697 22.6019C27.3737 23.6272 26.7704 24.6827 28.0222 25.4818Z" fill="#E45412"/>
<path d="M9.01869 55.9999C6.42457 55.9999 3.83042 55.9999 1.23629 55.9999C0.286118 55.9999 -0.0155244 55.683 -0.000442312 54.7483C0.105133 50.6771 3.55895 47.1341 7.64619 46.9984C9.03376 46.9529 10.4515 46.9529 11.7938 47.2242C15.3381 47.9331 17.9926 51.2503 18.0529 54.8239C18.068 55.668 17.7512 55.9999 16.9217 55.9999C14.2823 55.9999 11.6581 55.9999 9.01869 55.9999ZM1.86974 54.1605C6.66587 54.1605 11.4016 54.1605 16.1525 54.1605C16.1375 54.0094 16.1375 53.8737 16.1073 53.738C15.5342 51.4766 14.1768 49.9232 11.9748 49.1091C10.6777 48.6265 9.33539 48.7772 8.00819 48.7772C6.95243 48.7772 5.95699 49.049 5.05207 49.5767C3.28747 50.587 2.23171 52.1094 1.86974 54.1605Z" fill="#E45412"/>
<path d="M46.9502 55.9999C44.3561 55.9999 41.762 55.9999 39.1679 55.9999C38.2177 55.9999 37.9161 55.683 37.9462 54.7483C38.0518 50.6771 41.5207 47.1491 45.608 46.9984C47.1465 46.9379 48.6849 46.8623 50.2082 47.3149C53.5109 48.2951 55.9243 51.401 55.9995 54.7934C56.0145 55.6985 55.7131 56.0149 54.793 56.0149C52.1837 55.9999 49.5595 55.9999 46.9502 55.9999ZM39.8617 54.1605C44.6125 54.1605 49.3482 54.1605 54.0841 54.1605C53.9634 52.0644 52.1687 49.833 49.9515 49.1542C48.006 48.5514 46 48.5514 44.0545 49.1392C41.7922 49.8025 40.0125 52.0043 39.8617 54.1605Z" fill="#E45412"/>
<path d="M13.5433 41.5701C13.5433 44.058 11.5072 46.0783 8.9885 46.0633C6.5301 46.0482 4.50912 44.0278 4.50912 41.555C4.50912 39.037 6.56029 37.0165 9.07902 37.0316C11.5525 37.0467 13.5584 39.0822 13.5433 41.5701ZM6.31899 41.4645C6.2888 42.9422 7.45014 44.1937 8.92818 44.2389C10.4213 44.2842 11.6882 43.1081 11.7335 41.6003C11.7787 40.1226 10.5872 38.8711 9.12427 38.8259C7.61605 38.7957 6.36424 39.9869 6.31899 41.4645Z" fill="#E45412"/>
<path d="M46.9803 46.0633C44.507 46.0783 42.4709 44.058 42.4558 41.6003C42.4407 39.0671 44.4617 37.0316 46.9953 37.0316C49.4538 37.0316 51.4748 39.052 51.4899 41.5249C51.4899 44.0278 49.4839 46.0483 46.9803 46.0633ZM46.9803 44.254C48.4736 44.254 49.6951 43.0176 49.6801 41.5098C49.6651 40.0472 48.4436 38.8259 46.9652 38.841C45.4571 38.856 44.2506 40.0774 44.2656 41.5852C44.2808 43.0477 45.5024 44.254 46.9803 44.254Z" fill="#E45412"/>
<path d="M27.992 19.8727C25.4884 19.8576 23.4824 17.8372 23.4824 15.3342C23.4976 12.8614 25.5186 10.841 27.9769 10.841C30.4956 10.841 32.5317 12.8765 32.5167 15.4096C32.5016 17.8674 30.4655 19.8727 27.992 19.8727ZM30.7068 15.3493C30.7068 13.8415 29.4701 12.6202 27.9769 12.6352C26.4989 12.6503 25.2923 13.8566 25.2923 15.3342C25.2923 16.8269 26.514 18.0483 28.0222 18.0483C29.5002 18.0483 30.7068 16.8269 30.7068 15.3493Z" fill="#E45412"/>
<path d="M23.4523 3.63363C23.4523 4.23675 23.4523 4.79464 23.4523 5.39776C21.748 5.47315 20.2247 6.04613 19.0182 7.26743C17.8116 8.4737 17.2083 9.96645 17.148 11.7004C16.5597 11.7004 15.9866 11.7004 15.4286 11.7004C15.142 8.08166 18.445 3.61855 23.4523 3.63363Z" fill="#E45412"/>
<path d="M30.7068 38.8259C30.7068 40.3186 29.4851 41.5399 27.9769 41.5399C26.514 41.5399 25.2923 40.3186 25.2923 38.841C25.2923 37.3331 26.514 36.1118 28.0222 36.1269C29.5002 36.142 30.7068 37.3482 30.7068 38.8259ZM27.9769 39.7306C28.4596 39.7457 28.8818 39.3536 28.897 38.8711C28.912 38.3886 28.535 37.9664 28.0524 37.9363C27.5395 37.9061 27.1022 38.3132 27.1022 38.8259C27.0871 39.3084 27.4943 39.7155 27.9769 39.7306Z" fill="#E45412"/>
<path d="M19.8326 39.7155C19.2293 39.7155 18.6713 39.7155 18.0981 39.7155C18.0981 39.1274 18.0981 38.5846 18.0981 37.9815C18.6562 37.9815 19.2293 37.9815 19.8326 37.9815C19.8326 38.5394 19.8326 39.0973 19.8326 39.7155Z" fill="#E45412"/>
<path d="M23.4523 39.7155C22.8641 39.7155 22.306 39.7155 21.7179 39.7155C21.7179 39.1425 21.7179 38.5696 21.7179 37.9664C22.291 37.9664 22.849 37.9664 23.4523 37.9664C23.4523 38.5394 23.4523 39.0973 23.4523 39.7155Z" fill="#E45412"/>
<path d="M32.5317 39.7004C32.5317 39.1124 32.5317 38.5545 32.5317 37.9664C33.12 37.9664 33.6931 37.9664 34.2813 37.9664C34.2813 38.5394 34.2813 39.0973 34.2813 39.7004C33.7232 39.7004 33.1652 39.7004 32.5317 39.7004Z" fill="#E45412"/>
<path d="M36.1665 37.9513C36.7548 37.9513 37.3128 37.9513 37.901 37.9513C37.901 38.5394 37.901 39.1124 37.901 39.7004C37.3279 39.7004 36.7698 39.7004 36.1665 39.7004C36.1665 39.1425 36.1665 38.5696 36.1665 37.9513Z" fill="#E45412"/>
</g>
</svg>
