<svg width="51" height="51" viewBox="0 0 51 51" fill="none" xmlns="http://www.w3.org/2000/svg">
<g clip-path="url(#clip0_2019_1095)">
<path d="M36.0832 35.3338C36.0832 35.6031 36.0715 35.8771 36.0832 36.1487C36.1371 37.158 35.6968 37.9261 34.9264 38.5256C33.6455 39.5208 32.1421 40.0125 30.5802 40.2889C28.9809 40.5722 27.3581 40.7314 25.6627 40.9562C25.6627 41.8929 25.6486 42.9209 25.6837 43.9536C25.6837 44.0754 25.9507 44.2182 26.1193 44.2978C26.7245 44.5629 27.2308 45.0119 27.5662 45.5812C27.9015 46.1504 28.049 46.8109 27.9875 47.4687C27.9261 48.1266 27.6589 48.7483 27.2238 49.2456C26.7888 49.7428 26.2081 50.0903 25.5643 50.2387C24.8034 50.414 24.0045 50.298 23.3249 49.9136C22.6452 49.5291 22.1342 48.9041 21.8925 48.1616C21.6471 47.4302 21.6886 46.6329 22.0085 45.9308C22.3284 45.2288 22.903 44.6744 23.616 44.3798C23.7781 44.3386 23.9184 44.2372 24.0085 44.0963C24.0985 43.9554 24.1315 43.7855 24.1008 43.6211C24.0727 42.7383 24.1008 41.8578 24.1008 40.9679C23.0212 40.8462 21.9932 40.7595 20.9605 40.612C19.4439 40.4202 17.9706 39.9736 16.6026 39.2913C15.214 38.5654 14.3218 37.5444 14.5256 35.856C14.5294 35.709 14.5232 35.5619 14.5068 35.4158H13.9846C12.041 35.4158 10.0966 35.4158 8.15146 35.4158C6.98061 35.4158 6.36006 36.0293 6.3507 37.2119C6.3507 38.0806 6.3624 38.9494 6.3507 39.8158C6.33029 39.949 6.35798 40.085 6.42878 40.1996C6.49958 40.3142 6.60888 40.3998 6.73708 40.4411C7.29855 40.69 7.75625 41.1261 8.03212 41.6748C8.30799 42.2235 8.38493 42.851 8.24981 43.4501C8.10782 44.0543 7.76984 44.5944 7.28862 44.9862C6.8074 45.3781 6.21 45.5996 5.58964 45.6162C4.96887 45.6096 4.36775 45.3977 3.88014 45.0135C3.39254 44.6292 3.0459 44.0943 2.89435 43.4923C2.75932 42.8941 2.83209 42.2678 3.10069 41.7166C3.36929 41.1654 3.81768 40.7221 4.37196 40.4598C4.50475 40.415 4.61804 40.3258 4.69269 40.2072C4.76735 40.0886 4.79881 39.9479 4.78176 39.8088C4.75834 38.94 4.76771 38.0736 4.78176 37.2048C4.80283 35.1582 6.1095 33.8656 8.1538 33.8609C10.0646 33.8609 11.9747 33.8609 13.8839 33.8609H14.5185V33.2052C14.5185 27.6835 14.5349 22.1641 14.5045 16.6424C14.4878 16.1398 14.5968 15.6409 14.8217 15.1911C15.0466 14.7413 15.3803 14.3547 15.7924 14.0665C17.0078 13.1439 18.4198 12.6615 19.8834 12.3454C24.0539 11.4321 28.2198 11.4743 32.3154 12.7341C33.2284 13.0499 34.0948 13.487 34.8913 14.0338C35.7249 14.5723 36.0832 15.4154 36.0785 16.4434C36.0598 21.9627 36.0785 27.4821 36.0785 33.0038V33.6946H36.6686C38.5607 33.6946 40.4552 33.7391 42.3473 33.6946C44.511 33.6314 45.9324 35.287 45.8036 37.1744C45.7451 38.0197 45.8036 38.8745 45.7872 39.7245C45.7718 39.8417 45.798 39.9605 45.8614 40.0603C45.9247 40.16 46.0212 40.2343 46.1338 40.2701C47.4053 40.8602 48.0071 42.1177 47.6676 43.3916C47.5133 44.0255 47.1376 44.5835 46.6081 44.9647C46.0786 45.3459 45.4303 45.5253 44.7801 45.4704C44.13 45.4156 43.5209 45.1301 43.0627 44.6656C42.6046 44.2011 42.3276 43.5881 42.2817 42.9373C42.2404 42.3847 42.3705 41.8328 42.6542 41.3568C42.9379 40.8808 43.3614 40.5038 43.867 40.2771C43.9872 40.2387 44.0901 40.1593 44.1578 40.0527C44.2254 39.9461 44.2534 39.8192 44.237 39.6941C44.2183 38.7386 44.237 37.7856 44.237 36.8302C44.2442 36.6295 44.211 36.4294 44.1394 36.2417C44.0678 36.0541 43.9591 35.8828 43.82 35.738C43.6809 35.5931 43.514 35.4778 43.3294 35.3987C43.1448 35.3196 42.9462 35.2784 42.7453 35.2776C40.5933 35.2519 38.439 35.2776 36.2869 35.2776C36.2169 35.2876 36.1485 35.3065 36.0832 35.3338ZM16.0781 25.124C16.0781 26.6859 16.0945 28.1963 16.0781 29.7044C16.0781 30.2078 16.228 30.6153 16.6401 30.8565C17.2605 31.2643 17.9251 31.6005 18.6212 31.8587C22.6255 33.1186 26.686 33.1467 30.7441 32.1819C31.7862 31.936 32.7721 31.4138 33.7509 30.9478C34.2426 30.7137 34.4745 30.2453 34.4534 29.6576C34.4112 28.7396 34.4534 27.817 34.4534 26.8967V25.1334C28.4165 27.6741 21.4101 27.6718 16.0781 25.124ZM16.0781 32.5519C16.0781 33.5354 16.1647 34.6126 16.0547 35.671C15.9329 36.8419 16.4949 37.4554 17.4363 37.898C17.6834 38.024 17.9375 38.1358 18.1973 38.2328C22.3749 39.6589 26.6134 39.673 30.8636 38.6661C31.8401 38.4319 32.7721 37.9635 33.6736 37.4952C33.9968 37.3289 34.3761 36.8887 34.3878 36.5585C34.4674 35.198 34.4206 33.8305 34.4206 32.5472C28.2971 34.9357 22.2133 34.9919 16.0781 32.5495V32.5519ZM16.1039 18.8389C16.0907 18.9375 16.0829 19.0368 16.0804 19.1363C16.0804 20.2627 16.0945 21.3914 16.0804 22.5201C16.0804 22.9884 16.2069 23.3701 16.5863 23.5902C17.27 23.9883 17.9538 24.4356 18.6938 24.6674C22.6255 25.8944 26.6134 25.8921 30.6154 25.021C31.7206 24.7868 32.8048 24.4402 33.7181 23.7494C34.0155 23.5153 34.3761 23.1523 34.3925 22.8315C34.4674 21.471 34.4253 20.1034 34.4253 18.8155C28.3111 21.1993 22.2461 21.2696 16.1039 18.8389ZM25.2599 13.453C22.8667 13.5022 20.4618 13.6731 18.188 14.5887C17.5401 14.8686 16.9354 15.2391 16.3919 15.6893C15.9236 16.057 15.954 16.4949 16.3919 16.9C16.7465 17.2285 17.1463 17.5045 17.5791 17.7196C19.2394 18.5321 21.0331 18.8436 22.855 18.9981C25.7259 19.2323 28.5828 19.1433 31.3624 18.3097C32.1732 18.0632 32.9497 17.7154 33.6736 17.2747C34.704 16.6494 34.6829 15.9633 33.6736 15.2819C33.2569 14.999 32.81 14.7634 32.3412 14.5794C30.0721 13.6965 27.6906 13.4998 25.2599 13.4483V13.453ZM26.4167 47.1734C26.4118 46.7614 26.2445 46.368 25.9511 46.0786C25.6578 45.7892 25.2621 45.6273 24.8501 45.6279C24.4388 45.6386 24.0474 45.8069 23.7567 46.098C23.466 46.3892 23.2983 46.7809 23.2882 47.1922C23.2909 47.4004 23.3347 47.606 23.4169 47.7973C23.4991 47.9886 23.6182 48.1618 23.7674 48.307C23.9166 48.4523 24.0929 48.5667 24.2863 48.6439C24.4797 48.721 24.6864 48.7592 24.8946 48.7564C25.0993 48.7525 25.3012 48.7081 25.4887 48.6258C25.6761 48.5435 25.8455 48.4249 25.987 48.2769C26.1284 48.1289 26.2392 47.9544 26.313 47.7634C26.3867 47.5724 26.422 47.3687 26.4167 47.1641V47.1734ZM6.65043 42.8858C6.65479 42.7334 6.62893 42.5817 6.57433 42.4393C6.51972 42.297 6.43747 42.1669 6.33232 42.0565C6.22716 41.9461 6.10118 41.8576 5.96166 41.7962C5.82213 41.7348 5.67182 41.7016 5.51939 41.6986C5.20886 41.693 4.90883 41.811 4.68531 42.0266C4.57463 42.1334 4.48606 42.2609 4.42466 42.4019C4.36326 42.5429 4.33024 42.6946 4.32747 42.8483C4.3247 43.0021 4.35225 43.1549 4.40853 43.298C4.46481 43.4411 4.54873 43.5717 4.6555 43.6824C4.87112 43.9059 5.16671 44.0347 5.47724 44.0403C5.7823 44.0311 6.07267 43.9071 6.2902 43.6931C6.50774 43.479 6.6364 43.1907 6.65043 42.8858ZM46.108 42.8694C46.1121 42.7171 46.0856 42.5655 46.0301 42.4236C45.9746 42.2817 45.8913 42.1524 45.785 42.0433C45.6787 41.9341 45.5516 41.8474 45.4112 41.7882C45.2708 41.729 45.12 41.6985 44.9676 41.6986C44.7348 41.6925 44.5055 41.756 44.309 41.8809C44.1125 42.0058 43.9577 42.1865 43.8644 42.3998C43.7711 42.6132 43.7436 42.8495 43.7852 43.0786C43.8269 43.3077 43.936 43.5191 44.0984 43.6859C44.2609 43.8528 44.4694 43.9673 44.6973 44.015C44.9252 44.0627 45.1622 44.0414 45.3779 43.9537C45.5936 43.8661 45.7783 43.7161 45.9084 43.5229C46.0384 43.3298 46.1079 43.1023 46.108 42.8694Z" fill="#E45412"/>
<path d="M31.7487 6.02026C32.772 5.95235 33.8398 5.78609 34.9053 5.8259C39.8088 5.97109 44.0379 10.0269 44.422 14.907C44.4524 15.2887 44.6327 15.3941 44.9371 15.4948C48.4497 16.6492 50.7399 20.0587 50.5713 23.8991C50.4214 27.3578 47.8291 30.4254 44.3166 31.2638C43.7793 31.3926 43.2298 31.464 42.6774 31.4768C41.3075 31.5096 39.9353 31.4979 38.563 31.4909C37.9519 31.4909 37.6638 31.2263 37.6615 30.7205C37.6591 30.2147 37.9495 29.9337 38.5467 29.9266C39.8838 29.9126 41.2209 29.9407 42.558 29.9266C43.9477 29.9001 45.2935 29.4348 46.4029 28.5975C47.5124 27.7601 48.3288 26.5935 48.7354 25.2643C49.15 23.9733 49.1424 22.5838 48.7137 21.2974C48.2851 20.011 47.4576 18.8947 46.3515 18.1104C45.6162 17.6 44.7123 17.3002 43.8623 16.9935C43.2254 16.7593 43.0006 16.5837 42.9818 15.9022C42.8202 10.048 37.3102 6.13032 31.7276 7.91469C31.0251 8.14886 30.7371 7.99431 30.4022 7.24965C29.0979 4.35063 26.9014 2.57563 23.7752 2.03938C19.2862 1.25491 14.7129 4.63164 14.104 9.14643C14.0829 9.30098 14.0502 9.45553 14.0408 9.61477C14.0057 10.1744 13.6895 10.3805 13.1556 10.4227C11.8496 10.518 10.6025 11.0044 9.57677 11.8184C8.551 12.6324 7.79404 13.7364 7.40443 14.9866C7.29193 15.3511 7.20815 15.7237 7.15387 16.1013C7.12988 16.3244 7.03692 16.5346 6.88793 16.7025C6.73894 16.8704 6.54131 16.9876 6.32257 17.0379C3.19874 18.0121 1.38627 20.6512 1.59234 23.9178C1.78436 26.9621 4.50775 29.7182 7.5543 29.8845C8.93824 29.9594 10.3316 29.9103 11.7202 29.922C11.9279 29.918 12.1356 29.9329 12.3407 29.9665C12.5239 29.9948 12.6885 30.0943 12.7986 30.2435C12.9087 30.3926 12.9554 30.5792 12.9285 30.7626C12.9098 31.1443 12.6943 31.4651 12.2962 31.4651C10.1185 31.4347 7.91492 31.7742 5.77461 31.142C4.15477 30.6479 2.72903 29.6616 1.69544 28.3201C0.66186 26.9786 0.0717628 25.3485 0.00713103 23.6562C-0.0575007 21.9639 0.406542 20.2936 1.33479 18.8771C2.26304 17.4607 3.60941 16.3685 5.18684 15.7524C5.33098 15.7095 5.46004 15.6267 5.55908 15.5136C5.65813 15.4005 5.72311 15.2616 5.74651 15.1131C6.57781 11.7644 8.69236 9.70609 12.0527 8.92865C12.3548 8.86074 12.5515 8.79049 12.6334 8.41816C13.4999 4.43727 15.9282 1.79116 19.8154 0.69056C23.6464 -0.403012 27.0278 0.648409 29.8074 3.47718C30.5615 4.23823 31.1282 5.1913 31.7487 6.02026Z" fill="#E45412"/>
<path d="M22.6864 4.04883C23.4432 4.07883 24.1844 4.27326 24.8585 4.6186C25.5326 4.96395 26.1235 5.45193 26.59 6.04864C26.9576 6.50058 26.96 7.00873 26.6157 7.30613C26.2715 7.60352 25.7985 7.51454 25.3887 7.07196C23.2812 4.7607 20.0028 5.26417 18.7031 8.09528C18.469 8.62684 18.0732 8.83994 17.6494 8.67134C17.181 8.48166 17.0241 8.01566 17.2536 7.456C18.0803 5.4398 20.1667 4.05117 22.6864 4.04883Z" fill="#E45412"/>
<path d="M8.45821 27.8896C5.88234 27.8358 3.67646 25.6158 3.68349 23.0587C3.68349 22.499 3.93405 22.1993 4.4141 22.1759C4.89415 22.1525 5.20793 22.4405 5.24774 23.0166C5.38122 24.9063 6.63403 26.1638 8.55422 26.3277C9.18882 26.3816 9.519 26.7726 9.38084 27.3089C9.27546 27.714 8.97806 27.9013 8.45821 27.8896Z" fill="#E45412"/>
<path d="M20.82 29.1402C20.8036 29.8427 20.3212 30.2244 19.8108 30.0652C19.1853 29.8634 18.571 29.6289 17.9702 29.3627C17.8783 29.3252 17.7947 29.2699 17.7244 29.1999C17.654 29.1299 17.5983 29.0466 17.5604 28.9549C17.5225 28.8632 17.5031 28.7649 17.5035 28.6656C17.504 28.5664 17.5241 28.4682 17.5627 28.3768C17.6408 28.1921 17.7887 28.0456 17.9742 27.9693C18.1597 27.893 18.3678 27.893 18.5533 27.9693C19.1551 28.1848 19.7639 28.3838 20.34 28.6508C20.5695 28.7562 20.7193 29.0372 20.82 29.1402Z" fill="#E45412"/>
<path d="M20.8177 35.9028C20.8036 36.5842 20.3072 36.9682 19.7967 36.8043C19.1715 36.6053 18.5532 36.3688 17.9491 36.1018C17.5276 35.9239 17.4456 35.5468 17.5604 35.1394C17.59 35.0467 17.6382 34.961 17.702 34.8875C17.7658 34.8141 17.8439 34.7544 17.9316 34.7121C18.0192 34.6698 18.1145 34.6458 18.2118 34.6415C18.309 34.6373 18.4061 34.6529 18.497 34.6874C19.1361 34.8975 19.7624 35.1446 20.3727 35.4274C20.5929 35.5258 20.7263 35.7997 20.8177 35.9028Z" fill="#E45412"/>
<path d="M20.0777 23.3912C19.2943 23.1008 18.5267 22.7693 17.7782 22.3983C17.6049 22.2999 17.544 21.7988 17.6049 21.5248C17.6939 21.1408 18.0873 21.012 18.4502 21.1291C19.1223 21.3469 19.7873 21.5974 20.436 21.8808C20.5172 21.9075 20.5915 21.9519 20.6536 22.0107C20.7156 22.0696 20.7638 22.1415 20.7947 22.2212C20.8256 22.3009 20.8384 22.3865 20.8323 22.4718C20.8261 22.5571 20.8012 22.6399 20.7592 22.7144C20.6069 22.972 20.3189 23.157 20.0777 23.3912Z" fill="#E45412"/>
</g>
<defs>
<clipPath id="clip0_2019_1095">
<rect width="50.5806" height="50.5806" fill="white"/>
</clipPath>
</defs>
</svg>
