<svg width="50" height="50" viewBox="0 0 50 50" fill="none" xmlns="http://www.w3.org/2000/svg">
<path d="M10.9446 28.3171H11.639V23.3796C11.22 23.3009 10.7895 23.2593 10.3821 23.1481C8.46542 22.5949 7.23393 21.331 6.80569 19.3958C6.36588 17.4074 7.01634 15.7407 8.56495 14.4213C8.68199 14.3176 8.81099 14.2282 8.94921 14.1551C9.11995 14.0452 9.32673 14.0059 9.52586 14.0457C9.725 14.0854 9.90088 14.201 10.0163 14.3681C10.0828 14.4439 10.1335 14.5322 10.1655 14.6278C10.1975 14.7234 10.2102 14.8244 10.2029 14.925C10.1956 15.0256 10.1684 15.1237 10.1228 15.2136C10.0773 15.3036 10.0143 15.3836 9.93764 15.4491C9.79503 15.5785 9.64592 15.7006 9.49088 15.8148C8.97749 16.2575 8.61194 16.8468 8.4434 17.5034C8.27485 18.16 8.31139 18.8525 8.54809 19.4877C8.78479 20.123 9.21031 20.6705 9.76744 21.0567C10.3246 21.443 10.9866 21.6493 11.6645 21.6481V21.0509C11.6645 15.5309 11.6645 10.0108 11.6645 4.49074C11.6738 1.74306 13.4122 0 16.1552 0H33.8543C36.595 0 38.3265 1.74537 38.3265 4.5C38.3265 9.43827 38.3265 14.3688 38.3265 19.2917V20C38.7293 20 39.1205 20 39.5094 20C40.19 20 40.4353 20.206 40.5881 20.875C40.7038 21.3819 40.8011 21.8935 40.9238 22.3981C40.9538 22.5208 41.014 22.6898 41.1089 22.7361C41.6259 22.9784 42.1514 23.1998 42.6853 23.4005C42.7802 23.4352 42.9423 23.3403 43.0534 23.2731C43.5256 22.9815 43.9932 22.6829 44.4562 22.3773C44.6353 22.2342 44.8636 22.1675 45.0916 22.1918C45.3196 22.2161 45.5288 22.3293 45.6738 22.5069C46.2849 23.1227 46.9006 23.7338 47.5117 24.3588C47.6731 24.4958 47.7762 24.6892 47.7998 24.8995C47.8235 25.1099 47.766 25.3213 47.639 25.4907C47.3335 25.9745 47.0048 26.4444 46.7293 26.9468C46.67 27.1409 46.6565 27.3461 46.69 27.5463C46.69 27.6088 46.7617 27.669 46.7733 27.7338C46.977 28.8912 47.7895 29.2407 48.8427 29.3912C49.896 29.5417 50.0001 29.7153 50.0001 30.787C50.0001 31.4815 50.0001 32.1759 50.0001 32.8704C50.0001 33.4954 49.8057 33.7338 49.1853 33.8866C48.6622 34.0139 48.1321 34.1181 47.6182 34.2593C47.4424 34.3321 47.2947 34.4595 47.1969 34.6227C47.0858 34.7917 47.0835 35.0347 46.9654 35.1968C46.4677 35.8727 46.6946 36.4143 47.1321 37.0486C48.0881 38.419 48.058 38.4375 46.8751 39.6296L45.8844 40.6273C45.2363 41.2801 45.014 41.3032 44.2247 40.794L44.1807 40.7639C42.764 39.8519 42.7617 39.838 41.2339 40.5463C41.1635 40.5862 41.1017 40.6397 41.052 40.7037C41.0023 40.7677 40.9658 40.8408 40.9446 40.919C40.8034 41.4537 40.7131 42.0023 40.5788 42.5393C40.4446 43.0764 40.058 43.4028 39.595 43.3171C39.1321 43.2315 38.845 42.7986 38.9608 42.1944C39.0948 41.4087 39.2702 40.6306 39.4863 39.8634C39.6077 39.5565 39.8363 39.3039 40.1298 39.1528C40.8381 38.7986 41.595 38.5417 42.3173 38.2106C42.4763 38.1222 42.6567 38.0795 42.8385 38.0873C43.0203 38.095 43.1964 38.153 43.3474 38.2546C43.7409 38.5093 44.1506 38.7407 44.5256 39.0208C44.8103 39.2315 44.9886 39.1875 45.22 38.9375C45.4534 38.7078 45.7008 38.4929 45.9608 38.294C45.5858 37.706 45.2918 37.2176 44.97 36.75C44.8459 36.5829 44.7736 36.3831 44.7621 36.1752C44.7506 35.9674 44.8004 35.7608 44.9052 35.581C45.2247 34.912 45.5071 34.2222 45.7617 33.5255C45.8118 33.3328 45.9165 33.1587 46.063 33.0241C46.2096 32.8894 46.3919 32.7999 46.5881 32.7662C47.1622 32.6551 47.7316 32.5116 48.315 32.3796V30.9491C47.7687 30.8287 47.2177 30.6921 46.6645 30.588C46.4425 30.5535 46.2358 30.4535 46.0709 30.301C45.9059 30.1484 45.7902 29.9501 45.7386 29.7315C45.5034 29.0632 45.2258 28.4107 44.9075 27.7778C44.7038 27.3588 44.6761 27 44.9423 26.6204C45.2085 26.2407 45.4052 25.8495 45.6784 25.4884C45.8937 25.2014 45.8335 25.0255 45.595 24.794C44.8867 24.0995 44.9006 24.0995 44.0557 24.6296C43.9937 24.662 43.9348 24.6999 43.8798 24.7431C43.2062 25.3403 42.5464 25.3889 41.7687 24.8611C41.3242 24.5602 40.7525 24.4306 40.227 24.2639C40.0228 24.2211 39.8366 24.1171 39.693 23.9657C39.5495 23.8144 39.4556 23.6228 39.4238 23.4167C39.3242 22.8542 39.1923 22.2986 39.0511 21.7153H38.3566V26.6528C38.6344 26.6921 38.9052 26.7176 39.1737 26.7708C41.2849 27.1944 42.6645 28.4583 43.1691 30.5347C43.6738 32.6111 42.9886 34.331 41.3358 35.6597C41.1344 35.8218 40.8103 35.9861 40.5974 35.9352C40.2979 35.8474 40.042 35.6509 39.8798 35.3843C39.6691 35.0208 39.8798 34.6782 40.2038 34.4444C40.5735 34.1837 40.8881 33.8526 41.1296 33.47C41.3711 33.0875 41.5348 32.6611 41.6113 32.2153C41.9724 30.2569 40.3103 28.2801 38.3265 28.3912V29.0023C38.3265 34.5039 38.3265 40.0069 38.3265 45.5116C38.3265 48.2893 36.5927 50.0185 33.808 50.0185H16.1599C13.4168 50.0185 11.6738 48.2755 11.6738 45.5324C11.6738 40.5849 11.6738 35.6373 11.6738 30.6898V30.0185C11.2108 30.0185 10.8126 30.0185 10.4006 30.0185C10.1727 30.0439 9.94391 29.9781 9.76435 29.8354C9.58478 29.6927 9.46899 29.4847 9.44227 29.2569C9.32653 28.7153 9.20616 28.1752 9.08116 27.6366C9.05569 27.5231 9.0256 27.3565 8.9469 27.3194C8.4006 27.0625 7.84273 26.8241 7.28023 26.6065C7.20153 26.5764 7.04875 26.6782 6.95847 26.7407C6.48162 27.0139 6.01866 27.3148 5.55569 27.6157C5.37836 27.7601 5.15142 27.8292 4.92371 27.808C4.696 27.7867 4.48571 27.677 4.3381 27.5023C3.72467 26.8866 3.10893 26.2755 2.48625 25.6505C2.31742 25.5089 2.21059 25.3069 2.18853 25.0877C2.16648 24.8684 2.23095 24.6492 2.36819 24.4768C2.43532 24.375 2.50245 24.2731 2.56495 24.169C2.8543 23.706 3.33579 23.2431 3.37514 22.7477C3.41449 22.2523 3.02097 21.7222 2.78718 21.2222C2.70796 21.08 2.57695 20.9739 2.42143 20.9259C1.87051 20.7778 1.31032 20.6597 0.750138 20.5394C0.525145 20.5093 0.320808 20.3925 0.1807 20.2139C0.0405909 20.0353 -0.0242019 19.809 0.000137804 19.5833C0.000137804 18.75 0.000137804 17.9167 0.000137804 17.0833C0.000137804 16.5579 0.231619 16.2315 0.752453 16.1204C1.27329 16.0093 1.83579 15.8889 2.37282 15.75C2.83579 15.6389 3.50708 13.9815 3.25708 13.5856C2.97005 13.1227 2.68532 12.6759 2.38671 12.2292C2.24105 12.0523 2.17081 11.8252 2.19117 11.5969C2.21153 11.3687 2.32084 11.1576 2.49551 11.0093C3.10662 10.3935 3.72005 9.78009 4.32884 9.15741C4.4694 8.98468 4.67232 8.87423 4.89369 8.84997C5.11506 8.82571 5.33708 8.88959 5.51171 9.02778C5.99319 9.33565 6.46542 9.66204 6.9631 9.93981C7.13948 10.0123 7.33505 10.0237 7.51866 9.97222C7.71542 9.92824 7.88903 9.76157 8.08579 9.72454C8.86819 9.58333 9.19227 9.09259 9.24319 8.33565C9.28931 7.99058 9.36679 7.65044 9.47468 7.31944C9.51783 7.11432 9.63773 6.93345 9.80985 6.81382C9.98198 6.69419 10.1933 6.64487 10.4006 6.67593C10.5103 6.69035 10.6157 6.72739 10.7103 6.78471C10.8049 6.84203 10.8866 6.91837 10.9501 7.0089C11.0137 7.09943 11.0577 7.20218 11.0795 7.31062C11.1012 7.41907 11.1002 7.53085 11.0765 7.63889C10.9281 8.52769 10.735 9.40844 10.4978 10.2778C10.4284 10.5208 10.1089 10.7407 9.85199 10.8681C9.15755 11.2037 8.41449 11.463 7.71079 11.794C7.54467 11.8877 7.3554 11.9325 7.16489 11.9231C6.97438 11.9136 6.79045 11.8504 6.6344 11.7407C6.2369 11.4617 5.82507 11.2036 5.4006 10.9676C5.31767 10.9362 5.22884 10.9235 5.14043 10.9303C5.05202 10.9371 4.96619 10.9632 4.88903 11.0069C4.59266 11.2218 4.309 11.4537 4.03949 11.7014C4.39829 12.2685 4.68764 12.7315 5.00477 13.1944C5.1469 13.38 5.22848 13.6049 5.23842 13.8385C5.24835 14.072 5.18618 14.303 5.06032 14.5C4.75087 15.1183 4.4863 15.7581 4.26866 16.4144C4.11125 16.8773 3.87514 17.1597 3.38671 17.2523C2.82653 17.3565 2.27329 17.5 1.69921 17.6296V19.044C2.26634 19.1759 2.85662 19.3264 3.43301 19.4421C3.62852 19.4794 3.80931 19.5717 3.95409 19.7083C4.09886 19.8448 4.20158 20.02 4.25014 20.213C4.50631 20.9089 4.79258 21.5949 5.10893 22.2708C5.20956 22.4429 5.2585 22.6402 5.24987 22.8393C5.24125 23.0384 5.17545 23.2308 5.06032 23.3935C4.77994 23.7901 4.52182 24.202 4.28717 24.6273C4.25498 24.7098 4.24282 24.7988 4.25167 24.8869C4.26052 24.975 4.29014 25.0598 4.3381 25.1343C5.05338 25.963 5.06264 25.956 5.97699 25.3657C6.11375 25.2898 6.24522 25.2048 6.37051 25.1111C6.91218 24.6481 7.43069 24.6968 8.03255 25.0579C8.54173 25.3478 9.08641 25.5703 9.65292 25.7199C9.90124 25.7641 10.1283 25.8882 10.2997 26.0733C10.471 26.2584 10.5771 26.4944 10.602 26.7454C10.6992 27.2685 10.8312 27.7778 10.9446 28.3171ZM36.6622 4.43287C36.6622 2.6713 35.6506 1.66667 33.8844 1.66667H16.1275C14.3335 1.66667 13.3381 2.6713 13.3381 4.48148V45.5139C13.3381 47.3472 14.3288 48.3333 16.1761 48.3333H33.8196C35.69 48.3333 36.6622 47.3518 36.6622 45.4653V4.43287Z" fill="#E45412"/>
<path d="M42.4839 6.6713C42.7017 6.67178 42.9107 6.75675 43.067 6.90831C43.2233 7.05987 43.3147 7.26619 43.3219 7.4838C43.3227 7.71669 43.2357 7.94133 43.0782 8.11293C42.9208 8.28454 42.7045 8.39051 42.4724 8.40972C42.3655 8.41294 42.2591 8.39423 42.1598 8.35474C42.0604 8.31525 41.9702 8.25582 41.8947 8.18012C41.8193 8.10442 41.7601 8.01405 41.7209 7.91459C41.6817 7.81514 41.6633 7.7087 41.6668 7.60185C41.6553 7.48629 41.6677 7.36959 41.7033 7.25902C41.7388 7.14845 41.7966 7.04637 41.8733 6.9591C41.9499 6.87184 42.0436 6.80126 42.1487 6.75175C42.2537 6.70224 42.3679 6.67485 42.4839 6.6713Z" fill="#E45412"/>
<path d="M41.6668 10.9074C41.6552 10.794 41.667 10.6795 41.7014 10.5709C41.7358 10.4622 41.7921 10.3618 41.8669 10.2758C41.9417 10.1898 42.0333 10.1201 42.1361 10.0709C42.2388 10.0217 42.3506 9.9941 42.4645 9.98982C42.5784 9.98554 42.6919 10.0047 42.7981 10.046C42.9043 10.0873 43.0009 10.15 43.0819 10.2301C43.1629 10.3103 43.2266 10.4062 43.2691 10.5119C43.3116 10.6177 43.3319 10.731 43.3288 10.8449C43.3245 11.0791 43.2315 11.3029 43.0688 11.4713C42.906 11.6396 42.6854 11.7401 42.4515 11.7523C42.3432 11.7526 42.236 11.7305 42.1366 11.6874C42.0373 11.6442 41.9479 11.581 41.8742 11.5016C41.8005 11.4223 41.744 11.3285 41.7083 11.2262C41.6726 11.124 41.6585 11.0154 41.6668 10.9074Z" fill="#E45412"/>
<path d="M41.6668 14.2407C41.6552 14.1274 41.6668 14.013 41.7012 13.9044C41.7355 13.7958 41.7917 13.6953 41.8663 13.6093C41.941 13.5233 42.0324 13.4535 42.1351 13.4042C42.2378 13.3549 42.3495 13.3272 42.4633 13.3227C42.5771 13.3183 42.6906 13.3372 42.7968 13.3784C42.903 13.4195 42.9997 13.482 43.0808 13.562C43.1619 13.6419 43.2257 13.7376 43.2684 13.8432C43.3111 13.9488 43.3316 14.0621 43.3288 14.1759C43.3251 14.4105 43.2324 14.6349 43.0695 14.8037C42.9067 14.9726 42.6858 15.0734 42.4515 15.0856C42.3433 15.0856 42.2363 15.0633 42.1371 15.02C42.0379 14.9768 41.9487 14.9135 41.875 14.8342C41.8014 14.7549 41.7449 14.6613 41.7091 14.5592C41.6732 14.4571 41.6589 14.3487 41.6668 14.2407Z" fill="#E45412"/>
<path d="M6.67606 35.7106C6.67011 35.598 6.68716 35.4853 6.72618 35.3794C6.7652 35.2736 6.82536 35.1768 6.903 35.0949C6.98065 35.013 7.07415 34.9479 7.1778 34.9033C7.28146 34.8588 7.3931 34.8358 7.50592 34.8358C7.61875 34.8358 7.73039 34.8588 7.83405 34.9033C7.9377 34.9479 8.0312 35.013 8.10885 35.0949C8.18649 35.1768 8.24666 35.2736 8.28567 35.3794C8.32469 35.4853 8.34174 35.598 8.33579 35.7106C8.32972 35.945 8.23109 36.1674 8.06147 36.3292C7.89186 36.491 7.66506 36.579 7.43069 36.5741C7.32232 36.5733 7.21534 36.5496 7.11682 36.5044C7.0183 36.4593 6.93048 36.3937 6.85916 36.3121C6.78784 36.2305 6.73464 36.1347 6.70308 36.031C6.67152 35.9273 6.66231 35.8181 6.67606 35.7106Z" fill="#E45412"/>
<path d="M6.67606 39.0532C6.66876 38.9408 6.68441 38.828 6.72205 38.7218C6.75969 38.6156 6.81854 38.5181 6.89503 38.4354C6.97151 38.3526 7.06403 38.2863 7.16696 38.2404C7.26988 38.1945 7.38107 38.17 7.49375 38.1684C7.60643 38.1669 7.71825 38.1882 7.82242 38.2312C7.92658 38.2742 8.02092 38.338 8.09968 38.4186C8.17844 38.4992 8.23999 38.5949 8.28058 38.7001C8.32117 38.8052 8.33995 38.9175 8.33579 39.0301C8.33428 39.1462 8.30991 39.2609 8.26407 39.3676C8.21823 39.4743 8.15182 39.571 8.06863 39.652C7.98544 39.733 7.88711 39.7969 7.77924 39.8399C7.67137 39.8829 7.55608 39.9043 7.43995 39.9028C7.33201 39.9035 7.22514 39.8813 7.1264 39.8376C7.02766 39.794 6.93929 39.7299 6.86711 39.6497C6.79493 39.5694 6.74059 39.4747 6.70766 39.3719C6.67473 39.2691 6.66396 39.1605 6.67606 39.0532Z" fill="#E45412"/>
<path d="M6.67606 42.3889C6.66585 42.2751 6.6792 42.1605 6.71528 42.0521C6.75136 41.9437 6.80939 41.844 6.88576 41.759C6.96212 41.6741 7.05517 41.6058 7.15911 41.5584C7.26304 41.511 7.37563 41.4856 7.48983 41.4837C7.60403 41.4818 7.71741 41.5034 7.82287 41.5473C7.92833 41.5912 8.02362 41.6563 8.10279 41.7386C8.18196 41.821 8.2433 41.9187 8.28299 42.0258C8.32268 42.1329 8.33986 42.2471 8.33347 42.3611C8.33042 42.5954 8.23471 42.819 8.06728 42.983C7.89984 43.147 7.6743 43.238 7.43995 43.2361C7.33222 43.2368 7.22558 43.2146 7.12701 43.1711C7.02845 43.1276 6.9402 43.0638 6.86806 42.9838C6.79592 42.9037 6.74152 42.8094 6.70843 42.7069C6.67534 42.6043 6.66431 42.496 6.67606 42.3889Z" fill="#E45412"/>
<path d="M18.6437 25.0347C18.9469 25.3102 19.22 25.544 19.477 25.7963C20.0696 26.3796 20.6575 26.9699 21.2432 27.5602C21.7386 28.0625 21.7964 28.5394 21.4168 28.919C21.0372 29.2986 20.5603 29.2361 20.0603 28.7384C19.068 27.7446 18.0758 26.7508 17.0835 25.7569C16.521 25.1921 16.5187 24.8102 17.0835 24.25C18.0557 23.267 19.0333 22.2824 20.0163 21.2963C20.5557 20.7593 21.0163 20.6829 21.4052 21.0648C21.7941 21.4468 21.7363 21.9306 21.2085 22.4537L18.6437 25.0347Z" fill="#E45412"/>
<path d="M31.3358 25L28.8474 22.5278C28.7327 22.4223 28.6259 22.3086 28.5279 22.1875C28.3928 22.036 28.3216 21.838 28.3294 21.6351C28.3372 21.4322 28.4232 21.2403 28.5696 21.0995C28.6367 21.0181 28.7199 20.9515 28.8141 20.904C28.9082 20.8564 29.0112 20.8289 29.1165 20.8233C29.2219 20.8176 29.3272 20.8339 29.4259 20.8711C29.5246 20.9083 29.6146 20.9656 29.69 21.0394C30.8474 22.1613 31.9886 23.3009 33.1136 24.4583C33.1888 24.5271 33.2489 24.6108 33.29 24.704C33.3311 24.7973 33.3523 24.8981 33.3523 25C33.3523 25.1019 33.3311 25.2027 33.29 25.296C33.2489 25.3892 33.1888 25.4729 33.1136 25.5417C32.0025 26.6883 30.8751 27.8179 29.7316 28.9306C29.6555 29.0077 29.5644 29.0685 29.4639 29.1092C29.3635 29.1498 29.2558 29.1696 29.1474 29.1672C29.0391 29.1648 28.9323 29.1404 28.8338 29.0953C28.7352 29.0502 28.6469 28.9855 28.5742 28.9051C28.2478 28.5625 28.2571 28.0856 28.6367 27.6968C29.5025 26.8102 30.3937 25.9375 31.3358 25Z" fill="#E45412"/>
<path d="M26.6645 21.7593L26.3612 22.9745C25.9122 24.7708 25.4623 26.5664 25.0117 28.3611C24.8613 28.963 24.4654 29.2546 23.9886 29.1435C23.5117 29.0324 23.2548 28.5787 23.4075 27.9583C23.9384 25.8318 24.4693 23.6998 25.0001 21.5625C25.1298 21.0486 25.4909 20.7847 25.9261 20.8426C26.1413 20.8757 26.3365 20.9881 26.4731 21.1577C26.6097 21.3273 26.678 21.5419 26.6645 21.7593Z" fill="#E45412"/>
<path d="M25.0325 5C24.2339 5 23.4353 5 22.6367 5C22.0349 5 21.6599 4.65509 21.6714 4.14815C21.683 3.6412 22.0464 3.34028 22.6251 3.33796C24.2038 3.33796 25.7825 3.33796 27.3613 3.33796C27.9654 3.33796 28.3404 3.68287 28.3265 4.18981C28.3126 4.69676 27.9515 4.99306 27.3728 5C26.5927 5.00694 25.8126 5 25.0325 5Z" fill="#E45412"/>
</svg>
