<svg width="50" height="50" viewBox="0 0 50 50" fill="none" xmlns="http://www.w3.org/2000/svg">
<path d="M-0.000253183 14.8805C0.290202 14.4575 0.603959 14.051 0.939562 13.6629C1.92104 12.6421 2.95577 11.6768 3.93493 10.6444C4.18777 10.3599 4.50118 10.1357 4.8521 9.98823C5.20302 9.84081 5.58253 9.77394 5.96271 9.79254C9.03678 9.82495 12.1132 9.79254 15.1896 9.79254H15.7034C16.1664 8.21384 16.2613 8.14671 17.9257 8.14671C18.9928 8.14671 18.9928 8.14671 19.4349 7.01476C19.0391 6.64208 18.6039 6.25319 18.1919 5.83884C17.5877 5.22773 17.5345 4.56338 18.0923 3.92912C18.609 3.34416 19.1626 2.79287 19.7497 2.27865C20.3215 1.77634 20.9905 1.81569 21.5507 2.34347C21.921 2.68606 22.2775 3.03791 22.6201 3.41291C22.7891 3.59347 22.9419 3.65828 23.1641 3.51708C23.2876 3.43744 23.4238 3.37951 23.5669 3.34578C23.884 3.27865 23.9604 3.09115 23.9442 2.7856C23.9187 2.32263 23.928 1.84347 23.9442 1.37125C23.965 0.593467 24.4349 0.0656894 25.2034 0.0286524C25.972 -0.00838463 26.7312 -0.0106994 27.4905 0.0286524C28.3192 0.0680043 28.7845 0.586523 28.8053 1.41754C28.8296 1.82381 28.8296 2.23118 28.8053 2.63745C28.7636 3.06106 28.9187 3.2393 29.3122 3.41523C29.7752 3.61662 30.0391 3.58421 30.3377 3.20226C30.5925 2.90543 30.8687 2.62767 31.1641 2.37125C31.7405 1.82263 32.4095 1.76245 32.9997 2.28097C33.5976 2.80702 34.1612 3.37066 34.6872 3.96847C35.1826 4.53097 35.134 5.22078 34.6178 5.77402C34.2752 6.14208 33.9234 6.50087 33.546 6.84115C33.503 6.86969 33.4662 6.90666 33.4378 6.94984C33.4094 6.99301 33.3901 7.04149 33.381 7.09234C33.3719 7.14319 33.3733 7.19536 33.3849 7.24568C33.3966 7.29601 33.4183 7.34345 33.4488 7.38513C33.5113 7.55113 33.5832 7.71343 33.6641 7.87125C33.7485 8.00349 33.8774 8.10119 34.0275 8.14671C34.3691 8.16525 34.7114 8.16525 35.053 8.14671C36.4419 8.14671 36.722 8.37819 36.9951 9.79486C37.2266 9.79486 37.4835 9.79486 37.7359 9.79486C38.222 9.818 38.5252 10.1212 38.5113 10.5541C38.4974 10.987 38.2034 11.237 37.7335 11.2486C37.5021 11.2486 37.2706 11.2486 36.9997 11.2486C36.9697 11.4499 36.9396 11.6328 36.9164 11.8203C36.8959 12.1436 36.7536 12.4471 36.5182 12.6696C36.2828 12.8921 35.9718 13.0171 35.6479 13.0194C35.1271 13.0379 34.6039 13.0379 34.0854 13.0194C33.9836 13.0025 33.8792 13.0249 33.7932 13.0821C33.7073 13.1392 33.6463 13.2269 33.6224 13.3273C33.3169 14.1143 33.3076 14.1097 33.9002 14.7046C34.1317 14.9361 34.3909 15.1675 34.6201 15.4314C35.097 15.9523 35.1687 16.6351 34.7104 17.1583C34.1551 17.7946 33.5573 18.3924 32.921 18.9476C32.384 19.4106 31.7289 19.3504 31.1965 18.8597C30.8261 18.5171 30.4697 18.1652 30.1271 17.7902C30.0637 17.6984 29.9669 17.6351 29.8574 17.6139C29.7479 17.5927 29.6344 17.6153 29.5414 17.6768C28.803 18.0171 28.7984 18.0009 28.796 18.8342C28.796 19.1768 28.8099 19.5287 28.796 19.8597C28.759 20.6004 28.3331 21.105 27.5947 21.1513C26.7846 21.2046 25.9719 21.2046 25.1618 21.1513C24.3747 21.0981 23.9534 20.5842 23.9372 19.7833C23.9141 19.377 23.9141 18.9697 23.9372 18.5634C23.9812 18.1421 23.8678 17.8828 23.4257 17.7972C23.2492 17.7405 23.0787 17.6668 22.9164 17.5773C22.9164 17.7925 22.8909 17.9615 22.8909 18.1305C22.8909 19.6444 22.8909 21.1583 22.8909 22.6722C22.8909 22.7856 22.8909 22.9037 22.8909 23.0124C22.8771 23.5981 22.6178 23.9083 22.1525 23.9013C21.6872 23.8944 21.4349 23.5773 21.4303 22.9893C21.4303 21.9314 21.4303 20.8736 21.4303 19.8157V18.9824C20.4488 19.5912 19.8099 19.0425 19.2034 18.4407C18.7952 18.0462 18.4089 17.6296 18.046 17.193C17.8225 16.9484 17.7051 16.6252 17.7194 16.2941C17.7337 15.9631 17.8786 15.6512 18.1224 15.4268C18.4766 15.0449 18.8701 14.6999 19.2127 14.3087C19.2621 14.2387 19.2954 14.1586 19.3103 14.0741C19.3251 13.9897 19.321 13.903 19.2984 13.8203C18.9812 13.0194 18.9812 13.024 18.0877 13.024C17.7775 13.024 17.4697 13.024 17.1618 13.024C16.3771 13.0055 15.9025 12.5611 15.803 11.7763C15.7891 11.6652 15.7752 11.5449 15.7544 11.4384C15.7375 11.381 15.7174 11.3245 15.6942 11.2694H14.9234C11.8979 11.2694 8.87012 11.2694 5.84234 11.2833C5.56372 11.2976 5.29867 11.408 5.09234 11.5958C3.96425 12.6791 2.85777 13.7864 1.77289 14.9175C1.59363 15.1141 1.48881 15.3671 1.4766 15.6328C1.45962 22.4523 1.45422 29.2725 1.46039 36.0935C1.46039 36.4523 1.50206 36.6722 1.95114 36.6699C6.42799 36.6583 10.9025 36.6699 15.3771 36.6699C15.4558 36.6699 15.5345 36.656 15.6294 36.6467C15.8099 32.9245 17.7312 30.6884 21.4164 29.8898C21.4164 28.9916 21.4164 28.068 21.4164 27.1444C21.4091 26.949 21.4145 26.7534 21.4326 26.5587C21.4374 26.4645 21.4614 26.3723 21.5031 26.2877C21.5447 26.203 21.6032 26.1278 21.6749 26.0665C21.7466 26.0052 21.83 25.9591 21.9201 25.9311C22.0102 25.9031 22.105 25.8938 22.1988 25.9037C22.2893 25.9023 22.3792 25.9195 22.4628 25.9542C22.5464 25.9889 22.622 26.0404 22.6849 26.1055C22.7478 26.1706 22.7967 26.2479 22.8285 26.3326C22.8604 26.4173 22.8746 26.5077 22.8701 26.5981C22.8863 27.5101 22.8701 28.4222 22.8817 29.3342V29.906C23.1734 29.9777 23.4534 30.0402 23.7312 30.112C25.3012 30.51 26.6642 31.4836 27.5499 32.8397C28.4356 34.1957 28.7792 35.8351 28.5126 37.4327C28.246 39.0302 27.3886 40.4692 26.1106 41.4642C24.8326 42.4592 23.2273 42.9374 21.6132 42.8041C18.9072 42.5449 17.046 41.068 16.0576 38.5356C15.9326 38.2162 15.7984 38.1097 15.4697 38.1282C14.9697 38.1537 14.4673 38.1282 13.9558 38.1282C13.8585 38.737 14.0923 39.5796 13.1641 39.568C12.2729 39.568 12.5136 38.7347 12.4141 38.1282H11.8354C8.64558 38.1282 5.45577 38.1004 2.26595 38.1444C1.21271 38.1583 0.434932 37.855 -0.00488281 36.8666L-0.000253183 14.8805ZM32.1155 3.39439C31.6525 3.8805 31.2798 4.29949 30.8863 4.70921C30.6905 4.93151 30.4259 5.08174 30.1346 5.13588C29.8434 5.19001 29.5424 5.14492 29.2798 5.00782C28.9372 4.85967 28.5854 4.71847 28.2451 4.57958C27.6039 4.32032 27.34 3.94069 27.3192 3.23467C27.3192 2.66754 27.3192 2.10041 27.3192 1.47773H25.3933C25.3933 2.12125 25.3933 2.70458 25.3933 3.28791C25.4065 3.5672 25.3275 3.84309 25.1686 4.07312C25.0096 4.30316 24.7795 4.4746 24.5136 4.56106C24.2428 4.66523 23.9673 4.76708 23.7011 4.88745C22.7567 5.318 22.3771 5.26013 21.6595 4.53328C21.3076 4.1768 20.9766 3.80643 20.6386 3.44532L19.171 4.83421C19.6572 5.29717 20.097 5.69532 20.4997 6.10504C20.7123 6.29916 20.8546 6.55819 20.9044 6.84169C20.9542 7.12519 20.9088 7.41721 20.7752 7.67217C20.6294 8.01708 20.4812 8.36662 20.3423 8.70458C20.0808 9.35504 19.7127 9.61662 19.0044 9.6305C18.4372 9.6305 17.8701 9.6305 17.2474 9.6305V11.5657C17.8423 11.5657 18.3933 11.5657 18.9465 11.5657C19.6988 11.5657 20.0877 11.8388 20.3585 12.5287C20.4835 12.8458 20.6132 13.1606 20.7497 13.4731C21.046 14.1513 20.9812 14.6305 20.4419 15.1583C20.0414 15.5587 19.6178 15.9384 19.1734 16.3574L20.5854 17.818C20.84 17.531 21.0298 17.3087 21.2289 17.0981C21.428 16.8874 21.6641 16.6583 21.8863 16.443C22.0781 16.2404 22.3301 16.1051 22.6049 16.0571C22.8798 16.0091 23.1627 16.0511 23.4118 16.1768C23.7567 16.3226 24.1062 16.4731 24.4442 16.612C25.1178 16.8782 25.3863 17.2578 25.3933 17.9824C25.3933 18.5472 25.3933 19.112 25.3933 19.7115H27.3308C27.3308 19.068 27.3308 18.4847 27.3308 17.899C27.3182 17.6201 27.3981 17.3448 27.558 17.1158C27.7179 16.8869 27.9488 16.7171 28.215 16.6328C28.5322 16.5101 28.8516 16.3851 29.1618 16.2462C29.928 15.9037 30.3655 15.9754 30.9627 16.5703C31.347 16.9569 31.722 17.3574 32.0923 17.7439L33.5414 16.355C33.0646 15.8921 32.6317 15.5078 32.2173 15.0958C32.0072 14.9001 31.8668 14.641 31.8175 14.3581C31.7682 14.0752 31.8127 13.7839 31.9442 13.5287C32.0854 13.1999 32.2243 12.8712 32.3539 12.5402C32.6224 11.8458 33.0183 11.5703 33.7613 11.5657C34.3238 11.5657 34.8863 11.5657 35.4789 11.5657V9.62356C34.8585 9.62356 34.2914 9.62356 33.7243 9.62356C32.9997 9.62356 32.6271 9.35273 32.3609 8.66986C32.2405 8.36893 32.1294 8.06569 31.9905 7.76939C31.6664 7.03791 31.7359 6.57958 32.3192 6.01013C32.7104 5.6305 33.1363 5.28328 33.6085 4.85273L32.1155 3.39439ZM22.1595 31.3527C21.1716 31.3504 20.2052 31.6411 19.3825 32.188C18.5598 32.7349 17.9177 33.5135 17.5375 34.4252C17.1572 35.337 17.0558 36.341 17.2461 37.3104C17.4364 38.2798 17.9099 39.171 18.6067 39.8713C19.3034 40.5717 20.1922 41.0497 21.1606 41.2449C22.129 41.4402 23.1336 41.3439 24.0472 40.9683C24.9609 40.5927 25.7428 39.9546 26.2938 39.1347C26.8449 38.3148 27.1405 37.3499 27.1433 36.362C27.1466 35.7054 27.0202 35.0546 26.7712 34.4469C26.5223 33.8393 26.1557 33.2869 25.6926 32.8214C25.2295 32.3559 24.6789 31.9866 24.0726 31.7345C23.4663 31.4825 22.8161 31.3527 22.1595 31.3527Z" fill="#E45412"/>
<path d="M41.1155 23.4337H41.7127C43.9426 23.4337 46.1718 23.4337 48.4002 23.4337C49.6039 23.4337 49.9974 23.8365 49.9974 25.0541C49.9974 26.6174 49.9974 28.1799 49.9974 29.7416C49.9974 30.7578 49.5553 31.2092 48.5507 31.2092C46.2868 31.2092 44.0244 31.2092 41.7636 31.2092H41.1896V32.6814H41.7243C43.9697 32.6814 46.2158 32.6814 48.4627 32.6814C49.5576 32.6814 49.9974 33.1236 49.9974 34.2185C49.9974 35.8296 49.9974 37.4415 49.9974 39.0541C49.9974 39.98 49.5206 40.4638 48.59 40.4685C47.9234 40.4685 47.2544 40.4685 46.5877 40.4685C46.0622 40.4685 45.7497 40.1652 45.7636 39.7138C45.7775 39.2624 46.0831 39.0194 46.5877 39.0078C47.2173 39.0078 47.8493 39.0078 48.5067 39.0078V34.1768H32.3377V39.0055H42.9511C43.4789 39.0217 43.7937 39.3064 43.7845 39.7532C43.7752 40.1999 43.4673 40.4592 42.9673 40.4685C42.384 40.4685 41.7984 40.4685 41.1803 40.4685V41.9361H48.5113C49.546 41.9361 49.9974 42.399 49.9974 43.4222C49.9974 45.0487 49.9974 46.676 49.9974 48.3041C49.9974 49.23 49.5206 49.7254 48.59 49.7254C43.1394 49.7254 37.688 49.7254 32.2359 49.7254C31.3238 49.7254 30.8585 49.2439 30.847 48.3365C30.847 47.9777 30.847 47.6212 30.847 47.2624C30.847 46.9037 30.9002 46.568 30.4604 46.3365C30.0854 46.1305 30.1456 45.4847 30.5414 45.2601C30.6543 45.203 30.7454 45.1106 30.801 44.997C30.8565 44.8833 30.8735 44.7547 30.8493 44.6305C30.8377 44.2231 30.8493 43.8157 30.8493 43.4083C30.8493 42.399 31.3007 41.9453 32.3007 41.943H39.6479V40.4754H32.3192C31.303 40.4754 30.8516 40.031 30.8493 39.0287C30.8493 37.3851 30.8493 35.7416 30.8493 34.0981C30.8493 33.1606 31.3122 32.693 32.2636 32.6907C34.5252 32.6907 36.7868 32.6907 39.0507 32.6907H39.6525V31.2185H32.4396C31.2428 31.2185 30.8493 30.8319 30.8493 29.6513V25.0217C30.8493 23.8481 31.2474 23.4523 32.4419 23.4523C34.6703 23.4523 36.8994 23.4523 39.1294 23.4523H39.6826C39.6826 22.9407 39.6826 22.4731 39.6826 22.0055C39.6942 21.4268 39.9673 21.1166 40.4349 21.1259C40.9025 21.1351 41.1294 21.4268 41.1433 21.9893C41.1433 22.2347 41.1433 22.4777 41.1433 22.7231C41.1433 22.9685 41.1271 23.1537 41.1155 23.4337ZM32.3192 48.23H48.4882V43.4384H32.3308L32.3192 48.23ZM32.3192 29.7115H48.4905V24.9291H32.3377L32.3192 29.7115Z" fill="#E45412"/>
<path d="M40.3933 37.3203C38.7197 37.3203 37.0437 37.3203 35.3701 37.3203C35.1762 37.3271 34.9824 37.3028 34.796 37.2486C34.4442 37.1259 34.2382 36.825 34.3562 36.4893C34.4942 36.238 34.6973 36.0286 34.9442 35.8828C35.0414 35.8111 35.2289 35.8574 35.3747 35.8574H45.4673C45.6141 35.8523 45.7611 35.8577 45.9072 35.8736C46.0632 35.899 46.2064 35.9753 46.3144 36.0907C46.4224 36.2061 46.4892 36.354 46.5043 36.5113C46.5193 36.6687 46.4819 36.8266 46.3977 36.9604C46.3136 37.0942 46.1874 37.1963 46.0391 37.2509C45.8524 37.3031 45.6588 37.3265 45.465 37.3203C43.7729 37.3226 42.0831 37.3203 40.3933 37.3203Z" fill="#E45412"/>
<path d="M11.4234 18.1212C9.77984 18.1212 8.13864 18.1212 6.49512 18.1212C5.91641 18.1212 5.59465 17.7925 5.65252 17.2995C5.70345 16.8874 6.00438 16.6629 6.54373 16.6606C7.74512 16.6606 8.94882 16.6606 10.1525 16.6606C12.2011 16.6606 14.2497 16.649 16.2984 16.6745C16.595 16.6842 16.8784 16.8001 17.097 17.0009C17.1629 17.1031 17.2021 17.2203 17.211 17.3416C17.2199 17.4629 17.1982 17.5846 17.1479 17.6953C17.0652 17.8053 16.961 17.8974 16.8416 17.9658C16.7222 18.0343 16.5902 18.0777 16.4535 18.0935C15.171 18.1305 13.884 18.112 12.6016 18.112L11.4234 18.1212Z" fill="#E45412"/>
<path d="M11.4697 23.7509C13.1109 23.7509 14.7544 23.7509 16.3956 23.7509C17.0646 23.7509 17.4743 24.2995 17.1548 24.7902C17.0715 24.9033 16.9654 24.9978 16.8434 25.0676C16.7215 25.1373 16.5863 25.1808 16.4465 25.1953C13.1132 25.2208 9.77984 25.2162 6.44651 25.2092C5.94419 25.2092 5.65021 24.9106 5.64789 24.4754C5.64558 24.0402 5.94419 23.7532 6.4928 23.7509C8.15252 23.7462 9.80993 23.7509 11.4697 23.7509Z" fill="#E45412"/>
<path d="M11.421 28.7671C9.80067 28.7671 8.16873 28.7671 6.54373 28.7671C6.19651 28.7671 5.89326 28.7023 5.72197 28.3666C5.66519 28.2575 5.63721 28.1358 5.64067 28.0128C5.64413 27.8899 5.67892 27.7699 5.74175 27.6642C5.80457 27.5585 5.89335 27.4706 5.99967 27.4088C6.10599 27.347 6.22633 27.3133 6.34928 27.3111C6.65484 27.281 6.96734 27.3111 7.27521 27.3111H16.1062C16.2684 27.3041 16.4308 27.3087 16.5923 27.325C16.7811 27.3426 16.9555 27.4334 17.0783 27.5778C17.2011 27.7222 17.2626 27.9089 17.2497 28.0981C17.2443 28.2786 17.1688 28.45 17.0391 28.5757C16.9095 28.7015 16.7359 28.7718 16.5553 28.7717C16.4095 28.7717 16.2613 28.7717 16.1155 28.7717L11.421 28.7671Z" fill="#E45412"/>
<path d="M11.4812 20.2208H16.2613C16.9141 20.2208 17.266 20.4847 17.2567 20.9546C17.2474 21.4245 16.8979 21.6814 16.2868 21.6837C13.046 21.6837 9.8107 21.6837 6.58077 21.6837C5.94651 21.6837 5.61549 21.3875 5.65484 20.8874C5.68493 20.4592 5.97197 20.2254 6.51132 20.2254C8.16641 20.2162 9.82382 20.2208 11.4812 20.2208Z" fill="#E45412"/>
<path d="M8.65252 30.8666C9.3678 30.8666 10.0831 30.8666 10.7984 30.8666C11.3539 30.8666 11.6433 31.1375 11.6363 31.5981C11.6294 32.0587 11.3447 32.318 10.8284 32.3226C9.36549 32.3365 7.89944 32.3365 6.4303 32.3226C5.92104 32.3226 5.63863 32.0217 5.64326 31.5819C5.64789 31.1421 5.92799 30.8875 6.44882 30.8689C7.18725 30.8574 7.92104 30.8666 8.65252 30.8666Z" fill="#E45412"/>
<path d="M14.8146 45.5958C14.8331 46.1791 14.3516 46.568 13.8886 46.4083C13.5772 46.3121 13.2954 46.1381 13.0698 45.9028C12.8442 45.6675 12.6823 45.3786 12.5993 45.0634C12.5453 44.9071 12.5528 44.7362 12.6203 44.5852C12.6878 44.4343 12.8102 44.3148 12.9627 44.2509C13.1067 44.1708 13.2744 44.1446 13.436 44.1768C13.5976 44.209 13.7424 44.2976 13.8447 44.4268C14.0761 44.6768 14.34 44.9175 14.5646 45.1837C14.6621 45.3119 14.7459 45.45 14.8146 45.5958Z" fill="#E45412"/>
<path d="M41.2474 11.9314C41.1548 12.5124 40.9048 12.8574 40.472 12.8782C40.0391 12.899 39.7636 12.6166 39.678 12.0819C39.6341 11.8639 39.5609 11.6529 39.4604 11.4546C39.3608 11.2948 39.3268 11.1027 39.3657 10.9184C39.4045 10.7342 39.5131 10.5721 39.6687 10.4662C39.7436 10.4095 39.8293 10.369 39.9206 10.3471C40.0119 10.3252 40.1067 10.3225 40.1991 10.339C40.2915 10.3555 40.3795 10.391 40.4575 10.4431C40.5355 10.4953 40.6019 10.563 40.6525 10.6421C40.8792 11.0582 41.0779 11.4889 41.2474 11.9314Z" fill="#E45412"/>
<path d="M41.1294 15.2023C41.1421 15.4289 41.1421 15.6561 41.1294 15.8828C41.1176 16.0474 41.0435 16.2012 40.9222 16.3131C40.8009 16.4249 40.6416 16.4863 40.4766 16.4847C40.0947 16.5101 39.7822 16.325 39.7382 15.9337C39.6861 15.4359 39.6861 14.9339 39.7382 14.4361C39.7798 14.0472 40.0831 13.8597 40.4743 13.8828C40.5602 13.8807 40.6456 13.8956 40.7257 13.9268C40.8058 13.958 40.8788 14.0047 40.9406 14.0644C41.0025 14.1241 41.0518 14.1954 41.0858 14.2743C41.1198 14.3532 41.1377 14.4381 41.1386 14.524C41.1502 14.75 41.1502 14.9763 41.1386 15.2023H41.1294Z" fill="#E45412"/>
<path d="M41.1294 18.8111C41.1433 19.0369 41.1433 19.2634 41.1294 19.4893C41.1241 19.5751 41.1019 19.659 41.0641 19.7362C41.0263 19.8134 40.9736 19.8823 40.9091 19.9391C40.8446 19.9959 40.7695 20.0394 40.6881 20.067C40.6067 20.0947 40.5207 20.1061 40.4349 20.1004C40.3533 20.1111 40.2704 20.1053 40.1911 20.0835C40.1117 20.0617 40.0375 20.0242 39.9728 19.9733C39.9081 19.9224 39.8543 19.8591 39.8144 19.7872C39.7745 19.7152 39.7493 19.6359 39.7405 19.5541C39.6883 19.0408 39.6883 18.5235 39.7405 18.0101C39.7822 17.6444 40.09 17.4777 40.4581 17.4962C40.6228 17.4898 40.7835 17.5474 40.9066 17.6571C41.0296 17.7668 41.1053 17.9199 41.1178 18.0842C41.134 18.3262 41.134 18.5691 41.1178 18.8111H41.1294Z" fill="#E45412"/>
<path d="M12.4766 41.8689C12.4627 41.6423 12.4627 41.415 12.4766 41.1884C12.4873 41.0148 12.5664 40.8524 12.6966 40.737C12.8268 40.6216 12.9974 40.5625 13.171 40.5726C13.2575 40.561 13.3454 40.5674 13.4292 40.5912C13.5131 40.6151 13.5911 40.656 13.6585 40.7114C13.7258 40.7668 13.781 40.8355 13.8206 40.9132C13.8602 40.9909 13.8834 41.0759 13.8886 41.1629C13.9326 41.6303 13.9326 42.1007 13.8886 42.568C13.8849 42.6587 13.8623 42.7476 13.8223 42.8291C13.7823 42.9105 13.7258 42.9827 13.6563 43.0411C13.5868 43.0995 13.5059 43.1427 13.4188 43.1681C13.3316 43.1935 13.2402 43.2004 13.1502 43.1884C12.9761 43.1909 12.808 43.1253 12.6816 43.0054C12.5553 42.8856 12.4809 42.7212 12.4743 42.5472C12.4627 42.3212 12.4627 42.0949 12.4743 41.8689H12.4766Z" fill="#E45412"/>
<path d="M17.0715 46.5402C16.8456 46.5541 16.6191 46.5541 16.3933 46.5402C16.2285 46.5296 16.0741 46.4562 15.9617 46.3353C15.8493 46.2143 15.7876 46.0549 15.7891 45.8898C15.7636 45.5009 15.9465 45.1953 16.3354 45.149C16.8324 45.0958 17.3337 45.0958 17.8308 45.149C17.917 45.1573 18.0005 45.1833 18.0762 45.2254C18.1518 45.2676 18.2179 45.3249 18.2703 45.3938C18.3227 45.4627 18.3603 45.5418 18.3806 45.6259C18.401 45.7101 18.4037 45.7976 18.3886 45.8828C18.3924 46.0562 18.3272 46.2239 18.2074 46.3494C18.0877 46.4748 17.9231 46.5476 17.7497 46.5518C17.5183 46.5726 17.2868 46.5518 17.0715 46.5518V46.5402Z" fill="#E45412"/>
<path d="M20.7382 46.5425C20.4961 46.5564 20.2534 46.5564 20.0113 46.5425C19.8467 46.5337 19.6918 46.4619 19.5786 46.3422C19.4653 46.2225 19.4023 46.0638 19.4025 45.899C19.3747 45.5101 19.553 45.2046 19.9419 45.1513C20.439 45.0993 20.9401 45.0993 21.4372 45.1513C21.5235 45.1591 21.6071 45.1846 21.6831 45.2261C21.759 45.2677 21.8255 45.3244 21.8785 45.3929C21.9315 45.4613 21.9699 45.5399 21.9911 45.6238C22.0124 45.7077 22.0161 45.7951 22.0021 45.8805C22.0048 45.9662 21.9907 46.0517 21.9604 46.1319C21.9302 46.2122 21.8844 46.2857 21.8257 46.3483C21.767 46.4108 21.6966 46.4612 21.6184 46.4965C21.5402 46.5319 21.4559 46.5514 21.3701 46.5541C21.1596 46.5657 20.9487 46.5657 20.7382 46.5541V46.5425Z" fill="#E45412"/>
<path d="M24.2706 46.5425C24.0609 46.5553 23.8506 46.5553 23.6409 46.5425C23.4761 46.5367 23.3197 46.4679 23.2039 46.3504C23.0881 46.2329 23.0217 46.0755 23.0183 45.9106C22.9835 45.524 23.1525 45.1999 23.5391 45.1537C24.0513 45.0946 24.5686 45.0946 25.0808 45.1537C25.4697 45.1953 25.6456 45.5148 25.6132 45.9037C25.611 46.0676 25.5463 46.2246 25.4323 46.3425C25.3183 46.4604 25.1636 46.5303 24.9997 46.5379C24.7569 46.5522 24.5135 46.5537 24.2706 46.5425Z" fill="#E45412"/>
<path d="M27.8956 46.5449C27.6849 46.5449 27.4743 46.5634 27.2659 46.5449C27.0926 46.54 26.9282 46.4666 26.8089 46.3408C26.6896 46.2149 26.625 46.0469 26.6294 45.8736C26.6085 45.4847 26.8007 45.1791 27.1872 45.1421C27.6851 45.0888 28.1871 45.0888 28.6849 45.1421C29.0715 45.1861 29.2544 45.4962 29.2266 45.8851C29.2287 46.0502 29.167 46.2096 29.0545 46.3304C28.9419 46.4511 28.7872 46.5238 28.6224 46.5333C28.3803 46.5472 28.1377 46.5472 27.8956 46.5333V46.5449Z" fill="#E45412"/>
<path d="M25.9789 15.7601C24.1525 15.6467 22.5067 14.6652 21.6386 12.6606C20.7798 10.6976 21.0646 8.81106 22.4882 7.20226C23.9118 5.59347 25.7752 5.07263 27.884 5.66523C28.5345 5.8481 28.766 6.18143 28.6271 6.65365C28.4882 7.12587 28.1016 7.25087 27.4697 7.06337C26.9989 6.89378 26.4988 6.82132 25.9993 6.85035C25.4998 6.87939 25.0114 7.00932 24.5635 7.23231C24.1156 7.45531 23.7176 7.76673 23.3933 8.1478C23.0691 8.52887 22.8255 8.97167 22.6771 9.44949C22.5287 9.92731 22.4787 10.4302 22.5301 10.9279C22.5814 11.4256 22.7331 11.9077 22.9759 12.3452C23.2187 12.7826 23.5476 13.1664 23.9428 13.4732C24.338 13.7801 24.7912 14.0037 25.2752 14.1305C25.9206 14.3509 26.6162 14.3788 27.2771 14.2107C27.9381 14.0426 28.5358 13.6857 28.9974 13.1837C30.0414 12.1143 30.3146 10.8249 29.8678 9.39671C29.6363 8.63745 29.7173 8.26245 30.2173 8.10504C30.7173 7.94763 31.0044 8.20921 31.2544 8.93375C32.4072 12.2833 29.8794 15.781 25.9789 15.7601Z" fill="#E45412"/>
<path d="M28.6224 10.6074C28.6192 11.0551 28.4831 11.4919 28.2314 11.8622C27.9797 12.2325 27.6237 12.5198 27.2086 12.6877C26.7935 12.8555 26.3379 12.8963 25.8995 12.805C25.4611 12.7136 25.0598 12.4942 24.7462 12.1745C24.4327 11.8548 24.2211 11.4492 24.1383 11.0092C24.0555 10.5691 24.1052 10.1144 24.2811 9.70258C24.457 9.2908 24.7512 8.9405 25.1264 8.69607C25.5016 8.45164 25.9409 8.32409 26.3886 8.32958C26.6852 8.33139 26.9784 8.39186 27.2515 8.50751C27.5246 8.62316 27.7721 8.79171 27.9797 9.00344C28.1874 9.21517 28.3511 9.4659 28.4614 9.74117C28.5717 10.0164 28.6264 10.3108 28.6224 10.6074ZM26.3678 9.79717C26.2104 9.79581 26.0562 9.84112 25.9245 9.92737C25.7929 10.0136 25.6897 10.137 25.6281 10.2818C25.5665 10.4266 25.5492 10.5865 25.5784 10.7411C25.6076 10.8958 25.682 11.0383 25.7922 11.1508C25.9023 11.2632 26.0433 11.3404 26.1973 11.3728C26.3514 11.4051 26.5115 11.391 26.6576 11.3324C26.8037 11.2738 26.9291 11.1732 27.018 11.0433C27.1069 10.9134 27.1553 10.7601 27.1572 10.6027C27.1609 10.4973 27.1432 10.3922 27.1051 10.2938C27.067 10.1954 27.0092 10.1059 26.9354 10.0305C26.8616 9.95515 26.7732 9.8956 26.6756 9.85549C26.578 9.81538 26.4733 9.79553 26.3678 9.79717Z" fill="#E45412"/>
<path d="M21.7382 36.9754L23.9164 34.7949C24.0258 34.6742 24.1442 34.562 24.2706 34.4592C24.4069 34.3385 24.5853 34.2763 24.7671 34.2858C24.949 34.2953 25.1198 34.3759 25.2428 34.5101C25.3138 34.5677 25.3717 34.6397 25.4128 34.7214C25.4538 34.8031 25.4769 34.8926 25.4806 34.9839C25.4843 35.0752 25.4686 35.1663 25.4343 35.251C25.4001 35.3358 25.3482 35.4123 25.2822 35.4754C24.2868 36.5032 23.276 37.5155 22.2497 38.5125C22.1881 38.5799 22.1129 38.6336 22.0291 38.67C21.9453 38.7064 21.8547 38.7246 21.7634 38.7235C21.672 38.7224 21.5819 38.702 21.4989 38.6637C21.416 38.6253 21.3421 38.5698 21.2822 38.5009C20.5229 37.7648 19.7752 37.0171 19.0391 36.2578C18.9713 36.1926 18.9171 36.1147 18.8796 36.0285C18.8421 35.9422 18.822 35.8494 18.8205 35.7554C18.819 35.6614 18.8361 35.568 18.8708 35.4806C18.9056 35.3932 18.9572 35.3136 19.0229 35.2462C19.0881 35.172 19.1683 35.1125 19.2584 35.0717C19.3484 35.0309 19.4461 35.0098 19.5449 35.0098C19.6437 35.0098 19.7414 35.0309 19.8314 35.0717C19.9214 35.1125 20.0017 35.172 20.0669 35.2462C20.3585 35.5055 20.6294 35.7902 20.8979 36.0703C21.1664 36.3504 21.4257 36.6351 21.7382 36.9754Z" fill="#E45412"/>
<path d="M35.4372 46.5587C35.2586 46.5653 35.0797 46.5568 34.9025 46.5333C34.743 46.5061 34.5976 46.4254 34.49 46.3046C34.3824 46.1838 34.3191 46.03 34.3104 45.8684C34.3018 45.7069 34.3484 45.5472 34.4425 45.4156C34.5367 45.2841 34.6728 45.1884 34.8285 45.1444C35.018 45.1002 35.2126 45.0815 35.4072 45.0888C38.7544 45.0888 42.1024 45.0888 45.4511 45.0888C45.6132 45.083 45.7754 45.0947 45.9349 45.1236C46.1073 45.1472 46.2636 45.2376 46.3701 45.3752C46.4766 45.5129 46.5248 45.6868 46.5044 45.8597C46.5075 45.9458 46.4935 46.0317 46.4632 46.1123C46.4329 46.193 46.387 46.2669 46.328 46.3297C46.2691 46.3926 46.1983 46.4431 46.1197 46.4785C46.0411 46.5138 45.9563 46.5332 45.8701 46.5356C45.6437 46.5534 45.4166 46.5595 45.1896 46.5541L35.4372 46.5587Z" fill="#E45412"/>
<path d="M45.5784 26.5981C46.1919 26.5981 46.5044 26.862 46.5044 27.3388C46.5044 27.8157 46.1734 28.0611 45.5947 28.0611C42.1471 28.0611 38.7004 28.0611 35.2544 28.0611C34.6548 28.0611 34.3099 27.7787 34.3285 27.3111C34.347 26.8435 34.6641 26.5981 35.2544 26.5981H45.5784Z" fill="#E45412"/>
</svg>
