<svg width="44" height="56" viewBox="0 0 44 56" fill="none" xmlns="http://www.w3.org/2000/svg">
<path d="M29.3196 43.6332C29.3922 43.6929 29.4052 43.711 29.4207 43.7136C31.277 44.131 31.6141 44.5536 31.6141 46.4721C31.6141 46.8195 31.627 47.1669 31.6141 47.5092C31.61 48.0177 31.4064 48.5042 31.0471 48.864C30.6877 49.2238 30.2015 49.4281 29.693 49.4329C29.5527 49.4477 29.4134 49.4702 29.2756 49.5003C29.5219 49.9073 29.7241 50.2781 29.9626 50.6047C30.0672 50.6956 30.2027 50.7429 30.3411 50.7369C33.5352 50.7369 36.7319 50.7499 39.9337 50.7369C40.9474 50.7369 41.637 49.941 41.637 48.8443C41.637 45.9406 41.637 43.0369 41.637 40.1332C41.6266 39.9701 41.6266 39.8064 41.637 39.6432C41.648 39.4487 41.7316 39.2653 41.8713 39.1294C42.011 38.9935 42.1967 38.9151 42.3915 38.9095C42.5952 38.8846 42.8006 38.9411 42.9628 39.0669C43.125 39.1927 43.2309 39.3775 43.2574 39.581C43.2839 39.7429 43.2908 39.9074 43.2782 40.071C43.2782 42.9557 43.2782 45.8413 43.2782 48.7277C43.2782 50.9755 41.8756 52.3936 39.6304 52.3988C36.4882 52.3988 33.3477 52.3988 30.2089 52.3988C30.0475 52.3826 29.8846 52.4063 29.7346 52.4678C29.5845 52.5292 29.4518 52.6266 29.3481 52.7514C29.0578 53.0988 28.713 53.4047 28.3889 53.7262C27.4478 54.6543 26.4393 54.6906 25.4256 53.8351C25.3582 53.7781 25.2856 53.7314 25.1248 53.6147C25.0937 53.8506 25.073 54.014 25.0496 54.1773C25.0099 54.6834 24.7763 55.1546 24.3976 55.4927C24.0189 55.8308 23.5244 56.0097 23.017 55.9921C22.5219 55.9921 22.0293 55.9921 21.5367 55.9921C20.2196 55.9921 19.4626 55.274 19.3822 53.9647C19.3822 53.8792 19.3589 53.7962 19.3304 53.6018C19.1333 53.7495 18.9959 53.8455 18.8663 53.9518C18.4994 54.2765 18.0235 54.4507 17.5337 54.4397C17.0439 54.4286 16.5763 54.2331 16.2244 53.8921C16.1534 53.8349 16.0882 53.7706 16.03 53.7003C15.2522 52.5647 14.1815 52.3184 12.8359 52.3651C9.80778 52.4662 6.77444 52.3988 3.7437 52.3962C1.37926 52.3962 0 51.0118 0 48.6525C0 33.6431 0 18.6337 0 3.62436C0 2.48102 0.311111 1.50102 1.18481 0.741394C1.71059 0.260411 2.39854 -0.0043972 3.11111 -8.78008e-05C13.2637 0.0154678 23.4128 0.0154678 33.5585 -8.78008e-05C34.0539 -0.0255735 34.549 0.0562059 35.0098 0.23966C35.4707 0.423114 35.8865 0.703918 36.2289 1.06287C38.1301 3.10411 40.0158 5.16436 41.8859 7.24362C42.7654 8.24085 43.2496 9.52545 43.247 10.8551C43.2626 11.441 43.2712 12.0252 43.273 12.6077V35.3966C43.273 35.5418 43.273 35.6895 43.273 35.8347C43.2786 36.0567 43.1966 36.272 43.0448 36.4341C42.8929 36.5961 42.6834 36.6919 42.4615 36.7006C41.9922 36.7006 41.65 36.3481 41.6267 35.8088C41.6267 35.6455 41.6267 35.4795 41.6267 35.3162V12.3769H40.9811C39.1196 12.3769 37.2556 12.3769 35.3941 12.3769C33.2733 12.3769 31.8111 10.9147 31.7982 8.79658C31.7982 6.62399 31.7982 4.45139 31.7982 2.2788V1.55547H3.72556C2.32296 1.55547 1.65148 2.23473 1.65148 3.62954V48.6655C1.65148 50.0862 2.30741 50.7395 3.72556 50.7395H14.3552L15.1719 49.4873C15.0085 49.4614 14.9126 49.4355 14.8115 49.4303C13.5722 49.3629 12.8256 48.5929 12.8126 47.3562C12.8126 46.8636 12.8126 46.371 12.8126 45.8784C12.8126 44.6729 13.4711 43.934 14.6611 43.7629C14.7985 43.7421 14.9204 43.711 15.1641 43.6695C15.0215 43.4803 14.9359 43.3558 14.8426 43.2366C14.5192 42.8676 14.3486 42.3893 14.3655 41.899C14.3823 41.4087 14.5854 40.9432 14.9333 40.5973C15.343 40.154 15.7707 39.7288 16.2115 39.3192C16.5478 38.9894 16.9925 38.7931 17.4628 38.7669C17.9331 38.7407 18.3969 38.8863 18.7678 39.1766C19.237 39.5214 19.3019 39.4903 19.3926 38.8862C19.4543 38.4488 19.6648 38.046 19.9888 37.7456C20.3127 37.4453 20.7303 37.2658 21.1711 37.2373C21.7907 37.201 22.413 37.2036 23.0326 37.2218C24.1396 37.2477 24.8293 37.8544 25.0315 38.9458C25.1326 39.4643 25.2026 39.5058 25.6226 39.2051C26.0038 38.897 26.4871 38.7438 26.9762 38.7759C27.4653 38.8081 27.9243 39.0234 28.2619 39.3788C28.63 39.7314 28.9878 40.0969 29.3456 40.4625C30.2374 41.3673 30.2815 42.3395 29.4882 43.3429C29.4261 43.4361 29.3698 43.5331 29.3196 43.6332ZM28.4382 42.0103C28.362 41.8773 28.2753 41.7508 28.1789 41.6318C27.8626 41.3025 27.5256 40.9914 27.217 40.6569C26.9578 40.3769 26.7478 40.4106 26.4807 40.6569C25.6719 41.4347 25.6641 41.4192 24.64 40.9473C24.5576 40.9029 24.4707 40.8672 24.3807 40.841C23.647 40.6673 23.297 40.2292 23.393 39.4566C23.4422 39.0495 23.2711 38.8421 22.8278 38.8732C22.4637 38.9031 22.0978 38.9031 21.7337 38.8732C21.1841 38.8188 20.987 39.021 21.0156 39.5836C21.0544 40.3614 20.9196 40.4962 20.1756 40.7866C20.0407 40.8384 19.9163 40.8929 19.7737 40.9551C18.7548 41.4166 18.7367 41.4269 17.933 40.6518C17.6556 40.3925 17.4533 40.3925 17.2019 40.6518C16.8907 40.9862 16.5641 41.3077 16.2348 41.624C16.0093 41.8392 15.947 42.0699 16.2167 42.2669C17.023 42.8529 17.0774 43.5477 16.5719 44.341C16.5119 44.4542 16.4691 44.5756 16.4448 44.7014C16.4002 44.9198 16.2747 45.1133 16.0934 45.2431C15.9122 45.3729 15.6886 45.4294 15.4674 45.4014C14.2489 45.3599 14.4796 45.5258 14.4589 46.4747V46.5836C14.4589 47.714 14.4589 47.714 15.5763 47.7632C16.3722 47.7969 17.2796 49.5081 16.8726 50.1977C16.8427 50.2439 16.8098 50.2881 16.7741 50.3299C16.533 50.6384 16.0689 50.9729 16.1026 51.2451C16.1467 51.5873 16.5978 51.8777 16.8804 52.1862C16.953 52.2692 17.0437 52.3366 17.1111 52.4221C17.4144 52.811 17.6841 52.8162 18.0419 52.4455C18.8196 51.634 18.8404 51.6521 19.8774 52.1006C20.0615 52.181 20.2507 52.2484 20.44 52.3184C20.6248 52.3759 20.7847 52.4944 20.8934 52.6545C21.0022 52.8146 21.0535 53.0069 21.0389 53.1999C21.0101 53.4172 21.0153 53.6376 21.0544 53.8532C21.1193 54.0321 21.3137 54.2784 21.4537 54.2966C21.9623 54.3484 22.4748 54.3484 22.9833 54.2966C23.1337 54.2966 23.3204 54.0736 23.3878 53.9103C23.4352 53.715 23.4423 53.5121 23.4085 53.314C23.3717 53.0754 23.4282 52.8319 23.5663 52.634C23.7044 52.436 23.9134 52.2989 24.15 52.251C24.3273 52.1956 24.5005 52.1281 24.6685 52.0488C25.55 51.6495 25.6563 51.6677 26.3382 52.3495C26.8696 52.881 26.8774 52.881 27.4141 52.3495L27.6085 52.1551C28.4744 51.2892 28.477 51.2866 27.7044 50.3818C27.0615 49.6299 27.8185 49.0621 27.9637 48.4192C28.0021 48.228 28.1083 48.0572 28.2626 47.9381C28.4169 47.819 28.6091 47.7597 28.8037 47.771C29.0049 47.758 29.2066 47.758 29.4078 47.771C29.8485 47.8125 29.9937 47.5999 29.9756 47.1877C29.9535 46.8052 29.9535 46.4217 29.9756 46.0392C30.0119 45.5621 29.82 45.3988 29.343 45.4014C28.2774 45.4014 28.2385 45.3625 27.8807 44.3877C27.8367 44.2658 27.79 44.1466 27.7382 44.0299C27.383 43.2158 27.4063 43.1044 28.0467 42.451C28.1607 42.3344 28.2852 42.1814 28.4382 41.9999V42.0103ZM41.4893 10.7203C41.5878 9.86473 41.3078 9.08176 40.5041 8.16139C39.5474 7.06213 38.5519 5.99399 37.5693 4.91806C36.807 4.0867 36.0405 3.25621 35.2696 2.42658C34.7952 1.92102 34.2507 1.56325 33.5093 1.6488C33.4874 1.70661 33.4718 1.76657 33.4626 1.82769C33.4626 4.19991 33.4367 6.56954 33.4626 8.93917C33.4626 10.0281 34.2196 10.7177 35.3293 10.7281C36.807 10.7436 38.2822 10.7281 39.76 10.7281L41.4893 10.7203Z" fill="#E45412"/>
<path d="M8.41037 32.4773C8.20964 32.4847 8.00864 32.4778 7.80889 32.4566C7.63302 32.4259 7.47231 32.3377 7.35196 32.2058C7.23162 32.0739 7.15844 31.9059 7.14391 31.7279C7.12938 31.55 7.17431 31.3723 7.27167 31.2226C7.36902 31.073 7.51329 30.9599 7.68185 30.901C7.87567 30.8515 8.07568 30.8305 8.27556 30.8388C17.22 30.8388 26.1644 30.8388 35.1089 30.8388C35.3059 30.8388 35.573 30.8103 35.6896 30.9192C35.9396 31.1243 36.1206 31.4012 36.2082 31.7125C36.2167 31.8046 36.2065 31.8975 36.1782 31.9856C36.1499 32.0737 36.1042 32.1552 36.0436 32.2252C35.9831 32.2951 35.9091 32.3521 35.826 32.3928C35.7428 32.4335 35.6524 32.4569 35.56 32.4618C35.3615 32.4873 35.1611 32.496 34.9611 32.4877L8.41037 32.4773Z" fill="#E45412"/>
<path d="M26.7841 25.8481C29.5556 25.8481 32.3296 25.8481 35.1011 25.8481C35.3604 25.8481 35.7026 25.8481 35.8789 26.014C35.9853 26.1133 36.0696 26.2338 36.1263 26.3678C36.183 26.5018 36.2109 26.6463 36.2082 26.7918C36.1641 27.0355 35.8711 27.2714 35.6326 27.4321C35.49 27.5306 35.2463 27.4866 35.0467 27.4866H18.5681C18.4567 27.4866 18.3478 27.4866 18.2389 27.4866C17.6996 27.4555 17.3367 27.1184 17.3393 26.6518C17.3419 26.1851 17.697 25.8429 18.2467 25.8403C19.8878 25.8403 21.5315 25.8403 23.1726 25.8403L26.7841 25.8481Z" fill="#E45412"/>
<path d="M27.0563 22.4984C24.3756 22.4984 21.6922 22.4984 19.0193 22.4984C18.7517 22.5145 18.4861 22.4435 18.2622 22.2962C18.163 22.1993 18.0865 22.0816 18.0381 21.9516C17.9897 21.8216 17.9706 21.6826 17.9822 21.5444C18.0845 21.2761 18.2745 21.0504 18.5215 20.904C18.7263 20.8298 18.9466 20.8084 19.1619 20.8418C24.4317 20.8418 29.7033 20.8418 34.9767 20.8418C35.0674 20.8418 35.1607 20.8418 35.2515 20.8418C35.8659 20.8625 36.2548 21.2021 36.2393 21.7025C36.2237 22.2029 35.8556 22.4932 35.2541 22.4958C32.5249 22.501 29.7923 22.5019 27.0563 22.4984Z" fill="#E45412"/>
<path d="M27.1107 15.8692H34.9896C35.1722 15.8635 35.3549 15.8695 35.5367 15.8873C35.7217 15.9011 35.8953 15.9824 36.0243 16.1158C36.1533 16.2491 36.2289 16.4252 36.2367 16.6107C36.2669 16.7944 36.227 16.9829 36.1246 17.1385C36.0223 17.2942 35.8652 17.4056 35.6844 17.4507C35.4559 17.5087 35.2201 17.5332 34.9844 17.5232C29.7128 17.5232 24.4412 17.5232 19.1696 17.5232C19.0061 17.5298 18.8424 17.5246 18.6796 17.5077C18.4676 17.4917 18.2701 17.3937 18.1292 17.2344C17.9883 17.0751 17.9151 16.8671 17.9252 16.6547C17.9251 16.5495 17.9463 16.4453 17.9877 16.3485C18.029 16.2516 18.0896 16.1642 18.1657 16.0915C18.2418 16.0188 18.3319 15.9623 18.4305 15.9254C18.5291 15.8885 18.6341 15.872 18.7393 15.8769C19.8333 15.8588 20.93 15.8769 22.0241 15.8769L27.1107 15.8692Z" fill="#E45412"/>
<path d="M12.7607 10.7618H7.72074C7.02074 10.7618 6.66556 10.4766 6.66556 9.93991C6.66556 9.40325 7.0363 9.11287 7.72593 9.11028C11.0669 9.11028 14.4079 9.11028 17.7489 9.11028C18.3737 9.11028 18.7289 9.36954 18.7859 9.85954C18.8352 10.3781 18.4748 10.754 17.863 10.7566C16.1544 10.7669 14.4563 10.7592 12.7607 10.7618Z" fill="#E45412"/>
<path d="M14.223 18.8014C13.9067 18.6332 13.6441 18.3794 13.4653 18.069C13.2865 17.7586 13.1986 17.4042 13.2119 17.0462C13.2119 16.6651 13.1548 16.2684 13.1548 15.8977C13.1548 15.5269 13.0252 15.234 12.587 15.1821C12.5036 15.1833 12.4209 15.1661 12.3448 15.1318C12.2688 15.0974 12.2012 15.0469 12.1468 14.9836C12.0924 14.9203 12.0525 14.8458 12.0301 14.7654C12.0076 14.6851 12.003 14.6008 12.0167 14.5184C12.0452 14.0829 12.3667 13.9999 12.7063 13.9636C13.7978 13.8495 14.5393 14.4821 14.6067 15.5788C14.6352 16.0532 14.6507 16.5277 14.6611 17.0021C14.6594 17.222 14.7167 17.4383 14.8271 17.6284C14.9374 17.8186 15.0968 17.9756 15.2885 18.0832C16.1052 18.6018 16.1156 18.9699 15.3248 19.4703C15.1171 19.5863 14.9452 19.7572 14.8282 19.9644C14.7111 20.1715 14.6533 20.4069 14.6611 20.6447C14.6611 21.1632 14.6378 21.7025 14.5885 22.2314C14.4926 23.2373 13.2922 23.9529 12.3796 23.5277C12.2854 23.4737 12.2054 23.3981 12.1464 23.307C12.0873 23.2159 12.0508 23.112 12.04 23.004C12.0607 22.8018 12.2733 22.4855 12.4367 22.4569C13.1133 22.3662 13.1807 21.9384 13.1678 21.3966C13.1678 21.1607 13.1833 20.9221 13.1911 20.6862C13.217 19.9188 13.4037 19.2344 14.223 18.8014Z" fill="#E45412"/>
<path d="M8.49593 18.7936C9.34889 19.2395 9.53296 19.9577 9.53296 20.7666C9.53296 21.0414 9.53296 21.3162 9.54852 21.5884C9.56926 22.024 9.67556 22.3662 10.2122 22.4181C10.2923 22.4162 10.3716 22.4335 10.4435 22.4686C10.5155 22.5037 10.578 22.5556 10.6257 22.6198C10.6735 22.6841 10.7051 22.7589 10.718 22.8379C10.7308 22.9169 10.7245 22.9979 10.6996 23.074C10.6465 23.1975 10.5669 23.3079 10.4666 23.3975C10.3663 23.487 10.2476 23.5536 10.1189 23.5925C9.00667 23.8155 8.15111 23.074 8.10704 21.9436C8.10704 21.6351 8.0863 21.324 8.10704 21.0129C8.12519 20.2869 7.92556 19.7166 7.22037 19.3407C6.70185 19.0814 6.71741 18.4929 7.23852 18.2232C7.93074 17.8681 8.12519 17.3132 8.10963 16.6055C8.10963 16.2218 8.10963 15.8277 8.13037 15.4544C8.14874 15.2035 8.22489 14.9603 8.35286 14.7438C8.48082 14.5273 8.65714 14.3433 8.86802 14.2062C9.0789 14.0691 9.31862 13.9827 9.56846 13.9537C9.81829 13.9246 10.0714 13.9538 10.3081 14.0388C10.4132 14.0913 10.5042 14.1681 10.5736 14.2628C10.643 14.3574 10.6889 14.4673 10.7074 14.5832C10.7074 14.7725 10.4689 15.1018 10.3056 15.1199C9.62111 15.2003 9.56407 15.6384 9.55889 16.1751C9.55889 16.3566 9.54593 16.5407 9.54593 16.7221C9.52519 17.5569 9.39556 18.3373 8.49593 18.7936Z" fill="#E45412"/>
<path d="M11.1715 25.8481C12.1567 25.8481 13.1419 25.8481 14.1296 25.8481C14.7752 25.8481 15.1304 26.154 15.1252 26.6751C15.12 27.1962 14.7596 27.4969 14.1141 27.4969C12.123 27.4969 10.1353 27.4969 8.15111 27.4969C7.50556 27.4969 7.13741 27.1962 7.11407 26.6881C7.09074 26.1799 7.47444 25.8507 8.15111 25.8455C9.16222 25.8429 10.1656 25.8481 11.1715 25.8481Z" fill="#E45412"/>
<path d="M9.15704 7.30325C8.63852 7.30325 8.13556 7.30325 7.62741 7.30325C7.00778 7.2851 6.67593 6.99991 6.66815 6.48139C6.66037 5.96287 6.98704 5.65176 7.59889 5.64399C8.67222 5.62843 9.74728 5.62843 10.8241 5.64399C11.423 5.64399 11.7626 5.97584 11.7548 6.48139C11.747 6.98695 11.4048 7.27732 10.7956 7.29287C10.2485 7.31102 9.70667 7.30325 9.15704 7.30325Z" fill="#E45412"/>
<path d="M16.38 7.30065C15.833 7.30065 15.2859 7.31362 14.7389 7.30065C14.1919 7.28769 13.8315 6.94287 13.8315 6.4788C13.8329 6.36391 13.8579 6.25054 13.9049 6.14569C13.9519 6.04084 14.0199 5.94675 14.1047 5.86923C14.1895 5.79172 14.2893 5.73242 14.3979 5.69502C14.5066 5.65761 14.6217 5.64289 14.7363 5.65176C15.8304 5.63621 16.9244 5.63621 18.0185 5.65176C18.1335 5.6425 18.2491 5.65702 18.3583 5.69441C18.4674 5.73181 18.5676 5.79127 18.6528 5.86911C18.7379 5.94694 18.8061 6.04147 18.8531 6.14682C18.9001 6.25216 18.9249 6.36605 18.9259 6.48139C18.9259 6.94287 18.5681 7.28769 18.0211 7.30584C17.4741 7.32399 16.927 7.30065 16.38 7.30065Z" fill="#E45412"/>
<path d="M26.2993 46.5862C26.3064 47.3991 26.0721 48.1958 25.6258 48.8753C25.1796 49.5548 24.5416 50.0865 23.7928 50.4029C23.044 50.7193 22.2181 50.8062 21.4199 50.6526C20.6216 50.499 19.8869 50.1118 19.309 49.5401C18.7311 48.9684 18.336 48.2379 18.1738 47.4414C18.0116 46.6448 18.0896 45.818 18.3979 45.0658C18.7063 44.3137 19.2311 43.67 19.9057 43.2165C20.5804 42.763 21.3745 42.52 22.1874 42.5184C23.2706 42.5177 24.3102 42.9446 25.0802 43.7064C25.8502 44.4681 26.2883 45.5031 26.2993 46.5862ZM24.6452 46.5862C24.6456 46.2626 24.5813 45.9421 24.4562 45.6436C24.331 45.3452 24.1475 45.0747 23.9164 44.8482C23.6852 44.6216 23.4112 44.4436 23.1102 44.3244C22.8093 44.2053 22.4876 44.1474 22.1641 44.1544C21.6801 44.1605 21.2088 44.3099 20.8097 44.5836C20.4105 44.8573 20.1013 45.2432 19.9212 45.6924C19.7411 46.1416 19.6981 46.6341 19.7976 47.1078C19.8971 47.5815 20.1346 48.0151 20.4803 48.3539C20.826 48.6926 21.2642 48.9215 21.7398 49.0114C22.2153 49.1014 22.7069 49.0485 23.1524 48.8594C23.598 48.6703 23.9775 48.3535 24.2432 47.949C24.5088 47.5444 24.6487 47.0702 24.6452 46.5862Z" fill="#E45412"/>
</svg>
