<svg width="55" height="51" viewBox="0 0 55 51" fill="none" xmlns="http://www.w3.org/2000/svg">
<path d="M1.97037 9.67037V44.463H36.8667C37.1211 44.463 37.3651 44.564 37.545 44.7439C37.7249 44.9238 37.8259 45.1678 37.8259 45.4222C37.8259 45.6766 37.7249 45.9206 37.545 46.1005C37.3651 46.2804 37.1211 46.3815 36.8667 46.3815H1.34815C0.259259 46.3815 0 46.0963 0 45.0333V1.32222C0 0.285185 0.285185 0 1.32222 0H52.8111C53.8481 0 54.1333 0.285185 54.1333 1.32222V45.5259C54.1073 45.7665 53.9913 45.9883 53.8086 46.147C53.6259 46.3057 53.39 46.3894 53.1481 46.3815C52.9118 46.3886 52.6819 46.3032 52.5076 46.1434C52.3333 45.9836 52.2282 45.762 52.2148 45.5259C52.2013 45.3274 52.2013 45.1282 52.2148 44.9296V9.67037H1.97037ZM52.1889 1.89259H17.4481V7.7H52.163L52.1889 1.89259ZM1.9963 1.89259V7.7H15.4259V1.94444L1.9963 1.89259Z" fill="#1E1E1E"/>
<path d="M1.97037 9.67037V44.463H36.8667C37.1211 44.463 37.3651 44.564 37.545 44.7439C37.7249 44.9238 37.8259 45.1678 37.8259 45.4222C37.8259 45.6766 37.7249 45.9206 37.545 46.1005C37.3651 46.2804 37.1211 46.3815 36.8667 46.3815H1.34815C0.259259 46.3815 0 46.0963 0 45.0333V1.32222C0 0.285185 0.285185 0 1.32222 0H52.8111C53.8481 0 54.1333 0.285185 54.1333 1.32222V45.5259C54.1073 45.7665 53.9913 45.9883 53.8086 46.147C53.6259 46.3057 53.39 46.3894 53.1481 46.3815C52.9118 46.3886 52.6819 46.3032 52.5076 46.1434C52.3333 45.9836 52.2282 45.762 52.2148 45.5259C52.2013 45.3274 52.2013 45.1282 52.2148 44.9296V9.67037H1.97037ZM52.1889 1.89259H17.4481V7.7H52.163L52.1889 1.89259ZM1.9963 1.89259V7.7H15.4259V1.94444L1.9963 1.89259Z" fill="#E45412"/>
<path d="M1.97037 9.67037V44.463H36.8667C37.1211 44.463 37.3651 44.564 37.545 44.7439C37.7249 44.9238 37.8259 45.1678 37.8259 45.4222C37.8259 45.6766 37.7249 45.9206 37.545 46.1005C37.3651 46.2804 37.1211 46.3815 36.8667 46.3815H1.34815C0.259259 46.3815 0 46.0963 0 45.0333V1.32222C0 0.285185 0.285185 0 1.32222 0H52.8111C53.8481 0 54.1333 0.285185 54.1333 1.32222V45.5259C54.1073 45.7665 53.9913 45.9883 53.8086 46.147C53.6259 46.3057 53.39 46.3894 53.1481 46.3815C52.9118 46.3886 52.6819 46.3032 52.5076 46.1434C52.3333 45.9836 52.2282 45.762 52.2148 45.5259C52.2013 45.3274 52.2013 45.1282 52.2148 44.9296V9.67037H1.97037ZM52.1889 1.89259H17.4481V7.7H52.163L52.1889 1.89259ZM1.9963 1.89259V7.7H15.4259V1.94444L1.9963 1.89259Z" fill="#E45412"/>
<path d="M38.0852 34.9741L38.9926 35.6741C38.9926 35.6741 39.2259 35.8296 39.3037 35.8037C39.9259 35.6222 40.2889 35.9852 40.6519 36.3741L49.337 45.0333C49.7427 45.4039 50.0401 45.8777 50.1974 46.4042C50.3547 46.9306 50.3661 47.4899 50.2304 48.0223C50.0946 48.5547 49.8168 49.0402 49.4266 49.427C49.0363 49.8139 48.5484 50.0874 48.0148 50.2185C47.4676 50.378 46.8862 50.3772 46.3394 50.2164C45.7926 50.0556 45.3034 49.7414 44.9296 49.3111C42.9333 47.263 40.9111 45.2667 38.8889 43.2444C37.9815 42.337 37.0481 41.4556 36.2963 40.5222C36.0966 40.2044 35.9561 39.8531 35.8815 39.4852C35.8327 39.3049 35.7631 39.1309 35.6741 38.9667C35.4461 38.6946 35.2038 38.435 34.9482 38.1889C33.2843 39.3579 31.3775 40.1355 29.3706 40.4632C27.3637 40.791 25.3086 40.6605 23.3593 40.0815C20.2505 39.2311 17.5701 37.2531 15.8407 34.5333C14.1126 31.8623 13.3808 28.6678 13.7737 25.5108C14.1665 22.3538 15.659 19.4361 17.9891 17.2701C20.3191 15.104 23.3378 13.8281 26.515 13.6662C29.6922 13.5044 32.8249 14.4671 35.363 16.3852C38.1025 18.5516 39.9103 21.6832 40.4164 25.1389C40.9224 28.5946 40.0885 32.1131 38.0852 34.9741ZM27.0667 38.6296C29.3642 38.6295 31.6099 37.9464 33.5184 36.6672C35.4269 35.388 36.912 33.5703 37.7852 31.4452C38.6584 29.32 38.8802 26.9832 38.4225 24.7318C37.9647 22.4803 36.848 20.4157 35.2143 18.8002C33.5806 17.1847 31.5035 16.0914 29.247 15.6589C26.9905 15.2265 24.6564 15.4746 22.5412 16.3717C20.426 17.2687 18.6252 18.7742 17.3675 20.697C16.1098 22.6198 15.4521 24.873 15.4778 27.1704C15.5186 30.2193 16.7568 33.1299 18.925 35.2738C21.0932 37.4178 24.0175 38.6231 27.0667 38.6296ZM38.1111 39.6667C38.7593 40.2889 39.3815 40.8593 39.9778 41.4815C42.1037 43.5815 44.1778 45.7074 46.3296 47.7815C46.6401 48.0712 47.0459 48.2373 47.4704 48.2481C48.3778 48.2481 48.5852 47.0555 47.8593 46.3296L39.8481 38.2926L39.6148 38.137L38.1111 39.6667ZM36.8926 36.3222L36.4519 36.8148L37.2815 37.6704L37.7222 37.2037L36.8926 36.3222Z" fill="#1E1E1E"/>
<path d="M38.0852 34.9741L38.9926 35.6741C38.9926 35.6741 39.2259 35.8296 39.3037 35.8037C39.9259 35.6222 40.2889 35.9852 40.6519 36.3741L49.337 45.0333C49.7427 45.4039 50.0401 45.8777 50.1974 46.4042C50.3547 46.9306 50.3661 47.4899 50.2304 48.0223C50.0946 48.5547 49.8168 49.0402 49.4266 49.427C49.0363 49.8139 48.5484 50.0874 48.0148 50.2185C47.4676 50.378 46.8862 50.3772 46.3394 50.2164C45.7926 50.0556 45.3034 49.7414 44.9296 49.3111C42.9333 47.263 40.9111 45.2667 38.8889 43.2444C37.9815 42.337 37.0481 41.4556 36.2963 40.5222C36.0966 40.2044 35.9561 39.8531 35.8815 39.4852C35.8327 39.3049 35.7631 39.1309 35.6741 38.9667C35.4461 38.6946 35.2038 38.435 34.9482 38.1889C33.2843 39.3579 31.3775 40.1355 29.3706 40.4632C27.3637 40.791 25.3086 40.6605 23.3593 40.0815C20.2505 39.2311 17.5701 37.2531 15.8407 34.5333C14.1126 31.8623 13.3808 28.6678 13.7737 25.5108C14.1665 22.3538 15.659 19.4361 17.9891 17.2701C20.3191 15.104 23.3378 13.8281 26.515 13.6662C29.6922 13.5044 32.8249 14.4671 35.363 16.3852C38.1025 18.5516 39.9103 21.6832 40.4164 25.1389C40.9224 28.5946 40.0885 32.1131 38.0852 34.9741ZM27.0667 38.6296C29.3642 38.6295 31.6099 37.9464 33.5184 36.6672C35.4269 35.388 36.912 33.5703 37.7852 31.4452C38.6584 29.32 38.8802 26.9832 38.4225 24.7318C37.9647 22.4803 36.848 20.4157 35.2143 18.8002C33.5806 17.1847 31.5035 16.0914 29.247 15.6589C26.9905 15.2265 24.6564 15.4746 22.5412 16.3717C20.426 17.2687 18.6252 18.7742 17.3675 20.697C16.1098 22.6198 15.4521 24.873 15.4778 27.1704C15.5186 30.2193 16.7568 33.1299 18.925 35.2738C21.0932 37.4178 24.0175 38.6231 27.0667 38.6296ZM38.1111 39.6667C38.7593 40.2889 39.3815 40.8593 39.9778 41.4815C42.1037 43.5815 44.1778 45.7074 46.3296 47.7815C46.6401 48.0712 47.0459 48.2373 47.4704 48.2481C48.3778 48.2481 48.5852 47.0555 47.8593 46.3296L39.8481 38.2926L39.6148 38.137L38.1111 39.6667ZM36.8926 36.3222L36.4519 36.8148L37.2815 37.6704L37.7222 37.2037L36.8926 36.3222Z" fill="#E45412"/>
<path d="M38.0852 34.9741L38.9926 35.6741C38.9926 35.6741 39.2259 35.8296 39.3037 35.8037C39.9259 35.6222 40.2889 35.9852 40.6519 36.3741L49.337 45.0333C49.7427 45.4039 50.0401 45.8777 50.1974 46.4042C50.3547 46.9306 50.3661 47.4899 50.2304 48.0223C50.0946 48.5547 49.8168 49.0402 49.4266 49.427C49.0363 49.8139 48.5484 50.0874 48.0148 50.2185C47.4676 50.378 46.8862 50.3772 46.3394 50.2164C45.7926 50.0556 45.3034 49.7414 44.9296 49.3111C42.9333 47.263 40.9111 45.2667 38.8889 43.2444C37.9815 42.337 37.0481 41.4556 36.2963 40.5222C36.0966 40.2044 35.9561 39.8531 35.8815 39.4852C35.8327 39.3049 35.7631 39.1309 35.6741 38.9667C35.4461 38.6946 35.2038 38.435 34.9482 38.1889C33.2843 39.3579 31.3775 40.1355 29.3706 40.4632C27.3637 40.791 25.3086 40.6605 23.3593 40.0815C20.2505 39.2311 17.5701 37.2531 15.8407 34.5333C14.1126 31.8623 13.3808 28.6678 13.7737 25.5108C14.1665 22.3538 15.659 19.4361 17.9891 17.2701C20.3191 15.104 23.3378 13.8281 26.515 13.6662C29.6922 13.5044 32.8249 14.4671 35.363 16.3852C38.1025 18.5516 39.9103 21.6832 40.4164 25.1389C40.9224 28.5946 40.0885 32.1131 38.0852 34.9741ZM27.0667 38.6296C29.3642 38.6295 31.6099 37.9464 33.5184 36.6672C35.4269 35.388 36.912 33.5703 37.7852 31.4452C38.6584 29.32 38.8802 26.9832 38.4225 24.7318C37.9647 22.4803 36.848 20.4157 35.2143 18.8002C33.5806 17.1847 31.5035 16.0914 29.247 15.6589C26.9905 15.2265 24.6564 15.4746 22.5412 16.3717C20.426 17.2687 18.6252 18.7742 17.3675 20.697C16.1098 22.6198 15.4521 24.873 15.4778 27.1704C15.5186 30.2193 16.7568 33.1299 18.925 35.2738C21.0932 37.4178 24.0175 38.6231 27.0667 38.6296ZM38.1111 39.6667C38.7593 40.2889 39.3815 40.8593 39.9778 41.4815C42.1037 43.5815 44.1778 45.7074 46.3296 47.7815C46.6401 48.0712 47.0459 48.2373 47.4704 48.2481C48.3778 48.2481 48.5852 47.0555 47.8593 46.3296L39.8481 38.2926L39.6148 38.137L38.1111 39.6667ZM36.8926 36.3222L36.4519 36.8148L37.2815 37.6704L37.7222 37.2037L36.8926 36.3222Z" fill="#E45412"/>
<path d="M7.75185 25.1222V29.0111H10.3444C11.0963 29.0111 11.537 29.3481 11.5111 29.9704C11.4852 30.5926 11.0963 30.9296 10.3704 30.9296H6.84444C6.69885 30.9505 6.5504 30.9377 6.41056 30.8921C6.27073 30.8464 6.14326 30.7693 6.03801 30.6665C5.93275 30.5638 5.85254 30.4382 5.80356 30.2995C5.75459 30.1608 5.73816 30.0127 5.75556 29.8667V24.2407C5.73888 24.1005 5.75423 23.9584 5.80045 23.825C5.84667 23.6916 5.92255 23.5704 6.02239 23.4705C6.12223 23.3707 6.24341 23.2948 6.37682 23.2486C6.51023 23.2024 6.65239 23.187 6.79259 23.2037H10.5259C10.6625 23.1888 10.8008 23.2034 10.9313 23.2465C11.0617 23.2896 11.1814 23.3603 11.2822 23.4537C11.383 23.5472 11.4626 23.6611 11.5155 23.788C11.5684 23.9148 11.5934 24.0515 11.5889 24.1889C11.5902 24.3232 11.5625 24.4561 11.5077 24.5787C11.4529 24.7013 11.3723 24.8107 11.2714 24.8993C11.1705 24.9879 11.0517 25.0537 10.923 25.0921C10.7944 25.1306 10.6589 25.1409 10.5259 25.1222C9.61852 25.1481 8.71111 25.1222 7.75185 25.1222Z" fill="#1E1E1E"/>
<path d="M7.75185 25.1222V29.0111H10.3444C11.0963 29.0111 11.537 29.3481 11.5111 29.9704C11.4852 30.5926 11.0963 30.9296 10.3704 30.9296H6.84444C6.69885 30.9505 6.5504 30.9377 6.41056 30.8921C6.27073 30.8464 6.14326 30.7693 6.03801 30.6665C5.93275 30.5638 5.85254 30.4382 5.80356 30.2995C5.75459 30.1608 5.73816 30.0127 5.75556 29.8667V24.2407C5.73888 24.1005 5.75423 23.9584 5.80045 23.825C5.84667 23.6916 5.92255 23.5704 6.02239 23.4705C6.12223 23.3707 6.24341 23.2948 6.37682 23.2486C6.51023 23.2024 6.65239 23.187 6.79259 23.2037H10.5259C10.6625 23.1888 10.8008 23.2034 10.9313 23.2465C11.0617 23.2896 11.1814 23.3603 11.2822 23.4537C11.383 23.5472 11.4626 23.6611 11.5155 23.788C11.5684 23.9148 11.5934 24.0515 11.5889 24.1889C11.5902 24.3232 11.5625 24.4561 11.5077 24.5787C11.4529 24.7013 11.3723 24.8107 11.2714 24.8993C11.1705 24.9879 11.0517 25.0537 10.923 25.0921C10.7944 25.1306 10.6589 25.1409 10.5259 25.1222C9.61852 25.1481 8.71111 25.1222 7.75185 25.1222Z" fill="#E45412"/>
<path d="M7.75185 25.1222V29.0111H10.3444C11.0963 29.0111 11.537 29.3481 11.5111 29.9704C11.4852 30.5926 11.0963 30.9296 10.3704 30.9296H6.84444C6.69885 30.9505 6.5504 30.9377 6.41056 30.8921C6.27073 30.8464 6.14326 30.7693 6.03801 30.6665C5.93275 30.5638 5.85254 30.4382 5.80356 30.2995C5.75459 30.1608 5.73816 30.0127 5.75556 29.8667V24.2407C5.73888 24.1005 5.75423 23.9584 5.80045 23.825C5.84667 23.6916 5.92255 23.5704 6.02239 23.4705C6.12223 23.3707 6.24341 23.2948 6.37682 23.2486C6.51023 23.2024 6.65239 23.187 6.79259 23.2037H10.5259C10.6625 23.1888 10.8008 23.2034 10.9313 23.2465C11.0617 23.2896 11.1814 23.3603 11.2822 23.4537C11.383 23.5472 11.4626 23.6611 11.5155 23.788C11.5684 23.9148 11.5934 24.0515 11.5889 24.1889C11.5902 24.3232 11.5625 24.4561 11.5077 24.5787C11.4529 24.7013 11.3723 24.8107 11.2714 24.8993C11.1705 24.9879 11.0517 25.0537 10.923 25.0921C10.7944 25.1306 10.6589 25.1409 10.5259 25.1222C9.61852 25.1481 8.71111 25.1222 7.75185 25.1222Z" fill="#E45412"/>
<path d="M46.3815 29.0111V25.1222H43.7889C43.037 25.1222 42.6222 24.7852 42.6222 24.163C42.6222 23.5407 43.037 23.2037 43.8148 23.2037H47.263C48.0667 23.2037 48.4037 23.5407 48.4037 24.3185V29.8148C48.4037 30.5926 48.0667 30.9296 47.3148 30.9296H43.6852C43.55 30.9487 43.4123 30.9379 43.2817 30.8979C43.1512 30.8579 43.031 30.7898 42.9296 30.6983C42.8282 30.6069 42.7482 30.4943 42.6951 30.3685C42.642 30.2427 42.6171 30.1068 42.6222 29.9704C42.6171 29.8339 42.642 29.698 42.6951 29.5723C42.7482 29.4465 42.8282 29.3339 42.9296 29.2424C43.031 29.1509 43.1512 29.0828 43.2817 29.0429C43.4123 29.0029 43.55 28.9921 43.6852 29.0111H46.3815Z" fill="#1E1E1E"/>
<path d="M46.3815 29.0111V25.1222H43.7889C43.037 25.1222 42.6222 24.7852 42.6222 24.163C42.6222 23.5407 43.037 23.2037 43.8148 23.2037H47.263C48.0667 23.2037 48.4037 23.5407 48.4037 24.3185V29.8148C48.4037 30.5926 48.0667 30.9296 47.3148 30.9296H43.6852C43.55 30.9487 43.4123 30.9379 43.2817 30.8979C43.1512 30.8579 43.031 30.7898 42.9296 30.6983C42.8282 30.6069 42.7482 30.4943 42.6951 30.3685C42.642 30.2427 42.6171 30.1068 42.6222 29.9704C42.6171 29.8339 42.642 29.698 42.6951 29.5723C42.7482 29.4465 42.8282 29.3339 42.9296 29.2424C43.031 29.1509 43.1512 29.0828 43.2817 29.0429C43.4123 29.0029 43.55 28.9921 43.6852 29.0111H46.3815Z" fill="#E45412"/>
<path d="M46.3815 29.0111V25.1222H43.7889C43.037 25.1222 42.6222 24.7852 42.6222 24.163C42.6222 23.5407 43.037 23.2037 43.8148 23.2037H47.263C48.0667 23.2037 48.4037 23.5407 48.4037 24.3185V29.8148C48.4037 30.5926 48.0667 30.9296 47.3148 30.9296H43.6852C43.55 30.9487 43.4123 30.9379 43.2817 30.8979C43.1512 30.8579 43.031 30.7898 42.9296 30.6983C42.8282 30.6069 42.7482 30.4943 42.6951 30.3685C42.642 30.2427 42.6171 30.1068 42.6222 29.9704C42.6171 29.8339 42.642 29.698 42.6951 29.5723C42.7482 29.4465 42.8282 29.3339 42.9296 29.2424C43.031 29.1509 43.1512 29.0828 43.2817 29.0429C43.4123 29.0029 43.55 28.9921 43.6852 29.0111H46.3815Z" fill="#E45412"/>
<path d="M34.7926 5.80741H20.1185C19.9075 5.77192 19.715 5.66498 19.5734 5.5045C19.4318 5.34403 19.3497 5.13976 19.3407 4.92593C19.3393 4.7022 19.4205 4.48582 19.5689 4.31834C19.7172 4.15086 19.9222 4.04408 20.1444 4.01852H49.337C49.5676 4.0563 49.7773 4.17482 49.9286 4.35291C50.0799 4.531 50.1629 4.75707 50.1629 4.99074C50.1629 5.22441 50.0799 5.45048 49.9286 5.62857C49.7773 5.80666 49.5676 5.92518 49.337 5.96296H34.8185L34.7926 5.80741Z" fill="#1E1E1E"/>
<path d="M34.7926 5.80741H20.1185C19.9075 5.77192 19.715 5.66498 19.5734 5.5045C19.4318 5.34403 19.3497 5.13976 19.3407 4.92593C19.3393 4.7022 19.4205 4.48582 19.5689 4.31834C19.7172 4.15086 19.9222 4.04408 20.1444 4.01852H49.337C49.5676 4.0563 49.7773 4.17482 49.9286 4.35291C50.0799 4.531 50.1629 4.75707 50.1629 4.99074C50.1629 5.22441 50.0799 5.45048 49.9286 5.62857C49.7773 5.80666 49.5676 5.92518 49.337 5.96296H34.8185L34.7926 5.80741Z" fill="#E45412"/>
<path d="M34.7926 5.80741H20.1185C19.9075 5.77192 19.715 5.66498 19.5734 5.5045C19.4318 5.34403 19.3497 5.13976 19.3407 4.92593C19.3393 4.7022 19.4205 4.48582 19.5689 4.31834C19.7172 4.15086 19.9222 4.04408 20.1444 4.01852H49.337C49.5676 4.0563 49.7773 4.17482 49.9286 4.35291C50.0799 4.531 50.1629 4.75707 50.1629 4.99074C50.1629 5.22441 50.0799 5.45048 49.9286 5.62857C49.7773 5.80666 49.5676 5.92518 49.337 5.96296H34.8185L34.7926 5.80741Z" fill="#E45412"/>
<path d="M4.7963 3.86296C4.93485 3.85386 5.07369 3.87579 5.2027 3.92715C5.3317 3.97851 5.44762 4.058 5.54201 4.15984C5.6364 4.26168 5.70688 4.3833 5.7483 4.51583C5.78973 4.64836 5.80107 4.78846 5.78148 4.92593C5.78157 5.17591 5.68408 5.41605 5.50975 5.59522C5.33542 5.77439 5.09804 5.87843 4.84815 5.88519C4.61755 5.8474 4.40789 5.72888 4.2566 5.55079C4.10531 5.3727 4.02225 5.14664 4.02225 4.91296C4.02225 4.67929 4.10531 4.45322 4.2566 4.27513C4.40789 4.09704 4.61755 3.97852 4.84815 3.94074L4.7963 3.86296Z" fill="#1E1E1E"/>
<path d="M4.7963 3.86296C4.93485 3.85386 5.07369 3.87579 5.2027 3.92715C5.3317 3.97851 5.44762 4.058 5.54201 4.15984C5.6364 4.26168 5.70688 4.3833 5.7483 4.51583C5.78973 4.64836 5.80107 4.78846 5.78148 4.92593C5.78157 5.17591 5.68408 5.41605 5.50975 5.59522C5.33542 5.77439 5.09804 5.87843 4.84815 5.88519C4.61755 5.8474 4.40789 5.72888 4.2566 5.55079C4.10531 5.3727 4.02225 5.14664 4.02225 4.91296C4.02225 4.67929 4.10531 4.45322 4.2566 4.27513C4.40789 4.09704 4.61755 3.97852 4.84815 3.94074L4.7963 3.86296Z" fill="#E45412"/>
<path d="M4.7963 3.86296C4.93485 3.85386 5.07369 3.87579 5.2027 3.92715C5.3317 3.97851 5.44762 4.058 5.54201 4.15984C5.6364 4.26168 5.70688 4.3833 5.7483 4.51583C5.78973 4.64836 5.80107 4.78846 5.78148 4.92593C5.78157 5.17591 5.68408 5.41605 5.50975 5.59522C5.33542 5.77439 5.09804 5.87843 4.84815 5.88519C4.61755 5.8474 4.40789 5.72888 4.2566 5.55079C4.10531 5.3727 4.02225 5.14664 4.02225 4.91296C4.02225 4.67929 4.10531 4.45322 4.2566 4.27513C4.40789 4.09704 4.61755 3.97852 4.84815 3.94074L4.7963 3.86296Z" fill="#E45412"/>
<path d="M8.68518 5.80741C8.44369 5.8082 8.21079 5.71788 8.03297 5.55448C7.85515 5.39108 7.7455 5.16662 7.72593 4.92593C7.72928 4.79994 7.75744 4.67585 7.80877 4.56075C7.86011 4.44565 7.93363 4.34179 8.02512 4.25512C8.11661 4.16844 8.22429 4.10064 8.34199 4.0556C8.4597 4.01055 8.58513 3.98914 8.71111 3.99259C8.96109 3.9925 9.20124 4.09 9.38041 4.26433C9.55957 4.43865 9.66361 4.67603 9.67037 4.92593C9.65053 5.17117 9.53722 5.39941 9.35386 5.56347C9.1705 5.72753 8.93111 5.81486 8.68518 5.80741Z" fill="#1E1E1E"/>
<path d="M8.68518 5.80741C8.44369 5.8082 8.21079 5.71788 8.03297 5.55448C7.85515 5.39108 7.7455 5.16662 7.72593 4.92593C7.72928 4.79994 7.75744 4.67585 7.80877 4.56075C7.86011 4.44565 7.93363 4.34179 8.02512 4.25512C8.11661 4.16844 8.22429 4.10064 8.34199 4.0556C8.4597 4.01055 8.58513 3.98914 8.71111 3.99259C8.96109 3.9925 9.20124 4.09 9.38041 4.26433C9.55957 4.43865 9.66361 4.67603 9.67037 4.92593C9.65053 5.17117 9.53722 5.39941 9.35386 5.56347C9.1705 5.72753 8.93111 5.81486 8.68518 5.80741Z" fill="#E45412"/>
<path d="M8.68518 5.80741C8.44369 5.8082 8.21079 5.71788 8.03297 5.55448C7.85515 5.39108 7.7455 5.16662 7.72593 4.92593C7.72928 4.79994 7.75744 4.67585 7.80877 4.56075C7.86011 4.44565 7.93363 4.34179 8.02512 4.25512C8.11661 4.16844 8.22429 4.10064 8.34199 4.0556C8.4597 4.01055 8.58513 3.98914 8.71111 3.99259C8.96109 3.9925 9.20124 4.09 9.38041 4.26433C9.55957 4.43865 9.66361 4.67603 9.67037 4.92593C9.65053 5.17117 9.53722 5.39941 9.35386 5.56347C9.1705 5.72753 8.93111 5.81486 8.68518 5.80741Z" fill="#E45412"/>
<path d="M12.5741 5.80741C12.3298 5.80876 12.0937 5.71932 11.9117 5.55644C11.7296 5.39355 11.6146 5.16885 11.5889 4.92593C11.5854 4.79654 11.6075 4.66774 11.6539 4.54689C11.7002 4.42604 11.7699 4.3155 11.859 4.2216C11.9481 4.1277 12.0548 4.05228 12.1731 3.99964C12.2913 3.947 12.4188 3.91818 12.5481 3.91481C12.6808 3.91103 12.8127 3.9348 12.9357 3.98462C13.0587 4.03444 13.17 4.10923 13.2625 4.20425C13.3551 4.29928 13.427 4.41248 13.4736 4.53669C13.5202 4.66091 13.5406 4.79345 13.5333 4.92593C13.5138 5.16662 13.4041 5.39108 13.2263 5.55448C13.0485 5.71788 12.8156 5.8082 12.5741 5.80741Z" fill="#1E1E1E"/>
<path d="M12.5741 5.80741C12.3298 5.80876 12.0937 5.71932 11.9117 5.55644C11.7296 5.39355 11.6146 5.16885 11.5889 4.92593C11.5854 4.79654 11.6075 4.66774 11.6539 4.54689C11.7002 4.42604 11.7699 4.3155 11.859 4.2216C11.9481 4.1277 12.0548 4.05228 12.1731 3.99964C12.2913 3.947 12.4188 3.91818 12.5481 3.91481C12.6808 3.91103 12.8127 3.9348 12.9357 3.98462C13.0587 4.03444 13.17 4.10923 13.2625 4.20425C13.3551 4.29928 13.427 4.41248 13.4736 4.53669C13.5202 4.66091 13.5406 4.79345 13.5333 4.92593C13.5138 5.16662 13.4041 5.39108 13.2263 5.55448C13.0485 5.71788 12.8156 5.8082 12.5741 5.80741Z" fill="#E45412"/>
<path d="M12.5741 5.80741C12.3298 5.80876 12.0937 5.71932 11.9117 5.55644C11.7296 5.39355 11.6146 5.16885 11.5889 4.92593C11.5854 4.79654 11.6075 4.66774 11.6539 4.54689C11.7002 4.42604 11.7699 4.3155 11.859 4.2216C11.9481 4.1277 12.0548 4.05228 12.1731 3.99964C12.2913 3.947 12.4188 3.91818 12.5481 3.91481C12.6808 3.91103 12.8127 3.9348 12.9357 3.98462C13.0587 4.03444 13.17 4.10923 13.2625 4.20425C13.3551 4.29928 13.427 4.41248 13.4736 4.53669C13.5202 4.66091 13.5406 4.79345 13.5333 4.92593C13.5138 5.16662 13.4041 5.39108 13.2263 5.55448C13.0485 5.71788 12.8156 5.8082 12.5741 5.80741Z" fill="#E45412"/>
<path d="M21.4667 22.2444C20.7148 22.2444 20.3 21.9074 20.3 21.2852C20.3 20.663 20.7148 20.3259 21.4407 20.3259H32.7704C33.4963 20.3259 33.8852 20.6889 33.9111 21.2852C33.937 21.8815 33.4963 22.2444 32.7185 22.2444H21.4667Z" fill="#1E1E1E"/>
<path d="M21.4667 22.2444C20.7148 22.2444 20.3 21.9074 20.3 21.2852C20.3 20.663 20.7148 20.3259 21.4407 20.3259H32.7704C33.4963 20.3259 33.8852 20.6889 33.9111 21.2852C33.937 21.8815 33.4963 22.2444 32.7185 22.2444H21.4667Z" fill="#E45412"/>
<path d="M21.4667 22.2444C20.7148 22.2444 20.3 21.9074 20.3 21.2852C20.3 20.663 20.7148 20.3259 21.4407 20.3259H32.7704C33.4963 20.3259 33.8852 20.6889 33.9111 21.2852C33.937 21.8815 33.4963 22.2444 32.7185 22.2444H21.4667Z" fill="#E45412"/>
<path d="M19.4704 26.1074C18.7704 26.1074 18.3556 25.7185 18.3815 25.1222C18.3764 24.9858 18.4012 24.8499 18.4543 24.7241C18.5074 24.5983 18.5875 24.4857 18.6889 24.3943C18.7902 24.3028 18.9104 24.2347 19.041 24.1947C19.1715 24.1547 19.3092 24.1439 19.4444 24.163H26.937C27.6111 24.163 28.0259 24.5259 28.0259 25.1222C28.0259 25.7185 27.637 26.0815 26.9111 26.1074H19.4704Z" fill="#1E1E1E"/>
<path d="M19.4704 26.1074C18.7704 26.1074 18.3556 25.7185 18.3815 25.1222C18.3764 24.9858 18.4012 24.8499 18.4543 24.7241C18.5074 24.5983 18.5875 24.4857 18.6889 24.3943C18.7902 24.3028 18.9104 24.2347 19.041 24.1947C19.1715 24.1547 19.3092 24.1439 19.4444 24.163H26.937C27.6111 24.163 28.0259 24.5259 28.0259 25.1222C28.0259 25.7185 27.637 26.0815 26.9111 26.1074H19.4704Z" fill="#E45412"/>
<path d="M19.4704 26.1074C18.7704 26.1074 18.3556 25.7185 18.3815 25.1222C18.3764 24.9858 18.4012 24.8499 18.4543 24.7241C18.5074 24.5983 18.5875 24.4857 18.6889 24.3943C18.7902 24.3028 18.9104 24.2347 19.041 24.1947C19.1715 24.1547 19.3092 24.1439 19.4444 24.163H26.937C27.6111 24.163 28.0259 24.5259 28.0259 25.1222C28.0259 25.7185 27.637 26.0815 26.9111 26.1074H19.4704Z" fill="#E45412"/>
<path d="M34.5852 28.0259C35.363 28.0259 35.7778 28.3889 35.7518 29.0111C35.7259 29.6333 35.337 29.9704 34.6111 29.9704H27.2481C26.5222 29.9704 26.1074 29.6074 26.1074 29.0111C26.1074 28.4148 26.4963 28.0259 27.2741 28.0259H34.5852Z" fill="#1E1E1E"/>
<path d="M34.5852 28.0259C35.363 28.0259 35.7778 28.3889 35.7518 29.0111C35.7259 29.6333 35.337 29.9704 34.6111 29.9704H27.2481C26.5222 29.9704 26.1074 29.6074 26.1074 29.0111C26.1074 28.4148 26.4963 28.0259 27.2741 28.0259H34.5852Z" fill="#E45412"/>
<path d="M34.5852 28.0259C35.363 28.0259 35.7778 28.3889 35.7518 29.0111C35.7259 29.6333 35.337 29.9704 34.6111 29.9704H27.2481C26.5222 29.9704 26.1074 29.6074 26.1074 29.0111C26.1074 28.4148 26.4963 28.0259 27.2741 28.0259H34.5852Z" fill="#E45412"/>
<path d="M26.9111 31.8889C27.637 31.8889 28.0259 32.2519 28.0259 32.8481C28.0259 33.4444 27.6111 33.8074 26.937 33.8074H21.3889C20.7148 33.8074 20.3 33.4444 20.3 32.8481C20.3 32.2519 20.6889 31.8889 21.4148 31.8889H26.9111Z" fill="#1E1E1E"/>
<path d="M26.9111 31.8889C27.637 31.8889 28.0259 32.2519 28.0259 32.8481C28.0259 33.4444 27.6111 33.8074 26.937 33.8074H21.3889C20.7148 33.8074 20.3 33.4444 20.3 32.8481C20.3 32.2519 20.6889 31.8889 21.4148 31.8889H26.9111Z" fill="#E45412"/>
<path d="M26.9111 31.8889C27.637 31.8889 28.0259 32.2519 28.0259 32.8481C28.0259 33.4444 27.6111 33.8074 26.937 33.8074H21.3889C20.7148 33.8074 20.3 33.4444 20.3 32.8481C20.3 32.2519 20.6889 31.8889 21.4148 31.8889H26.9111Z" fill="#E45412"/>
<path d="M32.7704 26.1074H30.9037C30.7627 26.1305 30.6184 26.1227 30.4808 26.0844C30.3431 26.0462 30.2155 25.9785 30.1066 25.886C29.9977 25.7935 29.9102 25.6785 29.8503 25.5488C29.7903 25.4192 29.7592 25.278 29.7592 25.1352C29.7592 24.9923 29.7903 24.8512 29.8503 24.7215C29.9102 24.5919 29.9977 24.4768 30.1066 24.3843C30.2155 24.2919 30.3431 24.2242 30.4808 24.1859C30.6184 24.1477 30.7627 24.1399 30.9037 24.163H34.6889C34.8202 24.1554 34.9517 24.1758 35.0746 24.2226C35.1976 24.2695 35.3092 24.3418 35.4022 24.4348C35.4953 24.5278 35.5676 24.6395 35.6144 24.7624C35.6613 24.8853 35.6816 25.0168 35.6741 25.1481C35.6779 25.274 35.6555 25.3992 35.6083 25.5159C35.561 25.6326 35.4901 25.7382 35.3999 25.8259C35.3096 25.9137 35.2022 25.9818 35.0842 26.0258C34.9663 26.0698 34.8405 26.0887 34.7148 26.0815L32.7704 26.1074Z" fill="#1E1E1E"/>
<path d="M32.7704 26.1074H30.9037C30.7627 26.1305 30.6184 26.1227 30.4808 26.0844C30.3431 26.0462 30.2155 25.9785 30.1066 25.886C29.9977 25.7935 29.9102 25.6785 29.8503 25.5488C29.7903 25.4192 29.7592 25.278 29.7592 25.1352C29.7592 24.9923 29.7903 24.8512 29.8503 24.7215C29.9102 24.5919 29.9977 24.4768 30.1066 24.3843C30.2155 24.2919 30.3431 24.2242 30.4808 24.1859C30.6184 24.1477 30.7627 24.1399 30.9037 24.163H34.6889C34.8202 24.1554 34.9517 24.1758 35.0746 24.2226C35.1976 24.2695 35.3092 24.3418 35.4022 24.4348C35.4953 24.5278 35.5676 24.6395 35.6144 24.7624C35.6613 24.8853 35.6816 25.0168 35.6741 25.1481C35.6779 25.274 35.6555 25.3992 35.6083 25.5159C35.561 25.6326 35.4901 25.7382 35.3999 25.8259C35.3096 25.9137 35.2022 25.9818 35.0842 26.0258C34.9663 26.0698 34.8405 26.0887 34.7148 26.0815L32.7704 26.1074Z" fill="#E45412"/>
<path d="M32.7704 26.1074H30.9037C30.7627 26.1305 30.6184 26.1227 30.4808 26.0844C30.3431 26.0462 30.2155 25.9785 30.1066 25.886C29.9977 25.7935 29.9102 25.6785 29.8503 25.5488C29.7903 25.4192 29.7592 25.278 29.7592 25.1352C29.7592 24.9923 29.7903 24.8512 29.8503 24.7215C29.9102 24.5919 29.9977 24.4768 30.1066 24.3843C30.2155 24.2919 30.3431 24.2242 30.4808 24.1859C30.6184 24.1477 30.7627 24.1399 30.9037 24.163H34.6889C34.8202 24.1554 34.9517 24.1758 35.0746 24.2226C35.1976 24.2695 35.3092 24.3418 35.4022 24.4348C35.4953 24.5278 35.5676 24.6395 35.6144 24.7624C35.6613 24.8853 35.6816 25.0168 35.6741 25.1481C35.6779 25.274 35.6555 25.3992 35.6083 25.5159C35.561 25.6326 35.4901 25.7382 35.3999 25.8259C35.3096 25.9137 35.2022 25.9818 35.0842 26.0258C34.9663 26.0698 34.8405 26.0887 34.7148 26.0815L32.7704 26.1074Z" fill="#E45412"/>
<path d="M19.3926 29.9704C19.2614 29.9814 19.1294 29.9646 19.0052 29.921C18.881 29.8774 18.7675 29.808 18.672 29.7174C18.5765 29.6268 18.5012 29.5171 18.4512 29.3953C18.4011 29.2736 18.3774 29.1427 18.3815 29.0111C18.3688 28.8797 18.3859 28.7472 18.4313 28.6233C18.4767 28.4994 18.5494 28.3872 18.644 28.2952C18.7385 28.2031 18.8526 28.1334 18.9776 28.0913C19.1027 28.0492 19.2357 28.0357 19.3667 28.0519H23.1778C23.3078 28.0404 23.4388 28.0572 23.5617 28.101C23.6847 28.1448 23.7967 28.2146 23.8903 28.3056C23.9838 28.3967 24.0566 28.5069 24.1036 28.6286C24.1507 28.7504 24.1709 28.8808 24.163 29.0111C24.1634 29.1439 24.1363 29.2753 24.0833 29.3971C24.0303 29.5189 23.9526 29.6283 23.8551 29.7185C23.7576 29.8086 23.6425 29.8776 23.5169 29.9209C23.3914 29.9643 23.2583 29.9811 23.1259 29.9704H19.3926Z" fill="#1E1E1E"/>
<path d="M19.3926 29.9704C19.2614 29.9814 19.1294 29.9646 19.0052 29.921C18.881 29.8774 18.7675 29.808 18.672 29.7174C18.5765 29.6268 18.5012 29.5171 18.4512 29.3953C18.4011 29.2736 18.3774 29.1427 18.3815 29.0111C18.3688 28.8797 18.3859 28.7472 18.4313 28.6233C18.4767 28.4994 18.5494 28.3872 18.644 28.2952C18.7385 28.2031 18.8526 28.1334 18.9776 28.0913C19.1027 28.0492 19.2357 28.0357 19.3667 28.0519H23.1778C23.3078 28.0404 23.4388 28.0572 23.5617 28.101C23.6847 28.1448 23.7967 28.2146 23.8903 28.3056C23.9838 28.3967 24.0566 28.5069 24.1036 28.6286C24.1507 28.7504 24.1709 28.8808 24.163 29.0111C24.1634 29.1439 24.1363 29.2753 24.0833 29.3971C24.0303 29.5189 23.9526 29.6283 23.8551 29.7185C23.7576 29.8086 23.6425 29.8776 23.5169 29.9209C23.3914 29.9643 23.2583 29.9811 23.1259 29.9704H19.3926Z" fill="#E45412"/>
<path d="M19.3926 29.9704C19.2614 29.9814 19.1294 29.9646 19.0052 29.921C18.881 29.8774 18.7675 29.808 18.672 29.7174C18.5765 29.6268 18.5012 29.5171 18.4512 29.3953C18.4011 29.2736 18.3774 29.1427 18.3815 29.0111C18.3688 28.8797 18.3859 28.7472 18.4313 28.6233C18.4767 28.4994 18.5494 28.3872 18.644 28.2952C18.7385 28.2031 18.8526 28.1334 18.9776 28.0913C19.1027 28.0492 19.2357 28.0357 19.3667 28.0519H23.1778C23.3078 28.0404 23.4388 28.0572 23.5617 28.101C23.6847 28.1448 23.7967 28.2146 23.8903 28.3056C23.9838 28.3967 24.0566 28.5069 24.1036 28.6286C24.1507 28.7504 24.1709 28.8808 24.163 29.0111C24.1634 29.1439 24.1363 29.2753 24.0833 29.3971C24.0303 29.5189 23.9526 29.6283 23.8551 29.7185C23.7576 29.8086 23.6425 29.8776 23.5169 29.9209C23.3914 29.9643 23.2583 29.9811 23.1259 29.9704H19.3926Z" fill="#E45412"/>
<path d="M32.9519 31.9148C33.0757 31.9179 33.1975 31.9463 33.3099 31.9982C33.4224 32.0502 33.523 32.1246 33.6055 32.2169C33.6881 32.3092 33.7509 32.4174 33.7901 32.5349C33.8293 32.6524 33.844 32.7766 33.8333 32.9C33.8368 33.0158 33.8174 33.1311 33.7763 33.2394C33.7351 33.3476 33.6731 33.4467 33.5936 33.531C33.5141 33.6153 33.4189 33.6831 33.3132 33.7305C33.2075 33.7779 33.0936 33.8041 32.9778 33.8074C32.2528 33.8592 31.525 33.8592 30.8 33.8074C30.6842 33.8008 30.5708 33.7714 30.4664 33.7209C30.3619 33.6703 30.2685 33.5997 30.1914 33.513C30.1143 33.4263 30.0551 33.3252 30.0172 33.2156C29.9793 33.1059 29.9634 32.9899 29.9704 32.8741C29.9632 32.6308 30.0514 32.3944 30.2161 32.2152C30.3807 32.036 30.6089 31.9282 30.8519 31.9148H32.9519Z" fill="#1E1E1E"/>
<path d="M32.9519 31.9148C33.0757 31.9179 33.1975 31.9463 33.3099 31.9982C33.4224 32.0502 33.523 32.1246 33.6055 32.2169C33.6881 32.3092 33.7509 32.4174 33.7901 32.5349C33.8293 32.6524 33.844 32.7766 33.8333 32.9C33.8368 33.0158 33.8174 33.1311 33.7763 33.2394C33.7351 33.3476 33.6731 33.4467 33.5936 33.531C33.5141 33.6153 33.4189 33.6831 33.3132 33.7305C33.2075 33.7779 33.0936 33.8041 32.9778 33.8074C32.2528 33.8592 31.525 33.8592 30.8 33.8074C30.6842 33.8008 30.5708 33.7714 30.4664 33.7209C30.3619 33.6703 30.2685 33.5997 30.1914 33.513C30.1143 33.4263 30.0551 33.3252 30.0172 33.2156C29.9793 33.1059 29.9634 32.9899 29.9704 32.8741C29.9632 32.6308 30.0514 32.3944 30.2161 32.2152C30.3807 32.036 30.6089 31.9282 30.8519 31.9148H32.9519Z" fill="#E45412"/>
<path d="M32.9519 31.9148C33.0757 31.9179 33.1975 31.9463 33.3099 31.9982C33.4224 32.0502 33.523 32.1246 33.6055 32.2169C33.6881 32.3092 33.7509 32.4174 33.7901 32.5349C33.8293 32.6524 33.844 32.7766 33.8333 32.9C33.8368 33.0158 33.8174 33.1311 33.7763 33.2394C33.7351 33.3476 33.6731 33.4467 33.5936 33.531C33.5141 33.6153 33.4189 33.6831 33.3132 33.7305C33.2075 33.7779 33.0936 33.8041 32.9778 33.8074C32.2528 33.8592 31.525 33.8592 30.8 33.8074C30.6842 33.8008 30.5708 33.7714 30.4664 33.7209C30.3619 33.6703 30.2685 33.5997 30.1914 33.513C30.1143 33.4263 30.0551 33.3252 30.0172 33.2156C29.9793 33.1059 29.9634 32.9899 29.9704 32.8741C29.9632 32.6308 30.0514 32.3944 30.2161 32.2152C30.3807 32.036 30.6089 31.9282 30.8519 31.9148H32.9519Z" fill="#E45412"/>
</svg>
