<svg width="84" height="84" viewBox="0 0 84 84" fill="none" xmlns="http://www.w3.org/2000/svg">
<circle opacity="0.1" cx="42" cy="42" r="42" fill="#F37121"/>
<g clip-path="url(#clip0_20202_41975)">
<path d="M41.9284 25.8224C42.0194 25.8224 42.0194 25.8224 42.1123 25.8223C45.5659 25.8275 48.9658 26.8919 51.7092 29.0236C51.7844 29.0808 51.8596 29.1379 51.9371 29.1968C55.1438 31.6892 57.2785 35.2491 57.9826 39.2502C58.0002 39.3435 58.0178 39.4367 58.036 39.5328C58.6839 43.6351 57.6578 48.0013 55.2326 51.3674C55.1694 51.4552 55.1061 51.5431 55.0409 51.6336C52.4869 55.0974 48.7095 57.3229 44.4783 58.0238C44.3689 58.0392 44.2594 58.0546 44.1467 58.0705C44.0915 58.0786 44.0363 58.0867 43.9794 58.095C40.0317 58.6118 35.8557 57.5579 32.631 55.2345C32.5432 55.1713 32.4553 55.108 32.3648 55.0429C28.9945 52.5579 26.7389 48.8698 26.0139 44.7502C25.9962 44.6569 25.9786 44.5636 25.9605 44.4675C25.3345 40.5046 26.2558 36.1162 28.6027 32.8425C28.7401 32.6561 28.8803 32.4726 29.0217 32.2892C29.0789 32.2138 29.1362 32.1384 29.1952 32.0606C31.9225 28.5557 35.8245 26.4527 40.2076 25.8792C40.7793 25.8205 41.3543 25.8229 41.9284 25.8224ZM42.7717 27.3908C42.7717 29.2909 42.7717 31.191 42.7717 33.1486C43.2027 33.2102 43.6184 33.2543 44.0513 33.2745C44.1821 33.2812 44.3128 33.2878 44.4436 33.2945C44.511 33.2979 44.5784 33.3012 44.6479 33.3047C45.7054 33.3577 46.7579 33.4186 47.8094 33.5467C48.0536 33.5733 48.2846 33.5808 48.5295 33.5783C48.3021 32.076 47.9297 30.5853 47.4391 29.1471C47.4157 29.0767 47.3922 29.0062 47.3681 28.9336C47.2013 28.4596 47.2013 28.4596 46.8107 28.1642C46.5739 28.0837 46.343 28.0131 46.1017 27.9494C46.0334 27.931 45.965 27.9126 45.8946 27.8936C44.852 27.6192 43.8534 27.474 42.7717 27.3908ZM38.0344 27.9064C37.9545 27.9278 37.8747 27.9492 37.7924 27.9713C37.276 28.116 37.276 28.116 36.842 28.4221C36.7346 28.6258 36.7346 28.6258 36.6604 28.8642C36.6296 28.9549 36.5989 29.0456 36.5672 29.1391C36.5198 29.2866 36.5198 29.2866 36.4714 29.4372C36.4381 29.5385 36.4049 29.6399 36.3707 29.7443C36.1167 30.5412 35.9077 31.3456 35.7194 32.1603C35.6999 32.245 35.6999 32.245 35.6799 32.3315C35.526 32.9489 35.526 32.9489 35.467 33.5783C35.9943 33.5392 36.5214 33.4983 37.0481 33.4514C38.0226 33.3656 38.9944 33.2966 39.9723 33.2639C40.0873 33.2599 40.0873 33.2599 40.2046 33.2557C40.2712 33.2536 40.3377 33.2516 40.4062 33.2495C40.6805 33.2306 40.9526 33.1875 41.2248 33.1486C41.2248 31.2485 41.2248 29.3485 41.2248 27.3908C40.1553 27.3908 39.0614 27.6279 38.0344 27.9064ZM34.8654 29.1955C33.0158 30.3435 31.385 31.676 30.112 33.4601C30.0687 33.5207 30.0254 33.5813 29.9807 33.6437C29.7062 34.0367 29.4845 34.4339 29.2795 34.8674C29.8751 34.802 30.4457 34.6457 31.0251 34.4968C31.9577 34.2575 32.8934 34.0411 33.8342 33.8361C33.8558 33.7404 33.8774 33.6448 33.8997 33.5462C33.9813 33.1859 34.0634 32.8257 34.1457 32.4655C34.181 32.3107 34.2162 32.1557 34.2512 32.0008C34.4373 31.1778 34.6271 30.3668 34.8989 29.5672C34.9749 29.3672 34.9749 29.3672 34.8654 29.1955ZM49.131 29.2814C49.1843 29.697 49.2629 30.0952 49.3667 30.501C49.3812 30.5583 49.3958 30.6157 49.4107 30.6747C49.4569 30.8567 49.5034 31.0386 49.55 31.2204C49.7722 32.0892 49.9815 32.9575 50.1623 33.8361C50.2593 33.8582 50.3563 33.8803 50.4563 33.903C50.82 33.9859 51.1835 34.0691 51.547 34.1524C51.7037 34.1883 51.8604 34.224 52.0171 34.2597C52.2437 34.3112 52.4703 34.3631 52.6968 34.4152C52.7696 34.4319 52.8425 34.4486 52.9176 34.4659C53.3566 34.5683 53.787 34.683 54.2125 34.8335C54.4056 34.8742 54.5312 34.8421 54.717 34.7814C53.64 32.9433 52.2786 31.3558 50.5383 30.1139C50.4777 30.0706 50.4171 30.0273 50.3547 29.9827C49.9617 29.7081 49.5645 29.4865 49.131 29.2814ZM42.7717 34.6955C42.7717 36.8508 42.7717 39.0061 42.7717 41.2267C44.927 41.2267 47.0823 41.2267 49.3029 41.2267C49.2445 39.2574 49.2445 39.2574 49.0934 37.3005C49.083 37.1918 49.0725 37.0832 49.0617 36.9713C49.0018 36.3762 48.9198 35.7945 48.7873 35.2111C48.1677 35.0549 47.5534 34.9792 46.9175 34.9208C46.7525 34.9055 46.5876 34.8889 46.4227 34.8722C45.2035 34.7576 44.0026 34.7379 42.7717 34.6955ZM36.321 34.9909C36.1825 35.0051 36.1825 35.0051 36.0413 35.0195C35.9571 35.0295 35.8729 35.0394 35.7862 35.0496C35.6774 35.0622 35.6774 35.0622 35.5663 35.075C35.3425 35.1356 35.2589 35.1956 35.1232 35.383C35.067 35.5721 35.067 35.5721 35.0477 35.7882C35.0378 35.8723 35.0278 35.9565 35.0176 36.0432C35.0081 36.1355 34.9987 36.2278 34.989 36.3229C34.9785 36.4191 34.9679 36.5153 34.9571 36.6144C34.8004 38.1403 34.6935 39.6928 34.6935 41.2267C36.8489 41.2267 39.0042 41.2267 41.2248 41.2267C41.2248 39.0714 41.2248 36.9161 41.2248 34.6955C39.5935 34.6955 37.9424 34.8138 36.321 34.9909ZM50.4201 35.4689C50.4582 35.991 50.4988 36.5127 50.547 37.0339C50.632 37.9602 50.7013 38.8837 50.7345 39.8134C50.7372 39.8861 50.7399 39.9588 50.7427 40.0337C50.7448 40.0963 50.7468 40.1588 50.7489 40.2233C50.7707 40.5588 50.8127 40.8926 50.8498 41.2267C52.7499 41.2267 54.65 41.2267 56.6076 41.2267C56.473 39.7888 56.473 39.7888 56.1833 38.4015C56.1508 38.2721 56.1508 38.2721 56.1177 38.14C55.9524 37.3826 55.9524 37.3826 55.484 36.8067C53.0121 35.8469 53.0121 35.8469 50.4201 35.4689ZM32.1584 35.7214C32.1016 35.7345 32.0449 35.7476 31.9864 35.7611C31.1236 35.9625 30.2773 36.1973 29.4352 36.4733C29.3369 36.5049 29.2385 36.5366 29.1371 36.5691C29.0011 36.6153 29.0011 36.6153 28.8622 36.6623C28.7828 36.6891 28.7033 36.7159 28.6215 36.7434C28.3278 36.89 28.2093 37.0693 28.0898 37.3702C28.0267 37.592 27.9641 37.8136 27.9045 38.0363C27.8709 38.1602 27.8709 38.1602 27.8366 38.2865C27.591 39.2323 27.3889 40.2455 27.3889 41.2267C29.2889 41.2267 31.189 41.2267 33.1467 41.2267C33.2002 40.745 33.2473 40.278 33.2726 39.796C33.2792 39.6737 33.2859 39.5513 33.2926 39.429C33.2976 39.335 33.2976 39.335 33.3028 39.2392C33.3577 38.221 33.4232 37.2079 33.5448 36.195C33.5709 35.9494 33.583 35.7154 33.5764 35.4689C33.0949 35.4689 32.6259 35.6133 32.1584 35.7214ZM27.3889 42.7736C27.5235 44.2115 27.5235 44.2115 27.8132 45.5988C27.8348 45.6851 27.8565 45.7714 27.8788 45.8603C28.0441 46.6178 28.0441 46.6178 28.5124 47.1937C30.9843 48.1534 30.9843 48.1534 33.5764 48.5314C33.5383 48.0093 33.4977 47.4877 33.4495 46.9664C33.3644 46.0402 33.2952 45.1166 33.262 44.1869C33.2579 44.0779 33.2579 44.0779 33.2538 43.9667C33.2517 43.9041 33.2496 43.8415 33.2475 43.777C33.2258 43.4416 33.1838 43.1077 33.1467 42.7736C31.2466 42.7736 29.3465 42.7736 27.3889 42.7736ZM34.6935 42.7736C34.7519 44.7429 34.7519 44.7429 34.903 46.6999C34.9135 46.8085 34.924 46.9171 34.9347 47.029C34.9947 47.6241 35.0767 48.2058 35.2092 48.7892C35.8411 48.9502 36.4722 49.0222 37.1204 49.0795C37.2926 49.0949 37.4647 49.1115 37.6367 49.1281C38.8349 49.2367 40.0164 49.2617 41.2248 49.3049C41.2248 47.1495 41.2248 44.9942 41.2248 42.7736C39.0695 42.7736 36.9142 42.7736 34.6935 42.7736ZM42.7717 42.7736C42.7717 44.9289 42.7717 47.0842 42.7717 49.3049C44.7646 49.2441 44.7646 49.2441 46.7463 49.0954C46.8609 49.0848 46.9754 49.0742 47.09 49.0637C47.6684 49.0076 48.2237 48.9314 48.7873 48.7892C48.9444 48.0975 49.0254 47.4054 49.0934 46.6999C49.1042 46.5976 49.115 46.4953 49.1262 46.3899C49.2442 45.1822 49.2608 43.9941 49.3029 42.7736C47.1476 42.7736 44.9923 42.7736 42.7717 42.7736ZM50.8498 42.7736C50.7963 43.2553 50.7492 43.7224 50.7239 44.2043C50.7173 44.3267 50.7106 44.449 50.7039 44.5714C50.7005 44.634 50.6972 44.6966 50.6937 44.7612C50.6388 45.7794 50.5732 46.7925 50.4517 47.8053C50.4255 48.0515 50.4176 48.2845 50.4201 48.5314C51.9224 48.3041 53.4131 47.9316 54.8513 47.4411C54.9217 47.4176 54.9922 47.3942 55.0648 47.37C55.1291 47.3471 55.1935 47.3241 55.2598 47.3004C55.3151 47.2809 55.3705 47.2613 55.4275 47.2411C55.8237 47.0157 55.9108 46.6162 56.0271 46.206C56.0592 46.0862 56.0592 46.0862 56.092 45.964C56.1144 45.8815 56.1368 45.7989 56.1598 45.7138C56.4055 44.768 56.6076 43.7549 56.6076 42.7736C54.7075 42.7736 52.8074 42.7736 50.8498 42.7736ZM29.2795 49.133C29.5892 49.8364 30.0014 50.4274 30.4826 51.0236C30.5211 51.0715 30.5595 51.1194 30.5992 51.1688C31.8186 52.6732 33.2406 53.8885 34.9514 54.8049C34.9362 54.7509 34.9211 54.6969 34.9055 54.6413C34.7208 53.9739 34.5546 53.3028 34.3928 52.6296C34.3547 52.4728 34.3547 52.4728 34.3159 52.3128C34.1437 51.5988 33.9847 50.8831 33.8342 50.1642C33.7371 50.1422 33.6401 50.1201 33.5401 50.0973C33.1765 50.0145 32.813 49.9313 32.4494 49.8479C32.2928 49.8121 32.1361 49.7763 31.9794 49.7407C30.3847 49.3778 30.3847 49.3778 29.784 49.1752C29.5955 49.1184 29.5955 49.1184 29.2795 49.133ZM53.9204 49.2495C53.7858 49.2869 53.7858 49.2869 53.6486 49.3251C53.5527 49.3521 53.4569 49.3791 53.3581 49.4069C52.3004 49.699 51.2371 49.9441 50.1623 50.1642C50.1402 50.2613 50.1181 50.3583 50.0954 50.4583C50.0126 50.8219 49.9293 51.1854 49.846 51.549C49.8102 51.7056 49.7744 51.8623 49.7388 52.019C49.6872 52.2457 49.6353 52.4722 49.5832 52.6987C49.5665 52.7716 49.5498 52.8444 49.5325 52.9195C49.4301 53.3586 49.3155 53.7889 49.1649 54.2144C49.1242 54.4075 49.1563 54.5332 49.217 54.7189C51.0551 53.6419 52.6426 52.2806 53.8845 50.5402C53.9278 50.4797 53.9711 50.4191 54.0157 50.3567C54.2903 49.9637 54.512 49.5664 54.717 49.133C54.4088 49.133 54.2118 49.1668 53.9204 49.2495ZM35.467 50.422C35.6943 51.9243 36.0668 53.4151 36.5573 54.8532C36.5808 54.9237 36.6042 54.9941 36.6284 55.0667C36.6513 55.1311 36.6743 55.1954 36.698 55.2617C36.7175 55.3171 36.7371 55.3724 36.7573 55.4294C36.9827 55.8256 37.3822 55.9128 37.7924 56.0291C37.9122 56.0612 37.9122 56.0612 38.0344 56.0939C38.1169 56.1163 38.1995 56.1387 38.2846 56.1618C39.2304 56.4074 40.2435 56.6095 41.2248 56.6095C41.2248 54.7095 41.2248 52.8094 41.2248 50.8517C40.7666 50.7945 40.3285 50.749 39.8696 50.7259C39.7431 50.7192 39.6165 50.7125 39.49 50.7058C39.4249 50.7025 39.3599 50.6991 39.2929 50.6957C38.255 50.6417 37.2223 50.5784 36.1901 50.4536C35.9449 50.4272 35.7129 50.4196 35.467 50.422ZM47.5227 50.4754C47.4085 50.4868 47.2942 50.4981 47.18 50.5094C47.1206 50.5153 47.0611 50.5212 46.9999 50.5273C46.0179 50.6248 45.0391 50.709 44.0524 50.7408C43.9833 50.743 43.9143 50.7453 43.8432 50.7477C43.756 50.7499 43.756 50.7499 43.6671 50.7522C43.3674 50.7718 43.0697 50.8145 42.7717 50.8517C42.7717 52.7518 42.7717 54.6519 42.7717 56.6095C44.1323 56.4894 44.1323 56.4894 45.4518 56.2336C45.5237 56.2167 45.5955 56.1999 45.6695 56.1825C46.5325 55.9874 46.5325 55.9874 47.2169 55.4776C47.2551 55.3679 47.2551 55.3679 47.2941 55.256C47.3263 55.165 47.3584 55.0739 47.3915 54.9801C47.4275 54.8645 47.463 54.7488 47.4982 54.633C47.521 54.5606 47.5438 54.4883 47.5673 54.4137C48.2416 52.4531 48.2416 52.4531 48.5295 50.422C48.19 50.4157 47.8605 50.4411 47.5227 50.4754Z" fill="#F37121"/>
<path d="M61.4428 52.7955C61.9643 53.2183 62.3834 53.8051 62.5385 54.4605C62.5629 54.8171 62.5625 55.1721 62.56 55.5294C62.561 55.672 62.561 55.672 62.562 55.8175C62.5608 56.315 62.5367 56.7415 62.3667 57.2105C62.4306 57.2514 62.4306 57.2514 62.4959 57.2931C63.2981 57.8442 63.752 58.5969 63.9995 59.5308C64.0467 59.9065 64.0516 60.2751 64.0478 60.6534C64.0509 60.796 64.0509 60.796 64.054 60.9416C64.0528 61.6031 63.9173 62.0632 63.5698 62.6246C63.5219 62.7026 63.4741 62.7805 63.4248 62.8609C62.2424 64.0113 60.5641 64.0395 59.0218 64.0234C57.7898 63.9907 56.5911 63.6836 55.7065 62.775C55.0167 61.9169 55.056 60.8422 55.1479 59.7886C55.3371 58.6838 55.9115 57.8924 56.7807 57.2105C56.7683 57.1664 56.7559 57.1223 56.7431 57.0769C56.4635 55.9235 56.4644 54.6428 57.0493 53.5904C57.4927 52.9319 58.0973 52.4456 58.8734 52.2651C59.8106 52.1047 60.6527 52.2606 61.4428 52.7955ZM58.521 54.2779C58.0889 54.878 58.0897 55.4574 58.1557 56.1793C58.2867 56.6415 58.5171 56.9554 58.9292 57.2105C59.3359 57.4003 59.7029 57.4241 60.1323 57.2964C60.5805 57.0732 60.8067 56.8223 60.9917 56.3511C61.0291 56.0941 61.0316 55.8425 61.0293 55.5831C61.031 55.5167 61.0327 55.4502 61.0345 55.3818C61.034 54.8913 60.9304 54.605 60.6479 54.2027C59.9216 53.6394 59.1809 53.588 58.521 54.2779ZM57.294 58.8369C56.7919 59.3649 56.6813 59.9736 56.6679 60.6802C56.6647 60.7908 56.6615 60.9013 56.6582 61.0153C56.7011 61.3908 56.796 61.5641 57.0385 61.8511C57.2312 61.9947 57.2312 61.9947 57.4467 62.0875C57.5498 62.1373 57.5498 62.1373 57.6549 62.1882C58.3064 62.4365 58.8974 62.486 59.5898 62.4849C59.7267 62.4847 59.7267 62.4847 59.8664 62.4845C60.7362 62.4709 61.5987 62.355 62.2807 61.7652C62.6161 61.208 62.5177 60.4145 62.4526 59.7886C62.302 59.2038 61.9852 58.8415 61.5127 58.4794C61.3315 58.3916 61.3315 58.3916 61.1276 58.4788C61.0544 58.514 60.9812 58.5492 60.9057 58.5855C59.9641 58.8923 59.1208 58.9652 58.2041 58.5318C58.1314 58.4928 58.0587 58.4538 57.9838 58.4136C57.6856 58.4136 57.508 58.6454 57.294 58.8369Z" fill="#F37121"/>
<path d="M61.1628 20.3439C61.849 20.8494 62.2976 21.4117 62.5378 22.2346C62.5804 22.6013 62.5784 22.9615 62.57 23.3303C62.5699 23.4245 62.5698 23.5188 62.5697 23.6159C62.5647 24.074 62.5524 24.4718 62.3659 24.8986C62.4272 24.9467 62.4884 24.9948 62.5515 25.0443C63.288 25.6608 63.692 26.2989 63.9987 27.2189C64.0258 27.5927 64.0266 27.9669 64.0309 28.3415C64.0342 28.4438 64.0374 28.5461 64.0407 28.6515C64.0486 29.4478 63.8921 29.9938 63.3941 30.6178C62.0821 31.758 60.3351 31.8787 58.6706 31.7736C57.6532 31.6888 56.4145 31.307 55.6843 30.5437C55.5802 30.3926 55.5802 30.3926 55.4909 30.2268C55.4561 30.1649 55.4213 30.1031 55.3855 30.0394C54.9298 29.0443 55.0141 27.6908 55.3828 26.6825C55.6868 26.0159 56.128 25.4525 56.694 24.9846C56.7508 24.9846 56.8075 24.9846 56.8659 24.9846C56.8473 24.9343 56.8287 24.884 56.8095 24.8322C56.4919 23.8528 56.4129 22.5837 56.8659 21.633C57.2347 20.9214 57.8422 20.2886 58.6229 20.0378C59.4689 19.8929 60.4155 19.8784 61.1628 20.3439ZM58.5847 21.8908C58.0957 22.5084 58.1035 23.1015 58.155 23.8674C58.2537 24.3113 58.4998 24.6061 58.8425 24.8986C59.2108 25.1167 59.5415 25.1164 59.9597 25.0705C60.4473 24.9017 60.7601 24.5868 60.9909 24.1252C61.0159 23.8608 61.0148 23.5957 61.0178 23.3303C61.0203 23.2575 61.0227 23.1847 61.0253 23.1097C61.0302 22.6293 60.9687 22.3569 60.6472 21.9768C60.2199 21.6004 59.9707 21.516 59.4101 21.5232C59.051 21.5615 58.8735 21.6713 58.5847 21.8908ZM57.3406 26.4717C56.8316 27.0381 56.6814 27.6259 56.6725 28.3684C56.6703 28.4789 56.6681 28.5895 56.6658 28.7034C56.6966 29.053 56.7566 29.2486 56.9518 29.5393C58.0084 30.2918 59.313 30.3311 60.5582 30.1999C61.224 30.0821 61.9348 29.9057 62.3666 29.353C62.5307 29.0499 62.5151 28.7379 62.5056 28.4006C62.5043 28.3281 62.503 28.2555 62.5017 28.1808C62.4722 27.4318 62.264 26.9113 61.7214 26.3864C61.5295 26.2407 61.4603 26.1887 61.2165 26.1823C61.0899 26.2336 60.9635 26.2853 60.8378 26.3388C60.0715 26.6333 59.2049 26.6777 58.4396 26.3596C58.3755 26.3277 58.3114 26.2958 58.2453 26.2629C57.8569 26.0972 57.6377 26.2077 57.3406 26.4717Z" fill="#F37121"/>
<path d="M25.7651 20.236C25.8193 20.2715 25.8736 20.3071 25.9296 20.3437C25.9891 20.3802 26.0487 20.4166 26.1102 20.4542C26.7418 20.8788 27.1571 21.4935 27.3502 22.229C27.492 23.1556 27.4596 24.1008 27.1327 24.9844C27.1825 25.0066 27.2324 25.0289 27.2837 25.0518C27.9877 25.4333 28.5058 26.2053 28.7307 26.961C28.8515 27.4496 28.8802 27.92 28.8783 28.4219C28.8797 28.4939 28.8811 28.5659 28.8825 28.6401C28.883 29.3744 28.7018 30.0077 28.2371 30.5834C27.2578 31.5606 25.7659 31.7873 24.4471 31.8003C22.9927 31.795 21.6433 31.5302 20.5289 30.5421C19.9931 29.8782 19.9436 29.228 19.9515 28.395C19.9495 28.2965 19.9474 28.1979 19.9453 28.0964C19.947 27.1111 20.2632 26.2245 20.9452 25.5C21.1074 25.3706 21.2688 25.2466 21.4417 25.1317C21.5741 24.9802 21.5741 24.9802 21.5219 24.7339C21.5117 24.6811 21.5016 24.6283 21.4911 24.5739C21.4257 24.1615 21.4376 23.7413 21.4339 23.3247C21.4315 23.2321 21.429 23.1396 21.4264 23.0442C21.4193 22.1469 21.6376 21.4847 22.2591 20.8318C23.1416 19.9655 24.6297 19.6069 25.7651 20.236ZM23.2386 22.1162C22.9609 22.507 22.9861 22.8194 22.9808 23.2871C22.9783 23.3599 22.9758 23.4327 22.9733 23.5076C22.9684 23.9882 23.0302 24.2601 23.3514 24.6406C23.7591 25.0085 24.0732 25.102 24.6106 25.0941C25.0608 25.0409 25.3374 24.8232 25.618 24.4687C25.927 23.8984 25.9408 23.1869 25.801 22.5583C25.6428 22.1533 25.3677 21.8457 24.9967 21.6231C24.3022 21.3359 23.7128 21.578 23.2386 22.1162ZM22.2396 26.4453C22.1821 26.4932 22.1246 26.541 22.0654 26.5903C21.5929 27.1272 21.4895 27.6453 21.4984 28.3467C21.4963 28.4212 21.4943 28.4958 21.4922 28.5726C21.493 28.9392 21.5101 29.2006 21.7424 29.4941C22.5538 30.246 23.7406 30.2732 24.7929 30.248C25.5591 30.2134 26.4503 30.0593 27.0467 29.5391C27.4066 28.9693 27.366 28.3865 27.3046 27.7344C27.1556 27.1433 26.885 26.7132 26.4559 26.2842C26.1893 26.143 26.0465 26.1957 25.7577 26.2734C25.6602 26.3177 25.5627 26.362 25.4623 26.4077C24.6709 26.714 23.7819 26.5941 23.0224 26.2627C22.663 26.1179 22.516 26.2076 22.2396 26.4453Z" fill="#F37121"/>
<path d="M25.9454 52.595C26.6547 53.0974 27.1302 53.7211 27.3553 54.5665C27.4035 54.8955 27.4062 55.219 27.4063 55.5511C27.407 55.6202 27.4077 55.6892 27.4084 55.7604C27.4077 56.1454 27.3731 56.4611 27.2505 56.8294C27.191 57.0222 27.191 57.0222 27.2183 57.2108C27.4076 57.4366 27.6161 57.6062 27.8471 57.7888C28.4386 58.2899 28.7455 59.0328 28.8511 59.7889C28.9381 60.881 28.9419 61.9071 28.2603 62.8182C27.4376 63.6743 26.1432 63.9924 24.9954 64.0371C24.7946 64.0391 24.5939 64.0392 24.3931 64.0374C24.2878 64.0368 24.1826 64.0363 24.0741 64.0356C22.7779 64.0127 21.4727 63.7314 20.5152 62.7967C19.9959 62.1188 19.9683 61.4994 19.9673 60.6751C19.9642 60.5306 19.9642 60.5306 19.961 60.3832C19.9571 59.2867 20.308 58.4626 21.0308 57.6405C21.2254 57.4715 21.4109 57.3446 21.6324 57.2108C21.6047 57.1334 21.577 57.0561 21.5485 56.9765C21.415 56.5068 21.4289 56.0305 21.4283 55.5457C21.4262 55.4525 21.4241 55.3592 21.4219 55.2631C21.4186 54.3642 21.6977 53.6552 22.3199 52.9998C23.3438 52.146 24.7587 51.8957 25.9454 52.595ZM23.2276 54.3372C22.8697 54.8956 22.936 55.7072 23.0074 56.3514C23.1348 56.7383 23.3287 56.9481 23.6358 57.2054C24.1555 57.4109 24.574 57.4377 25.085 57.2178C25.4836 56.9814 25.7017 56.6136 25.8433 56.1795C25.9126 55.5054 25.9358 54.8411 25.4996 54.2889C25.1869 53.9639 24.9081 53.7911 24.4522 53.7464C23.9408 53.7883 23.581 53.9657 23.2276 54.3372ZM22.5032 58.4881C22.013 58.8419 21.6979 59.195 21.5464 59.7889C21.5127 60.0845 21.5017 60.3777 21.4981 60.6751C21.4968 60.7501 21.4956 60.825 21.4942 60.9023C21.4998 61.2449 21.5182 61.4578 21.6895 61.7598C21.9171 61.9611 22.1175 62.0638 22.4005 62.1737C22.4881 62.2087 22.5757 62.2437 22.666 62.2797C23.9074 62.7039 25.5323 62.5987 26.7027 62.0249C27.0018 61.8488 27.1545 61.6434 27.3043 61.3358C27.3946 60.5528 27.3755 59.7412 26.9105 59.0799C26.7068 58.8314 26.4995 58.626 26.2408 58.4354C25.9217 58.405 25.7138 58.5305 25.4304 58.6694C25.1935 58.7802 24.9865 58.8214 24.7261 58.8436C24.6251 58.8524 24.5241 58.8613 24.42 58.8704C23.8995 58.8664 23.4087 58.6658 22.9214 58.4998C22.6768 58.3856 22.6768 58.3856 22.5032 58.4881Z" fill="#F37121"/>
<path d="M35.3666 59.9398C36.1546 60.1896 36.9391 60.3976 37.7513 60.5521C37.8369 60.5684 37.9225 60.5848 38.0106 60.6017C39.3305 60.8403 40.6229 60.9393 41.9623 60.9334C42.0749 60.9332 42.0749 60.9332 42.1898 60.933C43.4026 60.9287 44.5859 60.8691 45.7811 60.6488C45.861 60.6345 45.9408 60.6202 46.0231 60.6055C47.1085 60.4056 48.1495 60.1154 49.1899 59.7467C49.6692 59.5821 50.0137 59.4722 50.5077 59.6175C50.7572 59.8414 50.8406 59.973 50.889 60.305C50.845 60.6067 50.7782 60.7498 50.5936 60.9925C50.3935 61.0979 50.2198 61.1734 50.0082 61.2449C49.9483 61.2661 49.8883 61.2873 49.8266 61.3092C48.6951 61.6987 47.5375 61.9996 46.3612 62.2171C46.2913 62.2301 46.2215 62.2431 46.1495 62.2564C44.7772 62.4952 43.4228 62.5717 42.0321 62.5662C41.9491 62.5661 41.866 62.5659 41.7805 62.5658C40.5196 62.5618 39.289 62.5143 38.0467 62.2816C37.9623 62.2664 37.8779 62.2512 37.791 62.2355C36.5914 62.0157 35.4228 61.7203 34.2655 61.3363C34.1703 61.3052 34.0752 61.2742 33.9771 61.2423C33.6543 61.1267 33.4541 61.0461 33.2235 60.7884C33.1324 60.5151 33.1066 60.3335 33.1483 60.0472C33.7013 59.1891 34.5714 59.6796 35.3666 59.9398Z" fill="#F37121"/>
<path d="M23.9529 33.1482C24.2518 33.3142 24.3605 33.4158 24.4565 33.746C24.509 34.2084 24.316 34.6212 24.1624 35.0495C23.8857 35.8663 23.6649 36.6809 23.491 37.5256C23.4706 37.6231 23.4501 37.7205 23.429 37.8209C23.1546 39.1996 23.0605 40.5642 23.0667 41.9675C23.0669 42.0798 23.0669 42.0798 23.0672 42.1944C23.0714 43.4056 23.1313 44.5874 23.3514 45.781C23.3656 45.8608 23.3799 45.9407 23.3947 46.0229C23.5945 47.1084 23.8847 48.1494 24.2534 49.1898C24.418 49.6691 24.528 50.0136 24.3826 50.5075C24.1587 50.7571 24.0271 50.8405 23.6951 50.8889C23.3934 50.8449 23.2503 50.7781 23.0076 50.5935C22.9023 50.3934 22.8267 50.2197 22.7552 50.008C22.734 49.9481 22.7128 49.8882 22.6909 49.8265C22.3014 48.695 22.0005 47.5374 21.783 46.3611C21.77 46.2912 21.757 46.2213 21.7437 46.1494C21.5053 44.7789 21.4283 43.4261 21.4339 42.0373C21.4341 41.9544 21.4342 41.8714 21.4344 41.7859C21.4391 40.4947 21.4815 39.2334 21.7185 37.9607C21.7356 37.8684 21.7527 37.7761 21.7703 37.681C21.9781 36.5963 22.2467 35.5358 22.5887 34.4856C22.6165 34.3991 22.6444 34.3125 22.6732 34.2234C22.9072 33.5375 23.1554 33.07 23.9529 33.1482Z" fill="#F37121"/>
<path d="M60.7359 33.2339C61.1589 33.5309 61.2613 34.0157 61.4127 34.4854C61.4423 34.5762 61.4719 34.6671 61.5024 34.7607C61.8349 35.8119 62.0792 36.8775 62.2828 37.9605C62.2982 38.04 62.3136 38.1195 62.3295 38.2014C62.7894 40.6869 62.7479 43.5551 62.2828 46.0386C62.2657 46.1308 62.2487 46.2229 62.2311 46.3179C62.0232 47.4027 61.7547 48.4633 61.4127 49.5137C61.3848 49.6002 61.3569 49.6868 61.3282 49.7759C61.1665 50.25 61.035 50.6156 60.5641 50.8511C60.2483 50.8862 60.0869 50.8725 59.8067 50.7168C59.5717 50.455 59.5211 50.249 59.5328 49.9058C59.6104 49.5785 59.7255 49.2661 59.839 48.9497C60.1165 48.1313 60.3367 47.315 60.5103 46.4683C60.5308 46.3701 60.5512 46.272 60.5723 46.1708C60.8468 44.7877 60.9405 43.4389 60.9347 42.0318C60.9344 41.9129 60.9344 41.9129 60.9342 41.7915C60.9302 40.5831 60.8804 39.4075 60.65 38.2183C60.6357 38.14 60.6214 38.0618 60.6067 37.9812C60.4053 36.8942 60.1173 35.8518 59.7479 34.8095C59.5828 34.3285 59.4796 33.9881 59.6187 33.4917C59.9156 33.087 60.2806 33.1301 60.7359 33.2339Z" fill="#F37121"/>
<path d="M41.9245 21.4396C42.0049 21.4396 42.0852 21.4395 42.1679 21.4395C43.4474 21.4409 44.6903 21.4943 45.9529 21.7189C46.0375 21.7337 46.1221 21.7484 46.2093 21.7636C47.1852 21.9386 48.14 22.17 49.0896 22.4548C49.2104 22.4909 49.2104 22.4909 49.3337 22.5279C50.5688 22.9138 50.5688 22.9138 50.782 23.261C50.8797 23.5101 50.8838 23.6877 50.8513 23.9533C50.6859 24.251 50.5839 24.3605 50.2554 24.4572C49.7837 24.5109 49.3552 24.3124 48.9177 24.1574C47.883 23.81 46.8551 23.544 45.781 23.3517C45.6665 23.3306 45.6665 23.3306 45.5498 23.3091C43.1895 22.8923 40.5733 22.9175 38.2185 23.3517C38.0987 23.3732 38.0987 23.3732 37.9765 23.395C36.8911 23.5949 35.8501 23.8851 34.8097 24.2538C34.3276 24.4193 33.9896 24.5192 33.4919 24.383C33.3308 24.2917 33.3308 24.2917 33.2341 24.1252C33.1033 23.546 33.1033 23.546 33.2398 23.2165C33.4526 22.9496 33.6777 22.8616 33.9914 22.7555C34.0519 22.7343 34.1123 22.713 34.1745 22.6911C34.3759 22.6221 34.5781 22.5566 34.781 22.4924C34.8496 22.4705 34.9183 22.4487 34.989 22.4261C37.2436 21.7258 39.571 21.4412 41.9245 21.4396Z" fill="#F37121"/>
</g>
<defs>
<clipPath id="clip0_20202_41975">
<rect width="44" height="44" fill="white" transform="translate(20 20)"/>
</clipPath>
</defs>
</svg>
