<svg width="44" height="44" viewBox="0 0 44 44" fill="none" xmlns="http://www.w3.org/2000/svg">
<g clip-path="url(#clip0_2_6914)">
<path d="M21.9284 5.82244C22.0194 5.82235 22.0194 5.82235 22.1123 5.82227C25.5659 5.82748 28.9658 6.8919 31.7092 9.02361C31.7844 9.08077 31.8596 9.13794 31.9371 9.19683C35.1438 11.6892 37.2785 15.2491 37.9826 19.2502C38.0002 19.3435 38.0178 19.4367 38.036 19.5328C38.6839 23.6351 37.6578 28.0013 35.2326 31.3674C35.1694 31.4552 35.1061 31.5431 35.0409 31.6336C32.4869 35.0974 28.7095 37.3229 24.4783 38.0238C24.3689 38.0392 24.2594 38.0546 24.1467 38.0705C24.0915 38.0786 24.0363 38.0867 23.9794 38.095C20.0317 38.6118 15.8557 37.5579 12.631 35.2345C12.5432 35.1713 12.4553 35.108 12.3648 35.0429C8.99449 32.5579 6.73887 28.8698 6.01386 24.7502C5.99624 24.6569 5.97863 24.5636 5.96048 24.4675C5.33452 20.5046 6.25579 16.1162 8.60272 12.8425C8.74007 12.6561 8.88032 12.4726 9.02167 12.2892C9.07894 12.2138 9.13621 12.1384 9.19522 12.0606C11.9225 8.55574 15.8245 6.45265 20.2076 5.87917C20.7793 5.82051 21.3543 5.82294 21.9284 5.82244ZM22.7717 7.3908C22.7717 9.29088 22.7717 11.191 22.7717 13.1486C23.2027 13.2102 23.6184 13.2543 24.0513 13.2745C24.1821 13.2812 24.3128 13.2878 24.4436 13.2945C24.511 13.2979 24.5784 13.3012 24.6479 13.3047C25.7054 13.3577 26.7579 13.4186 27.8094 13.5467C28.0536 13.5733 28.2846 13.5808 28.5295 13.5783C28.3021 12.076 27.9297 10.5853 27.4391 9.14715C27.4157 9.07669 27.3922 9.00624 27.3681 8.93365C27.2013 8.4596 27.2013 8.4596 26.8107 8.16424C26.5739 8.08366 26.343 8.0131 26.1017 7.94939C26.0334 7.93098 25.965 7.91256 25.8946 7.89359C24.852 7.61921 23.8534 7.47401 22.7717 7.3908ZM18.0344 7.90643C17.9545 7.92782 17.8747 7.94921 17.7924 7.97126C17.276 8.11604 17.276 8.11604 16.842 8.42205C16.7346 8.62575 16.7346 8.62575 16.6604 8.86416C16.6296 8.95489 16.5989 9.04561 16.5672 9.13909C16.5198 9.28665 16.5198 9.28665 16.4714 9.43719C16.4381 9.53855 16.4049 9.63991 16.3707 9.74435C16.1167 10.5412 15.9077 11.3456 15.7194 12.1603C15.6999 12.245 15.6999 12.245 15.6799 12.3315C15.526 12.9489 15.526 12.9489 15.467 13.5783C15.9943 13.5392 16.5214 13.4983 17.0481 13.4514C18.0226 13.3656 18.9944 13.2966 19.9723 13.2639C20.0873 13.2599 20.0873 13.2599 20.2046 13.2557C20.2712 13.2536 20.3377 13.2516 20.4062 13.2495C20.6805 13.2306 20.9526 13.1875 21.2248 13.1486C21.2248 11.2485 21.2248 9.34846 21.2248 7.3908C20.1553 7.3908 19.0614 7.62791 18.0344 7.90643ZM14.8654 9.19549C13.0158 10.3435 11.385 11.676 10.112 13.4601C10.0687 13.5207 10.0254 13.5813 9.98072 13.6437C9.70618 14.0367 9.48451 14.4339 9.27948 14.8674C9.87506 14.802 10.4457 14.6457 11.0251 14.4968C11.9577 14.2575 12.8934 14.0411 13.8342 13.8361C13.8558 13.7404 13.8774 13.6448 13.8997 13.5462C13.9813 13.1859 14.0634 12.8257 14.1457 12.4655C14.181 12.3107 14.2162 12.1557 14.2512 12.0008C14.4373 11.1778 14.6271 10.3668 14.8989 9.56716C14.9749 9.36718 14.9749 9.36718 14.8654 9.19549ZM29.131 9.28143C29.1843 9.697 29.2629 10.0952 29.3667 10.501C29.3812 10.5583 29.3958 10.6157 29.4107 10.6747C29.4569 10.8567 29.5034 11.0386 29.55 11.2204C29.7722 12.0892 29.9815 12.9575 30.1623 13.8361C30.2593 13.8582 30.3563 13.8803 30.4563 13.903C30.82 13.9859 31.1835 14.0691 31.547 14.1524C31.7037 14.1883 31.8604 14.224 32.0171 14.2597C32.2437 14.3112 32.4703 14.3631 32.6968 14.4152C32.7696 14.4319 32.8425 14.4486 32.9176 14.4659C33.3566 14.5683 33.787 14.683 34.2125 14.8335C34.4056 14.8742 34.5312 14.8421 34.717 14.7814C33.64 12.9433 32.2786 11.3558 30.5383 10.1139C30.4777 10.0706 30.4171 10.0273 30.3547 9.98267C29.9617 9.70813 29.5645 9.48645 29.131 9.28143ZM22.7717 14.6955C22.7717 16.8508 22.7717 19.0061 22.7717 21.2267C24.927 21.2267 27.0823 21.2267 29.3029 21.2267C29.2445 19.2574 29.2445 19.2574 29.0934 17.3005C29.083 17.1918 29.0725 17.0832 29.0617 16.9713C29.0018 16.3762 28.9198 15.7945 28.7873 15.2111C28.1677 15.0549 27.5534 14.9792 26.9175 14.9208C26.7525 14.9055 26.5876 14.8889 26.4227 14.8722C25.2035 14.7576 24.0026 14.7379 22.7717 14.6955ZM16.321 14.9909C16.1825 15.0051 16.1825 15.0051 16.0413 15.0195C15.9571 15.0295 15.8729 15.0394 15.7862 15.0496C15.6774 15.0622 15.6774 15.0622 15.5663 15.075C15.3425 15.1356 15.2589 15.1956 15.1232 15.383C15.067 15.5721 15.067 15.5721 15.0477 15.7882C15.0378 15.8723 15.0278 15.9565 15.0176 16.0432C15.0081 16.1355 14.9987 16.2278 14.989 16.3229C14.9785 16.4191 14.9679 16.5153 14.9571 16.6144C14.8004 18.1403 14.6935 19.6928 14.6935 21.2267C16.8489 21.2267 19.0042 21.2267 21.2248 21.2267C21.2248 19.0714 21.2248 16.9161 21.2248 14.6955C19.5935 14.6955 17.9424 14.8138 16.321 14.9909ZM30.4201 15.4689C30.4582 15.991 30.4988 16.5127 30.547 17.0339C30.632 17.9602 30.7013 18.8837 30.7345 19.8134C30.7372 19.8861 30.7399 19.9588 30.7427 20.0337C30.7448 20.0963 30.7468 20.1588 30.7489 20.2233C30.7707 20.5588 30.8127 20.8926 30.8498 21.2267C32.7499 21.2267 34.65 21.2267 36.6076 21.2267C36.473 19.7888 36.473 19.7888 36.1833 18.4015C36.1508 18.2721 36.1508 18.2721 36.1177 18.14C35.9524 17.3826 35.9524 17.3826 35.484 16.8067C33.0121 15.8469 33.0121 15.8469 30.4201 15.4689ZM12.1584 15.7214C12.1016 15.7345 12.0449 15.7476 11.9864 15.7611C11.1236 15.9625 10.2773 16.1973 9.43524 16.4733C9.33687 16.5049 9.2385 16.5366 9.13715 16.5691C9.00106 16.6153 9.00106 16.6153 8.86221 16.6623C8.78277 16.6891 8.70332 16.7159 8.62146 16.7434C8.32781 16.89 8.20929 17.0693 8.08978 17.3702C8.02667 17.592 7.96414 17.8136 7.90448 18.0363C7.87089 18.1602 7.87089 18.1602 7.83663 18.2865C7.59101 19.2323 7.38886 20.2455 7.38886 21.2267C9.28893 21.2267 11.189 21.2267 13.1467 21.2267C13.2002 20.745 13.2473 20.278 13.2726 19.796C13.2792 19.6737 13.2859 19.5513 13.2926 19.429C13.2976 19.335 13.2976 19.335 13.3028 19.2392C13.3577 18.221 13.4232 17.2079 13.5448 16.195C13.5709 15.9494 13.583 15.7154 13.5764 15.4689C13.0949 15.4689 12.6259 15.6133 12.1584 15.7214ZM7.38886 22.7736C7.52349 24.2115 7.52349 24.2115 7.81317 25.5988C7.83483 25.6851 7.85649 25.7714 7.8788 25.8603C8.04406 26.6178 8.04406 26.6178 8.51242 27.1937C10.9843 28.1534 10.9843 28.1534 13.5764 28.5314C13.5383 28.0093 13.4977 27.4877 13.4495 26.9664C13.3644 26.0402 13.2952 25.1166 13.262 24.1869C13.2579 24.0779 13.2579 24.0779 13.2538 23.9667C13.2517 23.9041 13.2496 23.8415 13.2475 23.777C13.2258 23.4416 13.1838 23.1077 13.1467 22.7736C11.2466 22.7736 9.34651 22.7736 7.38886 22.7736ZM14.6935 22.7736C14.7519 24.7429 14.7519 24.7429 14.903 26.6999C14.9135 26.8085 14.924 26.9171 14.9347 27.029C14.9947 27.6241 15.0767 28.2058 15.2092 28.7892C15.8411 28.9502 16.4722 29.0222 17.1204 29.0795C17.2926 29.0949 17.4647 29.1115 17.6367 29.1281C18.8349 29.2367 20.0164 29.2617 21.2248 29.3049C21.2248 27.1495 21.2248 24.9942 21.2248 22.7736C19.0695 22.7736 16.9142 22.7736 14.6935 22.7736ZM22.7717 22.7736C22.7717 24.9289 22.7717 27.0842 22.7717 29.3049C24.7646 29.2441 24.7646 29.2441 26.7463 29.0954C26.8609 29.0848 26.9754 29.0742 27.09 29.0637C27.6684 29.0076 28.2237 28.9314 28.7873 28.7892C28.9444 28.0975 29.0254 27.4054 29.0934 26.6999C29.1042 26.5976 29.115 26.4953 29.1262 26.3899C29.2442 25.1822 29.2608 23.9941 29.3029 22.7736C27.1476 22.7736 24.9923 22.7736 22.7717 22.7736ZM30.8498 22.7736C30.7963 23.2553 30.7492 23.7224 30.7239 24.2043C30.7173 24.3267 30.7106 24.449 30.7039 24.5714C30.7005 24.634 30.6972 24.6966 30.6937 24.7612C30.6388 25.7794 30.5732 26.7925 30.4517 27.8053C30.4255 28.0515 30.4176 28.2845 30.4201 28.5314C31.9224 28.3041 33.4131 27.9316 34.8513 27.4411C34.9217 27.4176 34.9922 27.3942 35.0648 27.37C35.1291 27.3471 35.1935 27.3241 35.2598 27.3004C35.3151 27.2809 35.3705 27.2613 35.4275 27.2411C35.8237 27.0157 35.9108 26.6162 36.0271 26.206C36.0592 26.0862 36.0592 26.0862 36.092 25.964C36.1144 25.8815 36.1368 25.7989 36.1598 25.7138C36.4055 24.768 36.6076 23.7549 36.6076 22.7736C34.7075 22.7736 32.8074 22.7736 30.8498 22.7736ZM9.27948 29.133C9.58918 29.8364 10.0014 30.4274 10.4826 31.0236C10.5211 31.0715 10.5595 31.1194 10.5992 31.1688C11.8186 32.6732 13.2406 33.8885 14.9514 34.8049C14.9362 34.7509 14.9211 34.6969 14.9055 34.6413C14.7208 33.9739 14.5546 33.3028 14.3928 32.6296C14.3547 32.4728 14.3547 32.4728 14.3159 32.3128C14.1437 31.5988 13.9847 30.8831 13.8342 30.1642C13.7371 30.1422 13.6401 30.1201 13.5401 30.0973C13.1765 30.0145 12.813 29.9313 12.4494 29.8479C12.2928 29.8121 12.1361 29.7763 11.9794 29.7407C10.3847 29.3778 10.3847 29.3778 9.78399 29.1752C9.59552 29.1184 9.59552 29.1184 9.27948 29.133ZM33.9204 29.2495C33.7858 29.2869 33.7858 29.2869 33.6486 29.3251C33.5527 29.3521 33.4569 29.3791 33.3581 29.4069C32.3004 29.699 31.2371 29.9441 30.1623 30.1642C30.1402 30.2613 30.1181 30.3583 30.0954 30.4583C30.0126 30.8219 29.9293 31.1854 29.846 31.549C29.8102 31.7056 29.7744 31.8623 29.7388 32.019C29.6872 32.2457 29.6353 32.4722 29.5832 32.6987C29.5665 32.7716 29.5498 32.8444 29.5325 32.9195C29.4301 33.3586 29.3155 33.7889 29.1649 34.2144C29.1242 34.4075 29.1563 34.5332 29.217 34.7189C31.0551 33.6419 32.6426 32.2806 33.8845 30.5402C33.9278 30.4797 33.9711 30.4191 34.0157 30.3567C34.2903 29.9637 34.512 29.5664 34.717 29.133C34.4088 29.133 34.2118 29.1668 33.9204 29.2495ZM15.467 30.422C15.6943 31.9243 16.0668 33.4151 16.5573 34.8532C16.5808 34.9237 16.6042 34.9941 16.6284 35.0667C16.6513 35.1311 16.6743 35.1954 16.698 35.2617C16.7175 35.3171 16.7371 35.3724 16.7573 35.4294C16.9827 35.8256 17.3822 35.9128 17.7924 36.0291C17.9122 36.0612 17.9122 36.0612 18.0344 36.0939C18.1169 36.1163 18.1995 36.1387 18.2846 36.1618C19.2304 36.4074 20.2435 36.6095 21.2248 36.6095C21.2248 34.7095 21.2248 32.8094 21.2248 30.8517C20.7666 30.7945 20.3285 30.749 19.8696 30.7259C19.7431 30.7192 19.6165 30.7125 19.49 30.7058C19.4249 30.7025 19.3599 30.6991 19.2929 30.6957C18.255 30.6417 17.2223 30.5784 16.1901 30.4536C15.9449 30.4272 15.7129 30.4196 15.467 30.422ZM27.5227 30.4754C27.4085 30.4868 27.2942 30.4981 27.18 30.5094C27.1206 30.5153 27.0611 30.5212 26.9999 30.5273C26.0179 30.6248 25.0391 30.709 24.0524 30.7408C23.9833 30.743 23.9143 30.7453 23.8432 30.7477C23.756 30.7499 23.756 30.7499 23.6671 30.7522C23.3674 30.7718 23.0697 30.8145 22.7717 30.8517C22.7717 32.7518 22.7717 34.6519 22.7717 36.6095C24.1323 36.4894 24.1323 36.4894 25.4518 36.2336C25.5237 36.2167 25.5955 36.1999 25.6695 36.1825C26.5325 35.9874 26.5325 35.9874 27.2169 35.4776C27.2551 35.3679 27.2551 35.3679 27.2941 35.256C27.3263 35.165 27.3584 35.0739 27.3915 34.9801C27.4275 34.8645 27.463 34.7488 27.4982 34.633C27.521 34.5606 27.5438 34.4883 27.5673 34.4137C28.2416 32.4531 28.2416 32.4531 28.5295 30.422C28.19 30.4157 27.8605 30.4411 27.5227 30.4754Z" fill="#E45412"/>
<path d="M41.4428 32.7955C41.9643 33.2183 42.3834 33.8051 42.5385 34.4605C42.5629 34.8171 42.5625 35.1721 42.56 35.5294C42.561 35.672 42.561 35.672 42.562 35.8175C42.5608 36.315 42.5367 36.7415 42.3667 37.2105C42.4306 37.2514 42.4306 37.2514 42.4959 37.2931C43.2981 37.8442 43.752 38.5969 43.9995 39.5308C44.0467 39.9065 44.0516 40.2751 44.0478 40.6534C44.0509 40.796 44.0509 40.796 44.054 40.9416C44.0528 41.6031 43.9173 42.0632 43.5698 42.6246C43.5219 42.7026 43.4741 42.7805 43.4248 42.8609C42.2424 44.0113 40.5641 44.0395 39.0218 44.0234C37.7898 43.9907 36.5911 43.6836 35.7065 42.775C35.0167 41.9169 35.056 40.8422 35.1479 39.7886C35.3371 38.6838 35.9115 37.8924 36.7807 37.2105C36.7683 37.1664 36.7559 37.1223 36.7431 37.0769C36.4635 35.9235 36.4644 34.6428 37.0493 33.5904C37.4927 32.9319 38.0973 32.4456 38.8734 32.2651C39.8106 32.1047 40.6527 32.2606 41.4428 32.7955ZM38.521 34.2779C38.0889 34.878 38.0897 35.4574 38.1557 36.1793C38.2867 36.6415 38.5171 36.9554 38.9292 37.2105C39.3359 37.4003 39.7029 37.4241 40.1323 37.2964C40.5805 37.0732 40.8067 36.8223 40.9917 36.3511C41.0291 36.0941 41.0316 35.8425 41.0293 35.5831C41.031 35.5167 41.0327 35.4502 41.0345 35.3818C41.034 34.8913 40.9304 34.605 40.6479 34.2027C39.9216 33.6394 39.1809 33.588 38.521 34.2779ZM37.294 38.8369C36.7919 39.3649 36.6813 39.9736 36.6679 40.6802C36.6647 40.7908 36.6615 40.9013 36.6582 41.0153C36.7011 41.3908 36.796 41.5641 37.0385 41.8511C37.2312 41.9947 37.2312 41.9947 37.4467 42.0875C37.5498 42.1373 37.5498 42.1373 37.6549 42.1882C38.3064 42.4365 38.8974 42.486 39.5898 42.4849C39.7267 42.4847 39.7267 42.4847 39.8664 42.4845C40.7362 42.4709 41.5987 42.355 42.2807 41.7652C42.6161 41.208 42.5177 40.4145 42.4526 39.7886C42.302 39.2038 41.9852 38.8415 41.5127 38.4794C41.3315 38.3916 41.3315 38.3916 41.1276 38.4788C41.0544 38.514 40.9812 38.5492 40.9057 38.5855C39.9641 38.8923 39.1208 38.9652 38.2041 38.5318C38.1314 38.4928 38.0587 38.4538 37.9838 38.4136C37.6856 38.4136 37.508 38.6454 37.294 38.8369Z" fill="#E45412"/>
<path d="M41.1628 0.343944C41.849 0.84936 42.2976 1.41169 42.5378 2.23457C42.5804 2.60134 42.5784 2.9615 42.57 3.33027C42.5699 3.42454 42.5698 3.51882 42.5697 3.61595C42.5647 4.07401 42.5524 4.47183 42.3659 4.89863C42.4272 4.94671 42.4884 4.99479 42.5515 5.04432C43.288 5.66084 43.692 6.29893 43.9987 7.21894C44.0258 7.59268 44.0266 7.9669 44.0309 8.3415C44.0342 8.44381 44.0374 8.54611 44.0407 8.65152C44.0486 9.44781 43.8921 9.99376 43.3941 10.6178C42.0821 11.758 40.3351 11.8787 38.6706 11.7736C37.6532 11.6888 36.4145 11.307 35.6843 10.5437C35.5802 10.3926 35.5802 10.3926 35.4909 10.2268C35.4561 10.1649 35.4213 10.1031 35.3855 10.0394C34.9298 9.04427 35.0141 7.6908 35.3828 6.68251C35.6868 6.01594 36.128 5.45246 36.694 4.98457C36.7508 4.98457 36.8075 4.98457 36.8659 4.98457C36.8473 4.93427 36.8287 4.88398 36.8095 4.83216C36.4919 3.85285 36.4129 2.58367 36.8659 1.63301C37.2347 0.921422 37.8422 0.288627 38.6229 0.0377912C39.4689 -0.107081 40.4155 -0.121561 41.1628 0.343944ZM38.5847 1.89082C38.0957 2.50839 38.1035 3.10145 38.155 3.86738C38.2537 4.3113 38.4998 4.60608 38.8425 4.89863C39.2108 5.11672 39.5415 5.1164 39.9597 5.07051C40.4473 4.9017 40.7601 4.58685 40.9909 4.12519C41.0159 3.86082 41.0148 3.59568 41.0178 3.33027C41.0203 3.25749 41.0227 3.18471 41.0253 3.10972C41.0302 2.62935 40.9687 2.35691 40.6472 1.97676C40.2199 1.60038 39.9707 1.51595 39.4101 1.52323C39.051 1.56146 38.8735 1.67132 38.5847 1.89082ZM37.3406 6.47169C36.8316 7.03809 36.6814 7.62586 36.6725 8.36836C36.6703 8.47891 36.6681 8.58947 36.6658 8.70338C36.6966 9.05302 36.7566 9.24862 36.9518 9.53926C38.0084 10.2918 39.313 10.3311 40.5582 10.1999C41.224 10.0821 41.9348 9.90567 42.3666 9.35303C42.5307 9.04994 42.5151 8.73794 42.5056 8.40058C42.5043 8.32806 42.503 8.25553 42.5017 8.18081C42.4722 7.4318 42.264 6.91128 41.7214 6.38642C41.5295 6.24066 41.4603 6.18874 41.2165 6.18232C41.0899 6.23356 40.9635 6.28529 40.8378 6.33876C40.0715 6.63326 39.2049 6.67769 38.4396 6.35957C38.3755 6.32766 38.3114 6.29576 38.2453 6.26289C37.8569 6.09719 37.6377 6.20774 37.3406 6.47169Z" fill="#E45412"/>
<path d="M5.76531 0.236103C5.81959 0.271663 5.87387 0.307223 5.92979 0.343861C5.98939 0.380307 6.04899 0.416753 6.1104 0.454304C6.74202 0.878936 7.15739 1.49366 7.35045 2.22911C7.49228 3.15574 7.45987 4.10094 7.13292 4.98449C7.18277 5.00675 7.23262 5.02902 7.28398 5.05196C7.98798 5.43339 8.50604 6.20543 8.73097 6.96109C8.85171 7.44975 8.88046 7.92007 8.87853 8.42199C8.87991 8.49399 8.8813 8.566 8.88272 8.64019C8.88329 9.37452 8.70201 10.0078 8.23735 10.5835C7.25809 11.5607 5.76617 11.7874 4.44737 11.8004C2.99298 11.7951 1.6435 11.5303 0.52916 10.5422C-0.00662057 9.87832 -0.0561136 9.22816 -0.048233 8.39513C-0.0502824 8.29659 -0.0523318 8.19806 -0.0544434 8.09653C-0.0527705 7.11123 0.263451 6.2246 0.945419 5.50011C1.10762 5.37067 1.26907 5.24672 1.44191 5.13186C1.57431 4.98035 1.57431 4.98035 1.52214 4.73406C1.51197 4.68124 1.5018 4.62842 1.49132 4.574C1.42598 4.16161 1.43789 3.74144 1.43419 3.32482C1.4317 3.23226 1.4292 3.13971 1.42664 3.04435C1.41957 2.14699 1.63788 1.48486 2.25932 0.831959C3.1418 -0.0343999 4.62998 -0.392928 5.76531 0.236103ZM3.23888 2.11632C2.96118 2.50715 2.98631 2.81951 2.98106 3.28722C2.97857 3.36 2.97608 3.43278 2.97351 3.50777C2.96865 3.98827 3.0304 4.26025 3.35167 4.64074C3.75937 5.00866 4.07345 5.10212 4.61086 5.09426C5.06107 5.04107 5.33762 4.82337 5.61827 4.46886C5.9272 3.89854 5.94104 3.18704 5.80122 2.55843C5.64299 2.15347 5.36796 1.84582 4.9969 1.62319C4.30242 1.33603 3.71305 1.57807 3.23888 2.11632ZM2.23985 6.44542C2.18236 6.49328 2.12486 6.54114 2.06563 6.59044C1.59317 7.12729 1.4897 7.64541 1.49864 8.34679C1.49659 8.42135 1.49454 8.4959 1.49243 8.57271C1.49327 8.93933 1.51037 9.20075 1.74269 9.49419C2.55399 10.2461 3.74088 10.2734 4.79314 10.2482C5.5593 10.2135 6.45052 10.0595 7.04698 9.53917C7.40688 8.96941 7.36623 8.38664 7.30479 7.73449C7.15589 7.14344 6.88521 6.71334 6.45616 6.28429C6.18959 6.14316 6.04678 6.19578 5.75792 6.27355C5.66043 6.31786 5.56295 6.36217 5.46251 6.40783C4.67111 6.71408 3.78211 6.59419 3.02269 6.26281C2.66322 6.11798 2.51626 6.20775 2.23985 6.44542Z" fill="#E45412"/>
<path d="M5.94537 32.595C6.65473 33.0974 7.13024 33.7211 7.35529 34.5665C7.40354 34.8955 7.40624 35.219 7.40631 35.5511C7.40699 35.6202 7.40767 35.6892 7.40837 35.7604C7.40767 36.1454 7.37315 36.4611 7.25055 36.8294C7.19099 37.0222 7.19099 37.0222 7.21832 37.2108C7.40762 37.4366 7.61607 37.6062 7.84708 37.7888C8.43857 38.2899 8.74549 39.0328 8.85114 39.7889C8.9381 40.881 8.94192 41.9071 8.26031 42.8182C7.43758 43.6743 6.14319 43.9924 4.99536 44.0371C4.79463 44.0391 4.59386 44.0392 4.39313 44.0374C4.28785 44.0368 4.18256 44.0363 4.07409 44.0356C2.77791 44.0127 1.47269 43.7314 0.515198 42.7967C-0.00405102 42.1188 -0.0317216 41.4994 -0.0326535 40.6751C-0.0358107 40.5306 -0.0358107 40.5306 -0.0390317 40.3832C-0.0428502 39.2867 0.307959 38.4626 1.03082 37.6405C1.22542 37.4715 1.41095 37.3446 1.63239 37.2108C1.60469 37.1334 1.577 37.0561 1.54846 36.9765C1.41504 36.5068 1.42886 36.0305 1.42828 35.5457C1.42618 35.4525 1.42407 35.3592 1.42191 35.2631C1.41865 34.3642 1.69769 33.6552 2.31989 32.9998C3.34375 32.146 4.75866 31.8957 5.94537 32.595ZM3.2276 34.3372C2.86966 34.8956 2.93599 35.7072 3.00739 36.3514C3.13476 36.7383 3.32866 36.9481 3.6358 37.2054C4.15553 37.4109 4.57402 37.4377 5.08499 37.2178C5.48357 36.9814 5.70173 36.6136 5.84332 36.1795C5.91259 35.5054 5.93575 34.8411 5.49957 34.2889C5.18686 33.9639 4.90806 33.7911 4.45221 33.7464C3.94084 33.7883 3.58098 33.9657 3.2276 34.3372ZM2.50317 38.4881C2.01304 38.8419 1.69788 39.195 1.54645 39.7889C1.51267 40.0845 1.50175 40.3777 1.49811 40.6751C1.49683 40.7501 1.49556 40.825 1.49425 40.9023C1.4998 41.2449 1.51815 41.4578 1.68945 41.7598C1.9171 41.9611 2.11749 42.0638 2.40045 42.1737C2.48808 42.2087 2.5757 42.2437 2.66599 42.2797C3.90736 42.7039 5.53228 42.5987 6.7027 42.0249C7.00176 41.8488 7.15449 41.6434 7.30426 41.3358C7.3946 40.5528 7.37549 39.7412 6.91049 39.0799C6.70677 38.8314 6.4995 38.626 6.24078 38.4354C5.92173 38.405 5.71379 38.5305 5.43042 38.6694C5.19347 38.7802 4.98648 38.8214 4.72614 38.8436C4.62511 38.8524 4.52408 38.8613 4.41998 38.8704C3.89954 38.8664 3.40873 38.6658 2.92145 38.4998C2.6768 38.3856 2.6768 38.3856 2.50317 38.4881Z" fill="#E45412"/>
<path d="M15.3666 39.9398C16.1546 40.1896 16.9391 40.3976 17.7513 40.5521C17.8369 40.5684 17.9225 40.5848 18.0106 40.6017C19.3305 40.8403 20.6229 40.9393 21.9623 40.9334C22.0749 40.9332 22.0749 40.9332 22.1898 40.933C23.4026 40.9287 24.5859 40.8691 25.7811 40.6488C25.861 40.6345 25.9408 40.6202 26.0231 40.6055C27.1085 40.4056 28.1495 40.1154 29.1899 39.7467C29.6692 39.5821 30.0137 39.4722 30.5077 39.6175C30.7572 39.8414 30.8406 39.973 30.889 40.305C30.845 40.6067 30.7782 40.7498 30.5936 40.9925C30.3935 41.0979 30.2198 41.1734 30.0082 41.2449C29.9483 41.2661 29.8883 41.2873 29.8266 41.3092C28.6951 41.6987 27.5375 41.9996 26.3612 42.2171C26.2913 42.2301 26.2215 42.2431 26.1495 42.2564C24.7772 42.4952 23.4228 42.5717 22.0321 42.5662C21.9491 42.5661 21.866 42.5659 21.7805 42.5658C20.5196 42.5618 19.289 42.5143 18.0467 42.2816C17.9623 42.2664 17.8779 42.2512 17.791 42.2355C16.5914 42.0157 15.4228 41.7203 14.2655 41.3363C14.1703 41.3052 14.0752 41.2742 13.9771 41.2423C13.6543 41.1267 13.4541 41.0461 13.2235 40.7884C13.1324 40.5151 13.1066 40.3335 13.1483 40.0472C13.7013 39.1891 14.5714 39.6796 15.3666 39.9398Z" fill="#E45412"/>
<path d="M3.95292 13.1482C4.25182 13.3142 4.36049 13.4158 4.45646 13.746C4.50896 14.2084 4.31603 14.6212 4.16239 15.0495C3.88566 15.8663 3.66488 16.6809 3.491 17.5256C3.47056 17.6231 3.45011 17.7205 3.42905 17.8209C3.15463 19.1996 3.06054 20.5642 3.06669 21.9675C3.06692 22.0798 3.06692 22.0798 3.06716 22.1944C3.07141 23.4056 3.13126 24.5874 3.35136 25.781C3.36565 25.8608 3.37994 25.9407 3.39466 26.0229C3.5945 27.1084 3.88475 28.1494 4.25343 29.1898C4.41797 29.6691 4.52796 30.0136 4.38261 30.5075C4.15869 30.7571 4.02712 30.8405 3.69511 30.8889C3.39344 30.8449 3.25033 30.7781 3.00761 30.5935C2.90225 30.3934 2.82673 30.2197 2.75516 30.008C2.73396 29.9481 2.71276 29.8882 2.69092 29.8265C2.30145 28.695 2.00054 27.5374 1.783 26.3611C1.77002 26.2912 1.75705 26.2213 1.74368 26.1494C1.50528 24.7789 1.42827 23.4261 1.43388 22.0373C1.43406 21.9544 1.43425 21.8714 1.43444 21.7859C1.43905 20.4947 1.4815 19.2334 1.71854 17.9607C1.73562 17.8684 1.75269 17.7761 1.77028 17.681C1.9781 16.5963 2.24668 15.5358 2.58866 14.4856C2.61654 14.3991 2.64442 14.3125 2.67315 14.2234C2.90716 13.5375 3.15539 13.07 3.95292 13.1482Z" fill="#E45412"/>
<path d="M40.7359 13.2339C41.1589 13.5309 41.2613 14.0157 41.4127 14.4854C41.4423 14.5762 41.4719 14.6671 41.5024 14.7607C41.8349 15.8119 42.0792 16.8775 42.2828 17.9605C42.2982 18.04 42.3136 18.1195 42.3295 18.2014C42.7894 20.6869 42.7479 23.5551 42.2828 26.0386C42.2657 26.1308 42.2487 26.2229 42.2311 26.3179C42.0232 27.4027 41.7547 28.4633 41.4127 29.5137C41.3848 29.6002 41.3569 29.6868 41.3282 29.7759C41.1665 30.25 41.035 30.6156 40.5641 30.8511C40.2483 30.8862 40.0869 30.8725 39.8067 30.7168C39.5717 30.455 39.5211 30.249 39.5328 29.9058C39.6104 29.5785 39.7255 29.2661 39.839 28.9497C40.1165 28.1313 40.3367 27.315 40.5103 26.4683C40.5308 26.3701 40.5512 26.272 40.5723 26.1708C40.8468 24.7877 40.9405 23.4389 40.9347 22.0318C40.9344 21.9129 40.9344 21.9129 40.9342 21.7915C40.9302 20.5831 40.8804 19.4075 40.65 18.2183C40.6357 18.14 40.6214 18.0618 40.6067 17.9812C40.4053 16.8942 40.1173 15.8518 39.7479 14.8095C39.5828 14.3285 39.4796 13.9881 39.6187 13.4917C39.9156 13.087 40.2806 13.1301 40.7359 13.2339Z" fill="#E45412"/>
<path d="M21.9245 1.43963C22.0049 1.43957 22.0852 1.43951 22.1679 1.43945C23.4474 1.44092 24.6903 1.49425 25.9529 1.71893C26.0375 1.73367 26.1221 1.74842 26.2093 1.76361C27.1852 1.93862 28.14 2.16998 29.0896 2.45477C29.2104 2.49095 29.2104 2.49095 29.3337 2.52786C30.5688 2.91381 30.5688 2.91381 30.782 3.26095C30.8797 3.51009 30.8838 3.68767 30.8513 3.9533C30.6859 4.25098 30.5839 4.36051 30.2554 4.45718C29.7837 4.51095 29.3552 4.31244 28.9177 4.1574C27.883 3.81004 26.8551 3.54398 25.781 3.35174C25.6665 3.33063 25.6665 3.33063 25.5498 3.30911C23.1895 2.89233 20.5733 2.91753 18.2185 3.35174C18.0987 3.37317 18.0987 3.37317 17.9765 3.39504C16.8911 3.59488 15.8501 3.88513 14.8097 4.25381C14.3276 4.41931 13.9896 4.51916 13.4919 4.38299C13.3308 4.29168 13.3308 4.29168 13.2341 4.12518C13.1033 3.54595 13.1033 3.54595 13.2398 3.21645C13.4526 2.94955 13.6777 2.86156 13.9914 2.75555C14.0519 2.73428 14.1123 2.71302 14.1745 2.69111C14.3759 2.62207 14.5781 2.55665 14.781 2.49236C14.8496 2.47051 14.9183 2.44866 14.989 2.42615C17.2436 1.72579 19.571 1.44116 21.9245 1.43963Z" fill="#E45412"/>
</g>
<defs>
<clipPath id="clip0_2_6914">
<rect width="44" height="44" fill="white"/>
</clipPath>
</defs>
</svg>
