<svg width="84" height="84" viewBox="0 0 84 84" fill="none" xmlns="http://www.w3.org/2000/svg">
<circle opacity="0.1" cx="42" cy="42" r="42" fill="#F37121"/>
<g clip-path="url(#clip0_22169_3149)">
<path d="M48.9432 56.5732C49.0088 56.627 49.0205 56.6434 49.0345 56.6458C50.7112 57.0228 51.0156 57.4045 51.0156 59.1373C51.0156 59.4511 51.0273 59.7649 51.0156 60.074C51.0119 60.5333 50.828 60.9728 50.5034 61.2978C50.1789 61.6228 49.7397 61.8073 49.2804 61.8116C49.1537 61.825 49.0278 61.8453 48.9034 61.8724C49.1258 62.2401 49.3085 62.575 49.5239 62.87C49.6184 62.9521 49.7408 62.9948 49.8658 62.9894C52.7508 62.9894 55.6381 63.0011 58.5301 62.9894C59.4457 62.9894 60.0686 62.2705 60.0686 61.28C60.0686 58.6573 60.0686 56.0346 60.0686 53.4119C60.0592 53.2645 60.0592 53.1167 60.0686 52.9693C60.0785 52.7936 60.154 52.6279 60.2802 52.5052C60.4064 52.3825 60.5741 52.3116 60.75 52.3066C60.934 52.284 61.1195 52.3351 61.266 52.4487C61.4125 52.5624 61.5082 52.7293 61.5321 52.9131C61.5561 53.0594 61.5623 53.2079 61.5509 53.3557C61.5509 55.9612 61.5509 58.5675 61.5509 61.1746C61.5509 63.2049 60.284 64.4858 58.2561 64.4905C55.418 64.4905 52.5814 64.4905 49.7464 64.4905C49.6006 64.4758 49.4535 64.4972 49.3179 64.5527C49.1824 64.6083 49.0625 64.6962 48.9689 64.8089C48.7067 65.1227 48.3952 65.399 48.1025 65.6894C47.2525 66.5277 46.3416 66.5605 45.426 65.7878C45.3651 65.7362 45.2995 65.6941 45.1543 65.5887C45.1262 65.8018 45.1075 65.9493 45.0864 66.0969C45.0505 66.554 44.8395 66.9796 44.4975 67.285C44.1555 67.5904 43.7088 67.7519 43.2505 67.7361C42.8033 67.7361 42.3583 67.7361 41.9134 67.7361C40.7238 67.7361 40.0401 67.0874 39.9675 65.9048C39.9675 65.8276 39.9464 65.7526 39.9206 65.577C39.7427 65.7105 39.6185 65.7971 39.5015 65.8931C39.1701 66.1864 38.7402 66.3438 38.2978 66.3338C37.8554 66.3239 37.4331 66.1472 37.1153 65.8393C37.0511 65.7876 36.9922 65.7295 36.9396 65.666C36.2371 64.6403 35.27 64.4179 34.0547 64.46C31.3196 64.5513 28.5798 64.4905 25.8423 64.4881C23.7067 64.4881 22.4609 63.2377 22.4609 61.1067C22.4609 47.5498 22.4609 33.993 22.4609 20.4361C22.4609 19.4034 22.7419 18.5183 23.5311 17.8322C24.006 17.3977 24.6274 17.1585 25.271 17.1624C34.4411 17.1765 43.608 17.1765 52.7719 17.1624C53.2193 17.1394 53.6664 17.2133 54.0827 17.379C54.499 17.5447 54.8746 17.7983 55.1838 18.1225C56.9011 19.9662 58.6042 21.8271 60.2934 23.7051C61.0878 24.6059 61.5251 25.7661 61.5228 26.9671C61.5368 27.4963 61.5446 28.024 61.5462 28.5501V49.1336C61.5462 49.2648 61.5462 49.3982 61.5462 49.5294C61.5513 49.7299 61.4772 49.9243 61.3401 50.0707C61.2029 50.2171 61.0137 50.3036 60.8132 50.3115C60.3894 50.3115 60.0803 49.993 60.0592 49.5059C60.0592 49.3584 60.0592 49.2086 60.0592 49.061V28.3417H59.4761C57.7948 28.3417 56.1111 28.3417 54.4298 28.3417C52.5143 28.3417 51.1936 27.021 51.1818 25.1078C51.1818 23.1455 51.1818 21.1831 51.1818 19.2208V18.5675H25.826C24.5591 18.5675 23.9526 19.181 23.9526 20.4408V61.1184C23.9526 62.4017 24.545 62.9918 25.826 62.9918H35.4269L36.1645 61.8607C36.017 61.8373 35.9304 61.8139 35.8391 61.8092C34.7197 61.7483 34.0453 61.0529 34.0336 59.9359C34.0336 59.4909 34.0336 59.046 34.0336 58.6011C34.0336 57.5122 34.6284 56.8448 35.7032 56.6903C35.8273 56.6715 35.9374 56.6434 36.1575 56.606C36.0287 56.435 35.9515 56.3226 35.8672 56.2149C35.5751 55.8816 35.421 55.4496 35.4362 55.0068C35.4514 54.5639 35.6349 54.1435 35.9491 53.8311C36.3191 53.4306 36.7055 53.0466 37.1036 52.6766C37.4073 52.3788 37.809 52.2015 38.2338 52.1778C38.6586 52.1541 39.0775 52.2856 39.4125 52.5478C39.8363 52.8593 39.8949 52.8312 39.9768 52.2855C40.0325 51.8904 40.2227 51.5266 40.5153 51.2553C40.8079 50.9841 41.1851 50.8219 41.5832 50.7962C42.1429 50.7634 42.7049 50.7658 43.2646 50.7822C44.2645 50.8056 44.8874 51.3535 45.07 52.3394C45.1613 52.8077 45.2246 52.8452 45.6039 52.5736C45.9482 52.2953 46.3848 52.1569 46.8265 52.186C47.2683 52.215 47.6829 52.4094 47.9878 52.7305C48.3203 53.0489 48.6434 53.3791 48.9666 53.7093C49.7721 54.5265 49.812 55.4047 49.0954 56.3109C49.0393 56.3951 48.9885 56.4827 48.9432 56.5732ZM48.147 55.1073C48.0783 54.9872 48 54.8729 47.9128 54.7654C47.6272 54.468 47.3227 54.187 47.0441 53.8849C46.8099 53.632 46.6202 53.6625 46.379 53.8849C45.6484 54.5874 45.6414 54.5734 44.7164 54.1472C44.642 54.107 44.5635 54.0748 44.4823 54.0512C43.8196 53.8943 43.5034 53.4985 43.5901 52.8007C43.6346 52.4331 43.48 52.2457 43.0796 52.2738C42.7507 52.3008 42.4202 52.3008 42.0914 52.2738C41.5949 52.2247 41.417 52.4073 41.4427 52.9155C41.4779 53.618 41.3561 53.7397 40.684 54.002C40.5623 54.0488 40.4499 54.098 40.3211 54.1542C39.4008 54.571 39.3844 54.5804 38.6585 53.8802C38.4079 53.6461 38.2252 53.6461 37.9981 53.8802C37.7171 54.1823 37.422 54.4727 37.1246 54.7584C36.9209 54.9527 36.8647 55.1611 37.1083 55.3391C37.8365 55.8683 37.8857 56.4959 37.4291 57.2125C37.3749 57.3147 37.3363 57.4244 37.3143 57.538C37.274 57.7352 37.1606 57.91 36.9969 58.0272C36.8332 58.1445 36.6313 58.1956 36.4315 58.1702C35.3309 58.1328 35.5393 58.2826 35.5206 59.1397V59.238C35.5206 60.259 35.5206 60.259 36.5299 60.3035C37.2488 60.3339 38.0683 61.8795 37.7007 62.5024C37.6737 62.5441 37.644 62.584 37.6117 62.6218C37.3939 62.9005 36.9748 63.2025 37.0052 63.4484C37.045 63.7575 37.4525 64.0198 37.7077 64.2984C37.7733 64.3734 37.8553 64.4343 37.9161 64.5115C38.1901 64.8628 38.4337 64.8675 38.7568 64.5326C39.4593 63.7997 39.478 63.8161 40.4147 64.2212C40.581 64.2938 40.7519 64.3546 40.9229 64.4179C41.0898 64.4698 41.2342 64.5768 41.3324 64.7215C41.4307 64.8661 41.477 65.0397 41.4638 65.214C41.4378 65.4103 41.4425 65.6094 41.4779 65.8042C41.5364 65.9657 41.712 66.1882 41.8385 66.2046C42.2978 66.2514 42.7607 66.2514 43.2201 66.2046C43.3559 66.2046 43.5245 66.0032 43.5854 65.8557C43.6282 65.6793 43.6346 65.496 43.6041 65.3171C43.5709 65.1016 43.6219 64.8817 43.7466 64.7029C43.8714 64.5241 44.0602 64.4002 44.2738 64.357C44.434 64.307 44.5905 64.2459 44.7422 64.1743C45.5384 63.8137 45.6344 63.8301 46.2502 64.446C46.7303 64.926 46.7373 64.926 47.222 64.446L47.3977 64.2703C48.1798 63.4882 48.1821 63.4859 47.4843 62.6686C46.9036 61.9895 47.5873 61.4767 47.7185 60.896C47.7532 60.7233 47.849 60.569 47.9884 60.4615C48.1278 60.3539 48.3014 60.3003 48.4772 60.3105C48.6589 60.2988 48.8411 60.2988 49.0228 60.3105C49.4209 60.348 49.552 60.156 49.5356 59.7837C49.5157 59.4381 49.5157 59.0918 49.5356 58.7463C49.5684 58.3154 49.3951 58.1679 48.9643 58.1702C48.0018 58.1702 47.9667 58.1351 47.6435 57.2546C47.6037 57.1446 47.5616 57.0368 47.5148 56.9315C47.1939 56.1962 47.215 56.0955 47.7934 55.5054C47.8964 55.4 48.0088 55.2618 48.147 55.0979V55.1073ZM59.9351 26.8454C60.0241 26.0726 59.7712 25.3654 59.0453 24.5341C58.1812 23.5412 57.282 22.5764 56.3945 21.6046C55.706 20.8537 55.0136 20.1036 54.3174 19.3543C53.8888 18.8976 53.3971 18.5745 52.7274 18.6518C52.7076 18.704 52.6935 18.7581 52.6852 18.8133C52.6852 20.956 52.6618 23.0963 52.6852 25.2366C52.6852 26.2201 53.369 26.843 54.3712 26.8524C55.706 26.8664 57.0384 26.8524 58.3732 26.8524L59.9351 26.8454Z" fill="#F37121"/>
<path d="M42.0282 46.4969H30.0575C29.8761 46.5036 29.6946 46.4973 29.5142 46.4782C29.3553 46.4505 29.2102 46.3708 29.1015 46.2517C28.9928 46.1326 28.9267 45.9808 28.9136 45.82C28.9004 45.6593 28.941 45.4988 29.0289 45.3636C29.1169 45.2285 29.2472 45.1263 29.3994 45.0732C29.5745 45.0284 29.7552 45.0095 29.9357 45.017C38.0145 45.017 46.0934 45.017 54.1722 45.017C54.3502 45.017 54.5914 44.9912 54.6968 45.0896C54.9226 45.2748 55.0861 45.5249 55.1651 45.8061C55.1728 45.8893 55.1636 45.9732 55.1381 46.0528C55.1125 46.1324 55.0712 46.2059 55.0165 46.2691C54.9618 46.3323 54.895 46.3839 54.8199 46.4206C54.7449 46.4573 54.6631 46.4785 54.5797 46.4829C54.4004 46.506 54.2194 46.5138 54.0388 46.5063L42.0282 46.4969Z" fill="#F37121"/>
<path d="M46.6529 40.5092C49.1562 40.5092 51.6618 40.5092 54.165 40.5092C54.3992 40.5092 54.7083 40.5092 54.8676 40.6591C54.9636 40.7488 55.0398 40.8577 55.091 40.9787C55.1422 41.0997 55.1674 41.2302 55.165 41.3616C55.1251 41.5817 54.8605 41.7948 54.6451 41.94C54.5163 42.029 54.2962 41.9892 54.1159 41.9892H39.232C39.1314 41.9892 39.033 41.9892 38.9347 41.9892C38.4476 41.9611 38.1197 41.6567 38.1221 41.2351C38.1244 40.8136 38.4452 40.5045 38.9417 40.5022C40.424 40.5022 41.9086 40.5022 43.3909 40.5022L46.6529 40.5092Z" fill="#F37121"/>
<path d="M46.8991 37.4837C44.4778 37.4837 42.0541 37.4837 39.6399 37.4837C39.3982 37.4982 39.1583 37.4341 38.9561 37.301C38.8665 37.2135 38.7974 37.1072 38.7536 36.9898C38.7099 36.8724 38.6927 36.7468 38.7032 36.622C38.7955 36.3797 38.9672 36.1758 39.1903 36.0436C39.3753 35.9765 39.5742 35.9572 39.7687 35.9874C44.5285 35.9874 49.29 35.9874 54.053 35.9874C54.135 35.9874 54.2193 35.9874 54.3012 35.9874C54.8562 36.0061 55.2075 36.3128 55.1934 36.7648C55.1794 37.2167 54.8468 37.479 54.3036 37.4814C51.8385 37.486 49.3704 37.4868 46.8991 37.4837Z" fill="#F37121"/>
<path d="M46.9478 31.496H54.0643C54.2291 31.4909 54.3942 31.4963 54.5584 31.5124C54.7255 31.5249 54.8822 31.5983 54.9988 31.7188C55.1154 31.8392 55.1836 31.9983 55.1906 32.1657C55.218 32.3317 55.1818 32.5019 55.0894 32.6425C54.997 32.7831 54.8551 32.8837 54.6918 32.9244C54.4854 32.9769 54.2724 32.999 54.0596 32.99C49.2981 32.99 44.5367 32.99 39.7752 32.99C39.6276 32.9959 39.4797 32.9912 39.3327 32.976C39.1411 32.9615 38.9628 32.873 38.8355 32.7291C38.7083 32.5852 38.6421 32.3974 38.6512 32.2055C38.6511 32.1105 38.6703 32.0164 38.7076 31.9289C38.745 31.8415 38.7997 31.7625 38.8684 31.6968C38.9372 31.6312 39.0185 31.5801 39.1076 31.5468C39.1966 31.5135 39.2915 31.4986 39.3865 31.503C40.3747 31.4866 41.3652 31.503 42.3534 31.503L46.9478 31.496Z" fill="#F37121"/>
<path d="M33.9868 26.8829H29.4345C28.8023 26.8829 28.4814 26.6253 28.4814 26.1406C28.4814 25.6558 28.8163 25.3936 29.4392 25.3912C32.4569 25.3912 35.4745 25.3912 38.4922 25.3912C39.0565 25.3912 39.3774 25.6254 39.4289 26.068C39.4734 26.5363 39.1479 26.8759 38.5952 26.8782C37.0521 26.8876 35.5182 26.8806 33.9868 26.8829Z" fill="#F37121"/>
<path d="M35.3074 34.1445C35.0217 33.9926 34.7845 33.7633 34.623 33.483C34.4615 33.2026 34.3822 32.8825 34.3941 32.5591C34.3941 32.2149 34.3426 31.8566 34.3426 31.5218C34.3426 31.1869 34.2255 30.9223 33.8297 30.8755C33.7544 30.8765 33.6797 30.8609 33.611 30.83C33.5423 30.799 33.4812 30.7533 33.4321 30.6961C33.3829 30.6389 33.347 30.5717 33.3267 30.4991C33.3064 30.4265 33.3022 30.3503 33.3146 30.276C33.3403 29.8826 33.6307 29.8076 33.9375 29.7749C34.9233 29.6718 35.593 30.2432 35.6539 31.2337C35.6797 31.6623 35.6937 32.0908 35.7031 32.5193C35.7016 32.7179 35.7533 32.9133 35.853 33.085C35.9527 33.2568 36.0966 33.3986 36.2698 33.4958C37.0074 33.9642 37.0168 34.2967 36.3026 34.7486C36.1149 34.8534 35.9597 35.0078 35.854 35.1949C35.7482 35.382 35.696 35.5946 35.7031 35.8094C35.7031 36.2778 35.682 36.7648 35.6375 37.2425C35.5509 38.1511 34.4667 38.7974 33.6424 38.4134C33.5573 38.3647 33.4851 38.2963 33.4317 38.214C33.3784 38.1318 33.3454 38.0379 33.3356 37.9404C33.3544 37.7577 33.5464 37.472 33.6939 37.4463C34.3051 37.3643 34.366 36.9779 34.3543 36.4885C34.3543 36.2754 34.3683 36.06 34.3754 35.8469C34.3988 35.1537 34.5674 34.5355 35.3074 34.1445Z" fill="#F37121"/>
<path d="M30.1348 34.1374C30.9052 34.5402 31.0715 35.1888 31.0715 35.9194C31.0715 36.1677 31.0715 36.4159 31.0855 36.6618C31.1043 37.0552 31.2003 37.3643 31.685 37.4111C31.7573 37.4094 31.829 37.425 31.894 37.4568C31.9589 37.4885 32.0154 37.5353 32.0585 37.5934C32.1016 37.6514 32.1302 37.7189 32.1418 37.7903C32.1534 37.8617 32.1478 37.9348 32.1253 38.0035C32.0772 38.1151 32.0054 38.2148 31.9148 38.2957C31.8242 38.3766 31.717 38.4367 31.6007 38.4719C30.5961 38.6733 29.8234 38.0035 29.7836 36.9826C29.7836 36.7039 29.7648 36.4229 29.7836 36.1419C29.8 35.4862 29.6196 34.9711 28.9827 34.6315C28.5144 34.3973 28.5284 33.8658 28.9991 33.6222C29.6243 33.3014 29.8 32.8003 29.7859 32.161C29.7859 31.8144 29.7859 31.4585 29.8046 31.1213C29.8212 30.8947 29.89 30.6751 30.0056 30.4795C30.1212 30.2839 30.2804 30.1177 30.4709 29.9939C30.6614 29.8701 30.8779 29.7921 31.1036 29.7658C31.3292 29.7396 31.5579 29.7659 31.7717 29.8427C31.8665 29.8902 31.9487 29.9595 32.0114 30.045C32.0741 30.1305 32.1156 30.2298 32.1323 30.3345C32.1323 30.5054 31.9168 30.8028 31.7693 30.8192C31.1511 30.8918 31.0996 31.2876 31.0949 31.7723C31.0949 31.9362 31.0832 32.1025 31.0832 32.2664C31.0645 33.0204 30.9474 33.7253 30.1348 34.1374Z" fill="#F37121"/>
<path d="M32.5514 40.5092C33.4413 40.5092 34.3311 40.5092 35.2233 40.5092C35.8064 40.5092 36.1272 40.7855 36.1225 41.2562C36.1178 41.7269 35.7923 41.9985 35.2092 41.9985C33.4108 41.9985 31.6155 41.9985 29.8233 41.9985C29.2402 41.9985 28.9077 41.7269 28.8867 41.2679C28.8656 40.809 29.2121 40.5116 29.8233 40.5069C30.7366 40.5045 31.6428 40.5092 32.5514 40.5092Z" fill="#F37121"/>
<path d="M30.7325 23.759C30.2642 23.759 29.8099 23.759 29.3509 23.759C28.7913 23.7426 28.4915 23.485 28.4845 23.0167C28.4775 22.5483 28.7725 22.2673 29.3252 22.2603C30.2946 22.2462 31.2657 22.2462 32.2382 22.2603C32.7792 22.2603 33.0859 22.56 33.0789 23.0167C33.0719 23.4733 32.7628 23.7356 32.2125 23.7496C31.7184 23.766 31.229 23.759 30.7325 23.759Z" fill="#F37121"/>
<path d="M37.256 23.7567C36.7619 23.7567 36.2678 23.7684 35.7737 23.7567C35.2796 23.745 34.9541 23.4335 34.9541 23.0144C34.9554 22.9106 34.978 22.8082 35.0204 22.7135C35.0629 22.6188 35.1243 22.5338 35.2009 22.4638C35.2775 22.3938 35.3676 22.3402 35.4657 22.3064C35.5639 22.2727 35.6679 22.2594 35.7714 22.2674C36.7595 22.2533 37.7477 22.2533 38.7359 22.2674C38.8398 22.259 38.9443 22.2721 39.0428 22.3059C39.1414 22.3397 39.2319 22.3934 39.3088 22.4637C39.3857 22.534 39.4473 22.6194 39.4897 22.7145C39.5322 22.8097 39.5546 22.9125 39.5555 23.0167C39.5555 23.4335 39.2324 23.745 38.7383 23.7614C38.2442 23.7778 37.7501 23.7567 37.256 23.7567Z" fill="#F37121"/>
<path d="M46.2154 59.2404C46.2219 59.9746 46.0102 60.6942 45.6072 61.308C45.2041 61.9217 44.6279 62.4019 43.9516 62.6877C43.2752 62.9735 42.5292 63.0521 41.8082 62.9133C41.0872 62.7746 40.4236 62.4248 39.9016 61.9084C39.3797 61.3921 39.0228 60.7323 38.8763 60.0128C38.7298 59.2933 38.8003 58.5465 39.0788 57.8672C39.3573 57.1878 39.8312 56.6064 40.4406 56.1968C41.05 55.7871 41.7672 55.5677 42.5015 55.5663C43.4798 55.5656 44.4188 55.9512 45.1143 56.6393C45.8098 57.3273 46.2056 58.2621 46.2154 59.2404ZM44.7214 59.2404C44.7218 58.9481 44.6638 58.6586 44.5507 58.3891C44.4377 58.1195 44.2719 57.8752 44.0631 57.6706C43.8544 57.466 43.6068 57.3051 43.335 57.1975C43.0632 57.0899 42.7727 57.0377 42.4804 57.0439C42.0433 57.0495 41.6176 57.1844 41.2571 57.4316C40.8965 57.6788 40.6173 58.0273 40.4546 58.4331C40.2919 58.8389 40.2531 59.2837 40.3429 59.7115C40.4328 60.1394 40.6474 60.531 40.9596 60.837C41.2718 61.143 41.6676 61.3497 42.0972 61.4309C42.5267 61.5122 42.9707 61.4644 43.3731 61.2937C43.7755 61.1229 44.1184 60.8367 44.3583 60.4713C44.5983 60.1059 44.7246 59.6776 44.7214 59.2404Z" fill="#F37121"/>
</g>
<defs>
<clipPath id="clip0_22169_3149">
<rect width="50.5806" height="50.5806" fill="white" transform="translate(16.71 17.1625)"/>
</clipPath>
</defs>
</svg>
