<svg width="50" height="50" viewBox="0 0 50 50" fill="none" xmlns="http://www.w3.org/2000/svg">
<path d="M32.3417 6.02543C32.4768 6.02505 32.6119 6.02463 32.747 6.02416C33.0293 6.02344 33.3116 6.02346 33.5938 6.02398C33.9538 6.02454 34.3138 6.02289 34.6737 6.02062C34.9525 6.01918 35.2312 6.0191 35.51 6.0194C35.7066 6.01933 35.9033 6.01798 36.1 6.0166C36.9066 6.02066 37.6204 6.06499 38.2625 6.61022C38.3155 6.6529 38.3685 6.69557 38.4231 6.73954C38.8538 7.29453 38.9102 7.91753 38.909 8.59253C38.91 8.67646 38.911 8.7604 38.912 8.84688C38.915 9.12164 38.9159 9.39636 38.9168 9.67114C38.9184 9.8627 38.9202 10.0543 38.9221 10.2458C38.9267 10.748 38.9296 11.2502 38.9322 11.7523C38.9351 12.2656 38.9396 12.7788 38.944 13.292C38.9524 14.2976 38.959 15.3031 38.9644 16.3087C39.0136 16.2754 39.0627 16.2421 39.1133 16.2078C39.6329 15.8556 40.1527 15.5039 40.6727 15.1524C40.8658 15.0218 41.0588 14.8911 41.2517 14.7603C41.8027 14.3868 42.355 14.0152 42.9093 13.6465C43.0737 13.5367 43.2377 13.4264 43.4013 13.3153C43.6129 13.1717 43.8259 13.0305 44.0395 12.89C44.0998 12.8483 44.1602 12.8066 44.2223 12.7636C44.5381 12.5598 44.7189 12.5 45.0987 12.5063C45.4098 12.5978 45.4098 12.5978 45.6051 12.8907C45.7171 14.213 45.5478 15.5833 45.4624 16.9034C45.4475 17.1377 45.4327 17.372 45.4178 17.6064C45.3868 18.0945 45.3554 18.5826 45.3237 19.0707C45.2833 19.6947 45.244 20.3188 45.2049 20.9429C45.1746 21.4256 45.1436 21.9082 45.1124 22.3909C45.0976 22.621 45.0831 22.8511 45.0687 23.0813C45.0486 23.4028 45.0276 23.7242 45.0064 24.0457C45.0007 24.1396 44.995 24.2335 44.9892 24.3303C44.9089 25.5106 44.9089 25.5106 44.7262 25.9767C44.4183 26.1819 44.313 26.2033 43.9586 26.14C43.4987 25.9955 43.093 25.7284 42.6815 25.4823C42.5868 25.4268 42.492 25.3714 42.3944 25.3143C42.1619 25.178 41.9301 25.0407 41.6988 24.9025C41.4292 25.2309 41.1862 25.5659 40.9542 25.9217C39.7757 27.7026 38.4856 29.4211 37.0441 30.998C36.9193 31.1359 36.7951 31.2745 36.6741 31.4157C36.2127 31.9534 35.7229 32.4591 35.2219 32.9599C35.0837 33.0984 34.9462 33.2377 34.8087 33.377C34.2787 33.9081 33.7335 34.4002 33.1474 34.8687C32.9562 35.0216 32.7695 35.1769 32.5855 35.3383C30.8799 36.8278 28.9392 38.0735 26.9515 39.1521C26.76 39.2565 26.5699 39.3631 26.3798 39.47C23.4851 41.0761 20.2221 42.1709 16.9918 42.8712C16.8462 42.9032 16.8462 42.9032 16.6977 42.9359C13.0301 43.7284 8.42778 44.5009 4.6871 43.8478C4.51887 43.7185 4.51887 43.7185 4.39413 43.5548C4.32975 42.9539 4.32975 42.9539 4.51971 42.7098C4.80942 42.4821 5.17282 42.4498 5.52709 42.3814C5.61121 42.3641 5.69533 42.3469 5.78199 42.3291C5.96228 42.2921 6.14266 42.2556 6.32312 42.2194C7.74316 41.9347 9.14768 41.6311 10.5356 41.2142C10.6236 41.1879 10.7115 41.1615 10.8021 41.1344C10.8762 41.1113 10.9503 41.0883 11.0267 41.0645C11.2301 41.0157 11.2301 41.0157 11.6207 41.0157C11.6204 40.9214 11.6202 40.8271 11.6199 40.7299C11.6134 38.4339 11.6086 36.1378 11.6055 33.8418C11.604 32.7314 11.6019 31.6211 11.5986 30.5107C11.5957 29.5428 11.5938 28.5749 11.5931 27.607C11.5927 27.0946 11.5918 26.5822 11.5897 26.0698C11.5877 25.5872 11.5871 25.1046 11.5876 24.622C11.5875 24.4452 11.5869 24.2684 11.5858 24.0916C11.5745 22.2246 11.5745 22.2246 12.1151 21.3563C12.7625 20.764 13.5202 20.6448 14.3711 20.6651C14.4607 20.6656 14.5504 20.6662 14.6428 20.6668C14.9253 20.6689 15.2078 20.6738 15.4903 20.6788C15.6835 20.6808 15.8766 20.6826 16.0698 20.6842C16.5399 20.6884 17.01 20.6952 17.4801 20.7032C17.478 20.6048 17.476 20.5064 17.4739 20.405C17.4667 20.0355 17.4623 19.6661 17.4586 19.2966C17.4567 19.1375 17.454 18.9783 17.4506 18.8193C17.4099 16.8704 17.4099 16.8704 17.9983 16.1531C18.6347 15.5603 19.3892 15.4843 20.2114 15.4988C20.3013 15.4993 20.3913 15.4997 20.4839 15.5001C20.7685 15.5017 21.053 15.5054 21.3375 15.5091C21.5315 15.5106 21.7256 15.512 21.9196 15.5132C22.3929 15.5164 22.8662 15.5214 23.3394 15.5275C23.3371 15.3783 23.3371 15.3783 23.3348 15.2261C23.3295 14.8541 23.3261 14.4821 23.3233 14.1101C23.3219 13.9496 23.3199 13.7892 23.3173 13.6287C23.3138 13.397 23.3121 13.1653 23.3108 12.9335C23.3093 12.8627 23.3078 12.792 23.3062 12.7191C23.306 12.0355 23.4922 11.3864 23.9621 10.8699C24.5773 10.3751 25.3301 10.2954 26.0898 10.3135C26.1795 10.3141 26.2692 10.3146 26.3615 10.3152C26.6441 10.3174 26.9265 10.3223 27.2091 10.3273C27.4022 10.3292 27.5954 10.331 27.7885 10.3326C28.2587 10.3369 28.7287 10.3436 29.1988 10.3517C29.1968 10.2764 29.1947 10.2011 29.1926 10.1236C29.1844 9.77849 29.1794 9.43341 29.1744 9.08825C29.1711 8.96986 29.1679 8.85146 29.1645 8.72948C29.1559 7.93932 29.206 7.26039 29.7547 6.65316C30.486 5.94687 31.3829 6.02477 32.3417 6.02543ZM30.7298 7.63361C30.5417 7.95139 30.5089 8.12486 30.5183 8.49201C30.5199 8.60059 30.5215 8.70917 30.5231 8.82103C30.5272 8.93338 30.5313 9.04574 30.5355 9.16149C30.5377 9.27573 30.5399 9.38997 30.5422 9.50768C30.5479 9.78914 30.5559 10.0703 30.566 10.3517C30.6568 10.366 30.7475 10.3804 30.841 10.3952C32.2022 10.6421 32.2022 10.6421 32.6168 11.2306C33.0008 11.8988 32.9529 12.584 32.952 13.3365C32.9529 13.4809 32.9539 13.6253 32.955 13.7697C32.9577 14.1603 32.9586 14.5509 32.9592 14.9414C32.9601 15.3502 32.9627 15.7589 32.965 16.1676C32.9693 16.9409 32.9721 17.7142 32.9743 18.4876C32.977 19.3683 32.9813 20.2489 32.9857 21.1296C32.9948 22.9406 33.0018 24.7516 33.0074 26.5626C33.4156 26.1573 33.7731 25.7413 34.1244 25.287C34.183 25.2114 34.2416 25.1359 34.302 25.0581C35.6432 23.5624 35.6432 23.5624 36.417 21.8741C36.2922 21.6024 36.1396 21.5399 35.8764 21.4025C35.7394 21.3284 35.7394 21.3284 35.5997 21.2527C35.406 21.1511 35.2122 21.0497 35.0183 20.9483C34.9269 20.8988 34.8354 20.8493 34.7412 20.7982C34.6569 20.7542 34.5726 20.7101 34.4858 20.6647C34.2246 20.4687 34.1516 20.3378 34.0816 20.0196C34.131 19.7811 34.131 19.7811 34.2769 19.5314C34.5163 19.3981 34.7419 19.2913 34.9928 19.1858C36.5586 18.4526 36.5586 18.4526 37.6031 17.1398C37.9971 15.7612 37.8353 14.2338 37.7493 12.8217C37.7254 12.3735 37.7157 11.9255 37.7067 11.4768C37.6878 10.5513 37.6601 9.62558 37.6062 8.70139C37.6029 8.61668 37.5996 8.53197 37.5961 8.4447C37.5694 8.05264 37.5486 7.86938 37.286 7.56501C36.9705 7.40072 36.7714 7.37198 36.4168 7.3699C36.2403 7.36758 36.2403 7.36758 36.0603 7.36521C35.934 7.36569 35.8078 7.36618 35.6777 7.36668C35.546 7.36617 35.4143 7.36555 35.2826 7.36484C35.0071 7.36383 34.7317 7.36427 34.4562 7.3657C34.1038 7.36738 33.7516 7.36508 33.3992 7.36165C33.1274 7.3595 32.8556 7.35964 32.5839 7.36045C32.391 7.36057 32.1982 7.35863 32.0053 7.35665C31.3292 7.35652 31.3292 7.35652 30.7298 7.63361ZM24.8704 11.9185C24.6649 12.2806 24.6444 12.576 24.6589 12.9811C24.6596 13.0542 24.6603 13.1272 24.661 13.2024C24.6638 13.4343 24.6699 13.666 24.6761 13.8978C24.6786 14.0556 24.6808 14.2133 24.6828 14.371C24.6882 14.7566 24.6966 15.142 24.7066 15.5275C24.8006 15.5455 24.8945 15.5635 24.9913 15.5821C25.1145 15.6069 25.2377 15.6316 25.3647 15.6572C25.4868 15.6812 25.609 15.7053 25.7348 15.7301C26.1804 15.8488 26.491 16.0282 26.7574 16.4064C26.9888 16.8801 27.0872 17.2229 27.0893 17.7579C27.09 17.8215 27.0906 17.8851 27.0913 17.9506C27.0931 18.1618 27.0928 18.3728 27.0926 18.584C27.0935 18.7361 27.0945 18.8882 27.0956 19.0403C27.0983 19.4519 27.0992 19.8634 27.0998 20.275C27.1007 20.7056 27.1033 21.1362 27.1057 21.5668C27.1099 22.3817 27.1127 23.1965 27.115 24.0113C27.1176 24.9392 27.1219 25.8671 27.1263 26.795C27.1354 28.7032 27.1424 30.6114 27.148 32.5196C27.2579 32.4254 27.3679 32.3312 27.4778 32.237C27.539 32.1846 27.6002 32.1321 27.6632 32.0781C28.8029 31.1012 29.9212 30.0917 30.9566 29.004C31.0133 28.957 31.0699 28.9101 31.1283 28.8617C31.5722 28.4505 31.6903 28.1224 31.7257 27.5197C31.7317 27.2334 31.729 26.9475 31.7256 26.6611C31.7262 26.5029 31.7271 26.3447 31.7283 26.1864C31.7305 25.7585 31.7285 25.3306 31.7256 24.9027C31.7232 24.4544 31.7242 24.0061 31.7247 23.5578C31.7251 22.8055 31.7227 22.0532 31.7186 21.301C31.7139 20.4311 31.7134 19.5614 31.7152 18.6915C31.7168 17.8542 31.7156 17.0169 31.7132 16.1796C31.7122 15.8234 31.7121 15.4672 31.7127 15.111C31.7134 14.6919 31.7116 14.2729 31.708 13.8539C31.707 13.7 31.7069 13.5462 31.7076 13.3923C31.7085 13.1824 31.7064 12.9728 31.7035 12.7629C31.7031 12.6455 31.7027 12.528 31.7022 12.407C31.6647 12.092 31.6647 12.092 31.4097 11.8765C31.1014 11.6879 30.9171 11.6689 30.5574 11.6668C30.3809 11.6645 30.3809 11.6645 30.2009 11.6621C30.0746 11.6626 29.9484 11.6631 29.8183 11.6636C29.6866 11.663 29.5549 11.6624 29.4233 11.6617C29.1478 11.6607 28.8723 11.6611 28.5968 11.6626C28.2444 11.6643 27.8922 11.662 27.5398 11.6585C27.268 11.6564 26.9963 11.6565 26.7245 11.6573C26.5316 11.6574 26.3388 11.6555 26.146 11.6535C25.4736 11.6554 25.4736 11.6554 24.8704 11.9185ZM43.6954 14.7706C43.5875 14.8435 43.5875 14.8435 43.4775 14.9178C43.3987 14.9717 43.32 15.0256 43.2388 15.0811C43.1561 15.1372 43.0734 15.1932 42.9882 15.251C42.8087 15.3727 42.6294 15.4945 42.4502 15.6166C41.9755 15.9399 41.4999 16.2617 41.0244 16.5837C40.927 16.6498 40.8296 16.7158 40.7292 16.7839C39.7151 17.4709 38.6963 18.1508 37.6766 18.8295C37.5098 18.9405 37.343 19.0516 37.1762 19.1626C36.7958 19.4159 36.4153 19.669 36.0348 19.922C36.2435 20.1485 36.4444 20.2929 36.7161 20.4366C36.7896 20.4771 36.8631 20.5175 36.9388 20.5592C37.0931 20.6431 37.248 20.7257 37.4035 20.8072C37.9579 21.1163 37.9579 21.1163 38.1042 21.4837C37.9468 23.9579 33.9509 27.6121 32.3238 29.3946C32.244 29.4835 32.1642 29.5724 32.082 29.664C31.1689 30.674 30.2273 31.6811 29.1855 32.5601C28.9689 32.7444 28.7611 32.9373 28.5518 33.13C27.9463 33.6756 27.3062 34.1725 26.6598 34.6681C26.5985 34.7153 26.5373 34.7626 26.4743 34.8112C22.2514 38.0637 17.4741 40.4724 12.4019 42.09C12.4019 42.1222 12.4019 42.1544 12.4019 42.1876C13.4375 42.1409 14.4267 41.9925 15.4415 41.7909C15.5177 41.7759 15.5939 41.7609 15.6725 41.7455C18.6994 41.1469 21.6297 40.2019 24.4137 38.8673C24.4819 38.8347 24.5501 38.8022 24.6205 38.7686C27.6257 37.3245 30.3895 35.488 32.8529 33.236C33.0562 33.0521 33.262 32.8728 33.4698 32.694C33.9226 32.2985 34.3474 31.8776 34.7713 31.4515C34.8459 31.3773 34.9205 31.3031 34.9973 31.2267C35.4611 30.7622 35.9015 30.2843 36.3277 29.7853C36.4145 29.6856 36.5014 29.5859 36.5883 29.4862C37.5043 28.4182 38.3376 27.2931 39.1536 26.1476C39.2014 26.0807 39.2492 26.0138 39.2985 25.9449C39.5724 25.5563 39.8287 25.1614 40.0741 24.7541C40.1293 24.664 40.1846 24.574 40.2414 24.4812C40.3483 24.3056 40.4529 24.1286 40.5548 23.95C40.6947 23.7215 40.824 23.5277 41.0152 23.34C41.6019 23.2066 41.9496 23.3803 42.4505 23.6871C42.5227 23.7337 42.5949 23.7803 42.6693 23.8282C42.8166 23.9199 42.9639 24.0115 43.1114 24.1029C43.2075 24.1643 43.2075 24.1643 43.3055 24.2269C43.4413 24.3248 43.4413 24.3248 43.5543 24.3165C43.6646 23.8546 43.6883 23.3935 43.7168 22.9212C43.7225 22.8306 43.7283 22.7401 43.7342 22.6468C43.753 22.3482 43.7713 22.0497 43.7896 21.7511C43.8026 21.5438 43.8156 21.3365 43.8286 21.1292C43.8628 20.5842 43.8966 20.0391 43.9303 19.4941C43.9647 18.9377 43.9996 18.3813 44.0344 17.8249C44.1026 16.7336 44.1704 15.6422 44.2379 14.5509C43.9874 14.5509 43.9018 14.6301 43.6954 14.7706ZM19.011 17.0943C18.8056 17.4564 18.785 17.7518 18.7996 18.1569C18.8003 18.2299 18.801 18.3029 18.8017 18.3782C18.8044 18.6101 18.8105 18.8418 18.8167 19.0736C18.8192 19.2313 18.8214 19.3891 18.8234 19.5468C18.8288 19.9324 18.8372 20.3178 18.8473 20.7032C18.9279 20.7153 19.0085 20.7273 19.0916 20.7397C19.1973 20.7563 19.3029 20.7728 19.4118 20.7898C19.5166 20.8059 19.6214 20.822 19.7294 20.8385C20.3161 20.9601 20.6658 21.2943 20.9957 21.7775C21.1762 22.1533 21.2161 22.4541 21.2182 22.8694C21.2193 22.9909 21.2204 23.1124 21.2215 23.2375C21.2217 23.3713 21.2219 23.5051 21.2221 23.639C21.223 23.7805 21.224 23.922 21.2251 24.0635C21.2278 24.447 21.2293 24.8305 21.2305 25.214C21.2321 25.6151 21.2347 26.0161 21.2372 26.4171C21.2417 27.1763 21.2453 27.9354 21.2486 28.6946C21.2523 29.559 21.2571 30.4233 21.262 31.2877C21.2721 33.0655 21.2808 34.8434 21.2887 36.6212C21.7151 36.4574 22.093 36.2475 22.4788 36.0048C22.546 35.9627 22.6131 35.9206 22.6823 35.8773C23.4391 35.3962 24.1621 34.8689 24.8831 34.3363C25.0973 34.1798 25.0973 34.1798 25.4471 34.0231C25.7189 33.8258 25.775 33.7197 25.8445 33.3861C25.8689 32.9681 25.8711 32.5547 25.8662 32.1362C25.8668 31.9752 25.8677 31.8141 25.8689 31.653C25.8712 31.216 25.8692 30.779 25.8662 30.342C25.8638 29.8847 25.8648 29.4274 25.8653 28.9701C25.8657 28.2023 25.8633 27.4345 25.8592 26.6666C25.8546 25.7787 25.8541 24.8908 25.8558 24.0028C25.8574 23.1487 25.8563 22.2947 25.8538 21.4407C25.8528 21.0771 25.8527 20.7136 25.8534 20.35C25.854 19.922 25.8522 19.4941 25.8486 19.0662C25.8476 18.909 25.8475 18.7519 25.8483 18.5947C25.8491 18.3803 25.847 18.1662 25.8442 17.9518C25.8437 17.8318 25.8433 17.7118 25.8428 17.5882C25.8061 17.2684 25.8061 17.2684 25.5503 17.0514C25.2421 16.8639 25.0572 16.8447 24.698 16.8426C24.5216 16.8402 24.5216 16.8402 24.3415 16.8379C24.2153 16.8384 24.089 16.8388 23.9589 16.8393C23.8273 16.8388 23.6956 16.8382 23.5639 16.8375C23.2884 16.8365 23.0129 16.8369 22.7374 16.8384C22.385 16.84 22.0328 16.8377 21.6804 16.8343C21.4087 16.8322 21.1369 16.8323 20.8651 16.8331C20.6723 16.8332 20.4794 16.8313 20.2866 16.8293C19.6143 16.8312 19.6143 16.8312 19.011 17.0943ZM12.9879 22.5587C12.9407 22.8264 12.9236 23.0329 12.9292 23.2996C12.9287 23.3734 12.9283 23.4472 12.9279 23.5232C12.9271 23.7701 12.9298 24.0168 12.9324 24.2636C12.9326 24.4407 12.9325 24.6178 12.9322 24.7949C12.9321 25.2755 12.935 25.7561 12.9384 26.2366C12.9414 26.7389 12.9417 27.2412 12.9423 27.7436C12.9438 28.6947 12.9478 29.6457 12.9527 30.5968C12.9582 31.6797 12.9609 32.7625 12.9633 33.8453C12.9684 36.0727 12.977 38.3001 12.9879 40.5275C13.2977 40.4202 13.6073 40.3126 13.917 40.2048C14.0038 40.1748 14.0906 40.1448 14.18 40.1138C14.9344 39.8509 15.6678 39.5541 16.3997 39.2335C16.5135 39.1851 16.6272 39.1366 16.7444 39.0867C17.4956 38.7603 18.2203 38.3971 18.9444 38.0148C19.0387 37.9652 19.133 37.9156 19.2302 37.8645C19.4607 37.7432 19.6911 37.6217 19.9215 37.5001C19.9306 35.546 19.9375 33.5919 19.9417 31.6378C19.9437 30.7305 19.9465 29.8232 19.9509 28.9159C19.9548 28.1252 19.9574 27.3345 19.9582 26.5438C19.9587 26.125 19.9599 25.7063 19.9628 25.2875C19.9654 24.8935 19.9662 24.4995 19.9657 24.1054C19.9658 23.9607 19.9665 23.816 19.968 23.6713C19.97 23.4738 19.9693 23.2764 19.9684 23.079C19.969 22.9132 19.969 22.9132 19.9695 22.744C19.9105 22.3965 19.8079 22.2818 19.5308 22.0704C19.2514 22.0108 19.2514 22.0108 18.9384 22.0183C18.8188 22.0168 18.6992 22.0152 18.576 22.0136C18.3826 22.0144 18.3826 22.0144 18.1854 22.0151C18.0514 22.0146 17.9174 22.014 17.7833 22.0133C17.5027 22.0123 17.222 22.0127 16.9414 22.0141C16.5823 22.0158 16.2234 22.0135 15.8643 22.0101C15.5876 22.0079 15.3109 22.0081 15.0342 22.0089C14.8376 22.009 14.6411 22.0071 14.4446 22.0051C14.3247 22.0063 14.2048 22.0075 14.0812 22.0088C13.9759 22.0089 13.8706 22.009 13.7621 22.0091C13.3691 22.0934 13.2379 22.247 12.9879 22.5587Z" fill="#E45412"/>
<path d="M39.8438 35.4489C40.1149 35.6551 40.2221 35.7715 40.2833 36.1101C40.2833 36.2138 40.2834 36.3176 40.2834 36.4245C40.2843 36.5425 40.2852 36.6605 40.2861 36.782C40.285 36.9091 40.284 37.0362 40.2828 37.1671C40.2828 37.2991 40.283 37.4312 40.2833 37.5633C40.2834 37.8398 40.2822 38.1162 40.2799 38.3927C40.2772 38.7467 40.2774 39.1006 40.2787 39.4547C40.2794 39.7273 40.2786 39.9999 40.2774 40.2725C40.2767 40.4664 40.2771 40.6602 40.2776 40.8541C40.2763 40.9721 40.2751 41.0901 40.2738 41.2116C40.2733 41.3154 40.2728 41.4192 40.2722 41.5261C40.2281 41.8413 40.1791 41.9748 39.9414 42.1872C39.6746 42.2362 39.6746 42.2362 39.348 42.2362C39.2258 42.2371 39.1036 42.238 38.9777 42.239C38.8442 42.238 38.7107 42.2369 38.5773 42.2357C38.4405 42.2357 38.3036 42.2358 38.1668 42.2361C37.8801 42.2362 37.5935 42.235 37.3068 42.2328C36.9393 42.23 36.5719 42.2303 36.2044 42.2315C35.9219 42.2322 35.6395 42.2314 35.357 42.2302C35.2215 42.2298 35.086 42.2298 34.9505 42.2301C34.7611 42.2304 34.5718 42.2286 34.3824 42.2267C34.2208 42.2259 34.2208 42.2259 34.0559 42.2251C33.7891 42.1872 33.7891 42.1872 33.6105 42.0497C33.4701 41.8589 33.4193 41.7406 33.3984 41.5036C33.4778 41.2412 33.4778 41.2412 33.5938 41.0153C33.8384 40.893 34.0036 40.9059 34.2774 40.9066C34.4299 40.9066 34.4299 40.9066 34.5854 40.9066C34.6955 40.9071 34.8056 40.9076 34.919 40.9082C35.0314 40.9083 35.1439 40.9084 35.2597 40.9086C35.6199 40.9091 35.9801 40.9103 36.3403 40.9116C36.5841 40.9121 36.8279 40.9125 37.0716 40.9129C37.6701 40.914 38.2687 40.9156 38.8672 40.9177C38.8668 40.8562 38.8663 40.7946 38.8659 40.7312C38.8616 40.0912 38.8586 39.4513 38.8565 38.8113C38.8555 38.5724 38.8541 38.3335 38.8525 38.0946C38.8501 37.7513 38.849 37.4081 38.8481 37.0648C38.8471 36.9579 38.8461 36.851 38.8451 36.7408C38.845 36.5913 38.845 36.5913 38.845 36.4388C38.8446 36.3511 38.8441 36.2635 38.8437 36.1733C38.8691 35.9183 38.9252 35.7618 39.0625 35.5466C39.3399 35.4079 39.5366 35.4182 39.8438 35.4489Z" fill="#E45412"/>
<path d="M9.09046 7.56821C9.21267 7.56729 9.33487 7.56637 9.46078 7.56543C9.59426 7.56645 9.72774 7.56756 9.86122 7.56875C9.99804 7.56874 10.1349 7.56859 10.2717 7.56832C10.5584 7.56819 10.845 7.56942 11.1317 7.57164C11.4991 7.57441 11.8666 7.57414 12.234 7.5729C12.5165 7.57222 12.799 7.57298 13.0815 7.57419C13.217 7.57464 13.3525 7.57467 13.488 7.57429C13.6774 7.574 13.8667 7.57582 14.0561 7.57774C14.2177 7.57853 14.2177 7.57853 14.3826 7.57934C14.6494 7.6172 14.6494 7.6172 14.8307 7.74479C15.0188 8.02324 14.9771 8.26974 14.9424 8.59376C14.8248 8.75953 14.8248 8.75953 14.6494 8.88673C14.4214 8.92196 14.4214 8.92196 14.15 8.91999C14.0484 8.91997 13.9467 8.91995 13.842 8.91992C13.6776 8.91766 13.6776 8.91766 13.51 8.91534C13.3977 8.91493 13.2854 8.91451 13.1697 8.91409C12.8104 8.91244 12.4513 8.90877 12.0921 8.90504C11.8487 8.90357 11.6054 8.90224 11.3621 8.90104C10.7652 8.8978 10.1682 8.8929 9.5713 8.88673C9.57174 8.94826 9.57217 9.00979 9.57262 9.07318C9.57694 9.71317 9.57988 10.3532 9.58203 10.9932C9.58301 11.2321 9.58435 11.471 9.58604 11.7098C9.5884 12.0531 9.58951 12.3963 9.59038 12.7396C9.59138 12.8465 9.59239 12.9534 9.59343 13.0636C9.59345 13.1633 9.59346 13.263 9.59348 13.3657C9.59391 13.4533 9.59434 13.5409 9.59479 13.6311C9.56942 13.8861 9.51327 14.0426 9.37599 14.2578C9.09856 14.3965 8.90189 14.3862 8.59474 14.3555C8.32359 14.1493 8.21644 14.033 8.15517 13.6944C8.15515 13.5906 8.15514 13.4868 8.15512 13.3799C8.1542 13.2619 8.15329 13.1439 8.15234 13.0224C8.15344 12.8953 8.15454 12.7683 8.15567 12.6373C8.15565 12.5053 8.15551 12.3732 8.15524 12.2412C8.1551 11.9647 8.15633 11.6882 8.15855 11.4117C8.16133 11.0577 8.16106 10.7038 8.15981 10.3498C8.15913 10.0772 8.1599 9.80455 8.16111 9.53193C8.16176 9.33806 8.16134 9.14418 8.1609 8.95031C8.16214 8.83233 8.16338 8.71436 8.16466 8.59281C8.16518 8.48903 8.16571 8.38525 8.16626 8.27832C8.25096 7.6731 8.51078 7.56829 9.09046 7.56821Z" fill="#E45412"/>
</svg>
