<svg width="84" height="84" viewBox="0 0 84 84" fill="none" xmlns="http://www.w3.org/2000/svg">
<circle opacity="0.1" cx="42" cy="42" r="42" fill="#F37121"/>
<path d="M49.3427 23.4778C49.4778 23.4774 49.6129 23.477 49.748 23.4766C50.0303 23.4758 50.3125 23.4759 50.5948 23.4764C50.9548 23.4769 51.3147 23.4753 51.6747 23.473C51.9534 23.4716 52.2322 23.4715 52.5109 23.4718C52.7076 23.4717 52.9043 23.4704 53.1009 23.469C53.9075 23.4731 54.6214 23.5174 55.2635 24.0626C55.3165 24.1053 55.3695 24.148 55.4241 24.1919C55.8548 24.7469 55.9112 25.3699 55.91 26.0449C55.911 26.1289 55.912 26.2128 55.913 26.2993C55.9159 26.574 55.9168 26.8488 55.9177 27.1235C55.9194 27.3151 55.9212 27.5066 55.923 27.6982C55.9277 28.2004 55.9306 28.7025 55.9331 29.2047C55.9361 29.718 55.9406 30.2312 55.945 30.7444C55.9534 31.75 55.96 32.7555 55.9654 33.7611C56.0146 33.7278 56.0637 33.6945 56.1143 33.6602C56.6339 33.308 57.1537 32.9563 57.6737 32.6048C57.8667 32.4742 58.0597 32.3435 58.2527 32.2127C58.8037 31.8392 59.356 31.4676 59.9102 31.0989C60.0747 30.9891 60.2387 30.8787 60.4022 30.7677C60.6138 30.6241 60.8269 30.4829 61.0405 30.3424C61.1008 30.3007 61.1612 30.2589 61.2233 30.216C61.5391 30.0122 61.7199 29.9524 62.0996 29.9587C62.4107 30.0502 62.4107 30.0502 62.606 30.3431C62.7181 31.6654 62.5488 33.0357 62.4634 34.3558C62.4485 34.5901 62.4336 34.8244 62.4188 35.0588C62.3878 35.5469 62.3564 36.035 62.3247 36.5231C62.2843 37.1471 62.2449 37.7712 62.2059 38.3953C62.1755 38.878 62.1445 39.3606 62.1134 39.8433C62.0986 40.0734 62.084 40.3035 62.0697 40.5337C62.0496 40.8552 62.0286 41.1766 62.0074 41.498C62.0017 41.592 61.996 41.6859 61.9901 41.7827C61.9098 42.963 61.9099 42.963 61.7271 43.4291C61.4193 43.6343 61.3139 43.6557 60.9596 43.5924C60.4997 43.4479 60.0939 43.1808 59.6825 42.9347C59.5877 42.8792 59.493 42.8238 59.3954 42.7666C59.1629 42.6304 58.9311 42.4931 58.6998 42.3549C58.4302 42.6833 58.1871 43.0183 57.9552 43.3741C56.7766 45.155 55.4866 46.8735 54.0451 48.4504C53.9203 48.5883 53.7961 48.7269 53.6751 48.8681C53.2137 49.4058 52.7239 49.9115 52.2229 50.4123C52.0846 50.5508 51.9472 50.6901 51.8097 50.8294C51.2797 51.3605 50.7345 51.8526 50.1484 52.3211C49.9571 52.474 49.7705 52.6293 49.5865 52.7907C47.8808 54.2802 45.9401 55.5259 43.9525 56.6045C43.761 56.7089 43.5708 56.8155 43.3807 56.9224C40.4861 58.5285 37.2231 59.6233 33.9928 60.3236C33.8472 60.3556 33.8472 60.3556 33.6986 60.3883C30.0311 61.1808 25.4288 61.9533 21.6881 61.3002C21.5198 61.1708 21.5198 61.1708 21.3951 61.0072C21.3307 60.4063 21.3307 60.4063 21.5207 60.1622C21.8104 59.9345 22.1738 59.9022 22.5281 59.8338C22.6122 59.8165 22.6963 59.7993 22.783 59.7815C22.9633 59.7445 23.1436 59.708 23.3241 59.6718C24.7441 59.3871 26.1487 59.0835 27.5366 58.6666C27.6245 58.6403 27.7125 58.6139 27.803 58.5868C27.8772 58.5637 27.9513 58.5407 28.0277 58.5169C28.231 58.4681 28.231 58.4681 28.6217 58.4681C28.6214 58.3738 28.6211 58.2795 28.6208 58.1823C28.6143 55.8863 28.6095 53.5902 28.6065 51.2942C28.605 50.1838 28.6029 49.0735 28.5996 47.9631C28.5966 46.9952 28.5948 46.0273 28.5941 45.0593C28.5937 44.547 28.5928 44.0346 28.5907 43.5222C28.5887 43.0396 28.5881 42.557 28.5885 42.0744C28.5884 41.8976 28.5879 41.7208 28.5867 41.544C28.5754 39.677 28.5754 39.677 29.1161 38.8087C29.7635 38.2163 30.5212 38.0972 31.3721 38.1175C31.4617 38.118 31.5514 38.1186 31.6438 38.1192C31.9263 38.1213 32.2088 38.1262 32.4913 38.1312C32.6844 38.1332 32.8776 38.135 33.0707 38.1366C33.5409 38.1408 34.0109 38.1476 34.481 38.1556C34.479 38.0572 34.477 37.9588 34.4748 37.8574C34.4677 37.4879 34.4633 37.1185 34.4596 36.749C34.4576 36.5898 34.455 36.4307 34.4516 36.2717C34.4109 34.3228 34.4109 34.3228 34.9993 33.6055C35.6357 33.0127 36.3902 32.9367 37.2124 32.9512C37.3023 32.9517 37.3922 32.9521 37.4849 32.9525C37.7694 32.9541 38.0539 32.9578 38.3385 32.9615C38.5325 32.963 38.7265 32.9643 38.9206 32.9655C39.3939 32.9688 39.8671 32.9738 40.3404 32.9799C40.3381 32.8307 40.3381 32.8307 40.3358 32.6785C40.3304 32.3065 40.3271 31.9345 40.3243 31.5625C40.3229 31.402 40.3209 31.2416 40.3183 31.0811C40.3147 30.8494 40.3131 30.6176 40.3118 30.3859C40.3103 30.3151 40.3088 30.2444 40.3072 30.1715C40.307 29.4879 40.4932 28.8388 40.9631 28.3222C41.5783 27.8275 42.3311 27.7478 43.0908 27.7659C43.1805 27.7665 43.2701 27.767 43.3625 27.7676C43.6451 27.7698 43.9275 27.7747 44.21 27.7797C44.4032 27.7816 44.5963 27.7834 44.7895 27.785C45.2596 27.7893 45.7297 27.796 46.1998 27.8041C46.1977 27.7288 46.1957 27.6535 46.1936 27.576C46.1854 27.2309 46.1804 26.8858 46.1754 26.5406C46.1721 26.4222 46.1688 26.3039 46.1655 26.1819C46.1569 25.3917 46.207 24.7128 46.7557 24.1056C47.487 23.3993 48.3839 23.4772 49.3427 23.4778ZM47.7307 25.086C47.5426 25.4038 47.5099 25.5773 47.5193 25.9444C47.5209 26.053 47.5224 26.1616 47.5241 26.2734C47.5282 26.3858 47.5322 26.4981 47.5365 26.6139C47.5387 26.7281 47.5409 26.8424 47.5431 26.9601C47.5489 27.2415 47.5569 27.5227 47.567 27.8041C47.6577 27.8184 47.7485 27.8328 47.842 27.8476C49.2032 28.0945 49.2032 28.0945 49.6178 28.683C50.0018 29.3512 49.9539 30.0364 49.953 30.7889C49.9538 30.9333 49.9548 31.0777 49.956 31.2221C49.9587 31.6127 49.9596 32.0032 49.9602 32.3938C49.9611 32.8026 49.9636 33.2113 49.966 33.62C49.9703 34.3933 49.9731 35.1666 49.9753 35.94C49.978 36.8206 49.9823 37.7013 49.9867 38.582C49.9957 40.393 50.0027 42.204 50.0084 44.015C50.4165 43.6097 50.774 43.1937 51.1253 42.7394C51.184 42.6638 51.2426 42.5883 51.303 42.5105C52.6442 41.0148 52.6442 41.0148 53.4179 39.3265C53.2932 39.0548 53.1406 38.9923 52.8774 38.8549C52.7404 38.7808 52.7404 38.7808 52.6007 38.7051C52.407 38.6035 52.2132 38.5021 52.0193 38.4007C51.9278 38.3512 51.8364 38.3017 51.7422 38.2506C51.6579 38.2066 51.5736 38.1625 51.4868 38.1171C51.2256 37.921 51.1526 37.7902 51.0826 37.472C51.132 37.2335 51.132 37.2335 51.2779 36.9838C51.5173 36.8505 51.7428 36.7437 51.9938 36.6382C53.5596 35.905 53.5596 35.905 54.6041 34.5922C54.9981 33.2136 54.8363 31.6862 54.7503 30.2741C54.7264 29.8259 54.7167 29.3779 54.7076 28.9292C54.6887 28.0037 54.6611 27.078 54.6071 26.1538C54.6038 26.0691 54.6005 25.9844 54.5971 25.8971C54.5703 25.505 54.5496 25.3218 54.2869 25.0174C53.9715 24.8531 53.7724 24.8244 53.4178 24.8223C53.2413 24.82 53.2413 24.82 53.0613 24.8176C52.935 24.8181 52.8088 24.8186 52.6787 24.8191C52.547 24.8186 52.4153 24.8179 52.2836 24.8172C52.0081 24.8162 51.7327 24.8167 51.4572 24.8181C51.1048 24.8198 50.7525 24.8175 50.4002 24.814C50.1284 24.8119 49.8566 24.812 49.5848 24.8128C49.392 24.813 49.1991 24.811 49.0063 24.809C48.3302 24.8089 48.3302 24.8089 47.7307 25.086ZM41.8714 29.3709C41.6659 29.733 41.6454 30.0284 41.6599 30.4335C41.6606 30.5065 41.6613 30.5796 41.662 30.6548C41.6647 30.8867 41.6709 31.1184 41.6771 31.3502C41.6795 31.5079 41.6818 31.6657 41.6838 31.8234C41.6891 32.209 41.6975 32.5944 41.7076 32.9799C41.8016 32.9979 41.8955 33.0159 41.9923 33.0345C42.1155 33.0593 42.2387 33.084 42.3656 33.1096C42.4878 33.1336 42.6099 33.1577 42.7358 33.1825C43.1814 33.3012 43.492 33.4806 43.7584 33.8588C43.9898 34.3325 44.0882 34.6753 44.0903 35.2103C44.0909 35.2739 44.0916 35.3375 44.0923 35.403C44.0941 35.6142 44.0938 35.8252 44.0936 36.0364C44.0945 36.1885 44.0955 36.3406 44.0966 36.4927C44.0993 36.9043 44.1002 37.3158 44.1008 37.7274C44.1017 38.158 44.1043 38.5886 44.1066 39.0192C44.1109 39.8341 44.1137 40.6489 44.1159 41.4637C44.1186 42.3916 44.1229 43.3195 44.1273 44.2474C44.1364 46.1556 44.1434 48.0638 44.149 49.972C44.2589 49.8778 44.3688 49.7836 44.4787 49.6894C44.54 49.637 44.6012 49.5845 44.6642 49.5304C45.8038 48.5536 46.9221 47.5441 47.9576 46.4564C48.0142 46.4094 48.0709 46.3624 48.1292 46.314C48.5732 45.9029 48.6913 45.5748 48.7267 44.9721C48.7326 44.6858 48.73 44.3999 48.7266 44.1135C48.7272 43.9553 48.7281 43.7971 48.7292 43.6388C48.7315 43.2109 48.7295 42.783 48.7266 42.3551C48.7241 41.9068 48.7252 41.4585 48.7257 41.0102C48.726 40.2579 48.7237 39.5056 48.7196 38.7533C48.7149 37.8835 48.7144 37.0137 48.7162 36.1439C48.7178 35.3066 48.7166 34.4693 48.7141 33.632C48.7131 33.2758 48.7131 32.9196 48.7137 32.5634C48.7144 32.1443 48.7126 31.7253 48.7089 31.3063C48.708 31.1524 48.7078 30.9986 48.7086 30.8447C48.7095 30.6348 48.7074 30.4252 48.7045 30.2153C48.7041 30.0979 48.7036 29.9804 48.7032 29.8594C48.6657 29.5444 48.6657 29.5444 48.4107 29.3289C48.1024 29.1403 47.9181 29.1213 47.5584 29.1192C47.3819 29.1168 47.3819 29.1168 47.2019 29.1145C47.0756 29.115 46.9494 29.1154 46.8193 29.1159C46.6876 29.1154 46.5559 29.1148 46.4242 29.1141C46.1487 29.1131 45.8733 29.1135 45.5978 29.115C45.2454 29.1166 44.8932 29.1144 44.5408 29.1109C44.269 29.1088 43.9973 29.1089 43.7255 29.1097C43.5326 29.1098 43.3398 29.1079 43.1469 29.1059C42.4746 29.1078 42.4746 29.1078 41.8714 29.3709ZM60.6963 32.223C60.5885 32.2959 60.5885 32.2959 60.4785 32.3702C60.3997 32.4241 60.3209 32.478 60.2398 32.5335C60.1571 32.5896 60.0744 32.6456 59.9892 32.7034C59.8097 32.825 59.6304 32.9469 59.4511 33.069C58.9765 33.3923 58.5008 33.7141 58.0254 34.0361C57.9279 34.1022 57.8305 34.1682 57.7302 34.2363C56.7161 34.9233 55.6973 35.6032 54.6776 36.2819C54.5108 36.3929 54.344 36.504 54.1772 36.615C53.7968 36.8683 53.4163 37.1214 53.0357 37.3744C53.2444 37.6009 53.4454 37.7453 53.717 37.889C53.7906 37.9295 53.8641 37.9699 53.9398 38.0116C54.094 38.0955 54.2489 38.1781 54.4044 38.2596C54.9589 38.5687 54.9589 38.5687 55.1052 38.9361C54.9478 41.4102 50.9518 45.0645 49.3248 46.847C49.245 46.9359 49.1652 47.0248 49.0829 47.1164C48.1699 48.1264 47.2282 49.1335 46.1864 50.0125C45.9698 50.1968 45.7621 50.3897 45.5528 50.5824C44.9473 51.128 44.3072 51.6249 43.6607 52.1205C43.5995 52.1677 43.5383 52.215 43.4752 52.2636C39.2524 55.5161 34.4751 57.9248 29.4029 59.5424C29.4029 59.5746 29.4029 59.6068 29.4029 59.64C30.4385 59.5933 31.4277 59.4449 32.4425 59.2433C32.5187 59.2283 32.5949 59.2133 32.6735 59.1979C35.7004 58.5993 38.6307 57.6543 41.4146 56.3197C41.4829 56.2871 41.5511 56.2546 41.6214 56.221C44.6267 54.7769 47.3905 52.9404 49.8539 50.6884C50.0572 50.5045 50.263 50.3252 50.4707 50.1464C50.9236 49.7509 51.3484 49.33 51.7723 48.9039C51.8469 48.8297 51.9215 48.7555 51.9983 48.6791C52.462 48.2145 52.9025 47.7367 53.3287 47.2377C53.4155 47.1379 53.5024 47.0383 53.5892 46.9386C54.5052 45.8706 55.3386 44.7455 56.1546 43.6C56.2024 43.5331 56.2502 43.4662 56.2995 43.3973C56.5734 43.0087 56.8296 42.6138 57.0751 42.2065C57.1303 42.1164 57.1855 42.0264 57.2424 41.9336C57.3493 41.758 57.4539 41.581 57.5557 41.4024C57.6957 41.1739 57.825 40.9801 58.0162 40.7924C58.6029 40.659 58.9506 40.8327 59.4515 41.1395C59.5237 41.1861 59.5959 41.2326 59.6702 41.2806C59.8176 41.3723 59.9649 41.4639 60.1124 41.5553C60.2085 41.6167 60.2085 41.6167 60.3065 41.6793C60.4423 41.7772 60.4423 41.7772 60.5553 41.7689C60.6656 41.307 60.6893 40.8459 60.7178 40.3736C60.7235 40.283 60.7292 40.1925 60.7351 40.0991C60.754 39.8006 60.7723 39.5021 60.7906 39.2035C60.8036 38.9962 60.8166 38.7889 60.8296 38.5816C60.8638 38.0366 60.8976 37.4915 60.9312 36.9465C60.9657 36.3901 61.0005 35.8337 61.0353 35.2773C61.1035 34.186 61.1713 33.0946 61.2389 32.0033C60.9884 32.0033 60.9027 32.0825 60.6963 32.223ZM36.012 34.5466C35.8066 34.9088 35.786 35.2042 35.8005 35.6093C35.8012 35.6823 35.8019 35.7553 35.8026 35.8306C35.8054 36.0625 35.8115 36.2942 35.8177 36.526C35.8202 36.6837 35.8224 36.8415 35.8244 36.9992C35.8298 37.3848 35.8382 37.7702 35.8482 38.1556C35.9289 38.1677 36.0095 38.1797 36.0926 38.1921C36.1982 38.2087 36.3039 38.2252 36.4128 38.2422C36.5176 38.2583 36.6224 38.2744 36.7304 38.2909C37.317 38.4124 37.6667 38.7467 37.9967 39.2299C38.1772 39.6057 38.217 39.9065 38.2192 40.3218C38.2203 40.4433 38.2214 40.5648 38.2225 40.6899C38.2227 40.8237 38.2229 40.9575 38.2231 41.0914C38.224 41.2329 38.225 41.3744 38.2261 41.5159C38.2288 41.8994 38.2302 42.2829 38.2315 42.6664C38.233 43.0675 38.2356 43.4685 38.2381 43.8695C38.2427 44.6287 38.2463 45.3878 38.2495 46.147C38.2533 47.0114 38.2581 47.8757 38.263 48.7401C38.2731 50.5179 38.2818 52.2958 38.2896 54.0736C38.7161 53.9098 39.094 53.6999 39.4798 53.4571C39.547 53.4151 39.6141 53.373 39.6833 53.3297C40.44 52.8486 41.1631 52.3213 41.8841 51.7887C42.0982 51.6322 42.0982 51.6322 42.4481 51.4755C42.7199 51.2781 42.776 51.1721 42.8454 50.8385C42.8699 50.4205 42.872 50.0071 42.8672 49.5886C42.8678 49.4276 42.8687 49.2665 42.8699 49.1054C42.8721 48.6684 42.8701 48.2314 42.8672 47.7944C42.8648 47.3371 42.8658 46.8798 42.8663 46.4225C42.8667 45.6547 42.8643 44.8869 42.8602 44.119C42.8555 43.2311 42.855 42.3432 42.8568 41.4552C42.8584 40.6011 42.8572 39.7471 42.8548 38.8931C42.8538 38.5295 42.8537 38.166 42.8543 37.8024C42.855 37.3744 42.8532 36.9465 42.8496 36.5186C42.8486 36.3614 42.8485 36.2043 42.8492 36.0471C42.8501 35.8327 42.848 35.6186 42.8451 35.4042C42.8447 35.2842 42.8443 35.1642 42.8438 35.0406C42.807 34.7208 42.807 34.7208 42.5513 34.5038C42.2431 34.3163 42.0582 34.2971 41.699 34.2949C41.5225 34.2926 41.5225 34.2926 41.3425 34.2903C41.2163 34.2907 41.09 34.2912 40.9599 34.2917C40.8282 34.2912 40.6965 34.2906 40.5649 34.2899C40.2894 34.2889 40.0139 34.2893 39.7384 34.2907C39.386 34.2924 39.0338 34.2901 38.6814 34.2867C38.4096 34.2845 38.1379 34.2847 37.8661 34.2855C37.6732 34.2856 37.4804 34.2837 37.2876 34.2817C36.6152 34.2836 36.6152 34.2836 36.012 34.5466ZM29.9889 40.0111C29.9417 40.2788 29.9246 40.4852 29.9301 40.752C29.9297 40.8258 29.9293 40.8996 29.9289 40.9756C29.9281 41.2225 29.9308 41.4692 29.9334 41.716C29.9336 41.8931 29.9335 42.0702 29.9332 42.2473C29.9331 42.7279 29.9359 43.2084 29.9393 43.689C29.9424 44.1913 29.9427 44.6936 29.9433 45.1959C29.9448 46.1471 29.9488 47.0981 29.9537 48.0492C29.9591 49.1321 29.9618 50.2149 29.9643 51.2977C29.9694 53.5251 29.978 55.7525 29.9889 57.9799C30.2987 57.8726 30.6083 57.765 30.9179 57.6572C31.0047 57.6272 31.0915 57.5972 31.181 57.5662C31.9354 57.3033 32.6687 57.0065 33.4007 56.6859C33.5145 56.6374 33.6282 56.589 33.7454 56.539C34.4966 56.2127 35.2213 55.8495 35.9453 55.4672C36.0397 55.4176 36.134 55.368 36.2312 55.3169C36.4617 55.1956 36.6921 55.0741 36.9224 54.9525C36.9316 52.9984 36.9385 51.0443 36.9427 49.0902C36.9447 48.1829 36.9475 47.2756 36.9519 46.3683C36.9558 45.5776 36.9583 44.7869 36.9592 43.9962C36.9597 43.5774 36.9609 43.1587 36.9637 42.7399C36.9664 42.3459 36.9672 41.9519 36.9666 41.5578C36.9667 41.4131 36.9675 41.2684 36.969 41.1237C36.971 40.9262 36.9703 40.7288 36.9694 40.5314C36.97 40.3655 36.97 40.3655 36.9705 40.1964C36.9115 39.8489 36.8089 39.7342 36.5318 39.5228C36.2524 39.4632 36.2524 39.4632 35.9394 39.4707C35.8198 39.4692 35.7002 39.4676 35.577 39.466C35.3836 39.4668 35.3836 39.4668 35.1864 39.4675C35.0524 39.467 34.9183 39.4664 34.7843 39.4657C34.5036 39.4647 34.223 39.4651 33.9423 39.4665C33.5833 39.4682 33.2244 39.4659 32.8653 39.4625C32.5886 39.4603 32.3119 39.4605 32.0351 39.4613C31.8386 39.4614 31.6421 39.4595 31.4456 39.4575C31.3256 39.4587 31.2057 39.4599 31.0822 39.4612C30.9769 39.4613 30.8716 39.4614 30.7631 39.4615C30.37 39.5458 30.2389 39.6994 29.9889 40.0111Z" fill="#F37121"/>
<path d="M56.8447 52.9013C57.1159 53.1075 57.223 53.2238 57.2843 53.5625C57.2843 53.6662 57.2843 53.77 57.2843 53.8769C57.2853 53.9949 57.2862 54.1129 57.2871 54.2344C57.286 54.3615 57.2849 54.4886 57.2838 54.6195C57.2838 54.7515 57.284 54.8836 57.2842 55.0157C57.2844 55.2922 57.2831 55.5686 57.2809 55.8451C57.2781 56.1991 57.2784 56.553 57.2797 56.907C57.2803 57.1797 57.2796 57.4523 57.2784 57.7249C57.2777 57.9188 57.2781 58.1126 57.2786 58.3065C57.2773 58.4245 57.2761 58.5425 57.2748 58.664C57.2743 58.7678 57.2738 58.8716 57.2732 58.9785C57.2291 59.2937 57.1801 59.4272 56.9424 59.6396C56.6756 59.6886 56.6756 59.6886 56.349 59.6886C56.2268 59.6895 56.1046 59.6904 55.9787 59.6914C55.8452 59.6904 55.7117 59.6893 55.5782 59.6881C55.4414 59.6881 55.3046 59.6882 55.1678 59.6885C54.8811 59.6886 54.5945 59.6874 54.3078 59.6852C53.9403 59.6824 53.5729 59.6827 53.2054 59.6839C52.9229 59.6846 52.6404 59.6838 52.3579 59.6826C52.2224 59.6822 52.0869 59.6821 51.9514 59.6825C51.7621 59.6828 51.5728 59.681 51.3834 59.6791C51.2218 59.6783 51.2218 59.6783 51.0569 59.6775C50.79 59.6396 50.79 59.6396 50.6114 59.5021C50.4711 59.3113 50.4203 59.193 50.3994 58.956C50.4788 58.6936 50.4788 58.6936 50.5947 58.4677C50.8394 58.3454 51.0046 58.3583 51.2784 58.359C51.4308 58.359 51.4308 58.359 51.5864 58.359C51.6965 58.3595 51.8065 58.36 51.92 58.3605C52.0324 58.3607 52.1448 58.3608 52.2607 58.361C52.6209 58.3615 52.9811 58.3627 53.3413 58.364C53.5851 58.3645 53.8288 58.3649 54.0726 58.3653C54.6711 58.3664 55.2696 58.368 55.8682 58.3701C55.8677 58.3086 55.8673 58.247 55.8668 58.1836C55.8625 57.5436 55.8596 56.9037 55.8574 56.2637C55.8565 56.0248 55.8551 55.7859 55.8534 55.547C55.8511 55.2037 55.85 54.8605 55.8491 54.5172C55.8481 54.4103 55.8471 54.3034 55.846 54.1932C55.846 54.0437 55.846 54.0437 55.846 53.8912C55.8456 53.8035 55.8451 53.7159 55.8447 53.6257C55.87 53.3707 55.9262 53.2142 56.0635 52.999C56.3409 52.8603 56.5376 52.8706 56.8447 52.9013Z" fill="#F37121"/>
<path d="M26.0914 25.0206C26.2136 25.0197 26.3359 25.0188 26.4618 25.0178C26.5952 25.0188 26.7287 25.02 26.8622 25.0211C26.999 25.0211 27.1358 25.021 27.2726 25.0207C27.5593 25.0206 27.846 25.0218 28.1326 25.024C28.5001 25.0268 28.8675 25.0265 29.235 25.0253C29.5175 25.0246 29.8 25.0254 30.0825 25.0266C30.218 25.027 30.3535 25.0271 30.489 25.0267C30.6783 25.0264 30.8677 25.0282 31.057 25.0301C31.2187 25.0309 31.2187 25.0309 31.3836 25.0317C31.6504 25.0696 31.6504 25.0696 31.8317 25.1972C32.0197 25.4756 31.9781 25.7221 31.9434 26.0462C31.8258 26.2119 31.8258 26.2119 31.6504 26.3391C31.4224 26.3744 31.4224 26.3744 31.151 26.3724C31.0493 26.3724 30.9477 26.3723 30.843 26.3723C30.6786 26.37 30.6786 26.37 30.511 26.3677C30.3987 26.3673 30.2864 26.3669 30.1707 26.3665C29.8114 26.3648 29.4522 26.3612 29.093 26.3574C28.8497 26.356 28.6064 26.3546 28.3631 26.3534C27.7661 26.3502 27.1692 26.3453 26.5723 26.3391C26.5727 26.4007 26.5731 26.4622 26.5736 26.5256C26.5779 27.1656 26.5809 27.8056 26.583 28.4456C26.584 28.6844 26.5853 28.9233 26.587 29.1622C26.5894 29.5055 26.5905 29.8487 26.5914 30.192C26.5924 30.2989 26.5934 30.4058 26.5944 30.516C26.5944 30.6157 26.5944 30.7154 26.5945 30.8181C26.5949 30.9057 26.5953 30.9933 26.5958 31.0835C26.5704 31.3385 26.5142 31.495 26.377 31.7102C26.0995 31.8489 25.9029 31.8386 25.5957 31.8079C25.3246 31.6017 25.2174 31.4854 25.1561 31.1468C25.1561 31.043 25.1561 30.9392 25.1561 30.8323C25.1552 30.7143 25.1543 30.5963 25.1533 30.4748C25.1544 30.3477 25.1555 30.2206 25.1566 30.0897C25.1566 29.9577 25.1565 29.8256 25.1562 29.6935C25.1561 29.417 25.1573 29.1406 25.1595 28.8641C25.1623 28.5101 25.162 28.1562 25.1608 27.8022C25.1601 27.5295 25.1609 27.2569 25.1621 26.9843C25.1627 26.7905 25.1623 26.5966 25.1619 26.4027C25.1631 26.2847 25.1644 26.1668 25.1656 26.0452C25.1662 25.9414 25.1667 25.8376 25.1672 25.7307C25.2519 25.1255 25.5118 25.0207 26.0914 25.0206Z" fill="#F37121"/>
</svg>
