<svg width="84" height="84" viewBox="0 0 84 84" fill="none" xmlns="http://www.w3.org/2000/svg">
<circle opacity="0.1" cx="42" cy="42" r="42" fill="#F37121"/>
<path d="M47.5743 24.252C49.2971 25.7297 50.2595 27.7867 50.4606 30.029C50.5664 31.5582 50.4131 33.3449 49.7166 34.7378C49.8467 34.7384 49.8467 34.7384 49.9794 34.7389C50.8011 34.7426 51.6227 34.7482 52.4444 34.7558C52.8667 34.7596 53.289 34.7628 53.7113 34.7643C54.1198 34.7658 54.5281 34.7692 54.9366 34.7738C55.0915 34.7752 55.2464 34.776 55.4014 34.7761C56.7188 34.7775 57.8092 34.9174 58.7861 35.8739C59.4039 36.5608 59.682 37.2551 59.7286 38.1867C59.7352 38.312 59.7418 38.4374 59.7486 38.5665C59.7552 38.7083 59.7618 38.8502 59.7683 38.992C59.7761 39.1474 59.7839 39.3027 59.7917 39.4581C59.8202 40.0331 59.8465 40.6081 59.8729 41.1832C59.8841 41.4272 59.8954 41.6712 59.9067 41.9152C59.9828 43.5675 60.056 45.22 60.128 46.8725C60.1329 46.9856 60.1329 46.9856 60.1379 47.1009C60.1412 47.1764 60.1445 47.2519 60.1479 47.3297C60.1747 47.9454 60.2021 48.561 60.2295 49.1767C60.2563 49.7805 60.2829 50.3843 60.3091 50.9881C60.3246 51.3446 60.3402 51.7011 60.3563 52.0575C60.4258 53.6093 60.4781 55.157 60.4588 56.7105C60.5524 56.7068 60.6461 56.703 60.7425 56.6991C61.668 56.6621 61.668 56.6621 61.9587 56.8951C62.3363 57.3805 62.2384 57.9239 62.241 58.5171C62.244 58.6852 62.244 58.6852 62.2471 58.8566C62.2526 60.0516 62.0136 60.8931 61.1786 61.7581C60.2948 62.5784 59.3314 62.6894 58.172 62.6964C58.0406 62.6975 57.9092 62.6995 57.7779 62.7024C57.5873 62.7065 57.3966 62.7079 57.206 62.7091C57.0924 62.7105 56.9788 62.712 56.8618 62.7134C56.4865 62.6577 56.3277 62.5458 56.0643 62.2769C55.9521 61.8912 55.9245 61.6881 56.0887 61.3186C56.2596 61.105 56.2596 61.105 56.5525 60.9097C56.8065 60.8848 56.8065 60.8848 57.1091 60.883C57.2742 60.88 57.2742 60.88 57.4427 60.8769C57.6734 60.8744 57.904 60.8726 58.1347 60.8716C58.8229 60.8575 59.2905 60.7989 59.8729 60.4214C60.4007 59.7583 60.3767 59.3715 60.4588 58.4683C48.2772 58.4683 36.0955 58.4683 23.5447 58.4683C23.6044 59.477 23.6044 59.477 24.033 60.3238C24.4603 60.6639 24.803 60.8242 25.3462 60.8245C25.4803 60.825 25.4803 60.825 25.6171 60.8254C25.7155 60.8252 25.8139 60.8251 25.9152 60.8249C26.0196 60.8251 26.124 60.8253 26.2315 60.8255C26.5831 60.8261 26.9346 60.826 27.2861 60.8259C27.5375 60.8262 27.7888 60.8265 28.0401 60.8269C28.5822 60.8277 29.1243 60.8282 29.6664 60.8285C30.5231 60.8291 31.3798 60.8307 32.2365 60.8326C32.5295 60.8332 32.8225 60.8338 33.1155 60.8344C33.2254 60.8347 33.2254 60.8347 33.3375 60.8349C34.1712 60.8366 35.0049 60.8382 35.8387 60.8397C35.9149 60.8398 35.9911 60.84 36.0697 60.8401C37.3052 60.8422 38.5407 60.8433 39.7761 60.844C41.0442 60.8448 42.3123 60.8471 43.5804 60.8507C44.3628 60.8528 45.1451 60.8538 45.9275 60.8531C46.5269 60.8528 47.1262 60.8545 47.7256 60.8569C47.9717 60.8576 48.2178 60.8576 48.4639 60.8569C48.7992 60.856 49.1344 60.8576 49.4698 60.8597C49.5677 60.8589 49.6656 60.858 49.7665 60.8572C50.1862 60.8621 50.4326 60.8714 50.8002 61.0872C51.0596 61.3845 51.0838 61.593 51.0838 61.9839C50.9287 62.3329 50.8185 62.4537 50.4979 62.6675C50.2967 62.6921 50.2967 62.6921 50.0604 62.6924C49.9703 62.693 49.8801 62.6935 49.7873 62.6941C49.6881 62.6937 49.5889 62.6934 49.4867 62.693C49.3815 62.6934 49.2763 62.6937 49.1678 62.6941C48.8134 62.6951 48.4589 62.6947 48.1045 62.6944C47.8511 62.6948 47.5977 62.6953 47.3442 62.6959C46.7261 62.6971 46.108 62.6973 45.4899 62.6971C44.9872 62.6969 44.4845 62.6971 43.9819 62.6975C43.9104 62.6975 43.8389 62.6976 43.7652 62.6976C43.62 62.6978 43.4747 62.6979 43.3295 62.698C41.9661 62.6991 40.6028 62.6988 39.2395 62.6983C37.9933 62.6978 36.7471 62.6988 35.5009 62.7007C34.221 62.7026 32.9411 62.7034 31.6612 62.703C30.9428 62.7029 30.2244 62.7031 29.5059 62.7045C28.8298 62.7058 28.1537 62.7055 27.4776 62.7042C27.2297 62.704 26.9817 62.7043 26.7338 62.7051C26.3948 62.7061 26.0559 62.7053 25.7169 62.7041C25.6192 62.7048 25.5216 62.7055 25.421 62.7063C24.3129 62.6978 23.4881 62.4069 22.6964 61.6261C21.844 60.6928 21.7693 59.7822 21.7686 58.5599C21.7674 58.4442 21.7662 58.3286 21.765 58.2095C21.7648 58.0984 21.7646 57.9873 21.7644 57.8728C21.764 57.7716 21.7636 57.6704 21.7632 57.5661C21.7875 57.2898 21.8291 57.1351 21.9822 56.9058C22.4631 56.5852 22.9761 56.6992 23.5447 56.7105C23.5447 56.0982 23.5447 55.4859 23.5447 54.855C23.2869 54.9517 23.0291 55.0484 22.7635 55.148C22.3928 55.0933 22.1735 55.0342 21.8907 54.7879C21.7412 54.4626 21.7435 54.2325 21.7869 53.8785C22.0429 53.494 22.2813 53.3041 22.6979 53.1121C22.8044 53.0619 22.911 53.0118 23.0207 52.9601C23.1955 52.8799 23.1955 52.8799 23.3738 52.7981C23.6282 52.6794 23.8822 52.5598 24.136 52.4399C24.2041 52.4079 24.2721 52.3759 24.3422 52.343C24.9142 52.0722 25.4785 51.7874 26.0418 51.4992C26.2184 51.4093 26.395 51.3193 26.5716 51.2294C26.8335 51.0959 27.0952 50.9619 27.3562 50.8266C27.6015 50.6995 27.8477 50.5742 28.0941 50.4491C28.1671 50.4107 28.24 50.3723 28.3152 50.3327C28.3843 50.298 28.4534 50.2633 28.5246 50.2275C28.5839 50.1969 28.6433 50.1663 28.7044 50.1348C29.2433 49.9693 29.7634 50.0903 30.2949 50.2281C30.3608 50.245 30.4266 50.2618 30.4944 50.2791C30.7104 50.3345 30.926 50.391 31.1417 50.4475C31.2934 50.4866 31.445 50.5255 31.5967 50.5644C31.9954 50.6667 32.3938 50.7699 32.7922 50.8733C33.4279 51.0384 34.0638 51.2025 34.6999 51.3659C34.9203 51.4226 35.1405 51.4801 35.3606 51.5375C37.469 52.0842 39.3522 52.0265 41.5036 51.8342C41.7271 51.8146 41.9506 51.7952 42.1741 51.7758C42.7585 51.7248 43.3428 51.6731 43.9271 51.6213C44.4037 51.5791 44.8804 51.5375 45.3571 51.4959C45.9281 51.4461 46.499 51.396 47.07 51.3459C47.2318 51.3317 47.2318 51.3317 47.3969 51.3172C47.7037 51.2902 48.0104 51.2631 48.3171 51.2359C48.4066 51.228 48.4962 51.2201 48.5884 51.212C48.8343 51.1901 49.0801 51.1671 49.326 51.1441C49.4065 51.1373 49.4871 51.1305 49.5701 51.1235C49.6473 51.1163 49.7245 51.1091 49.8041 51.1017C49.872 51.0958 49.94 51.0898 50.01 51.0836C50.2308 51.0415 50.3996 50.9595 50.5955 50.8511C50.5955 50.6255 50.5955 50.4 50.5955 50.1675C49.5122 50.0052 48.43 49.908 47.3375 49.8323C47.0673 49.8135 46.7972 49.7937 46.5271 49.7739C44.7585 49.5759 44.7585 49.5759 43.076 49.9722C42.2099 50.2167 41.3179 50.1975 40.4264 50.193C40.1854 50.192 39.9444 50.193 39.7034 50.1942C38.9251 50.1953 38.1485 50.1742 37.373 50.105C37.3052 50.1007 37.2374 50.0964 37.1676 50.092C36.7948 50.052 36.5856 49.9666 36.3436 49.6896C36.1153 49.3454 36.0651 49.2037 36.1424 48.8003C36.3182 48.5367 36.4435 48.3568 36.7283 48.2144C36.9958 48.2237 37.261 48.2388 37.5279 48.2571C38.4374 48.3109 39.3454 48.3235 40.2562 48.3243C40.3846 48.3247 40.513 48.3251 40.6453 48.3256C41.3315 48.3246 42.0045 48.3021 42.6854 48.2144C42.6335 47.9731 42.6335 47.9731 42.49 47.7261C42.2078 47.5742 42.2078 47.5742 41.858 47.4789C41.761 47.4491 41.761 47.4491 41.662 47.4186C40.8586 47.1772 40.0417 46.9871 39.2247 46.7984C39.0609 46.7599 38.8972 46.7215 38.7335 46.6829C37.7157 46.4447 36.696 46.2189 35.6669 46.0339C35.1542 45.9357 34.8049 45.8076 34.3846 45.48C34.3065 45.4226 34.2285 45.3652 34.1481 45.3061C34.073 45.2507 33.998 45.1953 33.9207 45.1382C33.116 44.5718 32.2996 44.2965 31.3206 44.2715C31.195 44.2667 31.0694 44.262 30.9399 44.257C29.7229 44.3268 28.5024 45.0638 27.4205 45.5838C27.2659 45.6574 27.1112 45.731 26.9566 45.8045C26.2508 46.1403 25.5468 46.4796 24.8444 46.8224C24.733 46.8766 24.6215 46.9308 24.5067 46.9866C24.3025 47.0862 24.0987 47.1864 23.8952 47.2875C23.0383 47.7059 23.0383 47.7059 22.5682 47.7261C22.18 47.5768 22.0195 47.489 21.7869 47.1402C21.7442 46.8106 21.7442 46.8106 21.7869 46.4566C22.1509 46.0129 22.5677 45.789 23.0748 45.5472C23.1808 45.4946 23.1808 45.4946 23.289 45.4409C23.8088 45.1871 23.8088 45.1871 24.033 45.1871C24.032 45.0865 24.0309 44.986 24.0298 44.8824C24.0217 43.7371 24.0586 42.5964 24.1111 41.4525C24.1246 41.1577 24.1375 40.863 24.1503 40.5682C24.32 36.7206 24.32 36.7206 25.5955 35.5191C26.5215 34.7507 27.6725 34.79 28.8128 34.7855C28.9713 34.7839 29.1297 34.7821 29.2881 34.7802C29.702 34.7756 30.1159 34.7727 30.5298 34.7701C30.9534 34.7672 31.3769 34.7626 31.8005 34.7582C32.6293 34.7499 33.4581 34.7433 34.2869 34.7378C34.2699 34.6807 34.2529 34.6236 34.2354 34.5648C34.1571 34.3008 34.0799 34.0366 34.0027 33.7723C33.976 33.6826 33.9492 33.5928 33.9216 33.5003C33.2394 31.1521 33.4016 28.7707 34.5677 26.6049C35.3392 25.2295 36.4168 24.0735 37.8025 23.3121C37.8827 23.2672 37.9629 23.2224 38.0455 23.1763C41.2239 21.4933 44.8218 22.0878 47.5743 24.252ZM37.9002 25.4605C37.7871 25.5494 37.7871 25.5494 37.6717 25.6402C36.4183 26.6879 35.4907 28.2611 35.3385 29.9043C35.1776 32.697 36.284 34.9787 37.5805 37.3822C38.0273 38.2114 38.4367 38.9986 38.6815 39.9136C38.9393 39.9136 39.1971 39.9136 39.4627 39.9136C39.5028 39.2749 39.5299 38.6365 39.5485 37.9967C39.5563 37.7799 39.5669 37.5632 39.5806 37.3467C39.689 35.9559 39.689 35.9559 39.1114 34.742C38.7845 34.4029 38.4323 34.1029 38.0532 33.8237C37.8531 33.6143 37.8292 33.4606 37.8025 33.1753C37.8702 32.8615 37.915 32.66 38.1627 32.449C38.5126 32.3639 38.7228 32.3928 39.0721 32.4917C39.3642 32.6873 39.6042 32.9283 39.8533 33.1753C39.9555 33.2739 40.0578 33.3725 40.16 33.471C40.2675 33.5757 40.3748 33.6806 40.482 33.7857C40.534 33.8364 40.586 33.8871 40.6396 33.9394C41.0432 34.3423 41.1338 34.5978 41.1429 35.1575C41.1458 35.3159 41.1458 35.3159 41.1488 35.4774C41.1504 35.5912 41.1521 35.7051 41.1538 35.8224C41.1558 35.939 41.1578 36.0556 41.1599 36.1758C41.1663 36.5489 41.1721 36.9221 41.1778 37.2952C41.182 37.5479 41.1863 37.8007 41.1906 38.0534C41.201 38.6735 41.2109 39.2935 41.2205 39.9136C41.7361 39.9136 42.2518 39.9136 42.783 39.9136C42.7844 39.7564 42.7859 39.5992 42.7873 39.4373C42.793 38.854 42.8005 38.2707 42.8086 37.6874C42.8119 37.435 42.8146 37.1825 42.8169 36.9301C42.8201 36.5672 42.8252 36.2043 42.8307 35.8414C42.8313 35.7286 42.8319 35.6158 42.8326 35.4995C42.8345 35.394 42.8365 35.2884 42.8385 35.1797C42.8395 35.0871 42.8406 34.9945 42.8417 34.8991C42.9137 34.4206 43.1977 34.1031 43.5303 33.7693C43.632 33.6672 43.632 33.6672 43.7357 33.5631C43.806 33.4936 43.8764 33.424 43.9488 33.3523C44.0537 33.2463 44.0537 33.2463 44.1607 33.1381C44.2286 33.0705 44.2965 33.0028 44.3665 32.9331C44.428 32.8718 44.4896 32.8104 44.553 32.7473C44.8724 32.4719 45.0479 32.3899 45.4747 32.4124C45.9337 32.5209 45.9337 32.5209 46.1033 32.7847C46.1947 33.0517 46.2131 33.2195 46.1507 33.495C46.0053 33.762 45.9029 33.8598 45.6694 34.0438C45.057 34.5319 44.5359 34.9765 44.4207 35.7845C44.3793 36.412 44.4124 37.0345 44.4493 37.6614C44.4566 37.8806 44.4633 38.0997 44.4693 38.3189C44.4853 38.851 44.5097 39.3822 44.5408 39.9136C44.7986 39.9136 45.0565 39.9136 45.3221 39.9136C45.3547 39.8057 45.3547 39.8057 45.388 39.6957C45.6171 38.9706 45.9067 38.317 46.2681 37.6492C46.3196 37.5521 46.371 37.4549 46.424 37.3549C46.6576 36.9144 46.8947 36.4761 47.136 36.0398C47.6453 35.1131 48.0464 34.1895 48.3494 33.1753C48.3827 33.0656 48.4159 32.9558 48.4501 32.8427C48.9585 30.8657 48.7026 28.8701 47.688 27.1127C47.3591 26.5984 46.9325 26.1741 46.494 25.7535C46.4035 25.6636 46.4035 25.6636 46.3112 25.5719C45.1092 24.4535 43.339 23.9378 41.7252 23.9712C40.293 24.0843 39.0243 24.5735 37.9002 25.4605ZM26.3829 37.283C26.1037 37.6806 26.068 37.9708 26.0443 38.4457C26.0381 38.5656 26.0319 38.6856 26.0256 38.8091C26.0193 38.9402 26.013 39.0712 26.0067 39.2022C26.0001 39.3366 25.9934 39.471 25.9868 39.6054C25.9729 39.887 25.9593 40.1687 25.9459 40.4503C25.9287 40.811 25.9107 41.1717 25.8923 41.5323C25.8784 41.8099 25.8649 42.0874 25.8516 42.365C25.8452 42.498 25.8386 42.6309 25.8318 42.7639C25.8223 42.9499 25.8137 43.136 25.8051 43.322C25.8 43.4278 25.7948 43.5336 25.7896 43.6427C25.7907 43.8868 25.8157 44.0767 25.8885 44.3082C25.9805 44.2653 26.0725 44.2225 26.1673 44.1783C26.5132 44.0175 26.8597 43.8578 27.2063 43.6984C27.3554 43.6297 27.5044 43.5606 27.6532 43.4913C29.5792 42.5943 31.3748 42.1077 33.4691 42.8555C34.191 43.1554 34.942 43.5549 35.5353 44.0682C35.8095 44.2484 36.0385 44.2807 36.3621 44.3265C36.52 44.3497 36.52 44.3497 36.681 44.3734C36.7611 44.3841 36.8412 44.3948 36.9236 44.4058C36.9457 43.8001 36.9615 43.1945 36.9719 42.5885C36.9763 42.3832 36.9822 42.178 36.9899 41.9729C37.0458 40.4443 36.8168 39.3782 36.0447 38.0582C35.9655 37.9157 35.8866 37.7731 35.8081 37.6302C35.5318 37.0787 35.5318 37.0787 35.1658 36.5933C34.9293 36.582 34.6956 36.5769 34.4589 36.576C34.3479 36.5751 34.3479 36.5751 34.2347 36.5741C33.9885 36.5721 33.7423 36.571 33.4961 36.57C33.3701 36.5694 33.3701 36.5694 33.2414 36.5688C32.796 36.5668 32.3506 36.5654 31.9052 36.5645C31.4461 36.5634 30.9869 36.5601 30.5278 36.5562C30.1741 36.5536 29.8205 36.5528 29.4669 36.5524C29.2977 36.552 29.1285 36.5508 28.9594 36.549C28.7216 36.5466 28.4841 36.5467 28.2463 36.5474C28.1772 36.5462 28.108 36.5449 28.0367 36.5436C27.3751 36.5504 26.8167 36.782 26.3829 37.283ZM48.8377 36.5933C48.6339 36.9512 48.4306 37.3093 48.2274 37.6675C48.1414 37.8184 48.1414 37.8184 48.0538 37.9723C47.2863 39.3007 47.2863 39.3007 47.0688 40.7907C47.0688 40.908 47.0688 40.908 47.0688 41.0276C47.0688 41.2854 47.0696 41.5433 47.0704 41.8011C47.0705 41.9801 47.0707 42.1591 47.0708 42.3381C47.0711 42.8088 47.0721 43.2795 47.0732 43.7502C47.0742 44.2307 47.0746 44.7112 47.0751 45.1916C47.0762 46.1341 47.0778 47.0766 47.0799 48.0191C47.2283 48.0301 47.2283 48.0301 47.3797 48.0413C47.7505 48.0691 48.1212 48.0984 48.4919 48.1282C48.6517 48.1408 48.8114 48.153 48.9712 48.1648C51.2359 48.3327 51.2359 48.3327 51.9627 49.0933C52.3355 49.6286 52.4762 50.2017 52.451 50.8511C52.3324 51.5026 52.0583 52.0363 51.5091 52.4316C50.3599 53.0921 48.6592 52.9999 47.3702 53.1132C47.1516 53.1327 46.9331 53.1521 46.7145 53.1715C46.2576 53.212 45.8007 53.2522 45.3437 53.2921C44.7642 53.3429 44.1848 53.3948 43.6055 53.4471C43.1542 53.4877 42.7028 53.5273 42.2514 53.5668C42.0381 53.5855 41.8248 53.6046 41.6115 53.624C40.5372 53.7214 39.4694 53.797 38.3902 53.7993C38.3038 53.7995 38.2174 53.7997 38.1283 53.7999C36.8956 53.7906 35.7469 53.4967 34.5677 53.1656C33.6418 52.9073 32.7107 52.6706 31.7777 52.4391C31.5958 52.3938 31.4139 52.3481 31.2322 52.3019C30.974 52.2364 30.7156 52.1725 30.457 52.1088C30.3792 52.0888 30.3015 52.0688 30.2214 52.0482C29.4206 51.8548 28.9054 52.0479 28.1907 52.4136C28.1137 52.4523 28.0367 52.4909 27.9574 52.5307C27.7956 52.6121 27.634 52.6939 27.4726 52.776C27.2246 52.9022 26.9761 53.0273 26.7275 53.1521C26.5703 53.2314 26.413 53.3108 26.2558 53.3902C26.1813 53.4278 26.1067 53.4655 26.0299 53.5042C25.6932 53.6593 25.6932 53.6593 25.4002 53.8785C25.2752 54.8186 25.3026 55.7637 25.3026 56.7105C36.324 56.7105 47.3455 56.7105 58.701 56.7105C58.701 55.7941 58.7002 54.8863 58.6587 53.9721C58.6556 53.9037 58.6526 53.8353 58.6494 53.7649C58.6462 53.6942 58.6431 53.6234 58.6398 53.5506C58.6332 53.3978 58.6266 53.2451 58.6201 53.0923C58.6024 52.6825 58.5843 52.2727 58.5662 51.8629C58.5471 51.4311 58.5284 50.9992 58.5096 50.5673C58.4781 49.8426 58.4463 49.1178 58.4143 48.3931C58.3775 47.559 58.341 46.7248 58.3048 45.8906C58.266 44.9969 58.2269 44.1033 58.1877 43.2096C58.1765 42.9545 58.1654 42.6994 58.1543 42.4442C58.1368 42.0413 58.119 41.6383 58.1012 41.2354C58.0947 41.0887 58.0883 40.9421 58.0819 40.7955C58.0621 40.3387 58.0405 39.882 58.0174 39.4253C58.0141 39.3584 58.0108 39.2914 58.0074 39.2224C57.9973 39.0224 57.9861 38.8224 57.9746 38.6225C57.9682 38.5061 57.9618 38.3898 57.9552 38.2699C57.8903 37.7037 57.6943 37.3402 57.2911 36.9473C56.7909 36.6301 56.3746 36.5653 55.7889 36.5711C55.7136 36.5711 55.6383 36.5711 55.5607 36.571C55.3129 36.5712 55.0651 36.5727 54.8172 36.5742C54.645 36.5746 54.4727 36.5749 54.3004 36.5751C53.8479 36.5758 53.3953 36.5777 52.9427 36.5799C52.4806 36.5819 52.0184 36.5828 51.5562 36.5838C50.6501 36.5859 49.7439 36.5892 48.8377 36.5933ZM38.6815 41.6714C38.6815 42.7027 38.6815 43.7339 38.6815 44.7964C38.9135 44.8542 39.1455 44.912 39.3845 44.9715C39.6137 45.0292 39.8429 45.0872 40.072 45.1451C40.2291 45.1847 40.3862 45.224 40.5433 45.263C43.6282 46.0292 43.6282 46.0292 44.1258 46.8289C44.2551 47.1586 44.3541 47.4812 44.4432 47.8238C44.7332 47.8238 45.0233 47.8238 45.3221 47.8238C45.3221 45.7935 45.3221 43.7632 45.3221 41.6714C43.1307 41.6714 40.9393 41.6714 38.6815 41.6714Z" fill="#F37121"/>
<path d="M56.7452 23.1162C56.9954 23.3054 56.9954 23.3054 57.1358 23.6044C57.2052 24.4306 56.9899 25.1898 56.7864 25.9833C56.7501 26.1275 56.7138 26.2718 56.6775 26.4161C56.6017 26.717 56.5251 27.0177 56.448 27.3183C56.3494 27.7026 56.253 28.0874 56.1571 28.4725C56.0828 28.7699 56.0073 29.0671 55.9314 29.3642C55.8953 29.506 55.8597 29.6478 55.8244 29.7898C55.775 29.9883 55.7239 30.1863 55.6724 30.3842C55.6438 30.4967 55.6152 30.6092 55.5857 30.7251C55.4654 31.0544 55.3269 31.2621 55.085 31.5146C54.76 31.6183 54.5668 31.6296 54.2367 31.5451C53.9717 31.3947 53.8574 31.2981 53.7179 31.0263C53.6925 30.5445 53.7494 30.1301 53.8656 29.6633C53.8813 29.5992 53.897 29.5351 53.9132 29.4691C53.9649 29.2593 54.0178 29.0499 54.0707 28.8405C54.1073 28.6938 54.1438 28.547 54.1803 28.4003C54.2567 28.0937 54.3337 27.7872 54.4111 27.4808C54.51 27.0889 54.6075 26.6966 54.7046 26.3043C54.7796 26.0015 54.8555 25.699 54.9316 25.3965C54.9678 25.2519 55.0038 25.1073 55.0396 24.9626C55.0897 24.7603 55.1409 24.5583 55.1924 24.3563C55.2212 24.2414 55.25 24.1266 55.2798 24.0083C55.3767 23.7061 55.4889 23.473 55.671 23.2138C56.0109 23.0439 56.3743 23.0602 56.7452 23.1162Z" fill="#F37121"/>
<path d="M27.918 23.0608C28.2226 23.1386 28.3254 23.2638 28.5253 23.5067C28.6171 23.7568 28.6887 23.9901 28.7523 24.2472C28.7821 24.361 28.7821 24.361 28.8125 24.4771C28.8809 24.7392 28.9472 25.0019 29.0136 25.2645C29.0661 25.4674 29.1187 25.6703 29.1714 25.8731C29.314 26.4246 29.454 26.9767 29.5928 27.5292C29.6507 27.7589 29.7089 27.9885 29.7675 28.218C29.8533 28.5541 29.9381 28.8905 30.0226 29.2269C30.0488 29.3289 30.075 29.4309 30.1021 29.5361C30.413 30.7873 30.413 30.7873 30.1305 31.307C29.8179 31.5796 29.6209 31.6122 29.2089 31.6122C28.7441 31.4326 28.6258 31.1747 28.4276 30.7333C28.3628 30.5263 28.3042 30.3173 28.2509 30.107C28.2197 29.9847 28.1884 29.8625 28.1562 29.7365C28.1232 29.6043 28.0902 29.472 28.0572 29.3398C28.0226 29.2026 27.988 29.0654 27.9534 28.9282C27.8811 28.6413 27.8094 28.3542 27.738 28.0671C27.6469 27.701 27.5542 27.3354 27.4611 26.9698C27.3893 26.6867 27.3184 26.4034 27.2478 26.12C27.214 25.9852 27.1799 25.8504 27.1455 25.7158C26.6981 23.9601 26.6981 23.9601 27.0055 23.3053C27.3226 23.0655 27.5296 23.0615 27.918 23.0608Z" fill="#F37121"/>
<path d="M61.7273 28.9759C62.0479 29.2226 62.1933 29.4251 62.2583 29.8243C62.1886 30.3521 61.8288 30.6646 61.4295 30.999C61.2061 31.1693 60.9796 31.3339 60.7507 31.4967C60.6692 31.5554 60.5877 31.614 60.5038 31.6745C60.3389 31.7932 60.1738 31.9115 60.0085 32.0296C59.7944 32.1839 59.5832 32.3413 59.3728 32.5007C59.3123 32.5459 59.2517 32.5911 59.1893 32.6377C59.0283 32.758 58.8679 32.879 58.7075 33C58.3672 33.1983 58.1149 33.2528 57.7234 33.2728C57.4062 33.1459 57.2752 33.0473 57.1008 32.754C57.019 32.4023 57.0092 32.2497 57.1374 31.9056C57.7523 31.1783 58.6556 30.6399 59.4213 30.086C59.6863 29.8941 59.9477 29.6999 60.2033 29.4955C60.7269 29.0839 61.052 28.8338 61.7273 28.9759Z" fill="#F37121"/>
<path d="M22.8384 28.9323C23.2734 29.0202 23.589 29.3091 23.9289 29.5805C24.0085 29.6417 24.0881 29.7029 24.17 29.7659C24.3355 29.8933 24.5004 30.0215 24.6648 30.1505C24.9051 30.3384 25.1475 30.523 25.3911 30.7066C25.9646 31.1397 25.9646 31.1397 26.2452 31.3548C26.3014 31.3977 26.3576 31.4407 26.4156 31.4849C26.6863 31.7069 26.8442 31.8398 26.9502 32.1806C26.9653 32.5673 26.8811 32.7567 26.6694 33.0779C26.4165 33.2856 26.2902 33.2739 25.9607 33.2526C25.5461 33.1652 25.3347 33.0322 24.9971 32.7788C24.9409 32.737 24.8848 32.6953 24.827 32.6523C24.6997 32.5571 24.573 32.4614 24.4466 32.3651C24.1981 32.1762 23.9476 31.99 23.697 31.8037C23.5118 31.665 23.3266 31.5262 23.1416 31.3872C23.0524 31.3206 22.9633 31.2541 22.8715 31.1856C22.0497 30.5619 22.0497 30.5619 21.7866 30.1482C21.7398 29.7658 21.7638 29.493 21.9819 29.1716C22.2878 28.9677 22.4735 28.9219 22.8384 28.9323Z" fill="#F37121"/>
<path d="M53.9134 60.9096C54.1508 61.0922 54.2689 61.23 54.4017 61.4955C54.4437 61.8737 54.4326 62.0351 54.2186 62.3561C53.9689 62.6131 53.8916 62.6624 53.535 62.6857C53.235 62.6677 53.0847 62.6387 52.8392 62.4721C52.5987 62.1114 52.5665 61.8163 52.6439 61.3979C53.0012 60.8618 53.3124 60.8237 53.9134 60.9096Z" fill="#F37121"/>
<path d="M53.2328 39.0345C53.4964 39.2103 53.6763 39.3357 53.8187 39.6205C53.8436 40.0022 53.8414 40.2757 53.6234 40.597C53.2627 40.8375 52.9676 40.8697 52.5492 40.7923C52.2568 40.5974 52.0962 40.462 52.0178 40.1114C51.9976 39.7631 52.0307 39.562 52.244 39.2848C52.5899 39.0304 52.802 38.9923 53.2328 39.0345Z" fill="#F37121"/>
<path d="M50.1064 39.132C50.3839 39.3827 50.47 39.6412 50.4971 40.011C50.4232 40.2931 50.3375 40.4594 50.1431 40.6762C49.8039 40.8458 49.5016 40.8594 49.1299 40.7922C48.8073 40.5854 48.7505 40.4394 48.6416 40.072C48.6416 39.6345 48.7506 39.4606 49.0322 39.132C49.4139 39.0048 49.7195 39.0278 50.1064 39.132Z" fill="#F37121"/>
<path d="M29.6965 39.0345C29.9601 39.2102 30.14 39.3356 30.2824 39.6204C30.3228 40.0743 30.2619 40.3279 29.9895 40.6946C29.6739 40.8524 29.3541 40.8484 29.0129 40.7923C28.7209 40.5976 28.5658 40.46 28.4746 40.1148C28.456 39.8957 28.4644 39.7345 28.5246 39.5227C28.8797 39.117 29.1549 38.9308 29.6965 39.0345Z" fill="#F37121"/>
<path d="M56.5517 39.0348C57.0041 39.256 57.0041 39.256 57.1377 39.5231C57.2046 40.2039 57.2046 40.2039 56.9423 40.5973C56.6192 40.8127 56.4396 40.8724 56.0577 40.8456C55.7855 40.7695 55.6169 40.617 55.4565 40.3875C55.3144 40.0522 55.3484 39.7606 55.4775 39.4254C55.8054 39.0507 56.0614 38.9633 56.5517 39.0348Z" fill="#F37121"/>
<path d="M33.0166 39.0348C33.4689 39.256 33.4689 39.256 33.6025 39.5231C33.6695 40.2039 33.6695 40.2039 33.4072 40.5973C33.084 40.8127 32.9044 40.8724 32.5226 40.8456C32.2504 40.7695 32.0818 40.617 31.9214 40.3875C31.7792 40.0522 31.8133 39.7606 31.9423 39.4254C32.2702 39.0507 32.5263 38.9633 33.0166 39.0348Z" fill="#F37121"/>
<path d="M53.3295 42.4521C53.5675 42.5436 53.5675 42.5436 53.7201 42.745C53.8488 43.1817 53.8771 43.5053 53.6713 43.9169C53.3527 44.1718 53.1497 44.2099 52.7435 44.2099C52.3945 44.0548 52.2737 43.9446 52.0599 43.6239C52.0052 43.2017 52.0132 43.009 52.2553 42.6535C52.6589 42.376 52.846 42.3907 53.3295 42.4521Z" fill="#F37121"/>
<path d="M49.5554 42.4163C49.8722 42.4239 49.9822 42.4361 50.2512 42.6177C50.4208 42.8792 50.488 43.0188 50.4953 43.3318C50.303 43.9292 50.3029 43.9292 50.0315 44.1619C49.7011 44.2353 49.4551 44.1948 49.1281 44.113C48.8388 43.9074 48.7539 43.7738 48.646 43.4355C48.6386 43.0769 48.7201 42.9319 48.9328 42.6482C49.1665 42.4145 49.235 42.4216 49.5554 42.4163Z" fill="#F37121"/>
</svg>
