<svg width="51" height="51" viewBox="0 0 51 51" fill="none" xmlns="http://www.w3.org/2000/svg">
<path d="M28.4469 0C28.6272 0.936375 28.8005 1.87275 28.9996 2.80913C29.023 2.91447 29.1916 3.01279 29.3157 3.06663C30.1447 3.42245 30.9736 3.76891 31.8166 4.09664C31.9091 4.12488 32.0063 4.13425 32.1024 4.12419C32.1986 4.11414 32.2917 4.08487 32.3763 4.03812C33.121 3.58632 33.8445 3.10174 34.6056 2.60312C34.7274 2.71549 34.8398 2.81615 34.9592 2.92851C36.1698 4.13644 37.3735 5.35607 38.5982 6.55228C38.8605 6.80745 38.9377 7.00409 38.7621 7.3482C38.5045 7.85619 38.3102 8.39694 38.1064 8.88386C38.837 9.03368 39.5747 9.08518 40.228 9.35205C42.5439 10.2627 43.8038 12.0371 44.0169 14.4881C44.1363 15.8926 44.1644 17.3206 43.5368 18.6573C43.1619 19.4685 42.6136 20.1877 41.9304 20.7641C41.797 20.912 41.6843 21.0774 41.5956 21.2557C41.7583 21.3664 41.9326 21.459 42.1154 21.5319C43.3643 21.8956 44.6132 22.2459 45.8621 22.583C46.0009 22.6082 46.1442 22.5868 46.2696 22.5222C46.7103 22.3249 47.1341 22.0915 47.5364 21.8246C48.445 21.1831 49.4519 21.1223 50.5806 21.2534V21.7473C50.5806 25.3687 50.5806 28.9878 50.5806 32.6093C50.6006 32.7665 50.5669 32.9258 50.4848 33.0613C50.4028 33.1969 50.2773 33.3008 50.1287 33.356C45.5343 35.6338 40.9492 37.9326 36.3572 40.215C36.2063 40.2657 36.0754 40.3631 35.9836 40.4932C35.8918 40.6233 35.8439 40.7792 35.8467 40.9383C35.8147 41.4765 35.6007 41.9877 35.24 42.3884C34.8792 42.7891 34.3929 43.0553 33.8609 43.1435C33.5448 43.195 33.4254 43.298 33.3785 43.6117C33.2911 44.1179 33.0471 44.584 32.6808 44.9443C32.3145 45.3046 31.8443 45.541 31.3366 45.6202C31.254 45.6425 31.1778 45.6838 31.114 45.7406C31.0502 45.7975 31.0005 45.8685 30.9689 45.9479C30.6481 47.2682 29.9643 47.9073 28.5827 48.1039C28.5593 48.2186 28.5312 48.338 28.5055 48.4668C28.1308 50.3395 25.9835 51.208 24.4801 50.0422C23.8736 49.574 23.4263 49.3657 22.6067 49.6232C21.2603 50.0492 19.9185 49.0637 19.6515 47.6638C19.6023 47.4087 19.5297 47.2706 19.2441 47.2144C18.0873 46.9803 17.4082 46.278 17.1693 45.1075C17.1501 45.0383 17.1151 44.9744 17.0672 44.9208C17.0193 44.8672 16.9597 44.8254 16.893 44.7985C15.5044 44.424 14.926 43.813 14.6754 42.3967C14.4384 42.3522 14.2039 42.2951 13.9729 42.2258C13.5371 42.0915 13.1479 41.8371 12.8501 41.4918C12.5523 41.1465 12.3579 40.7242 12.2892 40.2735C12.2726 40.1467 12.2251 40.0259 12.1507 39.9218C12.0764 39.8177 11.9776 39.7335 11.863 39.6766C11.1793 39.288 10.5095 38.876 9.8281 38.4686C9.71102 38.691 9.62437 39.0422 9.50261 39.0562C8.9687 39.1147 8.38093 39.2037 7.88918 39.0562C5.25243 38.2299 2.62973 37.3216 0 36.4344V19.5515C1.95298 19.2612 3.66476 19.8629 5.17515 21.045C6.21955 21.862 7.29673 22.0259 8.49568 21.4992C8.66194 21.4266 8.81415 21.3236 8.96401 21.237C8.88079 21.0563 8.77108 20.889 8.63852 20.7407C7.75709 20.0134 7.10622 19.0455 6.76516 17.955C6.40922 16.829 6.47011 15.6726 6.53099 14.5279C6.64105 12.1659 7.7838 10.4336 9.94987 9.47612C10.7109 9.13902 11.5773 9.04304 12.4344 8.82768C12.2283 8.33374 11.9661 7.76723 11.76 7.18902C11.732 7.11227 11.7221 7.03011 11.731 6.94891C11.74 6.86771 11.7675 6.78966 11.8115 6.72083C13.1744 5.33734 14.549 3.97959 15.9376 2.57503C16.708 3.07599 17.4433 3.56759 18.1973 4.03109C18.2739 4.0783 18.3591 4.10967 18.448 4.12335C18.5369 4.13702 18.6276 4.13271 18.7148 4.11069C19.5883 3.77593 20.4477 3.40841 21.3071 3.04322C21.4148 2.9964 21.553 2.89574 21.5741 2.79742C21.7778 1.87275 21.944 0.936375 22.1244 0H28.4469ZM48.9415 22.9552C48.6932 23.0793 48.52 23.1636 48.3514 23.2525C43.6961 25.7012 39.0384 28.1404 34.3948 30.6078C33.8884 30.9135 33.2933 31.0389 32.7065 30.9636C32.3818 30.9163 32.0604 30.8491 31.744 30.7623C30.339 30.3674 28.934 29.9648 27.529 29.5543C26.5948 29.2496 25.5787 29.3201 24.6955 29.751C23.2218 30.4767 21.7528 31.2125 20.2885 31.9585C20.1347 32.0283 19.9971 32.1292 19.8844 32.255C19.7718 32.3808 19.6866 32.5287 19.6342 32.6892C19.5817 32.8496 19.5633 33.0193 19.58 33.1873C19.5967 33.3553 19.6482 33.518 19.7311 33.665C20.0566 34.2503 20.724 34.3907 21.3937 33.9998C22.2719 33.4824 23.143 32.9534 24.0188 32.429C25.6275 31.4716 27.0021 31.598 28.3907 32.8434C30.5467 34.777 32.6987 36.7153 34.8468 38.6582C34.9419 38.7741 35.0772 38.8498 35.2256 38.8702C35.3741 38.8906 35.5248 38.8542 35.6476 38.7683C39.9189 36.6193 44.1964 34.4812 48.4801 32.3541C48.6305 32.302 48.7586 32.2005 48.8437 32.0661C48.9288 31.9317 48.9657 31.7725 48.9485 31.6144C48.9274 28.9153 48.9368 26.2185 48.9368 23.5194L48.9415 22.9552ZM23.6628 43.2114C24.3905 43.3045 25.0609 43.655 25.5526 44.1992C26.2619 44.9229 27.015 45.6022 27.8076 46.2335C27.9052 46.3251 28.0212 46.3947 28.1479 46.4377C28.2746 46.4807 28.409 46.496 28.5421 46.4827C28.6752 46.4694 28.804 46.4277 28.9196 46.3605C29.0353 46.2933 29.1352 46.2021 29.2127 46.0931C29.4913 45.6881 29.3742 45.2386 28.8684 44.8126C27.9739 44.0611 27.0724 43.3167 26.1755 42.5676C25.7071 42.1837 25.2552 41.7951 24.7705 41.3971L25.8195 40.1564C27.2011 41.3082 28.5406 42.4248 29.8824 43.5391C30.0528 43.6934 30.2397 43.8284 30.4397 43.9417C30.6471 44.0468 30.8853 44.0739 31.111 44.018C31.3367 43.9622 31.5347 43.8271 31.6691 43.6374C31.9033 43.2652 31.8283 42.8485 31.449 42.4857C31.3787 42.4178 31.2968 42.3616 31.2148 42.2984L27.2105 38.9555L28.2526 37.7102C28.4867 37.9115 28.7209 38.0871 28.9246 38.265C30.1259 39.2645 31.3249 40.2688 32.5285 41.2637C33.0437 41.6898 33.683 41.6874 34.0319 41.2801C34.3808 40.8728 34.2988 40.3601 33.7509 39.8755L27.2925 34.0653C26.494 33.3467 25.7985 33.2788 24.8712 33.8312C23.9438 34.3837 23.0353 34.9268 22.1197 35.4699C21.7361 35.7046 21.3007 35.8414 20.8518 35.8682C20.4029 35.895 19.9543 35.8111 19.5455 35.6237C19.1367 35.4364 18.7803 35.1514 18.5076 34.7939C18.2349 34.4364 18.0544 34.0174 17.9819 33.5737C17.8109 32.2792 18.2699 31.2047 19.3284 30.6312C20.4992 29.9991 21.7028 29.4279 22.8901 28.8286C23.061 28.7444 23.2296 28.6531 23.4779 28.5243C21.93 27.9297 20.4336 27.5388 18.8788 27.8033C16.8227 28.1521 14.7925 28.6437 12.7552 29.0955C12.6686 29.1212 12.5888 29.1658 12.5215 29.2261C12.4543 29.2865 12.4013 29.361 12.3665 29.4443C11.6749 31.8087 11.0005 34.1777 10.3433 36.5514C10.3314 36.6288 10.3391 36.7079 10.3657 36.7815C10.3923 36.8551 10.4369 36.9208 10.4955 36.9728C11.2261 37.441 11.9778 37.8764 12.7014 38.3118C13.3055 37.7219 13.8582 37.1413 14.4576 36.6006C16.0195 35.2124 18.2395 35.9521 18.7078 37.9864C18.737 38.0762 18.7863 38.1581 18.8521 38.2259C18.9178 38.2937 18.9983 38.3455 19.0872 38.3773C20.2346 38.6442 20.9254 39.3278 21.1572 40.4842C21.1761 40.5545 21.2111 40.6195 21.2594 40.674C21.3078 40.7284 21.3682 40.7708 21.4359 40.7979C22.7472 41.0577 23.4615 41.863 23.6628 43.2114ZM17.1717 26.3566C17.2132 26.3744 17.2576 26.3848 17.3028 26.3871C17.4176 26.3758 17.5317 26.3586 17.6447 26.3355C19.1941 26.0111 20.798 26.0536 22.3281 26.4596C24.2225 26.9863 26.1216 27.4967 28.0161 28.021C29.4726 28.426 30.9244 28.8474 32.381 29.2547C32.5874 29.303 32.7972 29.3359 33.0086 29.353C33.32 29.3881 33.4535 29.2547 33.4465 28.9293C33.4324 28.0398 33.4652 27.1502 33.4347 26.263C33.3879 24.9474 32.7088 24.1257 31.4303 23.7956C30.0627 23.4422 28.6928 23.0933 27.3182 22.7703C27.2542 22.7666 27.1918 22.7492 27.1352 22.7192C27.0786 22.6891 27.0291 22.6472 26.9902 22.5963C26.9513 22.5454 26.9238 22.4867 26.9097 22.4242C26.8956 22.3617 26.8952 22.2969 26.9084 22.2342C26.9272 21.6935 26.9319 21.148 26.9084 20.5956C26.8842 20.4366 26.9125 20.274 26.9889 20.1325C27.0654 19.991 27.186 19.8782 27.3323 19.8114C27.8631 19.5228 28.3177 19.1123 28.6589 18.6138C29 18.1152 29.2179 17.5428 29.2946 16.9437C29.4023 16.1934 29.4094 15.4322 29.3157 14.68C29.2482 13.9649 29.0414 13.2698 28.7069 12.634C27.8217 11.1265 26.4378 10.4008 24.6768 10.6677C23.0376 10.9158 21.8832 11.8615 21.4429 13.4768C21.2228 14.2821 21.2556 15.1623 21.2228 16.012C21.1572 17.7232 21.8738 19.0201 23.3444 19.9144C23.4271 19.9801 23.4957 20.0619 23.546 20.1549C23.5963 20.2478 23.6273 20.3499 23.6371 20.4551C23.6769 20.9631 23.6137 21.4781 23.6605 21.9837C23.7073 22.4894 23.5504 22.7235 23.0119 22.8358C21.6794 23.1168 20.3611 23.4679 19.031 23.8144C17.7969 24.1351 17.0757 25.13 17.1717 26.3473V26.3566ZM35.0739 28.4003L44.0356 23.6809C42.7102 23.3462 41.537 23.0395 40.3568 22.7656C40.297 22.7624 40.2386 22.7464 40.1856 22.7186C40.1326 22.6909 40.0861 22.652 40.0495 22.6047C40.0128 22.5574 39.9868 22.5027 39.9731 22.4445C39.9595 22.3862 39.9586 22.3257 39.9704 22.267C39.9892 21.6747 39.9915 21.0825 39.9704 20.4902C39.9556 20.3624 39.9819 20.2331 40.0454 20.1211C40.109 20.0092 40.2066 19.9204 40.324 19.8675C41.3708 19.2612 42.099 18.3787 42.3004 17.1755C42.5432 15.9442 42.4976 14.6734 42.1669 13.4627C41.6822 11.8498 40.0243 10.6091 38.4038 10.6044C36.5796 10.6044 34.9358 11.7421 34.4932 13.4791C34.2848 14.2914 34.3082 15.1693 34.2778 16.0167C34.2169 17.7303 34.9428 19.0225 36.4134 19.912C36.4965 19.9764 36.5654 20.0573 36.6157 20.1495C36.6661 20.2418 36.6969 20.3434 36.7061 20.4481C36.7436 21.0544 36.7061 21.663 36.7248 22.2717C36.7248 22.5479 36.6522 22.679 36.3642 22.7399C35.5704 22.9178 34.7836 23.1355 33.8984 23.3602C35.3456 24.7976 35.0388 26.5837 35.0739 28.3909V28.4003ZM16.5933 23.3368C15.8416 23.1495 15.1016 22.9482 14.3546 22.7843C14.001 22.7071 13.816 22.576 13.8511 22.1687C13.8839 21.6105 13.8839 21.0508 13.8511 20.4926C13.8349 20.3645 13.8602 20.2346 13.9235 20.122C13.9867 20.0095 14.0845 19.9203 14.2024 19.8675C15.1929 19.3104 15.9235 18.4934 16.1577 17.3768C16.4757 16.0588 16.4344 14.6798 16.0383 13.3831C15.5091 11.7726 13.8722 10.574 12.2775 10.6068C10.4206 10.6325 8.83756 11.7445 8.38327 13.5049C8.17486 14.3172 8.20765 15.195 8.17955 16.0448C8.12569 17.7349 8.84693 19.0154 10.2871 19.9003C10.3668 19.9564 10.434 20.0284 10.4844 20.1118C10.5348 20.1952 10.5673 20.2882 10.5798 20.3849C10.6149 21.0263 10.5798 21.6677 10.5985 22.3091C10.5985 22.5666 10.5259 22.686 10.259 22.7399C9.79063 22.8335 9.32229 22.974 8.76731 23.1261C10.1466 23.9291 11.4158 24.6805 12.699 25.4109C12.8178 25.4609 12.9165 25.549 12.9797 25.6613C13.0429 25.7737 13.0669 25.9038 13.0479 26.0312C13.0175 26.4526 13.0479 26.8786 13.0479 27.3422C13.7504 27.183 14.453 27.0074 15.1555 26.874C15.4599 26.8178 15.488 26.6726 15.5184 26.4058C15.5659 25.8032 15.675 25.2071 15.8439 24.6267C15.9891 24.1866 16.3193 23.7956 16.5933 23.3368ZM19.5789 15.4689C19.5789 15.1248 19.5555 14.7783 19.5789 14.4342C19.7592 12.0535 20.9301 10.3189 23.1313 9.41057C25.2622 8.53038 27.248 8.94238 29.0183 10.4265C31.36 12.4023 31.36 16.307 30.5404 18.484C30.1783 19.4092 29.5652 20.215 28.7701 20.8109C28.5359 20.9935 28.3392 21.2791 28.7162 21.4009C29.7185 21.7122 30.7488 21.9322 31.7604 22.1757C31.875 22.1807 31.9892 22.1607 32.0953 22.1172C32.957 21.9042 33.8188 21.6935 34.6712 21.4664C34.807 21.4289 35.0248 21.3096 35.0248 21.2323C34.9987 21.0664 34.9218 20.9126 34.8046 20.7922C34.3761 20.2983 33.8328 19.8769 33.5097 19.3244C32.2475 17.1614 32.3716 14.8767 33.0249 12.5544C33.1071 12.3543 33.1186 12.1323 33.0577 11.9247C31.2968 8.95643 28.6624 7.35289 25.2271 7.36459C21.8785 7.37864 19.2909 8.9377 17.5206 11.8124C17.4438 11.9357 17.4 12.0767 17.3935 12.2218C17.3869 12.3669 17.4178 12.5113 17.4831 12.6411C18.1645 14.687 18.2137 16.7354 17.3754 18.7533C17.0159 19.5704 16.4512 20.2808 15.7362 20.8156C15.4154 21.0684 15.4037 21.3517 15.7104 21.4336C16.694 21.6958 17.6845 21.9369 18.6727 22.1757C18.7865 22.1896 18.9019 22.1768 19.0099 22.1382C19.9021 21.9182 20.7943 21.6982 21.6841 21.4641C21.8082 21.4313 22.0002 21.3283 22.0026 21.251C21.996 21.0942 21.9308 20.9455 21.8199 20.8343C21.5061 20.4996 21.1338 20.214 20.8458 19.8629C19.7944 18.5847 19.4853 17.0888 19.5789 15.4689ZM16.3169 10.6466C18.4549 7.52377 21.4078 5.75402 25.2435 5.73062C29.0792 5.70721 32.0812 7.491 34.245 10.6232C36.1019 9.43866 36.1019 9.43866 36.8396 7.65955C36.8653 7.59868 36.9145 7.54016 36.9122 7.4793C36.9122 7.35991 36.9122 7.20072 36.8513 7.12816C36.0481 6.30883 35.2308 5.50354 34.3948 4.67251C33.7111 5.11729 33.0601 5.56207 32.3833 5.96471C32.2972 6.00637 32.2027 6.02801 32.107 6.02801C32.0113 6.02801 31.9168 6.00637 31.8307 5.96471C30.6285 5.24943 29.3307 4.70872 27.9762 4.35883C27.8807 4.32005 27.7949 4.26072 27.7249 4.18507C27.6549 4.10942 27.6024 4.01928 27.5711 3.92107C27.4025 3.28902 27.2784 2.64058 27.159 1.99448C27.1075 1.71357 26.981 1.61993 26.6907 1.62227C25.7587 1.63866 24.822 1.63866 23.8853 1.63866C23.5645 1.63866 23.4615 1.76507 23.417 2.053C23.3022 2.68271 23.1406 3.3054 23.0306 3.92575C23.0205 4.04655 22.9679 4.15985 22.8822 4.24556C22.7964 4.33128 22.6831 4.38385 22.5622 4.39394C21.2135 4.69941 19.9278 5.23557 18.7617 5.97876C18.6715 6.04684 18.5604 6.08129 18.4475 6.07616C18.3346 6.07104 18.2271 6.02664 18.1435 5.95066C17.5885 5.56909 17.0265 5.19688 16.4457 4.8551C16.3681 4.82163 16.2835 4.80734 16.1991 4.81345C16.1147 4.81957 16.033 4.8459 15.961 4.89022C15.221 5.58938 14.499 6.30883 13.7949 7.04856C13.7423 7.11996 13.7062 7.20213 13.6892 7.28917C13.6722 7.3762 13.6747 7.46592 13.6966 7.55186C13.9027 8.12305 14.1509 8.67786 14.3991 9.23266C14.4501 9.34839 14.5309 9.44854 14.6333 9.52293C15.1765 9.89983 15.7268 10.2556 16.3169 10.6466ZM5.13066 36.4578C6.12119 32.5016 7.10237 28.5758 8.08588 24.6477C8.03005 24.5998 7.9714 24.5552 7.91025 24.5143C6.08841 23.4539 4.28296 22.3887 2.45644 21.347C2.241 21.2229 1.94829 21.2346 1.63685 21.1714V29.662C1.63685 31.3881 1.63685 33.1141 1.63685 34.8402C1.63685 35.0579 1.58065 35.285 1.90614 35.3856C2.96693 35.7204 4.02069 36.0856 5.13066 36.4578ZM8.35283 37.5276C8.72282 36.2307 9.07173 34.9994 9.42533 33.7704C10.0623 31.5441 10.7062 29.3226 11.3291 27.0917C11.3806 26.9067 11.3689 26.572 11.2565 26.4924C10.7367 26.1319 10.17 25.8369 9.55881 25.4811C8.59403 29.3437 7.6433 33.1407 6.6832 36.9704L8.35283 37.5276ZM21.9956 48.1554C22.2672 48.0712 22.4452 48.0688 22.5388 47.9799C23.1696 47.407 23.7699 46.8014 24.3373 46.1656C24.6112 45.8402 24.4871 45.4001 24.1593 45.1028C23.8314 44.8055 23.4146 44.726 23.0798 45.0209C22.4731 45.547 21.9064 46.1174 21.3844 46.7275C21.3131 46.8592 21.2728 47.0056 21.2667 47.1553C21.2607 47.305 21.2889 47.4541 21.3492 47.5913C21.4687 47.8417 21.8012 47.9892 21.9956 48.1554ZM16.2982 37.455C16.0922 37.5026 15.8948 37.5816 15.7128 37.6891C15.1414 38.2299 14.5677 38.773 14.0455 39.3605C13.9179 39.5254 13.857 39.7322 13.8747 39.9399C13.8925 40.1476 13.9877 40.341 14.1415 40.4818C14.2764 40.6418 14.4685 40.7427 14.6769 40.7628C14.8852 40.7829 15.0931 40.7207 15.2562 40.5895C15.866 40.0669 16.4323 39.4953 16.9492 38.8806C17.1038 38.691 17.0757 38.2322 16.9609 37.977C16.8462 37.7219 16.516 37.6118 16.2982 37.455ZM22.1337 43.2652C21.8995 42.9913 21.7286 42.6144 21.4663 42.5302C21.2995 42.4895 21.126 42.4836 20.9567 42.513C20.7875 42.5424 20.6262 42.6064 20.4828 42.701C19.9882 43.1092 19.5277 43.557 19.1059 44.0401C18.6727 44.4942 18.661 45.0233 19.045 45.3978C19.4291 45.7724 19.9653 45.7349 20.4079 45.3112C20.8505 44.8875 21.2603 44.4895 21.6584 44.0518C21.8404 43.8021 21.9995 43.5365 22.1337 43.2582V43.2652ZM19.6843 40.8166C19.4501 40.545 19.2886 40.2337 19.0286 40.0675C18.8705 39.9733 18.6845 39.937 18.5025 39.9647C18.3206 39.9925 18.1539 40.0826 18.0311 40.2197C17.5627 40.6715 17.0944 41.1326 16.626 41.6125C16.2186 42.0479 16.2162 42.5676 16.5816 42.9328C16.9469 43.298 17.4901 43.2956 17.9397 42.8673C18.3893 42.4389 18.8155 42.0222 19.2253 41.5727C19.4015 41.3355 19.5552 41.0824 19.6843 40.8166ZM25.9296 46.8468L24.7845 48.1905C25.2201 48.6096 25.6322 49.1058 26.3043 48.8483C26.4386 48.7858 26.5579 48.6951 26.6541 48.5824C26.7502 48.4697 26.821 48.3377 26.8616 48.1952C27.0021 47.4602 26.3066 47.2542 25.9296 46.8468Z" fill="#E45412"/>
</svg>
