<svg width="84" height="84" viewBox="0 0 84 84" fill="none" xmlns="http://www.w3.org/2000/svg">
<circle opacity="0.1" cx="42" cy="42" r="42" fill="#F37121"/>
<path d="M36.9896 24.6048C37.1713 24.6037 37.1713 24.6037 37.3567 24.6025C39.1456 24.6063 39.1456 24.6063 39.5591 25.0199C39.6324 25.3311 39.6324 25.3311 39.5591 25.7035C39.259 25.9743 38.9305 26.1826 38.5826 26.3871C38.664 26.373 38.7455 26.3589 38.8294 26.3443C40.4704 26.0736 42.0217 26.217 43.563 26.8753C43.8058 27.0666 43.8474 27.1221 43.9048 27.4308C43.8558 27.7554 43.7963 27.8695 43.618 28.1327C43.3632 28.5207 43.2287 28.8476 43.2701 29.3167C43.3422 29.6124 43.4232 29.9041 43.5087 30.1961C43.742 31.019 43.8386 31.8825 43.679 32.7286C43.6396 32.9895 43.6385 33.0876 43.774 33.3176C43.8786 33.4471 43.9851 33.5752 44.0933 33.7017C44.5011 34.2465 44.6294 34.9975 44.5396 35.6644C44.3902 36.4921 44.0238 37.1472 43.3654 37.6797C42.9859 37.9335 42.6589 38.0711 42.1959 38.1058C42.1897 38.1604 42.1835 38.2151 42.1772 38.2714C41.955 39.726 41.102 40.9351 40.0219 41.8942C39.9349 41.9716 39.848 42.0491 39.7584 42.1289C39.6926 42.187 39.6269 42.2451 39.5591 42.305C39.6171 42.3201 39.6751 42.3351 39.7349 42.3506C40.3419 42.5081 40.9487 42.6668 41.5553 42.826C41.7813 42.8851 42.0074 42.9441 42.2335 43.0027C42.5598 43.0873 42.8858 43.1729 43.2117 43.2587C43.3118 43.2845 43.412 43.3102 43.5151 43.3367C45.2604 43.7995 46.6472 44.6535 47.5706 46.2314C48.159 47.3169 48.3761 48.636 48.64 49.8337C48.6743 49.9869 48.7086 50.1402 48.743 50.2934C48.8321 50.6907 48.9203 51.0883 49.0084 51.4858C49.0989 51.8939 49.1902 52.3017 49.2815 52.7096C49.4594 53.5056 49.6365 54.3017 49.813 55.098C49.8801 55.1016 49.9472 55.1053 50.0164 55.1091C50.1484 55.1187 50.1484 55.1187 50.283 55.1285C50.3703 55.1342 50.4575 55.1398 50.5474 55.1457C50.8238 55.2027 50.9178 55.2626 51.0826 55.4886C51.1206 55.7931 51.1318 55.9877 50.9788 56.2577C50.6954 56.4222 50.4276 56.3742 50.106 56.3675C50.1326 56.4751 50.1326 56.4751 50.1598 56.5848C51.0536 60.245 51.0536 60.245 50.3013 61.5433C50.2045 61.6741 50.107 61.8044 50.0084 61.9339C50.1133 61.9354 50.2183 61.9368 50.3264 61.9382C50.7158 61.9439 51.105 61.9514 51.4943 61.9596C51.6628 61.9628 51.8313 61.9655 51.9998 61.9678C52.242 61.971 52.4842 61.9761 52.7263 61.9816C52.8017 61.9822 52.8771 61.9829 52.9548 61.9835C53.4796 61.9979 53.4796 61.9979 53.6902 62.1576C53.9105 62.4478 53.8606 62.8043 53.8593 63.1546C53.8598 63.2359 53.8603 63.3172 53.8608 63.4009C53.8615 63.5726 53.8613 63.7443 53.8605 63.916C53.8597 64.1791 53.8625 64.4419 53.8656 64.7049C53.8657 64.8718 53.8657 65.0386 53.8654 65.2054C53.8665 65.2842 53.8676 65.3629 53.8687 65.444C53.8619 65.9888 53.8619 65.9888 53.656 66.2028C53.3625 66.3634 53.1613 66.3652 52.827 66.3653C52.6414 66.3665 52.6414 66.3665 52.452 66.3676C52.3144 66.367 52.1768 66.3663 52.0392 66.3657C51.8933 66.366 51.7473 66.3665 51.6014 66.3671C51.1998 66.3683 50.7982 66.3677 50.3966 66.3668C49.9637 66.3661 49.5308 66.3671 49.0979 66.3679C48.2496 66.3692 47.4014 66.3689 46.5531 66.3681C45.864 66.3674 45.1748 66.3673 44.4856 66.3677C44.3387 66.3677 44.3387 66.3677 44.1887 66.3678C43.9897 66.3679 43.7907 66.368 43.5917 66.3681C41.7243 66.3689 39.857 66.368 37.9897 66.3664C36.3862 66.3651 34.7827 66.3653 33.1792 66.3667C31.3185 66.3682 29.4579 66.3688 27.5972 66.3679C27.3989 66.3678 27.2006 66.3678 27.0024 66.3677C26.856 66.3676 26.856 66.3676 26.7067 66.3675C26.0181 66.3673 25.3294 66.3677 24.6408 66.3684C23.802 66.3692 22.9632 66.369 22.1245 66.3674C21.6962 66.3667 21.268 66.3664 20.8398 66.3673C20.4482 66.3682 20.0566 66.3677 19.665 66.3662C19.5229 66.3658 19.3809 66.366 19.2388 66.3667C19.0465 66.3676 18.8541 66.3665 18.6618 66.3653C18.5547 66.3653 18.4477 66.3652 18.3374 66.3652C18.0748 66.3285 18.0748 66.3285 17.8977 66.1919C17.6373 65.8406 17.6667 65.5083 17.6643 65.0872C17.6637 65.0125 17.6632 64.9378 17.6626 64.8609C17.6617 64.7028 17.6611 64.5447 17.6607 64.3866C17.6597 64.145 17.6567 63.9035 17.6536 63.662C17.653 63.5084 17.6525 63.3548 17.6521 63.2012C17.6509 63.129 17.6497 63.0569 17.6484 62.9826C17.6497 62.6912 17.6717 62.4525 17.7828 62.1819C18.0861 61.9473 18.4066 61.9727 18.7748 61.9721C18.8524 61.9705 18.93 61.9688 19.01 61.9672C19.2577 61.9624 19.5054 61.9604 19.7532 61.9583C19.9213 61.9556 20.0893 61.9527 20.2573 61.9496C20.6691 61.9423 21.0809 61.9375 21.4927 61.9339C21.459 61.8684 21.4253 61.8029 21.3906 61.7353C21.3465 61.6485 21.3024 61.5618 21.257 61.4724C21.1913 61.3438 21.1913 61.3438 21.1244 61.2127C20.6061 60.1092 20.8731 58.9418 21.1358 57.7986C21.159 57.6948 21.1822 57.5909 21.2061 57.4839C21.2822 57.1443 21.3594 56.8049 21.4367 56.4656C21.4904 56.2273 21.544 55.9889 21.5976 55.7506C21.7242 55.189 21.8515 54.6275 21.9791 54.0661C22.109 53.4944 22.2377 52.9223 22.3662 52.3503C22.4768 51.8585 22.588 51.3668 22.6993 50.8752C22.7522 50.641 22.805 50.4069 22.8577 50.1726C23.9142 45.4837 23.9142 45.4837 25.9849 44.1605C26.6647 43.7741 27.349 43.5351 28.1028 43.3365C28.26 43.2939 28.26 43.2939 28.4203 43.2505C28.7476 43.1621 29.0752 43.0754 29.4029 42.9886C29.6178 42.9307 29.8327 42.8727 30.0476 42.8147C30.2497 42.7606 30.4519 42.7067 30.6541 42.6529C30.7484 42.6276 30.8427 42.6023 30.9399 42.5763C31.0275 42.5534 31.1151 42.5304 31.2053 42.5068C31.3201 42.4765 31.3201 42.4765 31.4372 42.4456C31.649 42.4027 31.649 42.4027 32.0396 42.4027C31.9772 42.3402 31.9147 42.2778 31.8504 42.2135C31.806 42.1685 31.7615 42.1236 31.7157 42.0773C31.5949 41.9575 31.4717 41.8401 31.3472 41.724C30.355 40.7793 29.4823 39.5095 29.4029 38.1058C29.3223 38.0998 29.2418 38.0937 29.1587 38.0875C28.4258 37.9174 27.8611 37.4593 27.4498 36.8363C27.0208 36.0689 26.9144 35.2806 27.1236 34.4239C27.3341 33.8296 27.6648 33.3518 28.1334 32.93C28.2198 32.8931 28.3063 32.8563 28.3954 32.8183C28.6348 32.6645 28.6348 32.6645 28.665 32.4547C28.6817 32.2135 28.6841 31.9755 28.6827 31.7337C28.6871 31.5557 28.6923 31.3777 28.6983 31.1997C28.7012 31.1118 28.7041 31.0239 28.7071 30.9334C28.7873 29.2879 29.5221 27.6937 30.7106 26.5538C32.4775 25.0116 34.709 24.5905 36.9896 24.6048ZM31.1393 27.9442C30.2685 28.9487 29.9694 30.1937 29.9827 31.4957C29.9832 31.5773 29.9836 31.659 29.9841 31.7431C29.9852 31.9434 29.9869 32.1438 29.9888 32.3441C30.0638 32.2841 30.0638 32.2841 30.1402 32.2229C30.9953 31.545 31.7937 31.153 32.888 31.1539C32.9975 31.1537 32.9975 31.1537 33.1092 31.1535C33.6266 31.1579 34.1276 31.2052 34.6397 31.276C36.3571 31.5038 37.9385 31.1824 39.4401 30.3315C39.8063 30.1733 40.0433 30.1411 40.438 30.1956C40.6269 30.3578 40.6269 30.3578 40.7737 30.5924C40.8295 30.6807 40.8853 30.7691 40.9427 30.8602C41.4029 31.6627 41.8403 32.4658 42.1959 33.3206C42.6736 32.4607 42.5418 31.4916 42.2996 30.5802C42.0191 29.5206 41.9392 28.8072 42.2935 27.7542C41.0791 27.4484 39.8653 27.2309 38.6802 27.7542C38.5421 27.8409 38.4057 27.9304 38.2713 28.0228C37.9677 28.2283 37.9078 28.2427 37.5145 28.2364C37.4158 28.2062 37.3171 28.176 37.2154 28.1449C36.8943 27.5026 37.1516 26.5631 37.313 25.8988C35.0072 25.8067 32.7977 26.2003 31.1393 27.9442ZM39.2564 31.7564C37.4423 32.4782 35.5643 32.6703 33.6399 32.2914C32.7775 32.1249 32.0272 32.3621 31.2767 32.7957C30.4861 33.6541 30.3903 34.3934 30.4168 35.5156C30.4221 35.7488 30.4228 35.9816 30.4227 36.2149C30.4347 37.9407 30.8396 39.3586 32.0396 40.6449C33.2606 41.803 34.621 42.1755 36.2613 42.1398C37.6004 42.076 38.6773 41.4251 39.6568 40.5472C40.8419 39.084 41.1585 37.6417 41.1632 35.7916C41.1644 35.5735 41.1692 35.3555 41.1741 35.1374C41.1842 34.2446 41.0584 33.5337 40.6334 32.7347C40.5833 32.6357 40.5833 32.6357 40.5323 32.5347C40.4509 32.3789 40.3624 32.227 40.2732 32.0755C40.2165 31.9773 40.1597 31.8792 40.1012 31.778C40.0512 31.707 40.0013 31.636 39.9498 31.5628C39.6922 31.5628 39.4925 31.6617 39.2564 31.7564ZM28.8169 34.0042C28.4138 34.4774 28.2531 34.9075 28.2875 35.5278C28.3552 35.9127 28.4825 36.1321 28.7193 36.4456C28.8792 36.5479 29.0416 36.6464 29.2076 36.7386C29.2405 35.7779 29.2097 34.9316 28.9146 34.0042C28.8824 34.0042 28.8502 34.0042 28.8169 34.0042ZM43.0748 34.5902C42.6605 34.948 42.3264 35.2529 42.2416 35.8101C42.2444 36.1229 42.2589 36.4278 42.2935 36.7386C42.7658 36.5752 42.9227 36.3943 43.1724 35.9574C43.2585 35.6991 43.2859 35.5393 43.2884 35.2738C43.2905 35.1741 43.2905 35.1741 43.2926 35.0724C43.2808 34.8513 43.2808 34.8513 43.0748 34.5902ZM33.5044 43.3792C33.7987 44.3601 33.9928 44.9358 34.8716 45.43C35.4083 45.6486 35.8782 45.675 36.4341 45.5277C37.103 45.2275 37.5727 44.7667 37.8807 44.0995C38.0182 43.7667 38.0182 43.7667 37.9966 43.3792C36.5142 43.3792 35.0318 43.3792 33.5044 43.3792ZM31.6215 43.6728C31.5374 43.6944 31.4532 43.716 31.3665 43.7382C31.2755 43.762 31.1846 43.7858 31.0909 43.8103C30.9494 43.8472 30.9494 43.8472 30.805 43.8849C30.6047 43.9374 30.4045 43.9901 30.2043 44.043C29.9018 44.1227 29.5989 44.2005 29.2959 44.2784C27.6396 44.7112 26.085 45.197 25.1422 46.7461C24.7254 47.5134 24.5278 48.3698 24.3403 49.2162C24.3155 49.3256 24.2907 49.435 24.2651 49.5477C24.1841 49.9057 24.1041 50.2639 24.0242 50.6222C23.9678 50.8728 23.9115 51.1234 23.8551 51.3739C23.7373 51.8974 23.6202 52.4211 23.5035 52.9448C23.3688 53.5486 23.233 54.1521 23.0967 54.7556C22.965 55.3388 22.8342 55.9223 22.7038 56.5058C22.6484 56.753 22.5928 57.0001 22.537 57.2472C22.459 57.5924 22.3821 57.9378 22.3055 58.2833C22.2824 58.3848 22.2593 58.4862 22.2355 58.5907C22.0504 59.4345 21.9635 60.1674 22.3716 60.9574C22.7335 61.4801 23.1392 61.8256 23.762 61.9925C24.1037 62.042 24.4401 62.0437 24.7844 62.0411C24.8553 62.041 24.9261 62.0408 24.9991 62.0407C25.2239 62.0402 25.4488 62.0389 25.6736 62.0377C25.8267 62.0372 25.9797 62.0368 26.1327 62.0364C26.5066 62.0353 26.8805 62.0336 27.2544 62.0316C27.2251 61.9448 27.1958 61.8581 27.1656 61.7687C27.0775 61.5015 26.9956 61.2345 26.9188 60.9639C26.8938 60.8763 26.8689 60.7887 26.8432 60.6985C26.8051 60.5638 26.8051 60.5638 26.7662 60.4264C26.7407 60.3369 26.7153 60.2475 26.6891 60.1553C26.6397 59.9816 26.5904 59.8079 26.5411 59.6341C26.4538 59.3264 26.3659 59.0188 26.2779 58.7113C26.1815 58.7076 26.085 58.704 25.9857 58.7002C25.798 58.6906 25.798 58.6906 25.6065 58.6808C25.4819 58.6751 25.3572 58.6694 25.2288 58.6636C25.1239 58.6471 25.0189 58.6306 24.9107 58.6136C24.7154 58.3206 24.7154 58.3206 24.7459 58.0155C24.813 57.7347 24.813 57.7347 24.9107 57.6371C25.0749 57.6143 25.2399 57.5968 25.4051 57.5821C25.5328 57.5708 25.5328 57.5708 25.6631 57.5593C25.7371 57.5527 25.8111 57.5462 25.8873 57.5394C25.741 56.6079 25.4959 55.7081 25.2411 54.8019C24.885 53.5308 24.5644 52.3561 25.2472 51.1345C25.697 50.5048 26.2923 50.0727 27.0591 49.9222C27.2922 49.9126 27.5255 49.9086 27.7588 49.9078C27.8646 49.9073 27.8646 49.9073 27.9726 49.9067C28.2091 49.9057 28.4456 49.9053 28.6821 49.9049C28.8517 49.9043 29.0213 49.9037 29.1908 49.903C29.7479 49.9009 30.3049 49.8999 30.862 49.8989C31.054 49.8985 31.246 49.8981 31.438 49.8977C32.3403 49.8959 33.2426 49.8945 34.145 49.8937C35.1852 49.8927 36.2255 49.8902 37.2657 49.8862C38.0706 49.8833 38.8754 49.8818 39.6802 49.8815C40.1605 49.8813 40.6408 49.8804 41.1211 49.8779C41.5734 49.8756 42.0257 49.8752 42.478 49.8762C42.6434 49.8763 42.8088 49.8757 42.9741 49.8743C44.0056 49.8664 44.8774 49.9438 45.7908 50.4715C46.5106 51.253 46.7261 51.9877 46.7239 53.0258C46.6923 53.588 46.5317 54.1221 46.3735 54.6599C46.2037 55.2107 46.2037 55.2107 46.1998 55.7816C46.2662 55.842 46.3327 55.9024 46.4012 55.9647C46.4948 56.0674 46.4948 56.0674 46.5904 56.1722C46.566 56.5384 46.566 56.5384 46.4927 56.8558C46.3296 56.889 46.3296 56.889 46.1631 56.9229C46.0463 56.9652 45.9295 57.0075 45.8091 57.0511C45.7447 57.2122 45.6802 57.3734 45.6138 57.5394C45.9683 57.5716 46.3228 57.6039 46.688 57.6371C46.8994 58.1537 46.8994 58.1537 46.8345 58.4336C46.688 58.6136 46.688 58.6136 46.3699 58.6731C46.2453 58.6777 46.1206 58.6822 45.9922 58.6869C45.8671 58.6924 45.742 58.6979 45.6131 58.7036C45.4684 58.7074 45.4684 58.7074 45.3209 58.7113C45.2982 58.791 45.2756 58.8708 45.2522 58.953C45.1675 59.2511 45.0827 59.5492 44.9978 59.8473C44.9612 59.9759 44.9246 60.1046 44.8881 60.2332C44.8354 60.4189 44.7825 60.6046 44.7296 60.7903C44.682 60.9575 44.682 60.9575 44.6335 61.1281C44.5437 61.4318 44.4463 61.7318 44.3443 62.0316C44.7889 62.0389 45.2335 62.0442 45.6782 62.0477C45.8292 62.0491 45.9802 62.0511 46.1311 62.0537C47.2633 62.0723 48.097 62.0466 48.9639 61.2324C49.4055 60.7592 49.5264 60.2246 49.5201 59.5902C49.4355 59.0444 49.3112 58.51 49.1844 57.9727C49.1509 57.8262 49.1175 57.6797 49.0842 57.5331C49.0031 57.1768 48.9203 56.8209 48.8365 56.4652C48.6426 56.4715 48.4487 56.4779 48.2547 56.4843C48.0552 56.4652 48.0552 56.4652 47.7623 56.2699C47.7317 55.9281 47.7317 55.9281 47.7623 55.5863C48.0128 55.3357 48.1995 55.3382 48.5435 55.2933C48.1573 53.4797 47.7658 51.6672 47.3547 49.8592C47.3175 49.6951 47.2806 49.5311 47.2439 49.3669C46.8667 47.6791 46.4074 46.2865 44.9302 45.2347C44.2709 44.8606 43.6158 44.6254 42.8825 44.4424C42.7846 44.4171 42.6868 44.3918 42.5859 44.3657C42.2771 44.2861 41.9679 44.208 41.6587 44.13C41.4484 44.0758 41.2381 44.0216 41.0278 43.9673C40.4544 43.82 40.4544 43.82 39.8805 43.6744C39.8041 43.655 39.7277 43.6357 39.6489 43.6158C39.4617 43.5676 39.4617 43.5676 39.2662 43.5746C39.2436 43.6501 39.2211 43.7256 39.1979 43.8034C38.8357 44.9602 38.3691 45.7397 37.3287 46.3955C36.5448 46.7995 35.6347 46.8333 34.782 46.6324C33.863 46.2905 33.1623 45.7275 32.7232 44.8441C32.5716 44.426 32.4456 44.0046 32.3326 43.5746C32.0651 43.5746 31.8777 43.6068 31.6215 43.6728ZM26.2413 51.7838C25.8467 52.497 25.9589 53.1674 26.1685 53.9235C26.1881 53.997 26.2076 54.0704 26.2277 54.1461C26.2919 54.3866 26.3575 54.6267 26.4232 54.8668C26.4686 55.0351 26.5138 55.2033 26.5591 55.3716C26.6538 55.7232 26.7491 56.0747 26.845 56.426C26.9676 56.8754 27.0888 57.3251 27.2095 57.7749C27.3027 58.1221 27.3966 58.469 27.4907 58.816C27.5356 58.9817 27.5804 59.1475 27.6249 59.3133C27.6874 59.5453 27.7507 59.777 27.8142 60.0087C27.8323 60.0766 27.8504 60.1445 27.8691 60.2144C28.0693 60.9375 28.2986 61.3927 28.9146 61.8363C29.2686 62.0055 29.548 62.0562 29.939 62.057C30.0455 62.0577 30.152 62.0584 30.2617 62.0591C30.4355 62.0588 30.4355 62.0588 30.6129 62.0584C30.7357 62.0589 30.8585 62.0594 30.985 62.0599C31.3211 62.0612 31.6573 62.0613 31.9934 62.061C32.2745 62.0609 32.5555 62.0614 32.8365 62.0619C33.4997 62.063 34.163 62.063 34.8262 62.0624C35.5094 62.0618 36.1927 62.063 36.8759 62.0651C37.4634 62.0668 38.0508 62.0674 38.6383 62.0671C38.9888 62.0669 39.3392 62.0672 39.6897 62.0685C40.0808 62.07 40.4719 62.0691 40.863 62.0679C40.9784 62.0687 41.0939 62.0694 41.2129 62.0702C41.9548 62.0655 42.3986 61.9525 43.0442 61.5921C43.7091 60.8733 43.8528 59.6134 44.1013 58.6796C44.1421 58.5276 44.1829 58.3755 44.2237 58.2235C44.3086 57.9068 44.3932 57.5901 44.4775 57.2733C44.5852 56.8689 44.6938 56.4648 44.8026 56.0608C44.8869 55.7476 44.9706 55.4343 45.0542 55.121C45.094 54.972 45.134 54.823 45.1742 54.674C45.2303 54.4656 45.2857 54.257 45.341 54.0483C45.3883 53.871 45.3883 53.871 45.4366 53.6901C45.5941 52.9976 45.7072 52.4085 45.3209 51.7777C44.984 51.419 44.6552 51.1037 44.1499 51.081C44.0235 51.0806 43.8971 51.0801 43.7668 51.0797C43.6614 51.0792 43.6614 51.0792 43.5539 51.0786C43.3172 51.0775 43.0806 51.0772 42.8439 51.0768C42.6747 51.0762 42.5055 51.0755 42.3363 51.0749C41.8756 51.0732 41.4149 51.0721 40.9543 51.0713C40.6665 51.0708 40.3788 51.0702 40.091 51.0696C39.1909 51.0677 38.2908 51.0664 37.3906 51.0655C36.3513 51.0646 35.312 51.062 34.2727 51.0581C33.4696 51.0551 32.6665 51.0537 31.8634 51.0534C31.3837 51.0531 30.904 51.0523 30.4242 51.0498C29.9727 51.0475 29.5212 51.0471 29.0697 51.0481C28.9042 51.0482 28.7386 51.0475 28.5731 51.0462C28.3467 51.0445 28.1203 51.0452 27.8939 51.0465C27.7673 51.0462 27.6407 51.046 27.5103 51.0457C26.9527 51.122 26.5917 51.3319 26.2413 51.7838ZM18.9537 63.2035C18.9537 63.8158 18.9537 64.4281 18.9537 65.0589C30.0718 65.0589 41.19 65.0589 52.6451 65.0589C52.6451 64.4466 52.6451 63.8343 52.6451 63.2035C41.5269 63.2035 30.4087 63.2035 18.9537 63.2035Z" fill="#F37121"/>
<path d="M60.7088 23.2608C62.0237 24.3688 62.9412 26.022 63.1219 27.7433C63.1348 28.0323 63.1379 28.319 63.1349 28.6083C63.1338 28.7617 63.1338 28.7617 63.1327 28.9183C63.0942 30.7423 62.4091 32.206 61.2173 33.5651C60.2367 34.7071 59.6186 36.011 59.4789 37.5194C59.5319 37.5572 59.5849 37.5949 59.6395 37.6339C59.7094 37.6847 59.7793 37.7356 59.8512 37.788C59.9204 37.8378 59.9895 37.8877 60.0607 37.939C60.3635 38.1915 60.5261 38.4147 60.6508 38.7889C60.6679 39.0752 60.6779 39.357 60.6813 39.6434C60.6842 39.7202 60.687 39.797 60.6899 39.8761C60.696 40.4437 60.5855 40.7637 60.2602 41.2303C59.8003 41.6566 59.4888 41.7301 58.8728 41.7118C58.753 41.711 58.6332 41.7103 58.5098 41.7095C58.2577 41.7074 58.0056 41.7016 57.7537 41.6919C57.3885 41.6935 57.0929 41.7047 56.7446 41.8163C56.5239 42.0807 56.4065 42.3187 56.2858 42.6403C56.1586 42.8905 56.1586 42.8905 55.9165 43.0301C55.6703 43.0858 55.6703 43.0858 55.4018 42.9576C55.1821 42.7928 55.1821 42.7928 55.0844 42.6952C55.0931 42.5462 55.1084 42.3977 55.1271 42.2496C55.1371 42.1689 55.147 42.0883 55.1573 42.0051C55.1654 41.9428 55.1736 41.8805 55.1821 41.8163C55.0757 41.8141 55.0757 41.8141 54.9672 41.812C54.6441 41.8047 54.3211 41.7952 53.998 41.7858C53.8307 41.7825 53.8307 41.7825 53.66 41.7791C53.0096 41.7583 52.492 41.7406 51.9941 41.2757C51.5619 40.7106 51.5457 40.3927 51.5383 39.6984C51.5354 39.6118 51.5326 39.5253 51.5297 39.4361C51.5239 38.8406 51.6038 38.4906 51.9594 38.0077C52.1793 37.8294 52.3848 37.7412 52.643 37.6171C52.6946 35.9852 51.888 34.6242 50.8356 33.4479C49.5588 31.9984 48.9714 30.227 49.0053 28.3054C49.0765 27.2656 49.3184 26.3275 49.811 25.41C49.8519 25.3302 49.8928 25.2504 49.9349 25.1682C50.7912 23.6136 52.2329 22.4622 53.9087 21.894C56.3516 21.2013 58.7126 21.7276 60.7088 23.2608ZM53.9125 23.2616C53.7854 23.313 53.7854 23.313 53.6558 23.3654C52.2187 24.0131 51.1734 25.2289 50.5922 26.6796C50.0586 28.1835 50.2038 29.7083 50.8085 31.1645C51.1081 31.7646 51.5105 32.2485 51.9484 32.7499C53.1994 34.1896 53.7024 35.7703 54.0102 37.6171C54.4936 37.6171 54.977 37.6171 55.475 37.6171C55.475 36.2636 55.475 34.91 55.475 33.5155C55.2172 33.3866 54.9594 33.2577 54.6938 33.1249C54.198 32.7062 53.9303 32.2714 53.8332 31.6295C53.7789 30.9425 53.9046 30.3073 54.3436 29.763C54.8557 29.2546 55.3486 29.0891 56.0671 29.066C56.7424 29.0937 57.2024 29.2056 57.6959 29.6726C58.2537 30.2837 58.3529 30.8194 58.3372 31.6379C58.2698 32.3429 57.9498 32.7573 57.4163 33.2004C57.2328 33.3202 57.2328 33.3202 56.7446 33.5155C56.7446 34.869 56.7446 36.2225 56.7446 37.6171C57.228 37.6171 57.7113 37.6171 58.2094 37.6171C58.2237 37.5072 58.2381 37.3973 58.2529 37.284C58.4921 35.5942 59.0173 34.1157 60.2052 32.8441C61.3671 31.5911 61.9665 30.1129 61.947 28.4076C61.8378 26.9317 61.2653 25.4506 60.1625 24.4335C58.7358 23.2079 57.2548 22.764 55.4074 22.8515C54.877 22.8974 54.4008 23.058 53.9125 23.2616ZM55.3774 30.4882C55.321 30.5264 55.2646 30.5647 55.2065 30.6041C55.0047 30.8967 54.9765 31.2159 54.9867 31.5624C55.159 32.0082 55.4425 32.2297 55.8656 32.4413C56.2654 32.4413 56.4848 32.3837 56.8239 32.1727C57.056 31.934 57.1559 31.7879 57.2328 31.4647C57.213 30.9881 57.0752 30.7306 56.7446 30.3905C56.2484 30.0544 55.8455 30.1555 55.3774 30.4882ZM52.8533 38.9221C52.6905 39.153 52.6983 39.3331 52.6979 39.6129C52.696 39.7054 52.6941 39.798 52.6922 39.8933C52.755 40.2343 52.8617 40.3326 53.1313 40.5468C53.4083 40.6044 53.4083 40.6044 53.7178 40.5942C53.8952 40.5951 53.8952 40.5951 54.0763 40.596C54.2036 40.5946 54.331 40.5932 54.4622 40.5918C54.5945 40.5915 54.7268 40.5914 54.8591 40.5915C55.136 40.5912 55.4129 40.5896 55.6898 40.587C56.0447 40.5836 56.3995 40.5829 56.7544 40.583C57.0274 40.583 57.3004 40.5819 57.5735 40.5805C57.7679 40.5796 57.9624 40.5792 58.1569 40.5789C58.3339 40.577 58.3339 40.577 58.5144 40.5751C58.6184 40.5744 58.7224 40.5736 58.8295 40.5729C59.1106 40.5649 59.1106 40.5649 59.3813 40.3514C59.4282 40.0309 59.4282 40.0309 59.4179 39.6678C59.4186 39.545 59.4194 39.4221 59.4202 39.2955C59.4009 39.1415 59.4009 39.1415 59.3813 38.9843C59.041 38.7574 58.9058 38.7638 58.5039 38.7621C58.3836 38.7612 58.2634 38.7603 58.1395 38.7593C58.0082 38.7593 57.8769 38.7594 57.7455 38.7596C57.6109 38.7592 57.4763 38.7588 57.3416 38.7583C57.0596 38.7576 56.7775 38.7576 56.4955 38.7581C56.1339 38.7587 55.7724 38.757 55.4108 38.7548C55.1328 38.7533 54.8549 38.7532 54.5769 38.7535C54.4436 38.7535 54.3103 38.753 54.1769 38.752C53.9906 38.7508 53.8043 38.7516 53.618 38.7526C53.459 38.7525 53.459 38.7525 53.2967 38.7524C53.0322 38.7678 53.0322 38.7678 52.8533 38.9221Z" fill="#F37121"/>
<path d="M37.3525 54.2345C37.7312 54.5024 37.967 54.7935 38.1925 55.1955C38.2831 55.3495 38.2831 55.3495 38.3756 55.5067C38.6063 56.2886 38.6018 57.1032 38.2169 57.8329C37.7911 58.5115 37.3172 58.9652 36.5323 59.1994C35.6314 59.3186 34.832 59.2679 34.0909 58.7111C33.5262 58.1989 33.158 57.6764 33.0804 56.9121C33.044 55.983 33.1552 55.3076 33.7815 54.6038C34.806 53.6318 36.1262 53.547 37.3525 54.2345ZM35.0675 55.1955C34.6916 55.503 34.4482 55.8106 34.2862 56.2697C34.2588 56.8159 34.4093 57.2249 34.7745 57.6369C35.1458 57.9094 35.4933 58.064 35.9586 58.0275C36.4481 57.9313 36.7967 57.7045 37.0999 57.3073C37.2899 56.8874 37.3301 56.5805 37.2647 56.1232C37.0226 55.5583 36.6502 55.2878 36.0928 55.049C35.6811 54.9901 35.4497 55.0326 35.0675 55.1955Z" fill="#F37121"/>
<path d="M63.388 53.8286C63.5884 54.1293 63.6266 54.2457 63.5623 54.595C63.2548 55.4379 62.504 56.2277 61.7278 56.6606C61.4338 56.7121 61.3312 56.6765 61.0442 56.563C60.8465 56.2663 60.7957 56.1322 60.8558 55.7832C61.0254 55.4155 61.3588 55.192 61.6645 54.9371C61.9828 54.6545 62.2241 54.3433 62.4725 53.9995C62.7455 53.652 62.9865 53.7282 63.388 53.8286Z" fill="#F37121"/>
<path d="M59.8989 46.5206C60.7442 46.7082 61.6952 47.2533 62.3125 47.8706C62.462 48.1934 62.4309 48.3005 62.3125 48.6336C62.1172 48.8472 62.1172 48.8472 61.8025 48.8831C61.3741 48.8414 61.1618 48.7234 60.8049 48.4871C60.7503 48.4515 60.6956 48.4158 60.6393 48.3791C60.4804 48.2755 60.3222 48.1707 60.1641 48.066C60.0118 47.9739 59.8592 47.8823 59.7063 47.7913C59.3828 47.5777 59.3828 47.5777 59.1875 47.2847C59.2058 46.9856 59.2058 46.9856 59.2852 46.6988C59.5781 46.5035 59.5781 46.5035 59.8989 46.5206Z" fill="#F37121"/>
<path d="M63.3851 49.4334C63.9386 49.8731 64.0356 50.5263 64.1663 51.1912C64.2121 51.6509 64.2509 52.1025 64.1663 52.5584C63.9477 52.777 63.8316 52.8432 63.5254 52.888C63.2387 52.8439 63.1743 52.7803 62.9944 52.5584C62.9374 52.3715 62.9374 52.3715 62.9086 52.1624C62.8972 52.0863 62.8858 52.0101 62.8741 51.9316C62.8634 51.8525 62.8528 51.7733 62.8418 51.6917C62.7732 51.2028 62.7055 50.7679 62.5062 50.3123C62.4559 49.8101 62.4559 49.8101 62.616 49.5433C62.8894 49.3792 63.0724 49.3887 63.3851 49.4334Z" fill="#F37121"/>
<path d="M56.2345 43.9346C56.6517 44.1031 56.8329 44.3623 57.1153 44.7048C57.4115 45.0269 57.748 45.2512 58.114 45.4875C58.3097 45.6252 58.3097 45.6252 58.4074 45.8206C58.4318 46.1624 58.4318 46.1624 58.4074 46.5042C58.0638 46.7332 57.933 46.7431 57.5285 46.6995C56.7935 46.3108 55.926 45.6289 55.5898 44.8455C55.5226 44.537 55.5618 44.3774 55.7279 44.1116C55.966 43.9651 55.966 43.9651 56.2345 43.9346Z" fill="#F37121"/>
<path d="M53.7205 55.3908C54.0032 55.4425 54.283 55.5025 54.5628 55.5678C54.6299 55.5828 54.6969 55.5977 54.766 55.6131C55.0617 55.6876 55.2562 55.755 55.4753 55.971C55.6226 56.2651 55.5723 56.4494 55.4783 56.758C54.8752 57.1601 53.9742 56.8412 53.2872 56.7214C53.2202 56.7103 53.1532 56.6992 53.0842 56.6877C52.7099 56.6185 52.426 56.5485 52.158 56.2697C52.0858 55.6922 52.0858 55.6922 52.2725 55.4179C52.6734 55.1377 53.2649 55.3222 53.7205 55.3908Z" fill="#F37121"/>
<path d="M57.4312 56.133C57.5471 56.1326 57.6629 56.1322 57.7822 56.1318C57.9638 56.1335 57.9638 56.1335 58.1492 56.1353C58.3297 56.1336 58.3297 56.1336 58.5139 56.1318C58.6299 56.1322 58.746 56.1326 58.8656 56.133C58.9716 56.1333 59.0777 56.1336 59.1869 56.134C59.5198 56.1771 59.7055 56.2569 59.968 56.4649C60.0162 56.802 60.0351 57.0301 59.8643 57.3316C59.0423 57.8088 57.6169 57.549 56.7454 57.3438C56.55 57.1485 56.55 57.1485 56.5195 56.8128C56.55 56.4649 56.55 56.4649 56.6617 56.2991C56.9208 56.1173 57.1167 56.134 57.4312 56.133Z" fill="#F37121"/>
<path d="M48.1965 22.6758C48.5786 22.783 48.7682 22.8685 49.0327 23.1641C49.1364 23.5059 49.1364 23.5059 49.1303 23.8477C48.9778 24.0918 48.9778 24.0918 48.7397 24.2383C48.2587 24.2383 47.9249 24.0655 47.5678 23.75C47.458 23.4082 47.458 23.4082 47.4702 23.0664C47.6805 22.7158 47.787 22.6758 48.1965 22.6758Z" fill="#F37121"/>
<path d="M56.3552 18.6719C56.6073 18.8831 56.726 19.0477 56.7836 19.3746C56.8014 19.7464 56.7891 19.9708 56.5872 20.2893C56.2862 20.4715 56.1152 20.4886 55.7693 20.4297C55.4971 20.1472 55.4342 19.9388 55.4336 19.5508C55.4443 19.22 55.4588 19.0897 55.6411 18.8062C55.9168 18.6422 56.0408 18.6011 56.3552 18.6719Z" fill="#F37121"/>
<path d="M46.8322 27.6749C46.9726 27.686 46.9726 27.686 47.116 27.6974C47.3963 27.7603 47.5007 27.8113 47.6622 28.0472C47.6297 28.6657 47.6297 28.6657 47.3693 28.9261C46.8959 28.9907 46.4471 29.0125 46.0265 28.7735C45.8507 28.4308 45.9007 28.2167 46.0021 27.8519C46.3408 27.6261 46.4389 27.6384 46.8322 27.6749Z" fill="#F37121"/>
<path d="M60.6031 19.6973C60.9449 19.7461 60.9449 19.7461 61.1524 19.9353C61.2802 20.3825 61.1487 20.7055 60.9449 21.1133C60.7679 21.3208 60.7679 21.3208 60.5542 21.4062C60.2216 21.3995 60.0364 21.3581 59.7669 21.1621C59.6357 20.8123 59.7437 20.5895 59.8653 20.2462C60.0546 19.8656 60.1761 19.7583 60.6031 19.6973Z" fill="#F37121"/>
<path d="M63.9738 32.4413C64.2517 32.5605 64.4637 32.6957 64.6574 32.9296C64.7309 33.2232 64.7029 33.4023 64.6574 33.7109C64.4621 33.9062 64.4621 33.9062 64.1508 33.9489C63.6889 33.8959 63.4174 33.7504 63.0949 33.4179C62.9736 33.1254 62.9698 33.0057 63.0766 32.7099C63.3071 32.3703 63.591 32.398 63.9738 32.4413Z" fill="#F37121"/>
<path d="M48.8352 32.4412C49.0184 32.551 49.0184 32.551 49.1282 32.7341C49.1892 33.0088 49.1892 33.0088 49.1282 33.3201C48.8328 33.7043 48.5585 33.8889 48.0784 33.9609C47.761 33.906 47.761 33.906 47.5718 33.7962C47.406 33.5036 47.3966 33.3583 47.4681 33.0271C47.8457 32.6159 48.2607 32.3209 48.8352 32.4412Z" fill="#F37121"/>
<path d="M51.9629 19.746C52.3131 20.042 52.4389 20.3478 52.5061 20.7958C52.4512 21.1131 52.4512 21.1131 52.2925 21.3085C51.9592 21.4488 51.8136 21.4399 51.4746 21.3085C51.1938 20.9924 51.0116 20.6694 50.9375 20.2526C50.9863 20.0389 50.9863 20.0389 51.0901 19.8619C51.4022 19.6706 51.606 19.6844 51.9629 19.746Z" fill="#F37121"/>
<path d="M64.3633 22.6755C64.5403 22.7793 64.5403 22.7793 64.6562 22.9685C64.7234 23.292 64.7234 23.292 64.6562 23.6521C64.4296 23.9135 64.1863 24.0883 63.875 24.238C63.5515 24.2563 63.5515 24.2563 63.2891 24.1404C63.0938 23.9206 63.0938 23.9206 62.9961 23.6521C63.0518 23.2809 63.2293 23.111 63.5149 22.8891C63.8067 22.6968 64.0082 22.5966 64.3633 22.6755Z" fill="#F37121"/>
<path d="M65.6331 27.6562C65.7312 27.9507 65.7408 28.1486 65.7368 28.4558C65.7359 28.5438 65.7351 28.6318 65.7342 28.7225C65.733 28.7896 65.7319 28.8567 65.7307 28.9258C65.5904 28.9337 65.45 28.9394 65.3096 28.9441C65.1923 28.9492 65.1923 28.9492 65.0727 28.9544C64.8518 28.9258 64.8518 28.9258 64.679 28.7965C64.4935 28.5438 64.5209 28.3506 64.5589 28.0469C64.7155 27.8078 64.8201 27.7626 65.096 27.6868C65.3401 27.6562 65.3401 27.6562 65.6331 27.6562Z" fill="#F37121"/>
</svg>
