<svg width="129" height="123" viewBox="0 0 129 123" fill="none" xmlns="http://www.w3.org/2000/svg">
<g clip-path="url(#clip0_20202_44236)">
<path d="M0.759503 87.4997C0.759503 87.4997 0.696192 88.8274 2.69048 89.3015C4.68477 89.8073 7.53376 89.5544 8.57839 90.0602C9.59136 90.566 9.97123 91.8621 9.97123 91.8621C9.97123 91.8621 8.6417 91.5776 5.85602 91.3563C3.07035 91.1666 0.949435 90.1234 0.601226 88.4796C0.253016 86.8991 0.759503 87.4997 0.759503 87.4997Z" fill="url(#paint0_linear_20202_44236)"/>
<path d="M0.0314953 86.7098C0.158117 86.1724 2.72221 84.2757 5.53954 82.6003C6.2043 82.2209 6.96403 82.0629 7.24893 81.4307C7.40721 81.6519 7.72376 82.3474 7.66045 82.6635C7.56548 83.1377 6.93238 83.6435 5.66616 84.497C4.05173 85.5718 1.13943 87.9426 0.75957 88.891C0.727914 88.891 -0.126782 87.3736 0.0314953 86.7098Z" fill="url(#paint1_linear_20202_44236)"/>
<path d="M33.3647 92.5579C33.3647 92.5579 32.5733 91.8308 31.5603 92.5895C30.5474 93.3482 29.661 94.992 28.9963 95.2449C28.3315 95.4978 27.3818 95.0236 27.3818 95.0236C27.3818 95.0236 28.0466 94.4862 29.1545 93.1269C30.2625 91.7676 31.6553 91.2302 32.7949 91.8941C33.9345 92.6211 33.3647 92.5579 33.3647 92.5579Z" fill="url(#paint2_linear_20202_44236)"/>
<path d="M34.1243 92.5891C34.4092 92.9368 34.884 93.5058 34.884 95.8767C34.884 96.4141 34.6941 96.9199 34.979 97.3941C34.789 97.3624 34.2509 97.1412 34.0926 96.9515C33.8394 96.6354 33.7444 96.0348 33.6811 94.9284C33.6178 93.5058 32.9847 92.5259 32.5415 91.7988C32.5415 91.7988 33.7761 92.1782 34.1243 92.5891Z" fill="url(#paint3_linear_20202_44236)"/>
<path d="M123.899 87.0582C123.899 87.0582 122.855 86.9318 122.443 88.133C122.063 89.3342 122.285 91.1677 121.905 91.7999C121.525 92.4005 120.48 92.527 120.48 92.527C120.48 92.527 120.702 91.7051 120.829 89.9665C120.955 88.2278 121.778 86.9634 123.076 86.8685C124.374 86.8053 123.899 87.0582 123.899 87.0582Z" fill="url(#paint4_linear_20202_44236)"/>
<path d="M124.564 86.6788C125.007 86.8052 125.704 86.9949 127.096 88.9232C127.413 89.3657 127.54 89.8715 128.046 90.0928C127.888 90.1876 127.318 90.3141 127.065 90.2508C126.685 90.156 126.273 89.7135 125.545 88.8283C124.659 87.7219 123.583 87.2794 122.791 86.9316C122.791 86.9316 124.026 86.5207 124.564 86.6788Z" fill="url(#paint5_linear_20202_44236)"/>
<path d="M114.371 53.1069C114.371 53.1069 113.738 52.9489 113.738 51.558C113.738 50.1671 113.421 48.2388 112.915 47.5117L114.561 47.6382C114.561 47.6382 115.226 48.8078 115.162 50.1671C115.131 51.5264 115.004 52.4431 115.447 52.6644C115.89 52.9173 115.574 52.7276 115.574 52.7276L114.371 53.1069Z" fill="url(#paint6_linear_20202_44236)"/>
<path d="M121.24 50.1667C121.24 50.1667 120.322 49.3448 119.151 50.2299C117.98 51.1467 116.998 53.0117 116.207 53.3278C115.447 53.644 114.339 53.075 114.339 53.075C114.339 53.075 115.099 52.4427 116.365 50.8622C117.663 49.2816 119.246 48.6177 120.544 49.408C121.873 50.2299 121.24 50.1667 121.24 50.1667Z" fill="url(#paint7_linear_20202_44236)"/>
<path d="M19.0247 30.0301C19.0247 30.0301 19.4362 30.694 18.4866 32.0533C17.5369 33.4126 16.5239 35.5305 16.4606 36.6685L15.1311 35.246C15.1311 35.246 15.3843 33.5706 16.334 32.2746C17.2837 30.9785 18.0117 30.1882 17.7585 29.5876C17.5369 28.987 17.6635 29.4295 17.6635 29.4295L19.0247 30.0301Z" fill="url(#paint8_linear_20202_44236)"/>
<path d="M11.2691 27.4702C11.2691 27.4702 11.4907 28.9876 13.0735 29.0508C14.6563 29.0824 16.7772 28.0393 17.6319 28.3238C18.4866 28.6399 19.0247 30.0308 19.0247 30.0308C19.0247 30.0308 17.9801 30.0308 15.8275 30.5682C13.675 31.1056 11.9022 30.4733 11.3325 28.7031C10.7943 26.9329 11.2691 27.4702 11.2691 27.4702Z" fill="url(#paint9_linear_20202_44236)"/>
<path d="M10.5728 26.7431C10.5728 26.0792 10.5411 25.0044 12.3455 22.3175C12.757 21.6852 13.3268 21.3059 13.4218 20.5156C13.5801 20.7053 13.9599 21.464 13.9599 21.8433C13.9916 22.4439 13.6117 23.171 12.7887 24.5303C11.7757 26.2057 11.6174 27.9127 11.5225 29.1455C11.4908 29.0823 10.5728 27.5334 10.5728 26.7431Z" fill="url(#paint10_linear_20202_44236)"/>
<path d="M39.316 111.146C39.316 111.146 41.5635 109.976 44.1276 110.103L42.8931 108.427C42.8931 108.427 39.7908 108.143 37.575 109.249L39.316 111.146Z" fill="url(#paint11_linear_20202_44236)"/>
<path d="M99.6194 38.2182C99.6194 38.2182 97.9416 36.3215 97.4035 33.8242L96.074 35.4048C96.074 35.4048 96.5805 38.5027 98.1632 40.3362L99.6194 38.2182Z" fill="url(#paint12_linear_20202_44236)"/>
<path d="M7.5022 8.40881C7.5022 8.40881 8.57848 9.83132 8.45186 11.3487L10.003 10.7797C10.003 10.7797 10.2879 8.97782 9.2749 7.58691L7.5022 8.40881Z" fill="url(#paint13_linear_20202_44236)"/>
<path d="M11.9341 69.8296C11.9341 69.8296 13.4535 70.1457 14.3399 71.1889L14.9097 69.8928C14.9097 69.8928 13.96 68.5651 12.5039 68.249L11.9341 69.8296Z" fill="url(#paint14_linear_20202_44236)"/>
<path d="M10.0031 110.672C10.0031 110.672 10.9528 109.787 12.2507 109.408L11.396 108.87C11.396 108.87 9.78153 109.249 8.86353 110.103L10.0031 110.672Z" fill="url(#paint15_linear_20202_44236)"/>
<path d="M100.221 121.388C100.221 121.388 98.7015 121.071 97.8468 120.028L97.2454 121.324C97.2454 121.324 98.195 122.684 99.6512 123L100.221 121.388Z" fill="url(#paint16_linear_20202_44236)"/>
<path d="M121.968 107.7C121.968 107.7 120.449 107.384 119.594 106.341L118.993 107.637C118.993 107.637 119.942 108.996 121.398 109.312L121.968 107.7Z" fill="url(#paint17_linear_20202_44236)"/>
<path d="M118.138 32.2755C118.138 32.2755 122.095 30.4105 123.266 30.2208L122.538 29.2725C122.538 29.2725 118.043 30.3156 117.188 31.2324L118.138 32.2755Z" fill="url(#paint18_linear_20202_44236)"/>
<path d="M68.0272 1.35929C68.0272 1.35929 69.4517 1.64379 70.7179 2.56052L70.4964 1.48574C70.4964 1.48574 68.9769 0.316114 67.6157 0L68.0272 1.35929Z" fill="url(#paint19_linear_20202_44236)"/>
<path d="M97.7201 100.746C97.7201 100.746 99.7461 102.326 101.361 104.729L101.424 102.895C101.424 102.895 99.5561 99.924 97.5935 98.375L97.7201 100.746Z" fill="url(#paint20_linear_20202_44236)"/>
<path d="M111.997 69.5135L113.548 69.1025C113.548 69.1025 114.181 69.9244 115.067 69.956C115.954 69.9877 116.777 70.2089 116.777 70.2089L115.732 70.9044C115.732 70.9044 114.719 70.6199 113.959 70.6515C113.2 70.6831 111.997 69.5135 111.997 69.5135Z" fill="url(#paint21_linear_20202_44236)"/>
<path d="M26.2422 44.8881L27.7933 44.5088L31.0222 45.5836L29.9775 46.2158L26.2422 44.8881Z" fill="url(#paint22_linear_20202_44236)"/>
<path d="M47.2297 14.2567L45.6153 12.7077C45.9318 11.1588 44.5073 8.37695 44.5073 8.37695L46.0901 9.13563C46.0584 9.16724 48.6542 12.3284 47.2297 14.2567Z" fill="url(#paint23_linear_20202_44236)"/>
<path d="M110.984 8.59851C110.984 8.59851 110.287 8.8514 109.338 10.5268C108.388 12.2022 107.945 13.4983 106.046 14.4466C104.146 15.395 103.861 13.7196 103.861 13.7196C103.861 13.7196 104.811 14.0041 105.982 12.9609C109.021 10.2423 108.261 8.40884 109.781 8.15595C111.332 7.90306 110.984 8.59851 110.984 8.59851Z" fill="url(#paint24_linear_20202_44236)"/>
<path d="M115.605 11.5383C115.605 11.5383 114.434 12.3286 113.864 12.2969C113.295 12.2653 112.535 12.0124 111.902 11.0641C111.269 10.1158 110.319 8.5668 109.781 8.15585L111.775 7.93457C111.775 7.93457 112.788 9.16742 113.516 10.2738C114.276 11.3802 114.877 11.7279 115.605 11.5383Z" fill="url(#paint25_linear_20202_44236)"/>
<path d="M103.64 90.8825H30.136C26.0524 90.8825 22.7603 87.5949 22.7603 83.5171V29.6828C22.7603 25.605 26.0524 22.3174 30.136 22.3174H103.64C107.723 22.3174 111.016 25.605 111.016 29.6828V83.5171C111.016 87.5633 107.723 90.8825 103.64 90.8825Z" fill="url(#paint26_linear_20202_44236)"/>
<g style="mix-blend-mode:overlay" opacity="0.4">
<path d="M103.64 22.3174H50.3003L111.015 78.4909V29.6828C111.015 25.605 107.723 22.3174 103.64 22.3174Z" fill="white"/>
</g>
<path opacity="0.1" d="M37.4482 49.9143H28.648C28.2365 49.9143 27.9199 49.5982 27.9199 49.1873V42.6753C27.9199 42.2644 28.2365 41.9482 28.648 41.9482H37.4482C37.8597 41.9482 38.1763 42.2644 38.1763 42.6753V49.1556C38.2079 49.5666 37.8597 49.9143 37.4482 49.9143Z" fill="white"/>
<path opacity="0.1" d="M48.7492 49.9143H39.949C39.5375 49.9143 39.2209 49.5982 39.2209 49.1873V42.6753C39.2209 42.2644 39.5375 41.9482 39.949 41.9482H48.7492C49.1607 41.9482 49.4773 42.2644 49.4773 42.6753V49.1556C49.4773 49.5666 49.1607 49.9143 48.7492 49.9143Z" fill="white"/>
<path opacity="0.1" d="M60.0185 49.9143H51.2183C50.8068 49.9143 50.4902 49.5982 50.4902 49.1873V42.6753C50.4902 42.2644 50.8068 41.9482 51.2183 41.9482H60.0185C60.43 41.9482 60.7466 42.2644 60.7466 42.6753V49.1556C60.7466 49.5666 60.43 49.9143 60.0185 49.9143Z" fill="white"/>
<path opacity="0.1" d="M71.2878 49.9143H62.4876C62.0761 49.9143 61.7595 49.5982 61.7595 49.1873V42.6753C61.7595 42.2644 62.0761 41.9482 62.4876 41.9482H71.2878C71.6993 41.9482 72.0159 42.2644 72.0159 42.6753V49.1556C72.0475 49.5666 71.6993 49.9143 71.2878 49.9143Z" fill="white"/>
<path opacity="0.1" d="M82.5888 49.9143H73.7886C73.3771 49.9143 73.0605 49.5982 73.0605 49.1873V42.6753C73.0605 42.2644 73.3771 41.9482 73.7886 41.9482H82.5888C83.0003 41.9482 83.3169 42.2644 83.3169 42.6753V49.1556C83.3169 49.5666 82.9687 49.9143 82.5888 49.9143Z" fill="white"/>
<path opacity="0.1" d="M93.8581 49.9143H85.0579C84.6464 49.9143 84.3298 49.5982 84.3298 49.1873V42.6753C84.3298 42.2644 84.6464 41.9482 85.0579 41.9482H93.8581C94.2696 41.9482 94.5862 42.2644 94.5862 42.6753V49.1556C94.5862 49.5666 94.2696 49.9143 93.8581 49.9143Z" fill="white"/>
<path opacity="0.1" d="M105.127 49.9143H96.3272C95.9157 49.9143 95.5991 49.5982 95.5991 49.1873V42.6753C95.5991 42.2644 95.9157 41.9482 96.3272 41.9482H105.127C105.539 41.9482 105.855 42.2644 105.855 42.6753V49.1556C105.887 49.5666 105.539 49.9143 105.127 49.9143Z" fill="white"/>
<g opacity="0.35">
<path d="M29.5026 44.0663C29.6292 43.9714 29.7875 43.9082 29.9774 43.9082C30.104 43.9082 30.2307 43.9398 30.3256 43.9714C30.4206 44.003 30.4839 44.0663 30.5472 44.1611C30.6105 44.2559 30.6105 44.3192 30.6105 44.414C30.6105 44.5404 30.5789 44.6353 30.5156 44.6985C30.4523 44.7933 30.3889 44.8249 30.294 44.8565C30.3889 44.8882 30.4839 44.9514 30.5472 45.0462C30.6105 45.1411 30.6422 45.2359 30.6422 45.3939C30.6422 45.4888 30.6105 45.6152 30.5789 45.6784C30.5472 45.7417 30.4523 45.8365 30.3573 45.8681C30.2623 45.9313 30.1357 45.9313 30.0091 45.9313C29.8191 45.9313 29.6609 45.8681 29.5026 45.7733C29.3443 45.6784 29.3127 45.5204 29.281 45.3307H29.5976C29.5976 45.4256 29.6292 45.5204 29.7242 45.5836C29.7875 45.6468 29.8825 45.6784 30.0091 45.6784C30.1357 45.6784 30.199 45.6468 30.2623 45.5836C30.3256 45.5204 30.3573 45.4572 30.3573 45.3307C30.3573 45.2043 30.3256 45.1094 30.2307 45.0462C30.1357 44.983 30.0091 44.9514 29.8508 44.9514H29.7558V44.6985H29.8191C29.9774 44.6985 30.0724 44.6669 30.1674 44.6353C30.2307 44.572 30.294 44.5088 30.294 44.414C30.294 44.3192 30.2623 44.2559 30.199 44.1927C30.1357 44.1295 30.0724 44.1295 29.9458 44.1295C29.8508 44.1295 29.7558 44.1611 29.6925 44.1927C29.6292 44.2559 29.5976 44.3192 29.5976 44.3824H29.281C29.3127 44.2875 29.376 44.1611 29.5026 44.0663Z" fill="white"/>
<path d="M30.927 44.2562V43.9717H31.4968V45.9948H31.1802V44.2562H30.927Z" fill="white"/>
</g>
<path d="M41.3735 44.2562V43.9717H41.9433V45.9948H41.6268V44.2562H41.3735Z" fill="white"/>
<path d="M52.5478 45.5516C52.7377 45.3936 52.8643 45.2671 52.9593 45.1723C53.0542 45.0775 53.1492 44.9826 53.2125 44.8562C53.2758 44.7613 53.3075 44.6349 53.3075 44.5401C53.3075 44.4136 53.2758 44.3504 53.2442 44.2872C53.2125 44.224 53.1176 44.1923 52.9909 44.1923C52.896 44.1923 52.801 44.224 52.7377 44.2872C52.6744 44.3504 52.6427 44.4452 52.6427 44.5717H52.3262C52.3262 44.3504 52.3895 44.1923 52.5161 44.0975C52.6427 43.9711 52.801 43.9395 52.9909 43.9395C53.1809 43.9395 53.3391 44.0027 53.4658 44.0975C53.5924 44.224 53.624 44.3504 53.624 44.5401C53.624 44.6665 53.5924 44.793 53.5291 44.9194C53.4658 45.0459 53.3708 45.1407 53.2758 45.2355C53.1809 45.3304 53.0542 45.4568 52.9276 45.5832L52.801 45.7097H53.6874V45.9626H52.3262V45.7413L52.5478 45.5516Z" fill="white"/>
<path d="M63.8171 44.0663C63.9437 43.9714 64.1019 43.9082 64.2919 43.9082C64.4185 43.9082 64.5451 43.9398 64.6401 43.9714C64.7351 44.003 64.7984 44.0663 64.8617 44.1611C64.925 44.2559 64.925 44.3192 64.925 44.414C64.925 44.5404 64.8933 44.6353 64.83 44.6985C64.7667 44.7933 64.7034 44.8249 64.6084 44.8565C64.7034 44.8882 64.7984 44.9514 64.8617 45.0462C64.925 45.1411 64.9566 45.2359 64.9566 45.3939C64.9566 45.4888 64.925 45.6152 64.8933 45.6784C64.8617 45.7417 64.7667 45.8365 64.6717 45.8681C64.5768 45.9313 64.4502 45.9313 64.3235 45.9313C64.1336 45.9313 63.9753 45.8681 63.8171 45.7733C63.6588 45.6784 63.6271 45.5204 63.5955 45.3307H63.912C63.912 45.4256 63.9437 45.5204 64.0386 45.5836C64.1019 45.6468 64.1969 45.6784 64.3235 45.6784C64.4502 45.6784 64.5135 45.6468 64.5768 45.5836C64.6401 45.5204 64.6717 45.4572 64.6717 45.3307C64.6717 45.2043 64.6401 45.1094 64.5451 45.0462C64.4502 44.983 64.3235 44.9514 64.1653 44.9514H64.1019V44.6985H64.1653C64.3235 44.6985 64.4185 44.6669 64.5135 44.6353C64.5768 44.572 64.6401 44.5088 64.6401 44.414C64.6401 44.3192 64.6084 44.2559 64.5451 44.1927C64.4818 44.1295 64.4185 44.1295 64.2919 44.1295C64.1969 44.1295 64.1019 44.1611 64.0386 44.1927C63.9753 44.2559 63.9437 44.3192 63.9437 44.3824H63.6271C63.6271 44.2875 63.7221 44.1611 63.8171 44.0663Z" fill="white"/>
<path d="M74.8015 45.5835V45.3306L75.7195 44.0029H76.0994V45.299H76.3526V45.5835H76.0994V45.9944H75.7828V45.5835H74.8015ZM75.8145 44.319L75.1497 45.299H75.8145V44.319Z" fill="white"/>
<path d="M87.4322 44.2556H86.5141V44.793C86.5458 44.7297 86.6091 44.6981 86.6724 44.6665C86.7357 44.6349 86.8307 44.6033 86.9257 44.6033C87.0839 44.6033 87.2106 44.6349 87.3055 44.6981C87.4005 44.7613 87.4638 44.8562 87.5271 44.951C87.5588 45.0459 87.5904 45.1723 87.5904 45.2671C87.5904 45.3936 87.5588 45.52 87.5271 45.6465C87.4638 45.7413 87.4005 45.8361 87.3055 45.8994C87.2106 45.9626 87.0839 45.9942 86.9257 45.9942C86.7357 45.9942 86.5775 45.931 86.4508 45.8361C86.3242 45.7413 86.2609 45.6149 86.2292 45.4252H86.5458C86.5775 45.52 86.6091 45.5832 86.6724 45.6465C86.7357 45.7097 86.8307 45.7097 86.9257 45.7097C87.0523 45.7097 87.1473 45.6781 87.2106 45.5832C87.2739 45.4884 87.3055 45.3936 87.3055 45.2671C87.3055 45.1407 87.2739 45.0459 87.2106 44.951C87.1473 44.8878 87.0523 44.8562 86.9257 44.8562C86.8307 44.8562 86.7674 44.8878 86.7041 44.9194C86.6408 44.951 86.6091 45.0142 86.5775 45.1091H86.2926V43.9395H87.5271V44.2556H87.4322Z" fill="white"/>
<path d="M98.3848 44.2556C98.3215 44.224 98.2582 44.1923 98.1632 44.1923C98.0049 44.1923 97.91 44.2556 97.8467 44.3504C97.7834 44.4768 97.7517 44.6349 97.72 44.9194C97.7834 44.8246 97.8467 44.7613 97.9416 44.7297C98.0366 44.6981 98.1316 44.6665 98.2265 44.6665C98.3531 44.6665 98.4481 44.6981 98.5431 44.7297C98.638 44.793 98.7014 44.8562 98.7647 44.951C98.828 45.0459 98.828 45.1723 98.828 45.2987C98.828 45.4252 98.7963 45.5516 98.7647 45.6465C98.7014 45.7413 98.638 45.8361 98.5431 45.8994C98.4481 45.9626 98.3215 45.9942 98.1949 45.9942C98.0049 45.9942 97.8467 45.9626 97.7517 45.8678C97.6567 45.7729 97.5618 45.6781 97.5301 45.52C97.4985 45.362 97.4668 45.1723 97.4668 44.951C97.4668 44.2872 97.72 43.9395 98.1949 43.9395C98.3848 43.9395 98.5114 44.0027 98.6381 44.0975C98.733 44.1923 98.7963 44.3188 98.828 44.4768H98.5431C98.4798 44.3504 98.4481 44.2872 98.3848 44.2556ZM97.8783 45.0142C97.815 45.0775 97.7517 45.1723 97.7517 45.2987C97.7517 45.4252 97.7834 45.52 97.8467 45.6149C97.91 45.6781 98.0366 45.7413 98.1632 45.7413C98.2898 45.7413 98.3848 45.7097 98.4481 45.6465C98.5114 45.5832 98.5431 45.4884 98.5431 45.362C98.5431 45.2355 98.5114 45.1407 98.4481 45.0459C98.3848 44.951 98.2898 44.9194 98.1632 44.9194C98.0366 44.9194 97.9416 44.951 97.8783 45.0142Z" fill="white"/>
<path opacity="0.1" d="M37.4482 58.9237H28.648C28.2365 58.9237 27.9199 58.6076 27.9199 58.1967V51.7163C27.9199 51.3054 28.2365 50.9893 28.648 50.9893H37.4482C37.8597 50.9893 38.1763 51.3054 38.1763 51.7163V58.1967C38.2079 58.576 37.8597 58.9237 37.4482 58.9237Z" fill="white"/>
<path opacity="0.1" d="M48.7492 58.9237H39.949C39.5375 58.9237 39.2209 58.6076 39.2209 58.1967V51.7163C39.2209 51.3054 39.5375 50.9893 39.949 50.9893H48.7492C49.1607 50.9893 49.4773 51.3054 49.4773 51.7163V58.1967C49.4773 58.576 49.1607 58.9237 48.7492 58.9237Z" fill="white"/>
<path opacity="0.1" d="M60.0185 58.9237H51.2183C50.8068 58.9237 50.4902 58.6076 50.4902 58.1967V51.7163C50.4902 51.3054 50.8068 50.9893 51.2183 50.9893H60.0185C60.43 50.9893 60.7466 51.3054 60.7466 51.7163V58.1967C60.7466 58.576 60.43 58.9237 60.0185 58.9237Z" fill="white"/>
<path opacity="0.1" d="M71.2878 58.9237H62.4876C62.0761 58.9237 61.7595 58.6076 61.7595 58.1967V51.7163C61.7595 51.3054 62.0761 50.9893 62.4876 50.9893H71.2878C71.6993 50.9893 72.0159 51.3054 72.0159 51.7163V58.1967C72.0475 58.576 71.6993 58.9237 71.2878 58.9237Z" fill="white"/>
<path opacity="0.1" d="M82.5888 58.9237H73.7886C73.3771 58.9237 73.0605 58.6076 73.0605 58.1967V51.7163C73.0605 51.3054 73.3771 50.9893 73.7886 50.9893H82.5888C83.0003 50.9893 83.3169 51.3054 83.3169 51.7163V58.1967C83.3169 58.576 82.9687 58.9237 82.5888 58.9237Z" fill="white"/>
<path opacity="0.1" d="M93.8581 58.9237H85.0579C84.6464 58.9237 84.3298 58.6076 84.3298 58.1967V51.7163C84.3298 51.3054 84.6464 50.9893 85.0579 50.9893H93.8581C94.2696 50.9893 94.5862 51.3054 94.5862 51.7163V58.1967C94.5862 58.576 94.2696 58.9237 93.8581 58.9237Z" fill="white"/>
<path opacity="0.1" d="M105.127 58.9237H96.3272C95.9157 58.9237 95.5991 58.6076 95.5991 58.1967V51.7163C95.5991 51.3054 95.9157 50.9893 96.3272 50.9893H105.127C105.539 50.9893 105.855 51.3054 105.855 51.7163V58.1967C105.887 58.576 105.539 58.9237 105.127 58.9237Z" fill="white"/>
<path d="M31.117 53.234L30.3572 55.0042H30.0407L30.8321 53.2656H29.8191V53.0127H31.1486V53.234H31.117Z" fill="white"/>
<path d="M41.057 53.4866C41.057 53.3918 41.0886 53.2969 41.1203 53.2021C41.1836 53.1073 41.2469 53.0441 41.3419 53.0124C41.4368 52.9492 41.5635 52.9492 41.7217 52.9492C41.8483 52.9492 41.975 52.9808 42.1016 53.0124C42.1966 53.0757 42.2915 53.1389 42.3232 53.2021C42.3548 53.2653 42.3865 53.3918 42.3865 53.4866C42.3865 53.5814 42.3548 53.6763 42.3232 53.7711C42.2599 53.8343 42.1966 53.8976 42.1016 53.9608C42.1966 53.9924 42.2915 54.0556 42.3548 54.1505C42.4181 54.2453 42.4498 54.3401 42.4498 54.4666C42.4498 54.593 42.4181 54.6878 42.3548 54.7827C42.2915 54.8775 42.1966 54.9407 42.1016 55.004C42.0066 55.0672 41.88 55.0672 41.7217 55.0672C41.5635 55.0672 41.4685 55.0356 41.3419 55.004C41.2469 54.9407 41.1519 54.8775 41.0886 54.7827C41.0253 54.6878 40.9937 54.593 40.9937 54.4666C40.9937 54.3401 41.0253 54.2453 41.0886 54.1505C41.1519 54.0556 41.2469 53.9924 41.3419 53.9608C41.1519 53.8659 41.057 53.7079 41.057 53.4866ZM41.4368 54.1821C41.3735 54.2453 41.3102 54.3401 41.3102 54.435C41.3102 54.5298 41.3419 54.6246 41.4368 54.6878C41.5318 54.7511 41.6268 54.7827 41.7534 54.7827C41.88 54.7827 41.975 54.7511 42.0383 54.6878C42.1016 54.6246 42.1332 54.5298 42.1332 54.435C42.1332 54.3401 42.1016 54.2453 42.0066 54.1821C41.9433 54.1188 41.8483 54.0872 41.7217 54.0872C41.6268 54.0872 41.5001 54.1188 41.4368 54.1821ZM42.0066 53.2969C41.9433 53.2337 41.8483 53.2021 41.7534 53.2021C41.6268 53.2021 41.5635 53.2337 41.5001 53.2969C41.4368 53.3602 41.4052 53.4234 41.4052 53.5498C41.4052 53.6447 41.4368 53.7079 41.5001 53.7711C41.5635 53.8343 41.6584 53.8659 41.7534 53.8659C41.8483 53.8659 41.9433 53.8343 42.0066 53.7711C42.0699 53.7079 42.1016 53.6447 42.1016 53.5498C42.1016 53.4234 42.0699 53.3602 42.0066 53.2969Z" fill="white"/>
<path d="M52.8011 54.6562C52.8644 54.7195 52.9594 54.7195 53.0543 54.7195C53.181 54.7195 53.2759 54.6562 53.3392 54.5614C53.4025 54.4666 53.4342 54.2769 53.4342 54.024C53.4025 54.0872 53.3392 54.1505 53.2443 54.1821C53.1493 54.2137 53.086 54.2453 52.991 54.2453C52.8644 54.2453 52.7694 54.2137 52.6745 54.1821C52.5795 54.1188 52.4845 54.0556 52.4529 53.9608C52.4212 53.8659 52.3579 53.7395 52.3579 53.6131C52.3579 53.4234 52.4212 53.2337 52.5478 53.1389C52.6745 53.0124 52.8327 52.9492 53.0543 52.9492C53.3076 52.9492 53.4975 53.0441 53.5925 53.2021C53.6874 53.3602 53.7508 53.6131 53.7508 53.9608C53.7508 54.2137 53.7191 54.4033 53.6874 54.5298C53.6558 54.6878 53.5925 54.7827 53.4658 54.8775C53.3709 54.9407 53.2443 55.004 53.0543 55.004C52.8644 55.004 52.7061 54.9407 52.6112 54.8459C52.5162 54.7511 52.4529 54.6246 52.4212 54.4666H52.7061C52.7061 54.5614 52.7378 54.6246 52.8011 54.6562ZM53.3076 53.8976C53.3709 53.8343 53.4025 53.7395 53.4025 53.6131C53.4025 53.4866 53.3709 53.3918 53.3076 53.3286C53.2443 53.2653 53.1493 53.2337 53.0227 53.2337C52.8961 53.2337 52.8011 53.2653 52.7378 53.3286C52.6745 53.3918 52.6428 53.4866 52.6428 53.6131C52.6428 53.7395 52.6745 53.8027 52.7378 53.8976C52.8011 53.9608 52.8961 53.9924 53.0227 53.9924C53.1493 53.9924 53.2443 53.9608 53.3076 53.8976Z" fill="white"/>
<path d="M63.0574 53.265V52.9805H63.6272V55.0036H63.3106V53.265H63.0574Z" fill="white"/>
<path d="M64.2286 53.2337C64.3236 53.0441 64.5135 52.9492 64.7984 52.9492C65.0833 52.9492 65.2416 53.0441 65.3682 53.2337C65.4632 53.4234 65.5265 53.6763 65.5265 53.9924C65.5265 54.3085 65.4632 54.5614 65.3682 54.7511C65.2732 54.9407 65.0833 55.0356 64.7984 55.0356C64.5135 55.0356 64.3552 54.9407 64.2286 54.7511C64.1336 54.5614 64.0703 54.3085 64.0703 53.9924C64.0703 53.6447 64.102 53.3918 64.2286 53.2337ZM65.1466 53.5814C65.1149 53.4866 65.0833 53.3918 65.02 53.3286C64.9567 53.2653 64.8617 53.2337 64.7667 53.2337C64.6401 53.2337 64.5768 53.2653 64.5135 53.3286C64.4502 53.3918 64.4185 53.4866 64.3869 53.5814C64.3552 53.6763 64.3552 53.8027 64.3552 53.9608C64.3552 54.1188 64.3552 54.2453 64.3869 54.3401C64.4185 54.435 64.4502 54.5298 64.5135 54.593C64.5768 54.6562 64.6718 54.6878 64.7667 54.6878C64.8934 54.6878 64.9567 54.6562 65.02 54.593C65.0833 54.5298 65.1149 54.435 65.1466 54.3401C65.1783 54.2453 65.1783 54.1188 65.1783 53.9608C65.1783 53.8343 65.1783 53.7079 65.1466 53.5814Z" fill="white"/>
<path d="M74.7383 53.265V52.9805H75.3081V55.0036H74.9915V53.265H74.7383Z" fill="white"/>
<path d="M75.688 53.265V52.9805H76.2578V55.0036H75.9412V53.265H75.688Z" fill="white"/>
<path d="M85.6909 53.265V52.9805H86.2607V55.0036H85.9442V53.265H85.6909Z" fill="white"/>
<path d="M86.8622 54.5926C87.0521 54.4346 87.1788 54.3081 87.2737 54.2133C87.3687 54.1185 87.4637 54.0236 87.527 53.8972C87.5903 53.8024 87.6219 53.6759 87.6219 53.5811C87.6219 53.4546 87.5903 53.3914 87.5586 53.3282C87.4953 53.265 87.432 53.2334 87.3054 53.2334C87.2104 53.2334 87.1155 53.265 87.0521 53.3282C86.9888 53.3914 86.9572 53.4863 86.9572 53.6127H86.6406C86.6406 53.3914 86.7039 53.2334 86.8305 53.1385C86.9572 53.0121 87.1154 52.9805 87.3054 52.9805C87.4953 52.9805 87.6536 53.0437 87.7802 53.1385C87.9068 53.265 87.9385 53.3914 87.9385 53.5811C87.9385 53.7075 87.9068 53.834 87.8435 53.9604C87.7802 54.0869 87.6853 54.1817 87.5903 54.2765C87.4953 54.3714 87.3687 54.4978 87.2421 54.6243L87.1155 54.7507H88.0018V55.0036H86.6406V54.7823L86.8622 54.5926Z" fill="white"/>
<path d="M96.9602 53.265V52.9805H97.53V55.0036H97.2135V53.265H96.9602Z" fill="white"/>
<path d="M98.1632 53.075C98.2899 52.9802 98.4481 52.917 98.6381 52.917C98.7647 52.917 98.8913 52.9486 98.9863 52.9802C99.0813 53.0118 99.1446 53.0751 99.2079 53.1699C99.2712 53.2647 99.2712 53.3279 99.2712 53.4228C99.2712 53.5492 99.2395 53.6441 99.1762 53.7073C99.1129 53.7705 99.0496 53.8337 98.9546 53.8653C99.0496 53.8969 99.1446 53.9602 99.2079 54.055C99.2712 54.1498 99.3028 54.2447 99.3028 54.4027C99.3028 54.4976 99.2712 54.624 99.2395 54.6872C99.1762 54.7821 99.1129 54.8453 99.0179 54.8769C98.923 54.9401 98.7964 54.9401 98.6697 54.9401C98.4798 54.9401 98.3215 54.8769 98.1632 54.7821C98.0366 54.6872 97.9733 54.5292 97.9417 54.3395H98.2582C98.2582 54.4343 98.2899 54.5292 98.3848 54.5924C98.4481 54.6556 98.5431 54.6872 98.6697 54.6872C98.7964 54.6872 98.8597 54.6556 98.923 54.5924C98.9863 54.5292 99.0179 54.466 99.0179 54.3395C99.0179 54.2131 98.9863 54.1182 98.8913 54.055C98.7963 53.9918 98.6697 53.9602 98.5115 53.9602H98.4481V53.7073H98.5115C98.6697 53.7073 98.7647 53.6757 98.8597 53.6441C98.923 53.5808 98.9863 53.5176 98.9863 53.4228C98.9863 53.3279 98.9546 53.2647 98.8913 53.2015C98.828 53.1383 98.7647 53.1383 98.6381 53.1383C98.5431 53.1383 98.4481 53.1699 98.3848 53.2015C98.3215 53.2647 98.2899 53.3279 98.2899 53.3912H97.9733C97.9733 53.3279 98.0366 53.1699 98.1632 53.075Z" fill="white"/>
<path opacity="0.1" d="M37.4482 67.9325H28.648C28.2365 67.9325 27.9199 67.6164 27.9199 67.2054V60.7251C27.9199 60.3142 28.2365 59.998 28.648 59.998H37.4482C37.8597 59.998 38.1763 60.3142 38.1763 60.7251V67.2054C38.2079 67.6164 37.8597 67.9325 37.4482 67.9325Z" fill="white"/>
<path opacity="0.1" d="M48.7492 67.9325H39.949C39.5375 67.9325 39.2209 67.6164 39.2209 67.2054V60.7251C39.2209 60.3142 39.5375 59.998 39.949 59.998H48.7492C49.1607 59.998 49.4773 60.3142 49.4773 60.7251V67.2054C49.4773 67.6164 49.1607 67.9325 48.7492 67.9325Z" fill="white"/>
<path opacity="0.1" d="M60.0185 67.9325H51.2183C50.8068 67.9325 50.4902 67.6164 50.4902 67.2054V60.7251C50.4902 60.3142 50.8068 59.998 51.2183 59.998H60.0185C60.43 59.998 60.7466 60.3142 60.7466 60.7251V67.2054C60.7466 67.6164 60.43 67.9325 60.0185 67.9325Z" fill="white"/>
<path opacity="0.1" d="M71.2878 67.9325H62.4876C62.0761 67.9325 61.7595 67.6164 61.7595 67.2054V60.7251C61.7595 60.3142 62.0761 59.998 62.4876 59.998H71.2878C71.6993 59.998 72.0159 60.3142 72.0159 60.7251V67.2054C72.0475 67.6164 71.6993 67.9325 71.2878 67.9325Z" fill="white"/>
<path opacity="0.1" d="M82.5888 67.9325H73.7886C73.3771 67.9325 73.0605 67.6164 73.0605 67.2054V60.7251C73.0605 60.3142 73.3771 59.998 73.7886 59.998H82.5888C83.0003 59.998 83.3169 60.3142 83.3169 60.7251V67.2054C83.3169 67.6164 82.9687 67.9325 82.5888 67.9325Z" fill="white"/>
<path opacity="0.1" d="M93.8581 67.9325H85.0579C84.6464 67.9325 84.3298 67.6164 84.3298 67.2054V60.7251C84.3298 60.3142 84.6464 59.998 85.0579 59.998H93.8581C94.2696 59.998 94.5862 60.3142 94.5862 60.7251V67.2054C94.5862 67.6164 94.2696 67.9325 93.8581 67.9325Z" fill="white"/>
<path opacity="0.1" d="M105.127 67.9325H96.3272C95.9157 67.9325 95.5991 67.6164 95.5991 67.2054V60.7251C95.5991 60.3142 95.9157 59.998 96.3272 59.998H105.127C105.539 59.998 105.855 60.3142 105.855 60.7251V67.2054C105.887 67.6164 105.539 67.9325 105.127 67.9325Z" fill="white"/>
<path d="M29.186 62.306V62.0215H29.7558V64.0446H29.4393V62.306H29.186Z" fill="white"/>
<path d="M30.1672 63.6021V63.3492L31.0852 62.0215H31.4651V63.3176H31.7183V63.6021H31.4651V64.013H31.1486V63.6021H30.1672ZM31.1802 62.3692L30.5154 63.3492H31.1802V62.3692Z" fill="white"/>
<path d="M40.4871 62.306V62.0215H41.0569V64.0446H40.7403V62.306H40.4871Z" fill="white"/>
<path d="M42.7979 62.2741H41.8799V62.8115C41.9115 62.7483 41.9748 62.7167 42.0381 62.6851C42.1015 62.6535 42.1964 62.6218 42.2914 62.6218C42.4497 62.6218 42.5763 62.6535 42.6713 62.7167C42.7662 62.7799 42.8295 62.8747 42.8928 62.9696C42.9245 63.0644 42.9562 63.1909 42.9562 63.2857C42.9562 63.4121 42.9245 63.5386 42.8928 63.665C42.8295 63.7599 42.7662 63.8547 42.6713 63.9179C42.5763 63.9811 42.4497 64.0127 42.2914 64.0127C42.1015 64.0127 41.9432 63.9495 41.8166 63.8547C41.6899 63.7599 41.6266 63.6334 41.595 63.4437H41.9115C41.9432 63.5386 41.9748 63.6018 42.0381 63.665C42.1015 63.7282 42.1964 63.7282 42.2914 63.7282C42.418 63.7282 42.513 63.6966 42.5763 63.6018C42.6396 63.507 42.6713 63.4121 42.6713 63.2857C42.6713 63.1592 42.6396 63.0644 42.5763 62.9696C42.513 62.9063 42.418 62.8747 42.2914 62.8747C42.1964 62.8747 42.1331 62.9064 42.0698 62.938C42.0065 62.9696 41.9748 63.0328 41.9432 63.1276H41.6583V61.958H42.8928V62.2741H42.7979Z" fill="white"/>
<path d="M51.7563 62.306V62.0215H52.3261V64.0446H52.0096V62.306H51.7563Z" fill="white"/>
<path d="M53.7505 62.2741C53.6872 62.2425 53.6239 62.2109 53.5289 62.2109C53.3707 62.2109 53.2757 62.2741 53.2124 62.369C53.1491 62.4954 53.1174 62.6535 53.0858 62.938C53.1491 62.8431 53.2124 62.7799 53.3074 62.7483C53.4023 62.7167 53.4973 62.6851 53.5923 62.6851C53.7189 62.6851 53.8138 62.7167 53.9088 62.7483C54.0038 62.8115 54.0671 62.8747 54.1304 62.9696C54.1937 63.0644 54.1937 63.1909 54.1937 63.3173C54.1937 63.4437 54.162 63.5702 54.1304 63.665C54.0987 63.7599 54.0038 63.8547 53.9088 63.9179C53.8138 63.9811 53.6872 64.0127 53.5606 64.0127C53.3707 64.0127 53.2124 63.9811 53.1174 63.8863C53.0225 63.7915 52.9275 63.6966 52.8958 63.5386C52.8642 63.3805 52.8325 63.1909 52.8325 62.9696C52.8325 62.3057 53.0858 61.958 53.5606 61.958C53.7505 61.958 53.8772 62.0212 54.0038 62.1161C54.0987 62.2109 54.162 62.3373 54.1937 62.4954H53.9088C53.8455 62.4006 53.8138 62.3373 53.7505 62.2741ZM53.244 63.0644C53.1807 63.1276 53.1174 63.2225 53.1174 63.3489C53.1174 63.4754 53.1491 63.5702 53.2124 63.665C53.2757 63.7599 53.4023 63.7915 53.5289 63.7915C53.6556 63.7915 53.7505 63.7599 53.8138 63.6966C53.8772 63.6334 53.9088 63.5386 53.9088 63.4121C53.9088 63.2857 53.8772 63.1909 53.8138 63.096C53.7505 63.0328 53.6556 62.9696 53.5289 62.9696C53.4023 62.9696 53.3074 63.0012 53.244 63.0644Z" fill="white"/>
<path d="M63.1523 62.306V62.0215H63.7221V64.0446H63.4056V62.306H63.1523Z" fill="white"/>
<path d="M65.4632 62.2428L64.7034 64.013H64.3869L65.1783 62.2744H64.1653V62.0215H65.4948V62.2428H65.4632Z" fill="white"/>
<path d="M74.3267 62.306V62.0215H74.8965V64.0446H74.5799V62.306H74.3267Z" fill="white"/>
<path d="M75.4029 62.5276C75.4029 62.4328 75.4346 62.338 75.4662 62.2431C75.5295 62.1483 75.5928 62.0851 75.6878 62.0535C75.7828 61.9902 75.9094 61.9902 76.0677 61.9902C76.1943 61.9902 76.3209 62.0218 76.4475 62.0535C76.5425 62.1167 76.6375 62.1799 76.6691 62.2431C76.7324 62.338 76.7324 62.4328 76.7324 62.5276C76.7324 62.6225 76.7008 62.7173 76.6691 62.8121C76.6058 62.8754 76.5425 62.9386 76.4475 63.0018C76.5425 63.0334 76.6375 63.0966 76.7008 63.1915C76.7641 63.2863 76.7958 63.3811 76.7958 63.5076C76.7958 63.634 76.7641 63.7289 76.7008 63.8237C76.6375 63.9185 76.5425 63.9818 76.4475 64.045C76.3526 64.1082 76.226 64.1082 76.0677 64.1082C75.9411 64.1082 75.8144 64.0766 75.6878 64.045C75.5928 63.9818 75.4979 63.9185 75.4346 63.8237C75.3713 63.7289 75.3396 63.634 75.3396 63.5076C75.3396 63.3811 75.3713 63.2863 75.4346 63.1915C75.4979 63.0966 75.5928 63.0334 75.6878 63.0018C75.4979 62.8754 75.4029 62.7173 75.4029 62.5276ZM75.7511 63.1915C75.6878 63.2547 75.6245 63.3495 75.6245 63.4444C75.6245 63.5392 75.6562 63.634 75.7511 63.6972C75.8144 63.7605 75.9411 63.7921 76.0677 63.7921C76.1943 63.7921 76.2893 63.7605 76.3526 63.6972C76.4159 63.634 76.4475 63.5392 76.4475 63.4444C76.4475 63.3495 76.4159 63.2547 76.3209 63.1915C76.2576 63.1282 76.1626 63.0966 76.036 63.0966C75.9094 63.0966 75.8461 63.1282 75.7511 63.1915ZM76.3209 62.3063C76.2576 62.2431 76.1626 62.2115 76.0677 62.2115C75.9411 62.2115 75.8777 62.2431 75.8144 62.3063C75.7511 62.3696 75.7195 62.4328 75.7195 62.5592C75.7195 62.6541 75.7511 62.7173 75.8144 62.7805C75.8777 62.8437 75.9727 62.8753 76.0677 62.8753C76.1626 62.8753 76.2576 62.8437 76.3209 62.7805C76.3842 62.7173 76.4159 62.6541 76.4159 62.5592C76.4159 62.4644 76.3842 62.3696 76.3209 62.3063Z" fill="white"/>
<path d="M85.5962 62.306V62.0215H86.166V64.0446H85.8494V62.306H85.5962Z" fill="white"/>
<path d="M87.1473 63.6972C87.2106 63.7605 87.3056 63.7605 87.4005 63.7605C87.5271 63.7605 87.6221 63.6972 87.6854 63.6024C87.7487 63.5076 87.7804 63.3179 87.7804 63.065C87.7487 63.1282 87.6854 63.1915 87.5905 63.2231C87.4955 63.2547 87.4322 63.2863 87.3372 63.2863C87.2106 63.2863 87.1156 63.2547 87.0207 63.2231C86.9257 63.1599 86.8307 63.0966 86.7991 63.0018C86.7674 62.907 86.7041 62.7805 86.7041 62.6541C86.7041 62.4644 86.7674 62.2747 86.894 62.1799C87.0207 62.0535 87.1789 61.9902 87.4005 61.9902C87.6538 61.9902 87.8437 62.0851 87.9387 62.2431C88.0336 62.4012 88.0969 62.6541 88.0969 63.0018C88.0969 63.2547 88.0653 63.4444 88.0336 63.5708C88.002 63.7289 87.9387 63.8237 87.812 63.9185C87.6854 64.0134 87.5905 64.045 87.4005 64.045C87.2106 64.045 87.0523 63.9818 86.9574 63.8869C86.8624 63.7921 86.7991 63.6656 86.7674 63.5076H87.0523C87.0207 63.5708 87.084 63.634 87.1473 63.6972ZM87.6221 62.907C87.6854 62.8437 87.7171 62.7489 87.7171 62.6225C87.7171 62.496 87.6854 62.4012 87.6221 62.338C87.5588 62.2747 87.4638 62.2431 87.3372 62.2431C87.2106 62.2431 87.1156 62.2747 87.0523 62.338C86.989 62.4012 86.9574 62.496 86.9574 62.6225C86.9574 62.7489 86.989 62.8121 87.0523 62.907C87.1156 62.9702 87.2106 63.0018 87.3372 63.0018C87.4638 63.0018 87.5588 62.9702 87.6221 62.907Z" fill="white"/>
<path d="M96.7704 63.6014C96.9604 63.4434 97.087 63.3169 97.1819 63.2221C97.2769 63.1273 97.3719 63.0324 97.4352 62.906C97.4985 62.8112 97.5301 62.6847 97.5301 62.5899C97.5301 62.4634 97.4985 62.4002 97.4668 62.337C97.4035 62.2738 97.3402 62.2421 97.2136 62.2421C97.1186 62.2421 97.0237 62.2738 96.9603 62.337C96.897 62.4002 96.8654 62.495 96.8654 62.6215H96.5488C96.5488 62.4002 96.6121 62.2421 96.7388 62.1473C96.8654 62.0209 97.0237 61.9893 97.2136 61.9893C97.4035 61.9893 97.5618 62.0525 97.6884 62.1473C97.815 62.2738 97.8467 62.4002 97.8467 62.5899C97.8467 62.7163 97.815 62.8428 97.7517 62.9692C97.6884 63.0957 97.5935 63.1905 97.4985 63.2853C97.4035 63.3802 97.2769 63.5066 97.1503 63.6331L97.0237 63.7595H97.91V64.0124H96.5488V63.7911L96.7704 63.6014Z" fill="white"/>
<path d="M98.3848 62.2425C98.4798 62.0528 98.6698 61.958 98.9547 61.958C99.2396 61.958 99.3978 62.0528 99.5244 62.2425C99.6194 62.4322 99.6827 62.6851 99.6827 63.0012C99.6827 63.3173 99.6194 63.5702 99.5244 63.7599C99.4295 63.9495 99.2396 64.0444 98.9547 64.0444C98.6698 64.0444 98.5115 63.9495 98.3848 63.7599C98.2582 63.5702 98.2266 63.3173 98.2266 63.0012C98.1949 62.6851 98.2582 62.4322 98.3848 62.2425ZM99.3029 62.6218C99.2712 62.527 99.2395 62.4322 99.1762 62.369C99.1129 62.3057 99.018 62.2741 98.923 62.2741C98.828 62.2741 98.7331 62.3057 98.6698 62.369C98.6064 62.4322 98.5748 62.527 98.5431 62.6218C98.5115 62.7167 98.5115 62.8431 98.5115 63.0012C98.5115 63.1592 98.5115 63.2857 98.5431 63.3805C98.5748 63.4754 98.6064 63.5702 98.6698 63.6334C98.7331 63.6966 98.828 63.7282 98.923 63.7282C99.018 63.7282 99.1129 63.6966 99.1762 63.6334C99.2395 63.5702 99.2712 63.4754 99.3029 63.3805C99.3345 63.2857 99.3345 63.1592 99.3345 63.0012C99.3345 62.8431 99.3345 62.7167 99.3029 62.6218Z" fill="white"/>
<path opacity="0.1" d="M37.4482 76.9735H28.648C28.2365 76.9735 27.9199 76.6574 27.9199 76.2465V69.7661C27.9199 69.3552 28.2365 69.0391 28.648 69.0391H37.4482C37.8597 69.0391 38.1763 69.3552 38.1763 69.7661V76.2465C38.2079 76.6258 37.8597 76.9735 37.4482 76.9735Z" fill="white"/>
<path opacity="0.1" d="M48.7492 76.9735H39.949C39.5375 76.9735 39.2209 76.6574 39.2209 76.2465V69.7661C39.2209 69.3552 39.5375 69.0391 39.949 69.0391H48.7492C49.1607 69.0391 49.4773 69.3552 49.4773 69.7661V76.2465C49.4773 76.6258 49.1607 76.9735 48.7492 76.9735Z" fill="white"/>
<path opacity="0.1" d="M60.0185 76.9735H51.2183C50.8068 76.9735 50.4902 76.6574 50.4902 76.2465V69.7661C50.4902 69.3552 50.8068 69.0391 51.2183 69.0391H60.0185C60.43 69.0391 60.7466 69.3552 60.7466 69.7661V76.2465C60.7466 76.6258 60.43 76.9735 60.0185 76.9735Z" fill="white"/>
<path opacity="0.1" d="M71.2878 76.9735H62.4876C62.0761 76.9735 61.7595 76.6574 61.7595 76.2465V69.7661C61.7595 69.3552 62.0761 69.0391 62.4876 69.0391H71.2878C71.6993 69.0391 72.0159 69.3552 72.0159 69.7661V76.2465C72.0475 76.6258 71.6993 76.9735 71.2878 76.9735Z" fill="white"/>
<path opacity="0.1" d="M82.5888 76.9735H73.7886C73.3771 76.9735 73.0605 76.6574 73.0605 76.2465V69.7661C73.0605 69.3552 73.3771 69.0391 73.7886 69.0391H82.5888C83.0003 69.0391 83.3169 69.3552 83.3169 69.7661V76.2465C83.3169 76.6258 82.9687 76.9735 82.5888 76.9735Z" fill="white"/>
<path opacity="0.1" d="M93.8581 76.9735H85.0579C84.6464 76.9735 84.3298 76.6574 84.3298 76.2465V69.7661C84.3298 69.3552 84.6464 69.0391 85.0579 69.0391H93.8581C94.2696 69.0391 94.5862 69.3552 94.5862 69.7661V76.2465C94.5862 76.6258 94.2696 76.9735 93.8581 76.9735Z" fill="white"/>
<path opacity="0.9" d="M105.127 76.9735H96.3272C95.9157 76.9735 95.5991 76.6574 95.5991 76.2465V69.7661C95.5991 69.3552 95.9157 69.0391 96.3272 69.0391H105.127C105.539 69.0391 105.855 69.3552 105.855 69.7661V76.2465C105.887 76.6258 105.539 76.9735 105.127 76.9735Z" fill="white"/>
<path d="M29.5026 72.6112C29.6925 72.4531 29.8191 72.3267 29.9141 72.2319C30.0091 72.137 30.104 72.0422 30.1674 71.9158C30.2307 71.8209 30.2623 71.6945 30.2623 71.5996C30.2623 71.4732 30.2307 71.41 30.199 71.3467C30.1674 71.2835 30.0724 71.2519 29.9458 71.2519C29.8508 71.2519 29.7558 71.2835 29.6925 71.3467C29.6292 71.41 29.5976 71.5048 29.5976 71.6313H29.281C29.281 71.41 29.3443 71.2519 29.4709 71.1571C29.5976 71.0306 29.7558 70.999 29.9458 70.999C30.1357 70.999 30.294 71.0622 30.4206 71.1571C30.5472 71.2835 30.5789 71.41 30.5789 71.5996C30.5789 71.7261 30.5472 71.8525 30.4839 71.979C30.4206 72.1054 30.3256 72.2003 30.2307 72.2951C30.1357 72.3899 30.0091 72.5164 29.8825 72.6428L29.7558 72.7693H30.6422V73.0222H29.281V72.8009L29.5026 72.6112Z" fill="white"/>
<path d="M30.8955 71.3148V71.0303H31.4653V73.0534H31.1488V71.3148H30.8955Z" fill="white"/>
<path d="M40.487 72.6112C40.6769 72.4531 40.8035 72.3267 40.8985 72.2319C40.9935 72.137 41.0884 72.0422 41.1517 71.9158C41.215 71.8209 41.2467 71.6945 41.2467 71.5996C41.2467 71.4732 41.215 71.41 41.1834 71.3467C41.1517 71.2835 41.0568 71.2519 40.9301 71.2519C40.8352 71.2519 40.7402 71.2835 40.6769 71.3467C40.6136 71.41 40.5819 71.5048 40.5819 71.6313H40.2654C40.2654 71.41 40.3287 71.2519 40.4553 71.1571C40.5819 71.0306 40.7402 70.999 40.9301 70.999C41.1201 70.999 41.2784 71.0622 41.405 71.1571C41.5316 71.2835 41.5633 71.41 41.5633 71.5996C41.5633 71.7261 41.5316 71.8525 41.4683 71.979C41.405 72.1054 41.31 72.2003 41.215 72.2951C41.1201 72.3899 40.9935 72.5164 40.8668 72.6428L40.7402 72.7693H41.6266V73.0222H40.2654V72.8009L40.487 72.6112Z" fill="white"/>
<path d="M42.0697 72.6112C42.2597 72.4531 42.3863 72.3267 42.4813 72.2319C42.5762 72.137 42.6712 72.0422 42.7345 71.9158C42.7978 71.8209 42.8295 71.6945 42.8295 71.5996C42.8295 71.4732 42.7978 71.41 42.7662 71.3467C42.7345 71.2835 42.6395 71.2519 42.5129 71.2519C42.4179 71.2519 42.323 71.2835 42.2597 71.3467C42.1964 71.41 42.1647 71.5048 42.1647 71.6313H41.8481C41.8481 71.41 41.9115 71.2519 42.0381 71.1571C42.1647 71.0306 42.323 70.999 42.5129 70.999C42.7028 70.999 42.8611 71.0622 42.9877 71.1571C43.1144 71.2835 43.146 71.41 43.146 71.5996C43.146 71.7261 43.1144 71.8525 43.0511 71.979C42.9877 72.1054 42.8928 72.2003 42.7978 72.2951C42.7028 72.3899 42.5762 72.5164 42.4496 72.6428L42.323 72.7693H43.2093V73.0222H41.8481V72.8009L42.0697 72.6112Z" fill="white"/>
<path d="M51.7248 72.6112C51.9147 72.4531 52.0413 72.3267 52.1363 72.2319C52.2312 72.137 52.3262 72.0422 52.3895 71.9158C52.4528 71.8209 52.4845 71.6945 52.4845 71.5996C52.4845 71.4732 52.4528 71.41 52.4212 71.3467C52.3895 71.2835 52.2946 71.2519 52.1679 71.2519C52.073 71.2519 51.978 71.2835 51.9147 71.3467C51.8514 71.41 51.8197 71.5048 51.8197 71.6313H51.5032C51.5032 71.41 51.5665 71.2519 51.6931 71.1571C51.8197 71.0306 51.978 70.999 52.1679 70.999C52.3579 70.999 52.5161 71.0622 52.6428 71.1571C52.7694 71.2835 52.801 71.41 52.801 71.5996C52.801 71.7261 52.7694 71.8525 52.7061 71.979C52.6428 72.1054 52.5478 72.2003 52.4528 72.2951C52.3579 72.3899 52.2313 72.5164 52.1046 72.6428L51.978 72.7693H52.8644V73.0222H51.5032V72.8009L51.7248 72.6112Z" fill="white"/>
<path d="M53.3393 71.1258C53.4659 71.031 53.6242 70.9678 53.8141 70.9678C53.9407 70.9678 54.0673 70.9994 54.1623 71.031C54.2573 71.0626 54.3206 71.1258 54.3839 71.2207C54.4472 71.3155 54.4472 71.3787 54.4472 71.4736C54.4472 71.6 54.4155 71.6948 54.3522 71.7581C54.2889 71.8529 54.2256 71.8845 54.1306 71.9161C54.2256 71.9477 54.3206 72.011 54.3839 72.1058C54.4472 72.2006 54.4789 72.2955 54.4789 72.4535C54.4789 72.5483 54.4472 72.6748 54.4155 72.738C54.3839 72.8012 54.2889 72.8961 54.194 72.9277C54.099 72.9909 53.9724 72.9909 53.8458 72.9909C53.6558 72.9909 53.4975 72.9277 53.3393 72.8328C53.181 72.738 53.1493 72.58 53.1177 72.3903H53.4342C53.4342 72.4851 53.4659 72.58 53.5608 72.6432C53.6242 72.7064 53.7191 72.738 53.8458 72.738C53.9724 72.738 54.0357 72.7064 54.099 72.6432C54.1623 72.58 54.194 72.5167 54.194 72.3903C54.194 72.2638 54.1623 72.169 54.0673 72.1058C53.9724 72.0426 53.8458 72.011 53.6875 72.011H53.6242V71.7581H53.6875C53.8458 71.7581 53.9407 71.7264 54.0357 71.6948C54.099 71.6316 54.1623 71.5684 54.1623 71.4736C54.1623 71.3787 54.1306 71.3155 54.0673 71.2523C54.004 71.1891 53.9407 71.1891 53.8141 71.1891C53.7191 71.1891 53.6242 71.2207 53.5608 71.2523C53.4975 71.3155 53.4659 71.3787 53.4659 71.4419H53.1493C53.1493 71.3471 53.2126 71.2207 53.3393 71.1258Z" fill="white"/>
<path d="M62.9308 72.6112C63.1207 72.4531 63.2474 72.3267 63.3423 72.2319C63.4373 72.137 63.5323 72.0422 63.5956 71.9158C63.6589 71.8209 63.6905 71.6945 63.6905 71.5996C63.6905 71.4732 63.6589 71.41 63.6272 71.3467C63.5956 71.2835 63.5006 71.2519 63.374 71.2519C63.279 71.2519 63.1841 71.2835 63.1207 71.3467C63.0574 71.41 63.0258 71.5048 63.0258 71.6313H62.7092C62.7092 71.41 62.7725 71.2519 62.8992 71.1571C63.0258 71.0306 63.1841 70.999 63.374 70.999C63.5639 70.999 63.7222 71.0622 63.8488 71.1571C63.9754 71.2835 64.0071 71.41 64.0071 71.5996C64.0071 71.7261 63.9754 71.8525 63.9121 71.979C63.8488 72.1054 63.7539 72.2003 63.6589 72.2951C63.5639 72.3899 63.4373 72.5164 63.3107 72.6428L63.1841 72.7693H64.0704V73.0222H62.7092V72.8009L62.9308 72.6112Z" fill="white"/>
<path d="M64.3237 72.6431V72.3902L65.2417 71.0625H65.6216V72.3586H65.8748V72.6431H65.6216V73.054H65.3051V72.6431H64.3237ZM65.3367 71.3786L64.6719 72.3586H65.3367V71.3786Z" fill="white"/>
<path d="M74.2318 72.6112C74.4218 72.4531 74.5484 72.3267 74.6434 72.2319C74.7383 72.137 74.8333 72.0422 74.8966 71.9158C74.9599 71.8209 74.9916 71.6945 74.9916 71.5996C74.9916 71.4732 74.9599 71.41 74.9283 71.3467C74.8649 71.2835 74.8016 71.2519 74.675 71.2519C74.58 71.2519 74.4851 71.2835 74.4218 71.3467C74.3585 71.41 74.3268 71.5048 74.3268 71.6313H74.0103C74.0103 71.41 74.0736 71.2519 74.2002 71.1571C74.3268 71.0306 74.4851 70.999 74.675 70.999C74.8649 70.999 75.0232 71.0622 75.1498 71.1571C75.2765 71.2835 75.3081 71.41 75.3081 71.5996C75.3081 71.7261 75.2765 71.8525 75.2132 71.979C75.1498 72.1054 75.0549 72.2003 74.9599 72.2951C74.865 72.3899 74.7383 72.5164 74.6117 72.6428L74.4851 72.7693H75.3714V73.0222H74.0103V72.8009L74.2318 72.6112Z" fill="white"/>
<path d="M76.9544 71.3151H76.0364V71.8525C76.068 71.7893 76.1313 71.7577 76.1946 71.7261C76.2579 71.6945 76.3529 71.6629 76.4479 71.6629C76.6062 71.6629 76.7328 71.6945 76.8277 71.7577C76.9227 71.8209 76.986 71.9158 77.0493 72.0106C77.081 72.1054 77.1126 72.2319 77.1126 72.3267C77.1126 72.4531 77.081 72.5796 77.0493 72.706C76.986 72.8009 76.9227 72.8957 76.8277 72.9589C76.7328 73.0222 76.6062 73.0538 76.4479 73.0538C76.258 73.0538 76.0997 72.9905 75.9731 72.8957C75.8464 72.8009 75.7831 72.6744 75.7515 72.4848H76.068C76.0997 72.5796 76.1313 72.6428 76.1946 72.706C76.2579 72.7693 76.3529 72.7693 76.4479 72.7693C76.5745 72.7693 76.6695 72.7377 76.7328 72.6428C76.7961 72.548 76.8277 72.4531 76.8277 72.3267C76.8277 72.2003 76.7961 72.1054 76.7328 72.0106C76.6695 71.9474 76.5745 71.9158 76.4479 71.9158C76.3529 71.9158 76.2896 71.9474 76.2263 71.979C76.163 72.0106 76.1313 72.0738 76.0997 72.1686H75.8148V70.999H77.0493V71.3151H76.9544Z" fill="white"/>
<path d="M85.5011 72.6112C85.6911 72.4531 85.8177 72.3267 85.9126 72.2319C86.0076 72.137 86.1026 72.0422 86.1659 71.9158C86.2292 71.8209 86.2609 71.6945 86.2609 71.5996C86.2609 71.4732 86.2292 71.41 86.1975 71.3467C86.1342 71.2835 86.0709 71.2519 85.9443 71.2519C85.8493 71.2519 85.7544 71.2835 85.6911 71.3467C85.6278 71.41 85.5961 71.5048 85.5961 71.6313H85.2795C85.2795 71.41 85.3429 71.2519 85.4695 71.1571C85.5961 71.0306 85.7544 70.999 85.9443 70.999C86.1342 70.999 86.2925 71.0622 86.4191 71.1571C86.5458 71.2835 86.5774 71.41 86.5774 71.5996C86.5774 71.7261 86.5458 71.8525 86.4825 71.979C86.4191 72.1054 86.3242 72.2003 86.2292 72.2951C86.1342 72.3899 86.0076 72.5164 85.881 72.6428L85.7544 72.7693H86.6407V73.0222H85.2795V72.8009L85.5011 72.6112Z" fill="white"/>
<path d="M87.907 71.3151C87.8437 71.2835 87.7804 71.2519 87.6854 71.2519C87.5272 71.2519 87.4322 71.3151 87.3689 71.41C87.3056 71.5364 87.2739 71.6945 87.2423 71.979C87.3056 71.8841 87.3689 71.8209 87.4638 71.7893C87.5588 71.7577 87.6538 71.7261 87.7488 71.7261C87.8754 71.7261 87.9703 71.7577 88.0653 71.7893C88.1603 71.8525 88.2236 71.9158 88.2869 72.0106C88.3502 72.1054 88.3502 72.2319 88.3502 72.3583C88.3502 72.4848 88.3185 72.6112 88.2869 72.706C88.2236 72.8009 88.1603 72.8957 88.0653 72.9589C87.9703 73.0222 87.8437 73.0538 87.7171 73.0538C87.5272 73.0538 87.3689 73.0222 87.2739 72.9273C87.179 72.8325 87.084 72.7377 87.0523 72.5796C87.0207 72.4215 86.989 72.2319 86.989 72.0106C86.989 71.3467 87.2423 70.999 87.7171 70.999C87.907 70.999 88.0336 71.0622 88.1603 71.1571C88.2552 71.2519 88.3185 71.3784 88.3502 71.5364H88.002C88.002 71.41 87.9703 71.3467 87.907 71.3151ZM87.4005 72.0738C87.3372 72.137 87.2739 72.2319 87.2739 72.3583C87.2739 72.4848 87.3056 72.5796 87.3689 72.6744C87.4322 72.7376 87.5588 72.8009 87.6854 72.8009C87.8121 72.8009 87.907 72.7693 87.9703 72.706C88.0336 72.6428 88.0653 72.548 88.0653 72.4215C88.0653 72.2951 88.0336 72.2003 87.9703 72.1054C87.907 72.0106 87.8121 71.979 87.6854 71.979C87.5588 71.979 87.4639 72.0106 87.4005 72.0738Z" fill="white"/>
<path d="M96.8971 72.6112C97.0871 72.4531 97.2137 72.3267 97.3086 72.2319C97.4036 72.137 97.4986 72.0422 97.5619 71.9158C97.6252 71.8209 97.6569 71.6945 97.6569 71.5996C97.6569 71.4732 97.6252 71.41 97.5935 71.3467C97.5302 71.2835 97.4669 71.2519 97.3403 71.2519C97.2453 71.2519 97.1504 71.2835 97.0871 71.3467C97.0238 71.41 96.9921 71.5048 96.9921 71.6313H96.6755C96.6755 71.41 96.7388 71.2519 96.8655 71.1571C96.9921 71.0306 97.1504 70.999 97.3403 70.999C97.5302 70.999 97.6885 71.0622 97.8151 71.1571C97.9418 71.2835 97.9734 71.41 97.9734 71.5996C97.9734 71.7261 97.9418 71.8525 97.8784 71.979C97.8151 72.1054 97.7202 72.2003 97.6252 72.2951C97.5302 72.3899 97.4036 72.5164 97.277 72.6428L97.1504 72.7693H98.0367V73.0222H96.6755V72.8009L96.8971 72.6112Z" fill="white"/>
<path d="M99.5879 71.2838L98.8282 73.054H98.5116L99.303 71.3154H98.29V71.0625H99.6196V71.2838H99.5879Z" fill="white"/>
<path opacity="0.1" d="M37.4482 85.9833H28.648C28.2365 85.9833 27.9199 85.6672 27.9199 85.2562V78.7759C27.9199 78.3649 28.2365 78.0488 28.648 78.0488H37.4482C37.8597 78.0488 38.1763 78.3649 38.1763 78.7759V85.2562C38.2079 85.6356 37.8597 85.9833 37.4482 85.9833Z" fill="white"/>
<path opacity="0.1" d="M48.7492 85.9833H39.949C39.5375 85.9833 39.2209 85.6672 39.2209 85.2562V78.7759C39.2209 78.3649 39.5375 78.0488 39.949 78.0488H48.7492C49.1607 78.0488 49.4773 78.3649 49.4773 78.7759V85.2562C49.4773 85.6356 49.1607 85.9833 48.7492 85.9833Z" fill="white"/>
<path opacity="0.1" d="M60.0185 85.9833H51.2183C50.8068 85.9833 50.4902 85.6672 50.4902 85.2562V78.7759C50.4902 78.3649 50.8068 78.0488 51.2183 78.0488H60.0185C60.43 78.0488 60.7466 78.3649 60.7466 78.7759V85.2562C60.7466 85.6356 60.43 85.9833 60.0185 85.9833Z" fill="white"/>
<path opacity="0.1" d="M71.2878 85.9833H62.4876C62.0761 85.9833 61.7595 85.6672 61.7595 85.2562V78.7759C61.7595 78.3649 62.0761 78.0488 62.4876 78.0488H71.2878C71.6993 78.0488 72.0159 78.3649 72.0159 78.7759V85.2562C72.0475 85.6356 71.6993 85.9833 71.2878 85.9833Z" fill="white"/>
<path opacity="0.1" d="M82.5888 85.9833H73.7886C73.3771 85.9833 73.0605 85.6672 73.0605 85.2562V78.7759C73.0605 78.3649 73.3771 78.0488 73.7886 78.0488H82.5888C83.0003 78.0488 83.3169 78.3649 83.3169 78.7759V85.2562C83.3169 85.6356 82.9687 85.9833 82.5888 85.9833Z" fill="white"/>
<path opacity="0.1" d="M93.8581 85.9833H85.0579C84.6464 85.9833 84.3298 85.6672 84.3298 85.2562V78.7759C84.3298 78.3649 84.6464 78.0488 85.0579 78.0488H93.8581C94.2696 78.0488 94.5862 78.3649 94.5862 78.7759V85.2562C94.5862 85.6356 94.2696 85.9833 93.8581 85.9833Z" fill="white"/>
<path opacity="0.9" d="M105.127 85.9833H96.3272C95.9157 85.9833 95.5991 85.6672 95.5991 85.2562V78.7759C95.5991 78.3649 95.9157 78.0488 96.3272 78.0488H105.127C105.539 78.0488 105.855 78.3649 105.855 78.7759V85.2562C105.887 85.6356 105.539 85.9833 105.127 85.9833Z" fill="white"/>
<path d="M29.1227 81.6522C29.3126 81.4942 29.4393 81.3677 29.5342 81.2729C29.6292 81.1781 29.7242 81.0832 29.7875 80.9568C29.8508 80.8619 29.8824 80.7355 29.8824 80.6407C29.8824 80.5142 29.8508 80.451 29.8191 80.3878C29.7875 80.3245 29.6925 80.2929 29.5659 80.2929C29.4709 80.2929 29.376 80.3245 29.3126 80.3878C29.2493 80.451 29.2177 80.5458 29.2177 80.6723H28.9011C28.9011 80.451 28.9644 80.2929 29.0911 80.1981C29.2177 80.0717 29.376 80.04 29.5659 80.04C29.7558 80.04 29.9141 80.1033 30.0407 80.1981C30.1673 80.3245 30.199 80.451 30.199 80.6407C30.199 80.7671 30.1673 80.8935 30.104 81.02C30.0407 81.1464 29.9458 81.2413 29.8508 81.3361C29.7558 81.4309 29.6292 81.5574 29.5026 81.6838L29.376 81.8103H30.2623V82.0632H28.9011V81.8419L29.1227 81.6522Z" fill="white"/>
<path d="M30.5789 80.5774C30.5789 80.4826 30.6106 80.3878 30.6422 80.2929C30.7056 80.1981 30.7689 80.1349 30.8638 80.1033C30.9588 80.04 31.0854 80.04 31.2437 80.04C31.3703 80.04 31.4969 80.0716 31.6236 80.1033C31.7185 80.1665 31.8135 80.2297 31.8452 80.2929C31.8768 80.3562 31.9085 80.4826 31.9085 80.5774C31.9085 80.6723 31.8768 80.7671 31.8452 80.8619C31.7818 80.9252 31.7185 80.9884 31.6236 81.0516C31.7185 81.0832 31.8135 81.1464 31.8768 81.2413C31.9401 81.3361 31.9718 81.4309 31.9718 81.5574C31.9718 81.6838 31.9401 81.7787 31.8768 81.8735C31.8135 81.9683 31.7185 82.0316 31.6236 82.0948C31.5286 82.158 31.402 82.158 31.2437 82.158C31.0854 82.158 30.9905 82.1264 30.8638 82.0948C30.7689 82.0316 30.6739 81.9683 30.6106 81.8735C30.5473 81.7787 30.5156 81.6838 30.5156 81.5574C30.5156 81.4309 30.5473 81.3361 30.6106 81.2413C30.6739 81.1464 30.7689 81.0832 30.8638 81.0516C30.6739 80.9252 30.5789 80.7671 30.5789 80.5774ZM30.9588 81.2413C30.8955 81.3045 30.8322 81.3993 30.8322 81.4942C30.8322 81.589 30.8638 81.6838 30.9588 81.7471C31.0538 81.8103 31.1487 81.8419 31.2754 81.8419C31.402 81.8419 31.4969 81.8103 31.5603 81.7471C31.6236 81.6838 31.6552 81.589 31.6552 81.4942C31.6552 81.3993 31.6236 81.3045 31.5286 81.2413C31.4653 81.1781 31.3703 81.1464 31.2437 81.1464C31.1487 81.1464 31.0221 81.1781 30.9588 81.2413ZM31.5286 80.3562C31.4653 80.2929 31.3703 80.2613 31.2754 80.2613C31.1487 80.2613 31.0854 80.2929 31.0221 80.3562C30.9588 80.4194 30.9271 80.4826 30.9271 80.609C30.9271 80.7039 30.9588 80.7671 31.0221 80.8303C31.0854 80.8935 31.1804 80.9252 31.2754 80.9252C31.3703 80.9252 31.4653 80.8935 31.5286 80.8303C31.5919 80.7671 31.6236 80.7039 31.6236 80.609C31.6236 80.4826 31.5919 80.4194 31.5286 80.3562Z" fill="white"/>
<path d="M40.392 81.6522C40.5819 81.4942 40.7085 81.3677 40.8035 81.2729C40.8985 81.1781 40.9934 81.0832 41.0568 80.9568C41.1201 80.8619 41.1517 80.7355 41.1517 80.6407C41.1517 80.5142 41.1201 80.451 41.0884 80.3878C41.0568 80.3245 40.9618 80.2929 40.8352 80.2929C40.7402 80.2929 40.6452 80.3245 40.5819 80.3878C40.5186 80.451 40.487 80.5458 40.487 80.6723H40.1704C40.1704 80.451 40.2337 80.2929 40.3603 80.1981C40.487 80.0717 40.6452 80.04 40.8352 80.04C41.0251 80.04 41.1834 80.1033 41.31 80.1981C41.4366 80.3245 41.4683 80.451 41.4683 80.6407C41.4683 80.7671 41.4366 80.8935 41.3733 81.02C41.31 81.1464 41.215 81.2413 41.1201 81.3361C41.0251 81.4309 40.8985 81.5574 40.7719 81.6838L40.6452 81.8103H41.5316V82.0632H40.2021V81.8419L40.392 81.6522Z" fill="white"/>
<path d="M42.3231 81.7471C42.3864 81.8103 42.4813 81.8103 42.5763 81.8103C42.7029 81.8103 42.7979 81.7471 42.8612 81.6522C42.9245 81.5574 42.9562 81.3677 42.9562 81.1148C42.9245 81.1781 42.8612 81.2413 42.7662 81.2729C42.6713 81.3045 42.608 81.3361 42.513 81.3361C42.3864 81.3361 42.2914 81.3045 42.1964 81.2729C42.1015 81.2097 42.0065 81.1464 41.9749 81.0516C41.9432 80.9568 41.8799 80.8303 41.8799 80.7039C41.8799 80.5142 41.9432 80.3245 42.0698 80.2297C42.1964 80.1033 42.3547 80.04 42.5763 80.04C42.8295 80.04 43.0195 80.1349 43.1144 80.2929C43.2094 80.451 43.2727 80.7039 43.2727 81.0516C43.2727 81.3045 43.2411 81.4942 43.2094 81.6206C43.1778 81.7787 43.1144 81.8735 42.9878 81.9683C42.8929 82.0316 42.7662 82.0948 42.5763 82.0948C42.3864 82.0948 42.2281 82.0316 42.1331 81.9367C42.0382 81.8419 41.9748 81.7154 41.9432 81.5574H42.2281C42.2281 81.6206 42.2597 81.6838 42.3231 81.7471ZM42.8295 80.9568C42.8929 80.8936 42.9245 80.7987 42.9245 80.6723C42.9245 80.5458 42.8929 80.451 42.8295 80.3878C42.7662 80.3245 42.6713 80.2929 42.5446 80.2929C42.418 80.2929 42.3231 80.3245 42.2597 80.3878C42.1964 80.451 42.1648 80.5458 42.1648 80.6723C42.1648 80.7987 42.1964 80.8619 42.2597 80.9568C42.3231 81.02 42.418 81.0516 42.5446 81.0516C42.6713 81.0516 42.7662 81.02 42.8295 80.9568Z" fill="white"/>
<path d="M51.6615 80.1346C51.7881 80.0398 51.9464 79.9766 52.1364 79.9766C52.263 79.9766 52.3896 80.0082 52.4846 80.0398C52.5795 80.0714 52.6428 80.1346 52.7062 80.2295C52.7695 80.3243 52.7695 80.3875 52.7695 80.4823C52.7695 80.6088 52.7378 80.7036 52.6745 80.7668C52.6112 80.8617 52.5479 80.8933 52.4529 80.9249C52.5479 80.9565 52.6428 81.0197 52.7062 81.1146C52.7695 81.2094 52.8011 81.3042 52.8011 81.4623C52.8011 81.5571 52.7695 81.6836 52.7378 81.7468C52.7062 81.81 52.6112 81.9049 52.5162 81.9365C52.4213 81.9997 52.2946 81.9997 52.168 81.9997C51.9781 81.9997 51.8198 81.9365 51.6615 81.8416C51.5033 81.7468 51.4716 81.5887 51.4399 81.3991H51.7565C51.7565 81.4939 51.7881 81.5887 51.8831 81.652C51.9464 81.7152 52.0414 81.7468 52.168 81.7468C52.2946 81.7468 52.358 81.7152 52.4213 81.652C52.4846 81.5887 52.5162 81.5255 52.5162 81.3991C52.5162 81.2726 52.4846 81.1778 52.3896 81.1146C52.2946 81.0514 52.168 81.0197 52.0097 81.0197H51.9148V80.7668H51.9781C52.1364 80.7668 52.2313 80.7352 52.3263 80.7036C52.3896 80.6404 52.4529 80.5772 52.4529 80.4823C52.4529 80.3875 52.4213 80.3243 52.3579 80.2611C52.2946 80.1978 52.2313 80.1978 52.1047 80.1978C52.0097 80.1978 51.9148 80.2295 51.8515 80.2611C51.7882 80.3243 51.7565 80.3875 51.7565 80.4507H51.4399C51.4716 80.3875 51.5349 80.2295 51.6615 80.1346Z" fill="white"/>
<path d="M53.276 80.2923C53.3709 80.1026 53.5609 80.0078 53.8458 80.0078C54.1306 80.0078 54.2889 80.1026 54.4155 80.2923C54.5105 80.482 54.5738 80.7349 54.5738 81.051C54.5738 81.3671 54.5105 81.62 54.4155 81.8097C54.3206 81.9993 54.1306 82.0942 53.8458 82.0942C53.5609 82.0942 53.4026 81.9993 53.276 81.8097C53.181 81.62 53.1177 81.3671 53.1177 81.051C53.1177 80.7033 53.181 80.4504 53.276 80.2923ZM54.2256 80.64C54.194 80.5452 54.1623 80.4504 54.099 80.3871C54.0357 80.3239 53.9407 80.2923 53.8458 80.2923C53.7191 80.2923 53.6558 80.3239 53.5925 80.3871C53.5292 80.4504 53.4975 80.5452 53.4659 80.64C53.4342 80.7349 53.4342 80.8613 53.4342 81.0194C53.4342 81.1774 53.4342 81.3039 53.4659 81.3987C53.4975 81.4935 53.5292 81.5884 53.5925 81.6516C53.6558 81.7148 53.7508 81.7464 53.8458 81.7464C53.9724 81.7464 54.0357 81.7148 54.099 81.6516C54.1623 81.5884 54.194 81.4935 54.2256 81.3987C54.2573 81.3039 54.2573 81.1774 54.2573 81.0194C54.2573 80.8929 54.2256 80.7665 54.2256 80.64Z" fill="white"/>
<g opacity="0.35">
<path d="M63.9436 80.3558V80.0713H64.5134V82.0944H64.1968V80.3558H63.9436Z" fill="white"/>
</g>
<g opacity="0.35">
<path d="M75.1181 81.6522C75.308 81.4942 75.4346 81.3677 75.5296 81.2729C75.6246 81.1781 75.7195 81.0832 75.7828 80.9568C75.8461 80.8619 75.8778 80.7355 75.8778 80.6407C75.8778 80.5142 75.8461 80.451 75.8145 80.3878C75.7512 80.3245 75.6879 80.2929 75.5612 80.2929C75.4663 80.2929 75.3713 80.3245 75.308 80.3878C75.2447 80.451 75.213 80.5458 75.213 80.6723H74.8965C74.8965 80.451 74.9598 80.2929 75.0864 80.1981C75.213 80.0717 75.3713 80.04 75.5612 80.04C75.7512 80.04 75.9095 80.1033 76.0361 80.1981C76.1627 80.3245 76.1944 80.451 76.1944 80.6407C76.1944 80.7671 76.1627 80.8935 76.0994 81.02C76.0361 81.1464 75.9411 81.2413 75.8461 81.3361C75.7512 81.4309 75.6246 81.5574 75.4979 81.6838L75.3713 81.8103H76.2577V82.0632H74.8965V81.8419L75.1181 81.6522Z" fill="white"/>
</g>
<g opacity="0.35">
<path d="M86.3874 80.1346C86.514 80.0398 86.6723 79.9766 86.8622 79.9766C86.9888 79.9766 87.1154 80.0082 87.2104 80.0398C87.3054 80.0714 87.3687 80.1346 87.432 80.2295C87.4953 80.3243 87.4953 80.3875 87.4953 80.4823C87.4953 80.6088 87.4636 80.7036 87.4003 80.7668C87.337 80.8301 87.2737 80.8933 87.1787 80.9249C87.2737 80.9565 87.3687 81.0197 87.432 81.1146C87.4953 81.2094 87.527 81.3042 87.527 81.4623C87.527 81.5571 87.4953 81.6836 87.4636 81.7468C87.4003 81.8416 87.337 81.9049 87.2421 81.9365C87.1471 81.9997 87.0205 81.9997 86.8938 81.9997C86.7039 81.9997 86.5456 81.9365 86.3874 81.8416C86.2607 81.7468 86.1974 81.5887 86.1658 81.3991H86.4823C86.4823 81.4939 86.514 81.5887 86.6089 81.652C86.6723 81.7152 86.7672 81.7468 86.8938 81.7468C87.0205 81.7468 87.0838 81.7152 87.1471 81.652C87.2104 81.5887 87.2421 81.5255 87.2421 81.3991C87.2421 81.2726 87.2104 81.1778 87.1154 81.1146C87.0205 81.0514 86.8938 81.0197 86.7356 81.0197H86.6723V80.7668H86.7356C86.8938 80.7668 86.9888 80.7352 87.0838 80.7036C87.1471 80.6404 87.2104 80.5772 87.2104 80.4823C87.2104 80.3875 87.1787 80.3243 87.1154 80.2611C87.0521 80.1978 86.9888 80.1978 86.8622 80.1978C86.7672 80.1978 86.6723 80.2295 86.6089 80.2611C86.5456 80.3243 86.514 80.3875 86.514 80.4507H86.1974C86.1974 80.3875 86.2607 80.2295 86.3874 80.1346Z" fill="white"/>
</g>
<g opacity="0.35">
<path d="M97.3718 81.6519V81.399L98.2898 80.0713H98.6697V81.3674H98.9229V81.6519H98.6697V82.0628H98.3531V81.6519H97.3718ZM98.3848 80.3874L97.72 81.3674H98.3848V80.3874Z" fill="white"/>
</g>
<path d="M56.0933 35.2783V35.6893H53.9724V35.2783H56.0933Z" fill="white"/>
<path d="M59.4805 35.2783V35.6893H57.3596V35.2783H59.4805Z" fill="white"/>
<path d="M62.8676 35.2783V35.6893H60.7783V35.2783H62.8676Z" fill="white"/>
<path d="M66.2864 35.2783V35.6893H64.1655V35.2783H66.2864Z" fill="white"/>
<path d="M69.6734 35.2783V35.6893H67.5525V35.2783H69.6734Z" fill="white"/>
<path d="M73.0606 35.2783V35.6893H70.9397V35.2783H73.0606Z" fill="white"/>
<path d="M76.4478 35.2783V35.6893H74.3269V35.2783H76.4478Z" fill="white"/>
<path d="M79.8665 35.2783V35.6893H77.7456V35.2783H79.8665Z" fill="white"/>
<path d="M84.0134 33.6973L85.3746 35.0566L84.0134 36.4158" stroke="white" stroke-width="0.630769" stroke-miterlimit="10" stroke-linecap="round" stroke-linejoin="round"/>
<path d="M49.7623 33.6973L48.4011 35.0566L49.7623 36.4158" stroke="white" stroke-width="0.630769" stroke-miterlimit="10" stroke-linecap="round" stroke-linejoin="round"/>
<path opacity="0.9" d="M97.0552 29.5566C97.0552 30.1572 96.5487 30.663 95.9473 30.663C95.3458 30.663 94.8394 30.1572 94.8394 29.5566C94.8394 28.956 95.3458 28.4502 95.9473 28.4502C96.5804 28.4502 97.0552 28.956 97.0552 29.5566Z" fill="white"/>
<path opacity="0.9" d="M101.455 29.5566C101.455 30.1572 100.949 30.663 100.347 30.663C99.746 30.663 99.2395 30.1572 99.2395 29.5566C99.2395 28.956 99.746 28.4502 100.347 28.4502C100.981 28.4502 101.455 28.956 101.455 29.5566Z" fill="white"/>
<path opacity="0.9" d="M105.887 29.5566C105.887 30.1572 105.381 30.663 104.779 30.663C104.178 30.663 103.671 30.1572 103.671 29.5566C103.671 28.956 104.178 28.4502 104.779 28.4502C105.381 28.4502 105.887 28.956 105.887 29.5566Z" fill="white"/>
<path opacity="0.9" d="M31.7819 29.5562C31.7819 30.631 30.9272 31.4845 29.8509 31.4845C28.7746 31.4845 27.9199 30.631 27.9199 29.5562C27.9199 28.4814 28.7746 27.6279 29.8509 27.6279C30.9272 27.6279 31.7819 28.513 31.7819 29.5562Z" fill="white"/>
<g filter="url(#filter0_d_20202_44236)">
<path d="M106.837 92.147C114.809 92.147 121.272 85.6933 121.272 77.7322C121.272 69.7711 114.809 63.3174 106.837 63.3174C98.8648 63.3174 92.4021 69.7711 92.4021 77.7322C92.4021 85.6933 98.8648 92.147 106.837 92.147Z" fill="url(#paint27_linear_20202_44236)"/>
<path d="M106.837 62.3174C115.36 62.3174 122.272 69.2177 122.272 77.7324C122.272 86.247 115.36 93.1475 106.837 93.1475C98.3138 93.1473 91.4022 86.2469 91.4021 77.7324C91.4021 69.2179 98.3137 62.3175 106.837 62.3174Z" stroke="white" stroke-width="2"/>
</g>
<path d="M104.115 80.6702C104.306 80.4753 104.433 80.2803 104.624 80.0854C106.408 77.5511 108.446 75.2117 110.676 73.0673C111.759 72.0275 112.905 71.1178 113.988 70.208C114.434 69.8831 114.816 69.9481 115.199 70.338C115.39 70.5329 115.581 70.7929 115.772 70.9878C116.154 71.4427 116.09 71.7676 115.645 72.1575C114.816 72.8723 113.925 73.6521 113.16 74.4319C110.803 76.7063 108.701 79.3056 106.79 81.9699C106.153 82.8146 105.58 83.6594 105.007 84.5042C104.561 85.154 104.115 85.154 103.542 84.5692C102.905 83.9193 102.331 83.2045 101.694 82.4897C100.611 81.32 99.4647 80.2153 98.3181 79.0457C97.9359 78.6558 97.9359 78.2659 98.2544 77.876C98.5092 77.5511 98.8277 77.2911 99.1462 76.9662C99.4647 76.6413 99.8469 76.5763 100.229 76.9012C100.675 77.2911 101.185 77.616 101.567 78.0709C102.395 78.9157 103.159 79.7605 103.924 80.5403C103.987 80.6702 104.051 80.6702 104.115 80.6702Z" fill="#FEFEFE"/>
</g>
<defs>
<filter id="filter0_d_20202_44236" x="86.4021" y="61.3174" width="40.8696" height="40.8301" filterUnits="userSpaceOnUse" color-interpolation-filters="sRGB">
<feFlood flood-opacity="0" result="BackgroundImageFix"/>
<feColorMatrix in="SourceAlpha" type="matrix" values="0 0 0 0 0 0 0 0 0 0 0 0 0 0 0 0 0 0 127 0" result="hardAlpha"/>
<feOffset dy="4"/>
<feGaussianBlur stdDeviation="2"/>
<feComposite in2="hardAlpha" operator="out"/>
<feColorMatrix type="matrix" values="0 0 0 0 0 0 0 0 0 0 0 0 0 0 0 0 0 0 0.25 0"/>
<feBlend mode="normal" in2="BackgroundImageFix" result="effect1_dropShadow_20202_44236"/>
<feBlend mode="normal" in="SourceGraphic" in2="effect1_dropShadow_20202_44236" result="shape"/>
</filter>
<linearGradient id="paint0_linear_20202_44236" x1="10.4551" y1="91.0821" x2="-0.358434" y2="88.6718" gradientUnits="userSpaceOnUse">
<stop stop-color="#B31A69"/>
<stop offset="1" stop-color="#FB5463"/>
</linearGradient>
<linearGradient id="paint1_linear_20202_44236" x1="10.5449" y1="80.6646" x2="2.13587" y2="90.2599" gradientUnits="userSpaceOnUse">
<stop stop-color="#B31A69"/>
<stop offset="1" stop-color="#FB5463"/>
</linearGradient>
<linearGradient id="paint2_linear_20202_44236" x1="27.7259" y1="95.7152" x2="33.0627" y2="91.3532" gradientUnits="userSpaceOnUse">
<stop stop-color="#1B73DE"/>
<stop offset="1" stop-color="#6DB2FD"/>
</linearGradient>
<linearGradient id="paint3_linear_20202_44236" x1="34.0587" y1="99.052" x2="33.602" y2="91.6778" gradientUnits="userSpaceOnUse">
<stop stop-color="#1B73DE"/>
<stop offset="1" stop-color="#6DB2FD"/>
</linearGradient>
<linearGradient id="paint4_linear_20202_44236" x1="121.139" y1="92.9081" x2="122.965" y2="86.2668" gradientUnits="userSpaceOnUse">
<stop stop-color="#FD960B"/>
<stop offset="1" stop-color="#FDDD3B"/>
</linearGradient>
<linearGradient id="paint5_linear_20202_44236" x1="128.237" y1="91.9663" x2="123.596" y2="86.213" gradientUnits="userSpaceOnUse">
<stop stop-color="#FD960B"/>
<stop offset="1" stop-color="#FDDD3B"/>
</linearGradient>
<linearGradient id="paint6_linear_20202_44236" x1="112.619" y1="50.5603" x2="115.365" y2="49.8971" gradientUnits="userSpaceOnUse">
<stop stop-color="#B31A69"/>
<stop offset="1" stop-color="#FB5463"/>
</linearGradient>
<linearGradient id="paint7_linear_20202_44236" x1="113.919" y1="52.1563" x2="121.882" y2="50.2333" gradientUnits="userSpaceOnUse">
<stop stop-color="#B31A69"/>
<stop offset="1" stop-color="#FB5463"/>
</linearGradient>
<linearGradient id="paint8_linear_20202_44236" x1="14.0867" y1="38.1037" x2="20.0431" y2="30.5579" gradientUnits="userSpaceOnUse">
<stop stop-color="#FD960B"/>
<stop offset="1" stop-color="#FDDD3B"/>
</linearGradient>
<linearGradient id="paint9_linear_20202_44236" x1="13.5816" y1="31.2895" x2="16.7917" y2="27.2228" gradientUnits="userSpaceOnUse">
<stop stop-color="#FD960B"/>
<stop offset="1" stop-color="#FDDD3B"/>
</linearGradient>
<linearGradient id="paint10_linear_20202_44236" x1="9.31183" y1="30.1664" x2="15.6335" y2="22.1578" gradientUnits="userSpaceOnUse">
<stop stop-color="#FD960B"/>
<stop offset="1" stop-color="#FDDD3B"/>
</linearGradient>
<linearGradient id="paint11_linear_20202_44236" x1="40.2331" y1="108.938" x2="40.4486" y2="111.324" gradientUnits="userSpaceOnUse">
<stop stop-color="#FD960B"/>
<stop offset="1" stop-color="#FDDD3B"/>
</linearGradient>
<linearGradient id="paint12_linear_20202_44236" x1="97.2319" y1="37.8722" x2="99.4935" y2="37.0712" gradientUnits="userSpaceOnUse">
<stop stop-color="#9FDD30"/>
<stop offset="1" stop-color="#02805E"/>
</linearGradient>
<linearGradient id="paint13_linear_20202_44236" x1="7.37387" y1="9.23432" x2="10.1883" y2="9.66545" gradientUnits="userSpaceOnUse">
<stop stop-color="#1B73DE"/>
<stop offset="1" stop-color="#6DB2FD"/>
</linearGradient>
<linearGradient id="paint14_linear_20202_44236" x1="14.9179" y1="69.6986" x2="11.942" y2="69.6986" gradientUnits="userSpaceOnUse">
<stop stop-color="#9FDD30"/>
<stop offset="1" stop-color="#02805E"/>
</linearGradient>
<linearGradient id="paint15_linear_20202_44236" x1="12.2401" y1="109.771" x2="8.83779" y2="109.771" gradientUnits="userSpaceOnUse">
<stop stop-color="#B31A69"/>
<stop offset="1" stop-color="#FB5463"/>
</linearGradient>
<linearGradient id="paint16_linear_20202_44236" x1="100.218" y1="121.51" x2="97.2424" y2="121.51" gradientUnits="userSpaceOnUse">
<stop stop-color="#9FDD30"/>
<stop offset="1" stop-color="#02805E"/>
</linearGradient>
<linearGradient id="paint17_linear_20202_44236" x1="121.973" y1="107.835" x2="118.997" y2="107.835" gradientUnits="userSpaceOnUse">
<stop stop-color="#1B73DE"/>
<stop offset="1" stop-color="#6DB2FD"/>
</linearGradient>
<linearGradient id="paint18_linear_20202_44236" x1="122.913" y1="31.4043" x2="117.565" y2="29.852" gradientUnits="userSpaceOnUse">
<stop stop-color="#FD960B"/>
<stop offset="1" stop-color="#FDDD3B"/>
</linearGradient>
<linearGradient id="paint19_linear_20202_44236" x1="70.0584" y1="2.90945" x2="68.3691" y2="-0.374298" gradientUnits="userSpaceOnUse">
<stop stop-color="#FD960B"/>
<stop offset="1" stop-color="#FDDD3B"/>
</linearGradient>
<linearGradient id="paint20_linear_20202_44236" x1="100.217" y1="104.721" x2="100.173" y2="98.3182" gradientUnits="userSpaceOnUse">
<stop stop-color="#B31A69"/>
<stop offset="1" stop-color="#FB5463"/>
</linearGradient>
<linearGradient id="paint21_linear_20202_44236" x1="112.393" y1="69.0914" x2="115.896" y2="70.6045" gradientUnits="userSpaceOnUse">
<stop stop-color="#9FDD30"/>
<stop offset="1" stop-color="#02805E"/>
</linearGradient>
<linearGradient id="paint22_linear_20202_44236" x1="26.7083" y1="44.3643" x2="30.1746" y2="45.9223" gradientUnits="userSpaceOnUse">
<stop stop-color="#B31A69"/>
<stop offset="1" stop-color="#FB5463"/>
</linearGradient>
<linearGradient id="paint23_linear_20202_44236" x1="44.9727" y1="12.8741" x2="46.5004" y2="10.0144" gradientUnits="userSpaceOnUse">
<stop stop-color="#9FDD30"/>
<stop offset="1" stop-color="#02805E"/>
</linearGradient>
<linearGradient id="paint24_linear_20202_44236" x1="110.308" y1="7.80677" x2="104.75" y2="15.9805" gradientUnits="userSpaceOnUse">
<stop stop-color="#1B73DE"/>
<stop offset="1" stop-color="#6DB2FD"/>
</linearGradient>
<linearGradient id="paint25_linear_20202_44236" x1="114.53" y1="12.1337" x2="110.821" y2="8.32054" gradientUnits="userSpaceOnUse">
<stop stop-color="#1B73DE"/>
<stop offset="1" stop-color="#6DB2FD"/>
</linearGradient>
<linearGradient id="paint26_linear_20202_44236" x1="66.8963" y1="90.872" x2="66.8963" y2="22.3088" gradientUnits="userSpaceOnUse">
<stop stop-color="#072268"/>
<stop offset="0.3688" stop-color="#0D307E"/>
<stop offset="1" stop-color="#0A3F99"/>
</linearGradient>
<linearGradient id="paint27_linear_20202_44236" x1="106.849" y1="92.1476" x2="106.849" y2="63.2937" gradientUnits="userSpaceOnUse">
<stop stop-color="#F37121"/>
<stop offset="1" stop-color="#FFBB90"/>
</linearGradient>
<clipPath id="clip0_20202_44236">
<rect width="128.046" height="123" fill="white"/>
</clipPath>
</defs>
</svg>
