<svg width="51" height="51" viewBox="0 0 51 51" fill="none" xmlns="http://www.w3.org/2000/svg">
<path d="M25.8383 2.24805C25.9297 2.28551 26.021 2.33235 26.117 2.36279C26.6903 2.53144 27.194 2.88039 27.5534 3.35788C27.9128 3.83537 28.1087 4.41598 28.1121 5.01359C28.1356 5.59601 27.9758 6.17112 27.6553 6.65798C27.3348 7.14484 26.8697 7.51893 26.3254 7.72762C26.2049 7.75049 26.0976 7.81843 26.0254 7.91762C25.9531 8.01681 25.9214 8.13978 25.9367 8.26152C25.9554 10.1521 25.9554 12.0418 25.9367 13.9308C25.9367 14.2727 26.0257 14.3804 26.3793 14.4178C28.3469 14.6195 30.2055 15.4196 31.7043 16.7104C31.8729 16.8532 32.0391 17.0007 32.2405 17.1787C32.943 16.4762 33.6175 15.8065 34.2778 15.118C34.3591 14.9967 34.397 14.8515 34.3855 14.7059C34.3855 13.521 34.3855 12.3361 34.3855 11.1512C34.3994 11.0502 34.3769 10.9476 34.3219 10.8618C34.267 10.776 34.1833 10.7125 34.0858 10.6828C33.5768 10.4659 33.1617 10.0748 32.915 9.5796C32.6682 9.08439 32.606 8.51749 32.7393 7.98052C32.8595 7.45231 33.1564 6.98094 33.5808 6.64433C34.0053 6.30772 34.5319 6.12604 35.0736 6.12931C35.6153 6.13259 36.1396 6.32063 36.56 6.66235C36.9803 7.00407 37.2714 7.479 37.3852 8.00862C37.5065 8.53663 37.4409 9.09033 37.1996 9.57539C36.9584 10.0605 36.5564 10.4469 36.0622 10.6688C35.9594 10.7021 35.8712 10.77 35.8128 10.8609C35.7543 10.9518 35.7291 11.0602 35.7414 11.1676C35.7554 12.2916 35.7414 13.4133 35.7414 14.5654C35.8623 14.5859 35.9842 14.6 36.1067 14.6075C36.7225 14.6075 37.3384 14.5771 37.9519 14.6075C38.5069 14.645 38.8347 14.5466 39.0994 13.9518C39.6473 12.7248 41.0523 12.1839 42.3637 12.5468C42.974 12.7243 43.5071 13.1014 43.8778 13.6178C44.2485 14.1341 44.4353 14.7598 44.4083 15.3948C44.3813 16.0299 44.1421 16.6375 43.729 17.1205C43.3159 17.6036 42.7527 17.9341 42.1295 18.0592C41.4921 18.1939 40.8277 18.1002 40.2524 17.7946C39.677 17.4889 39.2275 16.9908 38.9823 16.3872C38.947 16.2396 38.857 16.1109 38.7306 16.027C38.6041 15.9431 38.4505 15.9104 38.3008 15.9353C37.4461 15.9587 36.5891 15.9353 35.725 15.954C35.502 15.9759 35.2919 16.0687 35.1255 16.2186C34.4488 16.8532 33.8024 17.5183 33.1374 18.1833C34.3401 19.7485 35.0625 21.6294 35.2168 23.5973H35.6711C37.7786 23.5973 39.8721 23.5973 41.9703 23.5973C42.099 23.6192 42.2312 23.5951 42.3439 23.5291C42.4565 23.4632 42.5423 23.3596 42.5861 23.2367C42.8185 22.7346 43.2211 22.331 43.7226 22.0974C44.2241 21.8638 44.7921 21.8153 45.3259 21.9604C45.838 22.0934 46.2911 22.3933 46.6135 22.8128C46.9358 23.2323 47.109 23.7473 47.1056 24.2764C47.1149 24.8249 46.9346 25.3599 46.595 25.7908C46.2554 26.2217 45.7775 26.5222 45.242 26.6414C44.7064 26.7606 44.1462 26.6913 43.6559 26.4451C43.1656 26.199 42.7753 25.791 42.551 25.2903C42.455 25.089 42.3777 24.9508 42.1061 24.9531C39.8862 24.9531 37.6569 24.9531 35.4463 24.9531C35.3676 24.9588 35.2894 24.9697 35.2121 24.9859C35.1113 26.2607 34.7705 27.5049 34.2076 28.653C33.9898 29.0792 33.7392 29.4937 33.4863 29.8965C33.2334 30.2992 32.8775 30.3812 32.5332 30.1587C32.189 29.9363 32.1 29.5522 32.3717 29.1448C33.4223 27.5928 33.9446 25.7435 33.861 23.8713C33.7205 19.7616 30.2079 16.1062 26.0983 15.7292C20.7709 15.2421 16.6378 19.5649 16.6963 24.5223C16.7268 27.1918 17.9 29.3321 19.9443 31.0158C20.0707 31.1212 20.2089 31.2148 20.326 31.3296C20.3862 31.3818 20.4352 31.4456 20.4702 31.5172C20.5052 31.5888 20.5253 31.6667 20.5295 31.7463C20.5337 31.8259 20.5217 31.9055 20.4944 31.9803C20.4671 32.0552 20.4249 32.1238 20.3705 32.182C20.1363 32.4793 19.8272 32.6035 19.5064 32.3669C19.0676 32.0506 18.6528 31.7023 18.2653 31.3249C16.629 29.7285 15.6117 27.6035 15.3944 25.3278C15.3663 25.0491 15.2913 24.9391 14.9939 24.9414C12.8349 24.9539 10.6751 24.9539 8.51446 24.9414C8.20067 24.9414 8.11871 25.103 8.00865 25.3278C7.79541 25.7788 7.44371 26.1499 7.0048 26.3871C6.56589 26.6242 6.06272 26.715 5.56861 26.6462C5.08692 26.5987 4.6325 26.4004 4.27007 26.0796C3.90764 25.7588 3.65567 25.3318 3.55006 24.8595C3.3894 24.2842 3.45075 23.6696 3.72196 23.1375C3.99316 22.6053 4.45442 22.1945 5.01429 21.9865C5.57415 21.7784 6.19174 21.7884 6.74463 22.0143C7.29752 22.2402 7.74533 22.6656 7.99929 23.2062C8.04169 23.3362 8.12792 23.4475 8.24324 23.5209C8.35856 23.5944 8.49582 23.6255 8.63155 23.609C10.7765 23.5926 12.9215 23.609 15.0665 23.609C15.1653 23.6041 15.2638 23.5939 15.3616 23.5786C15.5108 21.62 16.2295 19.7479 17.4293 18.1927C16.7151 17.4902 16.0243 16.7689 15.2937 16.0851C15.1693 16.0074 15.0228 15.9729 14.8769 15.9868C13.9917 15.9868 13.1042 16.0008 12.2214 15.9868C12.0855 15.9636 11.9459 15.9934 11.8313 16.0701C11.7167 16.1468 11.6359 16.2645 11.6055 16.3989C11.3876 16.9352 11.0074 17.3899 10.5182 17.6994C10.0291 18.0088 9.45535 18.1576 8.87742 18.1248C7.545 18.0311 6.5568 17.256 6.23833 16.057C6.03251 15.3553 6.10571 14.6012 6.44265 13.9522C6.7796 13.3032 7.35423 12.8094 8.04657 12.574C8.73891 12.3386 9.49542 12.3798 10.1581 12.6889C10.8209 12.998 11.3386 13.5511 11.6032 14.2329C11.6339 14.3595 11.7119 14.4695 11.8212 14.5405C11.9305 14.6115 12.0627 14.638 12.1909 14.6145C13.0433 14.5982 13.8933 14.6145 14.7668 14.6145C14.7668 14.4249 14.7949 14.282 14.7972 14.1462C14.7972 13.4109 14.7738 12.6756 14.7972 11.9403C14.8277 11.28 14.7972 10.7882 14.0573 10.3948C13.1136 9.86559 12.8794 8.63854 13.2751 7.59648C13.4194 7.23874 13.6484 6.92136 13.9423 6.67159C14.2363 6.42181 14.5865 6.24709 14.9628 6.16244C15.3391 6.07779 15.7304 6.08573 16.103 6.18558C16.4756 6.28543 16.8184 6.47421 17.102 6.73571C17.3855 6.99721 17.6014 7.32361 17.7311 7.68691C17.8607 8.05021 17.9003 8.43955 17.8464 8.8215C17.7924 9.20345 17.6466 9.56661 17.4214 9.8798C17.1962 10.193 16.8984 10.4469 16.5535 10.6196C16.4188 10.6698 16.3058 10.7652 16.2336 10.8895C16.1614 11.0137 16.1346 11.1592 16.1578 11.301C16.1765 12.397 16.1742 13.4905 16.1578 14.5794C16.1502 14.7194 16.1748 14.8593 16.2296 14.9884C16.2844 15.1174 16.368 15.2322 16.4739 15.3241C17.0944 15.9236 17.6845 16.5347 18.3168 17.167C20.0111 15.5337 22.2206 14.5403 24.5668 14.357V7.85641C23.4943 7.50281 22.7543 6.81904 22.5038 5.69034C22.3409 4.98798 22.4543 4.24991 22.8205 3.62881C23.1866 3.00771 23.7774 2.55109 24.4708 2.35342C24.5691 2.32532 24.6628 2.28317 24.7588 2.24805H25.8383ZM41.5816 16.7666C41.7811 16.7724 41.9797 16.7374 42.1652 16.6636C42.3506 16.5899 42.5191 16.479 42.6601 16.3377C42.8011 16.1965 42.9118 16.0279 42.9852 15.8423C43.0587 15.6567 43.0934 15.458 43.0873 15.2585C43.0873 14.861 42.9294 14.4798 42.6483 14.1988C42.3673 13.9177 41.9861 13.7598 41.5886 13.7598C41.1911 13.7598 40.8099 13.9177 40.5289 14.1988C40.2478 14.4798 40.0899 14.861 40.0899 15.2585C40.0832 15.457 40.117 15.6547 40.1894 15.8397C40.2617 16.0246 40.3711 16.1928 40.5107 16.334C40.6504 16.4752 40.8174 16.5864 41.0015 16.6608C41.1856 16.7351 41.383 16.7711 41.5816 16.7666ZM10.4604 15.2913C10.4648 15.0958 10.4299 14.9014 10.3576 14.7196C10.2854 14.5379 10.1774 14.3726 10.04 14.2334C9.90258 14.0942 9.7386 13.9841 9.55779 13.9096C9.37698 13.8351 9.18304 13.7977 8.98748 13.7996C8.78828 13.7961 8.59042 13.8328 8.40572 13.9075C8.22102 13.9822 8.05327 14.0934 7.9125 14.2344C7.77173 14.3754 7.66083 14.5433 7.58642 14.7281C7.51201 14.9129 7.47562 15.1108 7.47943 15.31C7.4862 15.7038 7.64772 16.0792 7.92906 16.3548C8.2104 16.6304 8.58894 16.7842 8.9828 16.783C9.17794 16.7827 9.3711 16.7438 9.55115 16.6685C9.7312 16.5933 9.8946 16.4832 10.0319 16.3445C10.1693 16.2059 10.2778 16.0415 10.3514 15.8607C10.4249 15.6799 10.462 15.4864 10.4604 15.2913ZM25.281 3.58281C24.8954 3.59326 24.5288 3.7527 24.2582 4.02768C23.9876 4.30265 23.8341 4.67176 23.8298 5.05752C23.8256 5.44328 23.9709 5.81569 24.2354 6.09654C24.4999 6.3774 24.8629 6.54487 25.2482 6.56379C25.4435 6.5717 25.6384 6.53996 25.8211 6.47049C26.0038 6.40102 26.1706 6.29525 26.3113 6.15958C26.452 6.0239 26.5638 5.86112 26.6398 5.68107C26.7159 5.50101 26.7547 5.30741 26.7539 5.11194C26.7639 4.91449 26.7332 4.7171 26.6639 4.53194C26.5946 4.34678 26.4881 4.17779 26.351 4.03539C26.2139 3.89298 26.049 3.78019 25.8666 3.70396C25.6842 3.62773 25.4881 3.58969 25.2904 3.59218L25.281 3.58281ZM35.0482 7.45832C34.7737 7.46112 34.5116 7.57284 34.3194 7.76893C34.1273 7.96501 34.0209 8.22938 34.0237 8.50389C34.0265 8.7784 34.1383 9.04055 34.3343 9.23268C34.5304 9.42481 34.7948 9.53118 35.0693 9.52838C35.2052 9.527 35.3395 9.49886 35.4646 9.44556C35.5896 9.39227 35.703 9.31487 35.7981 9.21778C35.8932 9.12069 35.9683 9.00581 36.019 8.87971C36.0698 8.7536 36.0952 8.61874 36.0938 8.48281C36.0924 8.34689 36.0643 8.21257 36.011 8.08753C35.9577 7.96248 35.8803 7.84916 35.7832 7.75402C35.6861 7.65889 35.5712 7.58381 35.4451 7.53308C35.319 7.48234 35.1841 7.45694 35.0482 7.45832ZM45.7428 24.2694C45.744 23.9984 45.6377 23.7379 45.4472 23.5452C45.2566 23.3525 44.9975 23.2432 44.7265 23.2414C44.5874 23.2417 44.4498 23.2695 44.3215 23.3234C44.1933 23.3772 44.0771 23.456 43.9795 23.5551C43.8819 23.6542 43.805 23.7717 43.7531 23.9007C43.7013 24.0297 43.6755 24.1678 43.6774 24.3068C43.6847 24.5793 43.7998 24.8377 43.9973 25.0256C44.1948 25.2134 44.4586 25.3154 44.7311 25.3091C44.8657 25.3094 44.9989 25.2829 45.123 25.231C45.2471 25.1791 45.3596 25.1029 45.4539 25.0069C45.5481 24.9109 45.6222 24.797 45.6718 24.672C45.7215 24.5469 45.7456 24.4132 45.7428 24.2787V24.2694ZM5.85429 25.3091C6.12681 25.3173 6.39146 25.2172 6.59029 25.0306C6.78912 24.8441 6.90591 24.5863 6.91508 24.3139C6.91788 24.1749 6.89304 24.0368 6.84201 23.9075C6.79098 23.7783 6.71478 23.6604 6.61783 23.5609C6.52088 23.4613 6.40511 23.382 6.27725 23.3276C6.1494 23.2731 6.01199 23.2446 5.87303 23.2437C5.59914 23.2412 5.33549 23.3476 5.14006 23.5395C4.94464 23.7315 4.83346 23.9931 4.83097 24.267C4.82849 24.5409 4.93491 24.8046 5.12682 25C5.31873 25.1954 5.58041 25.3066 5.85429 25.3091ZM16.5137 8.48867C16.5153 8.35356 16.4897 8.2195 16.4385 8.09445C16.3874 7.9694 16.3116 7.8559 16.2157 7.76068C16.1198 7.66546 16.0058 7.59046 15.8804 7.54014C15.755 7.48981 15.6208 7.46517 15.4857 7.46769C15.3498 7.46923 15.2155 7.49752 15.0905 7.55096C14.9655 7.60439 14.8523 7.68192 14.7572 7.77912C14.6622 7.87632 14.5873 7.99128 14.5367 8.11745C14.4861 8.24361 14.4608 8.37851 14.4624 8.51443C14.4639 8.65035 14.4922 8.78464 14.5456 8.90962C14.5991 9.03461 14.6766 9.14785 14.7738 9.24287C14.871 9.3379 14.986 9.41285 15.1121 9.46344C15.2383 9.51404 15.3732 9.53929 15.5091 9.53775C15.6444 9.53626 15.778 9.50778 15.9021 9.45397C16.0263 9.40017 16.1384 9.32212 16.232 9.22441C16.3255 9.1267 16.3986 9.01129 16.447 8.88495C16.4954 8.75861 16.5181 8.62388 16.5137 8.48867Z" fill="white"/>
<path d="M25.8383 2.24805C25.9297 2.28551 26.021 2.33235 26.117 2.36279C26.6903 2.53144 27.194 2.88039 27.5534 3.35788C27.9128 3.83537 28.1087 4.41598 28.1121 5.01359C28.1356 5.59601 27.9758 6.17112 27.6553 6.65798C27.3348 7.14484 26.8697 7.51893 26.3254 7.72762C26.2049 7.75049 26.0976 7.81843 26.0254 7.91762C25.9531 8.01681 25.9214 8.13978 25.9367 8.26152C25.9554 10.1521 25.9554 12.0418 25.9367 13.9308C25.9367 14.2727 26.0257 14.3804 26.3793 14.4178C28.3469 14.6195 30.2055 15.4196 31.7043 16.7104C31.8729 16.8532 32.0391 17.0007 32.2405 17.1787C32.943 16.4762 33.6175 15.8065 34.2778 15.118C34.3591 14.9967 34.397 14.8515 34.3855 14.7059C34.3855 13.521 34.3855 12.3361 34.3855 11.1512C34.3994 11.0502 34.3769 10.9476 34.3219 10.8618C34.267 10.776 34.1833 10.7125 34.0858 10.6828C33.5768 10.4659 33.1617 10.0748 32.915 9.5796C32.6682 9.08439 32.606 8.51749 32.7393 7.98052C32.8595 7.45231 33.1564 6.98094 33.5808 6.64433C34.0053 6.30772 34.5319 6.12604 35.0736 6.12931C35.6153 6.13259 36.1396 6.32063 36.56 6.66235C36.9803 7.00407 37.2714 7.479 37.3852 8.00862C37.5065 8.53663 37.4409 9.09033 37.1996 9.57539C36.9584 10.0605 36.5564 10.4469 36.0622 10.6688C35.9594 10.7021 35.8712 10.77 35.8128 10.8609C35.7543 10.9518 35.7291 11.0602 35.7414 11.1676C35.7554 12.2916 35.7414 13.4133 35.7414 14.5654C35.8623 14.5859 35.9842 14.6 36.1067 14.6075C36.7225 14.6075 37.3384 14.5771 37.9519 14.6075C38.5069 14.645 38.8347 14.5466 39.0994 13.9518C39.6473 12.7248 41.0523 12.1839 42.3637 12.5468C42.974 12.7243 43.5071 13.1014 43.8778 13.6178C44.2485 14.1341 44.4353 14.7598 44.4083 15.3948C44.3813 16.0299 44.1421 16.6375 43.729 17.1205C43.3159 17.6036 42.7527 17.9341 42.1295 18.0592C41.4921 18.1939 40.8277 18.1002 40.2524 17.7946C39.677 17.4889 39.2275 16.9908 38.9823 16.3872C38.947 16.2396 38.857 16.1109 38.7306 16.027C38.6041 15.9431 38.4505 15.9104 38.3008 15.9353C37.4461 15.9587 36.5891 15.9353 35.725 15.954C35.502 15.9759 35.2919 16.0687 35.1255 16.2186C34.4488 16.8532 33.8024 17.5183 33.1374 18.1833C34.3401 19.7485 35.0625 21.6294 35.2168 23.5973H35.6711C37.7786 23.5973 39.8721 23.5973 41.9703 23.5973C42.099 23.6192 42.2312 23.5951 42.3439 23.5291C42.4565 23.4632 42.5423 23.3596 42.5861 23.2367C42.8185 22.7346 43.2211 22.331 43.7226 22.0974C44.2241 21.8638 44.7921 21.8153 45.3259 21.9604C45.838 22.0934 46.2911 22.3933 46.6135 22.8128C46.9358 23.2323 47.109 23.7473 47.1056 24.2764C47.1149 24.8249 46.9346 25.3599 46.595 25.7908C46.2554 26.2217 45.7775 26.5222 45.242 26.6414C44.7064 26.7606 44.1462 26.6913 43.6559 26.4451C43.1656 26.199 42.7753 25.791 42.551 25.2903C42.455 25.089 42.3777 24.9508 42.1061 24.9531C39.8862 24.9531 37.6569 24.9531 35.4463 24.9531C35.3676 24.9588 35.2894 24.9697 35.2121 24.9859C35.1113 26.2607 34.7705 27.5049 34.2076 28.653C33.9898 29.0792 33.7392 29.4937 33.4863 29.8965C33.2334 30.2992 32.8775 30.3812 32.5332 30.1587C32.189 29.9363 32.1 29.5522 32.3717 29.1448C33.4223 27.5928 33.9446 25.7435 33.861 23.8713C33.7205 19.7616 30.2079 16.1062 26.0983 15.7292C20.7709 15.2421 16.6378 19.5649 16.6963 24.5223C16.7268 27.1918 17.9 29.3321 19.9443 31.0158C20.0707 31.1212 20.2089 31.2148 20.326 31.3296C20.3862 31.3818 20.4352 31.4456 20.4702 31.5172C20.5052 31.5888 20.5253 31.6667 20.5295 31.7463C20.5337 31.8259 20.5217 31.9055 20.4944 31.9803C20.4671 32.0552 20.4249 32.1238 20.3705 32.182C20.1363 32.4793 19.8272 32.6035 19.5064 32.3669C19.0676 32.0506 18.6528 31.7023 18.2653 31.3249C16.629 29.7285 15.6117 27.6035 15.3944 25.3278C15.3663 25.0491 15.2913 24.9391 14.9939 24.9414C12.8349 24.9539 10.6751 24.9539 8.51446 24.9414C8.20067 24.9414 8.11871 25.103 8.00865 25.3278C7.79541 25.7788 7.44371 26.1499 7.0048 26.3871C6.56589 26.6242 6.06272 26.715 5.56861 26.6462C5.08692 26.5987 4.6325 26.4004 4.27007 26.0796C3.90764 25.7588 3.65567 25.3318 3.55006 24.8595C3.3894 24.2842 3.45075 23.6696 3.72196 23.1375C3.99316 22.6053 4.45442 22.1945 5.01429 21.9865C5.57415 21.7784 6.19174 21.7884 6.74463 22.0143C7.29752 22.2402 7.74533 22.6656 7.99929 23.2062C8.04169 23.3362 8.12792 23.4475 8.24324 23.5209C8.35856 23.5944 8.49582 23.6255 8.63155 23.609C10.7765 23.5926 12.9215 23.609 15.0665 23.609C15.1653 23.6041 15.2638 23.5939 15.3616 23.5786C15.5108 21.62 16.2295 19.7479 17.4293 18.1927C16.7151 17.4902 16.0243 16.7689 15.2937 16.0851C15.1693 16.0074 15.0228 15.9729 14.8769 15.9868C13.9917 15.9868 13.1042 16.0008 12.2214 15.9868C12.0855 15.9636 11.9459 15.9934 11.8313 16.0701C11.7167 16.1468 11.6359 16.2645 11.6055 16.3989C11.3876 16.9352 11.0074 17.3899 10.5182 17.6994C10.0291 18.0088 9.45535 18.1576 8.87742 18.1248C7.545 18.0311 6.5568 17.256 6.23833 16.057C6.03251 15.3553 6.10571 14.6012 6.44265 13.9522C6.7796 13.3032 7.35423 12.8094 8.04657 12.574C8.73891 12.3386 9.49542 12.3798 10.1581 12.6889C10.8209 12.998 11.3386 13.5511 11.6032 14.2329C11.6339 14.3595 11.7119 14.4695 11.8212 14.5405C11.9305 14.6115 12.0627 14.638 12.1909 14.6145C13.0433 14.5982 13.8933 14.6145 14.7668 14.6145C14.7668 14.4249 14.7949 14.282 14.7972 14.1462C14.7972 13.4109 14.7738 12.6756 14.7972 11.9403C14.8277 11.28 14.7972 10.7882 14.0573 10.3948C13.1136 9.86559 12.8794 8.63854 13.2751 7.59648C13.4194 7.23874 13.6484 6.92136 13.9423 6.67159C14.2363 6.42181 14.5865 6.24709 14.9628 6.16244C15.3391 6.07779 15.7304 6.08573 16.103 6.18558C16.4756 6.28543 16.8184 6.47421 17.102 6.73571C17.3855 6.99721 17.6014 7.32361 17.7311 7.68691C17.8607 8.05021 17.9003 8.43955 17.8464 8.8215C17.7924 9.20345 17.6466 9.56661 17.4214 9.8798C17.1962 10.193 16.8984 10.4469 16.5535 10.6196C16.4188 10.6698 16.3058 10.7652 16.2336 10.8895C16.1614 11.0137 16.1346 11.1592 16.1578 11.301C16.1765 12.397 16.1742 13.4905 16.1578 14.5794C16.1502 14.7194 16.1748 14.8593 16.2296 14.9884C16.2844 15.1174 16.368 15.2322 16.4739 15.3241C17.0944 15.9236 17.6845 16.5347 18.3168 17.167C20.0111 15.5337 22.2206 14.5403 24.5668 14.357V7.85641C23.4943 7.50281 22.7543 6.81904 22.5038 5.69034C22.3409 4.98798 22.4543 4.24991 22.8205 3.62881C23.1866 3.00771 23.7774 2.55109 24.4708 2.35342C24.5691 2.32532 24.6628 2.28317 24.7588 2.24805H25.8383ZM41.5816 16.7666C41.7811 16.7724 41.9797 16.7374 42.1652 16.6636C42.3506 16.5899 42.5191 16.479 42.6601 16.3377C42.8011 16.1965 42.9118 16.0279 42.9852 15.8423C43.0587 15.6567 43.0934 15.458 43.0873 15.2585C43.0873 14.861 42.9294 14.4798 42.6483 14.1988C42.3673 13.9177 41.9861 13.7598 41.5886 13.7598C41.1911 13.7598 40.8099 13.9177 40.5289 14.1988C40.2478 14.4798 40.0899 14.861 40.0899 15.2585C40.0832 15.457 40.117 15.6547 40.1894 15.8397C40.2617 16.0246 40.3711 16.1928 40.5107 16.334C40.6504 16.4752 40.8174 16.5864 41.0015 16.6608C41.1856 16.7351 41.383 16.7711 41.5816 16.7666ZM10.4604 15.2913C10.4648 15.0958 10.4299 14.9014 10.3576 14.7196C10.2854 14.5379 10.1774 14.3726 10.04 14.2334C9.90258 14.0942 9.7386 13.9841 9.55779 13.9096C9.37698 13.8351 9.18304 13.7977 8.98748 13.7996C8.78828 13.7961 8.59042 13.8328 8.40572 13.9075C8.22102 13.9822 8.05327 14.0934 7.9125 14.2344C7.77173 14.3754 7.66083 14.5433 7.58642 14.7281C7.51201 14.9129 7.47562 15.1108 7.47943 15.31C7.4862 15.7038 7.64772 16.0792 7.92906 16.3548C8.2104 16.6304 8.58894 16.7842 8.9828 16.783C9.17794 16.7827 9.3711 16.7438 9.55115 16.6685C9.7312 16.5933 9.8946 16.4832 10.0319 16.3445C10.1693 16.2059 10.2778 16.0415 10.3514 15.8607C10.4249 15.6799 10.462 15.4864 10.4604 15.2913ZM25.281 3.58281C24.8954 3.59326 24.5288 3.7527 24.2582 4.02768C23.9876 4.30265 23.8341 4.67176 23.8298 5.05752C23.8256 5.44328 23.9709 5.81569 24.2354 6.09654C24.4999 6.3774 24.8629 6.54487 25.2482 6.56379C25.4435 6.5717 25.6384 6.53996 25.8211 6.47049C26.0038 6.40102 26.1706 6.29525 26.3113 6.15958C26.452 6.0239 26.5638 5.86112 26.6398 5.68107C26.7159 5.50101 26.7547 5.30741 26.7539 5.11194C26.7639 4.91449 26.7332 4.7171 26.6639 4.53194C26.5946 4.34678 26.4881 4.17779 26.351 4.03539C26.2139 3.89298 26.049 3.78019 25.8666 3.70396C25.6842 3.62773 25.4881 3.58969 25.2904 3.59218L25.281 3.58281ZM35.0482 7.45832C34.7737 7.46112 34.5116 7.57284 34.3194 7.76893C34.1273 7.96501 34.0209 8.22938 34.0237 8.50389C34.0265 8.7784 34.1383 9.04055 34.3343 9.23268C34.5304 9.42481 34.7948 9.53118 35.0693 9.52838C35.2052 9.527 35.3395 9.49886 35.4646 9.44556C35.5896 9.39227 35.703 9.31487 35.7981 9.21778C35.8932 9.12069 35.9683 9.00581 36.019 8.87971C36.0698 8.7536 36.0952 8.61874 36.0938 8.48281C36.0924 8.34689 36.0643 8.21257 36.011 8.08753C35.9577 7.96248 35.8803 7.84916 35.7832 7.75402C35.6861 7.65889 35.5712 7.58381 35.4451 7.53308C35.319 7.48234 35.1841 7.45694 35.0482 7.45832ZM45.7428 24.2694C45.744 23.9984 45.6377 23.7379 45.4472 23.5452C45.2566 23.3525 44.9975 23.2432 44.7265 23.2414C44.5874 23.2417 44.4498 23.2695 44.3215 23.3234C44.1933 23.3772 44.0771 23.456 43.9795 23.5551C43.8819 23.6542 43.805 23.7717 43.7531 23.9007C43.7013 24.0297 43.6755 24.1678 43.6774 24.3068C43.6847 24.5793 43.7998 24.8377 43.9973 25.0256C44.1948 25.2134 44.4586 25.3154 44.7311 25.3091C44.8657 25.3094 44.9989 25.2829 45.123 25.231C45.2471 25.1791 45.3596 25.1029 45.4539 25.0069C45.5481 24.9109 45.6222 24.797 45.6718 24.672C45.7215 24.5469 45.7456 24.4132 45.7428 24.2787V24.2694ZM5.85429 25.3091C6.12681 25.3173 6.39146 25.2172 6.59029 25.0306C6.78912 24.8441 6.90591 24.5863 6.91508 24.3139C6.91788 24.1749 6.89304 24.0368 6.84201 23.9075C6.79098 23.7783 6.71478 23.6604 6.61783 23.5609C6.52088 23.4613 6.40511 23.382 6.27725 23.3276C6.1494 23.2731 6.01199 23.2446 5.87303 23.2437C5.59914 23.2412 5.33549 23.3476 5.14006 23.5395C4.94464 23.7315 4.83346 23.9931 4.83097 24.267C4.82849 24.5409 4.93491 24.8046 5.12682 25C5.31873 25.1954 5.58041 25.3066 5.85429 25.3091ZM16.5137 8.48867C16.5153 8.35356 16.4897 8.2195 16.4385 8.09445C16.3874 7.9694 16.3116 7.8559 16.2157 7.76068C16.1198 7.66546 16.0058 7.59046 15.8804 7.54014C15.755 7.48981 15.6208 7.46517 15.4857 7.46769C15.3498 7.46923 15.2155 7.49752 15.0905 7.55096C14.9655 7.60439 14.8523 7.68192 14.7572 7.77912C14.6622 7.87632 14.5873 7.99128 14.5367 8.11745C14.4861 8.24361 14.4608 8.37851 14.4624 8.51443C14.4639 8.65035 14.4922 8.78464 14.5456 8.90962C14.5991 9.03461 14.6766 9.14785 14.7738 9.24287C14.871 9.3379 14.986 9.41285 15.1121 9.46344C15.2383 9.51404 15.3732 9.53929 15.5091 9.53775C15.6444 9.53626 15.778 9.50778 15.9021 9.45397C16.0263 9.40017 16.1384 9.32212 16.232 9.22441C16.3255 9.1267 16.3986 9.01129 16.447 8.88495C16.4954 8.75861 16.5181 8.62388 16.5137 8.48867Z" fill="#E45412"/>
<path d="M22.8737 36.9121V33.7859C22.8737 32.7509 22.855 31.7159 22.8737 30.6809C22.8974 30.5241 22.8651 30.3639 22.7824 30.2286C22.6998 30.0933 22.5721 29.9914 22.4218 29.9409C19.4478 28.5078 18.0873 24.7142 19.4572 21.7449C19.6913 21.2204 19.9817 21.0635 20.3939 21.2321C20.806 21.4007 20.9348 21.7496 20.7123 22.2788C20.2126 23.4003 20.1491 24.6678 20.5344 25.8335C20.92 27.039 21.7599 28.0469 22.8761 28.6436C22.8761 27.5008 22.8761 26.4283 22.8761 25.3652C22.8572 24.7744 23.0602 24.198 23.4451 23.7494C23.7361 23.4013 24.1248 23.1483 24.5609 23.0231C24.9971 22.8979 25.4608 22.9062 25.8922 23.0469C26.3383 23.1954 26.7283 23.477 27.0096 23.8538C27.2909 24.2306 27.4501 24.6845 27.4658 25.1545C27.4869 26.3253 27.4658 27.4961 27.4658 28.7583C27.6672 28.6483 27.8217 28.578 27.9622 28.489C29.0378 27.8135 29.8154 26.7531 30.1363 25.5242C30.4573 24.2952 30.2975 22.9901 29.6895 21.8748C29.0816 20.7596 28.0713 19.9182 26.8644 19.522C25.6576 19.1258 24.3451 19.2048 23.1945 19.7428C22.9814 19.8411 22.7051 19.9934 22.5318 19.9278C22.2851 19.8151 22.0907 19.6124 21.9885 19.3611C21.8644 19.045 22.0775 18.7967 22.3749 18.6445C23.1382 18.2357 23.9803 17.9953 24.8443 17.9396C25.7084 17.8838 26.5743 18.014 27.3838 18.3214C29.8098 19.1995 31.5169 21.4522 31.5989 23.8572C31.7019 26.6672 30.2992 28.9621 27.796 30.0884C27.5618 30.1961 27.44 30.3062 27.4588 30.5825C27.4845 30.9525 27.4588 31.3295 27.4588 31.7534C27.6344 31.7534 27.7913 31.7768 27.9482 31.7791L32.765 31.7908C34.8726 31.7908 36.2261 33.135 36.2542 35.2401C36.2542 35.6897 36.2729 36.1417 36.2542 36.5913C36.2354 37.0409 35.9825 37.3149 35.568 37.3079C35.4771 37.3102 35.3868 37.2933 35.3029 37.2582C35.219 37.2231 35.1435 37.1707 35.0813 37.1043C35.0192 37.038 34.9717 36.9592 34.9422 36.8732C34.9127 36.7872 34.9017 36.6959 34.91 36.6054C34.8936 36.0808 34.91 35.5539 34.889 35.0294C34.8421 33.999 34.0951 33.1982 33.1725 33.2239C33.1725 33.6548 33.1725 34.088 33.1725 34.5189C33.1608 35.0341 32.9243 35.287 32.4911 35.2799C32.0578 35.2729 31.8354 35.027 31.826 34.5048C31.826 34.0716 31.826 33.6408 31.826 33.1701H30.3156C30.3156 33.6173 30.3156 34.0623 30.3156 34.5072C30.3156 35.0224 30.0815 35.2823 29.6459 35.2823C29.2103 35.2823 28.9738 35.02 28.9668 34.5166C28.9668 34.0716 28.9668 33.6267 28.9668 33.156H27.4517C27.4517 33.6103 27.4517 34.0412 27.4517 34.4721C27.4517 35.0341 27.2339 35.287 26.782 35.2799C26.3301 35.2729 26.1029 35.006 26.1029 34.4627C26.1029 31.5246 26.1029 28.5843 26.1029 25.6415C26.1084 25.4767 26.1045 25.3118 26.0912 25.1474C26.098 24.899 26.0059 24.658 25.8351 24.4776C25.6642 24.2971 25.4287 24.1918 25.1803 24.185C24.9319 24.1782 24.6909 24.2703 24.5104 24.4411C24.3299 24.612 24.2247 24.8475 24.2178 25.0959C24.1994 25.2599 24.194 25.4251 24.2014 25.59C24.2014 29.9245 24.2014 34.2543 24.2014 38.5958C24.2023 38.8717 24.1135 39.1404 23.9485 39.3615C23.691 39.6613 23.246 39.5653 22.9416 39.1953C21.9924 38.0525 21.048 36.9066 20.1082 35.7577C20.0057 35.5987 19.8615 35.471 19.6913 35.3884C19.5212 35.3058 19.3317 35.2716 19.1434 35.2893C18.3823 35.39 18.0662 36.2471 18.5744 36.8746C19.3307 37.8113 20.1128 38.7176 20.8833 39.6378C21.9511 40.9141 23.0306 42.1833 24.0797 43.4759C24.2571 43.7083 24.3593 43.9893 24.3724 44.2814C24.4052 45.361 24.3888 46.4405 24.3864 47.5223C24.3864 48.0375 24.1523 48.3091 23.7401 48.3209C23.328 48.3326 23.0376 48.0445 23.0376 47.527C23.0376 46.6114 23.0212 45.6958 23.0376 44.7802C23.0432 44.6258 23.0181 44.4718 22.9638 44.3271C22.9096 44.1824 22.8272 44.0499 22.7215 43.9372C20.9996 41.8796 19.2722 39.8135 17.5393 37.7387C17.1971 37.3445 16.9998 36.8451 16.9803 36.3234C16.9607 35.8017 17.1199 35.289 17.4316 34.8702C17.7349 34.4536 18.1719 34.1536 18.6696 34.0202C19.1673 33.8868 19.6957 33.9281 20.1667 34.1372C20.5494 34.337 20.8904 34.608 21.1713 34.9357C21.7169 35.5329 22.211 36.1768 22.7262 36.8091C22.7725 36.8473 22.8219 36.8818 22.8737 36.9121Z" fill="white"/>
<path d="M22.8737 36.9121V33.7859C22.8737 32.7509 22.855 31.7159 22.8737 30.6809C22.8974 30.5241 22.8651 30.3639 22.7824 30.2286C22.6998 30.0933 22.5721 29.9914 22.4218 29.9409C19.4478 28.5078 18.0873 24.7142 19.4572 21.7449C19.6913 21.2204 19.9817 21.0635 20.3939 21.2321C20.806 21.4007 20.9348 21.7496 20.7123 22.2788C20.2126 23.4003 20.1491 24.6678 20.5344 25.8335C20.92 27.039 21.7599 28.0469 22.8761 28.6436C22.8761 27.5008 22.8761 26.4283 22.8761 25.3652C22.8572 24.7744 23.0602 24.198 23.4451 23.7494C23.7361 23.4013 24.1248 23.1483 24.5609 23.0231C24.9971 22.8979 25.4608 22.9062 25.8922 23.0469C26.3383 23.1954 26.7283 23.477 27.0096 23.8538C27.2909 24.2306 27.4501 24.6845 27.4658 25.1545C27.4869 26.3253 27.4658 27.4961 27.4658 28.7583C27.6672 28.6483 27.8217 28.578 27.9622 28.489C29.0378 27.8135 29.8154 26.7531 30.1363 25.5242C30.4573 24.2952 30.2975 22.9901 29.6895 21.8748C29.0816 20.7596 28.0713 19.9182 26.8644 19.522C25.6576 19.1258 24.3451 19.2048 23.1945 19.7428C22.9814 19.8411 22.7051 19.9934 22.5318 19.9278C22.2851 19.8151 22.0907 19.6124 21.9885 19.3611C21.8644 19.045 22.0775 18.7967 22.3749 18.6445C23.1382 18.2357 23.9803 17.9953 24.8443 17.9396C25.7084 17.8838 26.5743 18.014 27.3838 18.3214C29.8098 19.1995 31.5169 21.4522 31.5989 23.8572C31.7019 26.6672 30.2992 28.9621 27.796 30.0884C27.5618 30.1961 27.44 30.3062 27.4588 30.5825C27.4845 30.9525 27.4588 31.3295 27.4588 31.7534C27.6344 31.7534 27.7913 31.7768 27.9482 31.7791L32.765 31.7908C34.8726 31.7908 36.2261 33.135 36.2542 35.2401C36.2542 35.6897 36.2729 36.1417 36.2542 36.5913C36.2354 37.0409 35.9825 37.3149 35.568 37.3079C35.4771 37.3102 35.3868 37.2933 35.3029 37.2582C35.219 37.2231 35.1435 37.1707 35.0813 37.1043C35.0192 37.038 34.9717 36.9592 34.9422 36.8732C34.9127 36.7872 34.9017 36.6959 34.91 36.6054C34.8936 36.0808 34.91 35.5539 34.889 35.0294C34.8421 33.999 34.0951 33.1982 33.1725 33.2239C33.1725 33.6548 33.1725 34.088 33.1725 34.5189C33.1608 35.0341 32.9243 35.287 32.4911 35.2799C32.0578 35.2729 31.8354 35.027 31.826 34.5048C31.826 34.0716 31.826 33.6408 31.826 33.1701H30.3156C30.3156 33.6173 30.3156 34.0623 30.3156 34.5072C30.3156 35.0224 30.0815 35.2823 29.6459 35.2823C29.2103 35.2823 28.9738 35.02 28.9668 34.5166C28.9668 34.0716 28.9668 33.6267 28.9668 33.156H27.4517C27.4517 33.6103 27.4517 34.0412 27.4517 34.4721C27.4517 35.0341 27.2339 35.287 26.782 35.2799C26.3301 35.2729 26.1029 35.006 26.1029 34.4627C26.1029 31.5246 26.1029 28.5843 26.1029 25.6415C26.1084 25.4767 26.1045 25.3118 26.0912 25.1474C26.098 24.899 26.0059 24.658 25.8351 24.4776C25.6642 24.2971 25.4287 24.1918 25.1803 24.185C24.9319 24.1782 24.6909 24.2703 24.5104 24.4411C24.3299 24.612 24.2247 24.8475 24.2178 25.0959C24.1994 25.2599 24.194 25.4251 24.2014 25.59C24.2014 29.9245 24.2014 34.2543 24.2014 38.5958C24.2023 38.8717 24.1135 39.1404 23.9485 39.3615C23.691 39.6613 23.246 39.5653 22.9416 39.1953C21.9924 38.0525 21.048 36.9066 20.1082 35.7577C20.0057 35.5987 19.8615 35.471 19.6913 35.3884C19.5212 35.3058 19.3317 35.2716 19.1434 35.2893C18.3823 35.39 18.0662 36.2471 18.5744 36.8746C19.3307 37.8113 20.1128 38.7176 20.8833 39.6378C21.9511 40.9141 23.0306 42.1833 24.0797 43.4759C24.2571 43.7083 24.3593 43.9893 24.3724 44.2814C24.4052 45.361 24.3888 46.4405 24.3864 47.5223C24.3864 48.0375 24.1523 48.3091 23.7401 48.3209C23.328 48.3326 23.0376 48.0445 23.0376 47.527C23.0376 46.6114 23.0212 45.6958 23.0376 44.7802C23.0432 44.6258 23.0181 44.4718 22.9638 44.3271C22.9096 44.1824 22.8272 44.0499 22.7215 43.9372C20.9996 41.8796 19.2722 39.8135 17.5393 37.7387C17.1971 37.3445 16.9998 36.8451 16.9803 36.3234C16.9607 35.8017 17.1199 35.289 17.4316 34.8702C17.7349 34.4536 18.1719 34.1536 18.6696 34.0202C19.1673 33.8868 19.6957 33.9281 20.1667 34.1372C20.5494 34.337 20.8904 34.608 21.1713 34.9357C21.7169 35.5329 22.211 36.1768 22.7262 36.8091C22.7725 36.8473 22.8219 36.8818 22.8737 36.9121Z" fill="#E45412"/>
<path d="M32.8446 46.2438C32.8446 46.197 32.8446 46.1525 32.8446 46.108C32.744 45.1198 32.9149 44.2978 33.7439 43.5626C34.5728 42.8273 34.8889 41.7594 34.9451 40.6425C34.9451 40.509 34.9452 40.3708 34.9686 40.2397C34.984 40.0658 35.0654 39.9044 35.196 39.7886C35.3266 39.6728 35.4966 39.6113 35.6711 39.6168C35.7584 39.6164 35.8447 39.6343 35.9247 39.6693C36.0046 39.7043 36.0763 39.7557 36.1352 39.8201C36.1941 39.8845 36.2389 39.9605 36.2666 40.0433C36.2944 40.126 36.3045 40.2137 36.2963 40.3006C36.2133 41.1001 36.0669 41.8917 35.8584 42.668C35.6032 43.5227 35.0576 44.2299 34.4347 44.8762C34.2981 45.0242 34.2155 45.214 34.2005 45.4148C34.1747 46.1033 34.2005 46.7918 34.2005 47.4826C34.2005 48.0539 33.9663 48.3443 33.512 48.3326C33.0577 48.3209 32.8564 48.0469 32.8517 47.5013C32.8423 47.0821 32.8446 46.663 32.8446 46.2438Z" fill="white"/>
<path d="M32.8446 46.2438C32.8446 46.197 32.8446 46.1525 32.8446 46.108C32.744 45.1198 32.9149 44.2978 33.7439 43.5626C34.5728 42.8273 34.8889 41.7594 34.9451 40.6425C34.9451 40.509 34.9452 40.3708 34.9686 40.2397C34.984 40.0658 35.0654 39.9044 35.196 39.7886C35.3266 39.6728 35.4966 39.6113 35.6711 39.6168C35.7584 39.6164 35.8447 39.6343 35.9247 39.6693C36.0046 39.7043 36.0763 39.7557 36.1352 39.8201C36.1941 39.8845 36.2389 39.9605 36.2666 40.0433C36.2944 40.126 36.3045 40.2137 36.2963 40.3006C36.2133 41.1001 36.0669 41.8917 35.8584 42.668C35.6032 43.5227 35.0576 44.2299 34.4347 44.8762C34.2981 45.0242 34.2155 45.214 34.2005 45.4148C34.1747 46.1033 34.2005 46.7918 34.2005 47.4826C34.2005 48.0539 33.9663 48.3443 33.512 48.3326C33.0577 48.3209 32.8564 48.0469 32.8517 47.5013C32.8423 47.0821 32.8446 46.663 32.8446 46.2438Z" fill="#E45412"/>
</svg>
