<svg width="56" height="56" viewBox="0 0 56 56" fill="none" xmlns="http://www.w3.org/2000/svg">
<path d="M0 24.7858C0.259259 23.9458 0.876296 23.5232 1.68519 23.2303C6.22222 21.6358 10.767 20.0025 15.2963 18.3847C15.483 18.3173 15.667 18.2421 15.973 18.1255C15.849 17.9962 15.7087 17.8838 15.5556 17.791C15.0915 17.6277 14.617 17.5006 14.1504 17.3477C13.8552 17.272 13.5942 17.0991 13.4093 16.8568C13.2245 16.6146 13.1266 16.3172 13.1315 16.0125C13.1107 15.2658 13.1133 14.5192 13.1315 13.7751C13.147 13.0984 13.4893 12.5566 14.1426 12.4503C15.4156 12.2403 16.1519 11.6103 16.38 10.3088C16.5156 9.79779 16.7393 9.31437 17.0411 8.88028C17.2407 8.54324 17.3004 8.27102 17.0567 7.94435C16.9306 7.74377 16.818 7.53504 16.7196 7.31954C16.0715 6.10102 16.1104 5.74324 17.0463 4.75806C17.4481 4.33806 17.8733 3.9388 18.3089 3.54991C18.7937 3.11694 19.4081 2.97694 19.9189 3.35806C21.0104 4.17213 22.0137 4.11768 23.1156 3.38657C23.5563 3.0962 24.1526 3.03139 24.6426 2.81361C24.8524 2.71421 25.0217 2.54581 25.1222 2.33657C25.3011 1.92176 25.3815 1.47065 25.5344 1.04028C25.6015 0.761995 25.757 0.512983 25.9777 0.330656C26.1983 0.148329 26.4722 0.0425335 26.7581 0.0291667C27.593 -0.00972222 28.433 -0.00972222 29.2678 0.0291667C29.5486 0.0261184 29.8213 0.123829 30.0363 0.304578C30.2513 0.485326 30.3944 0.737141 30.4396 1.01435C30.6367 2.34954 31.3626 3.04694 32.6719 3.29843C33.1805 3.44355 33.6615 3.67223 34.0952 3.97509C34.2122 4.05814 34.3522 4.10276 34.4957 4.10276C34.6393 4.10276 34.7792 4.05814 34.8963 3.97509C35.2696 3.75213 35.6741 3.5525 36.05 3.35546C36.3031 3.20347 36.5993 3.13913 36.8927 3.1724C37.1861 3.20568 37.4603 3.33471 37.673 3.53954C38.2623 4.08225 38.8284 4.64917 39.3711 5.24028C39.567 5.44853 39.6903 5.71458 39.7226 5.99869C39.7548 6.2828 39.6943 6.56971 39.55 6.81657C39.2907 7.33509 38.8111 7.85361 38.8007 8.37213C38.7904 8.89065 39.2648 9.40917 39.4852 9.92768C39.7056 10.4462 39.8559 11.0321 40.0789 11.5662C40.162 11.7504 40.3095 11.8979 40.4937 11.981C40.95 12.1599 41.4348 12.2688 41.8963 12.4321C42.1789 12.5117 42.4278 12.6814 42.6051 12.9154C42.7825 13.1494 42.8786 13.4348 42.8789 13.7284C42.8996 14.4569 42.91 15.1855 42.8789 15.9114C42.8478 16.7281 42.5211 17.1247 41.7356 17.3788C41.3181 17.5136 40.8981 17.6381 40.4833 17.7677C40.2957 17.8504 40.1131 17.9438 39.9363 18.0477C40.2707 18.1851 40.4418 18.2629 40.6181 18.3251L54.333 23.251C54.4859 23.3081 54.6415 23.3599 54.7919 23.4247C55.1456 23.5569 55.4506 23.7937 55.6664 24.1035C55.8823 24.4134 55.9986 24.7816 56 25.1592C56.0018 25.5356 55.8864 25.9032 55.67 26.2112C55.4535 26.5192 55.1466 26.7522 54.7919 26.8781C53.1896 27.4769 51.5744 28.0421 49.967 28.6203L45.3004 30.2873L48.8704 31.5681C50.8044 32.2629 52.7437 32.9421 54.6726 33.6421C55.8081 34.0621 56.28 35.1718 55.8081 36.1932C55.6808 36.445 55.5023 36.6673 55.284 36.8459C55.0656 37.0245 54.8123 37.1554 54.5404 37.2303C52.1085 38.0945 49.6767 38.9656 47.2448 39.8436L46.6485 40.0588C46.9233 40.1677 47.0893 40.2403 47.2578 40.3025C49.6896 41.1762 52.1241 42.0421 54.5533 42.921C55.5074 43.2658 56 43.9088 55.987 44.7618C55.9741 45.6147 55.5022 46.2084 54.5585 46.5481L28.6611 55.8192C28.5811 55.8534 28.5032 55.8923 28.4278 55.9358H27.5515C27.514 55.8993 27.4711 55.8688 27.4244 55.8451C18.9035 52.7997 10.3816 49.7586 1.85889 46.7218C1.03704 46.4495 0.352593 46.0762 0 45.2388V44.3625C0.274815 43.5562 0.858148 43.1206 1.65407 42.8484C3.85519 42.0966 6.04074 41.2929 8.23407 40.5151C8.56852 40.3958 8.89778 40.2558 9.3437 40.0951C9.08444 39.9888 8.91593 39.9188 8.75259 39.8618C6.41926 39.0218 4.07037 38.1636 1.7137 37.3547C0.907407 37.0773 0.29037 36.6573 0 35.8329V34.9566C0.33963 34.1373 0.987778 33.7251 1.81481 33.4606C3.21481 33.0069 4.59148 32.4858 5.97852 31.9881C7.51074 31.441 9.04556 30.8862 10.6659 30.3055C10.4326 30.2044 10.2874 30.1344 10.1474 30.0799C7.33963 29.0766 4.53704 28.0603 1.72148 27.0829C0.912593 26.8029 0.298148 26.3803 0.0155556 25.5506L0 24.7858ZM1.91593 35.4155L2.46815 35.6203C10.723 38.5741 18.9743 41.5314 27.2222 44.4921C27.7078 44.6841 28.2482 44.6841 28.7337 44.4921C36.5253 41.7008 44.3204 38.9198 52.1189 36.1492C52.7307 35.9288 53.34 35.7032 54.0374 35.4466C53.8689 35.3662 53.8067 35.3273 53.7393 35.304C50.1252 34.0077 46.5137 32.7114 42.8919 31.4436C42.6017 31.3655 42.2944 31.38 42.013 31.4851C37.692 33.0147 33.371 34.5582 29.05 36.1155C28.3694 36.3787 27.6151 36.3787 26.9344 36.1155C22.6437 34.5599 18.34 33.0303 14.0467 31.4825C13.6758 31.3372 13.2638 31.3372 12.893 31.4825C10.3807 32.4003 7.86074 33.2973 5.34333 34.1944L1.91593 35.4155ZM54.0581 44.7695C53.9816 44.7265 53.9029 44.6876 53.8222 44.6529C50.5867 43.494 47.3407 42.3195 44.1078 41.1892C43.8687 41.13 43.617 41.1491 43.3896 41.2436C38.5726 42.9547 33.759 44.6745 28.9489 46.4029C28.3329 46.6387 27.6515 46.6387 27.0356 46.4029C22.2272 44.6745 17.4144 42.953 12.5974 41.2384C12.3294 41.1516 12.0409 41.1516 11.773 41.2384C10.3704 41.7181 8.9937 42.2184 7.60667 42.7162L1.9263 44.7488C2.22185 44.8629 2.42148 44.9432 2.6263 45.0081C10.9001 47.9705 19.1722 50.9356 27.4426 53.9032C27.7761 54.0329 28.1461 54.0329 28.4796 53.9032C35.0907 51.5371 41.7036 49.1769 48.3181 46.8229L54.0581 44.7695ZM16.52 19.9247L1.91852 25.1488C2.17778 25.2525 2.35407 25.3199 2.52259 25.3795C10.7601 28.3213 18.9933 31.269 27.2222 34.2229C27.6905 34.407 28.211 34.407 28.6793 34.2229C36.2116 31.5231 43.7483 28.8346 51.2893 26.1573C52.1811 25.8384 53.073 25.5118 54.0841 25.1436L39.5422 19.9403C38.8163 20.7958 38.5648 21.6306 39.3244 22.5329C39.4209 22.6663 39.4994 22.8119 39.5578 22.9658C39.698 23.2148 39.7555 23.5019 39.722 23.7857C39.6884 24.0695 39.5656 24.3353 39.3711 24.5447C38.8293 25.1332 38.2641 25.7036 37.673 26.2429C37.4602 26.4477 37.1858 26.5765 36.8923 26.6093C36.5988 26.6421 36.3027 26.5771 36.05 26.4244C35.6611 26.2247 35.2722 26.0277 34.8963 25.8047C34.779 25.7224 34.6391 25.6782 34.4957 25.6782C34.3524 25.6782 34.2125 25.7224 34.0952 25.8047C33.6078 26.0847 33.1048 26.414 32.5681 26.5177C31.3081 26.7588 30.647 27.4432 30.4604 28.7136C30.4113 29.0072 30.2584 29.2735 30.0295 29.4638C29.8006 29.6542 29.511 29.756 29.2133 29.7506C28.4137 29.7934 27.6123 29.7934 26.8126 29.7506C26.5084 29.7399 26.2162 29.6288 25.9818 29.4346C25.7473 29.2405 25.5836 28.9742 25.5163 28.6773C25.4086 28.2548 25.2779 27.8385 25.1248 27.4303C25.019 27.2225 24.8438 27.0583 24.6296 26.9662C24.1319 26.7458 23.5433 26.6836 23.1026 26.3881C22.0111 25.644 21 25.6077 19.9163 26.4218C19.4211 26.7925 18.8119 26.681 18.3607 26.261C17.7696 25.7218 17.2019 25.154 16.6574 24.5655C16.4526 24.3528 16.3235 24.0786 16.2903 23.7852C16.257 23.4918 16.3213 23.1956 16.4733 22.9425C16.6963 22.5044 16.9504 22.0818 17.1578 21.6462C17.2213 21.4891 17.2213 21.3134 17.1578 21.1562C16.9815 20.7466 16.7585 20.3706 16.52 19.9247ZM27.2507 27.9618C27.637 27.9618 28 27.941 28.3604 27.9618C28.6819 27.9851 28.8089 27.8451 28.8789 27.5547C29.0033 27.0803 29.1719 26.6162 29.3041 26.1444C29.3632 25.9352 29.4785 25.7462 29.6376 25.5981C29.7967 25.45 29.9934 25.3484 30.2063 25.3044C31.2044 24.9803 32.2804 24.7236 33.1385 24.1662C34.1263 23.5284 34.8911 23.5829 35.8219 24.1662C36.693 24.7288 36.7163 24.6588 37.4578 23.9069C37.5143 23.865 37.5617 23.812 37.597 23.7512C37.6324 23.6903 37.655 23.623 37.6635 23.5531C37.672 23.4832 37.6662 23.4124 37.6464 23.3449C37.6266 23.2773 37.5933 23.2145 37.5485 23.1603C37.2893 22.7429 37.0844 22.2918 36.8511 21.864C36.7488 21.6905 36.6992 21.491 36.7084 21.2898C36.7176 21.0886 36.7852 20.8944 36.903 20.731C37.6385 19.6202 38.1534 18.3782 38.4196 17.0729C38.4505 16.8633 38.5449 16.6682 38.6899 16.5139C38.835 16.3596 39.0239 16.2533 39.2311 16.2095C39.7211 16.0773 40.2059 15.9218 40.6907 15.7662C40.8048 15.7299 40.9941 15.6547 40.9993 15.5873C41.0551 15.1379 41.0551 14.6834 40.9993 14.234C40.9733 14.094 40.5922 14.0058 40.3641 13.9255C40.0374 13.8088 39.7056 13.7077 39.3711 13.6247C38.8111 13.4899 38.5596 13.1347 38.3885 12.5877C38.08 11.6051 37.7974 10.5706 37.2607 9.70991C36.6878 8.78694 36.61 8.02472 37.2607 7.17694C37.2801 7.14613 37.2974 7.11409 37.3126 7.08102C37.8 6.15806 37.787 6.17102 37.0326 5.43472C36.9895 5.37819 36.9355 5.33089 36.8737 5.29561C36.812 5.26033 36.7438 5.2378 36.6733 5.22934C36.6027 5.22088 36.5311 5.22666 36.4628 5.24636C36.3945 5.26605 36.3308 5.29924 36.2756 5.34398C35.8867 5.57991 35.4667 5.76139 35.0752 5.99472C34.8855 6.12288 34.6604 6.18831 34.4316 6.1818C34.2027 6.17529 33.9817 6.09716 33.7996 5.95843C32.7042 5.23202 31.4788 4.72407 30.1907 4.4625C29.9832 4.42973 29.7901 4.33573 29.6363 4.19254C29.4825 4.04936 29.3749 3.8635 29.3274 3.6588C29.1848 3.1688 29.0396 2.68139 28.8789 2.19657C28.8374 2.06954 28.7441 1.86731 28.6611 1.86213C28.2308 1.79732 27.7926 1.8052 27.3648 1.88546C27.1963 1.92954 27.1185 2.35991 27.0226 2.62435C26.9059 2.95102 26.8022 3.28028 26.7141 3.61472C26.6717 3.83028 26.5642 4.02766 26.4061 4.18019C26.248 4.33272 26.0469 4.43307 25.83 4.46769C24.5254 4.74086 23.2848 5.25999 22.1744 5.99731C22.0124 6.11729 21.8182 6.18608 21.6168 6.19486C21.4154 6.20363 21.2159 6.15199 21.0441 6.04657C20.6137 5.81065 20.1678 5.60065 19.7478 5.34398C19.447 5.1625 19.2293 5.16769 18.9959 5.44769C18.8802 5.58893 18.7498 5.71754 18.607 5.83139C18.5371 5.87153 18.4771 5.92692 18.4315 5.99344C18.3859 6.05996 18.3559 6.13589 18.3437 6.21561C18.3315 6.29532 18.3374 6.37676 18.361 6.45387C18.3846 6.53098 18.4253 6.60179 18.48 6.66102C18.7133 7.00583 18.8611 7.40769 19.0815 7.76287C19.3874 8.25546 19.3148 8.68324 19.0504 9.1888C18.5707 10.104 18.0133 11.0295 17.8033 12.0173C17.5622 13.0881 17.0619 13.6584 16.0196 13.8192L15.9678 13.8347C14.8944 14.1666 14.91 14.164 14.9593 15.2762C14.947 15.4013 14.9848 15.5262 15.0646 15.6234C15.1443 15.7207 15.2593 15.7823 15.3844 15.7947C15.8589 15.9218 16.323 16.0877 16.7974 16.2173C17.001 16.2662 17.185 16.3756 17.3252 16.5311C17.4654 16.6866 17.5553 16.8809 17.583 17.0884C17.8439 18.3767 18.35 19.6027 19.0737 20.6999C19.2033 20.8772 19.277 21.0891 19.2853 21.3085C19.2936 21.5279 19.2362 21.7448 19.1204 21.9314C18.8611 22.3773 18.6019 22.8181 18.41 23.2847C18.3631 23.4685 18.3881 23.6632 18.48 23.8292C18.5681 24.0003 18.7678 24.1092 18.8896 24.2647C19.1489 24.6044 19.4289 24.6718 19.8126 24.4073C20.1963 24.1429 20.5904 24.0055 20.9637 23.7851C21.1464 23.6629 21.3625 23.6006 21.5822 23.6066C21.8019 23.6126 22.0143 23.6868 22.19 23.8188C23.2848 24.5474 24.5103 25.0572 25.7989 25.3199C26.017 25.3531 26.2199 25.4512 26.3814 25.6015C26.5428 25.7519 26.6551 25.9474 26.7037 26.1625C26.8644 26.7458 27.0589 27.3344 27.2507 27.9514V27.9618Z" fill="#E45412"/>
<path d="M26.1385 40.9118C26.154 41.0733 26.1273 41.2361 26.0613 41.3844C25.9952 41.5326 25.8919 41.6612 25.7615 41.7578C25.631 41.8543 25.4778 41.9155 25.3168 41.9353C25.1557 41.9552 24.9922 41.933 24.8422 41.871C23.2607 41.3214 21.687 40.7562 20.1133 40.191C18.3141 39.5481 16.5174 38.9025 14.7233 38.2543C14.0285 37.9951 13.7382 37.5388 13.9326 36.9892C14.127 36.4395 14.6559 36.2555 15.3404 36.4992C18.6615 37.684 21.9826 38.8792 25.3063 40.0614C25.7678 40.2273 26.1022 40.4788 26.1385 40.9118Z" fill="#E45412"/>
<path d="M14.8348 45.6873C14.9852 45.7288 15.1459 45.7625 15.2989 45.8195C18.6381 47.0087 21.9765 48.2013 25.3141 49.3973C25.7341 49.5477 26.0711 49.7706 26.1333 50.2477C26.2293 50.9788 25.5474 51.4558 24.7696 51.181C23.0196 50.5666 21.2748 49.934 19.53 49.3092L14.6041 47.5462C14.1426 47.3829 13.8678 47.0873 13.8937 46.5766C13.8976 46.3831 13.9657 46.1964 14.0873 46.0457C14.2088 45.8951 14.3769 45.7891 14.5652 45.7444C14.6539 45.7204 14.744 45.7013 14.8348 45.6873Z" fill="#E45412"/>
<path d="M27.9793 23.2795C26.3218 23.2724 24.7037 22.7744 23.329 21.8486C21.9543 20.9227 20.8846 19.6104 20.2549 18.0772C19.6253 16.544 19.4638 14.8587 19.791 13.2339C20.1182 11.6091 20.9193 10.1176 22.0933 8.94757C23.2672 7.77758 24.7614 6.98153 26.3874 6.65987C28.0133 6.3382 29.698 6.50534 31.2291 7.1402C32.7601 7.77505 34.0688 8.84917 34.99 10.227C35.9112 11.6049 36.4036 13.2247 36.4052 14.8821C36.4038 15.9869 36.1847 17.0806 35.7605 18.1007C35.3362 19.1207 34.715 20.0472 33.9325 20.827C33.15 21.6069 32.2215 22.2249 31.2 22.6457C30.1785 23.0666 29.084 23.2819 27.9793 23.2795ZM28.0259 21.4103C29.3148 21.4021 30.5724 21.0122 31.6399 20.2899C32.7074 19.5676 33.537 18.5453 34.0239 17.3519C34.5109 16.1586 34.6334 14.8477 34.376 13.5847C34.1186 12.3218 33.4928 11.1634 32.5776 10.2558C31.6624 9.34826 30.4989 8.73214 29.2339 8.48526C27.9688 8.23838 26.659 8.37181 25.4697 8.8687C24.2805 9.36558 23.2651 10.2037 22.5517 11.2771C21.8383 12.3506 21.459 13.6114 21.4615 14.9003C21.4642 15.759 21.6362 16.6088 21.9678 17.4009C22.2993 18.1931 22.7838 18.9121 23.3935 19.5167C24.0033 20.1214 24.7263 20.5999 25.5212 20.9248C26.316 21.2498 27.1672 21.4147 28.0259 21.4103Z" fill="#E45412"/>
<path d="M27.9689 19.5462C27.045 19.54 26.1437 19.2596 25.3792 18.7407C24.6148 18.2217 24.0216 17.4875 23.6748 16.6311C23.328 15.7747 23.2433 14.8346 23.4313 13.93C23.6193 13.0254 24.0716 12.1969 24.7309 11.5496C25.3903 10.9023 26.2269 10.4653 27.1348 10.2939C28.0427 10.1226 28.9811 10.2246 29.831 10.587C30.6809 10.9495 31.4041 11.5561 31.9089 12.3299C32.4137 13.1038 32.6774 14.0101 32.6667 14.934C32.6523 16.1676 32.15 17.3453 31.2697 18.2097C30.3893 19.074 29.2026 19.5545 27.9689 19.5462ZM28.0233 17.6795C28.5741 17.6734 29.1108 17.5045 29.5658 17.1941C30.0208 16.8837 30.3738 16.4456 30.5805 15.9351C30.7871 15.4245 30.8382 14.8642 30.7271 14.3247C30.6161 13.7852 30.348 13.2906 29.9566 12.9031C29.5651 12.5156 29.0678 12.2525 28.5272 12.147C27.9866 12.0415 27.4269 12.0982 26.9184 12.31C26.41 12.5218 25.9755 12.8793 25.6698 13.3374C25.364 13.7956 25.2005 14.3339 25.2 14.8847C25.1996 15.2543 25.2726 15.6202 25.4147 15.9613C25.5568 16.3024 25.7653 16.6119 26.0279 16.8719C26.2905 17.1319 26.6021 17.3371 26.9446 17.4757C27.2872 17.6144 27.6538 17.6837 28.0233 17.6795Z" fill="#E45412"/>
</svg>
