<svg width="32" height="32" viewBox="0 0 32 32" fill="none" xmlns="http://www.w3.org/2000/svg">
<path d="M16 32C24.8366 32 32 24.8366 32 16C32 7.16344 24.8366 0 16 0C7.16344 0 0 7.16344 0 16C0 24.8366 7.16344 32 16 32Z" fill="#FFF6ED"/>
<path d="M17.2373 13.8167C17.5004 13.5204 17.7161 13.2218 17.9863 12.9681C18.816 12.1859 19.7973 11.7924 20.9446 11.8019C21.5751 11.8067 22.1961 11.8517 22.8029 12.0271C24.192 12.4277 24.9979 13.3853 25.3843 14.7412C25.6734 15.7581 25.7256 16.8034 25.728 17.8511C25.7327 20.0603 25.7208 22.2719 25.728 24.481C25.728 24.6873 25.6711 24.7418 25.4672 24.7418C24.3294 24.7323 23.1893 24.7323 22.0515 24.7418C21.85 24.7418 21.8074 24.6825 21.8074 24.4929C21.8145 22.3904 21.8145 20.2879 21.8074 18.183C21.8074 17.6567 21.7718 17.1281 21.6248 16.6161C21.3523 15.6727 20.6767 15.1916 19.6883 15.2437C18.3371 15.3148 17.6355 15.9833 17.4648 17.3557C17.4246 17.6828 17.4032 18.0123 17.4056 18.3418C17.4056 20.3874 17.4056 22.433 17.4103 24.4787C17.4103 24.6825 17.3606 24.7418 17.152 24.7418C16.0047 24.7323 14.8574 24.7323 13.7102 24.7418C13.5253 24.7418 13.4731 24.6944 13.4731 24.5071C13.4779 20.4585 13.4779 16.4076 13.4731 12.359C13.4731 12.1575 13.5395 12.1124 13.7291 12.1124C14.8171 12.1196 15.9075 12.1219 16.9955 12.1124C17.197 12.1124 17.2468 12.1764 17.2444 12.3661C17.2326 12.8496 17.2397 13.3332 17.2397 13.8191L17.2373 13.8167Z" fill="#E45412"/>
<path d="M10.9989 18.444C10.9989 20.4469 10.9965 22.4499 11.0036 24.4529C11.0036 24.6757 10.9491 24.7421 10.7191 24.7397C9.58137 24.7278 8.44359 24.7302 7.30344 24.7397C7.12092 24.7397 7.06641 24.6946 7.06641 24.5074C7.07115 20.4517 7.07115 16.396 7.06641 12.3379C7.06641 12.1696 7.1067 12.1104 7.28448 12.1104C8.43885 12.1175 9.59322 12.1198 10.7476 12.1104C10.9704 12.1104 10.9989 12.1933 10.9989 12.3853C10.9941 14.4049 10.9965 16.4244 10.9965 18.444H10.9989Z" fill="#E45412"/>
<path d="M11.3139 8.09244C11.3139 9.35111 10.2946 10.3751 9.03834 10.3751C7.79863 10.3751 6.76989 9.35111 6.76515 8.1114C6.76041 6.85985 7.78915 5.82874 9.04308 5.82874C10.2875 5.82874 11.3115 6.85037 11.3139 8.09007V8.09244Z" fill="#E45412"/>
</svg>
