<svg width="50" height="50" viewBox="0 0 50 50" fill="none" xmlns="http://www.w3.org/2000/svg">
<path d="M0.000108506 33.6134C0.261683 32.6435 0.527886 31.6736 0.780201 30.7014C1.05103 29.6644 1.68992 29.4074 2.58807 29.9931C3.37819 30.51 4.16678 31.0278 4.95381 31.5463C5.58576 31.9653 5.75242 32.5185 5.41678 33.0255C5.08113 33.5324 4.52557 33.5741 3.90752 33.1968C3.83113 33.1481 3.75011 33.1018 3.55103 32.9861C3.78252 33.5278 3.93529 33.9653 4.13437 34.375C7.44224 41.3079 12.7987 45.7176 20.3126 47.4143C21.683 47.7222 23.1182 47.7454 24.5233 47.9005C24.6043 47.9005 24.6853 47.9005 24.7547 47.9005C25.5557 47.9329 26.0001 48.3032 25.9793 48.9167C25.9584 49.5301 25.5047 49.8588 24.6969 49.8542C14.6737 49.7778 5.87742 43.5926 2.08344 34.5764C2.03946 34.4745 1.98853 34.3727 1.9839 34.3657C1.62279 34.5347 1.28946 34.7801 0.932979 34.8287C0.48159 34.9005 0.224646 34.5139 -0.00683594 34.1736L0.000108506 33.6134Z" fill="#E45412"/>
<path d="M16.4145 0C17.3844 0.259259 18.3543 0.525463 19.3265 0.780093C20.3705 1.05324 20.6205 1.68981 20.0371 2.58565C19.531 3.35725 19.0225 4.12886 18.5117 4.90046C18.0742 5.56713 17.5209 5.75231 17.0094 5.40741C16.4978 5.0625 16.4538 4.51852 16.8566 3.86343C16.8959 3.7963 16.933 3.72685 17.051 3.51852C16.2524 3.87268 15.5603 4.13889 14.9075 4.47917C7.97233 8.10185 3.75242 13.7176 2.389 21.4352C2.22465 22.3611 2.20844 23.3125 2.12974 24.25C2.1089 24.4815 2.12974 24.7407 2.10196 24.9815C2.0464 25.6181 1.639 26.0185 1.07418 25.9884C0.94294 25.9836 0.814125 25.9516 0.695887 25.8945C0.577648 25.8373 0.47256 25.7562 0.387271 25.6563C0.301981 25.5565 0.238346 25.44 0.200392 25.3143C0.162438 25.1885 0.150991 25.0563 0.166775 24.9259C0.23159 23.6921 0.23159 22.4537 0.463071 21.2338C2.05335 12.1343 7.15752 5.78704 15.5788 2.03704C15.6347 2.00789 15.6888 1.97543 15.7408 1.93981C14.9098 1.19213 14.9353 0.622685 15.8219 0.00231481L16.4145 0Z" fill="#E45412"/>
<path d="M38.1297 17.9444C38.4862 18.8449 38.7918 19.6481 39.1297 20.4398C39.1687 20.5078 39.2223 20.5662 39.2868 20.6107C39.3514 20.6552 39.425 20.6846 39.5024 20.6968C40.0233 20.7269 40.5441 20.6968 41.0649 20.7106C41.7131 20.7245 42.102 21.0995 42.1066 21.75C42.1158 23.9306 42.1158 26.1127 42.1066 28.2963C42.1066 28.9375 41.7061 29.3056 41.0534 29.3194C40.5487 29.3194 40.0418 29.3009 39.5395 29.3356C39.455 29.3464 39.374 29.3762 39.3027 29.4227C39.2313 29.4692 39.1714 29.5312 39.1274 29.6042C38.7871 30.3935 38.4816 31.1991 38.1297 32.088C38.5024 32.4421 38.9353 32.8356 39.3473 33.2454C39.8913 33.794 39.889 34.3102 39.3473 34.8657C37.855 36.3657 36.3581 37.8619 34.8566 39.3542C34.3126 39.8935 33.801 39.8819 33.2362 39.3356C32.889 38.9954 32.5557 38.6412 32.1922 38.3079C32.1367 38.2634 32.0717 38.2324 32.0023 38.2171C31.9328 38.2019 31.8608 38.2028 31.7918 38.2199C30.9816 38.5509 30.1714 38.9144 29.3196 39.2824C29.3196 39.8218 29.3196 40.4213 29.3196 41.0231C29.3196 41.7315 28.9399 42.1088 28.2316 42.1111C26.0804 42.1111 23.9307 42.1111 21.7825 42.1111C21.0881 42.1111 20.7246 41.7269 20.7131 41.0532C20.7131 40.5486 20.7316 40.0417 20.6969 39.5394C20.6864 39.4533 20.6563 39.3708 20.609 39.2981C20.5616 39.2255 20.4982 39.1647 20.4237 39.1204C19.6344 38.7801 18.8288 38.4769 17.9353 38.125C17.5834 38.4954 17.1899 38.9306 16.7779 39.3426C16.2316 39.8866 15.7154 39.8843 15.1575 39.3426C13.656 37.8503 12.1591 36.3534 10.6668 34.8519C10.1274 34.3079 10.139 33.7986 10.6853 33.2315C11.0256 32.8819 11.3797 32.537 11.7131 32.1875C11.7567 32.1315 11.7874 32.0666 11.803 31.9974C11.8186 31.9281 11.8187 31.8563 11.8033 31.787C11.4723 30.9745 11.1089 30.1667 10.7408 29.3148C10.1992 29.3148 9.59965 29.3148 9.00011 29.3148C8.29177 29.3148 7.91214 28.9352 7.90983 28.2245C7.90983 26.0918 7.90983 23.9591 7.90983 21.8264C7.90983 21.081 8.2802 20.713 9.01631 20.706C9.60196 20.706 10.1876 20.706 10.7594 20.706L11.9029 17.9421C11.5209 17.5833 11.0858 17.1898 10.6737 16.7847C10.1297 16.2384 10.1321 15.7245 10.6737 15.1644C12.1552 13.6767 13.6405 12.1914 15.1297 10.7083C15.7131 10.1273 16.2177 10.1343 16.8103 10.7269C17.2015 11.1181 17.5811 11.5208 17.9376 11.8843C18.8358 11.5463 19.676 11.2292 20.4839 10.8796C20.545 10.8407 20.5961 10.7879 20.6331 10.7256C20.6701 10.6633 20.6919 10.5931 20.6969 10.5208C20.7223 10.0023 20.6969 9.47917 20.7108 8.95833C20.7246 8.31019 21.0973 7.9213 21.7478 7.91898C23.9299 7.90972 26.112 7.90972 28.2941 7.91898C28.9376 7.91898 29.3057 8.31713 29.3172 8.97222C29.3172 9.47685 29.2987 9.9838 29.3334 10.4861C29.3447 10.5704 29.3749 10.6511 29.4218 10.7221C29.4687 10.7931 29.5311 10.8525 29.6043 10.8958C30.3936 11.2384 31.1969 11.544 32.095 11.8981C32.4446 11.5301 32.8358 11.0949 33.2524 10.6829C33.7987 10.1366 34.3149 10.1366 34.8728 10.6829C36.3728 12.1752 37.8697 13.6721 39.3635 15.1736C39.9029 15.7176 39.889 16.2269 39.3473 16.794C39.1436 17.0046 38.9376 17.213 38.7246 17.4167C38.5117 17.6204 38.3057 17.7847 38.1297 17.9444ZM37.3867 33.9815C37.0163 33.6343 36.639 33.287 36.2825 32.9421C35.8427 32.5023 35.8358 32.1343 36.0858 31.5741C36.5742 30.4792 37.0418 29.3727 37.4746 28.2523C37.727 27.5972 37.9654 27.3727 38.6899 27.3681C39.1714 27.3681 39.6529 27.3681 40.1274 27.3681V22.662H38.6783C37.9677 22.662 37.72 22.4306 37.4723 21.7639C37.051 20.6605 36.5973 19.5679 36.1112 18.4861C35.8427 17.8912 35.8404 17.5347 36.2987 17.0787C36.6552 16.7222 37.0348 16.3843 37.3635 16.0903C36.2061 14.9329 35.1112 13.8218 33.9654 12.6713C33.6483 13.0093 33.3242 13.3657 32.9793 13.7176C32.4978 14.1944 32.1459 14.1944 31.5302 13.9144C30.4685 13.4329 29.3882 12.9861 28.2895 12.5741C27.595 12.3148 27.3635 12.0787 27.3635 11.338C27.3635 10.8565 27.3635 10.375 27.3635 9.89815H22.6621C22.6621 10.3866 22.6621 10.8542 22.6621 11.3218C22.6621 12.0718 22.4307 12.3125 21.7501 12.5694C20.6436 12.9861 19.5533 13.4491 18.4746 13.9329C17.8959 14.1921 17.5209 14.1875 17.0672 13.7269C16.7154 13.3681 16.3913 12.9838 16.0696 12.6296C14.8936 13.8056 13.801 14.8958 12.7038 15.9884C12.7091 16.0138 12.7202 16.0376 12.7362 16.0579C13.0788 16.4074 13.4307 16.7523 13.764 17.1019C14.1691 17.5255 14.1853 17.9074 13.9538 18.4352C13.4584 19.5633 12.9854 20.6998 12.5348 21.8449C12.3033 22.4144 12.0464 22.6528 11.4168 22.662C10.9168 22.662 10.4168 22.662 9.90057 22.662V27.3681C10.3959 27.3681 10.8658 27.3681 11.3358 27.3681C12.0788 27.3681 12.3149 27.5995 12.5719 28.294C12.9816 29.3866 13.433 30.463 13.9145 31.5347C14.1922 32.1505 14.1992 32.5116 13.7177 32.9838C13.3612 33.3333 12.9723 33.6505 12.6459 33.9421L16.0696 37.3912C16.3913 37.0417 16.7223 36.662 17.0788 36.3056C17.5186 35.8634 17.8913 35.8426 18.4446 36.0949C19.5557 36.5856 20.6784 37.0579 21.8103 37.4838C22.4121 37.7153 22.6529 37.9745 22.6598 38.625C22.6598 39.125 22.6598 39.6227 22.6598 40.125H27.3242C27.3388 40.0844 27.3496 40.0426 27.3566 40C27.3566 39.5764 27.3566 39.1528 27.3566 38.7315C27.3566 37.9491 27.5881 37.7176 28.2825 37.4514C29.3751 37.044 30.4515 36.5903 31.5233 36.1111C32.1344 35.8333 32.4909 35.831 32.9677 36.3241C33.3149 36.6806 33.6228 37.0741 33.9307 37.4282L37.3867 33.9815Z" fill="#E45412"/>
<path d="M34.2594 48.0995C35.0487 48.706 35.0881 49.5463 34.3566 49.8981C34.1203 50 33.8582 50.0259 33.6066 49.9722C32.5927 49.7407 31.5858 49.4792 30.5788 49.213C29.7015 48.9815 29.4492 48.3032 29.9469 47.5324C30.4746 46.7106 31.0163 45.8981 31.5672 45.0833C31.9862 44.4468 32.5325 44.2755 33.0395 44.6204C33.5464 44.9653 33.5973 45.5139 33.1946 46.1667C33.1529 46.2338 33.1182 46.3032 33.0348 46.4514C33.2524 46.3773 33.4029 46.3356 33.5441 46.2755C40.9515 43.088 45.6436 37.6111 47.433 29.7361C47.7547 28.3194 47.7918 26.8356 47.9168 25.3796C47.9932 24.4954 48.301 24.0347 48.9399 24.0509C49.5788 24.0671 49.889 24.5324 49.8797 25.4259C49.7733 35.4699 43.5209 44.1759 34.7015 47.9028C34.551 47.9514 34.4214 48.0185 34.2594 48.0995Z" fill="#E45412"/>
<path d="M48.1297 15.7407C48.5557 15.1829 48.977 15.0278 49.4538 15.25C49.9307 15.4722 50.1066 15.9236 49.9307 16.6227C49.6992 17.5486 49.4677 18.4745 49.2362 19.4005C49.0047 20.3264 48.3103 20.5949 47.507 20.0671L45.139 18.5185C44.4608 18.0718 44.2733 17.5417 44.6066 17.0208C44.9399 16.5 45.5001 16.4468 46.1853 16.8681C46.2408 16.9028 46.2987 16.9306 46.4283 17C46.3705 16.8148 46.3427 16.6852 46.2918 16.5602C45.4745 14.5211 44.3717 12.6085 43.0163 10.8796C42.8959 10.7269 42.7686 10.5787 42.6529 10.4167C42.2524 9.88426 42.2941 9.30556 42.7547 8.94907C42.861 8.86591 42.9836 8.80603 43.1145 8.77329C43.2455 8.74056 43.3818 8.73571 43.5147 8.75907C43.6477 8.78242 43.7742 8.83346 43.8861 8.90886C43.998 8.98426 44.0929 9.08235 44.1645 9.19676C44.9723 10.3148 45.7848 11.4306 46.5117 12.6042C47.1182 13.6042 47.5881 14.6806 48.1297 15.7407Z" fill="#E45412"/>
<path d="M25.9677 0.162037C29.7825 0.319757 33.5106 1.34916 36.8658 3.1713C37.227 3.36343 37.5788 3.60417 37.5464 4.03704C37.5144 4.36434 37.378 4.6727 37.1575 4.91667C36.8589 5.22454 36.4492 5.14815 36.0672 4.97222C34.8543 4.42361 33.6621 3.81481 32.4168 3.36343C30.1945 2.56649 27.8539 2.1494 25.4932 2.12963C25.298 2.12583 25.1032 2.11037 24.9098 2.08333C24.6643 2.06038 24.437 1.94363 24.2753 1.75737C24.1136 1.57112 24.03 1.32969 24.0418 1.08333C24.049 0.835641 24.1523 0.600482 24.3299 0.427655C24.5075 0.254828 24.7454 0.157904 24.9932 0.157407C25.3172 0.145833 25.6436 0.162037 25.9677 0.162037Z" fill="#E45412"/>
<path d="M40.2385 5.65046C40.4938 5.64859 40.7395 5.74742 40.9224 5.92552C41.1052 6.10362 41.2105 6.34663 41.2154 6.60185C41.2105 6.86529 41.1026 7.11633 40.9148 7.30112C40.727 7.48591 40.4742 7.58972 40.2108 7.59028C39.9559 7.58005 39.7152 7.4708 39.5396 7.28578C39.3641 7.10075 39.2677 6.85455 39.2709 6.59954C39.2703 6.47315 39.295 6.34792 39.3436 6.23126C39.3923 6.1146 39.4638 6.00888 39.554 5.92038C39.6443 5.83188 39.7513 5.76238 39.8689 5.71602C39.9865 5.66966 40.1122 5.64736 40.2385 5.65046Z" fill="#E45412"/>
<path d="M33.3774 25.0301C33.3774 26.3657 33.3658 27.7014 33.3774 29.037C33.3934 29.2885 33.3342 29.5391 33.2072 29.7568C33.0802 29.9745 32.8913 30.1494 32.6645 30.2593C30.3496 31.5818 28.0395 32.9151 25.7339 34.2593C25.519 34.4048 25.2654 34.4825 25.0059 34.4825C24.7464 34.4825 24.4928 34.4048 24.2779 34.2593C21.9816 32.9043 19.676 31.5687 17.3612 30.2523C17.1349 30.1416 16.9467 29.966 16.8205 29.748C16.6944 29.5299 16.636 29.2792 16.6529 29.0278C16.6637 26.358 16.6637 23.6883 16.6529 21.0185C16.6362 20.7595 16.6973 20.5014 16.8285 20.2774C16.9597 20.0534 17.1549 19.8737 17.389 19.7616C19.7038 18.4452 22.014 17.1119 24.3196 15.7616C24.5287 15.6212 24.7748 15.5462 25.0267 15.5462C25.2786 15.5462 25.5248 15.6212 25.7339 15.7616C28.0487 17.115 30.3728 18.4576 32.7061 19.7894C32.9269 19.8957 33.1109 20.0656 33.2346 20.2771C33.3583 20.4886 33.4161 20.7323 33.4006 20.9769C33.3682 22.3287 33.3774 23.6782 33.3774 25.0301ZM24.0371 31.838C24.0371 29.7546 24.0371 27.794 24.0209 25.8194C23.9982 25.7246 23.9558 25.6355 23.8963 25.5582C23.8369 25.4808 23.7618 25.4168 23.676 25.3704C22.1228 24.4444 20.558 23.5579 18.9955 22.6574C18.8913 22.5972 18.7779 22.5509 18.6691 22.4977C18.639 22.5671 18.6135 22.5972 18.6135 22.625C18.6135 24.5602 18.6135 26.4954 18.6135 28.4306C18.6295 28.5193 18.6639 28.6036 18.7145 28.6782C18.7652 28.7528 18.8309 28.8159 18.9075 28.8634C19.6251 29.3056 20.3635 29.7199 21.095 30.1412C22.0533 30.7014 23.0071 31.25 24.0371 31.838ZM25.9908 31.838C27.7987 30.794 29.514 29.8102 31.2223 28.8079C31.2806 28.7593 31.3279 28.6989 31.361 28.6306C31.3941 28.5624 31.4123 28.4879 31.4145 28.412C31.4145 26.5093 31.4145 24.6065 31.4145 22.7037C31.4085 22.6441 31.3968 22.5852 31.3797 22.5278C31.3219 22.5278 31.2871 22.5278 31.264 22.5278C29.5742 23.4977 27.8821 24.4676 26.1992 25.4514C26.1427 25.489 26.0952 25.5385 26.06 25.5966C26.0248 25.6546 26.0028 25.7196 25.9955 25.787C25.9885 27.7778 25.9908 29.7685 25.9908 31.8472V31.838ZM19.5904 20.7523C21.3774 21.7847 23.0904 22.7801 24.8172 23.7616C24.903 23.7889 24.9936 23.7977 25.083 23.7873C25.1724 23.7769 25.2585 23.7476 25.3358 23.7014C26.7524 22.9028 28.1575 22.081 29.5649 21.2708L30.4353 20.7593C28.6529 19.7292 26.9399 18.7361 25.2177 17.75C25.1552 17.7215 25.0873 17.7067 25.0186 17.7067C24.9499 17.7067 24.882 17.7215 24.8196 17.75C23.0973 18.7222 21.3844 19.7176 19.5904 20.7523Z" fill="#E45412"/>
</svg>
