<svg width="46" height="50" viewBox="0 0 46 50" fill="none" xmlns="http://www.w3.org/2000/svg">
<path d="M1.40046 43.5271V42.8627C1.40046 34.7964 1.40046 26.73 1.40046 18.6636C1.38572 18.2706 1.41915 17.8773 1.5 17.4923C1.65148 16.8615 2.0142 16.3015 2.52792 15.9052C3.04164 15.509 3.67544 15.3004 4.32407 15.3141C7.15046 15.3002 9.97454 15.3141 12.8009 15.3141C13.0023 15.3141 13.206 15.3141 13.4306 15.3141C13.5278 14.4831 13.5602 13.6798 13.7199 12.8998C14.3333 9.92984 15.6944 7.2979 17.4444 4.85808C18.6926 3.13586 20.1726 1.59428 21.8426 0.277066C22.2431 -0.0423787 22.625 -0.116453 23.0463 0.219195C26.9815 3.35577 29.6898 7.31179 31.0764 12.1544C31.2087 12.6685 31.3038 13.1914 31.3611 13.7192C31.4282 14.2238 31.4537 14.7331 31.5023 15.3025H32.1018C34.9282 15.3025 37.7546 15.3558 40.5764 15.284C42.4051 15.24 43.8472 16.5294 43.838 18.5502C43.8009 26.6521 43.8241 34.7539 43.8241 42.8558V43.4576C43.9074 43.5155 43.9213 43.5317 43.9375 43.534C45.213 43.7122 45.213 43.7122 45.213 45.0271C45.213 45.7817 45.213 46.534 45.213 47.2886C45.2042 47.9986 44.9204 48.6776 44.4214 49.1827C43.9223 49.6877 43.2469 49.9796 42.537 49.997C42.4005 49.997 42.2639 49.997 42.1273 49.997C29.1165 49.997 16.1026 49.997 3.08565 49.997C2.22454 49.997 1.46528 49.821 0.831019 49.203C0.570181 48.9538 0.362178 48.6547 0.219406 48.3234C0.076635 47.9921 0.00201699 47.6355 0 47.2748C0 46.3998 0 45.5271 0 44.6544C0 43.7817 0.189815 43.5988 1.03704 43.5664C1.13426 43.5618 1.2338 43.5456 1.40046 43.5271ZM22.4769 35.6451H26.2778C27.0833 35.6451 27.0833 35.6451 27.2037 34.8419C27.2037 34.7748 27.2199 34.7053 27.2292 34.6382C27.8634 30.3048 28.4985 25.9715 29.1343 21.6382C29.3958 19.8442 29.6991 18.0525 29.8819 16.2493C30.1782 13.3535 29.1759 10.7609 27.8218 8.27707C27.7001 8.12472 27.5243 8.02522 27.331 7.99929C24.5532 7.46919 21.7755 7.49003 18.9468 7.74466C17.5579 7.87197 16.8843 8.49234 16.3611 9.71688C15.3588 12.0664 14.7708 14.4414 15.1481 17.0039C16.0309 23.0132 16.9066 29.0232 17.7755 35.034C17.838 35.4715 18.0069 35.659 18.4699 35.6521C19.8056 35.6197 21.1412 35.6451 22.4769 35.6451ZM26.5162 38.5178C26.5735 38.5355 26.6324 38.5472 26.6921 38.5525C28.3125 38.5085 29.4699 39.2053 30.2546 40.6197C30.3246 40.6876 30.4091 40.7387 30.5017 40.7692C30.5944 40.7997 30.6927 40.8087 30.7894 40.7956C32.5463 40.5641 34.1343 41.4692 34.7616 43.1104C34.9074 43.49 35.0949 43.5734 35.4699 43.5734C37.5255 43.5548 39.5787 43.5734 41.6343 43.5734C42.3079 43.5734 42.3079 43.5734 42.3079 42.9206V24.1706C42.3079 22.2701 42.3079 20.3697 42.3079 18.4692C42.3079 17.4183 41.8032 16.8488 40.8079 16.8488C37.7986 16.8303 34.7894 16.8488 31.7801 16.8488C31.5093 16.8488 31.3958 16.9275 31.3542 17.2169C31.0687 19.2493 30.7701 21.2802 30.4583 23.3095C30.4279 23.4303 30.439 23.5578 30.4898 23.6716C30.5406 23.7854 30.6282 23.8788 30.7384 23.9368C31.8646 24.7224 32.8387 25.7059 33.6134 26.8396C35.7569 29.8835 36.0694 33.291 35.6181 36.8511C35.5903 37.071 35.5324 37.2886 35.4954 37.5062C35.4737 37.7477 35.3727 37.9751 35.2081 38.1531C35.0435 38.3311 34.8247 38.4496 34.5856 38.49C34.3414 38.548 34.0848 38.5233 33.8561 38.4199C33.6274 38.3164 33.4395 38.14 33.3218 37.9183C32.3624 36.3522 31.1634 34.9463 29.7685 33.7516C29.537 33.5618 29.3056 33.3951 29.0255 33.1868C28.9028 34.0085 28.794 34.7354 28.6875 35.4623C28.6431 35.9093 28.4419 36.3261 28.1194 36.6388C27.7969 36.9516 27.3741 37.14 26.9259 37.1706C26.794 37.1845 26.6644 37.2099 26.5301 37.2308L26.5162 38.5178ZM15.9699 33.196C15.899 33.227 15.8302 33.2626 15.7639 33.3025C15.6134 33.416 15.463 33.534 15.3194 33.6521C13.9174 34.8369 12.7071 36.2315 11.7315 37.7863C11.3403 38.3951 10.9398 38.5919 10.3727 38.4599C9.7662 38.3164 9.5 37.8673 9.46296 37.3025C9.37037 35.8905 9.19676 34.4692 9.2662 33.0618C9.45833 29.2169 11.1782 26.1544 14.2778 23.8928C14.3788 23.8365 14.4583 23.7481 14.5035 23.6417C14.5488 23.5352 14.5573 23.4167 14.5278 23.3048C14.2191 21.2987 13.9306 19.284 13.662 17.2609C13.6088 16.8604 13.4167 16.8164 13.0833 16.8187C10.2755 16.8187 7.46759 16.8187 4.66204 16.8187C3.39815 16.8257 2.93519 17.3118 2.93519 18.571C2.93519 26.7038 2.93519 34.8365 2.93519 42.9692C2.93519 43.1521 2.95139 43.3326 2.95833 43.49C3.00583 43.5156 3.05639 43.5351 3.1088 43.5479C5.33333 43.5479 7.55787 43.5595 9.78472 43.5479C9.8659 43.5282 9.9414 43.49 10.0053 43.4361C10.0691 43.3823 10.1196 43.3144 10.1528 43.2377C10.8935 41.453 12.3079 40.5826 14.2014 40.8095C14.5023 40.8465 14.5833 40.7053 14.7477 40.5062C15.1669 39.9537 15.6537 39.456 16.1968 39.0248C16.9815 38.4623 17.9282 38.4599 18.8773 38.6104V37.1567C18.7014 37.1567 18.5671 37.1567 18.4329 37.1567C17.1412 37.1335 16.4838 36.5687 16.2801 35.291C16.1644 34.6104 16.0764 33.9345 15.9699 33.196ZM1.5463 45.1197C1.5463 45.9044 1.5162 46.6382 1.5625 47.3697C1.60563 47.6376 1.72635 47.8871 1.90972 48.0872C2.24074 48.4831 2.72454 48.4576 3.19213 48.4576H42.0255C42.2303 48.4631 42.4352 48.4545 42.6389 48.4322C43.1528 48.365 43.6181 47.9854 43.6505 47.4831C43.7037 46.7053 43.6644 45.9206 43.6644 45.122L1.5463 45.1197ZM33.2593 43.5363C33.1447 43.2773 32.9791 43.044 32.7724 42.8504C32.5656 42.6569 32.3219 42.507 32.0559 42.4097C31.7899 42.3125 31.507 42.2699 31.2242 42.2845C30.9413 42.2991 30.6643 42.3706 30.4097 42.4947C29.5903 42.8558 29.2384 42.6868 29.044 41.8396C28.7199 40.4507 27.5023 39.7562 26.1435 40.2192C25.3634 40.4715 24.9676 40.1845 24.9583 39.3511C24.9583 38.6567 24.9583 37.9622 24.9583 37.2215H20.4468C20.4468 38.041 20.4468 38.8419 20.4468 39.6428C20.4468 40.4923 19.8981 40.8002 19.1481 40.4252C18.8644 40.2692 18.5559 40.1635 18.2361 40.1127C17.0486 39.9831 16.1343 40.6845 15.8542 41.8882C15.6852 42.6173 15.3056 42.8141 14.6204 42.5294C14.5255 42.49 14.4329 42.4437 14.3356 42.4113C13.2685 42.0572 12.0208 42.6058 11.7894 43.5479L33.2593 43.5363ZM10.8796 36.2076C10.9236 36.1798 10.9745 36.1636 11 36.1266C12.2237 34.3641 13.7448 32.828 15.4954 31.5872C15.5537 31.5262 15.598 31.4531 15.6251 31.3731C15.6523 31.2932 15.6618 31.2083 15.6528 31.1243C15.4769 29.784 15.2778 28.446 15.081 27.1081C15 26.5618 14.9074 26.0178 14.8148 25.4368C11.4282 27.99 10.2361 32.1729 10.8796 36.2076ZM34.1273 36.1081C35.0532 32.7516 32.831 26.7331 30.1343 25.4785C29.8565 27.3627 29.5694 29.2377 29.3148 31.1173C29.3183 31.2189 29.3425 31.3188 29.3859 31.4107C29.4293 31.5026 29.4909 31.5848 29.5671 31.6521C29.9769 32.0155 30.4653 32.2933 30.8472 32.6798C31.963 33.7933 33.044 34.9669 34.1273 36.1081ZM26.6597 6.31179C25.5012 4.59212 24.0975 3.05112 22.4931 1.73771C20.8912 3.05478 19.4879 4.59613 18.3264 6.3141C21.089 5.90463 23.8969 5.90385 26.6597 6.31179Z" fill="#E45412"/>
<path d="M10.3773 6.91132C10.1829 7.07105 10.0856 7.16827 9.97454 7.24003C9.83101 7.35329 9.64955 7.40729 9.46745 7.39093C9.28534 7.37457 9.11642 7.2891 8.99537 7.15207C8.92446 7.09431 8.86624 7.02253 8.82436 6.94123C8.78248 6.85993 8.75783 6.77086 8.75196 6.67959C8.74609 6.58833 8.75913 6.49683 8.79026 6.41084C8.82139 6.32485 8.86994 6.2462 8.93287 6.17984C9.4838 5.57568 10.0625 4.98771 10.6713 4.4391C11.0069 4.13586 11.4097 4.22151 11.7315 4.53401C12.2222 5.01086 12.706 5.49389 13.1829 5.98308C13.5602 6.36966 13.5995 6.7979 13.3102 7.12429C13.0208 7.45068 12.5972 7.47151 12.1389 7.10577L11.9074 6.92521V8.01549C11.9074 9.33262 11.9074 10.6498 11.9074 11.9669C11.9074 12.5965 11.6042 12.9646 11.1181 12.9553C10.6319 12.946 10.3773 12.5896 10.375 11.9831C10.375 10.328 10.3773 8.6729 10.3773 6.91132Z" fill="#E45412"/>
<path d="M33.3032 4.42984C33.1763 4.5433 33.0434 4.64993 32.9051 4.74929C32.7605 4.86118 32.5787 4.91367 32.3967 4.89603C32.2147 4.87839 32.0463 4.79196 31.9259 4.65438C31.8569 4.59467 31.8008 4.52157 31.7609 4.43952C31.7211 4.35746 31.6983 4.26816 31.6939 4.17703C31.6896 4.0859 31.7038 3.99484 31.7357 3.90938C31.7677 3.82391 31.8166 3.74582 31.8796 3.67984C32.4306 3.07568 33.0093 2.49003 33.6157 1.9391C33.963 1.6266 34.3495 1.73077 34.669 2.0479C35.1551 2.52938 35.6412 3.01086 36.1204 3.49929C36.5069 3.89512 36.544 4.2979 36.2477 4.63586C35.9514 4.97382 35.5093 4.97382 35.0718 4.61734L34.8403 4.43447V5.04558C34.8403 6.53401 34.8403 8.02012 34.8403 9.50855C34.8403 10.1035 34.5417 10.4646 34.0718 10.4599C33.6018 10.4553 33.3079 10.0965 33.3079 9.49929C33.3009 7.84419 33.3032 6.18679 33.3032 4.42984Z" fill="#E45412"/>
<path d="M22.3796 10.6798C23.3367 10.6785 24.2727 10.9611 25.069 11.4921C25.8654 12.023 26.4862 12.7783 26.853 13.6623C27.2198 14.5463 27.316 15.5193 27.1295 16.458C26.9429 17.3968 26.482 18.259 25.8051 18.9356C25.1281 19.6122 24.2657 20.0727 23.3268 20.2588C22.388 20.4449 21.4151 20.3483 20.5312 19.981C19.6474 19.6138 18.8924 18.9926 18.3619 18.196C17.8313 17.3994 17.5491 16.4633 17.5509 15.5062C17.554 14.2267 18.0638 13.0005 18.9687 12.096C19.8737 11.1915 21.1001 10.6823 22.3796 10.6798ZM19.081 15.4275C19.066 16.0815 19.2455 16.7252 19.5967 17.2771C19.9479 17.8289 20.4551 18.2641 21.054 18.5273C21.6528 18.7906 22.3163 18.8702 22.9604 18.7559C23.6045 18.6416 24.2001 18.3387 24.6719 17.8855C25.1436 17.4323 25.4701 16.8493 25.6101 16.2103C25.7501 15.5713 25.6972 14.9051 25.4581 14.2962C25.219 13.6873 24.8046 13.1631 24.2672 12.79C23.7299 12.417 23.0939 12.2119 22.4398 12.2007C21.5672 12.1858 20.7242 12.5168 20.0949 13.1214C19.4656 13.726 19.1011 14.5551 19.081 15.4275Z" fill="#E45412"/>
<path d="M22.6111 47.5317C21.4329 47.5317 20.2523 47.5317 19.0741 47.5317C18.903 47.5392 18.7315 47.5291 18.5625 47.5016C18.4 47.4675 18.2536 47.3802 18.1464 47.2535C18.0392 47.1267 17.9773 46.9678 17.9707 46.8019C17.964 46.6361 18.0129 46.4727 18.1097 46.3378C18.2064 46.2029 18.3454 46.1041 18.5046 46.0572C18.7043 46.0126 18.909 45.9947 19.1134 46.0039C21.4406 46.0039 23.7654 46.0039 26.088 46.0039C26.259 45.9992 26.4301 46.0085 26.5995 46.0317C26.6943 46.0384 26.7867 46.0645 26.871 46.1084C26.9553 46.1523 27.0297 46.213 27.0896 46.2867C27.1495 46.3605 27.1936 46.4458 27.2192 46.5373C27.2448 46.6288 27.2513 46.7246 27.2384 46.8187C27.2385 47.0001 27.1675 47.1744 27.0408 47.3041C26.914 47.4339 26.7415 47.5089 26.5602 47.5132C26.2546 47.5386 25.9444 47.5294 25.6343 47.5294C24.6296 47.534 23.6204 47.5317 22.6111 47.5317Z" fill="#E45412"/>
</svg>
