<svg width="50" height="50" viewBox="0 0 50 50" fill="none" xmlns="http://www.w3.org/2000/svg">
<path d="M30.5733 6.79961C32.2962 8.27731 33.2585 10.3343 33.4597 12.5766C33.5654 14.1058 33.4121 15.8925 32.7156 17.2854C32.8457 17.286 32.8457 17.286 32.9784 17.2865C33.8001 17.2902 34.6217 17.2958 35.4434 17.3034C35.8657 17.3072 36.288 17.3104 36.7103 17.3119C37.1188 17.3134 37.5272 17.3168 37.9356 17.3214C38.0905 17.3229 38.2455 17.3236 38.4004 17.3237C39.7178 17.3251 40.8082 17.465 41.7851 18.4215C42.4029 19.1085 42.681 19.8027 42.7276 20.7343C42.7342 20.8596 42.7408 20.985 42.7476 21.1141C42.7542 21.2559 42.7608 21.3978 42.7674 21.5396C42.7751 21.695 42.7829 21.8504 42.7907 22.0057C42.8192 22.5807 42.8456 23.1557 42.8719 23.7308C42.8832 23.9748 42.8944 24.2188 42.9057 24.4628C42.9818 26.1151 43.0551 27.7676 43.127 29.4201C43.1319 29.5332 43.1319 29.5332 43.137 29.6485C43.1402 29.724 43.1435 29.7995 43.1469 29.8773C43.1738 30.493 43.2011 31.1087 43.2285 31.7243C43.2554 32.3281 43.2819 32.9319 43.3081 33.5357C43.3236 33.8922 43.3393 34.2487 43.3553 34.6051C43.4248 36.1569 43.4772 37.7046 43.4578 39.2581C43.5514 39.2544 43.6451 39.2506 43.7415 39.2468C44.667 39.2097 44.667 39.2097 44.9578 39.4427C45.3353 39.9281 45.2375 40.4715 45.24 41.0647C45.2431 41.2328 45.2431 41.2328 45.2462 41.4043C45.2516 42.5993 45.0126 43.4407 44.1777 44.3057C43.2938 45.126 42.3304 45.237 41.171 45.244C41.0396 45.2451 40.9083 45.2471 40.7769 45.25C40.5863 45.2541 40.3957 45.2555 40.205 45.2567C40.0914 45.2581 39.9778 45.2596 39.8608 45.261C39.4856 45.2053 39.3267 45.0934 39.0633 44.8245C38.9511 44.4388 38.9235 44.2357 39.0877 43.8663C39.2586 43.6526 39.2586 43.6526 39.5516 43.4573C39.8055 43.4324 39.8055 43.4324 40.1081 43.4306C40.2733 43.4276 40.2733 43.4276 40.4417 43.4245C40.6724 43.422 40.903 43.4202 41.1337 43.4192C41.8219 43.4051 42.2896 43.3465 42.8719 42.969C43.3997 42.3059 43.3757 41.9191 43.4578 41.0159C31.2762 41.0159 19.0945 41.0159 6.54376 41.0159C6.6034 42.0246 6.6034 42.0246 7.03204 42.8714C7.45935 43.2115 7.80203 43.3718 8.34522 43.3721C8.47933 43.3726 8.47933 43.3726 8.61615 43.373C8.71452 43.3728 8.81289 43.3727 8.91424 43.3725C9.01862 43.3727 9.12301 43.3729 9.23056 43.3731C9.5821 43.3737 9.93363 43.3736 10.2852 43.3735C10.5365 43.3738 10.7878 43.3742 11.0391 43.3745C11.5812 43.3753 12.1233 43.3758 12.6654 43.3761C13.5221 43.3767 14.3788 43.3783 15.2355 43.3802C15.5285 43.3808 15.8215 43.3814 16.1146 43.382C16.2244 43.3823 16.2244 43.3823 16.3365 43.3825C17.1702 43.3843 18.004 43.3858 18.8377 43.3873C18.9139 43.3874 18.9902 43.3876 19.0687 43.3877C20.3042 43.3899 21.5397 43.3909 22.7752 43.3916C24.0433 43.3924 25.3113 43.3947 26.5794 43.3983C27.3618 43.4004 28.1441 43.4014 28.9265 43.4008C29.5259 43.4004 30.1253 43.4021 30.7246 43.4045C30.9707 43.4052 31.2168 43.4052 31.4629 43.4045C31.7982 43.4037 32.1335 43.4052 32.4688 43.4073C32.5667 43.4065 32.6647 43.4056 32.7656 43.4048C33.1852 43.4097 33.4316 43.419 33.7992 43.6348C34.0586 43.9321 34.0828 44.1407 34.0828 44.5315C33.9277 44.8806 33.8176 45.0014 33.4969 45.2151C33.2957 45.2397 33.2957 45.2397 33.0594 45.24C32.9693 45.2406 32.8791 45.2411 32.7863 45.2417C32.6871 45.2413 32.5879 45.241 32.4858 45.2406C32.3805 45.241 32.2753 45.2413 32.1669 45.2417C31.8124 45.2427 31.458 45.2423 31.1035 45.242C30.8501 45.2424 30.5967 45.2429 30.3433 45.2435C29.7251 45.2447 29.107 45.2449 28.4889 45.2447C27.9862 45.2445 27.4836 45.2447 26.9809 45.2451C26.9094 45.2451 26.8379 45.2452 26.7642 45.2453C26.619 45.2454 26.4737 45.2455 26.3285 45.2456C24.9652 45.2467 23.6018 45.2465 22.2385 45.2459C20.9923 45.2454 19.7461 45.2465 18.4999 45.2483C17.22 45.2502 15.9401 45.251 14.6602 45.2506C13.9418 45.2505 13.2234 45.2507 12.5049 45.2521C11.8288 45.2534 11.1527 45.2531 10.4766 45.2518C10.2287 45.2516 9.98077 45.2519 9.73284 45.2527C9.39385 45.2537 9.0549 45.2529 8.71591 45.2517C8.61826 45.2524 8.52061 45.2531 8.42 45.2539C7.31196 45.2454 6.48714 44.9545 5.69537 44.1737C4.84306 43.2404 4.76831 42.3298 4.76764 41.1075C4.76644 40.9918 4.76525 40.8762 4.76402 40.7571C4.76383 40.646 4.76364 40.5349 4.76344 40.4204C4.76304 40.3192 4.76264 40.218 4.76223 40.1137C4.78653 39.8374 4.8281 39.6827 4.98126 39.4534C5.46217 39.1328 5.9751 39.2468 6.54376 39.2581C6.54376 38.6458 6.54376 38.0335 6.54376 37.4026C6.28595 37.4993 6.02814 37.596 5.76251 37.6956C5.39179 37.6409 5.17253 37.5818 4.88971 37.3355C4.74025 37.0102 4.74247 36.7801 4.78595 36.4261C5.04196 36.0416 5.28036 35.8517 5.6969 35.6597C5.80345 35.6096 5.90999 35.5594 6.01977 35.5077C6.19455 35.4276 6.19455 35.4276 6.37286 35.3458C6.62725 35.227 6.88118 35.1074 7.13504 34.9876C7.20308 34.9555 7.27112 34.9235 7.34123 34.8906C7.91325 34.6199 8.47747 34.335 9.04086 34.0468C9.21745 33.9569 9.39404 33.8669 9.57063 33.777C9.83254 33.6435 10.0942 33.5095 10.3552 33.3742C10.6006 33.2471 10.8468 33.1218 11.0932 32.9967C11.1661 32.9583 11.239 32.9199 11.3142 32.8803C11.3833 32.8456 11.4524 32.8109 11.5236 32.7751C11.5829 32.7445 11.6423 32.7139 11.7034 32.6824C12.2423 32.5169 12.7624 32.6379 13.2939 32.7757C13.3598 32.7926 13.4256 32.8094 13.4935 32.8267C13.7094 32.8821 13.9251 32.9386 14.1407 32.9951C14.2924 33.0342 14.444 33.0731 14.5957 33.112C14.9944 33.2143 15.3929 33.3175 15.7912 33.4209C16.4269 33.586 17.0628 33.7501 17.6989 33.9135C17.9193 33.9703 18.1395 34.0277 18.3597 34.0852C20.4681 34.6319 22.3513 34.5741 24.5026 34.3818C24.7261 34.3623 24.9496 34.3428 25.1731 34.3234C25.7575 34.2724 26.3418 34.2207 26.9262 34.1689C27.4028 34.1267 27.8794 34.0851 28.3561 34.0435C28.9271 33.9937 29.498 33.9436 30.069 33.8935C30.2308 33.8793 30.2308 33.8793 30.396 33.8648C30.7027 33.8378 31.0094 33.8107 31.3162 33.7835C31.4057 33.7756 31.4952 33.7677 31.5874 33.7596C31.8333 33.7377 32.0792 33.7148 32.325 33.6917C32.4056 33.6849 32.4861 33.6781 32.5691 33.6712C32.6463 33.664 32.7235 33.6568 32.8031 33.6493C32.871 33.6434 32.939 33.6374 33.009 33.6313C33.2298 33.5891 33.3986 33.5071 33.5945 33.3987C33.5945 33.1731 33.5945 32.9476 33.5945 32.7151C32.5112 32.5528 31.429 32.4556 30.3366 32.3799C30.0664 32.3611 29.7963 32.3413 29.5262 32.3215C27.7575 32.1235 27.7575 32.1235 26.075 32.5198C25.2089 32.7643 24.3169 32.7451 23.4255 32.7406C23.1844 32.7396 22.9435 32.7406 22.7024 32.7418C21.9241 32.7429 21.1475 32.7218 20.372 32.6526C20.3043 32.6483 20.2365 32.644 20.1666 32.6396C19.7938 32.5996 19.5846 32.5142 19.3426 32.2372C19.1143 31.893 19.0642 31.7514 19.1414 31.3479C19.3172 31.0843 19.4426 30.9044 19.7274 30.762C19.9948 30.7713 20.26 30.7865 20.5269 30.8047C21.4364 30.8586 22.3444 30.8711 23.2552 30.8719C23.3836 30.8723 23.512 30.8727 23.6444 30.8732C24.3305 30.8722 25.0035 30.8497 25.6844 30.762C25.6325 30.5207 25.6325 30.5207 25.4891 30.2737C25.2068 30.1218 25.2068 30.1218 24.857 30.0265C24.76 29.9967 24.76 29.9967 24.661 29.9662C23.8576 29.7248 23.0407 29.5347 22.2237 29.346C22.06 29.3075 21.8963 29.2691 21.7325 29.2305C20.7147 28.9923 19.695 28.7665 18.6659 28.5815C18.1532 28.4833 17.804 28.3552 17.3836 28.0276C17.3056 27.9702 17.2275 27.9128 17.1471 27.8537C17.0721 27.7983 16.997 27.7429 16.9197 27.6858C16.1151 27.1194 15.2986 26.8441 14.3196 26.8191C14.194 26.8144 14.0684 26.8096 13.9389 26.8046C12.7219 26.8744 11.5014 27.6114 10.4195 28.1314C10.2649 28.205 10.1102 28.2786 9.95558 28.3521C9.24984 28.6879 8.54581 29.0272 7.84343 29.37C7.732 29.4242 7.62057 29.4784 7.50576 29.5342C7.30155 29.6338 7.09768 29.734 6.89421 29.8351C6.03728 30.2535 6.03728 30.2535 5.5672 30.2737C5.17904 30.1244 5.01851 30.0366 4.78595 29.6878C4.74323 29.3582 4.74323 29.3582 4.78595 29.0042C5.14995 28.5605 5.56677 28.3366 6.07379 28.0948C6.17982 28.0422 6.17982 28.0422 6.28799 27.9885C6.80781 27.7347 6.80781 27.7347 7.03204 27.7347C7.03098 27.6341 7.02992 27.5336 7.02882 27.43C7.02068 26.2847 7.05758 25.144 7.11013 24.0001C7.12364 23.7053 7.13654 23.4106 7.14935 23.1158C7.31906 19.2682 7.31906 19.2682 8.59454 18.0667C9.52056 17.2983 10.6715 17.3376 11.8119 17.3331C11.9703 17.3315 12.1287 17.3297 12.2872 17.3278C12.701 17.3232 13.1149 17.3203 13.5288 17.3177C13.9524 17.3148 14.376 17.3103 14.7995 17.3059C15.6283 17.2975 16.4571 17.2909 17.2859 17.2854C17.2689 17.2283 17.2519 17.1712 17.2344 17.1124C17.1562 16.8484 17.079 16.5842 17.0018 16.3199C16.975 16.2302 16.9482 16.1404 16.9206 16.0479C16.2385 13.6998 16.4006 11.3183 17.5667 9.15251C18.3383 7.77714 19.4158 6.62114 20.8016 5.85967C20.8818 5.81485 20.962 5.77004 21.0446 5.72386C24.2229 4.04091 27.8208 4.63541 30.5733 6.79961ZM20.8992 8.0081C20.7861 8.09704 20.7861 8.09704 20.6707 8.18778C19.4174 9.23547 18.4897 10.8087 18.3375 12.4519C18.1766 15.2446 19.283 17.5263 20.5796 19.9298C21.0263 20.759 21.4357 21.5462 21.6805 22.4612C21.9383 22.4612 22.1961 22.4612 22.4617 22.4612C22.5018 21.8225 22.5289 21.1841 22.5476 20.5443C22.5553 20.3275 22.566 20.1108 22.5796 19.8943C22.688 18.5035 22.688 18.5035 22.1104 17.2896C21.7835 16.9505 21.4314 16.6505 21.0522 16.3714C20.8521 16.1619 20.8283 16.0083 20.8016 15.7229C20.8693 15.4091 20.914 15.2076 21.1617 14.9966C21.5117 14.9115 21.7218 14.9404 22.0711 15.0394C22.3632 15.235 22.6032 15.4759 22.8524 15.7229C22.9545 15.8215 23.0568 15.9201 23.1591 16.0186C23.2665 16.1233 23.3738 16.2283 23.481 16.3333C23.533 16.384 23.585 16.4347 23.6386 16.487C24.0422 16.8899 24.1328 17.1454 24.1419 17.7051C24.1449 17.8635 24.1449 17.8635 24.1478 18.025C24.1495 18.1388 24.1511 18.2527 24.1528 18.37C24.1548 18.4866 24.1568 18.6032 24.1589 18.7234C24.1653 19.0965 24.1711 19.4697 24.1768 19.8428C24.181 20.0955 24.1853 20.3483 24.1896 20.601C24.2001 21.2211 24.21 21.8411 24.2195 22.4612C24.7352 22.4612 25.2508 22.4612 25.782 22.4612C25.7835 22.304 25.7849 22.1468 25.7864 21.9849C25.792 21.4016 25.7996 20.8183 25.8077 20.235C25.8109 19.9826 25.8137 19.7301 25.8159 19.4777C25.8191 19.1148 25.8243 18.7519 25.8297 18.389C25.8303 18.2762 25.831 18.1634 25.8316 18.0471C25.8335 17.9416 25.8355 17.836 25.8375 17.7273C25.8386 17.6347 25.8396 17.5421 25.8408 17.4467C25.9127 16.9682 26.1967 16.6507 26.5293 16.3169C26.631 16.2148 26.631 16.2148 26.7348 16.1107C26.8051 16.0412 26.8754 15.9716 26.9478 15.9C27.0527 15.7939 27.0527 15.7939 27.1597 15.6858C27.2276 15.6181 27.2955 15.5504 27.3655 15.4807C27.4271 15.4194 27.4886 15.3581 27.552 15.2949C27.8714 15.0195 28.0469 14.9375 28.4737 14.96C28.9328 15.0685 28.9328 15.0685 29.1024 15.3323C29.1937 15.5993 29.2121 15.7671 29.1497 16.0426C29.0043 16.3096 28.9019 16.4075 28.6684 16.5914C28.056 17.0795 27.535 17.5241 27.4197 18.3322C27.3783 18.9596 27.4114 19.5821 27.4483 20.209C27.4557 20.4282 27.4623 20.6473 27.4683 20.8665C27.4843 21.3986 27.5087 21.9298 27.5399 22.4612C27.7977 22.4612 28.0555 22.4612 28.3211 22.4612C28.3537 22.3533 28.3537 22.3533 28.387 22.2433C28.6161 21.5182 28.9057 20.8646 29.2671 20.1968C29.3186 20.0997 29.37 20.0026 29.423 19.9025C29.6567 19.4621 29.8937 19.0237 30.135 18.5874C30.6443 17.6607 31.0454 16.7371 31.3484 15.7229C31.3817 15.6132 31.4149 15.5034 31.4492 15.3903C31.9575 13.4133 31.7016 11.4177 30.687 9.66035C30.3581 9.146 29.9315 8.72174 29.493 8.30107C29.4025 8.21119 29.4025 8.21119 29.3103 8.11949C28.1082 7.00107 26.338 6.48544 24.7242 6.51885C23.2921 6.63187 22.0233 7.12107 20.8992 8.0081ZM9.3819 19.8306C9.10275 20.2282 9.06702 20.5184 9.04329 20.9933C9.03712 21.1132 9.03095 21.2332 9.02459 21.3568C9.01829 21.4878 9.01202 21.6188 9.00577 21.7498C8.99912 21.8842 8.99246 22.0186 8.98578 22.153C8.97188 22.4346 8.9583 22.7163 8.94492 22.9979C8.92776 23.3586 8.90969 23.7193 8.89137 24.0799C8.87739 24.3575 8.86395 24.635 8.85067 24.9126C8.84423 25.0456 8.83761 25.1785 8.8308 25.3115C8.82135 25.4975 8.81271 25.6836 8.80411 25.8696C8.79899 25.9754 8.79386 26.0813 8.78858 26.1903C8.78971 26.4344 8.81472 26.6243 8.88751 26.8558C8.97951 26.8129 9.07151 26.7701 9.16629 26.7259C9.51226 26.5651 9.85874 26.4054 10.2054 26.246C10.3545 26.1773 10.5034 26.1082 10.6523 26.0389C12.5782 25.1419 14.3738 24.6553 16.4681 25.4031C17.19 25.703 17.941 26.1025 18.5343 26.6158C18.8085 26.796 19.0375 26.8283 19.3611 26.8741C19.519 26.8973 19.519 26.8973 19.6801 26.921C19.7601 26.9317 19.8402 26.9424 19.9227 26.9534C19.9447 26.3477 19.9605 25.7421 19.9709 25.1361C19.9753 24.9308 19.9813 24.7256 19.989 24.5205C20.0449 22.9919 19.8158 21.9258 19.0438 20.6058C18.9645 20.4633 18.8856 20.3207 18.8071 20.1778C18.5309 19.6263 18.5309 19.6263 18.1649 19.1409C17.9284 19.1296 17.6946 19.1245 17.458 19.1236C17.347 19.1227 17.347 19.1227 17.2337 19.1217C16.9875 19.1198 16.7413 19.1186 16.4952 19.1176C16.3691 19.1171 16.3691 19.1171 16.2405 19.1164C15.7951 19.1144 15.3497 19.113 14.9043 19.1121C14.4451 19.111 13.986 19.1077 13.5268 19.1038C13.1732 19.1012 12.8195 19.1004 12.4659 19.1001C12.2967 19.0996 12.1275 19.0984 11.9584 19.0966C11.7207 19.0942 11.4831 19.0943 11.2454 19.095C11.1762 19.0938 11.107 19.0925 11.0357 19.0912C10.3741 19.098 9.81574 19.3296 9.3819 19.8306ZM31.8367 19.1409C31.633 19.4988 31.4296 19.8569 31.2264 20.2151C31.1405 20.366 31.1405 20.366 31.0528 20.5199C30.2853 21.8483 30.2853 21.8483 30.0678 23.3383C30.0678 23.4556 30.0678 23.4556 30.0678 23.5752C30.0679 23.833 30.0686 24.0909 30.0694 24.3487C30.0696 24.5277 30.0697 24.7067 30.0698 24.8857C30.0702 25.3564 30.0711 25.8271 30.0722 26.2978C30.0732 26.7783 30.0737 27.2588 30.0741 27.7392C30.0752 28.6817 30.0769 29.6242 30.0789 30.5667C30.2273 30.5777 30.2273 30.5777 30.3787 30.5889C30.7496 30.6168 31.1203 30.6461 31.4909 30.6758C31.6507 30.6884 31.8105 30.7006 31.9703 30.7124C34.2349 30.8803 34.2349 30.8803 34.9617 31.6409C35.3345 32.1762 35.4752 32.7493 35.45 33.3987C35.3315 34.0502 35.0573 34.5839 34.5082 34.9792C33.3589 35.6397 31.6583 35.5475 30.3692 35.6608C30.1507 35.6803 29.9321 35.6997 29.7136 35.7191C29.2566 35.7596 28.7997 35.7998 28.3427 35.8398C27.7632 35.8905 27.1839 35.9425 26.6045 35.9947C26.1532 36.0353 25.7018 36.0749 25.2504 36.1144C25.0371 36.1331 24.8238 36.1522 24.6105 36.1716C23.5362 36.269 22.4684 36.3446 21.3892 36.3469C21.3028 36.3471 21.2164 36.3473 21.1273 36.3475C19.8946 36.3382 18.746 36.0443 17.5667 35.7132C16.6408 35.4549 15.7097 35.2182 14.7768 34.9867C14.5948 34.9414 14.413 34.8957 14.2312 34.8495C13.9731 34.784 13.7146 34.7201 13.456 34.6564C13.3783 34.6364 13.3005 34.6164 13.2204 34.5958C12.4196 34.4024 11.9044 34.5956 11.1897 34.9612C11.1127 34.9999 11.0357 35.0385 10.9564 35.0783C10.7947 35.1597 10.6331 35.2415 10.4716 35.3236C10.2237 35.4498 9.97517 35.5749 9.72655 35.6998C9.56929 35.779 9.41206 35.8584 9.25487 35.9378C9.18031 35.9754 9.10575 36.0131 9.02893 36.0519C8.69226 36.2069 8.69226 36.2069 8.39923 36.4261C8.27419 37.3662 8.30157 38.3113 8.30157 39.2581C19.3231 39.2581 30.3445 39.2581 41.7 39.2581C41.7 38.3417 41.6992 37.4339 41.6577 36.5197C41.6547 36.4513 41.6516 36.383 41.6484 36.3125C41.6453 36.2418 41.6421 36.1711 41.6388 36.0982C41.6322 35.9454 41.6256 35.7927 41.6191 35.6399C41.6014 35.2301 41.5834 34.8203 41.5652 34.4106C41.5461 33.9787 41.5274 33.5468 41.5086 33.1149C41.4771 32.3902 41.4453 31.6655 41.4133 30.9408C41.3765 30.1066 41.3401 29.2724 41.3038 28.4382C41.265 27.5445 41.2259 26.6509 41.1867 25.7572C41.1756 25.5021 41.1644 25.247 41.1533 24.9918C41.1358 24.5889 41.1181 24.1859 41.1002 23.783C41.0937 23.6363 41.0873 23.4897 41.0809 23.3431C41.0611 22.8863 41.0396 22.4296 41.0164 21.9729C41.0131 21.906 41.0098 21.839 41.0065 21.77C40.9963 21.57 40.9852 21.37 40.9737 21.1701C40.9672 21.0537 40.9608 20.9374 40.9542 20.8175C40.8893 20.2513 40.6933 19.8878 40.2901 19.4949C39.7899 19.1777 39.3736 19.1129 38.7879 19.1187C38.7126 19.1187 38.6373 19.1187 38.5597 19.1187C38.3119 19.1188 38.0641 19.1203 37.8163 19.1218C37.644 19.1222 37.4717 19.1225 37.2995 19.1227C36.8469 19.1234 36.3943 19.1253 35.9417 19.1275C35.4796 19.1295 35.0174 19.1304 34.5553 19.1314C33.6491 19.1335 32.7429 19.1368 31.8367 19.1409ZM21.6805 24.219C21.6805 25.2503 21.6805 26.2815 21.6805 27.344C21.9125 27.4018 22.1445 27.4596 22.3835 27.5191C22.6128 27.5768 22.8419 27.6348 23.0711 27.6927C23.2281 27.7323 23.3852 27.7716 23.5424 27.8106C26.6272 28.5768 26.6272 28.5768 27.1248 29.3765C27.2541 29.7062 27.3531 30.0288 27.4422 30.3714C27.7322 30.3714 28.0223 30.3714 28.3211 30.3714C28.3211 28.3411 28.3211 26.3108 28.3211 24.219C26.1297 24.219 23.9383 24.219 21.6805 24.219Z" fill="#E45412"/>
<path d="M39.7442 5.66377C39.9945 5.85298 39.9945 5.85298 40.1348 6.15205C40.2043 6.97825 39.9889 7.73743 39.7854 8.53089C39.7491 8.67515 39.7128 8.81942 39.6766 8.9637C39.6007 9.26461 39.5241 9.56532 39.447 9.86589C39.3485 10.2502 39.252 10.6351 39.1561 11.0201C39.0818 11.3175 39.0063 11.6147 38.9304 11.9118C38.8944 12.0536 38.8587 12.1955 38.8234 12.3374C38.774 12.5359 38.7229 12.7339 38.6714 12.9318C38.6428 13.0443 38.6142 13.1568 38.5847 13.2727C38.4644 13.602 38.326 13.8097 38.0841 14.0622C37.759 14.166 37.5658 14.1772 37.2357 14.0927C36.9707 13.9423 36.8565 13.8457 36.7169 13.5739C36.6915 13.0921 36.7485 12.6777 36.8646 12.2109C36.8803 12.1468 36.8961 12.0827 36.9123 12.0167C36.964 11.8069 37.0168 11.5975 37.0697 11.3881C37.1063 11.2414 37.1428 11.0946 37.1793 10.9479C37.2557 10.6413 37.3327 10.3348 37.4101 10.0284C37.509 9.6365 37.6065 9.24425 37.7036 8.85188C37.7787 8.54912 37.8545 8.24657 37.9306 7.94406C37.9668 7.79952 38.0028 7.65492 38.0386 7.51025C38.0887 7.30792 38.1399 7.10588 38.1914 6.90388C38.2202 6.78905 38.2491 6.67423 38.2788 6.55593C38.3758 6.25368 38.4879 6.02065 38.67 5.76142C39.0099 5.59147 39.3733 5.60777 39.7442 5.66377Z" fill="#E45412"/>
<path d="M10.917 5.6084C11.2216 5.68616 11.3244 5.81138 11.5243 6.05434C11.6161 6.30436 11.6877 6.53775 11.7513 6.79477C11.7811 6.90858 11.7811 6.90858 11.8116 7.0247C11.8799 7.28686 11.9462 7.54949 12.0126 7.81215C12.0651 8.01504 12.1177 8.2179 12.1704 8.42074C12.3131 8.97222 12.453 9.52435 12.5918 10.0768C12.6497 10.3065 12.7079 10.5361 12.7665 10.7657C12.8523 11.1017 12.9371 11.4381 13.0216 11.7745C13.0478 11.8765 13.0741 11.9785 13.1011 12.0837C13.412 13.3349 13.412 13.3349 13.1295 13.8546C12.8169 14.1272 12.6199 14.1598 12.2079 14.1598C11.7431 13.9802 11.6248 13.7223 11.4267 13.2809C11.3618 13.0739 11.3032 12.8649 11.25 12.6546C11.2187 12.5323 11.1874 12.4101 11.1552 12.2841C11.1222 12.1519 11.0892 12.0197 11.0562 11.8874C11.0217 11.7502 10.987 11.613 10.9524 11.4758C10.8801 11.1889 10.8084 10.9018 10.737 10.6147C10.6459 10.2486 10.5532 9.88298 10.4601 9.51742C10.3883 9.23433 10.3174 8.95101 10.2468 8.66761C10.213 8.53279 10.179 8.39805 10.1446 8.26339C9.69717 6.50774 9.69717 6.50774 10.0045 5.85292C10.3216 5.61315 10.5286 5.60906 10.917 5.6084Z" fill="#E45412"/>
<path d="M44.7263 11.5235C45.0469 11.7702 45.1923 11.9727 45.2573 12.3719C45.1876 12.8998 44.8278 13.2122 44.4285 13.5466C44.2052 13.7169 43.9787 13.8815 43.7497 14.0443C43.6682 14.103 43.5868 14.1616 43.5028 14.2221C43.338 14.3408 43.1729 14.4591 43.0076 14.5772C42.7935 14.7315 42.5822 14.8889 42.3719 15.0483C42.3113 15.0935 42.2508 15.1387 42.1884 15.1853C42.0274 15.3056 41.8669 15.4266 41.7066 15.5476C41.3662 15.7459 41.114 15.8004 40.7224 15.8204C40.4052 15.6935 40.2742 15.5949 40.0998 15.3016C40.018 14.9499 40.0083 14.7973 40.1364 14.4532C40.7514 13.7259 41.6547 13.1875 42.4203 12.6336C42.6854 12.4417 42.9468 12.2475 43.2023 12.0431C43.7259 11.6315 44.0511 11.3814 44.7263 11.5235Z" fill="#E45412"/>
<path d="M5.83739 11.4799C6.27245 11.5678 6.58798 11.8567 6.92797 12.1281C7.00753 12.1893 7.08709 12.2505 7.16906 12.3135C7.33456 12.4409 7.49946 12.5691 7.66378 12.6981C7.90409 12.886 8.14654 13.0706 8.39014 13.2542C8.96361 13.6874 8.96361 13.6874 9.24425 13.9024C9.30046 13.9453 9.35667 13.9883 9.41458 14.0325C9.6853 14.2545 9.84317 14.3874 9.94921 14.7282C9.96437 15.1149 9.88015 15.3043 9.66845 15.6255C9.41554 15.8332 9.28926 15.8215 8.95968 15.8002C8.5451 15.7128 8.33371 15.5798 7.99608 15.3264C7.93996 15.2846 7.88383 15.2429 7.826 15.1999C7.69874 15.1048 7.57198 15.009 7.44562 14.9127C7.19707 14.7238 6.94658 14.5376 6.69604 14.3514C6.51081 14.2126 6.32567 14.0738 6.14062 13.9348C6.05147 13.8683 5.96233 13.8017 5.87049 13.7332C5.04876 13.1095 5.04876 13.1095 4.78563 12.6958C4.73881 12.3134 4.76283 12.0407 4.98095 11.7192C5.28686 11.5153 5.4725 11.4695 5.83739 11.4799Z" fill="#E45412"/>
<path d="M36.9124 43.4572C37.1498 43.6398 37.2679 43.7776 37.4007 44.0431C37.4427 44.4213 37.4316 44.5827 37.2176 44.9037C36.968 45.1607 36.8906 45.21 36.534 45.2333C36.2341 45.2153 36.0837 45.1863 35.8382 45.0197C35.5977 44.659 35.5655 44.3639 35.6429 43.9455C36.0002 43.4094 36.3115 43.3713 36.9124 43.4572Z" fill="#E45412"/>
<path d="M36.2318 21.5821C36.4954 21.7579 36.6753 21.8833 36.8177 22.1681C36.8426 22.5498 36.8405 22.8233 36.6224 23.1446C36.2617 23.3851 35.9666 23.4173 35.5482 23.34C35.2558 23.145 35.0952 23.0096 35.0168 22.659C34.9966 22.3107 35.0297 22.1097 35.243 21.8324C35.5889 21.578 35.801 21.5399 36.2318 21.5821Z" fill="#E45412"/>
<path d="M33.1055 21.6798C33.3829 21.9304 33.469 22.1889 33.4961 22.5587C33.4222 22.8408 33.3365 23.0071 33.1421 23.224C32.8029 23.3936 32.5006 23.4071 32.1289 23.3399C31.8064 23.1332 31.7495 22.9871 31.6406 22.6197C31.6406 22.1823 31.7496 22.0083 32.0312 21.6798C32.4129 21.5526 32.7185 21.5756 33.1055 21.6798Z" fill="#E45412"/>
<path d="M12.6953 21.5819C12.9589 21.7577 13.1388 21.8831 13.2812 22.1679C13.3215 22.6218 13.2607 22.8753 12.9882 23.2421C12.6726 23.3999 12.3529 23.3959 12.0117 23.3398C11.7197 23.1451 11.5646 23.0075 11.4734 22.6623C11.4547 22.4432 11.4632 22.282 11.5234 22.0702C11.8784 21.6645 12.1537 21.4782 12.6953 21.5819Z" fill="#E45412"/>
<path d="M39.5507 21.5824C40.0031 21.8036 40.0031 21.8036 40.1367 22.0707C40.2036 22.7515 40.2036 22.7515 39.9414 23.1449C39.6182 23.3604 39.4386 23.4201 39.0567 23.3932C38.7845 23.3171 38.616 23.1646 38.4555 22.9351C38.3134 22.5998 38.3475 22.3082 38.4765 21.973C38.8044 21.5983 39.0604 21.5109 39.5507 21.5824Z" fill="#E45412"/>
<path d="M16.0156 21.5824C16.468 21.8036 16.468 21.8036 16.6015 22.0707C16.6685 22.7515 16.6685 22.7515 16.4062 23.1449C16.083 23.3604 15.9035 23.4201 15.5216 23.3932C15.2494 23.3171 15.0808 23.1646 14.9204 22.9351C14.7782 22.5998 14.8123 22.3082 14.9414 21.973C15.2692 21.5983 15.5253 21.5109 16.0156 21.5824Z" fill="#E45412"/>
<path d="M36.3285 24.9997C36.5665 25.0912 36.5665 25.0912 36.7191 25.2926C36.8478 25.7293 36.8761 26.0529 36.6703 26.4645C36.3517 26.7194 36.1487 26.7575 35.7426 26.7575C35.3935 26.6024 35.2727 26.4922 35.059 26.1716C35.0042 25.7493 35.0122 25.5566 35.2543 25.2011C35.6579 24.9236 35.845 24.9383 36.3285 24.9997Z" fill="#E45412"/>
<path d="M32.5544 24.9639C32.8712 24.9715 32.9812 24.9837 33.2502 25.1653C33.4199 25.4268 33.4871 25.5664 33.4943 25.8794C33.302 26.4768 33.302 26.4768 33.0305 26.7095C32.7001 26.7829 32.4541 26.7424 32.1272 26.6606C31.8378 26.455 31.7529 26.3214 31.645 25.9832C31.6377 25.6245 31.7191 25.4795 31.9318 25.1958C32.1655 24.9621 32.234 24.9692 32.5544 24.9639Z" fill="#E45412"/>
</svg>
