<svg width="53" height="54" viewBox="0 0 53 54" fill="none" xmlns="http://www.w3.org/2000/svg">
<path d="M32.9488 45.2037V49.267C33.9907 49.267 35.0065 49.267 35.9963 49.267C36.986 49.267 36.934 49.4493 36.934 50.2047C36.934 50.96 36.934 51.8977 36.934 52.8093C36.934 53.7209 36.6995 53.6688 36.1005 53.6688H16.0707C15.4456 53.6688 15.2372 53.4605 15.2112 52.8093V50.2047C15.2112 49.5535 15.4456 49.3712 16.0967 49.3712C16.7479 49.3712 18.1284 49.3712 19.1963 49.3712V45.2037H18.5712C13.4921 45.2037 8.43907 45.2037 3.36 45.2037C1.56279 45.2558 0.052093 43.8493 0 42.0521C0 41.974 0 41.9219 0 41.8437C0.052093 32.7274 0.052093 23.5851 0 14.3647C0 12.6456 1.40651 11.2391 3.12558 11.2651C3.20372 11.2651 3.28186 11.2651 3.36 11.2651C8.5693 11.2651 13.7526 11.2651 18.9619 11.2651H19.6912C19.6912 11.0567 19.6912 10.8744 19.6912 10.666V6.83721C19.6391 6.42047 19.8735 6.00372 20.2381 5.79535C23.2074 3.97209 26.1507 2.0707 29.094 0.195349C29.4326 -0.0651163 29.9014 -0.0651163 30.24 0.195349L39.1479 5.84744C39.4605 6.02977 39.6428 6.39442 39.6167 6.75907C39.6167 8.21768 39.6167 9.70233 39.6167 11.2391H48.7851C50.426 11.0307 51.9367 12.1767 52.1451 13.8177C52.1712 14.0781 52.1712 14.3386 52.1451 14.5991V41.7916C52.3535 43.4847 51.1553 45.0214 49.4884 45.2298C49.2279 45.2558 48.9935 45.2558 48.733 45.2298H32.9488V45.2037ZM50.7907 39.0828C50.7907 39.0047 50.7907 38.9526 50.7907 38.8744V14.3647C50.8688 13.4791 50.2177 12.6977 49.3321 12.6195C49.2279 12.6195 49.1237 12.6195 48.9935 12.6195H39.773V16.9693C39.8251 17.386 39.6167 17.7507 39.2521 17.9591C36.2567 19.8344 33.2874 21.7358 30.3181 23.6372C30.0056 23.8716 29.5367 23.8716 29.2242 23.6372L20.1079 18.0372C19.7172 17.8288 19.5088 17.386 19.613 16.9693V13.1405C19.613 12.9842 19.613 12.8019 19.613 12.6195H8.5693V39.0828H50.7907ZM1.38047 40.5154C1.38047 41.1405 1.38047 41.7135 1.38047 42.2605C1.38047 43.3023 2.18791 43.8754 3.43814 43.8754H49.306C50.0874 43.8233 50.7386 43.2242 50.8167 42.4428C50.8167 41.8177 50.8167 41.1926 50.8167 40.5414L1.38047 40.5154ZM7.1107 12.6456H3.36C1.95349 12.6456 1.38047 13.2186 1.38047 14.6251V39.0828H7.1107V12.6456ZM37.6893 6.57674L37.507 6.42047L29.9795 1.60186C29.7712 1.44558 29.5107 1.44558 29.3023 1.60186L22.0353 6.23814L21.5665 6.57674C24.1712 8.24372 26.7758 9.9107 29.3805 11.5256C29.5888 11.6037 29.7972 11.6037 30.0056 11.5256L32.3498 10.0409L37.6893 6.57674ZM28.9377 21.9963V21.814C28.9377 18.9228 28.9377 16.0316 28.9377 13.1405C28.9377 12.9581 28.7033 12.6977 28.5209 12.5674L21.853 8.29582L21.0977 7.82698C21.0977 7.93116 21.0977 8.03535 21.0977 8.13954C21.0977 10.9786 21.0977 13.8177 21.0977 16.6567C21.1237 16.8912 21.254 17.0995 21.4363 17.2298L28.5991 21.814L28.9377 21.9963ZM30.3181 21.9963H30.6046L37.9758 17.1516C38.1581 16.9953 38.2884 16.7609 38.2884 16.5005C38.2884 13.8958 38.2884 11.1349 38.2884 8.47814V7.77488L37.7153 8.11349C35.6056 9.46791 33.4958 10.8484 31.334 12.1507C30.6307 12.4893 30.214 13.2447 30.2921 14.026C30.3702 16.6567 30.3181 19.3135 30.3181 21.9963ZM31.5684 45.2037H20.6028V49.1888H31.5684V45.2037ZM35.5535 50.5693H16.6177V52.2363H35.5535V50.5693Z" fill="#E45412"/>
<path d="M14.7944 37.2335C14.013 37.2335 13.8567 37.0772 13.8567 36.2698C13.8567 35.4623 13.8567 34.8372 13.8567 34.1079C13.8567 33.3786 14.0391 33.1963 14.7423 33.1963H44.3312C45.3209 33.1963 45.4772 33.1963 45.4772 34.3163C45.4772 35.4363 45.4772 35.6707 45.4772 36.3479C45.4772 37.0251 45.2688 37.2335 44.5656 37.2335H14.7944ZM44.1228 34.6288H15.2112V35.9833H44.1228V34.6288Z" fill="#E45412"/>
<path d="M27.974 28.4037C26.5674 28.1954 25.1609 28.0391 23.7805 27.7526C21.1237 27.3619 18.5712 26.346 16.3572 24.7833C15.9926 24.4967 15.654 24.1842 15.3414 23.8456C13.7526 22.3349 13.6744 19.8344 15.1591 18.2195C15.1591 18.2195 15.1591 18.2195 15.1851 18.1935C15.8623 17.4902 16.5916 16.8391 17.347 16.214C17.5553 15.9535 17.946 15.9014 18.2326 16.1098C18.2847 16.1358 18.3107 16.1879 18.3367 16.214C18.5972 16.6047 18.3367 16.9172 18.1023 17.2037C17.4772 17.6986 16.9042 18.2716 16.3572 18.8707C15.1851 19.8865 15.0809 21.6837 16.0967 22.8298C16.1749 22.9079 16.253 23.0121 16.3572 23.0902C17.5293 24.2623 18.9619 25.1479 20.5507 25.6949C22.8949 26.5284 25.3433 27.0233 27.8177 27.1274C27.6353 26.9451 27.4791 26.7628 27.3228 26.5544C27.0623 26.294 27.0884 25.8772 27.3228 25.6428C27.5833 25.3823 28 25.4084 28.2344 25.6428L30.0056 27.414C30.24 27.6223 30.24 27.987 30.0316 28.2214L30.0056 28.2474L28.3126 29.9665C28.0781 30.227 27.6874 30.253 27.427 30.0186C27.4009 29.9926 27.4009 29.9926 27.3749 29.9665C27.1144 29.7581 27.0884 29.3674 27.2967 29.133C27.3228 29.107 27.3488 29.0809 27.3749 29.0549L27.974 28.4037Z" fill="#E45412"/>
<path d="M45.1647 20.8502C45.1386 22.0484 44.6177 23.1684 43.7321 23.9758C42.2474 25.3563 40.4763 26.3981 38.5228 26.9712C36.5433 27.6223 34.5116 28.013 32.454 28.1953C31.9851 28.1953 31.6726 28.0651 31.6465 27.6223C31.6205 27.1795 31.8809 26.9451 32.3498 26.893C35.1628 26.7367 37.8977 26.0074 40.4242 24.7312C41.2837 24.2623 42.0912 23.6893 42.7944 23.0121C43.9665 22.1786 44.253 20.5637 43.4195 19.3916C43.2893 19.2093 43.133 19.053 42.9767 18.8967C42.4037 18.2977 41.7786 17.7507 41.1274 17.2298C40.6847 16.8391 40.5544 16.5265 40.8149 16.1879C41.0754 15.8493 41.414 15.7972 41.9088 16.1879C42.9767 16.8391 43.8623 17.7247 44.5135 18.7926C44.8521 19.4437 45.0344 20.1991 45.3209 20.9023L45.1647 20.8502Z" fill="#E45412"/>
<path d="M5.96465 21.3712C5.96465 22.3349 5.18326 23.1163 4.21954 23.1163C3.25581 23.1163 2.47442 22.3349 2.47442 21.3712C2.42233 20.4335 3.15163 19.626 4.11535 19.574C4.16744 19.574 4.19349 19.574 4.24558 19.574C5.2093 19.626 5.96465 20.4074 5.96465 21.3712ZM4.74047 21.3712C4.48 21.1628 4.32372 20.9544 4.16744 20.9544C4.01116 20.9544 3.80279 21.2149 3.80279 21.3191C3.85488 21.5014 4.01116 21.6577 4.19349 21.7358C4.19349 21.7358 4.50605 21.5795 4.79256 21.3972L4.74047 21.3712Z" fill="#E45412"/>
<path d="M4.29767 33.1963C5.2614 33.2223 6.01674 33.9777 6.01674 34.9414C6.01674 35.9051 5.23535 36.6865 4.27163 36.6865C3.30791 36.6865 2.52651 35.9051 2.52651 34.9414C2.55256 33.9777 3.30791 33.1963 4.29767 33.1963ZM4.8186 34.9414C4.58419 34.7591 4.40186 34.5247 4.32372 34.5507C4.1414 34.6288 4.01116 34.7851 3.95907 34.9674C3.95907 35.0977 4.19349 35.3321 4.32372 35.3321C4.45395 35.3321 4.58419 35.1758 4.8186 34.9414Z" fill="#E45412"/>
<path d="M4.27163 15.094C5.23535 15.12 5.9907 15.9274 5.96465 16.8912C5.96465 16.9172 5.96465 16.9433 5.96465 16.9693C5.91256 17.907 5.15721 18.6623 4.19349 18.6884C3.22977 18.6623 2.47442 17.8809 2.47442 16.9172V16.8912C2.42233 15.9535 3.12558 15.146 4.06326 15.094C4.1414 15.094 4.21953 15.094 4.27163 15.094ZM4.79256 16.7349C4.50605 16.5265 4.32372 16.3442 4.19349 16.3442C4.01116 16.4223 3.90698 16.5786 3.85488 16.7609C3.85488 16.7609 4.0893 17.1516 4.21954 17.1516C4.34977 17.1516 4.50605 16.9693 4.79256 16.7349Z" fill="#E45412"/>
<path d="M2.55256 30.3572C2.60465 29.3935 3.41209 28.6642 4.37581 28.6902C5.33953 28.7423 6.06884 29.5498 6.04279 30.5135C5.9907 31.4512 5.2093 32.2065 4.24558 32.1805C3.28186 32.1544 2.52651 31.347 2.55256 30.3833C2.52651 30.3572 2.52651 30.3572 2.55256 30.3572ZM4.29767 29.8102C4.0893 30.0707 3.85488 30.253 3.88093 30.3833C3.90698 30.5135 4.11535 30.6958 4.27163 30.826C4.42791 30.9563 4.63628 30.5656 4.66233 30.4354C4.68837 30.3051 4.48 29.9926 4.29767 29.8102Z" fill="#E45412"/>
<path d="M5.96465 25.9293C5.96465 26.893 5.18326 27.6744 4.21954 27.6744C3.25581 27.6744 2.47442 26.893 2.47442 25.9293C2.44837 24.9916 3.20372 24.2363 4.1414 24.2102C4.16744 24.2102 4.21954 24.2102 4.24558 24.2102C5.2093 24.2102 5.96465 24.9656 5.96465 25.9293ZM4.27163 25.2521C4.03721 25.5647 3.82884 25.747 3.80279 25.9033C3.77674 26.0595 4.06326 26.2158 4.19349 26.346C4.32372 26.4763 4.55814 26.0856 4.61023 25.9033C4.66233 25.7209 4.50605 25.5647 4.32372 25.2521H4.27163Z" fill="#E45412"/>
</svg>
