<svg width="51" height="51" viewBox="0 0 51 51" fill="none" xmlns="http://www.w3.org/2000/svg">
<g clip-path="url(#clip0_2019_1999)">
<path d="M46.5646 50.5408H13.521C13.4952 50.522 13.4718 50.4893 13.4437 50.4846C11.2917 50.1567 9.78127 48.2974 9.84215 46.0072C9.89367 44.0379 9.84215 42.0638 9.86089 40.0921C9.87041 39.9578 9.83727 39.8239 9.76621 39.7095C9.69515 39.5952 9.58978 39.5061 9.46514 39.4552C8.35518 38.7925 7.17262 38.2 6.18676 37.3711C1.59704 33.4862 -0.369987 28.4726 0.559667 22.5271C1.40502 17.0662 4.4984 13.1134 9.4628 10.6429C9.59093 10.5982 9.70007 10.5113 9.77239 10.3964C9.8447 10.2816 9.8759 10.1456 9.86089 10.0107C9.84371 8.2029 9.84371 6.39511 9.86089 4.58732C9.85169 4.11428 9.90363 3.64203 10.0154 3.1823C10.5657 1.1942 12.1628 0.0514506 14.3242 0.0491089C22.5107 0.0475478 30.6934 0.0444255 38.8722 0.0397421C39.116 0.0306916 39.359 0.0743276 39.5845 0.167676C39.81 0.261024 40.0127 0.401891 40.1788 0.580674C43.337 3.75133 46.5014 6.91418 49.6721 10.0692C49.8624 10.2454 50.0123 10.4608 50.1113 10.7006C50.2104 10.9403 50.2562 11.1987 50.2458 11.4579C50.2317 22.929 50.2317 34.4034 50.2458 45.8808C50.2458 46.1595 50.2458 46.4405 50.22 46.7168C50.1293 47.8078 49.6098 48.8183 48.7752 49.5268C48.1265 50.0818 47.3561 50.3277 46.5646 50.5408ZM11.5329 9.76949C11.7413 9.72032 11.8958 9.68753 12.0504 9.64538C14.4829 8.97156 17.0405 8.88409 19.5134 9.39014C23.4942 10.2144 26.7726 12.2166 29.133 15.5137C32.9149 20.7965 33.3481 26.4353 30.5662 32.306C30.243 32.9921 30.2173 32.978 30.7512 33.5143C33.121 35.8864 35.5165 38.2328 37.8488 40.6401C38.6275 41.4291 39.0616 42.4946 39.0562 43.6031C39.0507 44.7117 38.6061 45.7728 37.8198 46.5542C37.0335 47.3356 35.9695 47.7734 34.861 47.7719C33.7525 47.7703 32.6897 47.3294 31.9056 46.5458C29.4703 44.1479 27.0505 41.7329 24.6464 39.3006C24.3536 39.0056 24.1523 38.9751 23.7776 39.1718C20.7007 40.8341 17.1536 41.4115 13.7083 40.811C12.9917 40.6916 12.2822 40.5183 11.5727 40.3684C11.5575 40.4136 11.5458 40.4597 11.5375 40.5066C11.5375 42.3308 11.5844 44.1573 11.5188 45.9791C11.4532 47.801 12.7576 48.8875 14.4178 48.8829C24.836 48.8524 35.2589 48.8688 45.6771 48.8665C47.5505 48.8665 48.5504 47.8759 48.5504 46.019V11.8302H47.8947C45.6771 11.8302 43.4572 11.8302 41.2396 11.8302C39.4693 11.8302 38.4671 10.8069 38.4647 9.0342C38.4647 6.78305 38.4647 4.5319 38.4647 2.28075V1.72811H14.385C14.2703 1.72811 14.1509 1.72811 14.0385 1.72811C13.7082 1.72933 13.3815 1.79571 13.0769 1.92344C12.7723 2.05117 12.496 2.23774 12.2637 2.47246C12.0313 2.70717 11.8476 2.98543 11.723 3.29127C11.5984 3.59712 11.5354 3.92455 11.5375 4.2548C11.5188 5.01116 11.5375 5.76753 11.5375 6.5239L11.5329 9.76949ZM16.3263 39.3404C24.0961 39.4294 30.6107 33.0179 30.6247 25.1123C30.6389 23.2305 30.2804 21.3645 29.5699 19.6219C28.8594 17.8794 27.8109 16.2947 26.485 14.9594C25.159 13.6241 23.5817 12.5645 21.8442 11.8417C20.1067 11.1189 18.2433 10.7473 16.3614 10.7483C8.51675 10.6828 2.05367 17.0709 2.03728 25.0537C2.03357 26.9311 2.40066 28.7908 3.11747 30.5259C3.83427 32.2611 4.88669 33.8376 6.21432 35.1651C7.54195 36.4925 9.11865 37.5446 10.8539 38.2611C12.5892 38.9777 14.4489 39.3444 16.3263 39.3404ZM25.8102 38.0736C25.8558 38.1299 25.9042 38.1838 25.9554 38.2352L32.7463 45.0261C32.8868 45.1639 33.0371 45.2914 33.1959 45.4078C33.7152 45.7792 34.3557 45.9405 34.989 45.8593C35.6222 45.7781 36.2014 45.4603 36.6101 44.9699C37.4789 43.9114 37.3711 42.5369 36.3127 41.469C34.0553 39.1976 31.7917 36.934 29.5218 34.6781C29.4663 34.6259 29.4068 34.5781 29.3438 34.5353L25.8102 38.0736ZM47.0868 10.1325L40.1484 3.19869C40.1484 5.13293 40.1484 7.17957 40.1484 9.23558C40.1484 9.79057 40.4505 10.1231 40.9914 10.1254C43.0638 10.1442 45.1315 10.1325 47.0868 10.1325Z" fill="#E45412"/>
<path d="M46.5646 50.5408H13.521C13.4952 50.522 13.4718 50.4893 13.4437 50.4846C11.2917 50.1567 9.78127 48.2974 9.84215 46.0072C9.89367 44.0379 9.84215 42.0638 9.86089 40.0921C9.87041 39.9578 9.83727 39.8239 9.76621 39.7095C9.69515 39.5952 9.58978 39.5061 9.46514 39.4552C8.35518 38.7925 7.17262 38.2 6.18676 37.3711C1.59704 33.4862 -0.369987 28.4726 0.559667 22.5271C1.40502 17.0662 4.4984 13.1134 9.4628 10.6429C9.59093 10.5982 9.70007 10.5113 9.77239 10.3964C9.8447 10.2816 9.8759 10.1456 9.86089 10.0107C9.84371 8.2029 9.84371 6.39511 9.86089 4.58732C9.85169 4.11428 9.90363 3.64203 10.0154 3.1823C10.5657 1.1942 12.1628 0.0514506 14.3242 0.0491089C22.5107 0.0475478 30.6934 0.0444255 38.8722 0.0397421C39.116 0.0306916 39.359 0.0743276 39.5845 0.167676C39.81 0.261024 40.0127 0.401891 40.1788 0.580674C43.337 3.75133 46.5014 6.91418 49.6721 10.0692C49.8624 10.2454 50.0123 10.4608 50.1113 10.7006C50.2104 10.9403 50.2562 11.1987 50.2458 11.4579C50.2317 22.929 50.2317 34.4034 50.2458 45.8808C50.2458 46.1595 50.2458 46.4405 50.22 46.7168C50.1293 47.8078 49.6098 48.8183 48.7752 49.5268C48.1265 50.0818 47.3561 50.3277 46.5646 50.5408ZM11.5329 9.76949C11.7413 9.72032 11.8958 9.68753 12.0504 9.64538C14.4829 8.97156 17.0405 8.88409 19.5134 9.39014C23.4942 10.2144 26.7726 12.2166 29.133 15.5137C32.9149 20.7965 33.3481 26.4353 30.5662 32.306C30.243 32.9921 30.2173 32.978 30.7512 33.5143C33.121 35.8864 35.5165 38.2328 37.8488 40.6401C38.6275 41.4291 39.0616 42.4946 39.0562 43.6031C39.0507 44.7117 38.6061 45.7728 37.8198 46.5542C37.0335 47.3356 35.9695 47.7734 34.861 47.7719C33.7525 47.7703 32.6897 47.3294 31.9056 46.5458C29.4703 44.1479 27.0505 41.7329 24.6464 39.3006C24.3536 39.0056 24.1523 38.9751 23.7776 39.1718C20.7007 40.8341 17.1536 41.4115 13.7083 40.811C12.9917 40.6916 12.2822 40.5183 11.5727 40.3684C11.5575 40.4136 11.5458 40.4597 11.5375 40.5066C11.5375 42.3308 11.5844 44.1573 11.5188 45.9791C11.4532 47.801 12.7576 48.8875 14.4178 48.8829C24.836 48.8524 35.2589 48.8688 45.6771 48.8665C47.5505 48.8665 48.5504 47.8759 48.5504 46.019V11.8302H47.8947C45.6771 11.8302 43.4572 11.8302 41.2396 11.8302C39.4693 11.8302 38.4671 10.8069 38.4647 9.0342C38.4647 6.78305 38.4647 4.5319 38.4647 2.28075V1.72811H14.385C14.2703 1.72811 14.1509 1.72811 14.0385 1.72811C13.7082 1.72933 13.3815 1.79571 13.0769 1.92344C12.7723 2.05117 12.496 2.23774 12.2637 2.47246C12.0313 2.70717 11.8476 2.98543 11.723 3.29127C11.5984 3.59712 11.5354 3.92455 11.5375 4.2548C11.5188 5.01116 11.5375 5.76753 11.5375 6.5239L11.5329 9.76949ZM16.3263 39.3404C24.0961 39.4294 30.6107 33.0179 30.6247 25.1123C30.6389 23.2305 30.2804 21.3645 29.5699 19.6219C28.8594 17.8794 27.8109 16.2947 26.485 14.9594C25.159 13.6241 23.5817 12.5645 21.8442 11.8417C20.1067 11.1189 18.2433 10.7473 16.3614 10.7483C8.51675 10.6828 2.05367 17.0709 2.03728 25.0537C2.03357 26.9311 2.40066 28.7908 3.11747 30.5259C3.83427 32.2611 4.88669 33.8376 6.21432 35.1651C7.54195 36.4925 9.11865 37.5446 10.8539 38.2611C12.5892 38.9777 14.4489 39.3444 16.3263 39.3404ZM25.8102 38.0736C25.8558 38.1299 25.9042 38.1838 25.9554 38.2352L32.7463 45.0261C32.8868 45.1639 33.0371 45.2914 33.1959 45.4078C33.7152 45.7792 34.3557 45.9405 34.989 45.8593C35.6222 45.7781 36.2014 45.4603 36.6101 44.9699C37.4789 43.9114 37.3711 42.5369 36.3127 41.469C34.0553 39.1976 31.7917 36.934 29.5218 34.6781C29.4663 34.6259 29.4068 34.5781 29.3438 34.5353L25.8102 38.0736ZM47.0868 10.1325L40.1484 3.19869C40.1484 5.13293 40.1484 7.17957 40.1484 9.23558C40.1484 9.79057 40.4505 10.1231 40.9914 10.1254C43.0638 10.1442 45.1315 10.1325 47.0868 10.1325Z" fill="#E45412"/>
<path d="M24.9906 6.77445H16.2162C16.0523 6.77445 15.8884 6.77445 15.7245 6.77445C15.5174 6.77222 15.3187 6.69211 15.168 6.55005C15.0173 6.40799 14.9255 6.21439 14.9111 6.00778C14.8966 5.80116 14.9605 5.59668 15.0899 5.435C15.2194 5.27333 15.405 5.16632 15.6098 5.13526C15.7713 5.10718 15.9353 5.09542 16.0992 5.10013C22.0315 5.10013 27.9638 5.10013 33.8961 5.10013C34.1087 5.09506 34.3209 5.1211 34.526 5.17741C34.7033 5.22484 34.857 5.33567 34.958 5.4889C35.059 5.64212 35.1002 5.82709 35.0739 6.00871C35.0703 6.19257 35.0007 6.36898 34.8777 6.50571C34.7547 6.64244 34.5867 6.73035 34.4042 6.75337C34.2086 6.77929 34.0112 6.78869 33.8141 6.78147L24.9906 6.77445Z" fill="#E45412"/>
<path d="M24.9906 6.77445H16.2162C16.0523 6.77445 15.8884 6.77445 15.7245 6.77445C15.5174 6.77222 15.3187 6.69211 15.168 6.55005C15.0173 6.40799 14.9255 6.21439 14.9111 6.00778C14.8966 5.80116 14.9605 5.59668 15.0899 5.435C15.2194 5.27333 15.405 5.16632 15.6098 5.13526C15.7713 5.10718 15.9353 5.09542 16.0992 5.10013C22.0315 5.10013 27.9638 5.10013 33.8961 5.10013C34.1087 5.09506 34.3209 5.1211 34.526 5.17741C34.7033 5.22484 34.857 5.33567 34.958 5.4889C35.059 5.64212 35.1002 5.82709 35.0739 6.00871C35.0703 6.19257 35.0007 6.36898 34.8777 6.50571C34.7547 6.64244 34.5867 6.73035 34.4042 6.75337C34.2086 6.77929 34.0112 6.78869 33.8141 6.78147L24.9906 6.77445Z" fill="#E45412"/>
<path d="M38.0526 16.886H32.1866C32.0555 16.886 31.922 16.886 31.7932 16.886C31.2429 16.8369 30.8846 16.4926 30.894 16.029C30.9034 15.5653 31.2546 15.2234 31.8307 15.2141C32.7486 15.1977 33.6689 15.2141 34.5892 15.2141H43.956C44.806 15.2141 45.2041 15.4904 45.1947 16.0641C45.1854 16.6378 44.7779 16.8978 43.9279 16.8978C41.9624 16.8931 40.004 16.8892 38.0526 16.886Z" fill="#E45412"/>
<path d="M38.0526 16.886H32.1866C32.0555 16.886 31.922 16.886 31.7932 16.886C31.2429 16.8369 30.8846 16.4926 30.894 16.029C30.9034 15.5653 31.2546 15.2234 31.8307 15.2141C32.7486 15.1977 33.6689 15.2141 34.5892 15.2141H43.956C44.806 15.2141 45.2041 15.4904 45.1947 16.0641C45.1854 16.6378 44.7779 16.8978 43.9279 16.8978C41.9624 16.8931 40.004 16.8892 38.0526 16.886Z" fill="#E45412"/>
<path d="M38.9237 32.0205H33.8C33.6201 32.0284 33.4398 32.0197 33.2615 31.9947C33.0791 31.9714 32.9111 31.8839 32.7875 31.7478C32.6639 31.6118 32.5928 31.4361 32.5871 31.2524C32.5613 31.0702 32.603 30.8849 32.7044 30.7314C32.8057 30.5778 32.9597 30.4666 33.1373 30.4187C33.3422 30.3613 33.5546 30.3353 33.7673 30.3415C37.1815 30.3415 40.5964 30.3415 44.0122 30.3415C44.1764 30.3378 44.3405 30.352 44.5016 30.3836C44.6999 30.4111 44.8802 30.513 45.006 30.6688C45.1317 30.8245 45.1933 31.0223 45.1784 31.2219C45.1754 31.4301 45.0917 31.629 44.9449 31.7767C44.7981 31.9243 44.5997 32.0092 44.3915 32.0134C44.1574 32.0345 43.8998 32.0251 43.6539 32.0251L38.9237 32.0205Z" fill="#E45412"/>
<path d="M38.9237 32.0205H33.8C33.6201 32.0284 33.4398 32.0197 33.2615 31.9947C33.0791 31.9714 32.9111 31.8839 32.7875 31.7478C32.6639 31.6118 32.5928 31.4361 32.5871 31.2524C32.5613 31.0702 32.603 30.8849 32.7044 30.7314C32.8057 30.5778 32.9597 30.4666 33.1373 30.4187C33.3422 30.3613 33.5546 30.3353 33.7673 30.3415C37.1815 30.3415 40.5964 30.3415 44.0122 30.3415C44.1764 30.3378 44.3405 30.352 44.5016 30.3836C44.6999 30.4111 44.8802 30.513 45.006 30.6688C45.1317 30.8245 45.1933 31.0223 45.1784 31.2219C45.1754 31.4301 45.0917 31.629 44.9449 31.7767C44.7981 31.9243 44.5997 32.0092 44.3915 32.0134C44.1574 32.0345 43.8998 32.0251 43.6539 32.0251L38.9237 32.0205Z" fill="#E45412"/>
<path d="M39.3101 25.2903H43.9935C44.1411 25.2844 44.289 25.2891 44.436 25.3044C44.6445 25.322 44.8385 25.4178 44.9793 25.5725C45.12 25.7272 45.1971 25.9294 45.195 26.1386C45.193 26.3478 45.1119 26.5484 44.9681 26.7003C44.8243 26.8522 44.6284 26.9441 44.4196 26.9576C44.2894 26.9658 44.1588 26.9658 44.0286 26.9576H34.5681C34.4698 26.9576 34.3714 26.9576 34.2731 26.9576C34.052 26.962 33.8382 26.8783 33.6788 26.725C33.5194 26.5718 33.4274 26.3615 33.423 26.1404C33.4187 25.9193 33.5024 25.7055 33.6556 25.5461C33.8089 25.3867 34.0192 25.2947 34.2403 25.2903C34.4041 25.2821 34.5682 25.2821 34.732 25.2903H39.3101Z" fill="#E45412"/>
<path d="M39.3101 25.2903H43.9935C44.1411 25.2844 44.289 25.2891 44.436 25.3044C44.6445 25.322 44.8385 25.4178 44.9793 25.5725C45.12 25.7272 45.1971 25.9294 45.195 26.1386C45.193 26.3478 45.1119 26.5484 44.9681 26.7003C44.8243 26.8522 44.6284 26.9441 44.4196 26.9576C44.2894 26.9658 44.1588 26.9658 44.0286 26.9576H34.5681C34.4698 26.9576 34.3714 26.9576 34.2731 26.9576C34.052 26.962 33.8382 26.8783 33.6788 26.725C33.5194 26.5718 33.4274 26.3615 33.423 26.1404C33.4187 25.9193 33.5024 25.7055 33.6556 25.5461C33.8089 25.3867 34.0192 25.2947 34.2403 25.2903C34.4041 25.2821 34.5682 25.2821 34.732 25.2903H39.3101Z" fill="#E45412"/>
<path d="M39.3686 20.2533C40.961 20.2533 42.5533 20.2392 44.1457 20.2673C44.4486 20.2734 44.7407 20.3815 44.9746 20.5741C45.0635 20.6664 45.1281 20.7793 45.1625 20.9027C45.1969 21.0261 45.2 21.1561 45.1717 21.2811C45.1434 21.406 45.0844 21.522 45.0001 21.6185C44.9159 21.715 44.8089 21.789 44.6889 21.8339C44.4883 21.9046 44.2763 21.9372 44.0637 21.9299C40.8962 21.9299 37.7286 21.9299 34.5611 21.9299C34.4465 21.9381 34.3315 21.9381 34.2169 21.9299C34.1059 21.9237 33.9974 21.8954 33.8976 21.8465C33.7978 21.7977 33.7088 21.7293 33.6359 21.6455C33.563 21.5616 33.5076 21.4641 33.4731 21.3585C33.4385 21.2529 33.4255 21.1414 33.4347 21.0307C33.4398 20.9235 33.4662 20.8184 33.5126 20.7216C33.5589 20.6248 33.6241 20.5383 33.7045 20.4671C33.7848 20.3959 33.8786 20.3416 33.9803 20.3073C34.0819 20.273 34.1895 20.2594 34.2965 20.2673C35.0856 20.2509 35.8725 20.2673 36.6616 20.2673L39.3686 20.2533Z" fill="#E45412"/>
<path d="M39.3686 20.2533C40.961 20.2533 42.5533 20.2392 44.1457 20.2673C44.4486 20.2734 44.7407 20.3815 44.9746 20.5741C45.0635 20.6664 45.1281 20.7793 45.1625 20.9027C45.1969 21.0261 45.2 21.1561 45.1717 21.2811C45.1434 21.406 45.0844 21.522 45.0001 21.6185C44.9159 21.715 44.8089 21.789 44.6889 21.8339C44.4883 21.9046 44.2763 21.9372 44.0637 21.9299C40.8962 21.9299 37.7286 21.9299 34.5611 21.9299C34.4465 21.9381 34.3315 21.9381 34.2169 21.9299C34.1059 21.9237 33.9974 21.8954 33.8976 21.8465C33.7978 21.7977 33.7088 21.7293 33.6359 21.6455C33.563 21.5616 33.5076 21.4641 33.4731 21.3585C33.4385 21.2529 33.4255 21.1414 33.4347 21.0307C33.4398 20.9235 33.4662 20.8184 33.5126 20.7216C33.5589 20.6248 33.6241 20.5383 33.7045 20.4671C33.7848 20.3959 33.8786 20.3416 33.9803 20.3073C34.0819 20.273 34.1895 20.2594 34.2965 20.2673C35.0856 20.2509 35.8725 20.2673 36.6616 20.2673L39.3686 20.2533Z" fill="#E45412"/>
<path d="M46.8714 43.1106C46.8714 43.6047 46.8714 44.0964 46.8714 44.5882C46.841 46.0588 45.8504 47.1149 44.3845 47.164C43.2863 47.2038 42.1857 47.1851 41.0874 47.164C40.5114 47.164 40.1507 46.7847 40.1507 46.2953C40.1507 45.8059 40.5207 45.4991 41.0874 45.4944C42.0709 45.4944 43.0568 45.4944 44.0426 45.4944C44.902 45.4944 45.183 45.204 45.1854 44.3236C45.1854 43.3541 45.1854 42.387 45.1854 41.4175C45.1854 40.9679 45.3446 40.6049 45.813 40.4808C46.3492 40.331 46.8129 40.6939 46.8597 41.2794C46.8597 41.3121 46.8597 41.3449 46.8597 41.3777L46.8714 43.1106Z" fill="#E45412"/>
<path d="M46.8714 43.1106C46.8714 43.6047 46.8714 44.0964 46.8714 44.5882C46.841 46.0588 45.8504 47.1149 44.3845 47.164C43.2863 47.2038 42.1857 47.1851 41.0874 47.164C40.5114 47.164 40.1507 46.7847 40.1507 46.2953C40.1507 45.8059 40.5207 45.4991 41.0874 45.4944C42.0709 45.4944 43.0568 45.4944 44.0426 45.4944C44.902 45.4944 45.183 45.204 45.1854 44.3236C45.1854 43.3541 45.1854 42.387 45.1854 41.4175C45.1854 40.9679 45.3446 40.6049 45.813 40.4808C46.3492 40.331 46.8129 40.6939 46.8597 41.2794C46.8597 41.3121 46.8597 41.3449 46.8597 41.3777L46.8714 43.1106Z" fill="#E45412"/>
<path d="M40.5488 37.0714C39.3335 37.0714 38.1181 37.0855 36.9028 37.0714C36.1722 37.0714 35.7156 36.4603 36.0457 35.9146C36.2483 35.6532 36.5401 35.4756 36.8653 35.4159C37.2897 35.3658 37.718 35.3579 38.1439 35.3924C40.0641 35.3924 41.9858 35.3924 43.9091 35.3924C44.122 35.3868 44.3349 35.4049 44.5438 35.4463C44.7343 35.4754 44.9064 35.5767 45.0241 35.7294C45.1419 35.882 45.1963 36.0742 45.176 36.2659C45.1869 36.4587 45.1207 36.648 44.992 36.792C44.8633 36.9361 44.6827 37.0231 44.4899 37.034C43.9185 37.0808 43.3425 37.0714 42.7664 37.0738C42.0288 37.0738 41.2888 37.0738 40.5488 37.0738V37.0714Z" fill="#E45412"/>
<path d="M40.5488 37.0714C39.3335 37.0714 38.1181 37.0855 36.9028 37.0714C36.1722 37.0714 35.7156 36.4603 36.0457 35.9146C36.2483 35.6532 36.5401 35.4756 36.8653 35.4159C37.2897 35.3658 37.718 35.3579 38.1439 35.3924C40.0641 35.3924 41.9858 35.3924 43.9091 35.3924C44.122 35.3868 44.3349 35.4049 44.5438 35.4463C44.7343 35.4754 44.9064 35.5767 45.0241 35.7294C45.1419 35.882 45.1963 36.0742 45.176 36.2659C45.1869 36.4587 45.1207 36.648 44.992 36.792C44.8633 36.9361 44.6827 37.0231 44.4899 37.034C43.9185 37.0808 43.3425 37.0714 42.7664 37.0738C42.0288 37.0738 41.2888 37.0738 40.5488 37.0738V37.0714Z" fill="#E45412"/>
<path d="M30.8776 11.8278H27.7257C27.3042 11.8278 26.9365 11.7294 26.7539 11.3056C26.7066 11.1957 26.6843 11.0766 26.6886 10.957C26.693 10.8375 26.7238 10.7203 26.7789 10.6141C26.834 10.5079 26.9121 10.4153 27.0074 10.3429C27.1027 10.2705 27.2128 10.2202 27.3299 10.1956C27.5062 10.1585 27.6861 10.1412 27.8662 10.1441C29.8847 10.1441 31.9041 10.1441 33.9242 10.1441C33.9733 10.1441 34.0225 10.1441 34.0717 10.1441C34.7039 10.1722 35.0833 10.486 35.0856 10.9871C35.088 11.4883 34.7157 11.8184 34.0811 11.8255C33.0179 11.8348 31.9454 11.8278 30.8776 11.8278Z" fill="#E45412"/>
<path d="M30.8776 11.8278H27.7257C27.3042 11.8278 26.9365 11.7294 26.7539 11.3056C26.7066 11.1957 26.6843 11.0766 26.6886 10.957C26.693 10.8375 26.7238 10.7203 26.7789 10.6141C26.834 10.5079 26.9121 10.4153 27.0074 10.3429C27.1027 10.2705 27.2128 10.2202 27.3299 10.1956C27.5062 10.1585 27.6861 10.1412 27.8662 10.1441C29.8847 10.1441 31.9041 10.1441 33.9242 10.1441C33.9733 10.1441 34.0225 10.1441 34.0717 10.1441C34.7039 10.1722 35.0833 10.486 35.0856 10.9871C35.088 11.4883 34.7157 11.8184 34.0811 11.8255C33.0179 11.8348 31.9454 11.8278 30.8776 11.8278Z" fill="#E45412"/>
<path d="M16.2771 37.671C9.44172 37.7319 3.73032 32.0509 3.71627 25.1359C3.70877 23.4617 4.03382 21.8026 4.67255 20.255C5.31128 18.7074 6.25097 17.3021 7.43712 16.1205C8.62326 14.9389 10.0322 14.0047 11.5823 13.3719C13.1324 12.7392 14.7926 12.4206 16.4668 12.4345C23.0657 12.4345 28.8099 18.0827 28.941 24.6839C28.9868 26.3747 28.6929 28.0574 28.0767 29.6325C27.4606 31.2076 26.5347 32.6431 25.3539 33.854C24.1731 35.0649 22.7614 36.0266 21.2023 36.6823C19.6432 37.3379 17.9685 37.6741 16.2771 37.671ZM16.2982 35.985C19.183 35.9968 21.9549 34.8649 24.0068 32.8371C26.0587 30.8094 27.2234 28.0511 27.2456 25.1663C27.2784 19.0217 22.4803 14.1838 16.3216 14.1416C10.3456 14.0971 5.44913 18.9983 5.41634 25.0563C5.41075 27.9483 6.55393 30.7243 8.59455 32.7736C10.6352 34.823 13.4061 35.9781 16.2982 35.985Z" fill="#E45412"/>
<path d="M16.2771 37.671C9.44172 37.7319 3.73032 32.0509 3.71627 25.1359C3.70877 23.4617 4.03382 21.8026 4.67255 20.255C5.31128 18.7074 6.25097 17.3021 7.43712 16.1205C8.62326 14.9389 10.0322 14.0047 11.5823 13.3719C13.1324 12.7392 14.7926 12.4206 16.4668 12.4345C23.0657 12.4345 28.8099 18.0827 28.941 24.6839C28.9868 26.3747 28.6929 28.0574 28.0767 29.6325C27.4606 31.2076 26.5347 32.6431 25.3539 33.854C24.1731 35.0649 22.7614 36.0266 21.2023 36.6823C19.6432 37.3379 17.9685 37.6741 16.2771 37.671ZM16.2982 35.985C19.183 35.9968 21.9549 34.8649 24.0068 32.8371C26.0587 30.8094 27.2234 28.0511 27.2456 25.1663C27.2784 19.0217 22.4803 14.1838 16.3216 14.1416C10.3456 14.0971 5.44913 18.9983 5.41634 25.0563C5.41075 27.9483 6.55393 30.7243 8.59455 32.7736C10.6352 34.823 13.4061 35.9781 16.2982 35.985Z" fill="#E45412"/>
<path d="M16.1319 26.1403H10.3175C10.17 26.1403 10.0201 26.1403 9.87493 26.1403C9.34805 26.0888 9.00851 25.7586 9.00851 25.3067C9.00851 24.8547 9.34805 24.5246 9.87259 24.473C10.0178 24.459 10.1676 24.473 10.3152 24.473H21.9956C22.2249 24.4646 22.4544 24.4834 22.6793 24.5292C22.8538 24.5742 23.0083 24.676 23.1187 24.8184C23.229 24.9608 23.2889 25.1359 23.2889 25.3161C23.2889 25.4962 23.229 25.6713 23.1187 25.8137C23.0083 25.9561 22.8538 26.0579 22.6793 26.1029C22.4707 26.1463 22.2577 26.1652 22.0447 26.1591L16.1319 26.1403Z" fill="#E45412"/>
<path d="M16.1319 26.1403H10.3175C10.17 26.1403 10.0201 26.1403 9.87493 26.1403C9.34805 26.0888 9.00851 25.7586 9.00851 25.3067C9.00851 24.8547 9.34805 24.5246 9.87259 24.473C10.0178 24.459 10.1676 24.473 10.3152 24.473H21.9956C22.2249 24.4646 22.4544 24.4834 22.6793 24.5292C22.8538 24.5742 23.0083 24.676 23.1187 24.8184C23.229 24.9608 23.2889 25.1359 23.2889 25.3161C23.2889 25.4962 23.229 25.6713 23.1187 25.8137C23.0083 25.9561 22.8538 26.0579 22.6793 26.1029C22.4707 26.1463 22.2577 26.1652 22.0447 26.1591L16.1319 26.1403Z" fill="#E45412"/>
<path d="M16.1577 21.0753C15.2374 21.0753 14.3195 21.0753 13.3992 21.0753C12.7622 21.0753 12.3876 20.7592 12.3829 20.2533C12.3782 19.7475 12.7552 19.4033 13.3781 19.3986C15.2359 19.3893 17.0913 19.3893 18.9443 19.3986C19.5649 19.3986 19.9442 19.7522 19.9349 20.258C19.9255 20.7638 19.5602 21.0753 18.9139 21.0753C17.9936 21.0753 17.0733 21.0753 16.1577 21.0753Z" fill="#E45412"/>
<path d="M16.1577 21.0753C15.2374 21.0753 14.3195 21.0753 13.3992 21.0753C12.7622 21.0753 12.3876 20.7592 12.3829 20.2533C12.3782 19.7475 12.7552 19.4033 13.3781 19.3986C15.2359 19.3893 17.0913 19.3893 18.9443 19.3986C19.5649 19.3986 19.9442 19.7522 19.9349 20.258C19.9255 20.7638 19.5602 21.0753 18.9139 21.0753C17.9936 21.0753 17.0733 21.0753 16.1577 21.0753Z" fill="#E45412"/>
<path d="M16.1577 29.5053C17.078 29.5053 17.9959 29.5053 18.9162 29.5053C19.5649 29.5053 19.9255 29.8097 19.9372 30.3202C19.9489 30.8307 19.5696 31.1773 18.9467 31.182C17.092 31.182 15.2374 31.1937 13.3828 31.182C12.6241 31.182 12.1862 30.5919 12.4625 29.9971C12.5412 29.8337 12.6686 29.6988 12.8271 29.6108C12.9856 29.5227 13.1674 29.4859 13.3477 29.5053C14.2843 29.5053 15.221 29.5053 16.1577 29.5053Z" fill="#E45412"/>
<path d="M16.1577 29.5053C17.078 29.5053 17.9959 29.5053 18.9162 29.5053C19.5649 29.5053 19.9255 29.8097 19.9372 30.3202C19.9489 30.8307 19.5696 31.1773 18.9467 31.182C17.092 31.182 15.2374 31.1937 13.3828 31.182C12.6241 31.182 12.1862 30.5919 12.4625 29.9971C12.5412 29.8337 12.6686 29.6988 12.8271 29.6108C12.9856 29.5227 13.1674 29.4859 13.3477 29.5053C14.2843 29.5053 15.221 29.5053 16.1577 29.5053Z" fill="#E45412"/>
</g>
<defs>
<clipPath id="clip0_2019_1999">
<rect width="50.5806" height="50.5806" fill="white"/>
</clipPath>
</defs>
</svg>
