<svg width="55" height="55" viewBox="0 0 55 55" fill="none" xmlns="http://www.w3.org/2000/svg">
<path d="M34.379 40.1277C32.7048 41.0409 30.8769 41.6385 28.9865 41.8906C25.8109 42.311 22.5853 41.6732 19.8087 40.0758C19.5441 39.8883 19.2351 39.7729 18.9124 39.7411C18.5896 39.7092 18.2641 39.7621 17.9679 39.8944C17.7346 39.8944 17.5791 40.1277 17.6828 40.4647C17.7847 40.8585 17.7757 41.2728 17.6567 41.6617C17.5378 42.0507 17.3135 42.3991 17.0087 42.6684L8.91979 50.6795C8.20813 51.3878 7.24427 51.7843 6.24026 51.7818C5.23624 51.7794 4.27432 51.3782 3.56609 50.6666C2.85786 49.9549 2.46135 48.991 2.46378 47.987C2.46621 46.983 2.86739 46.0211 3.57905 45.3129C6.17164 42.7203 8.91979 39.9981 11.5642 37.3018C11.8336 36.997 12.182 36.7727 12.571 36.6537C12.9599 36.5347 13.3742 36.5257 13.7679 36.6277C14.105 36.6277 14.2346 36.6277 14.3383 36.3425C14.4835 36.076 14.5596 35.7774 14.5596 35.474C14.5596 35.1705 14.4835 34.8719 14.3383 34.6055C13.4554 33.1313 12.8573 31.5043 12.5753 29.8092C11.9819 26.5644 12.4931 23.2144 14.0272 20.2943V20.0351C14.0272 20.0351 14.0272 20.0351 14.0272 19.8795C12.2456 20.6016 10.2955 20.8021 8.4042 20.4579C6.51294 20.1136 4.75857 19.2386 3.34572 17.9351C2.27453 16.9953 1.42057 15.8337 0.843067 14.531C0.26556 13.2282 -0.0216769 11.8155 0.0012747 10.3906C-0.00149802 8.97249 0.286628 7.56884 0.847844 6.26645C1.40906 4.96406 2.23144 3.79062 3.26414 2.81867C4.29684 1.84671 5.51792 1.0969 6.8519 0.61557C8.18588 0.134245 9.60441 -0.0683612 11.0198 0.0202765C12.6341 0.15338 14.1947 0.662771 15.5767 1.50763C16.9587 2.35249 18.1236 3.50932 18.9779 4.88542C19.8323 6.26152 20.3525 7.81863 20.4968 9.43196C20.641 11.0453 20.4054 12.67 19.8087 14.1758C22.0422 12.9388 24.5536 12.2897 27.1068 12.2897C29.6601 12.2897 32.1714 12.9388 34.405 14.1758C33.3959 11.6814 33.3959 8.89247 34.405 6.39805C35.1123 4.80099 36.2116 3.40845 37.6008 2.34967C38.99 1.29088 40.6242 0.600137 42.3516 0.341537C44.0791 0.0829365 45.8439 0.264854 47.4822 0.870411C49.1206 1.47597 50.5795 2.48554 51.7235 3.80546C53.0908 5.57955 53.8469 7.74862 53.8788 9.98822C53.9107 12.2278 53.2167 14.4175 51.9005 16.2298C50.5843 18.0422 48.7167 19.3796 46.5771 20.0422C44.4375 20.7047 42.141 20.6568 40.0309 19.9055C41.2679 22.1437 41.9168 24.6592 41.9168 27.2166C41.9168 29.7739 41.2679 32.2894 40.0309 34.5277C41.3918 33.9721 42.8572 33.7191 44.3256 33.7863C45.7939 33.8534 47.2301 34.2391 48.5346 34.9166C50.5302 35.9119 52.1361 37.5452 53.0976 39.5573C53.8998 41.1133 54.2951 42.847 54.2466 44.597C54.1981 46.3469 53.7074 48.0561 52.8202 49.5652C51.933 51.0744 50.6782 52.3344 49.1727 53.2278C47.6673 54.1213 45.9601 54.619 44.2104 54.6748C42.4607 54.7305 40.7253 54.3424 39.166 53.5466C37.6067 52.7508 36.2743 51.5732 35.2928 50.1236C34.3114 48.674 33.7129 46.9995 33.5531 45.2562C33.3933 43.5129 33.6775 41.7575 34.379 40.1536V40.1277ZM16.5939 38.9351C17.1249 38.488 17.7883 38.228 18.4817 38.1952C19.1751 38.1624 19.86 38.3586 20.4309 38.7536C22.9952 40.2294 25.9797 40.8044 28.9087 40.3869C31.7256 39.9974 34.3447 38.7186 36.3842 36.7368C38.4237 34.7551 39.7773 32.1739 40.2476 29.3693C40.7179 26.5647 40.2805 23.6831 38.9991 21.1445C37.7177 18.6058 35.6591 16.5425 33.1234 15.2553C30.5876 13.968 27.7071 13.5241 24.9014 13.988C22.0957 14.4519 19.5115 15.7995 17.5251 17.8346C15.5386 19.8696 14.2539 22.4856 13.8579 25.3017C13.4619 28.1178 13.9754 30.9867 15.3235 33.4906C15.7675 34.0861 16.0073 34.809 16.0073 35.5518C16.0073 36.2945 15.7675 37.0174 15.3235 37.6129L16.5939 38.9351ZM17.2161 15.3684C18.4687 13.6487 19.04 11.526 18.8198 9.40984C18.5995 7.29371 17.6034 5.33412 16.0235 3.90917C14.3386 2.37368 12.119 1.55981 9.84094 1.64221C7.56285 1.7246 5.40783 2.6967 3.83831 4.34991C2.45539 5.7883 1.62232 7.66719 1.48487 9.65781C1.34742 11.6484 1.91435 13.624 3.08646 15.2388C3.62747 14.3189 4.25236 13.451 4.95313 12.6462C5.76519 11.9623 6.63234 11.3466 7.54572 10.8055C7.15284 10.428 6.84027 9.97515 6.62675 9.47395C6.41323 8.97275 6.30316 8.43358 6.30316 7.88879C6.30316 7.34401 6.41323 6.80484 6.62675 6.30364C6.84027 5.80244 7.15284 5.34954 7.54572 4.97213C8.28036 4.30535 9.23694 3.93597 10.2291 3.93597C11.2212 3.93597 12.1777 4.30535 12.9124 4.97213C14.6494 6.50176 14.6753 8.65361 12.9124 10.9869C13.8896 11.3869 14.7751 11.9816 15.515 12.7349C16.2549 13.4882 16.8337 14.3842 17.2161 15.3684ZM50.9198 15.3684C52.1617 13.6862 52.7445 11.6074 52.5582 9.52479C52.3719 7.44215 51.4294 5.49982 49.9087 4.06472C48.2377 2.46971 46.0016 1.60372 43.6922 1.6572C41.3828 1.71068 39.1892 2.67926 37.5939 4.34991C36.192 5.78333 35.3362 7.66239 35.1752 9.66092C35.0142 11.6594 35.5581 13.6513 36.7124 15.2906C37.2717 14.3828 37.8955 13.5164 38.579 12.6981C39.3918 12.0151 40.2589 11.3995 41.1716 10.8573C40.7788 10.4799 40.4662 10.027 40.2527 9.5258C40.0391 9.0246 39.9291 8.48543 39.9291 7.94065C39.9291 7.39586 40.0391 6.85669 40.2527 6.35549C40.4662 5.85429 40.7788 5.40139 41.1716 5.02398C41.9005 4.36629 42.8473 4.00225 43.829 4.00225C44.8108 4.00225 45.7576 4.36629 46.4865 5.02398C48.2753 6.57954 48.3272 8.67954 46.4865 11.0647C47.4849 11.4329 48.3952 12.006 49.1588 12.7472C49.9223 13.4884 50.5222 14.3813 50.9198 15.3684ZM50.9198 49.0721C52.1626 47.3554 52.7305 45.2415 52.5153 43.1331C52.3002 41.0247 51.317 39.0691 49.7531 37.6388C48.1365 36.1354 46.0107 35.2997 43.8031 35.2997C41.5955 35.2997 39.4697 36.1354 37.8531 37.6388C36.3149 39.0767 35.3551 41.0273 35.1546 43.1235C34.9541 45.2196 35.5265 47.3167 36.7642 49.0203C37.1583 48.0335 37.7504 47.1379 38.504 46.3888C39.2575 45.6397 40.1566 45.0529 41.1457 44.6647C40.7539 44.3006 40.4378 43.8628 40.2153 43.3764C39.9928 42.89 39.8684 42.3645 39.8491 41.8299C39.8299 41.2954 39.9162 40.7623 40.103 40.2612C40.2899 39.76 40.5738 39.3006 40.9383 38.9092C41.6104 38.2318 42.5029 37.8176 43.4541 37.7415C44.4053 37.6654 45.3522 37.9325 46.1235 38.4944C46.9073 39.0716 47.4444 39.9234 47.6272 40.8795C47.7601 41.5581 47.718 42.2592 47.5048 42.917C47.2916 43.5747 46.9143 44.1673 46.4087 44.6388C47.4188 45.0244 48.3397 45.6118 49.1153 46.3651C49.8909 47.1184 50.5049 48.0218 50.9198 49.0203V49.0721ZM6.09387 50.3944C6.40346 50.3964 6.71023 50.3353 6.99549 50.215C7.28074 50.0946 7.53852 49.9175 7.75313 49.6943C10.4494 47.0326 13.1284 44.3536 15.7902 41.6573C16.2309 41.2166 16.2309 40.8795 15.7902 40.4129L13.9753 38.5981C13.3272 37.9499 13.042 37.9499 12.4198 38.5981L4.64201 46.3758C4.48207 46.5185 4.33461 46.6747 4.20127 46.8425C3.95345 47.1808 3.80366 47.5808 3.76835 47.9987C3.73304 48.4165 3.81357 48.836 4.00111 49.2111C4.18864 49.5862 4.47592 49.9023 4.8314 50.1248C5.18687 50.3472 5.59677 50.4674 6.01609 50.4721L6.09387 50.3944ZM10.2161 12.1277C8.95004 12.1278 7.71549 12.5224 6.68401 13.2565C5.65253 13.9906 4.87537 15.0278 4.46053 16.224C4.3828 16.3803 4.36629 16.5601 4.41426 16.7279C4.46223 16.8958 4.5712 17.0397 4.71979 17.1314C6.28735 18.4073 8.24676 19.1039 10.2679 19.1039C12.2891 19.1039 14.2485 18.4073 15.8161 17.1314C15.9417 17.0512 16.0343 16.9285 16.0771 16.7858C16.1199 16.6431 16.1101 16.4897 16.0494 16.3536C15.6526 15.1206 14.8731 14.0462 13.8242 13.2863C12.7752 12.5263 11.5114 12.1205 10.2161 12.1277ZM43.9198 19.2055C45.9406 19.1802 47.8943 18.4772 49.4679 17.2092C49.5906 17.1261 49.6825 17.0048 49.7294 16.8642C49.7763 16.7236 49.7755 16.5715 49.7272 16.4314C49.3426 15.1882 48.57 14.1009 47.5226 13.3286C46.4753 12.5563 45.2081 12.1396 43.9068 12.1396C42.6055 12.1396 41.3384 12.5563 40.291 13.3286C39.2437 14.1009 38.4711 15.1882 38.0865 16.4314C38.0418 16.5639 38.0431 16.7076 38.0901 16.8393C38.1372 16.971 38.2272 17.0831 38.3457 17.1573C39.9242 18.4103 41.8786 19.0952 43.8939 19.1018L43.9198 19.2055ZM43.9198 52.9092C45.9528 52.9084 47.9226 52.2029 49.4939 50.9129C49.612 50.8262 49.6987 50.7034 49.7408 50.5631C49.7829 50.4227 49.7781 50.2725 49.7272 50.1351C49.336 48.9018 48.5622 47.825 47.5181 47.0608C46.474 46.2966 45.2137 45.8847 43.9198 45.8847C42.6259 45.8847 41.3656 46.2966 40.3215 47.0608C39.2773 47.825 38.5036 48.9018 38.1124 50.1351C38.0466 50.2771 38.0367 50.4387 38.0848 50.5877C38.1328 50.7366 38.2353 50.862 38.3716 50.9388C39.9557 52.1451 41.9033 52.7761 43.8939 52.7277L43.9198 52.9092ZM43.9198 39.3499C43.407 39.3499 42.9058 39.502 42.4794 39.7868C42.0531 40.0717 41.7208 40.4766 41.5245 40.9504C41.3283 41.4241 41.277 41.9454 41.377 42.4483C41.477 42.9512 41.724 43.4132 42.0866 43.7757C42.4491 44.1383 42.9111 44.3852 43.414 44.4853C43.9169 44.5853 44.4382 44.534 44.9119 44.3377C45.3857 44.1415 45.7906 43.8092 46.0755 43.3829C46.3603 42.9565 46.5124 42.4553 46.5124 41.9425C46.5375 41.5849 46.4882 41.226 46.3675 40.8884C46.2469 40.5508 46.0576 40.2419 45.8115 39.9812C45.5654 39.7205 45.268 39.5137 44.9379 39.3738C44.6078 39.2339 44.2523 39.164 43.8939 39.1684L43.9198 39.3499ZM10.2161 10.8314C10.7289 10.8314 11.2301 10.6793 11.6565 10.3945C12.0828 10.1096 12.4151 9.70467 12.6113 9.23094C12.8076 8.7572 12.8589 8.23592 12.7589 7.73301C12.6588 7.23009 12.4119 6.76814 12.0493 6.40556C11.6867 6.04297 11.2248 5.79605 10.7219 5.69602C10.219 5.59598 9.69768 5.64732 9.22395 5.84355C8.75021 6.03978 8.3453 6.37208 8.06043 6.79843C7.77555 7.22478 7.6235 7.72603 7.6235 8.2388C7.70038 8.87565 8.01063 9.46139 8.49428 9.88278C8.97793 10.3042 9.60063 10.5313 10.242 10.5203L10.2161 10.8314ZM43.9198 10.8314C44.4379 10.8307 44.944 10.6748 45.3727 10.3838C45.8014 10.0928 46.1331 9.67998 46.3249 9.19865C46.5167 8.71732 46.56 8.18955 46.449 7.68342C46.338 7.1773 46.0779 6.71605 45.7022 6.35917C45.3265 6.00229 44.8526 5.76617 44.3414 5.68125C43.8303 5.59634 43.3054 5.66654 42.8345 5.88279C42.3637 6.09904 41.9684 6.45142 41.6997 6.89447C41.431 7.33753 41.3013 7.85092 41.3272 8.36842C41.4321 8.97715 41.751 9.5284 42.2263 9.92291C42.7016 10.3174 43.3021 10.5293 43.9198 10.5203V10.8314Z" fill="#E45412"/>
<path d="M4.25313 22.1092C4.74572 22.1092 5.00498 22.524 4.95313 23.0943C4.95313 24.5462 4.59016 25.9721 4.59016 27.424C4.59932 31.145 5.55388 34.8027 7.36424 38.0536C7.47465 38.2357 7.57003 38.4264 7.64942 38.624C7.72569 38.7765 7.74135 38.9522 7.69325 39.1157C7.64514 39.2793 7.53684 39.4186 7.39016 39.5055C7.31921 39.5613 7.23776 39.6023 7.15066 39.626C7.06355 39.6498 6.97256 39.6558 6.88309 39.6437C6.79362 39.6316 6.70749 39.6017 6.62982 39.5556C6.55214 39.5096 6.4845 39.4485 6.4309 39.3758C6.24942 39.1425 6.11979 38.8832 5.96424 38.6499C3.36917 33.9059 2.45544 28.4235 3.37164 23.0943C3.47535 22.4981 3.70868 22.1092 4.25313 22.1092Z" fill="#E45412"/>
<path d="M27.5865 51.224C23.1868 51.2924 18.8477 50.192 15.0124 48.0351C14.4939 47.724 14.3383 47.361 14.5198 46.9462C14.5714 46.8407 14.6462 46.7483 14.7386 46.6758C14.831 46.6033 14.9386 46.5527 15.0533 46.5278C15.1681 46.5028 15.287 46.5042 15.4011 46.5318C15.5152 46.5593 15.6217 46.6124 15.7124 46.6869C17.3405 47.6316 19.0832 48.3635 20.8976 48.8647C24.1611 49.7862 27.5898 49.9634 30.9309 49.3832C31.6309 49.3832 32.0716 49.6684 31.942 50.2388C31.8124 50.8092 31.5272 50.8092 31.1383 50.861L27.5865 51.224Z" fill="#E45412"/>
<path d="M31.0605 4.9462C30.0377 4.7986 29.0079 4.70341 27.9753 4.66102C26.4976 4.66102 24.9939 4.81657 23.4902 4.9462C22.6865 4.9462 22.2976 4.9462 22.2198 4.34991C22.142 3.75361 22.4791 3.57213 23.2828 3.4425C25.8583 3.02204 28.485 3.02204 31.0605 3.4425H31.3716C31.4699 3.45719 31.5638 3.49261 31.6473 3.54641C31.7307 3.60021 31.8018 3.67115 31.8558 3.75452C31.9097 3.83789 31.9453 3.93178 31.9602 4.02997C31.975 4.12815 31.9689 4.22837 31.942 4.32398C31.8124 4.8425 31.5013 4.99805 31.0605 4.9462Z" fill="#E45412"/>
<path d="M51.1791 27.1647C51.0494 28.5129 50.9198 29.7573 50.7642 31.1832C50.7642 31.8055 50.3753 32.0906 49.8828 32.0129C49.3902 31.9351 49.1828 31.5981 49.2865 31.0018C49.6365 28.7424 49.6365 26.4426 49.2865 24.1832C49.2865 23.8721 49.2865 23.561 49.2865 23.2758C49.2865 22.9906 49.442 22.3684 49.9087 22.3166C50.3754 22.2647 50.6865 22.524 50.7642 23.0943C50.9198 24.4425 51.0494 25.8166 51.1791 27.1647Z" fill="#E45412"/>
<path d="M27.042 15.7314C29.3106 15.7211 31.5312 16.3845 33.4225 17.6374C35.3138 18.8903 36.7906 20.6763 37.6659 22.7693C38.5412 24.8623 38.7755 27.168 38.3392 29.3943C37.9029 31.6206 36.8157 33.6673 35.2151 35.2751C33.6146 36.8829 31.5729 37.9794 29.3486 38.4258C27.1243 38.8722 24.8176 38.6483 22.7207 37.7825C20.6237 36.9167 18.831 35.448 17.5695 33.5624C16.308 31.6769 15.6346 29.4593 15.6346 27.1906C15.6346 24.1604 16.8348 21.2535 18.9726 19.106C21.1104 16.9585 24.0118 15.7451 27.042 15.7314ZM27.042 17.2351C25.0719 17.2351 23.1461 17.8196 21.5083 18.9147C19.8706 20.0098 18.5946 21.5662 17.8418 23.3868C17.0891 25.2075 16.8934 27.2105 17.2797 29.1424C17.6659 31.0743 18.6167 32.8482 20.0116 34.2395C21.4065 35.6307 23.1828 36.5769 25.1157 36.9581C27.0486 37.3393 29.0512 37.1384 30.8698 36.3809C32.6885 35.6234 34.2416 34.3434 35.3324 32.7028C36.4232 31.0622 37.0027 29.1348 36.9976 27.1647C36.9703 24.5424 35.9093 22.0367 34.0452 20.192C32.1812 18.3474 29.6645 17.3127 27.042 17.3129V17.2351Z" fill="#E45412"/>
<path d="M24.8383 26.3092V20.4758C24.8383 19.6462 25.0716 19.4129 25.8753 19.4129H28.4679C29.1161 19.4129 29.3753 19.6721 29.3753 20.3203C29.3753 24.3388 29.3753 28.3832 29.3753 32.4277C29.3753 33.0758 29.1161 33.3092 28.442 33.3351H25.8494C25.0976 33.3351 24.8642 33.0758 24.8642 32.324L24.8383 26.3092ZM27.742 31.8055V20.9425H26.3939V31.8055H27.742Z" fill="#E45412"/>
<path d="M34.4309 27.9943V32.2721C34.4309 33.1018 34.2235 33.3351 33.3939 33.3351H30.8013C30.1531 33.3351 29.8939 33.0499 29.8939 32.4277C29.8939 29.4462 29.8939 26.4906 29.8939 23.5351C29.8939 22.9129 30.1531 22.6536 30.7753 22.6277H33.3679C34.042 22.6277 34.2753 22.8869 34.3013 23.5869L34.4309 27.9943ZM31.5272 24.1573V31.7795H32.7716V24.1573H31.5272Z" fill="#E45412"/>
<path d="M24.1383 29.4721V32.324C24.1383 33.0758 23.905 33.3092 23.1531 33.3351H20.5605C19.9383 33.3351 19.6791 33.0758 19.6791 32.4277V26.4388C19.6791 25.7906 19.9383 25.5314 20.6124 25.5314H23.205C23.8791 25.5314 24.1383 25.7906 24.1383 26.4647C24.1383 27.1388 24.1383 28.461 24.1383 29.4721ZM21.2346 27.061V31.8055H22.6087V27.061H21.2346Z" fill="#E45412"/>
</svg>
