<svg width="49" height="49" viewBox="0 0 49 49" fill="none" xmlns="http://www.w3.org/2000/svg">
<path d="M12.1028 24.9263H1.18155C1.00861 24.9344 0.835295 24.9298 0.663034 24.9124C0.478851 24.8982 0.307241 24.8135 0.183925 24.676C0.0606088 24.5384 -0.0049132 24.3586 0.000997075 24.174C-0.00864073 23.9895 0.0518709 23.8082 0.17038 23.6665C0.288889 23.5248 0.456619 23.4332 0.639886 23.4101C0.811739 23.3872 0.98546 23.3818 1.1584 23.3939H12.0519C13.0566 16.8036 16.8042 13.049 23.4038 12.0073V1.18555C23.4038 1.03045 23.4038 0.873045 23.4038 0.722583C23.4086 0.529353 23.4888 0.345666 23.6272 0.21073C23.7656 0.0757948 23.9512 0.000299849 24.1445 0.000360261C24.2442 -0.00272087 24.3435 0.0139866 24.4367 0.049517C24.5299 0.0850473 24.6151 0.138696 24.6874 0.207361C24.7597 0.276026 24.8177 0.358346 24.858 0.449562C24.8984 0.540778 24.9202 0.63908 24.9223 0.738786C24.9223 0.893879 24.9223 1.04897 24.9223 1.20175V11.998C31.5843 12.9656 35.3829 16.7411 36.3991 23.3939H47.1376C47.3105 23.3834 47.484 23.388 47.6561 23.4078C47.7519 23.4153 47.8452 23.4418 47.9307 23.4857C48.0162 23.5296 48.0921 23.59 48.1541 23.6634C48.2161 23.7368 48.2629 23.8217 48.2919 23.9134C48.3208 24.005 48.3313 24.1014 48.3228 24.1971C48.324 24.3838 48.252 24.5636 48.1221 24.6978C47.9923 24.832 47.815 24.9099 47.6283 24.9147C47.4556 24.9251 47.2825 24.9251 47.1098 24.9147H36.3737C36.2741 25.5328 36.2093 26.13 36.0797 26.711C34.8968 31.9587 30.7348 35.6601 25.3853 36.2018C24.9802 36.2434 24.9223 36.4217 24.9223 36.7666C24.9223 40.2388 24.9223 43.711 24.9223 47.1832C24.9352 47.3555 24.9282 47.5287 24.9015 47.6994C24.8658 47.8733 24.7703 48.0292 24.6316 48.14C24.493 48.2508 24.3199 48.3095 24.1424 48.3059C23.9649 48.3023 23.7944 48.2367 23.6603 48.1204C23.5262 48.0041 23.4371 47.8445 23.4084 47.6693C23.3875 47.4981 23.3829 47.3253 23.3945 47.1531C23.3945 43.6994 23.3945 40.2457 23.3945 36.792C23.3945 36.3846 23.2973 36.2272 22.8621 36.1925C17.7302 35.7642 13.1237 31.4656 12.2973 26.3615C12.2417 25.9193 12.1816 25.4587 12.1028 24.9263ZM34.7417 23.3962C34.4848 18.0443 29.7556 13.7642 24.9593 13.674C24.9593 13.8406 24.9362 14.0073 24.9339 14.1763C24.9339 14.961 24.7024 15.2897 24.1815 15.2967C23.6607 15.3036 23.4107 14.9703 23.4038 14.2017C23.4038 14.0189 23.3853 13.8383 23.376 13.6207C20.3667 13.9309 17.9362 15.1902 16.0542 17.4656C14.6495 19.1367 13.8221 21.2168 13.6954 23.3962C14.0311 23.3962 14.2903 23.3962 14.545 23.3962C14.747 23.3977 14.9401 23.4794 15.0818 23.6233C15.2235 23.7673 15.3023 23.9616 15.3008 24.1636C15.2992 24.3655 15.2175 24.5586 15.0736 24.7004C14.9297 24.8421 14.7354 24.9209 14.5334 24.9193C14.2672 24.9193 13.9987 24.9193 13.7278 24.9193C13.9431 30.6693 19.2973 34.7457 23.3806 34.6138C23.4825 34.042 23.1491 33.1647 24.1399 33.1416C25.2024 33.1184 24.8343 34.0675 24.9663 34.6485C29.5195 34.6786 34.5566 30.4031 34.7302 24.9263C34.3899 24.9263 34.0519 24.9263 33.7116 24.9263C33.2116 24.9078 32.9177 24.6161 32.92 24.1624C32.9223 23.7087 33.2232 23.4217 33.7232 23.4031C34.0612 23.3846 34.4015 23.3962 34.7417 23.3962Z" fill="#E45412"/>
<path d="M18.0635 41.3823C18.9385 41.998 19.5635 42.7712 19.6839 43.8314C19.7603 44.6547 19.7765 45.4825 19.7325 46.3082C19.7289 46.4007 19.7063 46.4915 19.6661 46.5749C19.6259 46.6583 19.5689 46.7324 19.4988 46.7928C19.4286 46.8532 19.3468 46.8985 19.2583 46.9258C19.1699 46.9532 19.0768 46.962 18.9848 46.9518C18.889 46.9594 18.7927 46.9472 18.7019 46.9157C18.6112 46.8843 18.5279 46.8344 18.4574 46.7691C18.3869 46.7038 18.3308 46.6246 18.2924 46.5365C18.2541 46.4485 18.2345 46.3534 18.2348 46.2573C18.207 45.7064 18.2348 45.1531 18.2348 44.6022C18.2348 43.2643 17.3922 42.505 16.0728 42.4193C14.045 42.2874 13.1491 43.3175 13.3204 45.1971C13.3433 45.5053 13.3433 45.8148 13.3204 46.1231C13.2973 46.6346 12.964 46.9795 12.5265 46.9656C12.089 46.9518 11.8135 46.63 11.795 46.13C11.795 45.8707 11.8089 45.6115 11.795 45.3545C11.6723 43.7342 12.0265 42.3291 13.4802 41.4055C12.4802 39.674 12.6237 38.1647 13.8575 37.123C14.401 36.6749 15.0836 36.4298 15.788 36.4298C16.4925 36.4298 17.175 36.6749 17.7186 37.123C18.6468 37.9263 19.3066 39.593 18.0635 41.3823ZM15.7487 40.8314C15.9374 40.8418 16.1262 40.8135 16.3037 40.7484C16.4811 40.6833 16.6434 40.5826 16.7805 40.4526C16.9177 40.3226 17.0269 40.1659 17.1014 39.9923C17.176 39.8186 17.2142 39.6315 17.214 39.4425C17.2213 39.2489 17.1889 39.0558 17.1188 38.8751C17.0488 38.6944 16.9425 38.53 16.8066 38.3919C16.6707 38.2538 16.5079 38.1449 16.3284 38.072C16.1489 37.9991 15.9563 37.9637 15.7626 37.968C15.3801 37.9667 15.0126 38.117 14.7406 38.386C14.4686 38.6549 14.3142 39.0206 14.3112 39.4031C14.309 39.5911 14.3445 39.7776 14.4155 39.9516C14.4866 40.1256 14.5918 40.2836 14.7249 40.4163C14.858 40.549 15.0164 40.6537 15.1906 40.7242C15.3649 40.7947 15.5515 40.8295 15.7394 40.8268L15.7487 40.8314Z" fill="#E45412"/>
<path d="M40.7024 31.3129C39.7325 29.5305 39.8876 28.0721 41.1653 27.0374C41.7157 26.5977 42.4028 26.3649 43.1071 26.3797C43.8114 26.3945 44.4882 26.6559 45.0195 27.1184C46.2116 28.1809 46.3413 29.6994 45.3598 31.3175L45.6954 31.6045C46.1094 31.931 46.4435 32.3475 46.6725 32.8224C46.9015 33.2973 47.0194 33.8181 47.0172 34.3453C47.0172 34.9309 47.0172 35.5189 47.0172 36.1045C47.0228 36.208 47.0075 36.3116 46.9721 36.4091C46.9368 36.5066 46.8822 36.5959 46.8115 36.6717C46.7408 36.7476 46.6556 36.8084 46.5609 36.8506C46.4662 36.8927 46.3639 36.9153 46.2603 36.917C46.1562 36.9137 46.0538 36.8899 45.9589 36.8469C45.8641 36.8038 45.7787 36.7425 45.7077 36.6663C45.6367 36.5901 45.5815 36.5007 45.5452 36.4031C45.5089 36.3055 45.4923 36.2016 45.4964 36.0976C45.4778 35.5281 45.4964 34.9587 45.4964 34.3893C45.4989 34.1212 45.4475 33.8554 45.3452 33.6077C45.2429 33.3599 45.0918 33.1353 44.9008 32.9471C44.7099 32.759 44.4831 32.6112 44.2338 32.5126C43.9846 32.414 43.718 32.3665 43.4501 32.373C43.1908 32.373 42.9316 32.373 42.6723 32.373C41.4478 32.373 40.6052 33.2272 40.589 34.4564C40.589 34.9911 40.589 35.5258 40.589 36.0605C40.589 36.5953 40.2417 36.9193 39.8042 36.9078C39.7004 36.9044 39.5983 36.8799 39.5042 36.8357C39.4102 36.7915 39.3261 36.7286 39.2572 36.6508C39.1883 36.573 39.136 36.482 39.1035 36.3833C39.071 36.2846 39.0589 36.1803 39.0681 36.0767C39.0407 35.3352 39.0515 34.5927 39.1005 33.8522C39.1746 32.9564 39.5334 32.4656 40.7024 31.3129ZM43.0612 30.792C43.2506 30.7966 43.439 30.7623 43.6148 30.6913C43.7905 30.6203 43.9498 30.5141 44.083 30.3793C44.2161 30.2444 44.3202 30.0837 44.3889 29.9071C44.4576 29.7304 44.4895 29.5416 44.4825 29.3522C44.4863 29.1578 44.4508 28.9647 44.3783 28.7843C44.3058 28.6039 44.1977 28.44 44.0604 28.3024C43.9231 28.1647 43.7595 28.0562 43.5793 27.9831C43.3991 27.9101 43.2061 27.8742 43.0117 27.8775C42.8173 27.8807 42.6256 27.9231 42.4479 28.0022C42.2703 28.0812 42.1104 28.1952 41.9778 28.3374C41.8453 28.4796 41.7427 28.647 41.6763 28.8297C41.6099 29.0125 41.581 29.2067 41.5913 29.4008C41.5906 29.5904 41.6288 29.7782 41.7035 29.9525C41.7782 30.1267 41.8877 30.2839 42.0254 30.4142C42.1632 30.5446 42.3261 30.6453 42.5042 30.7103C42.6823 30.7753 42.8719 30.8031 43.0612 30.792Z" fill="#E45412"/>
<path d="M34.9478 41.3869C35.8366 42.0166 36.4709 42.843 36.5681 43.9587C36.6299 44.7148 36.6454 45.4739 36.6144 46.2318C36.614 46.3336 36.593 46.4342 36.5528 46.5277C36.5125 46.6211 36.4539 46.7055 36.3803 46.7758C36.3067 46.846 36.2197 46.9008 36.1245 46.9367C36.0293 46.9726 35.9279 46.9889 35.8262 46.9847C35.7246 46.9805 35.6248 46.9558 35.5329 46.9122C35.441 46.8686 35.3588 46.8069 35.2913 46.7307C35.2237 46.6546 35.1722 46.5657 35.1399 46.4692C35.1075 46.3728 35.0949 46.2708 35.1028 46.1693C35.0866 45.6508 35.1028 45.1323 35.1028 44.6161C35.0843 43.2457 34.251 42.4934 32.9038 42.4101C30.876 42.2828 30.0172 43.336 30.1792 45.1647C30.2035 45.4914 30.2035 45.8195 30.1792 46.1462C30.1445 46.6416 29.8274 46.961 29.4084 46.961C29.3042 46.9604 29.2013 46.9383 29.106 46.8961C29.0107 46.854 28.9251 46.7927 28.8546 46.716C28.784 46.6394 28.73 46.549 28.6958 46.4506C28.6617 46.3522 28.6481 46.2478 28.6561 46.1439C28.631 45.4021 28.6464 44.6595 28.7024 43.9193C28.8089 42.8221 29.4408 42.0143 30.3228 41.3939C29.349 39.5173 29.5033 38.0752 30.7857 37.0675C31.326 36.6426 31.9955 36.4155 32.6828 36.4239C33.3701 36.4323 34.0338 36.6758 34.5635 37.1138C35.7996 38.1601 35.9408 39.6207 34.9478 41.3869ZM32.6329 40.8337C32.8225 40.8413 33.0116 40.81 33.1887 40.7418C33.3657 40.6735 33.5268 40.5697 33.6622 40.4367C33.7975 40.3038 33.9042 40.1445 33.9756 39.9687C34.047 39.7929 34.0816 39.6044 34.0774 39.4147C34.0789 39.2252 34.0429 39.0372 33.9715 38.8616C33.9001 38.686 33.7947 38.5263 33.6613 38.3916C33.5279 38.2569 33.3692 38.1499 33.1943 38.0768C33.0194 38.0037 32.8318 37.9659 32.6422 37.9656C32.4484 37.9629 32.2561 37.9987 32.0763 38.071C31.8965 38.1433 31.7329 38.2507 31.595 38.3868C31.4572 38.523 31.3478 38.6852 31.2732 38.8641C31.1986 39.0429 31.1604 39.2348 31.1607 39.4286C31.1633 39.6186 31.204 39.8061 31.2805 39.98C31.3569 40.1539 31.4675 40.3107 31.6056 40.4411C31.7438 40.5715 31.9067 40.6728 32.0848 40.7391C32.2629 40.8053 32.4524 40.8351 32.6422 40.8268L32.6329 40.8337Z" fill="#E45412"/>
<path d="M3.06118 31.336C2.04729 29.7156 2.18155 28.1601 3.38063 27.1161C3.91231 26.6524 4.59001 26.3903 5.29533 26.3755C6.00064 26.3607 6.68874 26.5941 7.23942 27.0351C8.50563 28.0536 8.66535 29.5814 7.67692 31.3244C7.751 31.3892 7.82276 31.461 7.9084 31.5235C8.34705 31.8486 8.70533 32.2699 8.95574 32.755C9.20614 33.2402 9.34199 33.7763 9.35285 34.3221C9.38063 34.8892 9.37137 35.461 9.35285 36.0305C9.33433 36.5999 8.99868 36.9379 8.54961 36.917C8.10053 36.8962 7.83433 36.5652 7.82507 36.0189C7.82507 35.5189 7.82507 35.0166 7.82507 34.5166C7.78572 33.1763 6.96164 32.3777 5.62831 32.3754C5.36905 32.3754 5.10979 32.3754 4.85053 32.3754C4.38875 32.38 3.94384 32.5496 3.59616 32.8535C3.24848 33.1575 3.02097 33.5757 2.9547 34.0328C2.876 34.6809 2.9084 35.3406 2.88757 35.9957C2.87137 36.5698 2.58433 36.9217 2.12831 36.9217C1.67229 36.9217 1.36905 36.5652 1.35748 35.9957C1.3459 35.4263 1.34127 34.924 1.35748 34.3893C1.36479 33.7787 1.52445 33.1797 1.82197 32.6465C2.11948 32.1133 2.54544 31.6628 3.06118 31.336ZM5.376 30.7897C5.56564 30.794 5.75422 30.7603 5.9306 30.6905C6.10697 30.6207 6.26756 30.5163 6.40288 30.3833C6.53819 30.2504 6.64547 30.0917 6.71839 29.9165C6.7913 29.7414 6.82836 29.5535 6.82739 29.3638C6.82462 28.9764 6.66808 28.606 6.39221 28.334C6.11633 28.062 5.74371 27.9108 5.35632 27.9136C4.96893 27.9163 4.59851 28.0729 4.32654 28.3487C4.05457 28.6246 3.90333 28.9972 3.90609 29.3846C3.90786 29.5735 3.94725 29.76 4.02195 29.9335C4.09664 30.1069 4.20515 30.2637 4.34114 30.3948C4.47713 30.5258 4.63786 30.6284 4.81396 30.6966C4.99005 30.7648 5.17797 30.7973 5.36674 30.792L5.376 30.7897Z" fill="#E45412"/>
<path d="M40.7116 14.7018C39.7441 12.9587 39.8829 11.4911 41.0913 10.4633C41.628 10.0047 42.3096 9.75034 43.0156 9.74526C43.7216 9.74017 44.4068 9.98465 44.9501 10.4355C46.1862 11.4564 46.339 12.8985 45.3552 14.7226C46.1723 15.2828 46.8019 16.0281 46.9292 17.0374C47.0196 17.9117 47.0405 18.7918 46.9917 19.6693C46.9778 20.0768 46.6422 20.2897 46.2209 20.2666C46.124 20.2703 46.0273 20.2537 45.9372 20.2178C45.8471 20.1819 45.7655 20.1275 45.6977 20.0582C45.6299 19.9888 45.5773 19.906 45.5434 19.8152C45.5096 19.7243 45.4951 19.6273 45.501 19.5305C45.4686 18.9633 45.501 18.3916 45.501 17.8221C45.5117 17.5356 45.4613 17.2502 45.3529 16.9847C45.2446 16.7193 45.081 16.48 44.8728 16.2829C44.6647 16.0857 44.417 15.9352 44.1461 15.8414C43.8752 15.7476 43.5874 15.7126 43.3019 15.7388C43.1477 15.7468 42.9932 15.7468 42.839 15.7388C41.5079 15.6717 40.6052 16.5281 40.5959 17.8707C40.5959 18.3892 40.5959 18.9078 40.5959 19.424C40.5959 19.9402 40.2788 20.2619 39.8089 20.2527C39.339 20.2434 39.082 19.9494 39.0728 19.4355C39.0728 18.7967 39.0612 18.1578 39.0728 17.5189C39.0913 16.4772 39.5635 15.6786 40.7116 14.7018ZM43.0519 14.1763C43.2415 14.1788 43.4296 14.1432 43.605 14.0714C43.7805 13.9997 43.9397 13.8934 44.0732 13.7588C44.2067 13.6242 44.3118 13.4641 44.3821 13.2881C44.4524 13.1121 44.4865 12.9237 44.4825 12.7342C44.488 12.5395 44.4541 12.3458 44.383 12.1646C44.3118 11.9834 44.2048 11.8184 44.0684 11.6795C43.9319 11.5406 43.7689 11.4307 43.5889 11.3563C43.409 11.2819 43.2159 11.2446 43.0212 11.2467C42.8266 11.2487 42.6343 11.29 42.4559 11.3681C42.2776 11.4462 42.1169 11.5595 41.9833 11.7012C41.8498 11.8429 41.7463 12.0101 41.6789 12.1927C41.6115 12.3754 41.5817 12.5698 41.5913 12.7643C41.5912 12.9538 41.6292 13.1415 41.7032 13.3161C41.7772 13.4906 41.8856 13.6485 42.0219 13.7803C42.1582 13.9121 42.3197 14.015 42.4966 14.0831C42.6736 14.1511 42.8624 14.1828 43.0519 14.1763Z" fill="#E45412"/>
<path d="M30.3135 5.71564C29.3575 3.86379 29.4894 2.4749 30.7047 1.44018C31.2253 1.0052 31.8776 0.758911 32.5558 0.741263C33.234 0.723615 33.8983 0.935646 34.4408 1.34295C35.7441 2.34295 35.9107 3.67397 34.9593 5.7411C36.8112 6.89851 36.7001 8.75036 36.6214 10.5814C36.6174 10.6819 36.5922 10.7805 36.5473 10.8705C36.5024 10.9606 36.4389 11.0401 36.361 11.1038C36.2831 11.1674 36.1926 11.2138 36.0954 11.2399C35.9982 11.266 35.8966 11.2711 35.7973 11.255C35.701 11.2553 35.6057 11.2356 35.5175 11.1972C35.4292 11.1587 35.3499 11.1023 35.2846 11.0316C35.2193 10.9608 35.1694 10.8773 35.1381 10.7862C35.1068 10.6952 35.0948 10.5986 35.1029 10.5027C35.1029 9.96795 35.1029 9.43092 35.1029 8.8962C35.0797 7.54434 34.2116 6.71564 32.8644 6.75499C30.6978 6.81518 30.1862 7.34527 30.1839 9.53277C30.1947 9.87784 30.187 10.2232 30.1607 10.5675C30.1593 10.6678 30.1366 10.7666 30.0943 10.8575C30.0519 10.9484 29.9908 11.0294 29.9149 11.0949C29.839 11.1605 29.7502 11.2093 29.6541 11.2381C29.558 11.2669 29.4569 11.275 29.3575 11.2619C29.262 11.2622 29.1676 11.2427 29.08 11.2048C28.9924 11.1669 28.9136 11.1114 28.8484 11.0417C28.7833 10.9719 28.7332 10.8895 28.7013 10.7996C28.6694 10.7096 28.6564 10.6141 28.663 10.5189C28.6305 9.72607 28.6491 8.93199 28.7186 8.14156C28.839 7.08601 29.464 6.30592 30.3135 5.71564ZM32.6075 5.16008C32.7965 5.16878 32.9853 5.13947 33.1627 5.07389C33.3402 5.00831 33.5027 4.9078 33.6406 4.77829C33.7786 4.64879 33.8891 4.49293 33.9657 4.31994C34.0423 4.14696 34.0834 3.96036 34.0866 3.77119C34.0919 3.57701 34.0582 3.38373 33.9875 3.20279C33.9168 3.02185 33.8105 2.85692 33.675 2.71774C33.5395 2.57855 33.3775 2.46794 33.1985 2.39244C33.0195 2.31693 32.8272 2.27807 32.6329 2.27814C32.2496 2.28164 31.8827 2.43406 31.6096 2.70317C31.3366 2.97229 31.179 3.33702 31.17 3.72027C31.17 4.10173 31.3214 4.4676 31.5909 4.73755C31.8604 5.0075 32.226 5.15947 32.6075 5.16008Z" fill="#E45412"/>
<path d="M13.4478 5.72258C12.4616 3.87073 12.6167 2.41703 13.8783 1.40314C14.4208 0.970261 15.0961 0.738176 15.7901 0.746191C16.484 0.754207 17.1539 1.00183 17.6862 1.44712C18.9084 2.49342 19.0519 3.96564 18.0728 5.69249L18.4478 6.0073C18.8435 6.33042 19.1639 6.73605 19.3866 7.19584C19.6093 7.65564 19.7289 8.15852 19.7371 8.66934C19.7533 9.25731 19.7371 9.84527 19.7371 10.4309C19.7371 10.9656 19.4292 11.2689 18.9547 11.2573C18.4802 11.2457 18.2255 10.9494 18.214 10.4402C18.214 9.88693 18.214 9.33369 18.214 8.78277C18.2183 8.50572 18.1654 8.23077 18.0584 7.97519C17.9514 7.7196 17.7927 7.48891 17.5922 7.2976C17.3918 7.1063 17.1539 6.95851 16.8937 6.86354C16.6334 6.76857 16.3562 6.72846 16.0797 6.74573C15.8204 6.74573 15.5612 6.74573 15.3019 6.74573C14.7893 6.7459 14.2966 6.94426 13.9269 7.29932C13.5572 7.65438 13.339 8.13864 13.3181 8.65082C13.2996 9.22027 13.3181 9.79203 13.3181 10.3615C13.3181 10.9309 13.0265 11.2573 12.538 11.255C12.0496 11.2527 11.7903 10.9656 11.7788 10.3499C11.7788 10.1184 11.795 9.8661 11.7788 9.62536C11.6491 8.02582 12.0265 6.64156 13.4478 5.72258ZM17.2047 3.70175C17.2029 3.51217 17.1637 3.3248 17.0894 3.15038C17.0151 2.97595 16.9071 2.81789 16.7717 2.68523C16.6362 2.55258 16.476 2.44793 16.3 2.37728C16.1241 2.30663 15.9359 2.27137 15.7464 2.27351C15.3632 2.27954 14.9975 2.43524 14.7276 2.70732C14.4577 2.97941 14.3049 3.34628 14.3019 3.72953C14.3014 3.92327 14.3403 4.1151 14.4162 4.29334C14.4921 4.47158 14.6035 4.63251 14.7437 4.76633C14.8838 4.90015 15.0496 5.00407 15.2312 5.07176C15.4127 5.13945 15.6061 5.1695 15.7996 5.16008C15.9894 5.16253 16.1776 5.12608 16.3527 5.05296C16.5278 4.97985 16.6861 4.87163 16.8177 4.73498C16.9494 4.59832 17.0517 4.43614 17.1182 4.25844C17.1848 4.08073 17.2142 3.89127 17.2047 3.70175Z" fill="#E45412"/>
<path d="M3.02877 14.7318C2.08896 12.6994 2.23479 11.3846 3.49174 10.3892C4.02567 9.97033 4.68553 9.7442 5.36418 9.74756C6.04282 9.75092 6.70041 9.98358 7.23016 10.4078C8.47785 11.424 8.61905 12.7781 7.69313 14.7133C7.76257 14.7735 7.83433 14.8453 7.91303 14.9055C8.34601 15.225 8.70063 15.6389 8.95008 16.1157C9.19952 16.5925 9.33725 17.1199 9.35285 17.6578C9.38526 18.2434 9.376 18.8314 9.35285 19.417C9.33896 19.961 9.04266 20.2666 8.5797 20.2666C8.11674 20.2666 7.83896 19.9795 7.82507 19.4147C7.82507 18.9332 7.82507 18.4494 7.82507 17.9656C7.80192 16.5166 6.9385 15.7018 5.49405 15.755C5.32044 15.755 5.14914 15.7411 4.97553 15.7388C4.48568 15.7196 4.00635 15.8842 3.63161 16.2003C3.25687 16.5163 3.01379 16.9611 2.95007 17.4471C2.87368 18.0791 2.90609 18.7226 2.88757 19.3592C2.86905 19.9957 2.63294 20.2712 2.14683 20.2851C1.66072 20.299 1.36674 19.9541 1.35516 19.3291C1.35516 18.8291 1.35516 18.3267 1.35516 17.8267C1.35186 17.2119 1.50344 16.606 1.79593 16.0651C2.08842 15.5242 2.5124 15.0657 3.02877 14.7318ZM5.35516 14.1763C5.54494 14.179 5.73339 14.1443 5.90971 14.0741C6.08603 14.0039 6.24676 13.8995 6.38267 13.767C6.51858 13.6346 6.62701 13.4766 6.70174 13.3021C6.77646 13.1276 6.81601 12.9401 6.81813 12.7504C6.81813 12.363 6.66424 11.9915 6.39031 11.7175C6.11639 11.4436 5.74487 11.2897 5.35748 11.2897C4.97009 11.2897 4.59857 11.4436 4.32464 11.7175C4.05072 11.9915 3.89683 12.363 3.89683 12.7504C3.90171 13.1327 4.05796 13.4974 4.33132 13.7647C4.60468 14.032 4.97286 14.18 5.35516 14.1763Z" fill="#E45412"/>
<path d="M26.8899 23.8499C28.2348 24.6346 29.0774 25.7619 29.2371 27.2851C29.3116 28.2664 29.3224 29.2515 29.2695 30.2342C29.2695 30.6647 28.9524 30.9124 28.5103 30.9286C28.4103 30.9306 28.3111 30.9121 28.2186 30.8743C28.126 30.8366 28.0422 30.7803 27.9722 30.709C27.9022 30.6377 27.8475 30.5529 27.8115 30.4597C27.7754 30.3665 27.7588 30.2669 27.7626 30.167C27.7464 29.4425 27.7626 28.718 27.7626 27.9934C27.7487 26.123 26.4894 24.8893 24.6214 24.9124C24.3436 24.9124 24.0681 24.9124 23.7903 24.9124C22.0265 24.8939 20.751 26.1277 20.7116 27.9055C20.6954 28.6462 20.7116 29.3893 20.7116 30.1323C20.7192 30.2306 20.7072 30.3294 20.6763 30.4231C20.6454 30.5167 20.5962 30.6033 20.5316 30.6777C20.467 30.7522 20.3883 30.8132 20.3 30.857C20.2117 30.9009 20.1156 30.9268 20.0172 30.9332C19.9129 30.9413 19.808 30.9275 19.7093 30.8927C19.6106 30.858 19.5202 30.803 19.444 30.7313C19.3677 30.6596 19.3073 30.5728 19.2665 30.4765C19.2257 30.3801 19.2054 30.2763 19.207 30.1717C19.1684 29.2411 19.1808 28.3092 19.2441 27.38C19.2997 26.6875 19.5226 26.0188 19.8935 25.4314C20.2644 24.8439 20.7723 24.3553 21.3737 24.0073C21.4454 23.9633 21.5103 23.9055 21.6052 23.8291C20.7788 22.8545 20.3505 21.7712 20.5959 20.4842C20.7522 19.5903 21.2379 18.7875 21.957 18.2342C22.6503 17.6931 23.5124 17.4143 24.3912 17.4469C25.27 17.4795 26.109 17.8215 26.7603 18.4124C28.2741 19.8082 28.3343 21.6717 26.8899 23.8499ZM24.2325 23.3082C24.5168 23.3163 24.7999 23.2671 25.0649 23.1636C25.3299 23.0601 25.5714 22.9044 25.775 22.7058C25.9786 22.5071 26.1402 22.2696 26.2502 22.0072C26.3602 21.7449 26.4164 21.4631 26.4153 21.1786C26.4249 20.8852 26.3753 20.5929 26.2696 20.319C26.164 20.0451 26.0043 19.7953 25.8001 19.5844C25.5959 19.3734 25.3514 19.2057 25.0811 19.0912C24.8108 18.9766 24.5203 18.9176 24.2267 18.9176C23.9331 18.9176 23.6426 18.9766 23.3723 19.0912C23.102 19.2057 22.8575 19.3734 22.6533 19.5844C22.4491 19.7953 22.2894 20.0451 22.1837 20.319C22.078 20.5929 22.0285 20.8852 22.038 21.1786C22.0395 21.4634 22.0977 21.7449 22.2093 22.0069C22.3209 22.2689 22.4837 22.506 22.688 22.7043C22.8924 22.9026 23.1342 23.0581 23.3994 23.1618C23.6646 23.2656 23.9478 23.3153 24.2325 23.3082Z" fill="#E45412"/>
</svg>
