<svg width="13" height="14" viewBox="0 0 13 14" fill="none" xmlns="http://www.w3.org/2000/svg">
<path d="M6.125 7C4.18359 7 2.625 5.44141 2.625 3.5C2.625 1.58594 4.18359 0 6.125 0C8.03906 0 9.625 1.58594 9.625 3.5C9.625 5.44141 8.03906 7 6.125 7ZM8.55859 7.875C10.582 7.875 12.25 9.54297 12.25 11.5664V12.6875C12.25 13.4258 11.6484 14 10.9375 14H1.3125C0.574219 14 0 13.4258 0 12.6875V11.5664C0 9.54297 1.64062 7.875 3.66406 7.875H4.12891C4.73047 8.17578 5.41406 8.3125 6.125 8.3125C6.83594 8.3125 7.49219 8.17578 8.09375 7.875H8.55859Z" fill="#F68E41"/>
</svg>
