<svg width="56" height="56" viewBox="0 0 56 56" fill="none" xmlns="http://www.w3.org/2000/svg">
<path d="M51.9138 56C50.7446 54.8829 49.5676 53.7785 48.4139 52.6511C46.6224 50.9065 44.8464 49.1492 43.0653 47.397C42.9746 47.3077 42.8761 47.2235 42.7542 47.1113C39.0287 49.5088 35.0205 50.172 30.7894 48.736C26.5583 47.3001 23.8024 44.3567 22.3764 40.1355H9.54052V38.2787H21.985C21.6529 36.063 21.9092 33.8005 22.729 31.7111C22.7818 31.5175 22.7994 31.3163 22.7809 31.1168C22.7809 28.1275 22.7809 25.1391 22.7809 22.1516V21.5037H24.6631V28.1581C25.275 27.5945 25.8764 27.0665 26.4442 26.5003C26.5463 26.3343 26.5892 26.1395 26.5661 25.9468C26.5661 24.0517 26.5661 22.1541 26.5661 20.2591V19.6393H28.4353V25.0669C29.0861 24.7761 29.6616 24.5414 30.2061 24.2532C30.3124 24.1971 30.3513 23.9446 30.3538 23.7788C30.3538 22.7255 30.3538 21.6721 30.3538 20.5804H32.2387V23.6181L34.139 23.3631V16.8464H36.0342V23.3452L37.9501 23.6181V14.982H39.8609V15.6477C39.8609 18.3283 39.8609 21.0038 39.8609 23.687C39.8609 24.0568 39.9335 24.2787 40.3327 24.4114C40.816 24.6023 41.2885 24.8185 41.7483 25.0592V18.7185H43.6616V19.3205C43.6616 21.5267 43.6616 23.7304 43.6616 25.9366C43.6478 26.0878 43.6733 26.2401 43.7359 26.3789C43.7985 26.5177 43.8961 26.6385 44.0194 26.7298C44.5638 27.1609 45.0824 27.6225 45.5516 28.0204V22.4449H47.4598V23.0468C47.4598 25.7428 47.4598 28.4412 47.4598 31.1372C47.4556 31.4087 47.4994 31.6788 47.5894 31.9355C48.3227 33.8716 48.5604 35.9554 48.2816 38.0033C48.2816 38.0721 48.2816 38.141 48.2816 38.2583H49.3187V40.0692C49.272 40.0922 49.2357 40.1253 49.2072 40.1202C48.1701 39.9187 47.5557 40.3217 47.3794 41.3726C47.3293 41.6241 47.2221 41.8613 47.0657 42.0663C46.7131 42.556 46.8246 42.8825 47.255 43.2982C50.0031 45.9585 52.7176 48.6544 55.4424 51.3299C56.1838 52.0594 56.1813 52.47 55.4424 53.2071C54.7035 53.9442 53.9542 54.6814 53.1998 55.4083C52.9768 55.6225 52.7201 55.8011 52.4764 55.9975L51.9138 56ZM46.4979 36.3939C46.4969 34.1802 45.8286 32.0166 44.5776 30.1766C43.3266 28.3366 41.549 26.903 39.4698 26.0569C37.3905 25.2108 35.1028 24.9903 32.8962 25.4234C30.6895 25.8564 28.663 26.9235 27.0728 28.4897C25.4826 30.0558 24.4003 32.0508 23.9626 34.2221C23.5249 36.3935 23.7516 38.6438 24.614 40.6884C25.4764 42.733 26.9358 44.4801 28.8075 45.7087C30.6792 46.9374 32.8793 47.5923 35.1294 47.5908C38.1455 47.5868 41.0367 46.4054 43.1682 44.3061C45.2997 42.2067 46.4972 39.3611 46.4979 36.3939ZM53.612 52.3144L45.6035 44.4332L44.2216 45.9355L52.1446 53.7428L53.612 52.3144Z" fill="#E45412"/>
<path d="M22.755 44.8056V46.6369C22.6253 46.6497 22.519 46.6726 22.4127 46.6726C18.4305 46.6726 14.4457 46.7007 10.4609 46.6726C9.37483 46.684 8.31853 46.3236 7.47287 45.6531C6.6272 44.9826 6.04478 44.0437 5.82533 42.9973C5.7372 42.5504 5.69809 42.0955 5.70867 41.6404C5.70521 31.9194 5.70348 22.2051 5.70348 12.4977C5.70348 9.43706 7.69978 7.47313 10.8109 7.47058H48.0587C51.1439 7.47058 53.1427 9.43195 53.1453 12.4569C53.1453 22.2255 53.1453 31.995 53.1453 41.7654C53.182 42.9764 52.7608 44.1579 51.9631 45.0811L50.5346 43.8568C51.3124 43.0202 51.2476 41.9924 51.2476 40.9721C51.2476 31.4943 51.2476 22.0164 51.2476 12.5385C51.2476 10.4343 50.1327 9.32993 47.999 9.32993H10.8679C8.72385 9.32993 7.60904 10.4216 7.60644 12.5258V41.6021C7.60644 43.7089 8.72126 44.798 10.8653 44.798C14.5918 44.798 18.3164 44.798 22.0394 44.798L22.755 44.8056Z" fill="#E45412"/>
<path d="M47.4183 5.56531H45.5672C45.5672 5.31026 45.5672 5.07816 45.5672 4.84861C45.5516 3.06067 44.359 1.86701 42.5338 1.86446H5.16938C3.03308 1.86446 1.90271 2.96885 1.90012 5.0552C1.90012 14.7473 1.90012 24.4454 1.90012 34.1494C1.90012 35.6491 2.50938 36.6999 4.02864 37.2636L3.58012 39.0235C2.66675 38.8158 1.84309 38.3303 1.22604 37.636C0.426407 36.7819 -0.0121397 35.66 -0.000252805 34.4988C-0.000252805 24.5823 -0.000252805 14.6657 -0.000252805 4.74914C0.0153027 1.98433 2.10752 0 4.94641 0H42.4197C45.6579 0 47.7605 2.32356 47.4183 5.56531Z" fill="#E45412"/>
<path d="M15.2339 25.225H17.0694V36.3684H15.2339V25.225Z" fill="#E45412"/>
<path d="M19.0242 28.0255H20.8598V36.3709H19.0242V28.0255Z" fill="#E45412"/>
<path d="M13.2687 36.3913H11.4539V30.8617H13.2687V36.3913Z" fill="#E45412"/>
<path d="M5.66719 5.56531H3.83422V3.77992H5.66719V5.56531Z" fill="#E45412"/>
<path d="M9.47052 3.75442V5.56786H7.6557V3.75442H9.47052Z" fill="#E45412"/>
<path d="M11.4357 5.56021V3.77482H13.2687V5.56021H11.4357Z" fill="#E45412"/>
<path d="M18.9542 13.0384H17.1394V11.2224H18.9542V13.0384Z" fill="#E45412"/>
<path d="M11.3839 11.2403V13.0257H9.5457V11.2403H11.3839Z" fill="#E45412"/>
<path d="M13.3439 11.2224H15.1587V13.0078H13.3439V11.2224Z" fill="#E45412"/>
<path d="M35.119 27.0665C36.9961 27.065 38.8313 27.6115 40.3924 28.6368C41.9535 29.662 43.1703 31.12 43.8886 32.826C44.6069 34.5321 44.7944 36.4094 44.4275 38.2204C44.0606 40.0313 43.1556 41.6944 41.8273 42.9991C40.4989 44.3038 38.8069 45.1913 36.9655 45.5493C35.1241 45.9073 33.2161 45.7197 31.4832 45.0103C29.7502 44.3008 28.2702 43.1014 27.2306 41.5639C26.191 40.0265 25.6385 38.2201 25.6431 36.3735C25.6493 33.9043 26.6501 31.5383 28.4263 29.7937C30.2025 28.0492 32.6092 27.0685 35.119 27.0665ZM30.359 30.6934C27.9583 32.2798 26.9472 36.0496 27.865 38.2558H42.4094C43.3116 35.7333 42.0983 32.0503 39.8583 30.7112V36.3633H37.9761V35.7231C37.9761 33.8102 37.9761 31.8972 37.9761 29.9818C37.9761 29.7879 37.8672 29.4717 37.7168 29.4181C37.1729 29.2366 36.62 29.0825 36.0601 28.9565V36.376H34.165V28.9794C33.6464 29.1095 33.1953 29.2345 32.7494 29.3212C32.3864 29.4003 32.2542 29.5762 32.2594 29.969C32.2801 31.8462 32.2594 33.7209 32.2594 35.5981V36.3633H30.359V30.6934ZM41.6757 40.1764H28.5676C30.1724 42.579 32.332 43.867 35.1813 43.8466C37.9813 43.8262 40.1046 42.5433 41.6757 40.1764Z" fill="#E45412"/>
</svg>
