<svg width="53" height="56" viewBox="0 0 53 56" fill="none" xmlns="http://www.w3.org/2000/svg">
<path d="M11.0106 51.113C11.0769 51.5805 11.1764 52.0146 11.2428 52.4821C11.3422 53.1166 11.1101 53.5509 10.5131 53.6843C8.39047 54.1184 6.23464 54.5189 4.11197 54.92C3.41547 55.0533 3.08381 54.7531 2.95114 54.0181C2.02248 49.2096 1.12699 44.401 0.198326 39.6258C0.131994 39.2919 0.0656603 38.958 -0.00067256 38.5906C-0.100172 37.9896 0.131993 37.5221 0.728988 37.4219C2.85164 36.9878 5.00746 36.5871 7.13013 36.1864C7.7603 36.0862 8.1251 36.3533 8.25775 36.9878C8.29093 37.1213 8.32411 37.2883 8.39047 37.5221C9.08694 37.1213 9.78341 36.7874 10.4468 36.3867C13.0006 34.884 15.5544 34.8506 18.1414 36.2531C20.0982 37.2883 22.0882 38.2567 24.045 39.2919C24.9737 39.7594 25.9024 39.9931 26.9305 39.9931C29.0863 39.9931 31.2421 40.0265 33.3979 39.9597C35.0894 39.9264 36.4824 40.2937 37.3447 41.9299C39.9317 40.3271 42.4856 38.7576 45.0062 37.1881C45.769 36.7207 46.5319 36.2197 47.3279 35.7522C49.1188 34.6837 51.1752 35.1178 52.2696 36.754C53.3639 38.3903 52.9662 40.5274 51.3078 41.763C45.7027 45.9037 40.0976 50.0444 34.4593 54.1851C31.7064 56.1888 28.6551 56.5893 25.4711 55.3541C22.3535 54.1851 19.2359 52.9496 16.1514 51.7809C14.5262 51.0463 12.9343 50.8793 11.0106 51.113ZM10.6458 49.2096C11.3754 49.2096 12.0388 49.243 12.7352 49.2096C14.1945 49.1428 15.5875 49.4434 16.9474 49.9777C19.9987 51.2132 23.0832 52.3485 26.1677 53.5509C28.7547 54.5525 31.209 54.2517 33.4643 52.6157C39.1026 48.5084 44.7077 44.3343 50.3128 40.1935C51.1752 39.5591 51.3742 38.5572 50.8435 37.7558C50.3128 36.9544 49.3179 36.754 48.3892 37.3217C44.9398 39.4589 41.4906 41.596 38.0413 43.7332C37.8754 43.8333 37.7096 44.0003 37.6432 44.2007C36.9799 46.0373 35.9518 46.8053 33.9949 46.8053C30.015 46.8053 26.0018 46.8053 22.0219 46.8053C21.856 46.8053 21.657 46.8053 21.4912 46.8053C21.0269 46.7385 20.7615 46.4714 20.6952 46.0039C20.6289 45.5364 20.861 45.1691 21.3254 45.0355C21.5243 44.9687 21.7897 44.9687 22.0219 44.9687C25.5707 44.9687 29.1195 44.9687 32.6683 44.9687C33.2653 44.9687 33.8623 45.0021 34.4593 44.9687C35.2221 44.9353 35.8191 44.3009 35.8523 43.5328C35.8854 42.698 35.3879 42.0635 34.592 41.9299C34.3598 41.8965 34.0945 41.8965 33.8291 41.8965C31.5407 41.8965 29.2522 41.8965 26.9305 41.8965C25.6038 41.8965 24.3767 41.596 23.2158 40.9949C21.1264 39.893 19.0369 38.8578 16.9474 37.7892C15.5875 37.088 14.1614 36.8876 12.7684 37.4553C11.3754 38.0229 10.1151 38.8244 8.78844 39.4923C9.41861 42.698 10.0156 45.9371 10.6458 49.2096ZM9.28595 52.048C8.39047 47.373 7.5281 42.7981 6.66579 38.1565C5.0738 38.4571 3.5813 38.7576 2.02248 39.0581C2.91798 43.7332 3.7803 48.308 4.64263 52.9496C6.20146 52.6157 7.69394 52.3485 9.28595 52.048Z" fill="#E45412"/>
<path d="M39.7991 27.6378C39.1358 28.4058 38.4724 29.1738 37.8754 29.9419C37.7759 30.0754 37.7428 30.376 37.8091 30.5763C38.1407 31.7117 38.5388 32.8137 38.9036 33.949C39.0362 34.3832 39.1026 34.7839 38.7377 35.1512C38.3729 35.5185 37.9417 35.4517 37.5106 35.2848C36.9136 35.051 36.2834 34.8172 35.6532 34.5835C35.1558 35.4851 34.6583 36.3533 34.1608 37.2216C33.9618 37.6223 33.6964 37.9562 33.199 37.9228C32.7015 37.9228 32.4693 37.5889 32.2371 37.1881C31.7728 36.3199 31.2753 35.4517 30.7446 34.5501C30.0813 34.7839 29.4511 35.0176 28.7878 35.2848C28.3898 35.4517 27.9918 35.4851 27.6602 35.1512C27.2953 34.8172 27.3285 34.4165 27.4611 33.9824C27.8592 32.847 28.224 31.7117 28.5888 30.5429C28.6551 30.376 28.6551 30.1088 28.5556 29.9753C27.9255 29.1738 27.2622 28.4392 26.5988 27.6378C25.438 28.1387 24.443 28.8399 23.7797 29.9753C23.1164 31.144 22.4198 32.2794 21.7565 33.4481C21.4912 33.9156 21.1595 34.2162 20.5957 34.0492C20.0319 33.8823 19.8992 33.4481 19.8992 32.9138C19.9324 30.9771 19.8328 29.0403 19.9987 27.1035C20.1645 24.9329 21.2922 23.2633 23.1164 22.1279C23.7797 21.7272 23.9787 21.3265 23.846 20.5251C23.3154 17.2192 23.9124 14.0468 25.1727 10.9747C26.831 6.93415 29.3516 3.46125 32.4361 0.422495C32.9668 -0.111793 33.4311 -0.145186 33.9618 0.355709C37.8754 4.26269 40.9599 8.70396 42.3197 14.2138C42.8836 16.4511 42.983 18.7552 42.5519 21.0259C42.4856 21.3933 42.5519 21.627 42.8836 21.8274C45.4042 23.2633 46.5982 25.5006 46.565 28.4058C46.5319 29.9085 46.565 31.4112 46.565 32.8804C46.565 33.4147 46.4655 33.9156 45.8685 34.0492C45.3047 34.1828 44.973 33.8822 44.7077 33.4147C44.1439 32.413 43.5137 31.4112 42.9499 30.4094C42.1871 29.1071 41.1589 28.2055 39.7991 27.6378ZM33.2321 11.2752C31.3085 11.2752 29.4179 11.2752 27.4943 11.2752C27.1958 11.2752 26.9968 11.3086 26.8641 11.6425C25.9355 13.9466 25.4048 16.3176 25.5043 18.7886C25.637 22.729 27.3285 25.9347 29.9486 28.7397C30.1145 28.9067 30.413 29.0069 30.6451 29.0069C32.3366 29.0403 33.9949 29.0403 35.6864 29.0069C35.9849 29.0069 36.3166 28.8399 36.5156 28.6395C41.0926 23.664 42.0212 18.054 39.5337 11.7761C39.3679 11.3754 39.1358 11.2752 38.7709 11.2752C36.9468 11.2752 35.0894 11.2752 33.2321 11.2752ZM38.4392 9.3718C36.9799 6.73377 35.2884 4.36286 33.199 2.25911C31.1094 4.39626 29.418 6.73377 27.9918 9.3718C31.5075 9.3718 34.9236 9.3718 38.4392 9.3718ZM33.199 35.0844C33.6301 34.3497 33.9618 33.6819 34.3598 33.0474C34.6915 32.4797 35.0563 32.3461 35.6532 32.5465C35.9186 32.6467 36.2171 32.7469 36.5819 32.8804C36.3498 32.2126 36.2171 31.6783 35.9849 31.144C35.9186 31.0105 35.7196 30.8769 35.5869 30.8769C33.9949 30.8435 32.403 30.8435 30.7778 30.8769C30.6451 30.8769 30.4462 30.977 30.3798 31.1106C30.1808 31.6783 29.9818 32.246 29.7828 32.8804C30.0813 32.7803 30.2471 32.7135 30.4461 32.6467C31.4079 32.2794 31.6733 32.3795 32.1708 33.2812C32.5024 33.8489 32.8341 34.4165 33.199 35.0844ZM25.637 26.0349C25.239 25.0999 24.841 24.2985 24.4762 23.4636C22.254 24.6658 21.458 26.7696 21.8228 29.6413C22.7183 27.9383 24.0118 26.7696 25.637 26.0349ZM44.5751 29.5411C44.9067 26.5358 44.0112 24.4988 41.9217 23.497C41.5569 24.3319 41.1921 25.1667 40.7941 26.0683C42.4524 26.7696 43.7127 27.9383 44.5751 29.5411Z" fill="#E45412"/>
<path d="M38.1739 17.3527C38.1739 20.1577 35.9518 22.3951 33.1658 22.3951C30.413 22.3951 28.1908 20.1243 28.1908 17.3193C28.1908 14.5811 30.4461 12.3438 33.199 12.3438C35.9518 12.3772 38.1739 14.6145 38.1739 17.3527ZM36.3166 17.4195C36.3166 15.6497 34.9568 14.2138 33.199 14.2138C31.4743 14.2138 30.0813 15.6163 30.0813 17.3527C30.0813 19.0892 31.4411 20.4916 33.1658 20.5251C34.9236 20.5585 36.3166 19.156 36.3166 17.4195Z" fill="#E45412"/>
</svg>
