<svg width="50" height="55" viewBox="0 0 50 55" fill="none" xmlns="http://www.w3.org/2000/svg">
<path d="M36.9989 0.00777777C37.2017 0.143705 37.3615 0.334774 37.4593 0.558471C37.5571 0.782167 37.589 1.02917 37.5511 1.27037C37.5174 1.70333 37.5511 2.14148 37.5511 2.56667C37.5604 2.68636 37.5448 2.80668 37.5053 2.92007C37.4659 3.03346 37.4034 3.13747 37.3219 3.22557C37.2403 3.31368 37.1414 3.38397 37.0314 3.43204C36.9214 3.48012 36.8026 3.50494 36.6826 3.50494C36.5625 3.50494 36.4438 3.48012 36.3338 3.43204C36.2238 3.38397 36.1249 3.31368 36.0433 3.22557C35.9618 3.13747 35.8993 3.03346 35.8599 2.92007C35.8204 2.80668 35.8048 2.68636 35.8141 2.56667C35.7695 2.02457 35.7755 1.47949 35.8322 0.938519C35.8893 0.606667 36.1718 0.311111 36.3507 0L36.9989 0.00777777Z" fill="#E45412"/>
<path d="M11.353 33.1282L7.90222 31.7411C7.34741 32.2985 6.72519 32.9285 6.08741 33.5559C5.44963 34.1833 5.05037 34.2222 4.38667 33.5559C3.64 32.811 2.8942 32.0652 2.14926 31.3185C1.58926 30.7533 1.58667 30.3359 2.14926 29.763C2.78963 29.12 3.44556 28.4926 4.06 27.8937L2.66778 24.4196C2.19074 24.4196 1.61259 24.4196 1.03704 24.4196C0.318889 24.4196 0 24.0981 0 23.3826C0 22.3283 0 21.2731 0 20.217C0 19.5015 0.316296 19.18 1.03704 19.18C1.58148 19.18 2.12852 19.18 2.67296 19.1644C2.68852 19.1644 2.70667 19.1644 2.68593 19.1644L4.05741 15.7293L2.24259 13.9144C1.57889 13.2507 1.5763 12.8774 2.24259 12.2137C2.98667 11.467 3.73074 10.7204 4.48259 9.97889C5.04519 9.42148 5.46259 9.41889 6.02519 9.97889C6.66815 10.6193 7.29815 11.2752 7.90222 11.8844L11.3659 10.4974C11.3659 9.76111 11.3659 8.94185 11.3659 8.09926C11.3659 7.25667 11.6537 6.95333 12.5093 6.95074C13.5281 6.95074 14.5444 6.95074 15.5633 6.95074C16.2789 6.95074 16.6004 7.27222 16.6004 7.98778C16.6004 8.84074 16.6004 9.6937 16.6004 10.5026L20.0641 11.8819C20.6267 11.3115 21.2593 10.6633 21.8996 10.023C22.54 9.38259 22.9081 9.41111 23.52 10.023C24.2822 10.78 25.041 11.5388 25.7963 12.2993C26.3537 12.8619 26.3537 13.2793 25.7963 13.8548C25.1559 14.5004 24.5 15.1304 23.8933 15.7319L25.2752 19.1826C27.8419 19.2656 30.5356 18.9233 33.2811 19.9604C33.1774 19.2111 33.1826 18.5681 32.9881 17.9952C32.3556 16.1415 31.6919 14.293 30.9607 12.4756C30.2296 10.6581 30.6574 9.00407 31.6763 7.47704C32.6952 5.95 34.313 5.33556 36.0837 5.27074C37.044 5.22893 38.0051 5.33029 38.9356 5.57148C41.8807 6.38556 42.8011 8.98593 42.7726 11.3037C42.7726 11.7004 42.547 12.1022 42.4044 12.4911C41.7589 14.2463 41.0874 15.9937 40.4678 17.7567C40.3009 18.2542 40.204 18.7725 40.18 19.2967C40.1359 20.0563 40.18 20.8237 40.18 21.5859C40.18 22.4104 39.8793 22.7111 39.073 22.7189C38.7852 22.7189 38.5 22.7189 38.1915 22.7189C43.4726 28.2852 44.2193 34.3596 40.3693 41.2507C40.5567 41.3302 40.7314 41.4367 40.8878 41.567C43.5452 44.2063 46.1896 46.8611 48.8444 49.503C49.5626 50.2211 49.9385 51.0456 49.7156 52.0644C49.6257 52.5179 49.4162 52.9391 49.1088 53.2844C48.8015 53.6297 48.4073 53.8866 47.9673 54.0283C47.5273 54.17 47.0573 54.1915 46.6062 54.0906C46.1551 53.9896 45.7391 53.7699 45.4015 53.4541C44.7559 52.8707 44.157 52.2304 43.54 51.6133C41.2663 49.337 38.9926 47.0581 36.6904 44.7559C36.5089 44.8648 36.3404 44.9607 36.1719 45.0619C28.4356 49.8893 18.0781 46.0004 15.4648 37.2452C15.3326 36.7941 15.1511 36.6411 14.687 36.667C13.943 36.7059 13.1963 36.68 12.4496 36.667C11.6719 36.667 11.3556 36.3611 11.3504 35.5833C11.3478 34.7589 11.353 33.9241 11.353 33.1282ZM1.77074 22.667C1.80813 22.6783 1.84624 22.6869 1.88482 22.693H3.30296C3.98482 22.693 4.24407 22.9107 4.38148 23.5874C4.61701 24.8215 5.07374 26.0029 5.72963 27.0744C6.28704 27.9819 6.26889 28.14 5.51185 28.8893L3.9563 30.4448L5.26815 31.9044C5.89296 31.277 6.49185 30.6704 7.08296 30.0715C7.58074 29.5789 7.89704 29.5374 8.48037 29.9159C9.59994 30.632 10.8431 31.1331 12.1463 31.3937C12.893 31.5467 13.0822 31.7826 13.0848 32.5474C13.0874 33.3122 13.0848 34.103 13.0848 34.8807H14.9437C14.6442 32.4135 14.9955 29.9109 15.9626 27.6215C11.9726 28.7752 8.70333 26.3252 7.98778 23.1519C7.81357 22.3653 7.79611 21.5522 7.93642 20.759C8.07672 19.9657 8.37203 19.2079 8.80545 18.5289C9.23888 17.8498 9.80192 17.2629 10.4624 16.8016C11.1228 16.3404 11.8677 16.0139 12.6544 15.8407C13.4462 15.6608 14.2664 15.6454 15.0643 15.7957C15.8622 15.946 16.6206 16.2588 17.2926 16.7144C19.2267 18.0107 20.0796 19.88 20.0744 22.107C21.1659 21.503 22.247 20.9196 23.31 20.2922C23.371 20.2331 23.4175 20.1607 23.4459 20.0807C23.4742 20.0006 23.4836 19.9151 23.4733 19.8307C23.2477 18.6497 22.8009 17.522 22.1563 16.507C21.6378 15.6748 21.6663 15.47 22.3689 14.77L23.9633 13.173L22.6593 11.7263C22.0396 12.3589 21.4511 12.9733 20.8444 13.5748C20.3493 14.0674 20.0304 14.1089 19.447 13.7304C18.3288 13.0118 17.0851 12.5104 15.7811 12.2526C15.0344 12.0996 14.8452 11.8637 14.8426 11.0989C14.84 10.3341 14.8426 9.54333 14.8426 8.78111H13.0978C13.0978 9.60296 13.0978 10.3833 13.0978 11.1637C13.0978 11.8481 12.88 12.1074 12.2033 12.2448C10.9339 12.4871 9.7206 12.9636 8.62556 13.65C7.86074 14.1322 7.61963 14.0985 6.97148 13.453L5.34074 11.8248L3.86815 13.1548C4.49556 13.7667 5.11 14.3552 5.71148 14.9696C6.20407 15.4622 6.24296 15.7863 5.86704 16.367C5.14035 17.4973 4.63532 18.7554 4.37889 20.0744C4.24667 20.7433 3.98222 20.9533 3.29 20.9585C2.78704 20.9585 2.28407 20.9585 1.77074 20.9585V22.667ZM28.8244 45.4041C31.2374 45.4009 33.5955 44.6836 35.6014 43.3425C37.6073 42.0013 39.1714 40.0964 40.0964 37.8677C41.0214 35.6391 41.266 33.1865 40.7994 30.8191C40.3327 28.4517 39.1757 26.2754 37.4742 24.5645C35.7727 22.8536 33.6027 21.6846 31.2379 21.205C28.8731 20.7254 26.4192 20.9565 24.1855 21.8693C21.9519 22.782 20.0384 24.3356 18.6862 26.3341C17.3341 28.3326 16.6038 30.6867 16.5874 33.0996C16.5785 34.7123 16.8885 36.3108 17.4995 37.8032C18.1105 39.2957 19.0104 40.6527 20.1476 41.7961C21.2848 42.9396 22.6368 43.847 24.1259 44.4662C25.615 45.0854 27.2118 45.4041 28.8244 45.4041ZM36.6256 17.4818C37.17 17.4818 37.717 17.4611 38.2615 17.4818C38.3927 17.5019 38.5266 17.4708 38.6356 17.3951C38.7446 17.3194 38.8204 17.2048 38.8474 17.0748C39.4852 15.3378 40.1437 13.6059 40.7944 11.8715C41.4089 10.2278 40.6 8.1537 38.9952 7.46407C38.2623 7.13133 37.4667 6.95918 36.6618 6.95918C35.857 6.95918 35.0614 7.13133 34.3285 7.46407C32.747 8.14852 31.9356 10.2226 32.5396 11.83C33.1619 13.497 33.8126 15.1537 34.3985 16.8337C34.58 17.3522 34.8341 17.5441 35.3707 17.4793C35.7887 17.4555 36.2077 17.4563 36.6256 17.4818ZM13.9637 17.4818C13.0977 17.483 12.2516 17.7416 11.5329 18.2249C10.8143 18.7082 10.2557 19.3943 9.928 20.1959C9.60034 20.9976 9.51849 21.8785 9.69285 22.7268C9.86722 23.5751 10.2899 24.3524 10.9072 24.9598C11.5245 25.5672 12.3085 25.9773 13.1595 26.1379C14.0105 26.2986 14.89 26.2025 15.6862 25.862C16.4825 25.5214 17.1595 24.9517 17.6311 24.2254C18.1027 23.4991 18.3477 22.6489 18.3348 21.783C18.3164 20.6358 17.8478 19.5419 17.0301 18.7373C16.2123 17.9326 15.111 17.4817 13.9637 17.4818ZM38.0748 43.68C38.15 43.7656 38.1967 43.8226 38.2459 43.8718L46.3789 52.0074C46.478 52.1138 46.5904 52.207 46.7133 52.2848C46.8745 52.3884 47.0671 52.4315 47.2571 52.4063C47.447 52.3811 47.6218 52.2894 47.7504 52.1474C47.8926 52.0186 47.9837 51.843 48.007 51.6525C48.0304 51.4621 47.9843 51.2697 47.8774 51.1104C47.7648 50.9461 47.6334 50.7956 47.4859 50.6618C44.8778 48.052 42.2696 45.4438 39.6615 42.8374C39.537 42.713 39.4022 42.5989 39.3141 42.5185L38.0748 43.68ZM34.9248 19.2267C34.9485 19.5096 34.9485 19.7941 34.9248 20.077C34.8962 20.1787 34.892 20.2857 34.9125 20.3893C34.933 20.4929 34.9776 20.5902 35.0428 20.6733C35.108 20.7564 35.1918 20.8229 35.2875 20.8675C35.3833 20.9121 35.4882 20.9335 35.5937 20.93C36.5244 20.9922 37.463 20.9481 38.3807 20.9481V19.2267H34.9248Z" fill="#E45412"/>
<path d="M32.1222 4.37111C31.9075 4.2582 31.7179 4.10298 31.5648 3.91481C31.2285 3.33454 30.9255 2.73554 30.6574 2.12074C30.6042 2.01964 30.5725 1.90861 30.5643 1.79465C30.5561 1.68069 30.5716 1.56627 30.6099 1.4586C30.6481 1.35094 30.7082 1.25236 30.7865 1.1691C30.8647 1.08583 30.9594 1.01968 31.0644 0.974815C31.1614 0.923287 31.2678 0.89179 31.3772 0.882197C31.4866 0.872603 31.5969 0.885108 31.7014 0.918969C31.8058 0.95283 31.9025 1.00736 31.9854 1.0793C32.0684 1.15125 32.1361 1.23915 32.1844 1.33778C32.5222 1.93982 32.8294 2.5585 33.1048 3.19148C33.3511 3.76704 32.9207 4.37111 32.1222 4.37111Z" fill="#E45412"/>
<path d="M41.7174 0.889259C42.4952 0.871111 42.9567 1.46741 42.7182 2.03778C42.4376 2.70339 42.1146 3.35028 41.7511 3.97444C41.7024 4.06832 41.635 4.15126 41.5532 4.21822C41.4713 4.28517 41.3766 4.33472 41.2749 4.36384C41.1733 4.39296 41.0667 4.40103 40.9618 4.38757C40.8569 4.37411 40.7558 4.3394 40.6648 4.28556C40.5636 4.24413 40.4718 4.18267 40.395 4.10487C40.3181 4.02707 40.2578 3.93454 40.2176 3.83283C40.1774 3.73113 40.1581 3.62235 40.161 3.51303C40.1639 3.4037 40.1889 3.2961 40.2345 3.19667C40.5156 2.55003 40.8333 1.91988 41.1859 1.30926C41.313 1.0863 41.6111 0.967037 41.7174 0.889259Z" fill="#E45412"/>
<path d="M29.6385 6.99741C29.5288 6.97373 29.4212 6.94077 29.317 6.89889C28.7285 6.61111 28.1374 6.3337 27.5619 6.02259C27.3556 5.92255 27.1975 5.74466 27.1224 5.52805C27.0473 5.31145 27.0613 5.07387 27.1613 4.86759C27.2613 4.66131 27.4392 4.50323 27.6558 4.42811C27.8724 4.35299 28.11 4.36699 28.3163 4.46704C28.9264 4.74704 29.5314 5.04691 30.1311 5.36667C30.3061 5.45169 30.4442 5.59751 30.5196 5.77689C30.595 5.95628 30.6025 6.15696 30.5407 6.34148C30.4904 6.53883 30.3727 6.71239 30.2079 6.83216C30.0432 6.95193 29.8418 7.01038 29.6385 6.99741Z" fill="#E45412"/>
<path d="M43.6074 7.15815C43.3067 6.86778 42.9956 6.67074 42.8452 6.38037C42.8014 6.29913 42.7741 6.20999 42.765 6.11814C42.7559 6.02628 42.7651 5.93353 42.7921 5.84526C42.8192 5.757 42.8634 5.67497 42.9224 5.60394C42.9813 5.53291 43.0538 5.47429 43.1356 5.43148C43.7936 5.05344 44.4721 4.71242 45.1682 4.41C45.3396 4.34021 45.5306 4.33541 45.7053 4.39652C45.8801 4.45763 46.0265 4.58043 46.117 4.74185C46.3504 5.0737 46.3996 5.51963 46.0859 5.73222C45.3341 6.25074 44.5096 6.65259 43.6074 7.15815Z" fill="#E45412"/>
<path d="M18.3374 33.1722C18.3462 30.4047 19.4476 27.7527 21.4019 25.7931C23.3561 23.8335 26.0051 22.7249 28.7726 22.7085C34.5489 22.7085 39.2778 27.3752 39.2881 33.0789C39.3149 34.4678 39.0652 35.8482 38.5535 37.1398C38.0418 38.4313 37.2784 39.6082 36.3076 40.6019C35.3368 41.5956 34.1781 42.3864 32.8988 42.9281C31.6196 43.4698 30.2454 43.7517 28.8562 43.7574C27.467 43.7631 26.0906 43.4924 24.8069 42.9611C23.5233 42.4299 22.3582 41.6486 21.3793 40.6629C20.4005 39.6771 19.6274 38.5065 19.1052 37.2192C18.583 35.9319 18.322 34.5536 18.3374 33.1644V33.1722ZM28.8115 24.4533C27.0816 24.4539 25.3909 24.9685 23.954 25.9317C22.517 26.8949 21.3987 28.2633 20.7409 29.8633C20.0831 31.4632 19.9155 33.2226 20.2594 34.9179C20.6033 36.6133 21.4432 38.1682 22.6724 39.3854C23.9016 40.6026 25.4648 41.4271 27.1635 41.7543C28.8621 42.0815 30.6197 41.8966 32.2131 41.2231C33.8065 40.5496 35.1638 39.4178 36.1129 37.9715C37.0619 36.5251 37.5598 34.8294 37.5433 33.0996C37.5188 30.7993 36.5882 28.6014 34.9536 26.9828C33.3189 25.3641 31.1119 24.4552 28.8115 24.4533Z" fill="#E45412"/>
<path d="M28.5548 40.1644C24.9926 40.097 21.8893 36.9859 21.8322 33.4237C21.8322 32.7393 22.133 32.3296 22.6774 32.3141C23.2219 32.2985 23.5459 32.6848 23.5796 33.377C23.6317 34.6995 24.1817 35.9534 25.1192 36.8875C26.0567 37.8217 27.3126 38.3671 28.6352 38.4144C29.317 38.4507 29.7085 38.793 29.6722 39.3322C29.6359 39.8715 29.2419 40.18 28.5548 40.1644Z" fill="#E45412"/>
</svg>
