<svg width="49" height="49" viewBox="0 0 49 49" fill="none" xmlns="http://www.w3.org/2000/svg">
<path d="M36.0417 48.341H5.94907C5.06699 48.1776 4.28512 47.6724 3.77358 46.9355C3.26204 46.1985 3.06222 45.2894 3.21759 44.4058V12.1141C2.81675 12.1392 2.41473 12.1392 2.01389 12.1141C1.52558 12.0296 1.07342 11.8018 0.714839 11.4597C0.356262 11.1176 0.107448 10.6766 0 10.1928V1.9984C0.671296 0.516922 1.31944 0.00766294 2.70833 0.00766294H45.787C46.1376 -0.0202425 46.4901 0.028272 46.8201 0.149857C47.1502 0.271442 47.4499 0.4632 47.6985 0.711893C47.9472 0.960587 48.139 1.26029 48.2606 1.59031C48.3822 1.92033 48.4307 2.27281 48.4028 2.6234V9.56785C48.4529 9.92306 48.4199 10.2851 48.3061 10.6253C48.1924 10.9655 48.0012 11.2747 47.7475 11.5283C47.4939 11.782 47.1847 11.9732 46.8445 12.0869C46.5042 12.2007 46.1422 12.2337 45.787 12.1836H38.8426V44.591C38.8426 44.8919 38.8426 45.1928 38.8426 45.4938C38.7779 46.0694 38.5557 46.6159 38.2003 47.0734C37.845 47.5308 37.3704 47.8813 36.8287 48.0864L36.0417 48.341ZM4.88426 12.1141V12.6697C4.88426 23.395 4.88426 34.1049 4.88426 44.7993C4.8399 45.0616 4.85895 45.3306 4.93981 45.584C5.02067 45.8374 5.161 46.0677 5.34907 46.2558C5.53714 46.4439 5.76749 46.5842 6.02087 46.6651C6.27425 46.7459 6.54331 46.765 6.80556 46.7206H35.2083C35.4706 46.765 35.7396 46.7459 35.993 46.6651C36.2464 46.5842 36.4767 46.4439 36.6648 46.2558C36.8529 46.0677 36.9932 45.8374 37.0741 45.584C37.1549 45.3306 37.174 45.0616 37.1296 44.7993V12.6234C37.1296 12.4382 37.1296 12.2762 37.1296 12.1141H4.88426ZM12.1759 10.4938H45.7407C46.5046 10.4938 46.7824 10.216 46.7824 9.42896C46.7824 7.11414 46.7824 4.96137 46.7824 2.73914C46.7824 1.85951 46.5278 1.62803 45.6481 1.62803H12.1759V10.4938ZM10.5093 10.4938V1.62803H2.5C2.38974 1.62086 2.27924 1.63769 2.17612 1.67736C2.073 1.71703 1.97971 1.7786 1.90269 1.85782C1.82567 1.93704 1.76675 2.03203 1.73 2.13623C1.69325 2.24042 1.67954 2.35136 1.68981 2.46137C1.68981 4.77618 1.68981 7.25303 1.68981 9.63729C1.68981 10.1697 2.01389 10.4706 2.59259 10.4938H10.5093Z" fill="#E45412"/>
<path d="M43.2176 16.929H47.5694C47.7843 16.929 47.9904 17.0143 48.1423 17.1663C48.2943 17.3182 48.3796 17.5243 48.3796 17.7391C48.3798 17.8465 48.358 17.9528 48.3156 18.0514C48.2732 18.1501 48.211 18.239 48.133 18.3127C48.0549 18.3864 47.9626 18.4434 47.8617 18.4801C47.7608 18.5168 47.6535 18.5325 47.5463 18.5262H43.2176L44.1435 19.4521C44.537 19.8919 44.5833 20.3549 44.1435 20.7021C44.0593 20.7878 43.957 20.8537 43.8442 20.895C43.7313 20.9363 43.6107 20.952 43.491 20.9409C43.3714 20.9298 43.2557 20.8922 43.1524 20.8309C43.049 20.7696 42.9606 20.6861 42.8935 20.5864L40.5787 18.3873C40.4778 18.3094 40.3961 18.2095 40.3399 18.0951C40.2837 17.9807 40.2545 17.855 40.2545 17.7276C40.2545 17.6001 40.2837 17.4744 40.3399 17.36C40.3961 17.2457 40.4778 17.1457 40.5787 17.0678L42.8935 14.753C42.9695 14.6687 43.0623 14.6013 43.166 14.5552C43.2697 14.5091 43.3819 14.4852 43.4954 14.4852C43.6088 14.4852 43.7211 14.5091 43.8247 14.5552C43.9284 14.6013 44.0212 14.6687 44.0972 14.753C44.1784 14.8308 44.2431 14.9242 44.2872 15.0277C44.3314 15.1311 44.3542 15.2424 44.3542 15.3549C44.3542 15.4674 44.3314 15.5787 44.2872 15.6821C44.2431 15.7855 44.1784 15.8789 44.0972 15.9567L43.2176 16.8132V16.929Z" fill="#E45412"/>
<path d="M13.3796 34.6373H18.5185C18.6268 34.6278 18.7359 34.6402 18.8393 34.6738C18.9427 34.7074 19.0383 34.7614 19.1203 34.8327C19.2024 34.904 19.2693 34.991 19.317 35.0887C19.3648 35.1864 19.3923 35.2926 19.3981 35.4012C19.3985 35.5167 19.3749 35.6311 19.3288 35.737C19.2826 35.8429 19.2149 35.9381 19.1301 36.0164C19.0452 36.0948 18.9449 36.1546 18.8356 36.1922C18.7264 36.2297 18.6105 36.2441 18.4954 36.2345H8.26389C7.68518 36.2345 7.31481 35.9104 7.33796 35.4243C7.36111 34.9382 7.68518 34.6373 8.28704 34.6141L13.3796 34.6373Z" fill="#E45412"/>
<path d="M13.3333 20.1465H8.28704C7.98227 20.1398 7.69196 20.0153 7.47685 19.7993C7.39947 19.7027 7.34751 19.5883 7.32574 19.4665C7.30396 19.3447 7.31306 19.2193 7.35219 19.1019C7.39133 18.9845 7.45926 18.8788 7.54978 18.7944C7.64029 18.71 7.75051 18.6496 7.87037 18.6188C8.03927 18.5947 8.21073 18.5947 8.37963 18.6188H18.6111C18.824 18.6306 19.0243 18.7236 19.1707 18.8786C19.3171 19.0336 19.3985 19.2389 19.3981 19.4521C19.3986 19.5585 19.3768 19.6639 19.3341 19.7614C19.2915 19.8589 19.2289 19.9464 19.1504 20.0184C19.072 20.0903 18.9794 20.145 18.8785 20.1791C18.7777 20.2131 18.6708 20.2257 18.5648 20.216L13.3333 20.1465Z" fill="#E45412"/>
<path d="M13.3796 44.2901C11.6898 44.2901 10.0231 44.2901 8.33333 44.2901C8.0712 44.2958 7.81332 44.2232 7.59259 44.0817C7.48639 43.9928 7.40635 43.8767 7.36106 43.7458C7.31576 43.6149 7.30691 43.4742 7.33544 43.3386C7.36398 43.2031 7.42883 43.0779 7.52305 42.9763C7.61728 42.8748 7.73733 42.8008 7.87037 42.7623C8.05384 42.7267 8.24245 42.7267 8.42593 42.7623H18.5417C19.0741 42.7623 19.4213 43.1327 19.3981 43.5956C19.3957 43.7053 19.3703 43.8132 19.3237 43.9125C19.2771 44.0118 19.2102 44.1003 19.1274 44.1722C19.0445 44.2441 18.9476 44.2979 18.8427 44.3302C18.7379 44.3625 18.6275 44.3724 18.5185 44.3595C16.8056 44.3132 15.0926 44.2901 13.3796 44.2901Z" fill="#E45412"/>
<path d="M13.3565 26.6049H18.3796C18.6875 26.6086 18.9835 26.7237 19.213 26.929C19.2961 27.0224 19.3542 27.1354 19.3819 27.2574C19.4095 27.3794 19.4058 27.5064 19.3712 27.6265C19.3365 27.7467 19.272 27.8561 19.1836 27.9446C19.0952 28.0331 18.9859 28.0978 18.8657 28.1327C18.6665 28.1655 18.4632 28.1655 18.2639 28.1327H8.49537C8.38765 28.1442 8.27901 28.1442 8.1713 28.1327C8.06393 28.1328 7.95765 28.1111 7.85902 28.0686C7.76038 28.0262 7.67147 27.9641 7.59775 27.886C7.52402 27.808 7.46705 27.7156 7.43034 27.6147C7.39362 27.5139 7.37794 27.4065 7.38426 27.2993C7.38382 27.1929 7.40562 27.0875 7.44828 26.99C7.49094 26.8925 7.5535 26.805 7.63196 26.7331C7.71042 26.6611 7.80305 26.6064 7.9039 26.5724C8.00475 26.5383 8.1116 26.5258 8.21759 26.5354H13.3565V26.6049Z" fill="#E45412"/>
<path d="M8.03241 24.9845C7.83382 24.9668 7.65002 24.8722 7.52027 24.7208C7.39052 24.5694 7.32509 24.3733 7.33796 24.1743C7.33157 23.9817 7.40053 23.7941 7.53019 23.6515C7.65986 23.5088 7.84002 23.4224 8.03241 23.4104H14.6296C14.8384 23.4104 15.0386 23.4934 15.1861 23.641C15.3337 23.7886 15.4167 23.9887 15.4167 24.1975C15.4167 24.4062 15.3337 24.6064 15.1861 24.754C15.0386 24.9016 14.8384 24.9845 14.6296 24.9845H8.03241Z" fill="#E45412"/>
<path d="M21.9676 36.2114C21.3657 36.2114 21.0185 35.8873 21.0185 35.4012C21.0185 34.9151 21.3657 34.6141 21.9676 34.591H28.1019C28.7037 34.591 29.0509 34.9151 29.0509 35.4012C29.0509 35.8873 28.7037 36.2114 28.1019 36.2114H21.9676Z" fill="#E45412"/>
<path d="M11.3426 16.929H8.31019C7.66204 16.929 7.31481 16.628 7.33796 16.1188C7.36111 15.6095 7.68518 15.378 8.33333 15.378H14.375C15 15.378 15.3704 15.7021 15.3704 16.2114C15.3704 16.7206 15.0231 16.9753 14.3981 16.9984L11.3426 16.929Z" fill="#E45412"/>
<path d="M8.19444 33.0401C7.5 33.0401 7.08333 32.3688 7.4537 31.8364C7.54216 31.7219 7.65396 31.6277 7.78168 31.5598C7.90941 31.492 8.05011 31.4521 8.19444 31.4428H14.4907C14.6016 31.4297 14.714 31.4403 14.8204 31.4739C14.9269 31.5076 15.025 31.5634 15.1081 31.6379C15.1913 31.7123 15.2577 31.8036 15.303 31.9057C15.3482 32.0077 15.3711 32.1183 15.3704 32.2299C15.3705 32.3403 15.3482 32.4496 15.3046 32.551C15.261 32.6524 15.1972 32.7439 15.1169 32.8198C15.0367 32.8957 14.9419 32.9543 14.8382 32.9922C14.7345 33.0301 14.6241 33.0464 14.5139 33.0401H8.19444Z" fill="#E45412"/>
<path d="M8.26389 41.0725C7.66204 41.0725 7.31481 40.7716 7.33796 40.2623C7.36111 39.753 7.68518 39.4753 8.28704 39.4753H14.375C15 39.4753 15.3704 39.7762 15.3704 40.2854C15.3704 40.7947 15 41.0725 14.3519 41.0725H8.26389Z" fill="#E45412"/>
<path d="M21.9676 20.1466C21.3657 20.1466 21.0185 19.8456 21.0185 19.3364C21.0185 18.8271 21.3657 18.5262 21.9676 18.5262H28.1019C28.7037 18.5262 29.0509 18.8503 29.0509 19.3364C29.0509 19.8225 28.7269 20.1234 28.1019 20.1466H21.9676Z" fill="#E45412"/>
<path d="M25.0463 44.2901C24.0278 44.2901 22.9861 44.2901 21.9676 44.2901C21.3657 44.2901 21.0185 44.0123 21.0185 43.503C21.0185 42.9938 21.3889 42.6928 21.9676 42.6928H28.1019C28.7037 42.6928 29.0509 43.0169 29.0509 43.503C29.0509 43.9891 28.7269 44.2901 28.1019 44.2901C27.0139 44.3132 26.0648 44.2901 25.0463 44.2901Z" fill="#E45412"/>
<path d="M25.0231 28.2021C24.0046 28.2021 22.9861 28.2021 21.9676 28.2021C21.4583 28.2021 21.1111 27.9706 21.0417 27.5771C21.0108 27.4535 21.0104 27.3241 21.0405 27.2003C21.0707 27.0765 21.1304 26.9618 21.2147 26.8662C21.2989 26.7705 21.4052 26.6968 21.5242 26.6513C21.6433 26.6058 21.7716 26.5898 21.8981 26.6049H28.0324C28.7037 26.6049 29.0741 26.8827 29.0509 27.4151C29.0278 27.9475 28.6806 28.2021 27.9861 28.2021H25.0231Z" fill="#E45412"/>
<path d="M32.6852 28.2021C32.3148 28.2021 31.9213 28.2021 31.5509 28.2021C31.4396 28.2083 31.3281 28.1922 31.2231 28.1545C31.1182 28.1169 31.0218 28.0586 30.9398 27.983C30.8577 27.9075 30.7917 27.8162 30.7456 27.7147C30.6995 27.6132 30.6742 27.5034 30.6713 27.3919C30.674 27.2814 30.6994 27.1726 30.7458 27.0722C30.7922 26.9718 30.8586 26.882 30.941 26.8083C31.0234 26.7346 31.12 26.6785 31.2249 26.6435C31.3298 26.6085 31.4408 26.5954 31.5509 26.6049H33.8657C33.9717 26.5952 34.0786 26.6078 34.1794 26.6418C34.2803 26.6759 34.3729 26.7306 34.4514 26.8025C34.5298 26.8744 34.5924 26.962 34.635 27.0595C34.6777 27.157 34.6995 27.2623 34.6991 27.3688C34.7023 27.4791 34.6829 27.5889 34.6422 27.6914C34.6014 27.794 34.5401 27.8871 34.4621 27.9651C34.3841 28.0432 34.2909 28.1044 34.1884 28.1452C34.0858 28.1859 33.976 28.2053 33.8657 28.2021C33.4722 28.2253 33.0787 28.2021 32.6852 28.2021Z" fill="#E45412"/>
<path d="M31.4583 20.1234C31.259 20.1184 31.0685 20.0401 30.9232 19.9034C30.778 19.7668 30.6883 19.5813 30.6713 19.3827C30.665 19.2793 30.6792 19.1757 30.7131 19.0778C30.747 18.9799 30.7998 18.8896 30.8687 18.8122C30.9375 18.7348 31.0209 18.6717 31.1141 18.6266C31.2074 18.5815 31.3086 18.5552 31.412 18.5493H33.9583C34.1671 18.5493 34.3673 18.6322 34.5149 18.7798C34.6624 18.9274 34.7454 19.1276 34.7454 19.3364C34.7454 19.5451 34.6624 19.7453 34.5149 19.8929C34.3673 20.0405 34.1671 20.1234 33.9583 20.1234H31.4583Z" fill="#E45412"/>
<path d="M32.6852 44.2901C32.2917 44.2901 31.875 44.2901 31.4583 44.2901C31.2553 44.2846 31.0617 44.203 30.9159 44.0616C30.7701 43.9201 30.6828 43.729 30.6713 43.5262C30.6646 43.325 30.7353 43.1289 30.8687 42.9782C31.0022 42.8275 31.1884 42.7336 31.3889 42.716C32.2525 42.6697 33.1179 42.6697 33.9815 42.716C34.0851 42.7184 34.1871 42.7426 34.2808 42.7869C34.3745 42.8312 34.4578 42.8946 34.5255 42.9732C34.5931 43.0517 34.6435 43.1436 34.6734 43.2428C34.7033 43.3421 34.7121 43.4465 34.6991 43.5493C34.6961 43.6497 34.6733 43.7484 34.6322 43.8399C34.591 43.9315 34.5322 44.014 34.4591 44.0828C34.386 44.1516 34.3 44.2053 34.2062 44.2409C34.1123 44.2764 34.0124 44.2932 33.912 44.2901C33.5185 44.3132 33.1018 44.2901 32.6852 44.2901Z" fill="#E45412"/>
<path d="M31.6435 36.2114C31.5321 36.2145 31.4213 36.1952 31.3175 36.1547C31.2137 36.1142 31.1191 36.0533 31.0392 35.9756C30.9594 35.8979 30.8959 35.805 30.8526 35.7024C30.8093 35.5997 30.787 35.4894 30.787 35.378C30.7929 35.2716 30.8198 35.1673 30.8661 35.0713C30.9124 34.9752 30.9771 34.8893 31.0567 34.8183C31.1363 34.7473 31.2291 34.6928 31.3298 34.6577C31.4305 34.6227 31.5371 34.6079 31.6435 34.6141H33.9583C34.0636 34.611 34.1685 34.6291 34.2666 34.6673C34.3648 34.7054 34.4543 34.7629 34.5299 34.8363C34.6054 34.9097 34.6655 34.9975 34.7065 35.0945C34.7475 35.1916 34.7686 35.2958 34.7685 35.4012C34.7627 35.6142 34.6754 35.8169 34.5248 35.9676C34.3741 36.1183 34.1714 36.2055 33.9583 36.2114H31.6435Z" fill="#E45412"/>
<path d="M33.5185 4.05859H42.7778C42.9768 4.06967 43.1647 4.15371 43.3056 4.29463C43.4465 4.43556 43.5306 4.62349 43.5417 4.82248C43.5455 5.01202 43.4827 5.1969 43.3643 5.34493C43.2459 5.49297 43.0793 5.59479 42.8935 5.63266H24.375C24.1914 5.66662 24.0031 5.66662 23.8194 5.63266C23.6432 5.57881 23.4934 5.46122 23.3993 5.30285C23.3051 5.14448 23.2733 4.95671 23.3102 4.77618C23.3211 4.60172 23.3954 4.43726 23.519 4.31366C23.6426 4.19006 23.807 4.11582 23.9815 4.10489H33.3796L33.5185 4.05859Z" fill="#E45412"/>
<path d="M27.2454 7.27618C27.8935 7.27618 28.2639 7.57711 28.2639 8.06322C28.2639 8.54933 27.8704 8.8734 27.2454 8.8734H15.6713C15.0463 8.8734 14.6991 8.57248 14.6991 8.04007C14.6991 7.50766 15.0463 7.27618 15.6713 7.27618H27.2454Z" fill="#E45412"/>
<path d="M36.2731 7.27618C36.8519 7.27618 37.2222 7.60025 37.1991 8.08637C37.1966 8.19906 37.1706 8.31 37.1228 8.41209C37.075 8.51418 37.0065 8.60517 36.9215 8.67924C36.8365 8.75332 36.737 8.80885 36.6294 8.84228C36.5217 8.87571 36.4083 8.88631 36.2963 8.8734H30.8333C30.2315 8.8734 29.8843 8.54933 29.8843 8.06322C29.8843 7.57711 30.2315 7.27618 30.8102 7.27618H36.2731Z" fill="#E45412"/>
<path d="M20.8796 4.05859C21.4583 4.05859 21.7824 4.33637 21.8056 4.82248C21.8287 5.30859 21.4815 5.65581 20.8796 5.65581H15.4398C14.838 5.65581 14.5139 5.33174 14.5139 4.82248C14.5139 4.31322 14.8611 4.05859 15.4398 4.05859H20.8796Z" fill="#E45412"/>
<path d="M8.10185 5.72525C8.13517 5.85431 8.13517 5.98972 8.10185 6.11877C7.82407 6.60488 8.10185 6.90581 8.42593 7.22988C8.75 7.55396 9.09722 8.22525 8.7037 8.61877C8.31019 9.01229 7.84722 8.94285 7.29167 8.341C7.16634 8.17383 6.99158 8.05034 6.79216 7.98802C6.59274 7.9257 6.37877 7.92771 6.18056 7.99377C5.8508 8.07595 5.50699 8.08452 5.17355 8.01886C4.84011 7.9532 4.52522 7.81493 4.25123 7.61386C3.97725 7.41279 3.75091 7.15386 3.58827 6.85547C3.42563 6.55707 3.33068 6.22652 3.31019 5.88729C3.29955 5.57267 3.35098 5.25903 3.46155 4.96428C3.57212 4.66953 3.73967 4.39945 3.95462 4.16945C4.16957 3.93946 4.42772 3.75405 4.71432 3.62382C5.00093 3.49359 5.31037 3.42108 5.625 3.41044C5.93962 3.3998 6.25326 3.45124 6.54801 3.56181C6.84276 3.67238 7.11284 3.83992 7.34284 4.05488C7.57284 4.26983 7.75824 4.52797 7.88847 4.81458C8.01871 5.10118 8.09121 5.41063 8.10185 5.72525ZM6.50463 5.72525C6.52449 5.609 6.51874 5.4898 6.48776 5.376C6.45678 5.26219 6.40133 5.15653 6.32527 5.06638C6.24922 4.97623 6.1544 4.90377 6.04744 4.85407C5.94048 4.80436 5.82396 4.77861 5.70602 4.77861C5.58807 4.77861 5.47155 4.80436 5.36459 4.85407C5.25763 4.90377 5.16281 4.97623 5.08676 5.06638C5.01071 5.15653 4.95526 5.26219 4.92428 5.376C4.8933 5.4898 4.88754 5.609 4.90741 5.72525C4.90741 5.93399 4.99033 6.13418 5.13792 6.28177C5.28552 6.42937 5.48571 6.51229 5.69444 6.51229C5.80686 6.51998 5.91959 6.50271 6.02455 6.46171C6.12951 6.4207 6.2241 6.35699 6.30153 6.27513C6.37897 6.19327 6.43734 6.09529 6.47245 5.98822C6.50756 5.88115 6.51855 5.76763 6.50463 5.65581V5.72525Z" fill="#E45412"/>
</svg>
