<svg width="56" height="56" viewBox="0 0 56 56" fill="none" xmlns="http://www.w3.org/2000/svg">
<path d="M2.63122e-05 37.647C0.292989 36.5607 0.591137 35.4744 0.87373 34.3856C1.17706 33.2241 1.89262 32.9363 2.89854 33.5922C3.78348 34.1712 4.66669 34.7511 5.54817 35.3318C6.25595 35.8011 6.44262 36.4207 6.06669 36.9885C5.69077 37.5563 5.06854 37.603 4.37632 37.1804C4.29077 37.1259 4.20003 37.0741 3.97706 36.9444C4.23632 37.5511 4.40743 38.0411 4.6304 38.5C8.33521 46.2648 14.3345 51.2037 22.75 53.1041C24.2848 53.4489 25.8922 53.4748 27.466 53.6485C27.5567 53.6485 27.6474 53.6485 27.7252 53.6485C28.6222 53.6848 29.12 54.0996 29.0967 54.7867C29.0734 55.4737 28.5652 55.8418 27.6604 55.8367C16.4345 55.7511 6.58262 48.8237 2.33336 38.7256C2.2841 38.6115 2.22706 38.4974 2.22188 38.4896C1.81743 38.6789 1.4441 38.9537 1.04484 39.0081C0.539286 39.0885 0.251508 38.6556 -0.00775146 38.2744L2.63122e-05 37.647Z" fill="#E45412"/>
<path d="M18.3841 0C19.4704 0.29037 20.5567 0.588518 21.6456 0.873704C22.8148 1.17963 23.0948 1.89259 22.4415 2.89593C21.8746 3.76012 21.3051 4.62432 20.733 5.48852C20.243 6.23519 19.6234 6.44259 19.0504 6.0563C18.4774 5.67 18.4282 5.06074 18.8793 4.32704C18.9234 4.25185 18.9648 4.17407 19.0971 3.94074C18.2026 4.33741 17.4274 4.63556 16.6963 5.01667C8.92892 9.07407 4.20262 15.3637 2.67558 24.0074C2.49151 25.0444 2.47336 26.11 2.38521 27.16C2.36188 27.4193 2.38521 27.7096 2.3541 27.9793C2.29188 28.6922 1.83558 29.1407 1.20299 29.107C1.056 29.1016 0.911725 29.0658 0.779298 29.0018C0.646871 28.9378 0.529172 28.847 0.433648 28.7351C0.338123 28.6233 0.266853 28.4928 0.224344 28.352C0.181836 28.2112 0.169015 28.0631 0.186693 27.917C0.259286 26.5352 0.259286 25.1481 0.518545 23.7819C2.29966 13.5904 8.01632 6.48148 17.4482 2.28148C17.5108 2.24884 17.5714 2.21248 17.6297 2.17259C16.6989 1.33519 16.7274 0.697407 17.7204 0.00259259L18.3841 0Z" fill="#E45412"/>
<path d="M42.7052 20.0978C43.1045 21.1063 43.4467 22.0059 43.8252 22.8926C43.8688 22.9688 43.9289 23.0342 44.0012 23.084C44.0734 23.1338 44.1559 23.1667 44.2426 23.1804C44.826 23.2141 45.4093 23.1804 45.9926 23.1959C46.7185 23.2115 47.1541 23.6315 47.1593 24.36C47.1697 26.8022 47.1697 29.2462 47.1593 31.6919C47.1593 32.41 46.7108 32.8222 45.9797 32.8378C45.4145 32.8378 44.8467 32.817 44.2841 32.8559C44.1895 32.868 44.0988 32.9014 44.0189 32.9534C43.939 33.0055 43.8719 33.075 43.8226 33.1567C43.4415 34.0407 43.0993 34.943 42.7052 35.9385C43.1226 36.3352 43.6074 36.7759 44.0689 37.2348C44.6782 37.8493 44.6756 38.4274 44.0689 39.0496C42.3976 40.7296 40.721 42.4053 39.0393 44.0767C38.43 44.6807 37.8571 44.6678 37.2245 44.0559C36.8356 43.6748 36.4623 43.2782 36.0552 42.9048C35.993 42.8551 35.9202 42.8203 35.8425 42.8032C35.7647 42.7861 35.684 42.7872 35.6067 42.8063C34.6993 43.177 33.7919 43.5841 32.8378 43.9963C32.8378 44.6004 32.8378 45.2719 32.8378 45.9459C32.8378 46.7393 32.4126 47.1619 31.6193 47.1644C29.2099 47.1644 26.8022 47.1644 24.3963 47.1644C23.6185 47.1644 23.2115 46.7341 23.1985 45.9796C23.1985 45.4144 23.2193 44.8467 23.1804 44.2841C23.1687 44.1877 23.135 44.0952 23.082 44.0139C23.0289 43.9325 22.9579 43.8644 22.8745 43.8148C21.9904 43.4337 21.0882 43.0941 20.0874 42.7C19.6934 43.1148 19.2526 43.6022 18.7911 44.0637C18.1793 44.673 17.6011 44.6704 16.9763 44.0637C15.2946 42.3923 13.6181 40.7158 11.9467 39.0341C11.3426 38.4248 11.3556 37.8544 11.9674 37.2193C12.3485 36.8278 12.7452 36.4415 13.1185 36.05C13.1674 35.9873 13.2018 35.9146 13.2193 35.8371C13.2368 35.7595 13.2369 35.6791 13.2197 35.6015C12.8489 34.6915 12.4419 33.7867 12.0297 32.8326C11.423 32.8326 10.7515 32.8326 10.08 32.8326C9.28669 32.8326 8.86151 32.4074 8.85891 31.6115C8.85891 29.2228 8.85891 26.8342 8.85891 24.4456C8.85891 23.6107 9.27373 23.1985 10.0982 23.1907C10.7541 23.1907 11.41 23.1907 12.0504 23.1907L13.3311 20.0952C12.9034 19.6933 12.416 19.2526 11.9545 18.7989C11.3452 18.187 11.3478 17.6115 11.9545 16.9841C13.6137 15.3179 15.2773 13.6543 16.9452 11.9933C17.5985 11.3426 18.1637 11.3504 18.8274 12.0141C19.2656 12.4522 19.6908 12.9033 20.09 13.3104C21.096 12.9319 22.0371 12.5767 22.9419 12.1852C23.0103 12.1415 23.0675 12.0824 23.109 12.0127C23.1504 11.9429 23.1749 11.8643 23.1804 11.7833C23.2089 11.2026 23.1804 10.6167 23.196 10.0333C23.2115 9.30741 23.6289 8.87185 24.3574 8.86926C26.8014 8.85889 29.2453 8.85889 31.6893 8.86926C32.41 8.86926 32.8223 9.31519 32.8352 10.0489C32.8352 10.6141 32.8145 11.1819 32.8534 11.7444C32.8659 11.8389 32.8998 11.9293 32.9523 12.0087C33.0048 12.0882 33.0747 12.1548 33.1567 12.2033C34.0408 12.587 34.9404 12.9293 35.9463 13.3259C36.3378 12.9137 36.776 12.4263 37.2426 11.9648C37.8545 11.353 38.4326 11.353 39.0574 11.9648C40.7374 13.6362 42.414 15.3127 44.0871 16.9944C44.6911 17.6037 44.6756 18.1741 44.0689 18.8093C43.8408 19.0452 43.61 19.2785 43.3715 19.5067C43.133 19.7348 42.9022 19.9189 42.7052 20.0978ZM41.873 38.0593C41.4582 37.6704 41.0356 37.2815 40.6363 36.8952C40.1437 36.4026 40.136 35.9904 40.416 35.363C40.963 34.1367 41.4867 32.8974 41.9715 31.6426C42.2541 30.9089 42.5211 30.6574 43.3326 30.6522C43.8719 30.6522 44.4111 30.6522 44.9426 30.6522V25.3815H43.3197C42.5237 25.3815 42.2463 25.1222 41.9689 24.3756C41.4971 23.1398 40.9889 21.916 40.4445 20.7044C40.1437 20.0381 40.1411 19.6389 40.6545 19.1281C41.0537 18.7289 41.4789 18.3504 41.8471 18.0211C40.5508 16.7248 39.3245 15.4804 38.0411 14.1919C37.686 14.5704 37.323 14.9696 36.9367 15.3637C36.3974 15.8978 36.0034 15.8978 35.3137 15.5841C34.1246 15.0448 32.9147 14.5444 31.6841 14.083C30.9063 13.7926 30.6471 13.5281 30.6471 12.6985C30.6471 12.1593 30.6471 11.62 30.6471 11.0859H25.3815C25.3815 11.633 25.3815 12.1567 25.3815 12.6804C25.3815 13.5204 25.1222 13.79 24.36 14.0778C23.1208 14.5444 21.8997 15.063 20.6915 15.6048C20.0434 15.8952 19.6234 15.89 19.1152 15.3741C18.7211 14.9722 18.3582 14.5419 17.9978 14.1452C16.6808 15.4622 15.4571 16.6833 14.2282 17.907C14.2341 17.9354 14.2465 17.9621 14.2645 17.9848C14.6482 18.3763 15.0422 18.7626 15.4156 19.1541C15.8693 19.6285 15.8874 20.0563 15.6282 20.6474C15.0734 21.9109 14.5436 23.1838 14.0389 24.4663C13.7797 25.1041 13.4919 25.3711 12.7867 25.3815C12.2267 25.3815 11.6667 25.3815 11.0885 25.3815V30.6522C11.6434 30.6522 12.1697 30.6522 12.696 30.6522C13.5282 30.6522 13.7926 30.9115 14.0804 31.6893C14.5393 32.913 15.0448 34.1185 15.5841 35.3189C15.8952 36.0085 15.903 36.413 15.3637 36.9419C14.9645 37.3333 14.5289 37.6885 14.1634 38.0152L17.9978 41.8781C18.3582 41.4867 18.7289 41.0615 19.1282 40.6622C19.6208 40.167 20.0382 40.1437 20.6578 40.4263C21.9023 40.9759 23.1597 41.5048 24.4274 41.9818C25.1015 42.2411 25.3711 42.5315 25.3789 43.26C25.3789 43.82 25.3789 44.3774 25.3789 44.94H30.603C30.6193 44.8945 30.6315 44.8477 30.6393 44.8C30.6393 44.3256 30.6393 43.8511 30.6393 43.3793C30.6393 42.503 30.8985 42.2437 31.6763 41.9456C32.9 41.4893 34.1056 40.9811 35.306 40.4444C35.9904 40.1333 36.3897 40.1307 36.9237 40.683C37.3126 41.0822 37.6574 41.523 38.0023 41.9196L41.873 38.0593Z" fill="#E45412"/>
<path d="M38.3704 53.8715C39.2545 54.5507 39.2985 55.4918 38.4793 55.8859C38.2147 56 37.9211 56.029 37.6393 55.9689C36.5037 55.7096 35.376 55.4167 34.2482 55.1185C33.2656 54.8593 32.983 54.0996 33.5404 53.2363C34.1315 52.3159 34.7382 51.4059 35.3552 50.4933C35.8245 49.7804 36.4363 49.5885 37.0041 49.9748C37.5719 50.3611 37.6289 50.9756 37.1778 51.7067C37.1311 51.7818 37.0923 51.8596 36.9989 52.0256C37.2426 51.9426 37.4111 51.8959 37.5693 51.8285C45.8656 48.2585 51.1208 42.1244 53.1248 33.3044C53.4852 31.7178 53.5267 30.0559 53.6667 28.4252C53.7522 27.4348 54.0971 26.9189 54.8126 26.937C55.5282 26.9552 55.8756 27.4763 55.8652 28.477C55.7459 39.7263 48.7434 49.477 38.8656 53.6511C38.6971 53.7056 38.5519 53.7807 38.3704 53.8715Z" fill="#E45412"/>
<path d="M53.9052 17.6296C54.3822 17.0048 54.8541 16.8311 55.3882 17.08C55.9222 17.3289 56.1193 17.8344 55.9222 18.6174C55.663 19.6544 55.4037 20.6915 55.1445 21.7285C54.8852 22.7656 54.1074 23.0663 53.2078 22.4752L50.5556 20.7407C49.796 20.2404 49.5859 19.6467 49.9593 19.0633C50.3326 18.48 50.96 18.4204 51.7274 18.8922C51.7897 18.9311 51.8545 18.9622 51.9997 19.04C51.9348 18.8326 51.9037 18.6874 51.8467 18.5474C50.9313 16.2636 49.6962 14.1215 48.1782 12.1852C48.0434 12.0141 47.9008 11.8481 47.7711 11.6667C47.3226 11.0704 47.3693 10.4222 47.8852 10.023C48.0043 9.92982 48.1416 9.86275 48.2882 9.82609C48.4348 9.78943 48.5875 9.784 48.7364 9.81015C48.8853 9.83631 49.027 9.89347 49.1524 9.97792C49.2777 10.0624 49.3839 10.1722 49.4641 10.3004C50.3689 11.5526 51.2789 12.8022 52.093 14.1167C52.7722 15.2367 53.2985 16.4422 53.9052 17.6296Z" fill="#E45412"/>
<path d="M29.0837 0.181481C33.3564 0.358128 37.5318 1.51106 41.2897 3.55185C41.6941 3.76704 42.0882 4.03667 42.0519 4.52148C42.016 4.88806 41.8633 5.23342 41.6163 5.50667C41.2819 5.85148 40.823 5.76593 40.3952 5.56889C39.0367 4.95444 37.7015 4.27259 36.3067 3.76704C33.8177 2.87447 31.1963 2.40733 28.5522 2.38519C28.3336 2.38093 28.1155 2.36362 27.8989 2.33333C27.6239 2.30763 27.3693 2.17687 27.1882 1.96826C27.0072 1.75965 26.9135 1.48926 26.9267 1.21333C26.9348 0.935917 27.0505 0.67254 27.2494 0.478973C27.4483 0.285407 27.7147 0.176852 27.9922 0.176296C28.3552 0.163333 28.7208 0.181481 29.0837 0.181481Z" fill="#E45412"/>
<path d="M45.0671 6.32852C45.353 6.32642 45.6281 6.43711 45.833 6.63658C46.0378 6.83606 46.1557 7.10823 46.1611 7.39407C46.1557 7.68912 46.0349 7.97029 45.8245 8.17725C45.6141 8.38421 45.3311 8.50048 45.036 8.50111C44.7505 8.48965 44.4809 8.3673 44.2843 8.16007C44.0877 7.95284 43.9798 7.67709 43.9834 7.39148C43.9826 7.24993 44.0103 7.10967 44.0648 6.97901C44.1192 6.84835 44.1994 6.72995 44.3004 6.63082C44.4015 6.5317 44.5214 6.45387 44.6531 6.40194C44.7848 6.35001 44.9255 6.32505 45.0671 6.32852Z" fill="#E45412"/>
<path d="M37.3826 28.0337C37.3826 29.5296 37.3697 31.0256 37.3826 32.5215C37.4005 32.8032 37.3342 33.0838 37.192 33.3276C37.0497 33.5714 36.8381 33.7673 36.5841 33.8904C33.9915 35.3716 31.4041 36.8649 28.8219 38.3704C28.5812 38.5333 28.2972 38.6204 28.0065 38.6204C27.7158 38.6204 27.4318 38.5333 27.1911 38.3704C24.6193 36.8528 22.0371 35.3569 19.4445 33.8826C19.191 33.7586 18.9802 33.562 18.8389 33.3177C18.6976 33.0734 18.6322 32.7927 18.6511 32.5111C18.6632 29.521 18.6632 26.5309 18.6511 23.5407C18.6324 23.2506 18.7009 22.9615 18.8479 22.7106C18.9948 22.4598 19.2134 22.2586 19.4756 22.133C22.0682 20.6586 24.6556 19.1653 27.2378 17.653C27.472 17.4957 27.7477 17.4117 28.0298 17.4117C28.3119 17.4117 28.5877 17.4957 28.8219 17.653C31.4145 19.1688 34.0174 20.6725 36.6308 22.1641C36.878 22.2832 37.0841 22.4734 37.2227 22.7103C37.3612 22.9473 37.4259 23.2202 37.4085 23.4941C37.3722 25.0082 37.3826 26.5196 37.3826 28.0337ZM26.9215 35.6585C26.9215 33.3252 26.9215 31.1293 26.9034 28.9178C26.8779 28.8115 26.8304 28.7118 26.7638 28.6251C26.6972 28.5385 26.6132 28.4668 26.5171 28.4148C24.7774 27.3778 23.0248 26.3848 21.2748 25.3763C21.1582 25.3089 21.0311 25.257 20.9093 25.1974C20.8756 25.2752 20.8471 25.3089 20.8471 25.34C20.8471 27.5074 20.8471 29.6748 20.8471 31.8422C20.8649 31.9416 20.9035 32.0361 20.9602 32.1196C21.0169 32.2031 21.0905 32.2738 21.1763 32.327C21.98 32.8222 22.8071 33.2863 23.6263 33.7582C24.6997 34.3856 25.7678 35 26.9215 35.6585ZM29.1097 35.6585C31.1345 34.4893 33.0556 33.3874 34.9689 32.2648C35.0342 32.2104 35.0871 32.1427 35.1242 32.0663C35.1613 31.9899 35.1817 31.9064 35.1841 31.8215C35.1841 29.6904 35.1841 27.5593 35.1841 25.4281C35.1774 25.3614 35.1644 25.2954 35.1452 25.2311C35.0804 25.2311 35.0415 25.2311 35.0156 25.2311C33.123 26.3174 31.2278 27.4037 29.343 28.5056C29.2797 28.5477 29.2265 28.6032 29.1871 28.6681C29.1477 28.7331 29.123 28.8059 29.1148 28.8815C29.1071 31.1111 29.1097 33.3407 29.1097 35.6689V35.6585ZM21.9411 23.2426C23.9426 24.3989 25.8611 25.5137 27.7952 26.613C27.8913 26.6436 27.9927 26.6534 28.0928 26.6418C28.193 26.6301 28.2895 26.5974 28.3759 26.5456C29.9626 25.6511 31.5363 24.7307 33.1126 23.8233L34.0874 23.2504C32.0911 22.0967 30.1726 20.9844 28.2437 19.88C28.1737 19.848 28.0977 19.8315 28.0208 19.8315C27.9438 19.8315 27.8678 19.848 27.7978 19.88C25.8689 20.9689 23.9504 22.0837 21.9411 23.2426Z" fill="#E45412"/>
</svg>
