<svg width="50" height="50" viewBox="0 0 50 50" fill="none" xmlns="http://www.w3.org/2000/svg">
<path d="M6.44628 35.8868C5.61984 33.7967 4.91736 31.9524 4.17355 30.1491C4.04958 29.8623 3.67768 29.5754 3.38842 29.5344C2.64462 29.4524 1.8595 29.4934 1.11569 29.4934C0.413216 29.4934 0 29.2065 0 28.4278C0 26.0508 0 23.6327 0 21.2557C0 20.559 0.330578 20.2311 1.03306 20.2311C1.81818 20.2311 2.64462 20.2721 3.42975 20.1901C3.719 20.1491 4.0909 19.8623 4.21488 19.5754C4.95868 17.7721 5.66116 15.9278 6.52893 13.7967C6.03306 13.3459 5.28926 12.6901 4.54546 12.0344C4.00826 11.5426 4.00826 11.0508 4.54546 10.518C6.23967 8.83766 7.93388 7.19832 9.58678 5.51799C10.1653 4.94422 10.6612 4.94422 11.1983 5.51799C11.8595 6.21471 12.5207 6.87045 13.0579 7.40324C15.124 6.62455 17.0248 5.92783 18.9256 5.14914C19.1736 5.06717 19.3802 4.65734 19.4215 4.37045C19.5041 3.59177 19.4628 2.81308 19.4628 1.99341C19.4628 1.37865 19.7521 1.0098 20.4545 1.0098C22.8926 1.0098 25.3719 1.0098 27.8099 1.0098C28.5537 1.0098 28.8017 1.37865 28.843 2.03439C28.8843 3.018 28.595 4.20652 29.0496 4.90324C29.5041 5.51799 30.7438 5.55897 31.6529 5.92783C32.2314 6.13275 32.8099 6.41963 33.3884 6.66553C33.9256 6.91143 34.4215 7.19832 35.124 7.56717C35.9504 6.70652 36.8182 5.84586 37.6033 4.94422C37.7686 4.7393 37.7273 4.28848 37.6446 4.0016C37.1901 2.23931 38.2231 0.436029 40 0.067176C41.7769 -0.301676 43.4711 0.886848 43.7603 2.69013C44.0909 4.82127 41.9422 6.70652 39.8347 6.05078C39.1322 5.84586 38.8017 6.00979 38.3884 6.46061C37.6033 7.28029 36.7769 8.01799 36.0331 8.83766C35.5372 9.32947 35.0826 9.45242 34.4628 9.04258C32.562 7.81307 30.4959 6.95242 28.2645 6.5016C27.562 6.37865 27.2727 5.96881 27.3141 5.23111C27.3554 4.37045 27.3141 3.55078 27.3141 2.60816C25.2066 2.60816 23.2231 2.60816 21.1157 2.60816C21.1157 3.5098 21.1157 4.41143 21.1157 5.27209C21.1157 5.92783 20.8264 6.29668 20.1653 6.46061C17.9339 6.91143 15.8678 7.77209 13.9669 9.0016C13.3471 9.41143 12.8926 9.32947 12.3967 8.79668C11.8182 8.18193 11.2397 7.56717 10.7025 7.03438C9.21488 8.50979 7.80992 9.90324 6.19835 11.5016C6.73554 11.9524 7.35537 12.5672 8.01653 13.1409C8.55372 13.6327 8.59504 14.1245 8.22314 14.6983C6.98347 16.5836 6.1157 18.6327 5.66116 20.8459C5.53719 21.5016 5.12397 21.7885 4.46281 21.7475C3.59504 21.7475 2.68594 21.7475 1.73553 21.7475C1.73553 23.7967 1.73553 25.7639 1.73553 27.895C2.6033 27.895 3.47107 27.936 4.38017 27.895C5.12397 27.8541 5.41322 28.2229 5.70248 28.9196C6.44628 30.9278 7.27273 32.936 8.18182 34.8623C8.5124 35.6 8.55372 36.0918 7.93388 36.5836C7.31405 37.1163 6.69422 37.6901 6.19835 38.1409C7.72727 39.6573 9.17355 41.0918 10.7025 42.6082C11.1983 42.0754 11.8595 41.4197 12.4793 40.7639C12.8926 40.3131 13.3471 40.2721 13.8843 40.6C15.8264 41.8295 17.8926 42.7311 20.1653 43.182C20.8264 43.3049 21.1157 43.7147 21.1157 44.3705C21.1157 45.2311 21.1157 46.1328 21.1157 47.0344C23.1818 47.0344 25.1653 47.0344 27.3141 47.0344C27.3141 46.1328 27.3554 45.2721 27.3141 44.4115C27.2727 43.7147 27.562 43.3049 28.2645 43.182C30.4959 42.7311 32.562 41.8705 34.4628 40.6409C35.0413 40.2721 35.4959 40.3131 35.9504 40.8049C36.7769 41.6656 37.6446 42.4852 38.4711 43.3049C38.843 43.6738 39.1322 43.8787 39.7521 43.6738C41.5289 43.1 43.3058 44.1656 43.719 45.9279C44.0909 47.5262 43.0165 49.2475 41.405 49.6164C39.6281 50.0262 37.8926 48.8377 37.6033 47.0344C37.562 46.6656 37.5207 46.2147 37.686 45.8869C37.9752 45.1902 37.8099 44.7803 37.2727 44.2885C36.5289 43.5918 35.8678 42.8131 35.3719 42.2803C33.2231 43.1 31.3223 43.7967 29.4628 44.5754C29.2149 44.6574 28.9669 45.0672 28.9256 45.3131C28.843 46.0918 28.9256 46.8705 28.8843 47.6902C28.8843 48.3459 28.5537 48.7147 27.8512 48.7147C25.4545 48.7147 23.0165 48.7147 20.6198 48.7147C19.8347 48.7147 19.5455 48.3459 19.5455 47.6492C19.5455 46.9115 19.5868 46.1328 19.5041 45.3951C19.4628 45.1082 19.2562 44.7393 19.0083 44.6164C17.1074 43.8377 15.2066 43.141 13.0992 42.3213C12.6033 42.8541 11.9421 43.5098 11.281 44.2475C10.7438 44.8213 10.2479 44.8213 9.66942 44.2475C8.01653 42.6082 6.36364 40.9278 4.66942 39.2885C4.04958 38.7147 4.09091 38.1819 4.71074 37.6082C5.24793 36.9934 5.90909 36.3786 6.44628 35.8868ZM42.0248 3.09996C42.0248 2.28029 41.3223 1.62455 40.4959 1.62455C39.6694 1.62455 38.9669 2.28029 38.9669 3.09996C38.9256 3.96062 39.6694 4.65734 40.5372 4.61635C41.3636 4.57537 42.0661 3.91964 42.0248 3.09996ZM40.5372 45.1492C39.7107 45.1492 39.0083 45.7639 38.9669 46.5836C38.9256 47.4443 39.6281 48.141 40.5372 48.141C41.3636 48.141 42.0661 47.4852 42.0661 46.6656C42.0661 45.8459 41.3636 45.1492 40.5372 45.1492Z" fill="#E45412"/>
<path d="M34.0083 25.7229C33.8843 26.3786 33.7603 27.0344 33.595 27.8131C34.7521 27.8131 35.8264 27.7721 36.9422 27.8541C37.438 27.895 37.9752 28.1 38.3058 28.4278C39.876 29.9442 41.405 31.5016 42.8926 33.059C43.3058 33.4688 43.6364 33.6327 44.2562 33.4278C45.6612 32.977 47.1074 33.6327 47.8099 34.8623C48.5124 36.0918 48.3058 37.6082 47.2727 38.5918C46.2397 39.6164 44.6694 39.7803 43.4298 39.0016C42.2314 38.2639 41.7355 36.8295 42.1074 35.395C42.1901 35.0672 42.1074 34.5754 41.9008 34.3295C40.4959 32.8131 39.0083 31.3377 37.5207 29.9032C37.2314 29.6573 36.7769 29.5754 36.405 29.4114C36.3223 29.3704 36.1983 29.4114 36.1157 29.4114C34.1322 29.2065 32.686 29.6164 31.3223 31.4196C28.595 34.9852 23.4711 35.7229 19.4215 33.6737C15.3719 31.6246 13.2231 27.0344 14.2562 22.6491C15.2479 18.3049 19.2149 15.1082 23.6777 15.0262C27.4793 14.9442 30.3719 16.5836 32.438 19.6983C32.7273 20.1491 33.0579 20.3131 33.595 20.395C36.0331 20.7639 37.9339 20.0672 39.4215 18.018C40.0413 17.1573 40.9091 16.4196 41.6942 15.6819C42.1488 15.2311 42.3141 14.8623 42.1074 14.1655C41.5703 12.5672 42.6033 10.8459 44.2562 10.395C45.7851 9.94422 47.438 10.7639 48.0165 12.3213C48.595 13.8377 47.8512 15.6409 46.281 16.2147C45.6198 16.4606 44.8347 16.4606 44.1736 16.2967C43.6364 16.1737 43.3471 16.2557 42.9752 16.6245C41.4463 18.1819 39.9587 19.7393 38.3884 21.2557C38.0165 21.6245 37.3967 21.8705 36.8595 21.9114C35.8264 21.9934 34.7521 21.9524 33.595 21.9524C33.719 22.6901 33.843 23.3459 33.9669 24.0426C37.2314 24.0426 40.4959 24.0426 43.7603 24.0426C44.8347 22.1983 45.9917 21.5016 47.5207 21.8704C48.9669 22.1983 49.9587 23.4278 50 24.8213C50.0413 26.2147 49.0909 27.4442 47.7686 27.8541C46.3636 28.2639 44.876 27.7311 44.2149 26.4196C43.8843 25.8049 43.5537 25.6819 42.9339 25.6819C40.0413 25.7229 37.1901 25.6819 34.2975 25.7229C34.2149 25.6819 34.1736 25.6819 34.0083 25.7229ZM24.0496 16.5836C19.4215 16.5836 15.6612 20.2721 15.6612 24.9032C15.6612 29.4524 19.3802 33.1819 23.9669 33.1819C28.6364 33.2229 32.3554 29.5344 32.3967 24.9032C32.438 20.2721 28.719 16.5836 24.0496 16.5836ZM45.3719 24.8213C45.3306 25.6409 45.9917 26.3377 46.8182 26.3786C47.6446 26.4196 48.4298 25.6819 48.4298 24.8623C48.4298 24.0426 47.7273 23.3459 46.9008 23.3459C46.1157 23.3459 45.4132 24.0016 45.3719 24.8213ZM46.6529 13.3868C46.6529 12.5672 46.0331 11.8705 45.2066 11.8705C44.3802 11.8295 43.6777 12.4442 43.6364 13.3049C43.595 14.2065 44.2562 14.8623 45.124 14.8623C45.9917 14.8623 46.6529 14.2475 46.6529 13.3868ZM46.6529 36.3786C46.6529 35.559 45.9917 34.9032 45.1653 34.9032C44.2975 34.9032 43.6777 35.518 43.6364 36.3786C43.6364 37.2803 44.2975 37.936 45.1653 37.936C46.0331 37.8541 46.6942 37.1983 46.6529 36.3786Z" fill="#E45412"/>
<path d="M24.0496 10.2721C26.405 10.2721 28.6364 10.8049 30.7438 11.8705C31.1983 12.1164 31.5702 12.1983 32.1074 11.9114C33.3471 11.2557 34.876 11.5836 35.8264 12.6491C36.7355 13.7147 36.8595 15.2311 36.0744 16.3786C35.2893 17.5672 33.8017 18.059 32.5207 17.6082C31.1157 17.1164 30.2479 15.8868 30.4545 14.4114C30.5372 13.6327 30.2893 13.3049 29.6281 13.018C24.5455 10.9278 19.7934 11.4606 15.6198 14.9852C11.4876 18.5098 10.0413 23.1 11.5289 28.3049C13.0165 33.5508 16.6529 36.6655 22.0661 37.6491C24.6281 38.1 27.0661 37.6901 29.4215 36.7065C30.1653 36.3786 30.5372 36.0918 30.4132 35.1491C30.2066 33.5508 31.405 32.1983 32.9752 31.9114C34.5041 31.6655 36.0331 32.6491 36.4876 34.1655C36.9008 35.6409 36.157 37.2803 34.6694 37.7721C33.8843 38.018 32.9339 37.895 32.1074 37.6901C31.6529 37.5672 31.3223 37.4852 30.8678 37.7311C22.0661 42.1574 11.7769 37.2803 9.66942 27.7311C7.68595 18.8786 14.7521 10.2721 24.0496 10.2721ZM33.4298 16.2147C34.2562 16.2147 34.9587 15.559 34.9587 14.7393C35 13.9196 34.3388 13.2229 33.5124 13.1819C32.6033 13.1409 31.9422 13.7967 31.9422 14.6983C31.9422 15.518 32.562 16.1737 33.4298 16.2147ZM34.9587 35.1491C35 34.3295 34.3802 33.6327 33.5537 33.5508C32.7273 33.5098 32.0248 34.1245 31.9422 34.9442C31.8595 35.8459 32.5207 36.5426 33.3884 36.5836C34.2562 36.5836 34.9174 35.9688 34.9587 35.1491Z" fill="#E45412"/>
<path d="M24.0496 17.7721C28.0579 17.7721 31.2397 20.9278 31.1983 24.9032C31.1983 28.8786 28.0165 32.0344 24.0083 31.9934C20.0413 31.9934 16.8182 28.7967 16.8182 24.8623C16.8595 20.9278 20.0826 17.7311 24.0496 17.7721ZM24.0083 19.3295C20.9091 19.3295 18.4298 21.8295 18.4711 24.9442C18.5124 27.977 20.9917 30.436 24.0496 30.436C27.1901 30.436 29.6694 27.977 29.6281 24.8623C29.6281 21.7475 27.1488 19.3295 24.0083 19.3295Z" fill="#E45412"/>
<path d="M22.6446 26.0918C22.9752 26.2967 23.1818 26.5016 23.4711 26.5836C23.8017 26.6655 24.1736 26.6245 24.5041 26.5836C24.5868 26.5836 24.7107 26.1327 24.6281 26.0918C24.3802 25.9278 24.0909 25.7229 23.843 25.6819C22.8512 25.559 22.1488 25.1082 21.8595 24.1655C21.5703 23.1819 21.9008 22.3623 22.7686 21.7475C22.9752 21.5836 23.0579 21.2967 23.2231 21.0918C23.4711 20.8049 23.719 20.395 24.0083 20.395C24.2562 20.395 24.5455 20.8049 24.7934 21.0508C25.0413 21.2967 25.2066 21.5426 25.4545 21.7885C25.8678 22.1573 26.4463 22.5262 26.0331 23.1409C25.6612 23.7147 25.1653 23.5918 24.6694 23.1819C24.5455 23.059 24.2562 22.977 24.1322 23.018C23.843 23.1 23.6364 23.3049 23.3884 23.4688C23.595 23.6737 23.8017 24.0016 24.0083 24.0016C25.0826 24.0836 25.8678 24.4934 26.157 25.559C26.4463 26.6245 26.0331 27.4442 25.0826 28.059C24.876 28.1819 24.9174 28.5918 24.7521 28.7967C24.5868 29.0016 24.3388 29.2885 24.1322 29.3295C23.8843 29.3704 23.4298 29.1655 23.3884 29.0016C23.3058 28.2229 22.6446 28.018 22.2314 27.5672C22.0248 27.3623 21.9422 26.9114 21.9835 26.6245C22.0661 26.4606 22.3967 26.2967 22.6446 26.0918Z" fill="#E45412"/>
</svg>
