<svg width="50" height="42" viewBox="0 0 50 42" fill="none" xmlns="http://www.w3.org/2000/svg">
<path d="M42.1807 23.6551C46.0696 24.3773 48.683 26.4699 49.7038 30.2662C51.0927 35.4167 47.4677 40.6111 42.1621 41.1458C39.0302 41.4653 36.4469 40.3611 34.4121 37.9745C34.3178 37.8463 34.1932 37.7434 34.0494 37.6752C33.9056 37.6069 33.7471 37.5753 33.5881 37.5833C23.1745 37.5957 12.7578 37.5957 2.33807 37.5833C0.699183 37.5833 -0.00683594 36.8889 -0.00683594 35.2407V2.34028C0.000108507 0.719908 0.724645 0 2.35428 0H39.7941C41.4584 0 42.1807 0.715278 42.1807 2.36343V23.6597V23.6551ZM1.34039 9.23611V9.83565C1.34039 18.3063 1.34039 26.777 1.34039 35.2477C1.34039 36.1736 1.43992 36.2639 2.35659 36.2639H33.2779C32.0371 33.3542 32.0996 30.5648 33.6946 27.9097C35.2895 25.2546 37.7316 23.9005 40.8103 23.6343V9.23611H1.34039ZM1.34039 7.84722H40.8103C40.8103 7.69907 40.8404 7.58102 40.8404 7.46296C40.8404 5.69136 40.8404 3.92052 40.8404 2.15046C40.8404 1.51157 40.6483 1.33333 39.9862 1.33333C27.3844 1.33333 14.7817 1.33333 2.17835 1.33333C1.52326 1.33333 1.3427 1.51389 1.34039 2.16435C1.34039 3.71065 1.34039 5.25463 1.34039 6.79398V7.84722ZM48.6552 32.4236C48.6543 30.9518 48.2175 29.5133 47.4 28.2895C46.5825 27.0656 45.4209 26.1113 44.0617 25.5468C42.7025 24.9823 41.2065 24.833 39.7625 25.1177C38.3186 25.4024 36.9912 26.1083 35.948 27.1464C34.9047 28.1845 34.1922 29.5083 33.9004 30.9509C33.6085 32.3934 33.7504 33.8901 34.3082 35.2521C34.8659 36.6141 35.8145 37.7804 37.0343 38.604C38.2541 39.4275 39.6904 39.8714 41.1621 39.8796C42.145 39.8882 43.1198 39.7016 44.0301 39.3307C44.9403 38.9598 45.7679 38.4119 46.4649 37.7189C47.1619 37.0258 47.7143 36.2012 48.0903 35.2931C48.4663 34.3849 48.6583 33.4112 48.6552 32.4282V32.4236Z" fill="#E45412"/>
<path d="M14.2571 27.0255C14.4677 26.6782 14.6575 26.3542 14.8566 26.037C15.2015 25.4907 15.0881 25.1736 14.47 25.0532C13.2547 24.8218 13.1483 24.919 13.1529 23.4329C13.1529 22.8588 13.1529 22.287 13.1321 21.7153C13.1135 21.1968 13.3311 20.8935 13.852 20.8102C14.1066 20.7685 14.3612 20.706 14.6112 20.6389C14.6936 20.6225 14.7707 20.5861 14.8357 20.5328C14.9006 20.4796 14.9515 20.4112 14.9838 20.3336C15.016 20.256 15.0287 20.1717 15.0206 20.0881C15.0126 20.0045 14.9841 19.9241 14.9376 19.8542C14.9029 19.794 14.8589 19.7384 14.8219 19.6806C14.1112 18.6296 14.1112 18.6296 14.9816 17.7361C15.4052 17.3009 15.8265 16.8611 16.2524 16.4306C16.6784 16 16.9006 15.9676 17.4376 16.3102C17.6436 16.4375 17.8404 16.5787 18.051 16.7014C18.124 16.7527 18.2091 16.7841 18.2979 16.7924C18.3868 16.8006 18.4762 16.7856 18.5574 16.7486C18.6386 16.7116 18.7087 16.6541 18.7608 16.5816C18.8129 16.5092 18.8451 16.4244 18.8543 16.3356C19.1135 14.9699 18.9538 14.8843 20.6274 14.8981C21.1668 14.8981 21.7038 14.8981 22.2478 14.8796C22.3514 14.8641 22.4571 14.87 22.5583 14.897C22.6596 14.924 22.7542 14.9716 22.8362 15.0367C22.9183 15.1018 22.9861 15.1831 23.0354 15.2756C23.0847 15.368 23.1144 15.4696 23.1228 15.5741C23.176 15.8449 23.2223 16.1204 23.2987 16.3866C23.3177 16.4661 23.3557 16.5399 23.4094 16.6016C23.4631 16.6633 23.531 16.7111 23.6072 16.7409C23.6834 16.7707 23.7656 16.7816 23.847 16.7727C23.9283 16.7638 24.0062 16.7354 24.0742 16.6898C24.3057 16.5486 24.5371 16.3866 24.7686 16.2269C24.8411 16.164 24.9255 16.1166 25.0168 16.0874C25.1081 16.0581 25.2044 16.0477 25.2999 16.0568C25.3953 16.0659 25.4879 16.0943 25.5721 16.1402C25.6562 16.1862 25.7302 16.2487 25.7895 16.3241C26.3797 16.9097 26.9793 17.4815 27.5788 18.0671C27.6541 18.1268 27.7169 18.2009 27.7635 18.2849C27.8102 18.369 27.8397 18.4614 27.8504 18.5569C27.8612 18.6525 27.853 18.7492 27.8262 18.8415C27.7995 18.9338 27.7547 19.0199 27.6946 19.0949C27.5441 19.3264 27.3867 19.5579 27.2432 19.7894C27.1897 19.8612 27.1561 19.9459 27.1458 20.035C27.1355 20.124 27.1489 20.2141 27.1846 20.2963C27.2203 20.3785 27.277 20.4498 27.3491 20.503C27.4211 20.5563 27.506 20.5896 27.595 20.5995C29.2524 20.831 28.9839 21.0625 29.0371 22.3704C29.0557 22.9074 29.0371 23.4468 29.0649 23.9907C29.0795 24.0943 29.0728 24.1998 29.0454 24.3007C29.018 24.4017 28.9704 24.496 28.9055 24.578C28.8406 24.6601 28.7597 24.7281 28.6677 24.7779C28.5758 24.8278 28.4746 24.8584 28.3705 24.8681C28.1159 24.919 27.8589 24.9606 27.6089 25.0255C27.5202 25.0388 27.4364 25.075 27.3659 25.1306C27.2955 25.1862 27.2407 25.2592 27.2071 25.3424C27.1734 25.4256 27.162 25.5161 27.174 25.605C27.1861 25.694 27.2211 25.7782 27.2756 25.8495C27.284 25.8639 27.2933 25.8779 27.3034 25.8912C28.1737 27.1042 28.0834 27.0694 27.0858 28.0787C26.7084 28.463 26.3358 28.8495 25.9561 29.2361C25.4932 29.6991 25.2941 29.7153 24.7316 29.3588C24.5418 29.2384 24.3566 29.1088 24.1645 28.9931C23.7964 28.7616 23.4145 28.9144 23.352 29.3287C23.0927 31.044 22.889 30.7176 21.5325 30.7731C20.9955 30.7917 20.4561 30.794 19.9121 30.8056C19.8123 30.8171 19.7112 30.8084 19.6148 30.7801C19.5183 30.7517 19.4286 30.7043 19.3509 30.6406C19.2731 30.5769 19.209 30.4982 19.1623 30.4093C19.1155 30.3203 19.0871 30.2228 19.0788 30.1227C19.0256 29.8495 18.9746 29.5764 18.9006 29.3102C18.8828 29.2276 18.8447 29.1508 18.7898 29.0868C18.7348 29.0227 18.6647 28.9733 18.5858 28.9432C18.507 28.9131 18.4218 28.9031 18.3381 28.9143C18.2544 28.9254 18.1748 28.9573 18.1066 29.0069C16.8311 29.7708 16.8311 29.7708 15.7617 28.7245C15.3774 28.3472 14.9839 27.9815 14.6043 27.5926C14.4711 27.4148 14.3548 27.2249 14.2571 27.0255ZM25.1228 17.5625C24.5117 18.0694 23.9654 18.3472 23.0672 17.9977C22.1691 17.6481 22.0441 16.9815 21.8983 16.2569H20.2108C20.1413 17.0579 19.9399 17.6458 19.0534 18.0185C18.1668 18.3912 17.6159 18.0347 17.0557 17.6481L15.7987 18.7639C15.9844 19.0091 16.1545 19.2658 16.308 19.5324C16.4029 19.7245 16.5186 19.9954 16.4561 20.1597C16.1506 20.9745 16.0209 21.9745 14.801 21.9792C14.7282 21.9987 14.6613 22.0356 14.606 22.0869C14.5508 22.1381 14.5088 22.202 14.4839 22.2731C14.4492 22.7361 14.47 23.1991 14.47 23.7292C15.3057 23.7708 15.8821 23.9861 16.2594 24.8611C16.6367 25.7361 16.301 26.3009 15.9191 26.8218L17.051 28.1296C17.683 27.5625 18.2478 27.3472 19.1344 27.6921C20.0603 28.0486 20.1205 28.7338 20.2918 29.4213H21.977C22.0348 28.5949 22.2733 28.0324 23.1344 27.6505C24.0441 27.2361 24.5672 27.6852 25.1344 28.0278L26.3821 26.8704C25.845 26.2407 25.5904 25.6852 25.9376 24.787C26.2941 23.8611 26.9631 23.7801 27.6807 23.6296V21.9213C26.477 22.0856 26.0603 21.2963 25.7663 20.3657C25.7663 20.3495 25.7455 20.3356 25.7455 20.3194C25.7594 20.0718 25.7015 19.7894 25.801 19.5856C26.264 18.6597 26.2802 18.6597 25.5325 17.9421C25.4052 17.8241 25.2779 17.706 25.1228 17.5625Z" fill="#E45412"/>
<path d="M25.1899 13.2222C25.2756 13.5532 25.3543 13.8333 25.4214 14.1134C25.5163 14.5208 25.4214 14.8611 24.9839 14.9792C24.5464 15.0972 24.2756 14.8935 24.1552 14.4769C23.9376 13.7052 23.7239 12.9336 23.514 12.162C23.4781 12.0723 23.4628 11.9755 23.4692 11.8791C23.4756 11.7826 23.5037 11.6888 23.5512 11.6045C23.5988 11.5203 23.6646 11.4479 23.7439 11.3925C23.8232 11.3372 23.9139 11.3003 24.0094 11.2847C24.7733 11.0579 25.5402 10.841 26.3103 10.6343C26.7223 10.5255 27.0534 10.6667 27.1691 11.0972C27.2848 11.5278 27.058 11.7917 26.6575 11.9282C26.4816 11.9861 26.3034 12.0347 26.1714 12.0741C27.0047 12.6505 27.9145 13.1481 28.6691 13.8194C32.3728 17.1042 33.7455 21.2269 32.4191 25.9815C31.0927 30.7361 27.7779 33.5648 22.889 34.4907C22.3924 34.5697 21.8915 34.6184 21.389 34.6366C20.7918 34.6736 20.4492 34.4375 20.426 34.0116C20.4029 33.5856 20.7154 33.3356 21.3219 33.3171C23.6809 33.2624 25.9522 32.4127 27.768 30.9058C29.5838 29.3989 30.8376 27.323 31.3262 25.0145C31.8149 22.7061 31.5097 20.3002 30.4603 18.1868C29.4108 16.0734 27.6786 14.3763 25.5441 13.3704C25.4631 13.3194 25.3543 13.287 25.1899 13.2222Z" fill="#E45412"/>
<path d="M13.1135 15.8056C13.061 15.9647 12.996 16.1195 12.9191 16.2685C12.6876 16.6296 12.433 16.9884 12.1691 17.3333C12.1232 17.4096 12.0615 17.4752 11.9883 17.5259C11.915 17.5765 11.8319 17.6109 11.7443 17.6269C11.6567 17.6429 11.5667 17.64 11.4803 17.6186C11.3939 17.5971 11.3131 17.5575 11.2432 17.5023C11.1698 17.4614 11.106 17.4054 11.0559 17.338C11.0057 17.2706 10.9704 17.1934 10.9523 17.1114C10.9341 17.0294 10.9335 16.9445 10.9506 16.8623C10.9676 16.78 11.0018 16.7023 11.051 16.6343C11.2918 16.2128 11.5775 15.8185 11.9029 15.4583C12.0048 15.3781 12.1235 15.3219 12.2501 15.2938C12.3768 15.2658 12.5081 15.2666 12.6344 15.2963C12.8381 15.3588 12.9631 15.6412 13.1135 15.8056Z" fill="#E45412"/>
<path d="M9.35428 21.6551C9.38668 21.4236 9.42372 21.0046 9.50937 20.5995C9.59502 20.1944 9.86122 19.9375 10.2941 20.0301C10.727 20.1227 10.8751 20.4352 10.8172 20.8565C10.764 21.2338 10.6969 21.6088 10.6529 21.9884C10.602 22.4167 10.3705 22.6597 9.93992 22.6528C9.50937 22.6458 9.3265 22.3264 9.35428 21.6551Z" fill="#E45412"/>
<path d="M11.5742 27.2685C11.3983 27.4491 11.2409 27.7477 11.0395 27.7801C10.8381 27.8125 10.4029 27.6991 10.3033 27.5208C10.0462 27.0526 9.86571 26.5462 9.76863 26.0208C9.77749 25.8836 9.82017 25.7507 9.89288 25.634C9.96558 25.5172 10.066 25.4203 10.1853 25.3519C10.3097 25.32 10.4403 25.3207 10.5643 25.354C10.6884 25.3872 10.8018 25.4518 10.8936 25.5417C11.158 26.1018 11.3854 26.6786 11.5742 27.2685Z" fill="#E45412"/>
<path d="M17.3867 32.662C18.0209 32.8403 18.5071 32.9583 18.9793 33.125C19.0546 33.1475 19.1246 33.1847 19.1855 33.2344C19.2463 33.2841 19.2967 33.3454 19.3337 33.4147C19.3707 33.484 19.3936 33.56 19.4011 33.6382C19.4086 33.7164 19.4006 33.7953 19.3774 33.8704C19.37 33.949 19.346 34.0252 19.3071 34.094C19.2682 34.1628 19.2153 34.2226 19.1517 34.2696C19.0882 34.3165 19.0154 34.3496 18.9383 34.3665C18.8611 34.3835 18.7812 34.384 18.7038 34.3681C18.1626 34.2767 17.6342 34.1213 17.1297 33.9051C17.0268 33.8186 16.9476 33.7074 16.8994 33.5818C16.8512 33.4563 16.8357 33.3206 16.8543 33.1875C16.9191 32.9514 17.2409 32.794 17.3867 32.662Z" fill="#E45412"/>
<path d="M12.9492 29.7894C13.133 29.8502 13.3087 29.9334 13.4723 30.037C13.8149 30.3287 14.1459 30.6366 14.4608 30.963C14.5247 31.0167 14.5768 31.0832 14.6135 31.1582C14.6503 31.2332 14.671 31.3151 14.6742 31.3986C14.6775 31.482 14.6633 31.5653 14.6325 31.6429C14.6017 31.7206 14.555 31.791 14.4955 31.8495C14.4434 31.9207 14.3766 31.9797 14.2996 32.0227C14.2227 32.0657 14.1373 32.0916 14.0495 32.0986C13.9616 32.1056 13.8733 32.0936 13.7904 32.0634C13.7076 32.0332 13.6323 31.9855 13.5696 31.9236C13.1995 31.6372 12.8612 31.312 12.5603 30.9537C12.4928 30.8502 12.4478 30.7336 12.4283 30.6116C12.4088 30.4896 12.4151 30.3648 12.4469 30.2454C12.5001 30.0579 12.7709 29.9398 12.9492 29.7894Z" fill="#E45412"/>
<path d="M18.3334 5.30555C18.176 5.30555 17.977 5.3588 17.8705 5.28472C17.6552 5.12269 17.3566 4.90046 17.3427 4.6875C17.3288 4.47454 17.5927 4.22454 17.7918 4.03704C17.8959 3.94444 18.1251 3.98148 18.2964 3.98148C24.4523 3.98148 30.6081 3.98148 36.764 3.98148C36.9353 3.98148 37.1668 3.94676 37.2663 4.04167C37.4584 4.22222 37.6899 4.4838 37.6876 4.70833C37.6853 4.93287 37.4075 5.13426 37.2015 5.27778C37.0834 5.3588 36.8659 5.30555 36.6922 5.30555H18.3334Z" fill="#E45412"/>
<path d="M5.78715 4.68519C5.72233 5.06482 5.514 5.32407 5.0927 5.2963C5.00653 5.29956 4.92067 5.28413 4.84104 5.25106C4.7614 5.21799 4.68987 5.16806 4.63136 5.10471C4.57285 5.04137 4.52875 4.9661 4.5021 4.88409C4.47545 4.80208 4.46687 4.71527 4.47696 4.62963C4.47196 4.54221 4.48617 4.45475 4.51859 4.37341C4.55101 4.29207 4.60085 4.21882 4.66462 4.1588C4.72838 4.09879 4.80452 4.05347 4.88767 4.02604C4.97083 3.9986 5.05898 3.98971 5.14594 4C5.54178 4.00926 5.75937 4.26389 5.78715 4.68519Z" fill="#E45412"/>
<path d="M9.00011 4.64352C8.97233 5.02315 8.76863 5.28704 8.36816 5.2963C8.28172 5.30654 8.19407 5.29777 8.11137 5.27058C8.02867 5.2434 7.95291 5.19846 7.8894 5.13892C7.82589 5.07938 7.77617 5.00668 7.74371 4.9259C7.71125 4.84512 7.69684 4.75823 7.7015 4.6713C7.68994 4.5838 7.698 4.49482 7.72509 4.41082C7.75218 4.32682 7.79762 4.2499 7.85812 4.18564C7.91861 4.12137 7.99265 4.07137 8.07487 4.03927C8.15708 4.00716 8.2454 3.99375 8.33344 4C8.72233 3.9838 8.95613 4.21991 9.00011 4.64352Z" fill="#E45412"/>
<path d="M12.22 4.68519C12.2207 4.77044 12.2035 4.85489 12.1695 4.93307C12.1355 5.01126 12.0855 5.08143 12.0226 5.13904C11.9598 5.19665 11.8855 5.24041 11.8047 5.2675C11.7238 5.29459 11.6382 5.3044 11.5534 5.2963C11.4662 5.3013 11.3791 5.28716 11.298 5.25485C11.2169 5.22255 11.1439 5.17288 11.0841 5.10933C11.0243 5.04577 10.9792 4.96989 10.9519 4.88702C10.9246 4.80414 10.9157 4.71628 10.926 4.62963C10.9197 4.54259 10.9326 4.45521 10.9639 4.37374C10.9952 4.29227 11.0441 4.21872 11.1071 4.15834C11.1701 4.09797 11.2457 4.05226 11.3285 4.02449C11.4112 3.99672 11.4991 3.98756 11.5858 3.99769C11.9839 4.00694 12.2015 4.25695 12.22 4.68519Z" fill="#E45412"/>
<path d="M40.1066 33.4907C41.3358 32.3542 42.5372 31.2569 43.7177 30.1389C44.308 29.581 44.6436 29.4699 44.9862 29.8218C45.3288 30.1736 45.2316 30.4931 44.6807 31.0602L40.977 34.8588C40.4723 35.3727 40.1807 35.3796 39.6598 34.8958C38.9654 34.2477 38.2709 33.5995 37.5765 32.9421C37.2061 32.5926 37.1598 32.1852 37.4307 31.8981C37.7015 31.6111 38.0904 31.6204 38.4839 31.9815C39.0788 32.5278 39.6691 33.0833 40.1066 33.4907Z" fill="#E45412"/>
<path d="M17.72 22.7963C17.7277 21.9024 18.0901 21.0482 18.7276 20.4216C19.3651 19.7949 20.2254 19.4472 21.1193 19.4549C22.0132 19.4625 22.8674 19.825 23.4941 20.4625C24.1207 21.1 24.4684 21.9603 24.4608 22.8542C24.4307 24.7199 22.8774 26.2546 21.0603 26.2106C20.1659 26.1966 19.3132 25.8301 18.6877 25.1907C18.0622 24.5513 17.7144 23.6908 17.72 22.7963ZM21.1043 20.8102C20.8348 20.8058 20.5672 20.8555 20.3173 20.9564C20.0674 21.0572 19.8403 21.2071 19.6493 21.3972C19.4583 21.5873 19.3074 21.8138 19.2054 22.0633C19.1035 22.3127 19.0525 22.5801 19.0557 22.8495C19.0566 23.2512 19.1764 23.6436 19.3999 23.9772C19.6234 24.3109 19.9407 24.571 20.3118 24.7247C20.6828 24.8784 21.0911 24.9188 21.4851 24.8409C21.8791 24.763 22.2412 24.5702 22.5259 24.2869C22.8105 24.0035 23.0049 23.6423 23.0846 23.2486C23.1643 22.855 23.1258 22.4465 22.9737 22.0748C22.8217 21.703 22.5631 21.3845 22.2304 21.1595C21.8977 20.9345 21.5059 20.8129 21.1043 20.8102Z" fill="#E45412"/>
</svg>
