<svg width="50" height="48" viewBox="0 0 50 48" fill="none" xmlns="http://www.w3.org/2000/svg">
<path d="M20.0648 37.8174H3.02778C1.04861 37.8174 0 36.7665 0 34.7896V8.63225C0 6.66465 1.0625 5.59752 3.03241 5.59752C9.00309 5.59752 14.9738 5.59752 20.9444 5.59752C21.1484 5.58894 21.3526 5.60369 21.5532 5.6415C21.6586 5.65892 21.7595 5.69693 21.8502 5.75336C21.9408 5.8098 22.0195 5.88356 22.0816 5.97041C22.1437 6.05727 22.1881 6.15552 22.2123 6.25955C22.2364 6.36358 22.2398 6.47135 22.2222 6.57669C22.2169 6.78494 22.1313 6.98307 21.9834 7.12973C21.8354 7.27638 21.6365 7.36021 21.4282 7.36373C21.2241 7.37801 21.0194 7.38187 20.8148 7.3753H3.13657C2.03009 7.3753 1.78704 7.60678 1.78472 8.71326C1.78472 17.3784 1.78472 26.0435 1.78472 34.7086C1.78472 35.8012 2.0162 36.0327 3.13426 36.0327H44.3125C45.456 36.0327 45.6667 35.8197 45.6667 34.66C45.6667 32.4285 45.6667 30.1978 45.6667 27.9679C45.6603 27.7455 45.686 27.5233 45.7431 27.3082C45.7964 27.1166 45.9191 26.9518 46.0872 26.8457C46.2553 26.7396 46.4569 26.6998 46.6528 26.7341C46.8509 26.7407 47.0397 26.8198 47.1835 26.9563C47.3273 27.0928 47.416 27.2773 47.4329 27.4748C47.4522 27.6594 47.4576 27.8451 47.4491 28.0304C47.4491 30.2434 47.3796 32.4609 47.4699 34.6693C47.5532 36.7341 46.125 37.866 44.3264 37.8429C38.9514 37.7734 33.5764 37.8174 28.2014 37.8174H27.4861C27.4861 38.7619 27.4653 39.6693 27.4861 40.5674C27.5023 41.1045 27.6273 41.6369 27.6551 42.1739C27.6759 42.6114 27.8866 42.704 28.2824 42.7318C31.7014 42.9633 35.0856 43.4262 38.3218 44.6276C39.1159 44.9367 39.8891 45.297 40.6366 45.7063C41.2292 46.0165 41.3889 46.5211 41.1343 46.9957C40.8796 47.4702 40.4398 47.5836 39.838 47.2711C36.1782 45.3545 32.1991 44.785 28.1574 44.5072C24.7243 44.2591 21.2764 44.297 17.8495 44.6207C14.7917 44.9216 11.7708 45.4262 8.91204 46.623C8.50331 46.8001 8.10456 46.9995 7.71759 47.2202C7.10417 47.5605 6.58796 47.4887 6.31481 47.0026C6.04167 46.5165 6.22222 46.0304 6.83102 45.6716C8.33565 44.785 9.97917 44.2642 11.6574 43.8406C14.1511 43.2369 16.695 42.8634 19.2569 42.7248C19.5625 42.704 19.7523 42.6415 19.7731 42.3012C19.875 40.8267 19.9699 39.3545 20.0648 37.8174ZM21.6319 42.5582H25.8356C25.7616 40.9702 25.6875 39.417 25.6042 37.8591H21.7593C21.7593 38.66 21.7755 39.4216 21.7593 40.1739C21.7431 40.9262 21.6782 41.7364 21.6319 42.5582Z" fill="#E45412"/>
<path d="M24.0417 22.5165C24.0949 22.285 24.0833 22.0003 24.2153 21.8221C24.5718 21.3429 24.3681 20.9355 24.1759 20.4818C23.787 19.5559 23.4444 18.6299 23.0579 17.704C22.9736 17.5544 22.834 17.4438 22.669 17.3961C21.7037 17.1091 21.1759 16.4702 21.1481 15.4471C21.1319 14.7781 21.1296 14.1068 21.1481 13.4378C21.1759 12.4239 21.6944 11.792 22.6713 11.491C22.8345 11.4411 22.9727 11.3311 23.0579 11.1832C23.4884 10.16 23.912 9.13224 24.2917 8.08826C24.3815 7.82545 24.3757 7.53939 24.2755 7.28039C24.0906 6.91273 24.024 6.49684 24.0849 6.08983C24.1458 5.68282 24.3313 5.30465 24.6157 5.00724C25.1034 4.4949 25.6034 3.9949 26.1157 3.50725C26.4149 3.19445 26.8133 2.9951 27.243 2.94318C27.6727 2.89126 28.1072 2.98999 28.4722 3.22252C28.5743 3.29157 28.6942 3.32962 28.8174 3.33208C28.9406 3.33455 29.0619 3.30132 29.1667 3.23641C30.1481 2.79814 31.1404 2.3861 32.1435 2.0003C32.4051 1.89845 32.5625 1.8128 32.6435 1.50956C32.736 1.07701 32.9774 0.690642 33.3255 0.417795C33.6736 0.144949 34.1065 0.00293329 34.5486 0.0165045C35.2431 -0.00432887 35.9259 -0.00664369 36.6134 0.0165045C37.5856 0.0512267 38.2338 0.602153 38.5139 1.53271C38.584 1.72705 38.7279 1.88592 38.9144 1.97484C39.9576 2.40848 41.0108 2.81974 42.0741 3.20863C42.2705 3.27447 42.4839 3.2679 42.6759 3.19012C43.5509 2.77113 44.3472 2.86141 45.037 3.52345C45.5324 4.0003 46.0208 4.48641 46.4954 4.9841C47.1597 5.67854 47.2454 6.47484 46.8171 7.34289C46.7306 7.53189 46.7166 7.74609 46.7778 7.94475C47.1968 9.05123 47.6435 10.1508 48.1019 11.2434C48.1895 11.3703 48.3217 11.4596 48.4722 11.4934C49.4583 11.7897 49.9815 12.4656 49.9907 13.5003C49.9907 14.1315 49.9907 14.7634 49.9907 15.3961C49.9907 16.4309 49.4537 17.1022 48.4653 17.3961C48.3053 17.4455 48.1713 17.5562 48.0926 17.704C47.6505 18.7434 47.2199 19.7873 46.8264 20.8475C46.7478 21.0927 46.7593 21.3578 46.8588 21.5952C47.2222 22.3799 47.1597 23.1878 46.5694 23.8267C46.0532 24.3846 45.5116 24.9262 44.9491 25.4471C44.3125 26.035 43.5046 26.0975 42.7176 25.7295C42.4963 25.6392 42.25 25.631 42.0231 25.7063C41.0139 26.0744 40.0208 26.491 39.0139 26.8637C38.7361 26.9679 38.5509 27.0605 38.4769 27.3984C38.3885 27.8126 38.1608 28.1839 37.8318 28.4505C37.5029 28.7172 37.0924 28.863 36.669 28.8637C35.9444 28.8892 35.2176 28.8846 34.4931 28.8637C34.0698 28.8698 33.6572 28.7307 33.324 28.4696C32.9909 28.2084 32.7572 27.841 32.662 27.4285C32.6309 27.2895 32.5605 27.1623 32.4591 27.0622C32.3577 26.962 32.2297 26.8931 32.0903 26.8637C31.1366 26.5119 30.1921 26.1253 29.2662 25.7063C28.9537 25.5651 28.7407 25.4934 28.4097 25.6901C27.625 26.1531 26.7755 26.0188 26.1088 25.3776C25.5835 24.9041 25.0872 24.3993 24.6227 23.866C24.3241 23.498 24.1597 23.0165 23.9282 22.5859L24.0417 22.5165ZM45.2824 22.5327C44.6643 21.4262 44.706 21.0096 45.2708 19.873C45.6798 19.0197 46.0324 18.1405 46.3264 17.241C46.5579 16.5721 46.8773 16.0258 47.5602 15.7619C47.7639 15.6832 47.9792 15.6369 48.1713 15.579V13.2642C47.0532 13.1045 46.5509 12.417 46.2593 11.4123C46.0362 10.6057 45.7176 9.82859 45.3102 9.09752C44.7824 8.15539 44.5949 7.27113 45.375 6.27345C44.8634 5.79197 44.375 5.3128 43.8542 4.86836C43.7801 4.83756 43.7002 4.82365 43.6201 4.82766C43.54 4.83166 43.4618 4.85347 43.3912 4.8915C42.6759 5.30354 42.0023 5.2341 41.2731 4.8915C40.3056 4.42854 39.3056 4.02808 38.2986 3.66465C37.5417 3.38919 37.0162 2.97021 36.8079 2.15771C36.7684 2.06878 36.708 1.99074 36.6318 1.93027C36.5556 1.8698 36.4659 1.8287 36.3704 1.81049C35.8542 1.7665 35.331 1.81049 34.8102 1.78965C34.5069 1.78965 34.3982 1.89845 34.3333 2.1878C34.1644 2.94243 33.6551 3.37299 32.9444 3.6415C31.8889 4.03734 30.8472 4.47021 29.8171 4.92854C29.3032 5.16002 28.7338 5.3915 28.2731 5.08595C27.4884 4.56743 27.088 4.99799 26.6528 5.5165C26.4699 5.72715 26.2338 5.89382 26.0741 6.11836C26.0302 6.18628 26.0028 6.26347 25.994 6.34383C25.9851 6.42418 25.9951 6.50549 26.0231 6.58132C26.5116 7.3753 26.3912 8.10678 25.9653 8.89613C25.54 9.63616 25.2021 10.4231 24.9583 11.241C24.6667 12.3197 24.1991 13.1322 22.963 13.285C22.963 13.9934 22.9444 14.66 22.9769 15.3267C22.999 15.4057 23.0398 15.4782 23.0958 15.5382C23.1518 15.5982 23.2213 15.644 23.2986 15.6716C24.1551 15.8822 24.5718 16.4471 24.8426 17.2572C25.1691 18.2212 25.5612 19.1617 26.0162 20.0721C26.3935 20.8359 26.4792 21.5373 26.0301 22.2873C25.996 22.3531 25.9782 22.4262 25.9782 22.5003C25.9782 22.5744 25.996 22.6475 26.0301 22.7133C26.4931 23.2318 26.9977 23.7248 27.4792 24.2179C28.2917 23.623 29.0347 23.5744 29.8657 23.9656C30.8519 24.4285 31.8634 24.8475 32.8889 25.2179C33.6481 25.4934 34.1644 25.9309 34.3912 26.7202C34.4287 26.808 34.4864 26.8856 34.5596 26.9467C34.6328 27.0079 34.7195 27.0508 34.8125 27.0721C35.3519 27.1118 35.8935 27.1118 36.4329 27.0721C36.5206 27.0564 36.6032 27.0199 36.6737 26.9655C36.7442 26.911 36.8006 26.8404 36.838 26.7596C37.0463 25.873 37.6343 25.4447 38.4583 25.1878C39.2793 24.9626 40.0745 24.6523 40.831 24.2619C41.8125 23.7063 42.7338 23.4123 43.6806 24.1832C44.213 23.6068 44.7315 23.0836 45.2824 22.5327Z" fill="#E45412"/>
<path d="M6.7662 28.1947C7.6088 29.0281 8.36343 29.7688 9.11574 30.5096C9.46991 30.866 9.5787 31.2711 9.28935 31.7156C9.22015 31.8278 9.12585 31.9224 9.01386 31.992C8.90187 32.0616 8.77526 32.1043 8.64399 32.1166C8.51272 32.129 8.38037 32.1107 8.25738 32.0632C8.13438 32.0157 8.02409 31.9403 7.93518 31.8429C6.9213 30.8599 5.91821 29.8606 4.92593 28.8452C4.83429 28.7638 4.76115 28.6637 4.71143 28.5516C4.6617 28.4396 4.63654 28.3182 4.63764 28.1956C4.63874 28.073 4.66606 27.9521 4.71779 27.8409C4.76951 27.7298 4.84442 27.631 4.9375 27.5512C5.91435 26.5528 6.90123 25.5667 7.89815 24.5929C7.97837 24.5014 8.07696 24.4279 8.18751 24.3771C8.29805 24.3263 8.41807 24.2993 8.53972 24.298C8.66138 24.2967 8.78194 24.3211 8.89356 24.3695C9.00517 24.4179 9.10533 24.4893 9.1875 24.579C9.5463 24.9494 9.54167 25.4471 9.125 25.8707C8.37963 26.6392 7.59954 27.3822 6.7662 28.1947Z" fill="#E45412"/>
<path d="M20.9144 28.2063C20.0787 27.3869 19.294 26.6461 18.5486 25.8915C18.0856 25.4285 18.1181 24.8313 18.5949 24.5026C18.7634 24.3661 18.9782 24.3005 19.1942 24.3195C19.4102 24.3385 19.6103 24.4407 19.7523 24.6045C20.7569 25.5929 21.7569 26.5859 22.7407 27.5975C22.8316 27.6796 22.9039 27.7801 22.9526 27.8924C23.0013 28.0048 23.0254 28.1262 23.0232 28.2486C23.021 28.371 22.9926 28.4915 22.9399 28.602C22.8871 28.7125 22.8114 28.8105 22.7176 28.8892C21.7485 29.8722 20.7654 30.8506 19.7685 31.8244C19.6889 31.9163 19.5907 31.9902 19.4804 32.0414C19.3701 32.0926 19.2502 32.1199 19.1286 32.1214C19.0071 32.123 18.8865 32.0987 18.775 32.0503C18.6634 32.0019 18.5634 31.9304 18.4815 31.8406C18.1181 31.4702 18.1227 30.9748 18.537 30.5535C19.2917 29.785 20.0671 29.0466 20.9144 28.2063Z" fill="#E45412"/>
<path d="M13.1528 32.1137C13.0065 32.121 12.8606 32.0926 12.7278 32.0309C12.5949 31.9693 12.4791 31.8762 12.3902 31.7598C12.3014 31.6434 12.2422 31.507 12.2177 31.3626C12.1933 31.2182 12.2044 31.07 12.25 30.9309C12.6782 29.1646 13.1227 27.4031 13.5602 25.6415C13.6104 25.4071 13.6722 25.1753 13.7454 24.9471C13.811 24.7313 13.9575 24.5492 14.1541 24.4388C14.3508 24.3284 14.5825 24.2982 14.8009 24.3545C15.0218 24.4043 15.2141 24.5392 15.3363 24.7298C15.4585 24.9204 15.5006 25.1515 15.4537 25.373C14.963 27.41 14.4568 29.4424 13.9352 31.4702C13.8932 31.6483 13.794 31.8078 13.6526 31.924C13.5113 32.0403 13.3357 32.1069 13.1528 32.1137Z" fill="#E45412"/>
<path d="M44.0185 14.4795C43.9906 16.7203 43.0736 18.8583 41.4694 20.423C39.8651 21.9878 37.705 22.8512 35.4641 22.8232C33.2233 22.7953 31.0853 21.8783 29.5206 20.2741C27.9558 18.6698 27.0924 16.5097 27.1204 14.2688C27.1759 9.63919 31.0556 5.93549 35.787 6.0003C40.3241 6.0628 44.0787 9.92854 44.0185 14.4795ZM42.2338 14.4239C42.2314 13.103 41.8365 11.8126 41.0993 10.7165C40.3621 9.62046 39.3158 8.7682 38.0933 8.26797C36.8707 7.76773 35.5271 7.64208 34.233 7.90698C32.9389 8.17187 31.7527 8.81536 30.8251 9.75573C29.8974 10.6961 29.2701 11.8909 29.0229 13.1885C28.7756 14.4861 28.9196 15.8279 29.4364 17.0435C29.9532 18.2591 30.8197 19.2937 31.9256 20.0159C33.0316 20.7382 34.3273 21.1154 35.6481 21.0998C37.4055 21.0839 39.085 20.3726 40.3192 19.1215C41.5534 17.8704 42.2418 16.1813 42.2338 14.4239Z" fill="#E45412"/>
</svg>
