<svg width="40" height="49" viewBox="0 0 40 49" fill="none" xmlns="http://www.w3.org/2000/svg">
<path d="M19.588 48.8313L17.2159 47.6452C13.2856 45.7847 9.79726 43.1103 7.02981 39.7615L6.86702 39.5987L5.28563 41.1801C4.89028 41.715 4.14609 41.8545 3.58795 41.4592C3.47168 41.3894 3.37865 41.2964 3.30888 41.1801L1.07633 38.9708C0.541443 38.5522 0.44842 37.808 0.843769 37.2731C0.913536 37.1801 0.983304 37.1103 1.07633 37.0406C1.79726 36.3196 2.49493 35.5987 3.21586 34.901C3.44842 34.6685 3.49493 34.5057 3.21586 34.2033C1.05307 29.9475 -0.0399521 25.2266 0.0065595 20.4359V9.57543C-0.0864638 8.36613 0.820513 7.29636 2.05307 7.20334C2.16935 7.20334 2.28563 7.20334 2.40191 7.20334C3.75075 7.20334 5.12284 6.94753 6.47168 6.80799C7.09958 6.80799 7.44842 6.80799 7.54144 7.27311C7.68098 7.62195 7.49493 8.01729 7.12284 8.15683C7.05307 8.18008 6.96005 8.20334 6.89028 8.20334C5.40191 8.34288 3.91354 8.45916 2.33214 8.57544C1.68098 8.57544 1.47168 8.78474 1.47168 9.4359C1.49493 13.5987 1.49493 17.8545 1.49493 21.901C1.61121 25.9475 2.65772 29.901 4.51819 33.4824L5.774 32.1568C6.12284 31.8313 6.63447 31.5057 6.72749 31.1336C6.82051 30.7615 6.47168 30.2964 6.26237 29.7847C5.05307 26.7615 4.42516 23.5289 4.40191 20.2499V12.2499C4.40191 11.4359 4.65772 11.1336 5.47167 11.0406C10.4717 10.4359 15.2391 8.52892 19.2624 5.48241C19.8205 5.08706 20.1228 5.11032 20.681 5.48241C23.9368 7.92427 27.681 9.6452 31.6577 10.5057C32.5182 10.6917 33.4019 10.8312 34.2856 10.9475C35.1693 11.0638 35.4717 11.3429 35.4717 12.2499V16.2499C35.4717 16.8545 35.2159 17.1801 34.7275 17.1568C34.2624 17.1336 34.0298 16.8545 34.0298 16.2731V12.4592C28.9135 11.7847 24.0763 9.83125 19.9368 6.76148C15.8438 9.83125 11.0066 11.7847 5.91354 12.4359C5.89028 12.5522 5.89028 12.6685 5.91354 12.7847C5.91354 15.8778 5.91354 18.9708 5.91354 22.0638C6.07633 24.8545 6.75074 27.5754 7.93679 30.1103H8.12284C9.16935 30.3196 9.49493 29.3894 10.0763 28.9708C9.65772 28.0638 9.21586 27.2266 8.86702 26.3661C8.63447 26.0406 8.70423 25.5754 9.02982 25.3429C9.07633 25.2964 9.14609 25.2731 9.1926 25.2499C9.61121 25.1103 9.93679 25.2499 10.1926 25.8778C10.4484 26.5057 10.9368 27.3894 11.3554 28.1103C11.7973 28.6452 11.7275 29.4359 11.1693 29.8778C11.1693 29.8778 11.1693 29.8778 11.1461 29.8778L9.93679 31.0406L11.0763 32.1568L12.1693 31.0173C12.5182 30.4592 13.2856 30.2731 13.8438 30.6452C13.9135 30.6917 13.9833 30.7382 14.0531 30.808C18.774 34.0638 25.2391 32.8545 28.4949 28.1336C31.7507 23.4126 30.5414 16.9475 25.8205 13.6917C21.0996 10.4359 14.6345 11.6452 11.3787 16.3661C10.6112 17.4592 10.0763 18.715 9.79726 20.0173C9.65772 20.7615 9.58795 21.5289 9.5647 22.2731C9.5647 22.9475 9.33214 23.2499 8.84377 23.2266C8.37865 23.2033 8.12284 22.9243 8.12284 22.2731C8.02981 15.7382 13.2856 10.3196 19.867 10.2033C26.4484 10.0871 31.867 15.3429 31.9833 21.9243C32.0763 28.0173 27.5647 33.2033 21.5182 33.9475C18.7973 34.2964 16.0298 33.6685 13.7275 32.1568C13.5182 31.9708 13.2159 31.9708 13.0298 32.1801C13.0066 32.2033 12.9833 32.2499 12.96 32.2964C12.8205 32.4824 12.6577 32.6452 12.4484 32.808C12.1926 33.0173 12.0531 33.3429 12.0996 33.6685C12.0996 33.994 11.96 34.3196 11.7507 34.5522C11.5647 34.7847 11.3321 34.9708 11.0763 35.1568C13.3787 38.0638 16.3321 40.3894 19.681 41.9708C19.867 42.0638 20.0763 42.0638 20.2856 41.9708C27.2624 38.7847 32.2391 32.3894 33.6345 24.8545C33.9368 23.2731 33.9368 21.6685 34.0996 20.0871C34.0996 19.8778 34.0996 19.5754 34.0996 19.4592C34.3089 19.2731 34.588 19.1801 34.8903 19.1801C35.2856 19.1801 35.4717 19.5522 35.4484 19.9708C35.4484 21.4126 35.4484 22.901 35.1228 24.3196C34.4252 28.9243 32.4717 33.2266 29.4484 36.7615C27.0531 39.6452 24.0298 41.9243 20.6112 43.4824C20.2159 43.6219 19.7973 43.6219 19.4252 43.4824C17.6577 42.7382 16.0066 41.7615 14.5182 40.5522C13.0066 39.3894 11.6112 38.0871 10.3787 36.6219L10.2159 36.4126L7.774 38.7382C8.30888 39.3429 8.86702 39.994 9.47167 40.6219C12.2159 43.3661 15.4484 45.5754 19.0066 47.1103C19.5647 47.3894 20.2159 47.3894 20.774 47.1103C24.2624 45.6685 27.4252 43.5289 30.1228 40.8778C34.4252 36.6917 37.2391 31.2266 38.1693 25.2964C38.4252 23.715 38.5414 22.1336 38.5414 20.5289C38.5414 16.901 38.5414 13.3894 38.5414 9.62195C38.5414 8.80799 38.4019 8.6452 37.588 8.62195C31.5647 8.55218 25.7507 6.34288 21.1926 2.41264C20.9368 2.20334 20.681 1.99404 20.4252 1.76148C20.1461 1.48241 19.9135 1.50567 19.6112 1.76148C18.4019 2.71497 17.2391 3.69171 15.8903 4.57543C14.2391 5.66846 12.4484 6.52892 10.588 7.15683C10.0531 7.34288 9.65772 7.15683 9.51819 6.80799C9.37865 6.45916 9.51819 5.99404 10.0996 5.80799C13.2391 4.62195 16.1461 2.87776 18.6577 0.621945C19.2391 -0.0989848 20.3089 -0.215264 21.0298 0.389387C21.1228 0.459155 21.1926 0.552178 21.2624 0.621945C23.3787 2.50567 25.7973 4.04055 28.4019 5.18009C31.1228 6.36613 34.0531 7.01729 37.0298 7.11032C37.4252 7.11032 37.8438 7.11032 38.2159 7.11032C39.1228 7.24985 39.8205 7.92427 39.9833 8.83125C40.0066 8.99404 40.0066 9.15683 39.9833 9.34288C39.9833 13.5754 39.9833 17.808 39.9833 22.0406C39.8205 26.994 38.3787 31.808 35.774 35.994C32.4484 41.5289 27.4484 45.8545 21.4717 48.3196L20.5182 48.7847L19.588 48.8313ZM10.4019 33.7847L8.37865 31.7382L2.14609 37.994L4.16935 40.0173L10.4019 33.7847Z" fill="#E45412"/>
<path d="M19.9833 13.3661C24.867 13.4126 28.7973 17.4359 28.7507 22.3196C28.7042 27.2033 24.681 31.1336 19.7973 31.0871C14.9135 31.0406 10.9833 27.0173 11.0298 22.1336V22.1103C11.0763 17.2266 15.0763 13.3196 19.96 13.3661H19.9833ZM19.9833 29.5987C24.0763 29.5754 27.3787 26.2266 27.3554 22.1336C27.3321 18.0406 23.9833 14.7615 19.8903 14.7847C15.8205 14.808 12.5182 18.1336 12.5182 22.2033C12.5414 26.2964 15.8438 29.6219 19.96 29.6219H19.9833V29.5987Z" fill="#E45412"/>
<path d="M19.4484 21.1801L21.5414 19.0406C21.9368 18.4824 22.7042 18.3429 23.2624 18.7382C23.3787 18.8312 23.4717 18.9243 23.5647 19.0406L24.774 20.2499C25.2624 20.6685 25.2856 21.4126 24.867 21.901C24.8438 21.9243 24.7973 21.9708 24.774 21.994L20.5647 26.1568C19.9368 26.808 18.8903 26.8312 18.2391 26.2266C18.2159 26.2033 18.1926 26.1801 18.1693 26.1568L15.1926 23.0638C14.681 22.6452 14.6112 21.901 15.0298 21.3894C15.0763 21.3429 15.1228 21.2731 15.1926 21.2266L16.4252 19.994C16.8438 19.5057 17.5647 19.4126 18.0763 19.8312C18.1461 19.8778 18.1926 19.9475 18.2391 19.994L19.4484 21.1801ZM16.3554 22.1801L19.2391 25.0173C19.3787 25.0871 19.5414 25.0871 19.6577 25.0173L23.5414 21.1568L22.5182 20.0405C21.7275 20.8312 20.9833 21.6219 20.1461 22.4126C19.8205 22.8545 19.1926 22.9708 18.7507 22.6452C18.6577 22.5754 18.588 22.5057 18.5182 22.4126C18.1228 22.0173 17.7275 21.5522 17.3554 21.1801L16.3554 22.1801Z" fill="#E45412"/>
</svg>
