<svg width="50" height="50" viewBox="0 0 50 50" fill="none" xmlns="http://www.w3.org/2000/svg">
<path d="M19.9896 7.10483C20.1713 7.10369 20.1713 7.10369 20.3567 7.10254C22.1456 7.10633 22.1456 7.10633 22.5591 7.51987C22.6324 7.83115 22.6324 7.83115 22.5591 8.20346C22.259 8.47425 21.9305 8.68265 21.5826 8.88705C21.664 8.87296 21.7455 8.85886 21.8294 8.84433C23.4704 8.57365 25.0217 8.71699 26.563 9.37534C26.8058 9.56657 26.8474 9.62209 26.9048 9.93076C26.8558 10.2554 26.7963 10.3695 26.618 10.6327C26.3632 11.0207 26.2287 11.3476 26.2701 11.8167C26.3422 12.1124 26.4232 12.4041 26.5087 12.6961C26.742 13.519 26.8386 14.3825 26.679 15.2286C26.6396 15.4895 26.6385 15.5876 26.774 15.8176C26.8786 15.9471 26.9851 16.0752 27.0933 16.2017C27.5011 16.7465 27.6294 17.4975 27.5396 18.1644C27.3902 18.9921 27.0238 19.6472 26.3654 20.1797C25.9859 20.4335 25.6589 20.5711 25.1959 20.6058C25.1897 20.6604 25.1835 20.7151 25.1772 20.7714C24.955 22.226 24.102 23.4351 23.0219 24.3942C22.9349 24.4716 22.848 24.5491 22.7584 24.6289C22.6926 24.687 22.6269 24.7451 22.5591 24.805C22.6171 24.8201 22.6751 24.8351 22.7349 24.8506C23.3419 25.0081 23.9487 25.1668 24.5553 25.326C24.7813 25.3851 25.0074 25.4441 25.2335 25.5027C25.5598 25.5873 25.8858 25.6729 26.2117 25.7587C26.3118 25.7845 26.412 25.8102 26.5151 25.8367C28.2604 26.2995 29.6472 27.1535 30.5706 28.7314C31.159 29.8169 31.3761 31.136 31.64 32.3337C31.6743 32.4869 31.7086 32.6402 31.743 32.7934C31.8321 33.1907 31.9203 33.5883 32.0084 33.9858C32.0989 34.3939 32.1902 34.8017 32.2815 35.2096C32.4594 36.0056 32.6365 36.8017 32.813 37.598C32.8801 37.6016 32.9472 37.6053 33.0164 37.6091C33.1484 37.6187 33.1484 37.6187 33.283 37.6285C33.3703 37.6342 33.4575 37.6398 33.5474 37.6457C33.8238 37.7027 33.9178 37.7626 34.0826 37.9886C34.1206 38.2931 34.1318 38.4877 33.9788 38.7577C33.6954 38.9222 33.4276 38.8742 33.106 38.8675C33.1326 38.9751 33.1326 38.9751 33.1598 39.0848C34.0536 42.745 34.0536 42.745 33.3013 44.0433C33.2045 44.1741 33.107 44.3044 33.0084 44.4339C33.1133 44.4354 33.2183 44.4368 33.3264 44.4382C33.7158 44.4439 34.105 44.4514 34.4943 44.4596C34.6628 44.4628 34.8313 44.4655 34.9998 44.4678C35.242 44.471 35.4842 44.4761 35.7263 44.4816C35.8017 44.4822 35.8771 44.4829 35.9548 44.4835C36.4796 44.4979 36.4796 44.4979 36.6902 44.6576C36.9105 44.9478 36.8606 45.3043 36.8593 45.6546C36.8598 45.7359 36.8603 45.8172 36.8608 45.9009C36.8615 46.0726 36.8613 46.2443 36.8605 46.416C36.8597 46.6791 36.8625 46.9419 36.8656 47.2049C36.8657 47.3718 36.8657 47.5386 36.8654 47.7054C36.8665 47.7842 36.8676 47.8629 36.8687 47.944C36.8619 48.4888 36.8619 48.4888 36.656 48.7028C36.3625 48.8634 36.1613 48.8652 35.827 48.8653C35.6414 48.8665 35.6414 48.8665 35.452 48.8676C35.3144 48.867 35.1768 48.8663 35.0392 48.8657C34.8933 48.866 34.7473 48.8665 34.6014 48.8671C34.1998 48.8683 33.7982 48.8677 33.3966 48.8668C32.9637 48.8661 32.5308 48.8671 32.0979 48.8679C31.2496 48.8692 30.4014 48.8689 29.5531 48.8681C28.864 48.8674 28.1748 48.8673 27.4856 48.8677C27.3387 48.8677 27.3387 48.8677 27.1887 48.8678C26.9897 48.8679 26.7907 48.868 26.5917 48.8681C24.7243 48.8689 22.857 48.868 20.9897 48.8664C19.3862 48.8651 17.7827 48.8653 16.1792 48.8667C14.3185 48.8682 12.4579 48.8688 10.5972 48.8679C10.3989 48.8678 10.2006 48.8678 10.0024 48.8677C9.85603 48.8676 9.85603 48.8676 9.70674 48.8675C9.01808 48.8673 8.32942 48.8677 7.64076 48.8684C6.80199 48.8692 5.96323 48.869 5.12447 48.8674C4.69623 48.8667 4.26801 48.8664 3.83977 48.8673C3.44817 48.8682 3.0566 48.8677 2.665 48.8662C2.52293 48.8658 2.38085 48.866 2.23878 48.8667C2.04646 48.8676 1.85413 48.8665 1.66182 48.8653C1.55475 48.8653 1.44768 48.8652 1.33737 48.8652C1.07476 48.8285 1.07476 48.8285 0.897688 48.6919C0.637335 48.3406 0.666708 48.0083 0.664298 47.5872C0.663742 47.5125 0.663185 47.4378 0.662611 47.3609C0.661688 47.2028 0.66105 47.0447 0.660674 46.8866C0.659727 46.645 0.656698 46.4035 0.653617 46.162C0.652979 46.0084 0.652467 45.8548 0.652091 45.7012C0.650886 45.629 0.64968 45.5569 0.648438 45.4826C0.649697 45.1912 0.671683 44.9525 0.782768 44.6819C1.08612 44.4473 1.40656 44.4727 1.77476 44.4721C1.85238 44.4705 1.92999 44.4688 2.00996 44.4672C2.25773 44.4624 2.50543 44.4604 2.75323 44.4583C2.92127 44.4556 3.0893 44.4527 3.25734 44.4496C3.66913 44.4423 4.08089 44.4375 4.49273 44.4339C4.45904 44.3684 4.42535 44.3029 4.39064 44.2353C4.34653 44.1485 4.30242 44.0618 4.25698 43.9724C4.19134 43.8438 4.19134 43.8438 4.12437 43.7127C3.6061 42.6092 3.87312 41.4418 4.13579 40.2986C4.15899 40.1948 4.18219 40.0909 4.20609 39.9839C4.28217 39.6443 4.35938 39.3049 4.43665 38.9656C4.49037 38.7273 4.54403 38.4889 4.59764 38.2506C4.72417 37.689 4.85148 37.1275 4.9791 36.5661C5.10899 35.9944 5.23765 35.4223 5.36622 34.8503C5.47684 34.3585 5.58797 33.8668 5.69926 33.3752C5.75222 33.141 5.80505 32.9069 5.85774 32.6726C6.91417 27.9837 6.91417 27.9837 8.98492 26.6605C9.6647 26.2741 10.349 26.0351 11.1028 25.8365C11.26 25.7939 11.26 25.7939 11.4203 25.7505C11.7476 25.6621 12.0752 25.5754 12.4029 25.4886C12.6178 25.4307 12.8327 25.3727 13.0476 25.3147C13.2497 25.2606 13.4519 25.2067 13.6541 25.1529C13.7484 25.1276 13.8427 25.1023 13.9399 25.0763C14.0275 25.0534 14.1151 25.0304 14.2053 25.0068C14.3201 24.9765 14.3201 24.9765 14.4372 24.9456C14.649 24.9027 14.649 24.9027 15.0396 24.9027C14.9772 24.8402 14.9147 24.7778 14.8504 24.7135C14.806 24.6685 14.7615 24.6236 14.7157 24.5773C14.5949 24.4575 14.4717 24.3401 14.3472 24.224C13.355 23.2793 12.4823 22.0095 12.4029 20.6058C12.3223 20.5998 12.2418 20.5937 12.1587 20.5875C11.4258 20.4174 10.8611 19.9593 10.4498 19.3363C10.0208 18.5689 9.91438 17.7806 10.1236 16.9239C10.3341 16.3296 10.6648 15.8518 11.1334 15.43C11.2198 15.3931 11.3063 15.3563 11.3954 15.3183C11.6348 15.1645 11.6348 15.1645 11.665 14.9547C11.6817 14.7135 11.6841 14.4755 11.6827 14.2337C11.6871 14.0557 11.6923 13.8777 11.6983 13.6997C11.7012 13.6118 11.7041 13.5239 11.7071 13.4334C11.7873 11.7879 12.5221 10.1937 13.7106 9.05376C15.4775 7.51158 17.709 7.09048 19.9896 7.10483ZM14.1393 10.4442C13.2685 11.4487 12.9694 12.6937 12.9827 13.9957C12.9832 14.0773 12.9836 14.159 12.9841 14.2431C12.9852 14.4434 12.9869 14.6438 12.9888 14.8441C13.0638 14.7841 13.0638 14.7841 13.1402 14.7229C13.9953 14.045 14.7937 13.653 15.888 13.6539C15.9975 13.6537 15.9975 13.6537 16.1092 13.6535C16.6266 13.6579 17.1276 13.7052 17.6397 13.776C19.3571 14.0038 20.9385 13.6824 22.4401 12.8315C22.8063 12.6733 23.0433 12.6411 23.438 12.6956C23.6269 12.8578 23.6269 12.8578 23.7737 13.0924C23.8295 13.1807 23.8853 13.2691 23.9427 13.3602C24.4029 14.1627 24.8403 14.9658 25.1959 15.8206C25.6736 14.9607 25.5418 13.9916 25.2996 13.0802C25.0191 12.0206 24.9392 11.3072 25.2935 10.2542C24.0791 9.94837 22.8653 9.73093 21.6802 10.2542C21.5421 10.3409 21.4057 10.4304 21.2713 10.5228C20.9677 10.7283 20.9078 10.7427 20.5145 10.7364C20.4158 10.7062 20.3171 10.676 20.2154 10.6449C19.8943 10.0026 20.1516 9.06314 20.313 8.39877C18.0072 8.30674 15.7977 8.70034 14.1393 10.4442ZM22.2564 14.2564C20.4423 14.9782 18.5643 15.1703 16.6399 14.7914C15.7775 14.6249 15.0272 14.8621 14.2767 15.2957C13.4861 16.1541 13.3903 16.8934 13.4168 18.0156C13.4221 18.2488 13.4228 18.4816 13.4227 18.7149C13.4347 20.4407 13.8396 21.8586 15.0396 23.1449C16.2606 24.303 17.621 24.6755 19.2613 24.6398C20.6004 24.576 21.6773 23.9251 22.6568 23.0472C23.8419 21.584 24.1585 20.1417 24.1632 18.2916C24.1644 18.0735 24.1692 17.8555 24.1741 17.6374C24.1842 16.7446 24.0584 16.0337 23.6334 15.2347C23.5833 15.1357 23.5833 15.1357 23.5323 15.0347C23.4509 14.8789 23.3624 14.727 23.2732 14.5755C23.2165 14.4773 23.1597 14.3792 23.1012 14.278C23.0512 14.207 23.0013 14.136 22.9498 14.0628C22.6922 14.0628 22.4925 14.1617 22.2564 14.2564ZM11.8169 16.5042C11.4138 16.9774 11.2531 17.4075 11.2875 18.0278C11.3552 18.4127 11.4825 18.6321 11.7193 18.9456C11.8792 19.0479 12.0416 19.1464 12.2076 19.2386C12.2405 18.2779 12.2097 17.4316 11.9146 16.5042C11.8824 16.5042 11.8502 16.5042 11.8169 16.5042ZM26.0748 17.0902C25.6605 17.448 25.3264 17.7529 25.2416 18.3101C25.2444 18.6229 25.2589 18.9278 25.2935 19.2386C25.7658 19.0752 25.9227 18.8943 26.1724 18.4574C26.2585 18.1991 26.2859 18.0393 26.2884 17.7738C26.2905 17.6741 26.2905 17.6741 26.2926 17.5724C26.2808 17.3513 26.2808 17.3513 26.0748 17.0902ZM16.5044 25.8792C16.7987 26.8601 16.9928 27.4358 17.8716 27.93C18.4083 28.1486 18.8782 28.175 19.4341 28.0277C20.103 27.7275 20.5727 27.2667 20.8807 26.5995C21.0182 26.2667 21.0182 26.2667 20.9966 25.8792C19.5142 25.8792 18.0318 25.8792 16.5044 25.8792ZM14.6215 26.1728C14.5374 26.1944 14.4532 26.216 14.3665 26.2382C14.2755 26.262 14.1846 26.2858 14.0909 26.3103C13.9494 26.3472 13.9494 26.3472 13.805 26.3849C13.6047 26.4374 13.4045 26.4901 13.2043 26.543C12.9018 26.6227 12.5989 26.7005 12.2959 26.7784C10.6396 27.2112 9.08496 27.697 8.14217 29.2461C7.72545 30.0134 7.52779 30.8698 7.3403 31.7162C7.31548 31.8256 7.29066 31.935 7.26509 32.0477C7.18406 32.4057 7.10407 32.7639 7.02416 33.1222C6.96783 33.3728 6.91146 33.6234 6.85506 33.8739C6.73734 34.3974 6.62023 34.9211 6.50346 35.4448C6.36881 36.0486 6.23304 36.6521 6.09671 37.2556C5.96497 37.8388 5.83418 38.4223 5.70376 39.0058C5.64841 39.253 5.59281 39.5001 5.53695 39.7472C5.45901 40.0924 5.38214 40.4378 5.30554 40.7833C5.28242 40.8848 5.25929 40.9862 5.23546 41.0907C5.0504 41.9345 4.96352 42.6674 5.37163 43.4574C5.73352 43.9801 6.13918 44.3256 6.76197 44.4925C7.10365 44.542 7.4401 44.5437 7.78443 44.5411C7.85527 44.541 7.92611 44.5408 7.9991 44.5407C8.22395 44.5402 8.44879 44.5389 8.67364 44.5377C8.82667 44.5372 8.9797 44.5368 9.13274 44.5364C9.50664 44.5353 9.88054 44.5336 10.2544 44.5316C10.2251 44.4448 10.1958 44.3581 10.1656 44.2687C10.0775 44.0015 9.99557 43.7345 9.91875 43.4639C9.89383 43.3763 9.8689 43.2887 9.84322 43.1985C9.80508 43.0638 9.80508 43.0638 9.76617 42.9264C9.74074 42.8369 9.71531 42.7475 9.68911 42.6553C9.63972 42.4816 9.59038 42.3079 9.5411 42.1341C9.45376 41.8264 9.36587 41.5188 9.27788 41.2113C9.18146 41.2076 9.08503 41.204 8.98568 41.2002C8.79798 41.1906 8.79798 41.1906 8.6065 41.1808C8.48187 41.1751 8.35725 41.1694 8.22884 41.1636C8.12385 41.1471 8.01887 41.1306 7.9107 41.1136C7.71538 40.8206 7.71538 40.8206 7.7459 40.5155C7.81304 40.2347 7.81304 40.2347 7.9107 40.1371C8.07494 40.1143 8.23992 40.0968 8.40508 40.0821C8.53281 40.0708 8.53281 40.0708 8.66312 40.0593C8.73709 40.0527 8.81105 40.0462 8.88726 40.0394C8.741 39.1079 8.49595 38.2081 8.24112 37.3019C7.88505 36.0308 7.56438 34.8561 8.24715 33.6345C8.69698 33.0048 9.29232 32.5727 10.0591 32.4222C10.2922 32.4126 10.5255 32.4086 10.7588 32.4078C10.8646 32.4073 10.8646 32.4073 10.9726 32.4067C11.2091 32.4057 11.4456 32.4053 11.6821 32.4049C11.8517 32.4043 12.0213 32.4037 12.1908 32.403C12.7479 32.4009 13.3049 32.3999 13.862 32.3989C14.054 32.3985 14.246 32.3981 14.438 32.3977C15.3403 32.3959 16.2426 32.3945 17.145 32.3937C18.1852 32.3927 19.2255 32.3902 20.2657 32.3862C21.0706 32.3833 21.8754 32.3818 22.6802 32.3815C23.1605 32.3813 23.6408 32.3804 24.1211 32.3779C24.5734 32.3756 25.0257 32.3752 25.478 32.3762C25.6434 32.3763 25.8088 32.3757 25.9741 32.3743C27.0056 32.3664 27.8774 32.4438 28.7908 32.9715C29.5106 33.753 29.7261 34.4877 29.7239 35.5258C29.6923 36.088 29.5317 36.6221 29.3735 37.1599C29.2037 37.7107 29.2037 37.7107 29.1998 38.2816C29.2662 38.342 29.3327 38.4024 29.4012 38.4647C29.4948 38.5674 29.4948 38.5674 29.5904 38.6722C29.566 39.0384 29.566 39.0384 29.4927 39.3558C29.3296 39.389 29.3296 39.389 29.1631 39.4229C29.0463 39.4652 28.9295 39.5075 28.8091 39.5511C28.7447 39.7122 28.6802 39.8734 28.6138 40.0394C28.9683 40.0716 29.3228 40.1039 29.688 40.1371C29.8994 40.6537 29.8994 40.6537 29.8345 40.9336C29.688 41.1136 29.688 41.1136 29.3699 41.1731C29.2453 41.1777 29.1206 41.1822 28.9922 41.1869C28.8671 41.1924 28.742 41.1979 28.6131 41.2036C28.4684 41.2074 28.4684 41.2074 28.3209 41.2113C28.2982 41.291 28.2756 41.3708 28.2522 41.453C28.1675 41.7511 28.0827 42.0492 27.9978 42.3473C27.9612 42.4759 27.9246 42.6046 27.8881 42.7332C27.8354 42.9189 27.7825 43.1046 27.7296 43.2903C27.682 43.4575 27.682 43.4575 27.6335 43.6281C27.5437 43.9318 27.4463 44.2318 27.3443 44.5316C27.7889 44.5389 28.2335 44.5442 28.6782 44.5477C28.8292 44.5491 28.9802 44.5511 29.1311 44.5537C30.2633 44.5723 31.097 44.5466 31.9639 43.7324C32.4055 43.2592 32.5264 42.7246 32.5201 42.0902C32.4355 41.5444 32.3112 41.01 32.1844 40.4727C32.1509 40.3262 32.1175 40.1797 32.0842 40.0331C32.0031 39.6768 31.9203 39.3209 31.8365 38.9652C31.6426 38.9715 31.4487 38.9779 31.2547 38.9843C31.0552 38.9652 31.0552 38.9652 30.7623 38.7699C30.7317 38.4281 30.7317 38.4281 30.7623 38.0863C31.0128 37.8357 31.1995 37.8382 31.5435 37.7933C31.1573 35.9797 30.7658 34.1672 30.3547 32.3592C30.3175 32.1951 30.2806 32.0311 30.2439 31.8669C29.8667 30.1791 29.4074 28.7865 27.9302 27.7347C27.2709 27.3606 26.6158 27.1254 25.8825 26.9424C25.7846 26.9171 25.6868 26.8918 25.5859 26.8657C25.2771 26.7861 24.9679 26.708 24.6587 26.63C24.4484 26.5758 24.2381 26.5216 24.0278 26.4673C23.4544 26.32 23.4544 26.32 22.8805 26.1744C22.8041 26.155 22.7277 26.1357 22.6489 26.1158C22.4617 26.0676 22.4617 26.0676 22.2662 26.0746C22.2436 26.1501 22.2211 26.2256 22.1979 26.3034C21.8357 27.4602 21.3691 28.2397 20.3287 28.8955C19.5448 29.2995 18.6347 29.3333 17.782 29.1324C16.863 28.7905 16.1623 28.2275 15.7232 27.3441C15.5716 26.926 15.4456 26.5046 15.3326 26.0746C15.0651 26.0746 14.8777 26.1068 14.6215 26.1728ZM9.24126 34.2838C8.84674 34.997 8.95888 35.6674 9.16852 36.4235C9.18805 36.497 9.20759 36.5704 9.22771 36.6461C9.29192 36.8866 9.35753 37.1267 9.42322 37.3668C9.46857 37.5351 9.51385 37.7033 9.55906 37.8716C9.65376 38.2232 9.74913 38.5747 9.84501 38.926C9.96761 39.3754 10.0888 39.8251 10.2095 40.2749C10.3027 40.6221 10.3966 40.969 10.4907 41.316C10.5356 41.4817 10.5804 41.6475 10.6249 41.8133C10.6874 42.0453 10.7507 42.277 10.8142 42.5087C10.8323 42.5766 10.8504 42.6445 10.8691 42.7144C11.0693 43.4375 11.2986 43.8927 11.9146 44.3363C12.2686 44.5055 12.548 44.5562 12.939 44.557C13.0455 44.5577 13.152 44.5584 13.2617 44.5591C13.4355 44.5588 13.4355 44.5588 13.6129 44.5584C13.7357 44.5589 13.8585 44.5594 13.985 44.5599C14.3211 44.5612 14.6573 44.5613 14.9934 44.561C15.2745 44.5609 15.5555 44.5614 15.8365 44.5619C16.4997 44.563 17.163 44.563 17.8262 44.5624C18.5094 44.5618 19.1927 44.563 19.8759 44.5651C20.4634 44.5668 21.0508 44.5674 21.6383 44.5671C21.9888 44.5669 22.3392 44.5672 22.6897 44.5685C23.0808 44.57 23.4719 44.5691 23.863 44.5679C23.9784 44.5687 24.0939 44.5694 24.2129 44.5702C24.9548 44.5655 25.3986 44.4525 26.0442 44.0921C26.7091 43.3733 26.8528 42.1134 27.1013 41.1796C27.1421 41.0276 27.1829 40.8755 27.2237 40.7235C27.3086 40.4068 27.3932 40.0901 27.4775 39.7733C27.5852 39.3689 27.6938 38.9648 27.8026 38.5608C27.8869 38.2476 27.9706 37.9343 28.0542 37.621C28.094 37.472 28.134 37.323 28.1742 37.174C28.2303 36.9656 28.2857 36.757 28.341 36.5483C28.3883 36.371 28.3883 36.371 28.4366 36.1901C28.5941 35.4976 28.7072 34.9085 28.3209 34.2777C27.984 33.919 27.6552 33.6037 27.1499 33.581C27.0235 33.5806 26.8971 33.5801 26.7668 33.5797C26.6614 33.5792 26.6614 33.5792 26.5539 33.5786C26.3172 33.5775 26.0806 33.5772 25.8439 33.5768C25.6747 33.5762 25.5055 33.5755 25.3363 33.5749C24.8756 33.5732 24.4149 33.5721 23.9543 33.5713C23.6665 33.5708 23.3788 33.5702 23.091 33.5696C22.1909 33.5677 21.2908 33.5664 20.3906 33.5655C19.3513 33.5646 18.312 33.562 17.2727 33.5581C16.4696 33.5551 15.6665 33.5537 14.8634 33.5534C14.3837 33.5531 13.904 33.5523 13.4242 33.5498C12.9727 33.5475 12.5212 33.5471 12.0697 33.5481C11.9042 33.5482 11.7386 33.5475 11.5731 33.5462C11.3467 33.5445 11.1203 33.5452 10.8939 33.5465C10.7673 33.5462 10.6407 33.546 10.5103 33.5457C9.95268 33.622 9.59172 33.8319 9.24126 34.2838ZM1.95367 45.7035C1.95367 46.3158 1.95367 46.9281 1.95367 47.5589C13.0718 47.5589 24.19 47.5589 35.6451 47.5589C35.6451 46.9466 35.6451 46.3343 35.6451 45.7035C24.5269 45.7035 13.4087 45.7035 1.95367 45.7035Z" fill="#E45412"/>
<path d="M43.7088 5.76083C45.0237 6.86876 45.9412 8.52196 46.1219 10.2433C46.1348 10.5323 46.1379 10.819 46.1349 11.1083C46.1338 11.2617 46.1338 11.2617 46.1327 11.4183C46.0942 13.2423 45.4091 14.706 44.2173 16.0651C43.2367 17.2071 42.6186 18.511 42.4789 20.0194C42.5319 20.0572 42.5849 20.0949 42.6395 20.1339C42.7094 20.1847 42.7793 20.2356 42.8512 20.288C42.9204 20.3378 42.9895 20.3877 43.0607 20.439C43.3635 20.6915 43.5261 20.9147 43.6508 21.2889C43.6679 21.5752 43.6779 21.857 43.6813 22.1434C43.6842 22.2202 43.687 22.297 43.6899 22.3761C43.696 22.9437 43.5855 23.2637 43.2602 23.7303C42.8003 24.1566 42.4888 24.2301 41.8728 24.2118C41.753 24.211 41.6332 24.2103 41.5098 24.2095C41.2577 24.2074 41.0056 24.2016 40.7537 24.1919C40.3885 24.1935 40.0929 24.2047 39.7446 24.3163C39.5239 24.5807 39.4065 24.8187 39.2858 25.1403C39.1586 25.3905 39.1586 25.3905 38.9165 25.5301C38.6703 25.5858 38.6703 25.5858 38.4018 25.4576C38.1821 25.2928 38.1821 25.2928 38.0844 25.1952C38.0931 25.0462 38.1084 24.8977 38.1271 24.7496C38.1371 24.6689 38.147 24.5883 38.1573 24.5051C38.1654 24.4428 38.1736 24.3805 38.1821 24.3163C38.0757 24.3141 38.0757 24.3141 37.9672 24.312C37.6441 24.3047 37.3211 24.2952 36.998 24.2858C36.8307 24.2825 36.8307 24.2825 36.66 24.2791C36.0096 24.2583 35.492 24.2406 34.9941 23.7757C34.5619 23.2106 34.5457 22.8927 34.5383 22.1984C34.5354 22.1118 34.5326 22.0253 34.5297 21.9361C34.5239 21.3406 34.6038 20.9906 34.9594 20.5077C35.1793 20.3294 35.3848 20.2412 35.643 20.1171C35.6946 18.4852 34.888 17.1242 33.8356 15.9479C32.5588 14.4984 31.9714 12.727 32.0053 10.8054C32.0765 9.76559 32.3184 8.8275 32.811 7.91003C32.8519 7.83022 32.8928 7.75041 32.9349 7.66818C33.7912 6.11357 35.2329 4.9622 36.9087 4.39403C39.3516 3.70132 41.7126 4.22763 43.7088 5.76083ZM36.9125 5.7616C36.7854 5.81296 36.7854 5.81296 36.6558 5.86536C35.2187 6.51306 34.1734 7.72887 33.5922 9.17957C33.0586 10.6835 33.2038 12.2083 33.8085 13.6645C34.1081 14.2646 34.5105 14.7485 34.9484 15.2499C36.1994 16.6896 36.7024 18.2703 37.0102 20.1171C37.4936 20.1171 37.977 20.1171 38.475 20.1171C38.475 18.7636 38.475 17.41 38.475 16.0155C38.2172 15.8866 37.9594 15.7577 37.6938 15.6249C37.198 15.2062 36.9303 14.7714 36.8332 14.1295C36.7789 13.4425 36.9046 12.8073 37.3436 12.263C37.8557 11.7546 38.3486 11.5891 39.0671 11.566C39.7424 11.5937 40.2024 11.7056 40.6959 12.1726C41.2537 12.7837 41.3529 13.3194 41.3372 14.1379C41.2698 14.8429 40.9498 15.2573 40.4163 15.7004C40.2328 15.8202 40.2328 15.8202 39.7446 16.0155C39.7446 17.369 39.7446 18.7225 39.7446 20.1171C40.228 20.1171 40.7113 20.1171 41.2094 20.1171C41.2237 20.0072 41.2381 19.8973 41.2529 19.784C41.4921 18.0942 42.0173 16.6157 43.2052 15.3441C44.3671 14.0911 44.9665 12.6129 44.947 10.9076C44.8378 9.43169 44.2653 7.95062 43.1625 6.93347C41.7358 5.70793 40.2548 5.26404 38.4074 5.35147C37.877 5.39737 37.4008 5.55798 36.9125 5.7616ZM38.3774 12.9882C38.321 13.0264 38.2646 13.0647 38.2065 13.1041C38.0047 13.3967 37.9765 13.7159 37.9867 14.0624C38.159 14.5082 38.4425 14.7297 38.8656 14.9413C39.2654 14.9413 39.4848 14.8837 39.8239 14.6727C40.056 14.434 40.1559 14.2879 40.2328 13.9647C40.213 13.4881 40.0752 13.2306 39.7446 12.8905C39.2484 12.5544 38.8455 12.6555 38.3774 12.9882ZM35.8533 21.4221C35.6905 21.653 35.6983 21.8331 35.6979 22.1129C35.696 22.2054 35.6941 22.298 35.6922 22.3933C35.755 22.7343 35.8617 22.8326 36.1313 23.0468C36.4083 23.1044 36.4083 23.1044 36.7178 23.0942C36.8952 23.0951 36.8952 23.0951 37.0763 23.096C37.2036 23.0946 37.331 23.0932 37.4622 23.0918C37.5945 23.0915 37.7268 23.0914 37.8591 23.0915C38.136 23.0912 38.4129 23.0896 38.6898 23.087C39.0447 23.0836 39.3995 23.0829 39.7544 23.083C40.0274 23.083 40.3004 23.0819 40.5735 23.0805C40.7679 23.0796 40.9624 23.0792 41.1569 23.0789C41.3339 23.077 41.3339 23.077 41.5144 23.0751C41.6184 23.0744 41.7224 23.0736 41.8295 23.0729C42.1106 23.0649 42.1106 23.0649 42.3813 22.8514C42.4282 22.5309 42.4282 22.5309 42.4179 22.1678C42.4186 22.045 42.4194 21.9221 42.4202 21.7955C42.4009 21.6415 42.4009 21.6415 42.3813 21.4843C42.041 21.2574 41.9058 21.2638 41.5039 21.2621C41.3836 21.2612 41.2634 21.2603 41.1395 21.2593C41.0082 21.2593 40.8769 21.2594 40.7455 21.2596C40.6109 21.2592 40.4763 21.2588 40.3416 21.2583C40.0596 21.2576 39.7775 21.2576 39.4955 21.2581C39.1339 21.2587 38.7724 21.257 38.4108 21.2548C38.1328 21.2533 37.8549 21.2532 37.5769 21.2535C37.4436 21.2535 37.3103 21.253 37.1769 21.252C36.9906 21.2508 36.8043 21.2516 36.618 21.2526C36.459 21.2525 36.459 21.2525 36.2967 21.2524C36.0322 21.2678 36.0322 21.2678 35.8533 21.4221Z" fill="#E45412"/>
<path d="M20.3525 36.7345C20.7312 37.0024 20.967 37.2935 21.1925 37.6955C21.2831 37.8495 21.2831 37.8495 21.3756 38.0067C21.6063 38.7886 21.6018 39.6032 21.2169 40.3329C20.7911 41.0115 20.3172 41.4652 19.5323 41.6994C18.6314 41.8186 17.832 41.7679 17.0909 41.2111C16.5262 40.6989 16.158 40.1764 16.0804 39.4121C16.044 38.483 16.1552 37.8076 16.7815 37.1038C17.806 36.1318 19.1262 36.047 20.3525 36.7345ZM18.0675 37.6955C17.6916 38.003 17.4482 38.3106 17.2862 38.7697C17.2588 39.3159 17.4093 39.7249 17.7745 40.1369C18.1458 40.4094 18.4933 40.564 18.9586 40.5275C19.4481 40.4313 19.7967 40.2045 20.0999 39.8073C20.2899 39.3874 20.3301 39.0805 20.2647 38.6232C20.0226 38.0583 19.6502 37.7878 19.0928 37.549C18.6811 37.4901 18.4497 37.5326 18.0675 37.6955Z" fill="#E45412"/>
<path d="M46.388 36.3286C46.5884 36.6293 46.6266 36.7457 46.5623 37.095C46.2548 37.9379 45.504 38.7277 44.7278 39.1606C44.4338 39.2121 44.3312 39.1765 44.0442 39.063C43.8465 38.7663 43.7957 38.6322 43.8558 38.2832C44.0254 37.9155 44.3588 37.692 44.6645 37.4371C44.9828 37.1545 45.2241 36.8433 45.4725 36.4995C45.7455 36.152 45.9865 36.2282 46.388 36.3286Z" fill="#E45412"/>
<path d="M42.8989 29.0206C43.7442 29.2082 44.6952 29.7533 45.3125 30.3706C45.462 30.6934 45.4309 30.8005 45.3125 31.1336C45.1172 31.3472 45.1172 31.3472 44.8025 31.3831C44.3741 31.3414 44.1618 31.2234 43.8049 30.9871C43.7503 30.9515 43.6956 30.9158 43.6393 30.8791C43.4804 30.7755 43.3222 30.6707 43.1641 30.566C43.0118 30.4739 42.8592 30.3823 42.7063 30.2913C42.3828 30.0777 42.3828 30.0777 42.1875 29.7847C42.2058 29.4856 42.2058 29.4856 42.2852 29.1988C42.5781 29.0035 42.5781 29.0035 42.8989 29.0206Z" fill="#E45412"/>
<path d="M46.3851 31.9334C46.9386 32.3731 47.0356 33.0263 47.1663 33.6912C47.2121 34.1509 47.2509 34.6025 47.1663 35.0584C46.9477 35.277 46.8316 35.3432 46.5254 35.388C46.2387 35.3439 46.1743 35.2803 45.9944 35.0584C45.9374 34.8715 45.9374 34.8715 45.9086 34.6624C45.8972 34.5863 45.8858 34.5101 45.8741 34.4316C45.8634 34.3525 45.8528 34.2733 45.8418 34.1917C45.7732 33.7028 45.7055 33.2679 45.5062 32.8123C45.4559 32.3101 45.4559 32.3101 45.616 32.0433C45.8894 31.8792 46.0724 31.8887 46.3851 31.9334Z" fill="#E45412"/>
<path d="M39.2345 26.4346C39.6517 26.6031 39.8329 26.8623 40.1153 27.2048C40.4115 27.5269 40.748 27.7512 41.114 27.9875C41.3097 28.1252 41.3097 28.1252 41.4074 28.3206C41.4318 28.6624 41.4318 28.6624 41.4074 29.0042C41.0638 29.2332 40.933 29.2431 40.5285 29.1995C39.7935 28.8108 38.926 28.1289 38.5898 27.3455C38.5226 27.037 38.5618 26.8774 38.7279 26.6116C38.966 26.4651 38.966 26.4651 39.2345 26.4346Z" fill="#E45412"/>
<path d="M36.7205 37.8908C37.0032 37.9425 37.283 38.0025 37.5628 38.0678C37.6299 38.0828 37.6969 38.0977 37.766 38.1131C38.0617 38.1876 38.2562 38.255 38.4753 38.471C38.6226 38.7651 38.5723 38.9494 38.4783 39.258C37.8752 39.6601 36.9742 39.3412 36.2872 39.2214C36.2202 39.2103 36.1532 39.1992 36.0842 39.1877C35.7099 39.1185 35.426 39.0485 35.158 38.7697C35.0858 38.1922 35.0858 38.1922 35.2725 37.9179C35.6734 37.6377 36.2649 37.8222 36.7205 37.8908Z" fill="#E45412"/>
<path d="M40.4312 38.633C40.5471 38.6326 40.6629 38.6322 40.7822 38.6318C40.9638 38.6335 40.9638 38.6335 41.1492 38.6353C41.3297 38.6336 41.3297 38.6336 41.5139 38.6318C41.6299 38.6322 41.746 38.6326 41.8656 38.633C41.9716 38.6333 42.0777 38.6336 42.1869 38.634C42.5198 38.6771 42.7055 38.7569 42.968 38.9649C43.0162 39.302 43.0351 39.5301 42.8643 39.8316C42.0423 40.3088 40.6169 40.049 39.7454 39.8438C39.55 39.6485 39.55 39.6485 39.5195 39.3128C39.55 38.9649 39.55 38.9649 39.6617 38.7991C39.9208 38.6173 40.1167 38.634 40.4312 38.633Z" fill="#E45412"/>
<path d="M31.1965 5.17578C31.5786 5.28303 31.7682 5.36848 32.0327 5.66406C32.1364 6.00586 32.1364 6.00586 32.1303 6.34766C31.9778 6.5918 31.9778 6.5918 31.7397 6.73828C31.2587 6.73828 30.9249 6.5655 30.5678 6.25C30.458 5.9082 30.458 5.9082 30.4702 5.56641C30.6805 5.21581 30.787 5.17578 31.1965 5.17578Z" fill="#E45412"/>
<path d="M39.3552 1.1719C39.6073 1.38312 39.726 1.54772 39.7836 1.87457C39.8014 2.24642 39.7891 2.47082 39.5872 2.78933C39.2862 2.97151 39.1152 2.98858 38.7693 2.92971C38.4971 2.64725 38.4342 2.43884 38.4336 2.05081C38.4443 1.71996 38.4588 1.58972 38.6411 1.30618C38.9168 1.14224 39.0408 1.10115 39.3552 1.1719Z" fill="#E45412"/>
<path d="M29.8322 10.1749C29.9726 10.186 29.9726 10.186 30.116 10.1974C30.3963 10.2603 30.5007 10.3113 30.6622 10.5472C30.6297 11.1657 30.6297 11.1657 30.3693 11.4261C29.8959 11.4907 29.4471 11.5125 29.0265 11.2735C28.8507 10.9308 28.9007 10.7167 29.0021 10.3519C29.3408 10.1261 29.4389 10.1384 29.8322 10.1749Z" fill="#E45412"/>
<path d="M43.6031 2.19727C43.9449 2.24609 43.9449 2.24609 44.1524 2.4353C44.2802 2.88252 44.1487 3.20551 43.9449 3.61328C43.7679 3.8208 43.7679 3.8208 43.5542 3.90625C43.2216 3.89946 43.0364 3.85814 42.7669 3.66211C42.6357 3.31229 42.7437 3.08945 42.8653 2.7462C43.0546 2.36556 43.1761 2.25827 43.6031 2.19727Z" fill="#E45412"/>
<path d="M46.9738 14.9413C47.2517 15.0605 47.4637 15.1957 47.6574 15.4296C47.7309 15.7232 47.7029 15.9023 47.6574 16.2109C47.4621 16.4062 47.4621 16.4062 47.1508 16.4489C46.6889 16.3959 46.4174 16.2504 46.0949 15.9179C45.9736 15.6254 45.9698 15.5057 46.0766 15.2099C46.3071 14.8703 46.591 14.898 46.9738 14.9413Z" fill="#E45412"/>
<path d="M31.8352 14.9412C32.0184 15.051 32.0184 15.051 32.1282 15.2341C32.1892 15.5088 32.1892 15.5088 32.1282 15.8201C31.8328 16.2043 31.5585 16.3889 31.0784 16.4609C30.761 16.406 30.761 16.406 30.5718 16.2962C30.406 16.0036 30.3966 15.8583 30.4681 15.5271C30.8457 15.1159 31.2607 14.8209 31.8352 14.9412Z" fill="#E45412"/>
<path d="M34.9629 2.24596C35.3131 2.54201 35.4389 2.84783 35.5061 3.29577C35.4512 3.61315 35.4512 3.61315 35.2925 3.80846C34.9592 3.94878 34.8136 3.9399 34.4746 3.80846C34.1938 3.49244 34.0116 3.16936 33.9375 2.75255C33.9863 2.53893 33.9863 2.53893 34.0901 2.36193C34.4022 2.17061 34.606 2.18443 34.9629 2.24596Z" fill="#E45412"/>
<path d="M47.3633 5.17552C47.5403 5.27928 47.5403 5.27928 47.6562 5.46849C47.7234 5.79197 47.7234 5.79197 47.6562 6.15208C47.4296 6.41347 47.1863 6.58826 46.875 6.73802C46.5515 6.75633 46.5515 6.75633 46.2891 6.64036C46.0938 6.42063 46.0938 6.42063 45.9961 6.15208C46.0518 5.78087 46.2293 5.61095 46.5149 5.38914C46.8067 5.19684 47.0082 5.09662 47.3633 5.17552Z" fill="#E45412"/>
<path d="M48.6331 10.1562C48.7312 10.4507 48.7408 10.6486 48.7368 10.9558C48.7359 11.0438 48.7351 11.1318 48.7342 11.2225C48.733 11.2896 48.7319 11.3567 48.7307 11.4258C48.5904 11.4337 48.45 11.4394 48.3096 11.4441C48.1923 11.4492 48.1923 11.4492 48.0727 11.4544C47.8518 11.4258 47.8518 11.4258 47.679 11.2965C47.4935 11.0438 47.5209 10.8506 47.5589 10.5469C47.7155 10.3078 47.8201 10.2626 48.096 10.1868C48.3401 10.1562 48.3401 10.1562 48.6331 10.1562Z" fill="#E45412"/>
</svg>
