<svg width="24" height="24" viewBox="0 0 24 24" fill="none" xmlns="http://www.w3.org/2000/svg">
<g clip-path="url(#clip0_2_8918)">
<path d="M13.9426 17.5146C14.0319 17.8049 14.1323 18.0839 14.2551 18.3519C14.9249 19.4793 14.9249 20.8858 14.2551 22.0133C14.0319 22.3928 13.9202 22.8281 13.9649 23.2635C14.0095 23.4644 13.8756 23.6653 13.6746 23.71C13.6412 23.7212 13.6077 23.7212 13.5742 23.7212C13.3398 23.7212 13.2058 23.5537 13.1835 23.2858C13.1277 22.683 13.2616 22.0802 13.5742 21.5667C14.0765 20.7072 14.0765 19.6356 13.5742 18.7649C13.4737 18.5863 13.3956 18.4077 13.3509 18.2179C13.2393 17.8607 13.1835 17.4923 13.1612 17.1128C13.1612 15.5612 13.1612 13.9984 13.1612 12.4356C13.1946 11.8774 12.8486 11.3639 12.3239 11.1853C11.71 11.0067 11.0626 11.3639 10.8728 11.9779C10.8393 12.1007 10.817 12.2346 10.8281 12.3686C10.8281 13.9091 10.8281 15.4384 10.8281 16.99C10.8281 17.2356 10.8281 17.4923 10.8281 17.7379C10.8616 17.95 10.7277 18.1509 10.5156 18.1956C10.3035 18.2291 10.1026 18.0951 10.0579 17.883C10.0467 17.8384 10.0467 17.7937 10.0579 17.7491C10.0579 16.4988 10.0579 15.2374 10.0579 14.0877C10.0691 13.8979 9.99092 13.7081 9.84581 13.5853C9.70069 13.4514 9.56674 13.2951 9.41046 13.1165C9.24302 13.7863 8.78534 14.3444 8.16023 14.6346C7.86999 14.7463 7.55744 14.8133 7.24488 14.8467C7.12209 14.8467 7.04395 14.8467 7.01046 15.0253L6.06162 17.7602C5.94999 18.0505 5.94999 18.363 6.06162 18.6533C6.56395 19.8253 7.05511 20.9863 7.5686 22.1584C7.71372 22.5602 7.75837 22.9844 7.70255 23.4086C7.66906 23.6207 7.45697 23.7546 7.24488 23.7212C7.0886 23.6877 6.96581 23.5649 6.93232 23.4086C6.93232 22.8393 6.7872 22.2923 6.50813 21.8012C6.06162 20.7965 5.70441 19.803 5.30255 18.9212C5.11279 18.4523 5.11279 17.9277 5.30255 17.4588L6.2179 14.8021C5.01232 14.2886 4.45418 12.8933 4.96767 11.6877C5.24674 11.0067 5.80488 10.5156 6.47465 10.3146L6.29604 10.0914L4.44302 8.21604C4.15279 7.92581 4.15279 7.76953 4.44302 7.4793L6.47465 5.44767C5.22441 5.10162 4.49883 3.79558 4.85604 2.55651C4.85604 2.53418 4.8672 2.52302 4.8672 2.50069C5.13511 1.52953 6.01697 0.837436 7.03279 0.826274C8.11558 0.803948 9.07558 1.49604 9.38813 2.53418L9.56674 2.36674L11.4533 0.480227C11.7212 0.21232 11.8998 0.21232 12.1788 0.480227L14.4895 2.80209C14.6346 2.93604 14.7574 3.10348 14.657 3.29325C14.5677 3.4272 14.4226 3.52767 14.2663 3.57232C13.4179 3.77325 12.9044 4.61046 13.0942 5.45883C13.2505 6.10627 13.7863 6.58627 14.456 6.66441C15.2374 6.70906 15.9407 6.18441 16.1081 5.41418C16.1416 5.2579 16.2421 5.11279 16.3872 5.02348C16.5546 4.92302 16.7109 5.02348 16.856 5.1686L19.2002 7.51279C19.39 7.63558 19.4458 7.89232 19.3119 8.08209C19.2784 8.12674 19.2449 8.17139 19.2002 8.19372L17.3584 10.0802C17.3026 10.1472 17.2467 10.2142 17.1798 10.27C18.2402 10.5602 18.9546 11.5649 18.8765 12.67C18.843 13.7081 18.1174 14.6012 17.1128 14.8356V16.8895C17.1351 17.5816 16.5881 18.1621 15.896 18.1844C15.7844 18.1844 15.6728 18.1733 15.5612 18.1509C14.9584 18.0728 14.4114 17.8607 13.9426 17.5146ZM10.0133 12.7146C10.136 11.2746 10.7277 10.5044 11.7435 10.4151C12.2905 10.337 12.8486 10.5044 13.2616 10.8839C13.6635 11.2412 13.9202 11.7323 13.976 12.2681C14.11 12.1677 14.1881 12.0226 14.3109 11.9444C14.4337 11.8886 14.5788 11.8886 14.7016 11.9444C14.8244 12.0337 14.9026 12.1565 14.936 12.2905C14.936 12.3686 14.936 12.4691 14.936 12.5584C14.936 13.4067 15.6281 14.0988 16.4877 14.0988C17.336 14.0988 18.0281 13.4067 18.0281 12.5472C18.0281 11.6988 17.336 11.0067 16.4765 11.0067C16.4319 11.0067 16.3872 11.0067 16.3426 11.0179C16.1305 11.0179 15.9407 11.0179 15.8514 10.8058C15.7733 10.616 15.8402 10.4039 15.9965 10.2812C16.5881 9.71185 17.1463 9.14255 17.7267 8.56209L18.4077 7.89232L18.2737 7.7472L16.6886 6.13976C16.1081 7.31185 14.6905 7.80302 13.5184 7.23372C13.3063 7.12209 13.1053 6.98813 12.9267 6.82069C12.4467 6.38534 12.1788 5.76023 12.19 5.10162C12.1788 4.21976 12.67 3.41604 13.4402 3.00302L11.6877 1.25046C11.643 1.3286 11.5984 1.39558 11.5426 1.45139L9.49976 3.53883C9.32116 3.71744 9.16488 3.9072 8.89697 3.80674C8.62906 3.70627 8.66255 3.4272 8.66255 3.20395C8.68488 2.41139 8.10441 1.7193 7.31186 1.61883C6.50813 1.54069 5.78255 2.08767 5.62627 2.86906C5.44767 3.68395 5.93883 4.47651 6.73139 4.6886C6.94348 4.75558 7.1779 4.6886 7.41232 4.75558C7.55744 4.7779 7.68023 4.85604 7.75837 4.97883C7.75837 5.09046 7.75837 5.26906 7.75837 5.40302C7.75837 5.53697 7.64674 5.52581 7.57976 5.59278L5.17976 7.84767L5.35837 8.03744L7.50162 10.1807C7.50162 10.1807 7.63558 10.2812 7.66906 10.3593C7.69139 10.4374 7.76953 10.6719 7.66906 10.7723C7.5686 10.8728 7.44581 10.9509 7.32302 10.9956C7.20023 11.0402 7.14441 10.9956 7.05511 10.9956C6.19558 10.9956 5.50348 11.6988 5.50348 12.5584C5.50348 13.4179 6.20674 14.11 7.06627 14.11C7.92581 14.11 8.6179 13.4067 8.6179 12.5472C8.6179 12.5026 8.6179 12.4467 8.60674 12.4021C8.60674 12.19 8.60674 12.0114 8.82999 11.9109C9.0086 11.8439 9.22069 11.8998 9.33232 12.056L10.0133 12.7146ZM16.2867 14.8914C15.2932 14.7798 14.4784 14.0765 14.2216 13.1053C14.11 13.3063 13.976 13.4291 13.9537 13.5742C13.9537 14.2216 13.9537 14.8244 13.9537 15.5388C13.9872 16.5435 14.7798 17.3584 15.7844 17.4253C16.0077 17.47 16.2309 17.336 16.2756 17.1128C16.2867 17.0905 16.2867 17.057 16.2867 17.0235C16.2867 16.3202 16.2756 15.617 16.2756 14.8914H16.2867Z" fill="#E45412"/>
<path d="M1.45139 2.00953C1.45139 2.00953 1.57418 2.00953 1.64116 2.08767L3.54999 3.20395C3.75092 3.29325 3.85139 3.52767 3.76209 3.7286C3.75092 3.75093 3.75092 3.76209 3.73976 3.78441C3.62813 3.97418 3.39372 4.02999 3.20395 3.92953C3.19279 3.91837 3.17046 3.9072 3.1593 3.89604L1.19465 2.7686C1.0272 2.6793 0.960227 2.47837 1.0272 2.29976C1.07185 2.10999 1.25046 1.9872 1.45139 2.00953Z" fill="#E45412"/>
<path d="M22.9621 13.6412C22.9621 14.043 22.6384 14.2105 22.3593 14.0542C22.0802 13.9091 21.7119 13.6746 21.377 13.5072L20.3835 12.9267C20.1714 12.8486 20.0598 12.6253 20.1379 12.4132C20.216 12.2012 20.4393 12.0895 20.6514 12.1677C20.696 12.19 20.7519 12.2123 20.7853 12.2458C21.4216 12.6142 22.0356 12.9714 22.6942 13.3509C22.8058 13.4291 22.8951 13.5295 22.9621 13.6412Z" fill="#E45412"/>
<path d="M3.82906 12.6253C3.77325 12.7258 3.69511 12.8263 3.60581 12.9044L1.60767 14.0542C1.4179 14.1658 1.18348 14.0988 1.07186 13.9091C0.960227 13.7193 1.0272 13.4849 1.21697 13.3733C1.88674 12.9826 2.54534 12.5919 3.22627 12.2235C3.53883 12.056 3.8179 12.257 3.82906 12.6253Z" fill="#E45412"/>
<path d="M20.5732 3.97418C20.3835 3.99651 20.2049 3.87372 20.1602 3.68395C20.1044 3.51651 20.1714 3.32674 20.3277 3.2486L21.2319 2.72395L22.3593 2.10999C22.6049 1.97604 22.8393 2.00953 22.9509 2.22162C23.0626 2.40023 23.0067 2.64581 22.817 2.75744C22.7946 2.7686 22.7835 2.77976 22.7612 2.79092L20.8412 3.89604L20.5732 3.97418Z" fill="#E45412"/>
<path d="M0.714646 8.49511C0.435576 8.49511 0.279297 8.34999 0.279297 8.10441C0.279297 7.86999 0.424413 7.71372 0.714646 7.71372H2.95837C3.1593 7.69139 3.34906 7.82534 3.38255 8.03744C3.38255 8.05976 3.38255 8.08209 3.38255 8.10441C3.38255 8.31651 3.21511 8.49511 2.99185 8.49511C2.98069 8.49511 2.96953 8.49511 2.9472 8.49511H0.714646Z" fill="#E45412"/>
<path d="M23.2635 7.68023C23.4756 7.64674 23.6765 7.78069 23.7212 7.99279C23.7546 8.20488 23.6207 8.40581 23.4086 8.45046C23.3639 8.46162 23.3193 8.46162 23.2746 8.45046H20.9863C20.7742 8.48395 20.5732 8.34999 20.5286 8.1379C20.4951 7.92581 20.6291 7.72488 20.8412 7.68023C20.8858 7.66906 20.9305 7.66906 20.9751 7.68023H23.2635Z" fill="#E45412"/>
</g>
<defs>
<clipPath id="clip0_2_8918">
<rect width="24" height="24" fill="white"/>
</clipPath>
</defs>
</svg>
