<svg width="49" height="49" viewBox="0 0 49 49" fill="none" xmlns="http://www.w3.org/2000/svg">
<path d="M37.983 12.3573L41.7793 6.54712C42.0283 6.12151 42.3624 5.75179 42.7607 5.46105C43.1589 5.17031 43.6129 4.96479 44.0941 4.85731C44.7522 4.71153 45.4389 4.76588 46.0659 5.01338C46.6929 5.26087 47.2315 5.6902 47.6126 6.24619C48.0222 6.78149 48.2611 7.42769 48.2982 8.10066C48.3354 8.77364 48.1691 9.44221 47.821 10.0193C47.5663 10.5286 47.2191 10.9916 46.9182 11.4777L39.6034 22.7045C39.4326 22.9813 39.3593 23.3072 39.395 23.6305C39.9506 27.9669 40.5139 32.2956 41.0849 36.6166C41.1809 37.2144 41.2427 37.8172 41.27 38.4221C41.3008 39.1653 41.0553 39.8935 40.5808 40.4663C40.1063 41.0391 39.4365 41.4159 38.7006 41.524C37.6589 41.7092 36.5941 41.7554 35.5756 41.9638C34.5571 42.1721 32.9599 42.6351 31.6636 43.0054L14.5571 48.1675C14.127 48.3353 13.6655 48.4073 13.2048 48.3783C12.7441 48.3493 12.2953 48.2201 11.8897 47.9996C11.4841 47.7792 11.1315 47.4729 10.8565 47.102C10.5816 46.7312 10.3909 46.3048 10.2978 45.8527C6.94906 34.757 3.6003 23.6459 0.251532 12.5193C0.0673475 12.0813 -0.0175275 11.6079 0.00300544 11.1332C0.0235384 10.6584 0.148969 10.1941 0.370287 9.77361C0.591604 9.35311 0.903312 8.98684 1.28302 8.70114C1.66272 8.41543 2.10099 8.21737 2.56635 8.12119L8.05246 6.47768C8.37653 6.47768 8.51542 6.29249 8.51542 5.92212C8.57056 5.14664 8.90661 4.41789 9.46058 3.87243C10.0146 3.32698 10.7484 3.00227 11.5247 2.95916L28.4228 0.644343L33.0525 0.0424916C33.4638 -0.0263058 33.8848 -0.0114396 34.2903 0.086201C34.6958 0.183842 35.0774 0.362251 35.4123 0.610761C35.7473 0.85927 36.0287 1.17278 36.2397 1.53253C36.4507 1.89228 36.587 2.29089 36.6404 2.70453C37.0802 5.69064 37.4506 8.6999 37.8441 11.686L37.983 12.3573ZM27.6821 29.9267H27.4738L17.52 31.223C16.8719 31.223 16.5247 31.061 16.4552 30.5749C16.3858 30.0888 16.6867 29.7647 17.3349 29.6721L27.7284 28.2832C28.145 28.2832 28.3534 28.0749 28.4228 27.7045C28.6148 26.8636 28.9858 26.0741 29.5108 25.3897L30.5293 23.8388L31.6173 22.2184H30.9228L25.2052 22.9823C25.0935 23.0134 24.9763 23.0194 24.862 22.9999C24.7477 22.9804 24.6391 22.9359 24.544 22.8695C24.4489 22.8032 24.3696 22.7166 24.3118 22.6161C24.2541 22.5155 24.2193 22.4034 24.2099 22.2879C24.2099 21.848 24.4876 21.524 25.0432 21.4545L32.4275 20.436C32.6283 20.4013 32.8095 20.2943 32.9367 20.1351C34.1636 18.2832 35.3904 16.4314 36.571 14.5795C36.685 14.4094 36.7342 14.2041 36.7099 14.0008L35.2515 3.14434C35.2436 2.90973 35.184 2.67975 35.077 2.47079C34.9701 2.26182 34.8184 2.079 34.6327 1.93534C34.447 1.79167 34.232 1.6907 34.0029 1.6396C33.7738 1.58851 33.5362 1.58855 33.3071 1.63971L28.8858 2.19527L17.4275 3.86194L11.4552 4.55638C11.2476 4.58463 11.0476 4.65406 10.8672 4.7606C10.6867 4.86715 10.5293 5.00866 10.4043 5.17684C10.2792 5.34501 10.189 5.53647 10.1389 5.73997C10.0888 5.94348 10.0799 6.15493 10.1126 6.36194L10.7839 11.686C11.4552 16.7092 12.1265 21.7555 12.7747 26.7786L14.7191 41.4082C14.7269 41.6369 14.7853 41.861 14.8899 42.0644C14.9945 42.2679 15.1428 42.4457 15.3243 42.5851C15.5057 42.7245 15.7157 42.822 15.9392 42.8706C16.1628 42.9193 16.3943 42.9179 16.6173 42.8666L26.8256 41.5471L38.3997 40.0193C38.6273 40.0049 38.8491 39.9412 39.0497 39.8326C39.2503 39.724 39.4249 39.5732 39.5614 39.3904C39.6979 39.2077 39.793 38.9975 39.8402 38.7743C39.8875 38.5512 39.8856 38.3204 39.8349 38.098C39.4645 35.3666 39.1173 32.6582 38.7701 29.9499C38.5617 28.399 38.3534 26.848 38.1219 25.1814L37.7747 25.6443L34.858 30.0193C34.7215 30.2324 34.5582 30.4269 34.3719 30.598C33.0756 31.7555 31.7793 32.9129 30.4599 33.9777C30.1062 34.2623 29.6824 34.4462 29.233 34.5101C28.895 34.559 28.5501 34.5221 28.2301 34.4028C27.9101 34.2836 27.6252 34.0858 27.4016 33.8276C27.178 33.5695 27.0229 33.2592 26.9506 32.9254C26.8782 32.5917 26.891 32.2451 26.9876 31.9175C27.2654 31.2462 27.4738 30.598 27.6821 29.9267ZM24.5108 43.5379H24.0478L16.8719 44.4869C16.4592 44.5594 16.0362 44.5481 15.6279 44.4537C15.2197 44.3594 14.8346 44.1839 14.4955 43.9377C14.1565 43.6915 13.8704 43.3796 13.6543 43.0206C13.4382 42.6617 13.2965 42.2629 13.2376 41.848C12.6358 37.4499 12.0802 33.0517 11.5015 28.6767L9.18672 10.1582C9.18672 9.41749 8.97838 8.6999 8.88579 7.84342L3.14505 9.55638C2.8905 9.59081 2.64755 9.68443 2.43572 9.82973C2.22389 9.97502 2.04906 10.1679 1.92527 10.393C1.80148 10.6181 1.73217 10.8691 1.7229 11.1258C1.71363 11.3825 1.76466 11.6378 1.8719 11.8712C5.12808 23.0903 8.43054 34.3095 11.7793 45.5286C11.8169 45.7811 11.9128 46.0214 12.0594 46.2304C12.2061 46.4394 12.3993 46.6114 12.624 46.7327C12.8486 46.854 13.0985 46.9213 13.3536 46.9293C13.6088 46.9373 13.8624 46.8857 14.0941 46.7786L20.1589 44.973L24.5108 43.5379ZM40.5293 11.3156L30.5293 26.6629L33.7932 28.7925L43.8163 13.4684L40.5293 11.3156ZM46.1312 9.85731C46.4639 9.54814 46.6852 9.13766 46.7606 8.68972C46.8359 8.24178 46.7611 7.78149 46.5478 7.38045C46.3894 7.03952 46.1272 6.75741 45.7987 6.57448C45.4703 6.39154 45.0924 6.31715 44.7191 6.36194C44.3153 6.38226 43.9276 6.52649 43.6087 6.775C43.2897 7.02351 43.0551 7.36424 42.9367 7.75082L46.1312 9.85731ZM29.9275 28.098L29.4413 29.6721L31.5478 31.0379L32.7747 29.9499L29.9275 28.098ZM41.5015 10.0193L44.7654 12.149L45.4136 11.1767L42.1265 9.04712L41.5015 10.0193ZM29.0247 31.1999C28.8895 31.5618 28.7811 31.9332 28.7006 32.311C28.6923 32.4098 28.7068 32.5091 28.7429 32.6014C28.779 32.6937 28.8358 32.7765 28.9089 32.8434C28.9988 32.8882 29.0979 32.9116 29.1983 32.9116C29.2987 32.9116 29.3978 32.8882 29.4876 32.8434C29.8094 32.6325 30.1047 32.3838 30.3673 32.1027L29.0247 31.1999Z" fill="#E45412"/>
<path d="M15.6682 17.1721C15.0663 17.1721 14.696 16.8943 14.6728 16.4545C14.6666 16.3511 14.6808 16.2475 14.7146 16.1496C14.7485 16.0517 14.8014 15.9615 14.8702 15.8841C14.939 15.8067 15.0224 15.7436 15.1157 15.6985C15.2089 15.6534 15.3102 15.6271 15.4136 15.6212L32.2886 13.399C32.9136 13.399 33.3071 13.561 33.3534 14.0471C33.3997 14.5332 33.0988 14.8573 32.4738 14.9267L16.27 17.0795L15.6682 17.1721Z" fill="#E45412"/>
<path d="M31.4552 6.38508C32.0802 6.38508 32.4275 6.63971 32.4738 7.07953C32.48 7.18596 32.4652 7.29258 32.4302 7.39328C32.3951 7.49398 32.3406 7.58677 32.2696 7.66634C32.1986 7.74591 32.1127 7.81069 32.0166 7.85696C31.9206 7.90324 31.8163 7.9301 31.7099 7.93601L24.7654 8.83879L19.8117 9.51008H19.4645C18.8626 9.51008 18.4923 9.30175 18.446 8.81564C18.3997 8.32953 18.6775 8.0286 19.2793 7.95916L28.2608 6.75545L31.4552 6.38508Z" fill="#E45412"/>
<path d="M18.4228 38.1906C17.821 38.1906 17.4738 37.936 17.4275 37.4962C17.4179 37.3921 17.4298 37.2872 17.4625 37.1879C17.4951 37.0886 17.5478 36.9971 17.6172 36.919C17.6867 36.8409 17.7714 36.7778 17.8661 36.7338C17.9609 36.6897 18.0637 36.6656 18.1682 36.6629L24.0015 35.8758C24.1049 35.8652 24.2093 35.875 24.3089 35.9047C24.4084 35.9345 24.5012 35.9835 24.5818 36.0491C24.6624 36.1146 24.7293 36.1954 24.7787 36.2868C24.8281 36.3782 24.8589 36.4785 24.8696 36.5818C24.8802 36.6852 24.8704 36.7896 24.8407 36.8892C24.811 36.9888 24.7619 37.0815 24.6964 37.1621C24.6308 37.2427 24.55 37.3096 24.4586 37.359C24.3672 37.4084 24.2669 37.4393 24.1636 37.4499L18.4228 38.1906Z" fill="#E45412"/>
<path d="M16.571 24.186C15.9228 24.186 15.5988 23.9545 15.5525 23.5147C15.5062 23.0749 15.7608 22.7045 16.3163 22.6351L19.5108 22.2184C19.6177 22.1874 19.73 22.18 19.8401 22.197C19.9501 22.2139 20.055 22.2546 20.1476 22.3164C20.2402 22.3781 20.3182 22.4593 20.3762 22.5544C20.4341 22.6494 20.4706 22.756 20.483 22.8666C20.483 23.3295 20.2515 23.6768 19.7191 23.7693L16.571 24.186Z" fill="#E45412"/>
</svg>
