<svg width="32" height="32" viewBox="0 0 32 32" fill="none" xmlns="http://www.w3.org/2000/svg">
<path d="M16 32C24.8366 32 32 24.8366 32 16C32 7.16344 24.8366 0 16 0C7.16344 0 0 7.16344 0 16C0 24.8366 7.16344 32 16 32Z" fill="#FFF6ED"/>
<path d="M23.8075 22.4182C21.8206 19.8717 19.8376 17.3233 17.84 14.7846C17.6528 14.5477 17.6411 14.4122 17.8517 14.187C18.9154 13.0493 19.9634 11.895 21.0153 10.7456C21.8869 9.7931 22.7565 8.83964 23.6505 7.86083C22.9144 7.72726 22.3773 7.82768 21.8645 8.4214C20.4011 10.1158 18.8481 11.7322 17.3526 13.4003C17.0718 13.7142 16.9529 13.6567 16.7286 13.3642C15.395 11.6259 14.0398 9.90424 12.7052 8.16695C12.4995 7.89787 12.2879 7.77601 11.9389 7.78576C11.0459 7.81208 10.1519 7.79453 9.25886 7.79453C9.01123 7.79551 8.76458 7.79551 8.43604 7.79551C8.56082 7.96514 8.61444 8.04313 8.67196 8.11723C10.6588 10.6637 12.6438 13.2111 14.6384 15.7508C14.8285 15.9935 14.8656 16.13 14.6267 16.3835C13.491 17.5885 12.3844 18.8198 11.2672 20.0423C10.4639 20.9207 9.6615 21.8011 8.84452 22.6961C9.64103 22.8745 10.1821 22.659 10.7047 22.0546C12.1475 20.3845 13.6772 18.7906 15.1512 17.1469C15.4125 16.8554 15.5168 16.871 15.744 17.1683C16.9675 18.7662 18.2466 20.3221 19.4311 21.9473C19.8942 22.582 20.3826 22.8325 21.1557 22.7779C22.0965 22.7107 23.0451 22.7623 24.058 22.7623C23.9381 22.5986 23.8747 22.5079 23.8075 22.4202V22.4182ZM22.0984 21.8537C21.6422 21.8537 21.1781 21.844 20.7141 21.8576C20.482 21.8645 20.4177 21.6821 20.3163 21.5505C17.6226 18.1013 14.9338 14.6491 12.244 11.1979C11.6191 10.3956 10.9932 9.59324 10.2981 8.70023C10.845 8.70023 11.2808 8.71875 11.7127 8.6934C11.9857 8.6778 12.0764 8.86888 12.2011 9.02877C14.4347 11.8911 16.6662 14.7544 18.8978 17.6177C19.9244 18.9348 20.951 20.251 21.9746 21.57C22.0292 21.6412 22.1326 21.6909 22.0994 21.8528L22.0984 21.8537Z" fill="#E45412" stroke="white" stroke-width="0.3"/>
</svg>
