<svg width="96" height="321" viewBox="0 0 96 321" fill="none" xmlns="http://www.w3.org/2000/svg">
<circle cx="47.8125" cy="13" r="12.5" fill="white" stroke="#F37121"/>
<path d="M48 10.3333C46.5272 10.3333 45.3333 11.5272 45.3333 13C45.3333 14.4728 46.5272 15.6667 48 15.6667C49.4728 15.6667 50.6667 14.4728 50.6667 13C50.6667 11.5272 49.4728 10.3333 48 10.3333ZM48 256.333C46.5272 256.333 45.3333 257.527 45.3333 259C45.3333 260.473 46.5272 261.667 48 261.667C49.4727 261.667 50.6667 260.473 50.6667 259C50.6667 257.527 49.4727 256.333 48 256.333ZM48 13L47.5 13L47.5 259L48 259L48.5 259L48.5 13L48 13Z" fill="black"/>
<g filter="url(#filter0_d_20202_50229)">
<rect x="16" y="241" width="64" height="64" rx="32" fill="white" shape-rendering="crispEdges"/>
<g clip-path="url(#clip0_20202_50229)">
<path d="M60.5775 276.143H62.3018C63.5657 276.143 64.3529 276.929 64.3529 278.207C64.3529 280.615 64.3529 283.025 64.3529 285.438C64.3529 286.675 63.5838 287.45 62.3488 287.463C61.7746 287.463 61.2022 287.463 60.5793 287.463C60.5793 288.044 60.5793 288.589 60.5793 289.134C60.5793 291.168 59.2739 292.491 57.2481 292.493C51.0827 292.498 44.9125 292.5 38.7375 292.5C36.7369 292.5 35.4225 291.167 35.4207 289.167C35.4207 288.625 35.4207 288.071 35.4207 287.47H33.7542C32.3874 287.47 31.6471 286.72 31.6471 285.352C31.6471 282.982 31.6471 280.61 31.6471 278.238C31.6471 276.911 32.4144 276.151 33.7487 276.149H35.4207C35.4207 275.512 35.4207 274.885 35.4207 274.266C35.4176 273.818 35.512 273.376 35.6972 272.969C35.8824 272.561 36.154 272.199 36.4932 271.908C37.0754 271.388 37.8308 271.105 38.6111 271.113C39.5031 271.113 40.3932 271.113 41.2851 271.113C41.4115 271.113 41.5397 271.102 41.704 271.095V269.47C41.704 268.798 41.9026 268.598 42.5653 268.596C44.0097 268.596 45.4506 268.596 46.8878 268.596H47.3392V267.287C45.9976 266.83 45.2086 265.604 45.5661 264.178C45.7112 263.624 46.0415 263.136 46.5021 262.795C46.9628 262.455 47.5261 262.282 48.0984 262.306C48.6708 262.33 49.2178 262.549 49.6486 262.926C50.0793 263.304 50.3679 263.818 50.4664 264.382C50.7101 265.61 50.0565 266.652 48.641 267.271V268.594H49.0833C50.5374 268.594 51.9915 268.594 53.4456 268.594C54.0865 268.594 54.2924 268.802 54.2924 269.443C54.2924 269.985 54.2924 270.514 54.2924 271.11C54.4892 271.11 54.6661 271.11 54.834 271.11C55.8542 271.124 56.8833 271.066 57.9035 271.175C58.6397 271.266 59.3173 271.623 59.8096 272.178C60.3018 272.733 60.5748 273.448 60.5775 274.19C60.5883 274.831 60.5775 275.47 60.5775 276.143ZM57.2372 291.236C58.5733 291.236 59.3226 290.476 59.3226 289.136C59.3226 284.264 59.3226 279.389 59.3226 274.511C59.3226 273.103 58.5787 272.363 57.156 272.363H38.844C37.4212 272.363 36.6774 273.101 36.6774 274.509V289.051C36.6774 290.505 37.3996 291.233 38.844 291.233L57.2372 291.236ZM35.399 286.204V277.402C34.805 277.402 34.2326 277.402 33.6603 277.402C33.1276 277.402 32.9074 277.638 32.9056 278.184C32.9056 278.996 32.9056 279.809 32.9056 280.621C32.9056 282.232 32.9056 283.843 32.9056 285.455C32.9056 285.933 33.1078 286.177 33.5267 286.197C34.1406 286.217 34.7544 286.204 35.399 286.204ZM60.6118 277.406V286.208C61.2221 286.208 61.7981 286.208 62.374 286.208C62.8669 286.208 63.0962 285.975 63.0962 285.485C63.0962 284.944 63.0962 284.402 63.0962 283.873C63.0962 281.974 63.0962 280.074 63.0962 278.175C63.0962 277.709 62.8904 277.434 62.4806 277.418C61.8667 277.389 61.251 277.406 60.6118 277.406ZM42.9788 271.086H53.0068V269.885H42.9788V271.086ZM48.009 266.081C48.3411 266.079 48.6589 265.946 48.8937 265.711C49.1286 265.476 49.2615 265.158 49.2639 264.826C49.2815 264.65 49.2618 264.472 49.206 264.303C49.1503 264.135 49.0597 263.98 48.9403 263.849C48.8208 263.718 48.6751 263.614 48.5126 263.543C48.3501 263.472 48.1745 263.436 47.9972 263.437C47.8198 263.438 47.6448 263.477 47.4833 263.55C47.3219 263.623 47.1777 263.73 47.0601 263.863C46.9425 263.995 46.8542 264.151 46.8009 264.321C46.7475 264.49 46.7304 264.668 46.7506 264.844C46.759 265.173 46.8951 265.485 47.1301 265.715C47.365 265.945 47.6803 266.074 48.009 266.076V266.081Z" fill="#1E1E1E"/>
<path d="M60.5775 276.143H62.3018C63.5657 276.143 64.3529 276.929 64.3529 278.207C64.3529 280.615 64.3529 283.025 64.3529 285.438C64.3529 286.675 63.5838 287.45 62.3488 287.463C61.7746 287.463 61.2022 287.463 60.5793 287.463C60.5793 288.044 60.5793 288.589 60.5793 289.134C60.5793 291.168 59.2739 292.491 57.2481 292.493C51.0827 292.498 44.9125 292.5 38.7375 292.5C36.7369 292.5 35.4225 291.167 35.4207 289.167C35.4207 288.625 35.4207 288.071 35.4207 287.47H33.7542C32.3874 287.47 31.6471 286.72 31.6471 285.352C31.6471 282.982 31.6471 280.61 31.6471 278.238C31.6471 276.911 32.4144 276.151 33.7487 276.149H35.4207C35.4207 275.512 35.4207 274.885 35.4207 274.266C35.4176 273.818 35.512 273.376 35.6972 272.969C35.8824 272.561 36.154 272.199 36.4932 271.908C37.0754 271.388 37.8308 271.105 38.6111 271.113C39.5031 271.113 40.3932 271.113 41.2851 271.113C41.4115 271.113 41.5397 271.102 41.704 271.095V269.47C41.704 268.798 41.9026 268.598 42.5653 268.596C44.0097 268.596 45.4506 268.596 46.8878 268.596H47.3392V267.287C45.9976 266.83 45.2086 265.604 45.5661 264.178C45.7112 263.624 46.0415 263.136 46.5021 262.795C46.9628 262.455 47.5261 262.282 48.0984 262.306C48.6708 262.33 49.2178 262.549 49.6486 262.926C50.0793 263.304 50.3679 263.818 50.4664 264.382C50.7101 265.61 50.0565 266.652 48.641 267.271V268.594H49.0833C50.5374 268.594 51.9915 268.594 53.4456 268.594C54.0865 268.594 54.2924 268.802 54.2924 269.443C54.2924 269.985 54.2924 270.514 54.2924 271.11C54.4892 271.11 54.6661 271.11 54.834 271.11C55.8542 271.124 56.8833 271.066 57.9035 271.175C58.6397 271.266 59.3173 271.623 59.8096 272.178C60.3018 272.733 60.5748 273.448 60.5775 274.19C60.5883 274.831 60.5775 275.47 60.5775 276.143ZM57.2372 291.236C58.5733 291.236 59.3226 290.476 59.3226 289.136C59.3226 284.264 59.3226 279.389 59.3226 274.511C59.3226 273.103 58.5787 272.363 57.156 272.363H38.844C37.4212 272.363 36.6774 273.101 36.6774 274.509V289.051C36.6774 290.505 37.3996 291.233 38.844 291.233L57.2372 291.236ZM35.399 286.204V277.402C34.805 277.402 34.2326 277.402 33.6603 277.402C33.1276 277.402 32.9074 277.638 32.9056 278.184C32.9056 278.996 32.9056 279.809 32.9056 280.621C32.9056 282.232 32.9056 283.843 32.9056 285.455C32.9056 285.933 33.1078 286.177 33.5267 286.197C34.1406 286.217 34.7544 286.204 35.399 286.204ZM60.6118 277.406V286.208C61.2221 286.208 61.7981 286.208 62.374 286.208C62.8669 286.208 63.0962 285.975 63.0962 285.485C63.0962 284.944 63.0962 284.402 63.0962 283.873C63.0962 281.974 63.0962 280.074 63.0962 278.175C63.0962 277.709 62.8904 277.434 62.4806 277.418C61.8667 277.389 61.251 277.406 60.6118 277.406ZM42.9788 271.086H53.0068V269.885H42.9788V271.086ZM48.009 266.081C48.3411 266.079 48.6589 265.946 48.8937 265.711C49.1286 265.476 49.2615 265.158 49.2639 264.826C49.2815 264.65 49.2618 264.472 49.206 264.303C49.1503 264.135 49.0597 263.98 48.9403 263.849C48.8208 263.718 48.6751 263.614 48.5126 263.543C48.3501 263.472 48.1745 263.436 47.9972 263.437C47.8198 263.438 47.6448 263.477 47.4833 263.55C47.3219 263.623 47.1777 263.73 47.0601 263.863C46.9425 263.995 46.8542 264.151 46.8009 264.321C46.7475 264.49 46.7304 264.668 46.7506 264.844C46.759 265.173 46.8951 265.485 47.1301 265.715C47.365 265.945 47.6803 266.074 48.009 266.076V266.081Z" fill="#F37121"/>
<path d="M39.1943 264.823C39.1943 265.422 39.1943 265.96 39.1943 266.496C39.1943 266.83 39.1582 267.136 38.8115 267.284C38.4649 267.432 38.194 267.242 37.9503 266.993C37.3075 266.339 36.6629 265.686 36.0003 265.054C35.8506 264.92 35.6593 264.841 35.4586 264.832C33.8336 264.815 32.2086 264.832 30.5836 264.821C29.2493 264.819 28.5 264.064 28.5 262.723C28.5 260.339 28.5 257.956 28.5 255.571C28.5 254.269 29.2764 253.5 30.5854 253.5H42.7639C44.0747 253.5 44.8493 254.269 44.8511 255.569C44.8511 257.977 44.8511 260.384 44.8511 262.791C44.8511 264.026 44.0783 264.805 42.8433 264.814C41.7835 264.814 40.7218 264.814 39.6601 264.814L39.1943 264.823ZM37.8275 265.146L37.9358 265.074V264.411C37.9358 263.774 38.1435 263.566 38.7826 263.564C40.0935 263.564 41.4025 263.564 42.7115 263.564C43.4121 263.564 43.5962 263.384 43.5962 262.685C43.5962 260.341 43.5962 257.998 43.5962 255.654C43.5962 254.955 43.4049 254.751 42.7187 254.751H30.6215C29.9571 254.764 29.7639 254.961 29.7639 255.632C29.7639 257.989 29.7639 260.348 29.7639 262.708C29.7639 263.378 29.9444 263.568 30.6269 263.57C32.3422 263.57 34.0575 263.57 35.7728 263.57C35.9483 263.559 36.1239 263.589 36.2858 263.658C36.4478 263.727 36.5916 263.832 36.7062 263.965C37.0656 264.36 37.4519 264.75 37.8275 265.146Z" fill="#1E1E1E"/>
<path d="M39.1943 264.823C39.1943 265.422 39.1943 265.96 39.1943 266.496C39.1943 266.83 39.1582 267.136 38.8115 267.284C38.4649 267.432 38.194 267.242 37.9503 266.993C37.3075 266.339 36.6629 265.686 36.0003 265.054C35.8506 264.92 35.6593 264.841 35.4586 264.832C33.8336 264.815 32.2086 264.832 30.5836 264.821C29.2493 264.819 28.5 264.064 28.5 262.723C28.5 260.339 28.5 257.956 28.5 255.571C28.5 254.269 29.2764 253.5 30.5854 253.5H42.7639C44.0747 253.5 44.8493 254.269 44.8511 255.569C44.8511 257.977 44.8511 260.384 44.8511 262.791C44.8511 264.026 44.0783 264.805 42.8433 264.814C41.7835 264.814 40.7218 264.814 39.6601 264.814L39.1943 264.823ZM37.8275 265.146L37.9358 265.074V264.411C37.9358 263.774 38.1435 263.566 38.7826 263.564C40.0935 263.564 41.4025 263.564 42.7115 263.564C43.4121 263.564 43.5962 263.384 43.5962 262.685C43.5962 260.341 43.5962 257.998 43.5962 255.654C43.5962 254.955 43.4049 254.751 42.7187 254.751H30.6215C29.9571 254.764 29.7639 254.961 29.7639 255.632C29.7639 257.989 29.7639 260.348 29.7639 262.708C29.7639 263.378 29.9444 263.568 30.6269 263.57C32.3422 263.57 34.0575 263.57 35.7728 263.57C35.9483 263.559 36.1239 263.589 36.2858 263.658C36.4478 263.727 36.5916 263.832 36.7062 263.965C37.0656 264.36 37.4519 264.75 37.8275 265.146Z" fill="#F37121"/>
<path d="M56.8057 267.338C55.8867 267.338 55.0128 267.338 54.1371 267.338C53.7453 267.338 53.3517 267.338 52.9581 267.338C52.4821 267.329 52.0282 267.135 51.6916 266.799C51.3549 266.462 51.1617 266.008 51.1525 265.532C51.1368 262.978 51.1368 260.423 51.1525 257.868C51.1597 256.801 52.0083 256.028 53.1097 256.028C55.3901 256.028 57.6687 256.028 59.9474 256.028H65.364C66.729 256.028 67.491 256.783 67.491 258.133C67.491 260.519 67.491 262.903 67.491 265.287C67.491 266.574 66.7308 267.343 65.4453 267.347C63.8076 267.347 62.17 267.347 60.5342 267.359C60.3335 267.368 60.1419 267.446 59.9925 267.58C59.31 268.23 58.6474 268.901 57.9847 269.566C57.7554 269.799 57.5026 269.938 57.1794 269.802C56.8562 269.667 56.7876 269.382 56.7949 269.055C56.8129 268.504 56.8057 267.955 56.8057 267.338ZM58.0696 267.594L58.1617 267.645C58.5553 267.242 58.9561 266.848 59.3371 266.437C59.4452 266.315 59.5792 266.22 59.7293 266.157C59.8793 266.095 60.0414 266.067 60.2037 266.076C61.9461 266.087 63.6867 266.076 65.429 266.076C66.0447 266.076 66.2451 265.87 66.2451 265.247C66.2451 262.877 66.2451 260.507 66.2451 258.137C66.2451 257.472 66.0447 257.272 65.3785 257.272C61.3449 257.272 57.3125 257.272 53.2812 257.272C52.6132 257.272 52.411 257.472 52.411 258.135C52.411 260.466 52.411 262.797 52.411 265.126C52.411 265.911 52.5717 266.076 53.3426 266.076H57.1542C57.8926 266.076 58.0696 266.256 58.0714 267.009L58.0696 267.594Z" fill="#1E1E1E"/>
<path d="M56.8057 267.338C55.8867 267.338 55.0128 267.338 54.1371 267.338C53.7453 267.338 53.3517 267.338 52.9581 267.338C52.4821 267.329 52.0282 267.135 51.6916 266.799C51.3549 266.462 51.1617 266.008 51.1525 265.532C51.1368 262.978 51.1368 260.423 51.1525 257.868C51.1597 256.801 52.0083 256.028 53.1097 256.028C55.3901 256.028 57.6687 256.028 59.9474 256.028H65.364C66.729 256.028 67.491 256.783 67.491 258.133C67.491 260.519 67.491 262.903 67.491 265.287C67.491 266.574 66.7308 267.343 65.4453 267.347C63.8076 267.347 62.17 267.347 60.5342 267.359C60.3335 267.368 60.1419 267.446 59.9925 267.58C59.31 268.23 58.6474 268.901 57.9847 269.566C57.7554 269.799 57.5026 269.938 57.1794 269.802C56.8562 269.667 56.7876 269.382 56.7949 269.055C56.8129 268.504 56.8057 267.955 56.8057 267.338ZM58.0696 267.594L58.1617 267.645C58.5553 267.242 58.9561 266.848 59.3371 266.437C59.4452 266.315 59.5792 266.22 59.7293 266.157C59.8793 266.095 60.0414 266.067 60.2037 266.076C61.9461 266.087 63.6867 266.076 65.429 266.076C66.0447 266.076 66.2451 265.87 66.2451 265.247C66.2451 262.877 66.2451 260.507 66.2451 258.137C66.2451 257.472 66.0447 257.272 65.3785 257.272C61.3449 257.272 57.3125 257.272 53.2812 257.272C52.6132 257.272 52.411 257.472 52.411 258.135C52.411 260.466 52.411 262.797 52.411 265.126C52.411 265.911 52.5717 266.076 53.3426 266.076H57.1542C57.8926 266.076 58.0696 266.256 58.0714 267.009L58.0696 267.594Z" fill="#F37121"/>
<path d="M53.4167 282.434C54.0829 282.434 54.2617 282.636 54.2851 283.304C54.3335 284.142 54.2139 284.981 53.9333 285.772C53.6527 286.563 53.2169 287.29 52.6514 287.91C52.0859 288.53 51.4022 289.03 50.6404 289.382C49.8786 289.734 49.0541 289.931 48.2154 289.959C47.3768 289.988 46.5408 289.849 45.7567 289.55C44.9726 289.251 44.2561 288.798 43.6495 288.218C43.0428 287.639 42.5582 286.943 42.2241 286.174C41.89 285.404 41.7132 284.575 41.704 283.736C41.6932 282.485 41.7437 282.434 43.0004 282.434H53.4167ZM42.9625 283.716C43.0365 285.578 43.8165 287.027 45.3819 287.975C47.1333 289.037 48.9515 289.021 50.6903 287.93C52.2142 286.973 52.9635 285.54 53.0375 283.716H42.9625Z" fill="#1E1E1E"/>
<path d="M53.4167 282.434C54.0829 282.434 54.2617 282.636 54.2851 283.304C54.3335 284.142 54.2139 284.981 53.9333 285.772C53.6527 286.563 53.2169 287.29 52.6514 287.91C52.0859 288.53 51.4022 289.03 50.6404 289.382C49.8786 289.734 49.0541 289.931 48.2154 289.959C47.3768 289.988 46.5408 289.849 45.7567 289.55C44.9726 289.251 44.2561 288.798 43.6495 288.218C43.0428 287.639 42.5582 286.943 42.2241 286.174C41.89 285.404 41.7132 284.575 41.704 283.736C41.6932 282.485 41.7437 282.434 43.0004 282.434H53.4167ZM42.9625 283.716C43.0365 285.578 43.8165 287.027 45.3819 287.975C47.1333 289.037 48.9515 289.021 50.6903 287.93C52.2142 286.973 52.9635 285.54 53.0375 283.716H42.9625Z" fill="#F37121"/>
<path d="M41.7167 281.172C41.22 281.173 40.7341 281.027 40.3204 280.752C39.9067 280.477 39.5837 280.086 39.3922 279.627C39.2007 279.169 39.1494 278.664 39.2446 278.177C39.3398 277.689 39.5773 277.241 39.9271 276.888C40.2769 276.536 40.7234 276.295 41.2101 276.196C41.6969 276.097 42.202 276.144 42.6618 276.332C43.1216 276.52 43.5155 276.84 43.7936 277.251C44.0718 277.663 44.2217 278.147 44.2246 278.644C44.227 278.975 44.1639 279.303 44.0389 279.61C43.914 279.916 43.7296 280.195 43.4966 280.43C43.2635 280.665 42.9862 280.851 42.6807 280.979C42.3753 281.106 42.0476 281.172 41.7167 281.172ZM41.7167 279.908C42.0482 279.908 42.3664 279.778 42.6028 279.546C42.8392 279.313 42.9749 278.997 42.9806 278.666C42.9982 278.49 42.9788 278.313 42.9236 278.145C42.8685 277.977 42.7787 277.823 42.6603 277.692C42.5418 277.561 42.3971 277.456 42.2357 277.384C42.0743 277.313 41.8996 277.276 41.723 277.276C41.5464 277.276 41.3717 277.313 41.2103 277.384C41.0488 277.456 40.9042 277.561 40.7857 277.692C40.6672 277.823 40.5775 277.977 40.5223 278.145C40.4672 278.313 40.4478 278.49 40.4654 278.666C40.4696 278.995 40.6022 279.31 40.8349 279.543C41.0675 279.776 41.382 279.909 41.7112 279.913L41.7167 279.908Z" fill="#1E1E1E"/>
<path d="M41.7167 281.172C41.22 281.173 40.7341 281.027 40.3204 280.752C39.9067 280.477 39.5837 280.086 39.3922 279.627C39.2007 279.169 39.1494 278.664 39.2446 278.177C39.3398 277.689 39.5773 277.241 39.9271 276.888C40.2769 276.536 40.7234 276.295 41.2101 276.196C41.6969 276.097 42.202 276.144 42.6618 276.332C43.1216 276.52 43.5155 276.84 43.7936 277.251C44.0718 277.663 44.2217 278.147 44.2246 278.644C44.227 278.975 44.1639 279.303 44.0389 279.61C43.914 279.916 43.7296 280.195 43.4966 280.43C43.2635 280.665 42.9862 280.851 42.6807 280.979C42.3753 281.106 42.0476 281.172 41.7167 281.172ZM41.7167 279.908C42.0482 279.908 42.3664 279.778 42.6028 279.546C42.8392 279.313 42.9749 278.997 42.9806 278.666C42.9982 278.49 42.9788 278.313 42.9236 278.145C42.8685 277.977 42.7787 277.823 42.6603 277.692C42.5418 277.561 42.3971 277.456 42.2357 277.384C42.0743 277.313 41.8996 277.276 41.723 277.276C41.5464 277.276 41.3717 277.313 41.2103 277.384C41.0488 277.456 40.9042 277.561 40.7857 277.692C40.6672 277.823 40.5775 277.977 40.5223 278.145C40.4672 278.313 40.4478 278.49 40.4654 278.666C40.4696 278.995 40.6022 279.31 40.8349 279.543C41.0675 279.776 41.382 279.909 41.7112 279.913L41.7167 279.908Z" fill="#F37121"/>
<path d="M54.2815 281.172C53.6149 281.172 52.9757 280.907 52.5043 280.436C52.033 279.964 51.7682 279.325 51.7682 278.659C51.7682 277.992 52.033 277.353 52.5043 276.881C52.9757 276.41 53.6149 276.145 54.2815 276.145C54.9501 276.145 55.5914 276.41 56.0651 276.882C56.5389 277.354 56.8064 277.994 56.8093 278.662C56.8096 278.993 56.7442 279.321 56.617 279.627C56.4899 279.933 56.3034 280.21 56.0684 280.444C55.8334 280.677 55.5545 280.862 55.2478 280.987C54.9411 281.112 54.6127 281.175 54.2815 281.172ZM54.2906 279.908C54.622 279.908 54.9403 279.778 55.1767 279.546C55.4131 279.313 55.5488 278.997 55.5544 278.666C55.5721 278.49 55.5527 278.313 55.4975 278.145C55.4424 277.977 55.3526 277.823 55.2341 277.692C55.1157 277.561 54.971 277.456 54.8096 277.384C54.6482 277.313 54.4735 277.276 54.2969 277.276C54.1203 277.276 53.9456 277.313 53.7842 277.384C53.6227 277.456 53.4781 277.561 53.3596 277.692C53.2411 277.823 53.1514 277.977 53.0962 278.145C53.0411 278.313 53.0217 278.49 53.0393 278.666C53.0435 278.996 53.1768 279.311 53.4107 279.545C53.6445 279.778 53.9603 279.91 54.2906 279.913V279.908Z" fill="#1E1E1E"/>
<path d="M54.2815 281.172C53.6149 281.172 52.9757 280.907 52.5043 280.436C52.033 279.964 51.7682 279.325 51.7682 278.659C51.7682 277.992 52.033 277.353 52.5043 276.881C52.9757 276.41 53.6149 276.145 54.2815 276.145C54.9501 276.145 55.5914 276.41 56.0651 276.882C56.5389 277.354 56.8064 277.994 56.8093 278.662C56.8096 278.993 56.7442 279.321 56.617 279.627C56.4899 279.933 56.3034 280.21 56.0684 280.444C55.8334 280.677 55.5545 280.862 55.2478 280.987C54.9411 281.112 54.6127 281.175 54.2815 281.172ZM54.2906 279.908C54.622 279.908 54.9403 279.778 55.1767 279.546C55.4131 279.313 55.5488 278.997 55.5544 278.666C55.5721 278.49 55.5527 278.313 55.4975 278.145C55.4424 277.977 55.3526 277.823 55.2341 277.692C55.1157 277.561 54.971 277.456 54.8096 277.384C54.6482 277.313 54.4735 277.276 54.2969 277.276C54.1203 277.276 53.9456 277.313 53.7842 277.384C53.6227 277.456 53.4781 277.561 53.3596 277.692C53.2411 277.823 53.1514 277.977 53.0962 278.145C53.0411 278.313 53.0217 278.49 53.0393 278.666C53.0435 278.996 53.1768 279.311 53.4107 279.545C53.6445 279.778 53.9603 279.91 54.2906 279.913V279.908Z" fill="#F37121"/>
<path d="M31.0386 257.247V256.028H42.3053V257.239L31.0386 257.247Z" fill="#1E1E1E"/>
<path d="M31.0386 257.247V256.028H42.3053V257.239L31.0386 257.247Z" fill="#F37121"/>
<path d="M42.3287 261.083V262.279H31.0476V261.083H42.3287Z" fill="#1E1E1E"/>
<path d="M42.3287 261.083V262.279H31.0476V261.083H42.3287Z" fill="#F37121"/>
<path d="M32.2917 259.76V258.556H41.0594V259.762L32.2917 259.76Z" fill="#1E1E1E"/>
<path d="M32.2917 259.76V258.556H41.0594V259.762L32.2917 259.76Z" fill="#F37121"/>
<path d="M64.9722 259.776H53.6875V258.556H64.9722V259.776Z" fill="#1E1E1E"/>
<path d="M64.9722 259.776H53.6875V258.556H64.9722V259.776Z" fill="#F37121"/>
<path d="M53.6839 264.796V263.582H64.9506V264.796H53.6839Z" fill="#1E1E1E"/>
<path d="M53.6839 264.796V263.582H64.9506V264.796H53.6839Z" fill="#F37121"/>
<path d="M63.7083 261.072V262.282H54.9369V261.072H63.7083Z" fill="#1E1E1E"/>
<path d="M63.7083 261.072V262.282H54.9369V261.072H63.7083Z" fill="#F37121"/>
</g>
</g>
<defs>
<filter id="filter0_d_20202_50229" x="0" y="225" width="96" height="96" filterUnits="userSpaceOnUse" color-interpolation-filters="sRGB">
<feFlood flood-opacity="0" result="BackgroundImageFix"/>
<feColorMatrix in="SourceAlpha" type="matrix" values="0 0 0 0 0 0 0 0 0 0 0 0 0 0 0 0 0 0 127 0" result="hardAlpha"/>
<feOffset/>
<feGaussianBlur stdDeviation="8"/>
<feComposite in2="hardAlpha" operator="out"/>
<feColorMatrix type="matrix" values="0 0 0 0 0 0 0 0 0 0 0 0 0 0 0 0 0 0 0.25 0"/>
<feBlend mode="normal" in2="BackgroundImageFix" result="effect1_dropShadow_20202_50229"/>
<feBlend mode="normal" in="SourceGraphic" in2="effect1_dropShadow_20202_50229" result="shape"/>
</filter>
<clipPath id="clip0_20202_50229">
<rect width="39" height="39" fill="white" transform="translate(28.5 253.5)"/>
</clipPath>
</defs>
</svg>
