<svg width="96" height="267" viewBox="0 0 96 267" fill="none" xmlns="http://www.w3.org/2000/svg">
<circle cx="47.9375" cy="254" r="12.5" fill="white" stroke="#F37121"/>
<path d="M47.5 52.3333C46.0272 52.3333 44.8333 53.5272 44.8333 55C44.8333 56.4728 46.0272 57.6667 47.5 57.6667C48.9728 57.6667 50.1667 56.4728 50.1667 55C50.1667 53.5272 48.9728 52.3333 47.5 52.3333ZM47.5 251.333C46.0272 251.333 44.8333 252.527 44.8333 254C44.8333 255.473 46.0272 256.667 47.5 256.667C48.9728 256.667 50.1667 255.473 50.1667 254C50.1667 252.527 48.9728 251.333 47.5 251.333ZM47.5 55L47 55L47 254L47.5 254L48 254L48 55L47.5 55Z" fill="black"/>
<g filter="url(#filter0_d_20202_50205)">
<rect x="16" y="16" width="64" height="64" rx="32" fill="white" shape-rendering="crispEdges"/>
<g clip-path="url(#clip0_20202_50205)">
<mask id="mask0_20202_50205" style="mask-type:luminance" maskUnits="userSpaceOnUse" x="28" y="28" width="40" height="40">
<path d="M67.5 28.5H28.5V67.5H67.5V28.5Z" fill="white"/>
</mask>
<g mask="url(#mask0_20202_50205)">
<path d="M48.6454 49.8903C48.6454 50.3314 48.6454 50.7199 48.6454 51.1504C49.9688 51.1504 51.2713 51.1504 52.5842 51.1504C52.9729 51.1504 53.372 51.1609 53.7606 51.2239C55.8719 51.5389 57.4474 53.4186 57.4369 55.5713C57.4264 57.7134 55.8508 59.5721 53.7606 59.8766C53.3405 59.9396 52.8993 59.9501 52.4372 59.9816C52.4372 60.9897 52.4372 62.0187 52.4372 63.0897C53.0359 63.0897 53.6451 63.0897 54.2753 63.0897C54.2753 63.5203 54.2753 63.909 54.2753 64.3606C53.6871 64.3606 53.0884 64.3606 52.4897 64.3606C51.1663 64.3606 51.1452 64.3393 51.1452 63.0269C51.1452 62.0187 51.1452 61.0107 51.1452 59.9816C49.0445 59.9816 46.9753 59.9816 44.8535 59.9816C44.8535 60.7481 44.8535 61.5044 44.8535 62.2603C44.8535 62.7327 44.8641 63.2055 44.8535 63.6779C44.8431 64.098 44.612 64.3501 44.2023 64.3606C43.3936 64.371 42.5743 64.3606 41.734 64.3606C41.734 63.9509 41.734 63.552 41.734 63.111C42.3432 63.111 42.9419 63.111 43.5721 63.111C43.5721 62.0504 43.5721 61.0316 43.5721 59.9921C43.1205 59.9606 42.6688 59.9501 42.2171 59.8766C40.1374 59.5616 38.5514 57.6924 38.5514 55.5503C38.5514 53.4081 40.1269 51.5389 42.2067 51.2239C42.5532 51.1714 42.9104 51.1504 43.257 51.1504C44.6015 51.1399 45.9564 51.1504 47.3219 51.1504C47.3219 50.7304 47.3219 50.3314 47.3219 49.8903C47.1749 49.8903 47.0278 49.8903 46.8913 49.8903C44.0868 49.8903 41.2823 49.9008 38.4778 49.8903C35.2112 49.8693 32.4383 47.6011 31.7555 44.3984C31.0203 40.9856 32.9529 37.5729 36.2721 36.4388C36.5452 36.3443 36.6502 36.2288 36.6817 35.9348C37.1124 32.1335 39.7068 29.2772 43.4566 28.6367C46.5552 28.1117 49.1495 29.1617 51.1872 31.5664C51.3658 31.7764 51.5129 31.8394 51.7754 31.7869C54.811 31.1464 57.9096 32.9105 58.9284 35.8613C59.023 36.1553 59.17 36.2918 59.4641 36.3863C62.4788 37.3209 64.5585 40.3451 64.2959 43.3798C63.9912 46.8241 61.565 49.4283 58.2667 49.8378C57.9201 49.8798 57.563 49.9008 57.2058 49.9008C54.4959 49.9008 51.786 49.9008 49.0655 49.9008C48.9605 49.8903 48.8239 49.8903 48.6454 49.8903ZM41.0617 48.6302C41.0723 48.5252 41.0828 48.4832 41.0828 48.4412C41.2193 45.606 43.194 43.3903 46.009 43.0333C47.0908 42.8968 48.2042 42.9598 49.3071 42.9598C51.87 42.9703 54.0862 44.6924 54.7375 47.1601C54.8635 47.6222 54.9055 48.1052 54.9896 48.6092C55.5988 48.6092 56.229 48.6407 56.8592 48.5987C57.605 48.5567 58.3612 48.5672 59.0755 48.3782C61.6068 47.7167 63.2873 45.4065 63.2245 42.8023C63.1614 40.1771 61.3652 37.9824 58.7709 37.4259C58.2667 37.3209 58.0356 37.0794 57.8991 36.5753C57.1953 33.8661 54.3804 32.291 51.6704 33.047C51.0087 33.2361 50.9141 33.2045 50.5255 32.648C48.7504 30.2013 45.6833 29.1617 42.7843 30.0543C39.9484 30.9259 37.9842 33.5616 37.9317 36.5648C37.9212 37.1949 37.8266 37.3103 37.1964 37.4679C34.8646 38.0454 33.142 40.0616 32.9214 42.4768C32.7009 44.8184 34.0558 47.1076 36.2196 48.1157C37.7741 48.8508 39.4232 48.5567 41.0617 48.6302ZM47.9942 58.69C49.6852 58.69 51.3763 58.7005 53.0674 58.69C54.811 58.669 56.187 57.2724 56.187 55.5503C56.187 53.8281 54.811 52.421 53.0674 52.4105C49.6852 52.4 46.303 52.3895 42.9209 52.421C42.4167 52.421 41.881 52.589 41.4294 52.8306C40.1584 53.4921 39.5702 54.9727 39.9273 56.3483C40.2845 57.7029 41.5029 58.6795 42.9209 58.69C44.612 58.7005 46.303 58.69 47.9942 58.69ZM53.6451 48.6092C53.6556 45.921 51.3343 44.2304 49.6012 44.2724C49.6747 44.6714 49.7902 45.06 49.8218 45.459C49.8428 45.69 49.7903 45.963 49.6747 46.1415C49.3281 46.6666 48.9395 47.1601 48.5508 47.6537C48.1937 48.1052 47.7736 48.1052 47.4165 47.6432C47.0488 47.1706 46.7022 46.6771 46.3241 46.2045C46.114 45.942 46.072 45.6795 46.156 45.3645C46.2505 45.0075 46.3136 44.6294 46.3976 44.2619C44.1078 44.3039 42.1856 46.5721 42.3957 48.6092C46.135 48.6092 49.8743 48.6092 53.6451 48.6092ZM48.0151 46.2465C48.6454 45.6165 48.6664 45.501 48.2777 44.2409C48.0887 44.2409 47.8996 44.2409 47.7 44.2409C47.5635 44.9549 47.1434 45.69 48.0151 46.2465Z" fill="#F37121"/>
<path d="M34.7806 67.5002C32.974 67.5002 31.1673 67.5002 29.3607 67.5002C28.699 67.5002 28.4889 67.2795 28.4994 66.6286C28.5729 63.7933 30.9783 61.3258 33.8247 61.2314C34.7911 61.1997 35.7784 61.1997 36.7132 61.3886C39.1816 61.8823 41.0302 64.1925 41.0723 66.6812C41.0828 67.2691 40.8622 67.5002 40.2845 67.5002C38.4463 67.5002 36.6187 67.5002 34.7806 67.5002ZM29.8018 66.2192C33.142 66.2192 36.4401 66.2192 39.7488 66.2192C39.7383 66.114 39.7383 66.0195 39.7173 65.925C39.3181 64.3501 38.3728 63.2682 36.8393 62.7013C35.936 62.3652 35.0011 62.4702 34.0768 62.4702C33.3416 62.4702 32.6483 62.6595 32.0181 63.0269C30.7892 63.7305 30.0539 64.7908 29.8018 66.2192Z" fill="#F37121"/>
<path d="M61.1972 67.5002C59.3906 67.5002 57.584 67.5002 55.7774 67.5002C55.1156 67.5002 54.9055 67.2795 54.9265 66.6286C55.0001 63.7933 57.4159 61.3363 60.2624 61.2314C61.3338 61.1892 62.4052 61.1366 63.4662 61.4517C65.7662 62.1344 67.447 64.2975 67.4993 66.66C67.5098 67.2903 67.2999 67.5107 66.6591 67.5107C64.8419 67.5002 63.0143 67.5002 61.1972 67.5002ZM56.2605 66.2192C59.5691 66.2192 62.8672 66.2192 66.1654 66.2192C66.0814 64.7594 64.8315 63.2055 63.2873 62.7327C61.9325 62.3129 60.5354 62.3129 59.1805 62.7222C57.605 63.1842 56.3656 64.7176 56.2605 66.2192Z" fill="#F37121"/>
<path d="M37.9317 57.4509C37.9317 59.1835 36.5137 60.5906 34.7596 60.5801C33.0475 60.5696 31.64 59.1626 31.64 57.4404C31.64 55.6868 33.0685 54.2797 34.8226 54.2902C36.5452 54.3007 37.9422 55.7183 37.9317 57.4509ZM32.9004 57.3774C32.8794 58.4065 33.6882 59.2781 34.7175 59.3095C35.7574 59.3411 36.6397 58.522 36.6712 57.4719C36.7027 56.4428 35.873 55.5713 34.8541 55.5398C33.8037 55.5188 32.9319 56.3483 32.9004 57.3774Z" fill="#F37121"/>
<path d="M61.2181 60.5801C59.4956 60.5906 58.0776 59.1835 58.0671 57.4719C58.0566 55.7078 59.4641 54.2902 61.2286 54.2902C62.9408 54.2902 64.3483 55.6973 64.3587 57.4194C64.3587 59.1626 62.9617 60.5696 61.2181 60.5801ZM61.2181 59.32C62.2581 59.32 63.1088 58.459 63.0984 57.4089C63.0879 56.3903 62.2372 55.5398 61.2076 55.5503C60.1573 55.5608 59.3171 56.4113 59.3276 57.4614C59.3381 58.48 60.1889 59.32 61.2181 59.32Z" fill="#F37121"/>
<path d="M47.9942 42.3402C46.2505 42.3297 44.8535 40.9226 44.8535 39.1795C44.8641 37.4574 46.2716 36.0503 47.9836 36.0503C49.7377 36.0503 51.1557 37.4679 51.1452 39.232C51.1347 40.9437 49.7168 42.3402 47.9942 42.3402ZM49.8848 39.19C49.8848 38.1399 49.0235 37.2894 47.9836 37.2999C46.9543 37.3103 46.114 38.1504 46.114 39.1795C46.114 40.2191 46.9648 41.0697 48.0151 41.0697C49.0445 41.0697 49.8848 40.2191 49.8848 39.19Z" fill="#F37121"/>
<path d="M44.8326 31.0309C44.8326 31.4509 44.8326 31.8394 44.8326 32.2595C43.6456 32.312 42.5848 32.711 41.7445 33.5616C40.9042 34.4016 40.4841 35.4412 40.442 36.6488C40.0324 36.6488 39.6333 36.6488 39.2446 36.6488C39.0451 34.1286 41.3454 31.0204 44.8326 31.0309Z" fill="#F37121"/>
<path d="M49.8848 55.5398C49.8848 56.5794 49.034 57.4299 47.9836 57.4299C46.9648 57.4299 46.114 56.5794 46.114 55.5503C46.114 54.5002 46.9648 53.6496 48.0151 53.6601C49.0445 53.6706 49.8848 54.5107 49.8848 55.5398ZM47.9836 56.1698C48.3198 56.1803 48.6138 55.9073 48.6244 55.5713C48.6349 55.2353 48.3723 54.9412 48.0362 54.9202C47.679 54.8992 47.3744 55.1827 47.3744 55.5398C47.3639 55.8758 47.6475 56.1593 47.9836 56.1698Z" fill="#F37121"/>
<path d="M42.3117 56.1593C41.8915 56.1593 41.5029 56.1593 41.1037 56.1593C41.1037 55.7498 41.1037 55.3718 41.1037 54.9517C41.4924 54.9517 41.8915 54.9517 42.3117 54.9517C42.3117 55.3402 42.3117 55.7288 42.3117 56.1593Z" fill="#F37121"/>
<path d="M44.8326 56.1593C44.4229 56.1593 44.0343 56.1593 43.6246 56.1593C43.6246 55.7603 43.6246 55.3613 43.6246 54.9412C44.0238 54.9412 44.4124 54.9412 44.8326 54.9412C44.8326 55.3402 44.8326 55.7288 44.8326 56.1593Z" fill="#F37121"/>
<path d="M51.1557 56.1488C51.1557 55.7393 51.1557 55.3508 51.1557 54.9412C51.5654 54.9412 51.9645 54.9412 52.3742 54.9412C52.3742 55.3402 52.3742 55.7288 52.3742 56.1488C51.9855 56.1488 51.5969 56.1488 51.1557 56.1488Z" fill="#F37121"/>
<path d="M53.6871 54.9307C54.0968 54.9307 54.4854 54.9307 54.895 54.9307C54.895 55.3402 54.895 55.7393 54.895 56.1488C54.4959 56.1488 54.1073 56.1488 53.6871 56.1488C53.6871 55.7603 53.6871 55.3613 53.6871 54.9307Z" fill="#F37121"/>
</g>
</g>
</g>
<defs>
<filter id="filter0_d_20202_50205" x="0" y="0" width="96" height="96" filterUnits="userSpaceOnUse" color-interpolation-filters="sRGB">
<feFlood flood-opacity="0" result="BackgroundImageFix"/>
<feColorMatrix in="SourceAlpha" type="matrix" values="0 0 0 0 0 0 0 0 0 0 0 0 0 0 0 0 0 0 127 0" result="hardAlpha"/>
<feOffset/>
<feGaussianBlur stdDeviation="8"/>
<feComposite in2="hardAlpha" operator="out"/>
<feColorMatrix type="matrix" values="0 0 0 0 0 0 0 0 0 0 0 0 0 0 0 0 0 0 0.25 0"/>
<feBlend mode="normal" in2="BackgroundImageFix" result="effect1_dropShadow_20202_50205"/>
<feBlend mode="normal" in="SourceGraphic" in2="effect1_dropShadow_20202_50205" result="shape"/>
</filter>
<clipPath id="clip0_20202_50205">
<rect width="39" height="39" fill="white" transform="translate(28.5 28.5)"/>
</clipPath>
</defs>
</svg>
