<svg width="96" height="264" viewBox="0 0 96 264" fill="none" xmlns="http://www.w3.org/2000/svg">
<circle cx="49.8125" cy="13" r="12.5" fill="white" stroke="#F37121"/>
<path d="M49.625 10.3333C48.1522 10.3333 46.9583 11.5272 46.9583 13C46.9583 14.4728 48.1522 15.6667 49.625 15.6667C51.0978 15.6667 52.2917 14.4728 52.2917 13C52.2917 11.5272 51.0978 10.3333 49.625 10.3333ZM49.625 225.333C48.1522 225.333 46.9583 226.527 46.9583 228C46.9583 229.473 48.1523 230.667 49.625 230.667C51.0978 230.667 52.2917 229.473 52.2917 228C52.2917 226.527 51.0978 225.333 49.625 225.333ZM49.625 13L49.125 13L49.125 228L49.625 228L50.125 228L50.125 13L49.625 13Z" fill="black"/>
<g filter="url(#filter0_d_20202_50237)">
<rect x="16" y="184" width="64" height="64" rx="32" fill="white" shape-rendering="crispEdges"/>
<g clip-path="url(#clip0_20202_50237)">
<path d="M47.6917 235.046L45.8415 234.121C42.7759 232.67 40.0549 230.584 37.8963 227.972L37.7694 227.845L36.5359 229.078C36.2275 229.496 35.647 229.605 35.2117 229.296C35.121 229.242 35.0484 229.169 34.994 229.078L33.2526 227.355C32.8354 227.029 32.7629 226.448 33.0712 226.031C33.1256 225.958 33.1801 225.904 33.2526 225.85C33.8149 225.287 34.3591 224.725 34.9215 224.181C35.1029 223.999 35.1391 223.872 34.9215 223.637C33.2345 220.317 32.3819 216.635 32.4182 212.898V204.427C32.3456 203.484 33.0531 202.649 34.0145 202.577C34.1052 202.577 34.1959 202.577 34.2866 202.577C35.3387 202.577 36.4089 202.377 37.461 202.268C37.9508 202.268 38.2229 202.268 38.2954 202.631C38.4042 202.903 38.2591 203.211 37.9689 203.32C37.9145 203.338 37.8419 203.357 37.7875 203.357C36.6266 203.465 35.4656 203.556 34.2322 203.647C33.7242 203.647 33.561 203.81 33.561 204.318C33.5791 207.565 33.5791 210.885 33.5791 214.041C33.6698 217.197 34.4861 220.281 35.9373 223.074L36.9168 222.04C37.1889 221.786 37.588 221.532 37.6605 221.242C37.7331 220.952 37.461 220.589 37.2977 220.19C36.3545 217.832 35.8647 215.311 35.8466 212.753V206.513C35.8466 205.878 36.0461 205.642 36.681 205.57C40.581 205.098 44.2996 203.611 47.4377 201.234C47.8731 200.926 48.1089 200.944 48.5442 201.234C51.0838 203.139 54.0042 204.481 57.1061 205.152C57.7773 205.298 58.4666 205.406 59.1559 205.497C59.8452 205.588 60.081 205.805 60.081 206.513V209.633C60.081 210.105 59.8815 210.358 59.5005 210.34C59.1377 210.322 58.9563 210.105 58.9563 209.651V206.676C54.9656 206.15 51.1926 204.626 47.9638 202.232C44.7712 204.626 40.9982 206.15 37.0256 206.658C37.0075 206.749 37.0075 206.839 37.0256 206.93C37.0256 209.343 37.0256 211.755 37.0256 214.168C37.1526 216.345 37.6787 218.467 38.6038 220.444H38.7489C39.5652 220.607 39.8191 219.882 40.2726 219.555C39.9461 218.848 39.6015 218.195 39.3294 217.524C39.148 217.27 39.2024 216.907 39.4563 216.725C39.4926 216.689 39.547 216.671 39.5833 216.653C39.9098 216.544 40.1638 216.653 40.3633 217.143C40.5629 217.632 40.9438 218.322 41.2703 218.884C41.6149 219.301 41.5605 219.918 41.1252 220.263C41.1252 220.263 41.1252 220.263 41.107 220.263L40.1638 221.17L41.0526 222.04L41.9052 221.151C42.1773 220.716 42.7759 220.571 43.2112 220.861C43.2656 220.898 43.3201 220.934 43.3745 220.988C47.0568 223.528 52.0996 222.585 54.6391 218.902C57.1787 215.22 56.2354 210.177 52.5531 207.638C48.8708 205.098 43.828 206.041 41.2884 209.724C40.6898 210.576 40.2726 211.556 40.0549 212.571C39.9461 213.152 39.8917 213.751 39.8736 214.331C39.8736 214.857 39.6922 215.093 39.3112 215.075C38.9484 215.057 38.7489 214.839 38.7489 214.331C38.6763 209.234 42.7759 205.007 47.9094 204.917C53.0429 204.826 57.2694 208.925 57.3601 214.059C57.4326 218.811 53.9136 222.857 49.1973 223.437C47.0749 223.709 44.9163 223.219 43.1205 222.04C42.9573 221.895 42.7215 221.895 42.5763 222.058C42.5582 222.077 42.5401 222.113 42.5219 222.149C42.4131 222.294 42.2861 222.421 42.1229 222.548C41.9233 222.711 41.8145 222.965 41.8508 223.219C41.8508 223.473 41.7419 223.727 41.5787 223.909C41.4336 224.09 41.2522 224.235 41.0526 224.38C42.8484 226.648 45.1522 228.462 47.7642 229.695C47.9094 229.768 48.0726 229.768 48.2359 229.695C53.6777 227.21 57.5596 222.222 58.648 216.345C58.8838 215.111 58.8838 213.859 59.0108 212.626C59.0108 212.463 59.0108 212.227 59.0108 212.136C59.174 211.991 59.3917 211.918 59.6275 211.918C59.9359 211.918 60.081 212.209 60.0629 212.535C60.0629 213.66 60.0629 214.821 59.8089 215.927C59.2647 219.519 57.741 222.875 55.3829 225.632C53.5145 227.881 51.1563 229.659 48.4898 230.874C48.1815 230.983 47.8549 230.983 47.5647 230.874C46.1861 230.294 44.8982 229.532 43.7373 228.589C42.5582 227.682 41.4698 226.666 40.5084 225.523L40.3815 225.36L38.4768 227.174C38.894 227.645 39.3294 228.153 39.801 228.643C41.9415 230.784 44.4629 232.507 47.2382 233.704C47.6736 233.922 48.1815 233.922 48.6168 233.704C51.3377 232.579 53.8047 230.911 55.9089 228.843C59.2647 225.578 61.4596 221.315 62.1852 216.689C62.3847 215.456 62.4754 214.222 62.4754 212.971C62.4754 210.141 62.4754 207.402 62.4754 204.463C62.4754 203.828 62.3666 203.701 61.7317 203.683C57.0336 203.629 52.4987 201.905 48.9433 198.84C48.7438 198.677 48.5443 198.513 48.3447 198.332C48.127 198.114 47.9456 198.132 47.7098 198.332C46.7666 199.076 45.8596 199.838 44.8075 200.527C43.5196 201.379 42.1229 202.051 40.6717 202.54C40.2545 202.685 39.9461 202.54 39.8373 202.268C39.7284 201.996 39.8373 201.633 40.2908 201.488C42.7396 200.563 45.007 199.203 46.9661 197.443C47.4196 196.881 48.254 196.79 48.8163 197.262C48.8889 197.316 48.9433 197.389 48.9977 197.443C50.6484 198.912 52.5349 200.11 54.5666 200.998C56.6889 201.924 58.9745 202.431 61.2963 202.504C61.6047 202.504 61.9312 202.504 62.2215 202.504C62.9289 202.613 63.4731 203.139 63.6001 203.846C63.6182 203.973 63.6182 204.1 63.6001 204.245C63.6001 207.547 63.6001 210.848 63.6001 214.15C63.4731 218.013 62.3484 221.768 60.3168 225.033C57.7229 229.351 53.8229 232.725 49.161 234.647L48.4173 235.01L47.6917 235.046ZM40.5266 223.31L38.9484 221.714L34.087 226.593L35.6652 228.171L40.5266 223.31Z" fill="#F37121"/>
<path d="M47.9997 207.384C51.809 207.42 54.8745 210.558 54.8383 214.367C54.802 218.177 51.6639 221.242 47.8545 221.206C44.0452 221.17 40.9797 218.032 41.0159 214.222V214.204C41.0522 210.395 44.1722 207.347 47.9815 207.384H47.9997ZM47.9997 220.045C51.1922 220.027 53.768 217.415 53.7499 214.222C53.7318 211.03 51.1197 208.472 47.9271 208.49C44.7527 208.508 42.1769 211.102 42.1769 214.277C42.195 217.469 44.7708 220.063 47.9815 220.063H47.9997V220.045Z" fill="#F37121"/>
<path d="M47.5832 213.478L49.2157 211.81C49.5241 211.374 50.1227 211.265 50.5581 211.574C50.6488 211.646 50.7213 211.719 50.7939 211.81L51.7371 212.753C52.1181 213.079 52.1362 213.66 51.8097 214.041C51.7916 214.059 51.7553 214.095 51.7371 214.113L48.4539 217.36C47.9641 217.868 47.1478 217.886 46.6399 217.415C46.6218 217.397 46.6037 217.378 46.5855 217.36L44.2637 214.948C43.8646 214.621 43.8102 214.041 44.1367 213.642C44.173 213.605 44.2092 213.551 44.2637 213.515L45.225 212.553C45.5516 212.172 46.1139 212.1 46.513 212.426C46.5674 212.463 46.6037 212.517 46.6399 212.553L47.5832 213.478ZM45.1706 214.258L47.4199 216.471C47.5288 216.526 47.6557 216.526 47.7464 216.471L50.7757 213.46L49.9776 212.59C49.3609 213.206 48.7804 213.823 48.1274 214.44C47.8734 214.784 47.3837 214.875 47.039 214.621C46.9664 214.567 46.912 214.512 46.8576 214.44C46.5492 214.131 46.2409 213.769 45.9506 213.478L45.1706 214.258Z" fill="#F37121"/>
</g>
</g>
<defs>
<filter id="filter0_d_20202_50237" x="0" y="168" width="96" height="96" filterUnits="userSpaceOnUse" color-interpolation-filters="sRGB">
<feFlood flood-opacity="0" result="BackgroundImageFix"/>
<feColorMatrix in="SourceAlpha" type="matrix" values="0 0 0 0 0 0 0 0 0 0 0 0 0 0 0 0 0 0 127 0" result="hardAlpha"/>
<feOffset/>
<feGaussianBlur stdDeviation="8"/>
<feComposite in2="hardAlpha" operator="out"/>
<feColorMatrix type="matrix" values="0 0 0 0 0 0 0 0 0 0 0 0 0 0 0 0 0 0 0.25 0"/>
<feBlend mode="normal" in2="BackgroundImageFix" result="effect1_dropShadow_20202_50237"/>
<feBlend mode="normal" in="SourceGraphic" in2="effect1_dropShadow_20202_50237" result="shape"/>
</filter>
<clipPath id="clip0_20202_50237">
<rect width="39" height="39" fill="white" transform="translate(28.5 196.5)"/>
</clipPath>
</defs>
</svg>
