<svg width="96" height="340" viewBox="0 0 96 340" fill="none" xmlns="http://www.w3.org/2000/svg">
<circle cx="47.9375" cy="13" r="12.5" fill="white" stroke="#F37121"/>
<path d="M48.125 10.3333C46.6522 10.3333 45.4583 11.5272 45.4583 13C45.4583 14.4728 46.6522 15.6667 48.125 15.6667C49.5978 15.6667 50.7917 14.4728 50.7917 13C50.7917 11.5272 49.5978 10.3333 48.125 10.3333ZM48.125 289.333C46.6522 289.333 45.4583 290.527 45.4583 292C45.4583 293.473 46.6522 294.667 48.125 294.667C49.5977 294.667 50.7917 293.473 50.7917 292C50.7917 290.527 49.5977 289.333 48.125 289.333ZM48.125 13L47.625 13L47.625 292L48.125 292L48.625 292L48.625 13L48.125 13Z" fill="black"/>
<g filter="url(#filter0_d_20202_50221)">
<rect x="16" y="260" width="64" height="64" rx="32" fill="white" shape-rendering="crispEdges"/>
<g clip-path="url(#clip0_20202_50221)">
<path d="M53.3536 302.888C53.4042 302.929 53.4132 302.942 53.424 302.944C54.7168 303.234 54.9515 303.529 54.9515 304.865C54.9515 305.107 54.9605 305.349 54.9515 305.587C54.9487 305.941 54.8069 306.28 54.5566 306.531C54.3064 306.781 53.9677 306.923 53.6136 306.927C53.5159 306.937 53.4189 306.953 53.3229 306.974C53.4944 307.257 53.6353 307.515 53.8014 307.743C53.8742 307.806 53.9686 307.839 54.065 307.835C56.2894 307.835 58.5157 307.844 60.7455 307.835C61.4515 307.835 61.9318 307.281 61.9318 306.517C61.9318 304.495 61.9318 302.472 61.9318 300.45C61.9246 300.337 61.9246 300.223 61.9318 300.109C61.9394 299.973 61.9977 299.846 62.095 299.751C62.1923 299.657 62.3215 299.602 62.4572 299.598C62.5991 299.581 62.7421 299.62 62.8551 299.708C62.968 299.795 63.0418 299.924 63.0603 300.066C63.0787 300.178 63.0835 300.293 63.0747 300.407C63.0747 302.416 63.0747 304.425 63.0747 306.436C63.0747 308.001 62.0979 308.989 60.5343 308.992C58.346 308.992 56.1588 308.992 53.9729 308.992C53.8605 308.981 53.7471 308.998 53.6426 309.04C53.538 309.083 53.4456 309.151 53.3735 309.238C53.1712 309.48 52.9311 309.693 52.7054 309.917C52.05 310.563 51.3476 310.588 50.6417 309.993C50.5947 309.953 50.5442 309.92 50.4322 309.839C50.4105 310.003 50.3961 310.117 50.3799 310.231C50.3522 310.583 50.1895 310.912 49.9258 311.147C49.662 311.382 49.3176 311.507 48.9643 311.495C48.6194 311.495 48.2764 311.495 47.9333 311.495C47.0161 311.495 46.4889 310.995 46.4329 310.083C46.4329 310.023 46.4167 309.966 46.3968 309.83C46.2596 309.933 46.1639 310 46.0736 310.074C45.8181 310.3 45.4866 310.421 45.1455 310.414C44.8044 310.406 44.4788 310.27 44.2337 310.032C44.1842 309.992 44.1389 309.948 44.0983 309.899C43.5567 309.108 42.811 308.936 41.8739 308.969C39.765 309.039 37.6525 308.992 35.5418 308.991C33.8951 308.991 32.9346 308.026 32.9346 306.383C32.9346 295.93 32.9346 285.477 32.9346 275.024C32.9346 274.228 33.1512 273.546 33.7597 273.017C34.1259 272.682 34.605 272.497 35.1012 272.5C42.1718 272.511 49.2399 272.511 56.3057 272.5C56.6507 272.482 56.9955 272.539 57.3164 272.667C57.6374 272.795 57.927 272.991 58.1654 273.241C59.4895 274.662 60.8027 276.097 62.1051 277.545C62.7176 278.239 63.0548 279.134 63.053 280.06C63.0639 280.468 63.0699 280.875 63.0711 281.281V297.151C63.0711 297.253 63.0711 297.356 63.0711 297.457C63.075 297.611 63.0179 297.761 62.9122 297.874C62.8064 297.987 62.6605 298.054 62.506 298.06C62.1792 298.06 61.9408 297.814 61.9246 297.439C61.9246 297.325 61.9246 297.209 61.9246 297.096V281.12H61.475C60.1786 281.12 58.8804 281.12 57.584 281.12C56.1071 281.12 55.0887 280.102 55.0797 278.626C55.0797 277.113 55.0797 275.6 55.0797 274.087V273.584H35.5292C34.5523 273.584 34.0847 274.057 34.0847 275.028V306.392C34.0847 307.382 34.5415 307.837 35.5292 307.837H42.9319L43.5007 306.965C43.3869 306.947 43.3201 306.929 43.2497 306.925C42.3867 306.878 41.8667 306.342 41.8576 305.481C41.8576 305.137 41.8576 304.794 41.8576 304.451C41.8576 303.612 42.3162 303.097 43.145 302.978C43.2407 302.964 43.3255 302.942 43.4953 302.913C43.396 302.781 43.3364 302.695 43.2714 302.611C43.0462 302.355 42.9274 302.021 42.9391 301.68C42.9508 301.338 43.0923 301.014 43.3346 300.773C43.6199 300.465 43.9178 300.169 44.2247 299.883C44.4589 299.654 44.7687 299.517 45.0962 299.499C45.4237 299.48 45.7467 299.582 46.005 299.784C46.3318 300.024 46.3769 300.002 46.4401 299.582C46.4831 299.277 46.6297 298.997 46.8553 298.787C47.0809 298.578 47.3717 298.453 47.6787 298.433C48.1103 298.408 48.5436 298.41 48.9751 298.423C49.7461 298.441 50.2264 298.863 50.3672 299.623C50.4376 299.984 50.4864 300.013 50.7789 299.804C51.0444 299.589 51.3809 299.483 51.7216 299.505C52.0622 299.527 52.3819 299.677 52.6169 299.925C52.8733 300.17 53.1225 300.425 53.3717 300.68C53.9928 301.31 54.0235 301.987 53.471 302.686C53.4277 302.75 53.3885 302.818 53.3536 302.888ZM52.7397 301.757C52.6867 301.665 52.6263 301.577 52.5592 301.494C52.3389 301.265 52.1042 301.048 51.8893 300.815C51.7087 300.62 51.5625 300.643 51.3765 300.815C50.8132 301.357 50.8078 301.346 50.0946 301.017C50.0372 300.986 49.9766 300.961 49.914 300.943C49.403 300.822 49.1593 300.517 49.2261 299.979C49.2604 299.696 49.1412 299.551 48.8325 299.573C48.5789 299.594 48.3241 299.594 48.0705 299.573C47.6878 299.535 47.5505 299.676 47.5704 300.067C47.5975 300.609 47.5036 300.703 46.9854 300.905C46.8915 300.941 46.8049 300.979 46.7055 301.023C45.996 301.344 45.9833 301.351 45.4236 300.811C45.2304 300.631 45.0896 300.631 44.9144 300.811C44.6978 301.044 44.4703 301.268 44.241 301.488C44.0839 301.638 44.0405 301.799 44.2283 301.936C44.7899 302.344 44.8278 302.828 44.4757 303.381C44.434 303.459 44.4041 303.544 44.3872 303.632C44.3561 303.784 44.2687 303.918 44.1425 304.009C44.0163 304.099 43.8605 304.139 43.7065 304.119C42.8579 304.09 43.0186 304.206 43.0042 304.867V304.942C43.0042 305.73 43.0042 305.73 43.7823 305.764C44.3367 305.787 44.9686 306.979 44.6851 307.459C44.6643 307.492 44.6414 307.522 44.6165 307.551C44.4486 307.766 44.1254 307.999 44.1489 308.189C44.1796 308.427 44.4937 308.629 44.6905 308.844C44.7411 308.902 44.8043 308.949 44.8512 309.009C45.0625 309.279 45.2503 309.283 45.4994 309.025C46.0411 308.46 46.0555 308.472 46.7778 308.785C46.906 308.841 47.0378 308.888 47.1696 308.936C47.2983 308.976 47.4096 309.059 47.4854 309.17C47.5611 309.282 47.5968 309.416 47.5867 309.55C47.5666 309.702 47.5702 309.855 47.5975 310.005C47.6426 310.13 47.778 310.301 47.8755 310.314C48.2297 310.35 48.5866 310.35 48.9408 310.314C49.0455 310.314 49.1755 310.159 49.2225 310.045C49.2555 309.909 49.2605 309.768 49.2369 309.63C49.2113 309.464 49.2507 309.294 49.3468 309.156C49.443 309.018 49.5886 308.923 49.7533 308.889C49.8768 308.851 49.9975 308.804 50.1144 308.749C50.7283 308.471 50.8024 308.483 51.2772 308.958C51.6474 309.328 51.6528 309.328 52.0265 308.958L52.1619 308.823C52.765 308.22 52.7668 308.218 52.2287 307.588C51.781 307.064 52.3082 306.669 52.4093 306.221C52.436 306.088 52.51 305.969 52.6175 305.886C52.7249 305.803 52.8588 305.762 52.9943 305.769C53.1344 305.76 53.2749 305.76 53.415 305.769C53.7219 305.798 53.823 305.65 53.8104 305.363C53.7951 305.097 53.7951 304.83 53.8104 304.563C53.8357 304.231 53.7021 304.117 53.3699 304.119C52.6278 304.119 52.6007 304.092 52.3515 303.413C52.3208 303.328 52.2883 303.245 52.2522 303.164C52.0049 302.597 52.0211 302.519 52.4671 302.064C52.5465 301.983 52.6332 301.877 52.7397 301.75V301.757ZM61.8289 279.966C61.8975 279.37 61.7025 278.825 61.1428 278.184C60.4765 277.419 59.7832 276.675 59.0989 275.925C58.568 275.346 58.0342 274.768 57.4974 274.19C57.1669 273.838 56.7878 273.589 56.2714 273.649C56.2562 273.689 56.2453 273.731 56.2389 273.773C56.2389 275.425 56.2208 277.076 56.2389 278.726C56.2389 279.484 56.7661 279.964 57.5389 279.972C58.568 279.982 59.5954 279.972 60.6246 279.972L61.8289 279.966Z" fill="#F37121"/>
<path d="M38.7918 295.118C38.652 295.124 38.512 295.119 38.3729 295.104C38.2504 295.083 38.1385 295.021 38.0547 294.929C37.9709 294.838 37.9199 294.72 37.9098 294.597C37.8997 294.473 37.931 294.349 37.9988 294.245C38.0666 294.14 38.167 294.062 38.2844 294.021C38.4194 293.986 38.5587 293.972 38.6979 293.977C44.9271 293.977 51.1562 293.977 57.3854 293.977C57.5226 293.977 57.7086 293.957 57.7899 294.033C57.964 294.176 58.09 294.369 58.151 294.586C58.1569 294.65 58.1498 294.715 58.1301 294.776C58.1104 294.837 58.0785 294.894 58.0364 294.943C57.9942 294.992 57.9427 295.031 57.8848 295.06C57.8269 295.088 57.7639 295.104 57.6996 295.108C57.5613 295.125 57.4218 295.131 57.2825 295.126L38.7918 295.118Z" fill="#F37121"/>
<path d="M51.5878 290.502C53.5179 290.502 55.4499 290.502 57.38 290.502C57.5605 290.502 57.7989 290.502 57.9217 290.617C57.9957 290.686 58.0544 290.77 58.094 290.864C58.1335 290.957 58.1529 291.058 58.151 291.159C58.1203 291.329 57.9162 291.493 57.7501 291.605C57.6508 291.673 57.4811 291.643 57.3421 291.643H45.866C45.7883 291.643 45.7125 291.643 45.6367 291.643C45.2611 291.621 45.0083 291.386 45.0101 291.061C45.0119 290.736 45.2593 290.498 45.6421 290.496C46.785 290.496 47.9297 290.496 49.0726 290.496L51.5878 290.502Z" fill="#F37121"/>
<path d="M51.7773 288.169C49.9104 288.169 48.0417 288.169 46.1801 288.169C45.9938 288.18 45.8088 288.131 45.6529 288.028C45.5838 287.961 45.5305 287.879 45.4968 287.788C45.4631 287.698 45.4498 287.601 45.4579 287.504C45.5291 287.318 45.6615 287.16 45.8335 287.058C45.9761 287.007 46.1295 286.992 46.2794 287.015C49.9495 287.015 53.6208 287.015 57.2933 287.015C57.3565 287.015 57.4215 287.015 57.4847 287.015C57.9126 287.03 58.1835 287.266 58.1726 287.615C58.1618 287.963 57.9054 288.165 57.4865 288.167C55.5859 288.171 53.6828 288.171 51.7773 288.169Z" fill="#F37121"/>
<path d="M51.8153 283.552H57.3024C57.4295 283.548 57.5567 283.552 57.6833 283.565C57.8122 283.574 57.9331 283.631 58.0229 283.724C58.1128 283.817 58.1654 283.939 58.1708 284.068C58.1919 284.196 58.1641 284.328 58.0928 284.436C58.0215 284.544 57.9121 284.622 57.7862 284.653C57.6271 284.694 57.4628 284.711 57.2987 284.704C53.6274 284.704 49.9561 284.704 46.2848 284.704C46.171 284.709 46.0569 284.705 45.9436 284.693C45.7959 284.682 45.6584 284.614 45.5603 284.503C45.4622 284.392 45.4112 284.247 45.4182 284.099C45.4181 284.026 45.4329 283.953 45.4617 283.886C45.4905 283.818 45.5327 283.758 45.5857 283.707C45.6387 283.656 45.7014 283.617 45.7701 283.591C45.8387 283.566 45.9119 283.554 45.9851 283.557C46.7471 283.545 47.5108 283.557 48.2728 283.557L51.8153 283.552Z" fill="#F37121"/>
<path d="M41.8215 279.995H38.3115C37.824 279.995 37.5767 279.796 37.5767 279.423C37.5767 279.049 37.8348 278.847 38.3151 278.845C40.6419 278.845 42.9686 278.845 45.2954 278.845C45.7305 278.845 45.9779 279.026 46.0176 279.367C46.0519 279.728 45.801 279.99 45.3748 279.991C44.185 279.999 43.0023 279.993 41.8215 279.995Z" fill="#F37121"/>
<path d="M42.8398 285.594C42.6196 285.477 42.4367 285.3 42.3122 285.084C42.1876 284.868 42.1265 284.621 42.1357 284.372C42.1357 284.106 42.096 283.83 42.096 283.572C42.096 283.314 42.0057 283.11 41.7005 283.074C41.6424 283.074 41.5849 283.062 41.5319 283.038C41.4789 283.015 41.4318 282.979 41.3939 282.935C41.356 282.891 41.3283 282.839 41.3126 282.783C41.297 282.727 41.2938 282.669 41.3033 282.611C41.3232 282.308 41.5471 282.25 41.7836 282.225C42.5437 282.146 43.0601 282.586 43.1071 283.35C43.1269 283.68 43.1378 284.011 43.145 284.341C43.1438 284.494 43.1837 284.645 43.2606 284.777C43.3374 284.91 43.4484 285.019 43.5819 285.094C44.1507 285.455 44.1579 285.711 43.6072 286.06C43.4625 286.141 43.3429 286.26 43.2613 286.404C43.1798 286.548 43.1395 286.712 43.145 286.878C43.145 287.239 43.1287 287.615 43.0944 287.983C43.0276 288.683 42.1917 289.182 41.5561 288.886C41.4905 288.848 41.4348 288.795 41.3937 288.732C41.3525 288.669 41.3271 288.596 41.3196 288.521C41.334 288.38 41.4821 288.16 41.5958 288.14C42.0671 288.077 42.114 287.779 42.105 287.401C42.105 287.237 42.1158 287.071 42.1212 286.907C42.1393 286.372 42.2693 285.896 42.8398 285.594Z" fill="#F37121"/>
<path d="M38.8514 285.589C39.4454 285.899 39.5736 286.399 39.5736 286.963C39.5736 287.154 39.5736 287.346 39.5844 287.535C39.5989 287.838 39.6729 288.077 40.0467 288.113C40.1024 288.112 40.1576 288.124 40.2078 288.148C40.2579 288.173 40.3014 288.209 40.3346 288.253C40.3679 288.298 40.3899 288.35 40.3989 288.405C40.4078 288.46 40.4034 288.517 40.3861 288.57C40.3491 288.656 40.2937 288.733 40.2238 288.795C40.154 288.857 40.0713 288.904 39.9817 288.931C39.2071 289.086 38.6112 288.57 38.5805 287.782C38.5805 287.568 38.5661 287.351 38.5805 287.134C38.5932 286.629 38.4542 286.231 37.963 285.97C37.6019 285.789 37.6128 285.379 37.9757 285.191C38.4578 284.944 38.5932 284.558 38.5823 284.065C38.5823 283.798 38.5823 283.523 38.5968 283.263C38.6096 283.088 38.6626 282.919 38.7517 282.768C38.8409 282.618 38.9636 282.489 39.1105 282.394C39.2574 282.298 39.4243 282.238 39.5983 282.218C39.7723 282.198 39.9486 282.218 40.1135 282.277C40.1866 282.314 40.25 282.367 40.2983 282.433C40.3467 282.499 40.3786 282.576 40.3915 282.656C40.3915 282.788 40.2254 283.018 40.1117 283.03C39.635 283.086 39.5953 283.391 39.5917 283.765C39.5917 283.891 39.5826 284.02 39.5826 284.146C39.5682 284.727 39.4779 285.271 38.8514 285.589Z" fill="#F37121"/>
<path d="M40.7147 290.502C41.4008 290.502 42.0869 290.502 42.7748 290.502C43.2244 290.502 43.4718 290.715 43.4682 291.078C43.4646 291.441 43.2136 291.65 42.764 291.65C41.3773 291.65 39.9931 291.65 38.6112 291.65C38.1617 291.65 37.9053 291.441 37.889 291.087C37.8728 290.733 38.14 290.503 38.6112 290.5C39.3154 290.498 40.0142 290.502 40.7147 290.502Z" fill="#F37121"/>
<path d="M39.3118 277.586C38.9507 277.586 38.6004 277.586 38.2465 277.586C37.815 277.574 37.5839 277.375 37.5785 277.014C37.573 276.653 37.8005 276.436 38.2267 276.431C38.9742 276.42 39.7229 276.42 40.4728 276.431C40.8898 276.431 41.1264 276.662 41.121 277.014C41.1155 277.366 40.8772 277.568 40.4529 277.579C40.0719 277.592 39.6946 277.586 39.3118 277.586Z" fill="#F37121"/>
<path d="M44.3421 277.585C43.9611 277.585 43.5801 277.594 43.1992 277.585C42.8182 277.576 42.5672 277.336 42.5672 277.012C42.5682 276.932 42.5856 276.853 42.6183 276.78C42.6511 276.707 42.6984 276.642 42.7575 276.588C42.8165 276.534 42.8861 276.493 42.9617 276.466C43.0374 276.44 43.1176 276.43 43.1973 276.436C43.9593 276.426 44.7212 276.426 45.4832 276.436C45.5633 276.43 45.6438 276.44 45.7198 276.466C45.7958 276.492 45.8656 276.534 45.9249 276.588C45.9842 276.642 46.0317 276.708 46.0644 276.781C46.0971 276.854 46.1144 276.934 46.1151 277.014C46.1151 277.336 45.866 277.576 45.485 277.588C45.104 277.601 44.723 277.585 44.3421 277.585Z" fill="#F37121"/>
<path d="M51.2501 304.944C51.2551 305.51 51.0919 306.065 50.7811 306.538C50.4704 307.012 50.0261 307.382 49.5046 307.602C48.9831 307.823 48.4079 307.883 47.852 307.776C47.296 307.669 46.7844 307.4 46.3819 307.001C45.9794 306.603 45.7043 306.095 45.5913 305.54C45.4784 304.985 45.5327 304.409 45.7474 303.885C45.9622 303.362 46.3276 302.913 46.7975 302.597C47.2673 302.282 47.8204 302.112 48.3865 302.111C49.1408 302.111 49.8649 302.408 50.4011 302.939C50.9374 303.469 51.2425 304.19 51.2501 304.944ZM50.0982 304.944C50.0985 304.719 50.0537 304.496 49.9666 304.288C49.8794 304.08 49.7516 303.892 49.5906 303.734C49.4296 303.576 49.2388 303.452 49.0292 303.369C48.8196 303.286 48.5956 303.246 48.3703 303.251C48.0332 303.255 47.705 303.359 47.427 303.55C47.149 303.74 46.9337 304.009 46.8083 304.322C46.6828 304.635 46.6529 304.978 46.7222 305.308C46.7915 305.637 46.9569 305.939 47.1976 306.175C47.4384 306.411 47.7436 306.571 48.0748 306.633C48.406 306.696 48.7483 306.659 49.0586 306.527C49.3689 306.396 49.6332 306.175 49.8182 305.893C50.0032 305.612 50.1007 305.281 50.0982 304.944Z" fill="#F37121"/>
</g>
</g>
<defs>
<filter id="filter0_d_20202_50221" x="0" y="244" width="96" height="96" filterUnits="userSpaceOnUse" color-interpolation-filters="sRGB">
<feFlood flood-opacity="0" result="BackgroundImageFix"/>
<feColorMatrix in="SourceAlpha" type="matrix" values="0 0 0 0 0 0 0 0 0 0 0 0 0 0 0 0 0 0 127 0" result="hardAlpha"/>
<feOffset/>
<feGaussianBlur stdDeviation="8"/>
<feComposite in2="hardAlpha" operator="out"/>
<feColorMatrix type="matrix" values="0 0 0 0 0 0 0 0 0 0 0 0 0 0 0 0 0 0 0.25 0"/>
<feBlend mode="normal" in2="BackgroundImageFix" result="effect1_dropShadow_20202_50221"/>
<feBlend mode="normal" in="SourceGraphic" in2="effect1_dropShadow_20202_50221" result="shape"/>
</filter>
<clipPath id="clip0_20202_50221">
<rect width="39" height="39" fill="white" transform="translate(28.5 272.5)"/>
</clipPath>
</defs>
</svg>
