<svg width="96" height="325" viewBox="0 0 96 325" fill="none" xmlns="http://www.w3.org/2000/svg">
<circle cx="47.8125" cy="312" r="12.5" fill="white" stroke="#F37121"/>
<path d="M48 54.3333C46.5272 54.3333 45.3333 55.5272 45.3333 57C45.3333 58.4728 46.5272 59.6667 48 59.6667C49.4728 59.6667 50.6667 58.4728 50.6667 57C50.6667 55.5272 49.4728 54.3333 48 54.3333ZM48 309.333C46.5273 309.333 45.3333 310.527 45.3333 312C45.3333 313.473 46.5273 314.667 48 314.667C49.4728 314.667 50.6667 313.473 50.6667 312C50.6667 310.527 49.4728 309.333 48 309.333ZM48 57L47.5 57L47.5 312L48 312L48.5 312L48.5 57L48 57Z" fill="black"/>
<g filter="url(#filter0_d_20202_50197)">
<rect x="16" y="16" width="64" height="64" rx="32" fill="white" shape-rendering="crispEdges"/>
<g clip-path="url(#clip0_20202_50197)">
<path d="M64.6546 67.5C63.8403 66.722 63.0206 65.9529 62.2171 65.1677C60.9695 63.9528 59.7327 62.7289 58.4923 61.5086C58.4291 61.4464 58.3605 61.3878 58.2756 61.3097C55.681 62.9794 52.8896 63.4412 49.943 62.4412C46.9963 61.4411 45.077 59.3913 44.0839 56.4515H35.1446V55.1584H43.8113C43.58 53.6153 43.7585 52.0396 44.3295 50.5845C44.3662 50.4497 44.3785 50.3096 44.3656 50.1706C44.3656 48.0888 44.3656 46.0076 44.3656 43.927V43.4758H45.6764V48.1101C46.1025 47.7176 46.5214 47.3499 46.9169 46.9555C46.9879 46.8399 47.0178 46.7043 47.0017 46.5701C47.0017 45.2503 47.0017 43.9288 47.0017 42.609V42.1774H48.3035V45.9573C48.7567 45.7548 49.1575 45.5914 49.5367 45.3906C49.6107 45.3516 49.6378 45.1757 49.6396 45.0603C49.6396 44.3267 49.6396 43.5931 49.6396 42.8328H50.9523V44.9484L52.2757 44.7707V40.2323H53.5956V44.7583L54.9299 44.9484V38.9339H56.2606V39.3975C56.2606 41.2643 56.2606 43.1277 56.2606 44.9963C56.2606 45.2539 56.3112 45.4084 56.5892 45.5008C56.9258 45.6337 57.2549 45.7843 57.575 45.9519V41.5361H58.9075V41.9553C58.9075 43.4918 58.9075 45.0265 58.9075 46.563C58.8979 46.6683 58.9157 46.7743 58.9593 46.871C59.0029 46.9677 59.0708 47.0518 59.1567 47.1154C59.5359 47.4156 59.897 47.7371 60.2238 48.0142V44.1313H61.5527V44.5505C61.5527 46.428 61.5527 48.3073 61.5527 50.1848C61.5497 50.3739 61.5803 50.562 61.643 50.7408C62.1536 52.0891 62.3192 53.5404 62.125 54.9666C62.125 55.0145 62.125 55.0625 62.125 55.1442H62.8473V56.4054C62.8148 56.4213 62.7895 56.4444 62.7696 56.4409C62.0474 56.3006 61.6195 56.5812 61.4967 57.313C61.4618 57.4882 61.3871 57.6534 61.2782 57.7962C61.0327 58.1372 61.1103 58.3646 61.41 58.6541C63.3239 60.5068 65.2144 62.3843 67.112 64.2476C67.6284 64.7556 67.6266 65.0416 67.112 65.555C66.5974 66.0683 66.0756 66.5817 65.5502 67.0879C65.3949 67.2371 65.2162 67.3614 65.0464 67.4982L64.6546 67.5ZM60.8828 53.8457C60.8821 52.3041 60.4167 50.7973 59.5455 49.5159C58.6742 48.2344 57.4363 47.236 55.9882 46.6468C54.5401 46.0575 52.947 45.904 51.4102 46.2056C49.8734 46.5071 48.462 47.2503 47.3546 48.341C46.2472 49.4317 45.4934 50.8211 45.1886 52.3333C44.8838 53.8455 45.0417 55.4126 45.6423 56.8366C46.2428 58.2605 47.2592 59.4772 48.5627 60.3329C49.8662 61.1885 51.3984 61.6447 52.9655 61.6436C55.066 61.6408 57.0795 60.818 58.5639 59.356C60.0483 57.894 60.8823 55.9122 60.8828 53.8457ZM65.8373 64.9333L60.2599 59.4446L59.2975 60.4908L64.8153 65.928L65.8373 64.9333Z" fill="#F37121"/>
<path d="M44.3475 59.7039V60.9793C44.2573 60.9882 44.1832 61.0041 44.1092 61.0041C41.3359 61.0041 38.5607 61.0237 35.7856 61.0041C35.0292 61.0121 34.2936 60.7611 33.7047 60.2941C33.1157 59.8272 32.7101 59.1733 32.5573 58.4445C32.4959 58.1333 32.4687 57.8165 32.476 57.4995C32.4736 50.7296 32.4724 43.9643 32.4724 37.2038C32.4724 35.0722 33.8627 33.7045 36.0294 33.7027H61.9698C64.1184 33.7027 65.5105 35.0687 65.5123 37.1754C65.5123 43.9785 65.5123 50.7822 65.5123 57.5866C65.5378 58.43 65.2444 59.2528 64.6889 59.8957L63.6941 59.0431C64.2357 58.4605 64.1906 57.7447 64.1906 57.0342C64.1906 50.4335 64.1906 43.8328 64.1906 37.2322C64.1906 35.7668 63.4142 34.9976 61.9282 34.9976H36.0691C34.5759 34.9976 33.7995 35.7579 33.7977 37.2233V57.4729C33.7977 58.9401 34.5741 59.6986 36.0673 59.6986C38.6625 59.6986 41.2564 59.6986 43.8492 59.6986L44.3475 59.7039Z" fill="#F37121"/>
<path d="M61.5238 32.3758H60.2346C60.2346 32.1982 60.2346 32.0366 60.2346 31.8767C60.2238 30.6315 59.3932 29.8002 58.1221 29.7985H32.1004C30.6127 29.7985 29.8254 30.5676 29.8236 32.0206C29.8236 38.7704 29.8236 45.5245 29.8236 52.2826C29.8236 53.3271 30.2479 54.0589 31.306 54.4514L30.9936 55.6771C30.3575 55.5324 29.7839 55.1943 29.3542 54.7108C28.7973 54.1159 28.4919 53.3346 28.5002 52.526C28.5002 45.6198 28.5002 38.7136 28.5002 31.8074C28.511 29.8819 29.9681 28.5 31.9452 28.5H58.0427C60.2978 28.5 61.7621 30.1182 61.5238 32.3758Z" fill="#F37121"/>
<path d="M39.1096 46.0674H40.388V53.828H39.1096V46.0674Z" fill="#F37121"/>
<path d="M41.7494 48.0178H43.0277V53.8298H41.7494V48.0178Z" fill="#F37121"/>
<path d="M37.741 53.844H36.4771V49.993H37.741V53.844Z" fill="#F37121"/>
<path d="M32.4471 32.3758H31.1706V31.1324H32.4471V32.3758Z" fill="#F37121"/>
<path d="M35.0959 31.1147V32.3776H33.832V31.1147H35.0959Z" fill="#F37121"/>
<path d="M36.4645 32.3723V31.1289H37.741V32.3723H36.4645Z" fill="#F37121"/>
<path d="M41.7006 37.5803H40.4367V36.3156H41.7006V37.5803Z" fill="#F37121"/>
<path d="M36.4284 36.3281V37.5715H35.1482V36.3281H36.4284Z" fill="#F37121"/>
<path d="M37.7934 36.3156H39.0573V37.559H37.7934V36.3156Z" fill="#F37121"/>
<path d="M52.9582 47.3499C54.2655 47.3488 55.5436 47.7294 56.6308 48.4435C57.718 49.1575 58.5654 50.1729 59.0656 51.361C59.5659 52.5491 59.6965 53.8566 59.4409 55.1178C59.1854 56.379 58.5551 57.5372 57.63 58.4458C56.7049 59.3544 55.5266 59.9725 54.2442 60.2218C52.9618 60.4712 51.633 60.3405 50.4261 59.8464C49.2192 59.3524 48.1885 58.5171 47.4645 57.4463C46.7405 56.3756 46.3557 55.1175 46.3589 53.8315C46.3632 52.1119 47.0602 50.4642 48.2972 49.2492C49.5342 48.0343 51.2103 47.3513 52.9582 47.3499ZM49.6432 49.8757C47.9713 50.9806 47.2671 53.6059 47.9063 55.1424H58.0355C58.6638 53.3857 57.8188 50.8207 56.2588 49.8882V53.8244H54.948V53.3786C54.948 52.0464 54.948 50.7142 54.948 49.3802C54.948 49.2452 54.8721 49.0249 54.7674 48.9876C54.3886 48.8612 54.0036 48.7539 53.6137 48.6661V53.8333H52.2938V48.6821C51.9327 48.7727 51.6185 48.8597 51.308 48.9201C51.0552 48.9752 50.9631 49.0977 50.9667 49.3713C50.9812 50.6786 50.9667 51.9842 50.9667 53.2915V53.8244H49.6432V49.8757ZM57.5245 56.48H48.3956C49.5132 58.1532 51.0173 59.0502 53.0016 59.036C54.9516 59.0218 56.4303 58.1283 57.5245 56.48Z" fill="#F37121"/>
</g>
</g>
<defs>
<filter id="filter0_d_20202_50197" x="0" y="0" width="96" height="96" filterUnits="userSpaceOnUse" color-interpolation-filters="sRGB">
<feFlood flood-opacity="0" result="BackgroundImageFix"/>
<feColorMatrix in="SourceAlpha" type="matrix" values="0 0 0 0 0 0 0 0 0 0 0 0 0 0 0 0 0 0 127 0" result="hardAlpha"/>
<feOffset/>
<feGaussianBlur stdDeviation="8"/>
<feComposite in2="hardAlpha" operator="out"/>
<feColorMatrix type="matrix" values="0 0 0 0 0 0 0 0 0 0 0 0 0 0 0 0 0 0 0.25 0"/>
<feBlend mode="normal" in2="BackgroundImageFix" result="effect1_dropShadow_20202_50197"/>
<feBlend mode="normal" in="SourceGraphic" in2="effect1_dropShadow_20202_50197" result="shape"/>
</filter>
<clipPath id="clip0_20202_50197">
<rect width="39" height="39" fill="white" transform="translate(28.5 28.5)"/>
</clipPath>
</defs>
</svg>
