<svg width="6" height="261" viewBox="0 0 6 261" fill="none" xmlns="http://www.w3.org/2000/svg">
<path d="M2.66699 5.00679e-06C1.19423 5.07117e-06 0.000325377 1.19391 0.000325441 2.66667C0.000325506 4.13943 1.19423 5.33334 2.66699 5.33334C4.13975 5.33334 5.33366 4.13943 5.33366 2.66667C5.33366 1.19391 4.13975 4.94241e-06 2.66699 5.00679e-06ZM2.667 255C1.19424 255 0.000336523 256.194 0.000336588 257.667C0.000336652 259.139 1.19424 260.333 2.667 260.333C4.13976 260.333 5.33367 259.139 5.33367 257.667C5.33367 256.194 4.13976 255 2.667 255ZM2.66699 2.66667L2.16699 2.66667L2.167 257.667L2.667 257.667L3.167 257.667L3.16699 2.66667L2.66699 2.66667Z" fill="black"/>
</svg>
